<?xml version="1.0" encoding="utf-8"?>
<!-- Generated by IcoMoon.io -->
<!DOCTYPE svg PUBLIC "-//W3C//DTD SVG 1.1//EN" "http://www.w3.org/Graphics/SVG/1.1/DTD/svg11.dtd">
<svg version="1.1" xmlns="http://www.w3.org/2000/svg" xmlns:xlink="http://www.w3.org/1999/xlink" width="32" height="32" viewBox="0 0 32 32">
<g id="icomoon-ignore">
	<line stroke-width="1" x1="" y1="" x2="" y2="" stroke="#449FDB" opacity=""></line>
</g>
	<path d="M30.4 0.64h-10.88c-1.645 0-2.778 0.72-3.52 1.501-0.742-0.781-1.875-1.501-3.52-1.501h-10.88c-0.528 0-0.96 0.432-0.96 0.96v10.88c0 0.528 0 1.392 0 1.92v14.080c0 0.528 0.432 0.96 0.96 0.96h10.88c2.64 0 3.52 2.56 3.52 2.56s0.88-2.56 3.52-2.56h10.88c0.528 0 0.96-0.432 0.96-0.96v-26.88c0-0.528-0.432-0.96-0.96-0.96zM30.080 28.16h-10.56c-1.645 0-2.778 0.72-3.52 1.501-0.742-0.781-1.875-1.501-3.52-1.501h-10.56v-26.24h10.56c2.64 0 3.52 2.56 3.52 2.56s0.88-2.56 3.52-2.56h10.56v26.24z" fill="#000000"></path>
</svg>
