<?xml version="1.0" encoding="utf-8"?>
<!-- Generated by IcoMoon.io -->
<!DOCTYPE svg PUBLIC "-//W3C//DTD SVG 1.1//EN" "http://www.w3.org/Graphics/SVG/1.1/DTD/svg11.dtd">
<svg version="1.1" xmlns="http://www.w3.org/2000/svg" xmlns:xlink="http://www.w3.org/1999/xlink" width="32" height="32" viewBox="0 0 32 32">
<g id="icomoon-ignore">
	<line stroke-width="1" x1="" y1="" x2="" y2="" stroke="#449FDB" opacity=""></line>
</g>
	<path d="M16 13.76c-1.501 0-2.72 1.219-2.72 2.72s1.219 2.72 2.72 2.72c1.501 0 2.72-1.219 2.72-2.72s-1.219-2.72-2.72-2.72z" fill="#000000"></path>
	<path d="M23.040 11.68h-2.56c-0.528 0-0.96-0.397-0.96-0.88s-0.432-0.88-0.96-0.88h-5.12c-0.528 0-0.96 0.397-0.96 0.88s-0.432 0.88-0.96 0.88h-2.56c-0.528 0-0.96 0.432-0.96 0.96v8.48c0 0.528 0.432 0.96 0.96 0.96h14.080c0.528 0 0.96-0.432 0.96-0.96v-8.48c0-0.528-0.432-0.96-0.96-0.96zM16 20.48c-2.208 0-4-1.792-4-4s1.792-4 4-4c2.208 0 4 1.792 4 4s-1.792 4-4 4z" fill="#000000"></path>
</svg>
