<?xml version="1.0" encoding="utf-8"?>
<!-- Generated by IcoMoon.io -->
<!DOCTYPE svg PUBLIC "-//W3C//DTD SVG 1.1//EN" "http://www.w3.org/Graphics/SVG/1.1/DTD/svg11.dtd">
<svg version="1.1" xmlns="http://www.w3.org/2000/svg" xmlns:xlink="http://www.w3.org/1999/xlink" width="32" height="32" viewBox="0 0 32 32">
<g id="icomoon-ignore">
	<line stroke-width="1" x1="" y1="" x2="" y2="" stroke="#449FDB" opacity=""></line>
</g>
	<path d="M16 0.448c-8.589 0-15.552 6.963-15.552 15.552s6.963 15.552 15.552 15.552c8.589 0 15.552-6.963 15.552-15.552s-6.963-15.552-15.552-15.552zM26.093 26.093c-2.586 2.582-6.15 4.179-10.093 4.179s-7.507-1.597-10.093-4.179c-2.582-2.586-4.179-6.15-4.179-10.093s1.597-7.507 4.179-10.093c2.586-2.582 6.15-4.179 10.093-4.179s7.507 1.597 10.093 4.179c2.582 2.586 4.179 6.15 4.179 10.093s-1.597 7.507-4.179 10.093z" fill="#000000"></path>
</svg>
