<?xml version="1.0" encoding="utf-8"?>
<!-- Generated by IcoMoon.io -->
<!DOCTYPE svg PUBLIC "-//W3C//DTD SVG 1.1//EN" "http://www.w3.org/Graphics/SVG/1.1/DTD/svg11.dtd">
<svg version="1.1" xmlns="http://www.w3.org/2000/svg" xmlns:xlink="http://www.w3.org/1999/xlink" width="32" height="32" viewBox="0 0 32 32">
<g id="icomoon-ignore">
	<line stroke-width="1" x1="" y1="" x2="" y2="" stroke="#449FDB" opacity=""></line>
</g>
	<path d="M22.89 20.896c1.386-0.79 2.205-2.045 2.205-3.411 0-2.32-2.394-4.208-5.334-4.208s-5.334 1.888-5.334 4.208c0 2.275 2.301 4.134 5.165 4.205 0.73 1.357 2.349 1.517 3.978 1.517 0.349 0 0.694-0.006 1.037-0.013-0.928-0.573-1.578-1.68-1.715-2.298zM21.642 21.174c0.042 0.192 0.112 0.4 0.202 0.618-0.589-0.128-0.934-0.355-1.123-0.707l-0.352-0.653-0.742-0.019c-2.16-0.054-3.917-1.366-3.917-2.925 0-1.587 1.856-2.928 4.054-2.928s4.054 1.341 4.054 2.928c0 0.896-0.566 1.734-1.558 2.298l-0.822 0.467 0.205 0.922z" fill="#000000"></path>
	<path d="M14.73 20.291l-0.141 0.39c-0.262 0.73-1.043 1.229-2.333 1.494 0.304-0.653 0.48-1.315 0.525-1.984l0.058-0.854-0.768-0.381c-1.949-0.966-3.11-2.55-3.11-4.237 0-2.822 3.158-5.12 7.040-5.12 3.088 0 5.712 1.453 6.662 3.466 0.608 0.262 1.152 0.608 1.616 1.014-0.416-3.235-3.965-5.76-8.278-5.76-4.595 0-8.32 2.864-8.32 6.4 0 2.259 1.523 4.243 3.824 5.382-0.083 1.194-0.71 2.384-1.904 3.578 2.682 0 5.354-0.454 6.157-2.48-0.39-0.266-0.733-0.573-1.027-0.909z" fill="#000000"></path>
</svg>
