<?xml version="1.0" encoding="utf-8"?>
<!-- Generated by IcoMoon.io -->
<!DOCTYPE svg PUBLIC "-//W3C//DTD SVG 1.1//EN" "http://www.w3.org/Graphics/SVG/1.1/DTD/svg11.dtd">
<svg version="1.1" xmlns="http://www.w3.org/2000/svg" xmlns:xlink="http://www.w3.org/1999/xlink" width="32" height="32" viewBox="0 0 32 32">
<g id="icomoon-ignore">
	<line stroke-width="1" x1="" y1="" x2="" y2="" stroke="#449FDB" opacity=""></line>
</g>
	<path d="M16 8.32c-4.595 0-8.32 2.864-8.32 6.4 0 2.259 1.523 4.243 3.824 5.382-0.083 1.194-0.71 2.384-1.904 3.578 2.72 0 5.437-0.464 6.192-2.563 0.070 0 0.138 0.003 0.208 0.003 4.595 0 8.32-2.864 8.32-6.4s-3.725-6.4-8.32-6.4zM16 19.84c-0.035 0-0.067 0-0.099-0.003l-0.083-0.003-0.918-0.016-0.31 0.864c-0.262 0.73-1.043 1.229-2.333 1.494 0.304-0.653 0.48-1.315 0.525-1.984l0.058-0.854-0.768-0.381c-1.949-0.966-3.11-2.55-3.11-4.237 0-2.822 3.158-5.12 7.040-5.12s7.040 2.298 7.040 5.12-3.158 5.12-7.040 5.12z" fill="#000000"></path>
</svg>
