<?xml version="1.0" encoding="utf-8"?>
<!-- Generated by IcoMoon.io -->
<!DOCTYPE svg PUBLIC "-//W3C//DTD SVG 1.1//EN" "http://www.w3.org/Graphics/SVG/1.1/DTD/svg11.dtd">
<svg version="1.1" xmlns="http://www.w3.org/2000/svg" xmlns:xlink="http://www.w3.org/1999/xlink" width="32" height="32" viewBox="0 0 32 32">
<g id="icomoon-ignore">
	<line stroke-width="1" x1="" y1="" x2="" y2="" stroke="#449FDB" opacity=""></line>
</g>
	<path d="M18.186 11.085c-0.051 0-0.128 0.054-0.221 0.166l-3.059 3.744c-0.189 0.234-0.384 0.64-0.464 0.966l-0.010 0.010 0.006 0.003c-0.010 0.038-0.019 0.080-0.022 0.115l-0.704 4.518c-0.048 0.307 0.109 0.371 0.304 0.138l2.893-3.427c0.218-0.259 0.448-0.749 0.506-1.085l0.838-4.854c0.035-0.195 0.006-0.294-0.067-0.294zM14.253 19.824l0.541-3.459c0.16 0.733 0.97 1.152 1.661 0.848l-2.202 2.611zM16.694 16.438c-0.125 0.275-0.387 0.442-0.669 0.458-0.067 0.006-0.131 0.003-0.198-0.010-0.010-0.003-0.016-0.003-0.026-0.003-0.179-0.042-0.304-0.131-0.429-0.259-0.032-0.038-0.064-0.080-0.090-0.125-0.003-0.003-0.003-0.003-0.003-0.006-0.026-0.045-0.045-0.090-0.061-0.138 0-0.003 0-0.003-0.003-0.003-0.176-0.541 0.275-1.098 0.838-1.037 0.534 0.058 0.864 0.637 0.64 1.123-0.125 0.275 0.186-0.4 0 0z" fill="#000000"></path>
	<path d="M16 8.96c-2.899 0-5.565 1.843-6.589 4.557-1.034 2.746-0.214 5.923 2.010 7.83 2.227 1.907 5.507 2.227 8.058 0.774 2.538-1.446 3.939-4.39 3.466-7.27-0.55-3.36-3.546-5.891-6.944-5.891-3.888 0 3.888 0 0 0zM16 21.76c-3.546 0-6.301-3.309-5.667-6.797 0.63-3.472 4.371-5.594 7.677-4.365 2.589 0.963 4.15 3.722 3.658 6.435-0.49 2.707-2.922 4.726-5.667 4.726-1.594 0 1.594 0 0 0z" fill="#000000"></path>
</svg>
