<?xml version="1.0" encoding="utf-8"?>
<!-- Generated by IcoMoon.io -->
<!DOCTYPE svg PUBLIC "-//W3C//DTD SVG 1.1//EN" "http://www.w3.org/Graphics/SVG/1.1/DTD/svg11.dtd">
<svg version="1.1" xmlns="http://www.w3.org/2000/svg" xmlns:xlink="http://www.w3.org/1999/xlink" width="32" height="32" viewBox="0 0 32 32">
<g id="icomoon-ignore">
	<line stroke-width="1" x1="" y1="" x2="" y2="" stroke="#449FDB" opacity=""></line>
</g>
	<path d="M29.44 0.64h-26.88c-1.059 0.003-1.917 0.861-1.92 1.92v22.4c0.003 1.059 0.861 1.917 1.92 1.92h8.246v3.84h-1.846c-0.352 0-0.64 0.288-0.64 0.64s0.288 0.64 0.64 0.64h14.080c0.352 0 0.64-0.288 0.64-0.64s-0.288-0.64-0.64-0.64h-1.846v-3.84h8.246c1.059-0.003 1.917-0.861 1.92-1.92v-22.4c-0.003-1.059-0.861-1.917-1.92-1.92zM19.914 30.72h-7.827v-3.84h7.83v3.84zM29.891 25.411c-0.118 0.118-0.275 0.189-0.451 0.189h-26.88c-0.176 0-0.333-0.070-0.451-0.189s-0.189-0.275-0.189-0.451v-22.4c0-0.176 0.070-0.333 0.189-0.451s0.275-0.189 0.451-0.189h26.88c0.176 0 0.333 0.070 0.451 0.189s0.189 0.275 0.189 0.451v22.4c0 0.176-0.070 0.333-0.189 0.451z" fill="#000000"></path>
	<path d="M2.646 2.56h26.794v20.48h-26.794v-20.48z" fill="#000000"></path>
</svg>
