<?xml version="1.0" encoding="utf-8"?>
<!-- Generated by IcoMoon.io -->
<!DOCTYPE svg PUBLIC "-//W3C//DTD SVG 1.1//EN" "http://www.w3.org/Graphics/SVG/1.1/DTD/svg11.dtd">
<svg version="1.1" xmlns="http://www.w3.org/2000/svg" xmlns:xlink="http://www.w3.org/1999/xlink" width="32" height="32" viewBox="0 0 32 32">
<g id="icomoon-ignore">
	<line stroke-width="1" x1="" y1="" x2="" y2="" stroke="#449FDB" opacity=""></line>
</g>
	<path d="M9.552 8.243v0h0.006c0.227 0 0.451 0 0.672 0 0.944 0 1.818-0.013 2.65-0.186 0.829-0.173 1.626-0.534 2.291-1.206l-0.906-0.906c-0.48 0.477-0.992 0.714-1.651 0.858-0.656 0.141-1.453 0.16-2.384 0.16-0.218 0-0.442 0-0.672 0h-0.010c-2.506 0-4.586 0.886-5.888 2.33l0.95 0.858c1.018-1.13 2.73-1.907 4.941-1.907v0z" fill="#000000"></path>
	<path d="M10.454 10.928c-0.035-0.23-0.157-0.426-0.326-0.563 0.909 0.010 1.616 0.355 2.022 0.867l0.499-0.4c-0.557-0.698-1.475-1.11-2.563-1.11-0.23 0-0.467 0.019-0.71 0.054v0c-1.36 0.211-2.365 0.95-2.771 1.923l0.592 0.246c0.24-0.576 0.787-1.085 1.594-1.363-0.112 0.179-0.166 0.394-0.131 0.621 0.077 0.496 0.541 0.835 1.034 0.758 0.499-0.074 0.838-0.538 0.762-1.034z" fill="#000000"></path>
	<path d="M22.618 9.782c-0.243-0.038-0.48-0.054-0.71-0.054-1.085 0-2.006 0.413-2.563 1.11l0.499 0.4c0.41-0.512 1.114-0.854 2.022-0.867-0.17 0.138-0.291 0.33-0.326 0.563-0.077 0.496 0.262 0.957 0.758 1.034 0.493 0.077 0.957-0.262 1.034-0.758 0.035-0.224-0.019-0.442-0.131-0.621 0.806 0.282 1.354 0.787 1.594 1.363l0.592-0.246c-0.403-0.973-1.408-1.715-2.768-1.923z" fill="#000000"></path>
	<path d="M22.448 6.963v0 0 0 0 0h-0.010c-0.23 0-0.454 0-0.672 0-0.928 0-1.728-0.019-2.384-0.16-0.659-0.144-1.171-0.384-1.651-0.858l-0.906 0.906c0.666 0.669 1.462 1.034 2.291 1.206 0.832 0.176 1.706 0.186 2.65 0.186 0.221 0 0.445 0 0.672 0h0.006c2.211 0 3.923 0.778 4.934 1.907l0.95-0.854c-1.293-1.446-3.373-2.333-5.882-2.333z" fill="#000000"></path>
	<path d="M14.758 19.283c-0.058-0.099-0.090-0.208-0.090-0.352h-0.96c0 0.307 0.080 0.595 0.221 0.835 0.214 0.365 0.547 0.614 0.909 0.771 0.365 0.157 0.765 0.23 1.165 0.23 0.531-0.003 1.069-0.128 1.514-0.419 0.221-0.147 0.419-0.339 0.56-0.582 0.141-0.24 0.221-0.531 0.221-0.835h-0.96c0 0.147-0.035 0.253-0.090 0.352-0.083 0.147-0.24 0.278-0.464 0.374-0.221 0.096-0.499 0.15-0.781 0.15-0.374 0.003-0.746-0.099-0.979-0.259-0.125-0.080-0.211-0.17-0.266-0.266z" fill="#000000"></path>
	<path d="M21.376 24.554c-0.298-0.189-0.573-0.368-0.874-0.534-0.454-0.253-0.973-0.467-1.674-0.605-0.701-0.141-1.587-0.214-2.829-0.214-1.648 0-2.675 0.109-3.475 0.346-0.397 0.118-0.733 0.269-1.040 0.445s-0.586 0.368-0.883 0.579c-0.218 0.154-0.269 0.454-0.115 0.669 0.154 0.218 0.454 0.269 0.669 0.115 0.294-0.208 0.547-0.384 0.8-0.528 0.381-0.214 0.774-0.374 1.389-0.486 0.614-0.115 1.446-0.176 2.653-0.176 1.606 0 2.534 0.128 3.187 0.333 0.326 0.102 0.589 0.221 0.851 0.365 0.259 0.144 0.522 0.314 0.826 0.506 0.224 0.141 0.522 0.074 0.662-0.15 0.144-0.224 0.077-0.522-0.147-0.662z" fill="#000000"></path>
</svg>
