<?xml version="1.0" encoding="utf-8"?>
<!-- Generated by IcoMoon.io -->
<!DOCTYPE svg PUBLIC "-//W3C//DTD SVG 1.1//EN" "http://www.w3.org/Graphics/SVG/1.1/DTD/svg11.dtd">
<svg version="1.1" xmlns="http://www.w3.org/2000/svg" xmlns:xlink="http://www.w3.org/1999/xlink" width="32" height="32" viewBox="0 0 32 32">
<g id="icomoon-ignore">
	<line stroke-width="1" x1="" y1="" x2="" y2="" stroke="#449FDB" opacity=""></line>
</g>
	<path d="M14.848 17.582l2.811-4.929 0.923 0.526-2.811 4.929-0.923-0.526z" fill="#000000"></path>
	<path d="M22.205 16.093c-0.301-0.445-1.398-1.053-2.435-1.347-0.307-0.086-0.678-0.17-1.069-0.243l-0.845 1.485c0.218 0.032 0.413 0.070 0.563 0.109 0.592 0.147 1.078 0.39 1.078 0.541s0 0.634 0 1.078 0.106 0.931 0.237 1.078 0.736 0.269 1.347 0.269c0.611 0 1.238-0.115 1.392-0.259s0.278-0.63 0.278-1.078-0.246-1.187-0.547-1.632z" fill="#000000"></path>
	<path d="M15.917 14.214c-1.046 0.013-2.694 0.25-3.709 0.538-1.034 0.294-2.125 0.896-2.422 1.341s-0.541 1.174-0.541 1.619 0.122 0.931 0.272 1.078c0.147 0.147 0.755 0.269 1.347 0.269s1.2-0.122 1.347-0.269 0.269-0.634 0.269-1.078 0-0.931 0-1.078 0.365-0.39 0.81-0.541c0.326-0.109 1.002-0.202 1.693-0.246l0.934-1.632z" fill="#000000"></path>
</svg>
