<?xml version="1.0" encoding="utf-8"?>
<!-- Generated by IcoMoon.io -->
<!DOCTYPE svg PUBLIC "-//W3C//DTD SVG 1.1//EN" "http://www.w3.org/Graphics/SVG/1.1/DTD/svg11.dtd">
<svg version="1.1" xmlns="http://www.w3.org/2000/svg" xmlns:xlink="http://www.w3.org/1999/xlink" width="32" height="32" viewBox="0 0 32 32">
<g id="icomoon-ignore">
	<line stroke-width="1" x1="" y1="" x2="" y2="" stroke="#449FDB" opacity=""></line>
</g>
	<path d="M16 1.92c-7.776 0-14.080 6.304-14.080 14.080s6.304 14.080 14.080 14.080 14.080-6.304 14.080-14.080-6.304-14.080-14.080-14.080zM16 3.2c6.79 0 12.358 5.315 12.771 12l-2.182 1.501-2.307-1.491c-0.4-4.218-3.962-7.53-8.282-7.53-4.589 0-8.32 3.731-8.32 8.32 0 0.067 0.003 0.134 0.006 0.205l-2.214-1.421-2.262 1.549c-0.003-0.112-0.010-0.221-0.010-0.333 0-7.059 5.741-12.8 12.8-12.8zM23.040 16c0 3.888-3.152 7.040-7.040 7.040s-7.040-3.152-7.040-7.040 3.152-7.040 7.040-7.040 7.040 3.152 7.040 7.040zM16 28.8c-6.582 0-12.016-4.995-12.72-11.392l2.131-1.472 2.41 1.568c0.707 3.872 4.106 6.816 8.179 6.816 4.442 0 8.083-3.501 8.307-7.888l2.221 1.427 2.262-1.549c-0.163 6.915-5.837 12.49-12.79 12.49z" fill="#000000"></path>
</svg>
