<?xml version="1.0" encoding="utf-8"?>
<!-- Generated by IcoMoon.io -->
<!DOCTYPE svg PUBLIC "-//W3C//DTD SVG 1.1//EN" "http://www.w3.org/Graphics/SVG/1.1/DTD/svg11.dtd">
<svg version="1.1" xmlns="http://www.w3.org/2000/svg" xmlns:xlink="http://www.w3.org/1999/xlink" width="32" height="32" viewBox="0 0 32 32">
<g id="icomoon-ignore">
	<line stroke-width="1" x1="" y1="" x2="" y2="" stroke="#449FDB" opacity=""></line>
</g>
	<path d="M11.667 11.232c-0.701 0-1.267 0.566-1.267 1.267s0.566 1.267 1.267 1.267c0.701 0 1.267-0.566 1.267-1.267s-0.57-1.267-1.267-1.267zM11.667 12.982c-0.269 0-0.483-0.218-0.483-0.486s0.218-0.483 0.483-0.486c0.269 0 0.483 0.218 0.483 0.486s-0.214 0.486-0.483 0.486z" fill="#000000"></path>
	<path d="M11.667 14.733c-0.701 0-1.267 0.566-1.267 1.267s0.566 1.267 1.267 1.267c0.701 0 1.267-0.566 1.267-1.267s-0.57-1.267-1.267-1.267zM11.667 16.486c-0.269 0-0.483-0.218-0.483-0.486s0.218-0.483 0.483-0.486c0.269 0 0.483 0.218 0.483 0.486s-0.218 0.483-0.483 0.486z" fill="#000000"></path>
	<path d="M11.667 18.237c-0.701 0-1.267 0.566-1.267 1.267s0.566 1.267 1.267 1.267c0.701 0 1.267-0.566 1.267-1.267s-0.57-1.267-1.267-1.267zM11.667 19.987c-0.269 0-0.483-0.218-0.483-0.486s0.218-0.483 0.483-0.486c0.269 0 0.483 0.218 0.483 0.486s-0.218 0.486-0.483 0.486z" fill="#000000"></path>
	<path d="M13.699 11.715h8.381v1.562h-8.381v-1.562z" fill="#000000"></path>
	<path d="M13.699 15.219h8.381v1.562h-8.381v-1.562z" fill="#000000"></path>
	<path d="M13.699 18.72h8.381v1.562h-8.381v-1.562z" fill="#000000"></path>
</svg>
