<?xml version="1.0" encoding="utf-8"?>
<!-- Generated by IcoMoon.io -->
<!DOCTYPE svg PUBLIC "-//W3C//DTD SVG 1.1//EN" "http://www.w3.org/Graphics/SVG/1.1/DTD/svg11.dtd">
<svg version="1.1" xmlns="http://www.w3.org/2000/svg" xmlns:xlink="http://www.w3.org/1999/xlink" width="32" height="32" viewBox="0 0 32 32">
<g id="icomoon-ignore">
	<line stroke-width="1" x1="" y1="" x2="" y2="" stroke="#449FDB" opacity=""></line>
</g>
	<path d="M21.76 24.32v-16.64c-0.003-1.059-0.861-1.917-1.92-1.92h-7.68c-1.059 0.003-1.917 0.861-1.92 1.92v16.64c0.003 1.059 0.861 1.917 1.92 1.92h7.68c1.059-0.003 1.917-0.861 1.92-1.92zM11.709 24.771c-0.118-0.118-0.189-0.275-0.189-0.451v-16.64c0-0.176 0.070-0.333 0.189-0.451s0.275-0.189 0.451-0.189h7.68c0.176 0 0.333 0.070 0.451 0.189s0.189 0.275 0.189 0.451v16.64c0 0.176-0.070 0.333-0.189 0.451s-0.275 0.189-0.451 0.189h-7.68c-0.176 0-0.333-0.070-0.451-0.189z" fill="#000000"></path>
	<path d="M12.16 8.32h7.68v14.080h-7.68v-14.080z" fill="#000000"></path>
	<path d="M16.64 23.68c0 0.353-0.287 0.64-0.64 0.64s-0.64-0.287-0.64-0.64c0-0.353 0.287-0.64 0.64-0.64s0.64 0.287 0.64 0.64z" fill="#000000"></path>
	<path d="M11.795 5.296h4.906c0.176 0 0.32-0.144 0.32-0.32s-0.144-0.32-0.32-0.32h-4.906c-1.517 0.003-2.742 1.229-2.746 2.746v9.83c0 0.176 0.144 0.32 0.32 0.32s0.32-0.144 0.32-0.32v-9.83c0.003-1.162 0.941-2.102 2.106-2.106z" fill="#000000"></path>
	<path d="M22.95 24.598v0-9.83c0-0.176-0.144-0.32-0.32-0.32s-0.32 0.144-0.32 0.32v9.83c-0.003 1.165-0.944 2.106-2.106 2.109h-4.906c-0.176 0-0.32 0.144-0.32 0.32s0.144 0.32 0.32 0.32h4.906c1.517-0.006 2.742-1.232 2.746-2.749z" fill="#000000"></path>
	<path d="M11.453 4.074h3.427c0.176 0 0.32-0.144 0.32-0.32s-0.144-0.32-0.32-0.32h-3.43c-2.019 0.003-3.651 1.638-3.654 3.654v8.538c0 0.176 0.144 0.32 0.32 0.32s0.32-0.144 0.32-0.32v-8.534c0.003-1.667 1.35-3.014 3.018-3.018z" fill="#000000"></path>
	<path d="M23.885 16.054c-0.176 0-0.32 0.144-0.32 0.32v8.538c-0.003 1.667-1.35 3.014-3.018 3.018h-3.424c-0.176 0-0.32 0.144-0.32 0.32s0.144 0.32 0.32 0.32h3.427c2.019-0.003 3.651-1.638 3.654-3.654v0-8.541c0-0.176-0.141-0.32-0.32-0.32z" fill="#000000"></path>
</svg>
