<?xml version="1.0" encoding="utf-8"?>
<!-- Generated by IcoMoon.io -->
<!DOCTYPE svg PUBLIC "-//W3C//DTD SVG 1.1//EN" "http://www.w3.org/Graphics/SVG/1.1/DTD/svg11.dtd">
<svg version="1.1" xmlns="http://www.w3.org/2000/svg" xmlns:xlink="http://www.w3.org/1999/xlink" width="32" height="32" viewBox="0 0 32 32">
<g id="icomoon-ignore">
	<line stroke-width="1" x1="" y1="" x2="" y2="" stroke="#449FDB" opacity=""></line>
</g>
	<path d="M19.84 5.76h-7.68c-1.059 0.003-1.917 0.861-1.92 1.92v16.64c0.003 1.059 0.861 1.917 1.92 1.92h7.68c1.059-0.003 1.917-0.861 1.92-1.92v-16.64c-0.003-1.059-0.861-1.917-1.92-1.92zM20.291 24.771c-0.118 0.118-0.275 0.189-0.451 0.189h-7.68c-0.176 0-0.333-0.070-0.451-0.189s-0.189-0.275-0.189-0.451v-16.64c0-0.176 0.070-0.333 0.189-0.451s0.275-0.189 0.451-0.189h7.68c0.176 0 0.333 0.070 0.451 0.189s0.189 0.275 0.189 0.451v16.64c0 0.176-0.070 0.333-0.189 0.451z" fill="#000000"></path>
	<path d="M12.16 8.32h7.68v14.080h-7.68v-14.080z" fill="#000000"></path>
	<path d="M16.64 23.68c0 0.353-0.287 0.64-0.64 0.64s-0.64-0.287-0.64-0.64c0-0.353 0.287-0.64 0.64-0.64s0.64 0.287 0.64 0.64z" fill="#000000"></path>
</svg>
