<?xml version="1.0" encoding="utf-8"?>
<!-- Generated by IcoMoon.io -->
<!DOCTYPE svg PUBLIC "-//W3C//DTD SVG 1.1//EN" "http://www.w3.org/Graphics/SVG/1.1/DTD/svg11.dtd">
<svg version="1.1" xmlns="http://www.w3.org/2000/svg" xmlns:xlink="http://www.w3.org/1999/xlink" width="32" height="32" viewBox="0 0 32 32">
<g id="icomoon-ignore">
	<line stroke-width="1" x1="" y1="" x2="" y2="" stroke="#449FDB" opacity=""></line>
</g>
	<path d="M17.92 16.64h5.76v7.68h-5.76v-7.68z" fill="#000000"></path>
	<path d="M17.28 7.68c-0.003-1.059-0.861-1.917-1.92-1.92h-7.68c-1.059 0.003-1.917 0.861-1.92 1.92v16.64c0.003 1.059 0.861 1.917 1.92 1.92h7.68c1.059-0.003 1.917-0.861 1.92-1.92v-16.64zM16 24.32c0 0.176-0.070 0.333-0.189 0.451s-0.275 0.189-0.451 0.189h-7.68c-0.176 0-0.333-0.070-0.451-0.189s-0.189-0.275-0.189-0.451v-16.64c0-0.176 0.070-0.333 0.189-0.451s0.275-0.189 0.451-0.189h7.68c0.176 0 0.333 0.070 0.451 0.189s0.189 0.275 0.189 0.451v16.64z" fill="#000000"></path>
	<path d="M24.32 14.72h-6.4v1.28h6.4c0.176 0 0.333 0.070 0.451 0.189s0.189 0.275 0.189 0.451v7.68c0 0.176-0.070 0.333-0.189 0.451s-0.275 0.189-0.451 0.189h-6.483c-0.131 0.502-0.413 0.947-0.794 1.28h7.277c1.059-0.003 1.917-0.861 1.92-1.92v-7.68c-0.003-1.059-0.861-1.917-1.92-1.92z" fill="#000000"></path>
	<path d="M7.68 8.32h7.68v14.080h-7.68v-14.080z" fill="#000000"></path>
	<path d="M12.16 23.68c0 0.353-0.287 0.64-0.64 0.64s-0.64-0.287-0.64-0.64c0-0.353 0.287-0.64 0.64-0.64s0.64 0.287 0.64 0.64z" fill="#000000"></path>
	<path d="M20.16 6.694c-0.096-0.083-0.211-0.17-0.33-0.259 0.995 0.058 1.84 0.214 2.531 0.47 0.573 0.211 1.043 0.486 1.434 0.819 0.586 0.499 1.002 1.136 1.277 1.962 0.24 0.726 0.362 1.603 0.358 2.624-0.064-0.090-0.128-0.176-0.189-0.25-0.438-0.531-1.322-0.064-1.322-0.064l2.118 2.608 2.358-2.39c0 0-0.835-0.55-1.318-0.064-0.112 0.115-0.24 0.253-0.371 0.39 0.019-1.072-0.074-2.045-0.314-2.912-0.192-0.698-0.477-1.331-0.861-1.885-0.576-0.832-1.386-1.475-2.384-1.904-0.947-0.406-2.064-0.63-3.357-0.694 0.112-0.102 0.224-0.202 0.317-0.291 0.496-0.477-0.038-1.322-0.038-1.322l-2.435 2.314 2.57 2.163c-0.006 0.006 0.477-0.867-0.045-1.315z" fill="#000000"></path>
</svg>
