<?xml version="1.0" encoding="utf-8"?>
<!-- Generated by IcoMoon.io -->
<!DOCTYPE svg PUBLIC "-//W3C//DTD SVG 1.1//EN" "http://www.w3.org/Graphics/SVG/1.1/DTD/svg11.dtd">
<svg version="1.1" xmlns="http://www.w3.org/2000/svg" xmlns:xlink="http://www.w3.org/1999/xlink" width="32" height="32" viewBox="0 0 32 32">
<g id="icomoon-ignore">
	<line stroke-width="1" x1="" y1="" x2="" y2="" stroke="#449FDB" opacity=""></line>
</g>
	<path d="M26.982 19.248c0-0.653-0.317-1.235-0.781-1.626-0.144-0.122-0.301-0.224-0.47-0.31 0.262-0.368 0.419-0.816 0.419-1.306 0-0.419-0.115-0.81-0.317-1.142l1.072-9.254c0.109-1.056-0.8-2-2.032-2.115l-0.589-0.054c0.957 0.262 1.635 1.050 1.59 1.942l-0.467 8.96c-0.211-0.189-0.454-0.339-0.726-0.438l0.438-8.093c0.045-1.059-0.771-1.955-1.83-2.006l-0.506-0.022c0.829 0.211 1.443 0.96 1.446 1.859v8.15c-0.109-0.019-0.214-0.032-0.326-0.032h-0.365v-7.67c-0.003-1.059-0.861-1.917-1.92-1.92h-7.68c-1.059 0.003-1.917 0.861-1.92 1.92v2.499l-0.736 0.806v-3.757c0.003-0.896 0.614-1.645 1.446-1.859l-0.506 0.022c-1.059 0.051-1.875 0.947-1.83 2.006l0.234 4.31-0.698 0.762-0.294-5.494c-0.045-0.896 0.634-1.68 1.59-1.942l-0.589 0.054c-1.235 0.115-2.141 1.059-2.032 2.115l0.688 5.968-2.573 2.81v13.45l13.453 0.054c0.106 0.019 0.218 0.032 0.33 0.032h2.765c0.589 0 1.11-0.282 1.462-0.694 0.355-0.413 0.56-0.96 0.56-1.552 0-0.419-0.106-0.813-0.288-1.155 0.781-0.352 1.325-1.136 1.325-2.048 0-0.512-0.173-0.982-0.464-1.36 0.122-0.070 0.237-0.15 0.342-0.24 0.461-0.394 0.778-0.976 0.778-1.629zM23.904 15.040c0.269 0 0.506 0.106 0.685 0.282 0.176 0.176 0.282 0.416 0.282 0.685s-0.106 0.506-0.282 0.685c-0.176 0.176-0.416 0.282-0.685 0.282h-3.213c-0.269 0-0.506-0.109-0.685-0.282-0.176-0.176-0.282-0.416-0.282-0.685s0.106-0.506 0.282-0.685c0.176-0.176 0.416-0.282 0.685-0.282h3.213zM21.622 5.45c0.176 0 0.333 0.070 0.451 0.189s0.189 0.275 0.189 0.451v7.67h-0.64v-7.030h-5.651c-0.266-0.477-0.486-0.774-0.496-0.794l-0.362-0.486h6.509zM13.302 6.090c0-0.176 0.070-0.333 0.189-0.451s0.275-0.189 0.451-0.189h0.947l-1.587 1.738v-1.098zM18.662 26.605l-10.662-0.045v-11.67l6.864-7.514c0.064 0.115 0.131 0.24 0.198 0.378 0.304 0.621 0.586 1.443 0.582 2.208 0 0.304-0.042 0.602-0.138 0.883s-0.243 0.554-0.47 0.819c-0.627 0.726-1.123 1.318-1.52 1.853-0.595 0.797-0.96 1.491-1.203 2.262-0.179 0.576-0.256 0.88-0.282 1.414l-0.010 0.026v0.234c-0.006 0.256-0.006 0.566 0 0.97v4.317c0.003 1.059 0.861 1.917 1.92 1.92h4.762c-0.144 0.31-0.224 0.662-0.224 1.030 0 0.317 0.064 0.63 0.182 0.915zM18.803 23.37h-4.864c-0.176 0-0.333-0.070-0.451-0.189s-0.189-0.275-0.189-0.451v-4.797c0.022-0.448 0.054-0.829 0.106-1.162 0.096-0.608 0.243-1.059 0.534-1.584v5.622h4.893l0.067 0.064c0.074 0.061 0.15 0.118 0.23 0.17-0.323 0.387-0.515 0.886-0.515 1.434 0 0.317 0.070 0.618 0.189 0.893zM23.808 26.397c-0.173 0.17-0.371 0.246-0.576 0.25h-2.8c-0.198 0-0.39-0.077-0.56-0.25-0.166-0.17-0.285-0.426-0.285-0.72s0.118-0.55 0.285-0.72c0.17-0.17 0.358-0.246 0.56-0.246l2.902 0.010c0.17 0.022 0.33 0.096 0.477 0.237 0.173 0.17 0.294 0.426 0.294 0.72-0.003 0.298-0.125 0.554-0.298 0.72zM24.758 23.158c-0.176 0.176-0.416 0.282-0.685 0.282l-3.312-0.010c-0.227-0.022-0.429-0.118-0.586-0.272-0.176-0.176-0.282-0.416-0.282-0.685s0.106-0.506 0.282-0.685c0.176-0.176 0.416-0.282 0.685-0.282h3.213c0.269 0 0.506 0.106 0.685 0.282 0.176 0.176 0.282 0.416 0.282 0.685 0.003 0.272-0.106 0.509-0.282 0.685zM25.456 19.891c-0.166 0.189-0.416 0.32-0.701 0.32l-4.464 0.003c-0.269 0-0.502-0.131-0.659-0.32-0.157-0.192-0.234-0.413-0.234-0.646s0.077-0.458 0.234-0.646c0.157-0.189 0.39-0.32 0.659-0.32l4.464-0.003c0.285 0 0.534 0.131 0.701 0.317 0.166 0.192 0.25 0.413 0.25 0.646-0.003 0.237-0.083 0.461-0.25 0.65z" fill="#000000"></path>
	<path d="M18.422 22.090c0 0.353-0.287 0.64-0.64 0.64s-0.64-0.287-0.64-0.64c0-0.353 0.287-0.64 0.64-0.64s0.64 0.287 0.64 0.64z" fill="#000000"></path>
</svg>
