<?xml version="1.0" encoding="utf-8"?>
<!-- Generated by IcoMoon.io -->
<!DOCTYPE svg PUBLIC "-//W3C//DTD SVG 1.1//EN" "http://www.w3.org/Graphics/SVG/1.1/DTD/svg11.dtd">
<svg version="1.1" xmlns="http://www.w3.org/2000/svg" xmlns:xlink="http://www.w3.org/1999/xlink" width="32" height="32" viewBox="0 0 32 32">
<g id="icomoon-ignore">
	<line stroke-width="1" x1="" y1="" x2="" y2="" stroke="#449FDB" opacity=""></line>
</g>
	<path d="M23.36 11.613v0c-0.064-0.566-0.333-1.107-0.755-1.53-0.486-0.486-1.133-0.768-1.782-0.768-0.554 0-1.072 0.208-1.45 0.586l-8.266 8.266-0.739 4.154 4.154-0.739 8.266-8.269c0.381-0.378 0.586-0.899 0.586-1.453 0-0.080-0.003-0.163-0.013-0.246zM13.901 20.39l-0.928 0.166c-0.010-0.461-0.381-0.829-0.838-0.842l0.166-0.928 6.406-6.406 1.603 1.603-6.41 6.406zM20.822 10.595c0.288 0 0.614 0.131 0.877 0.394s0.394 0.589 0.394 0.877c0 0.214-0.070 0.403-0.211 0.544l-0.618 0.618-1.603-1.603 0.618-0.618c0.141-0.141 0.33-0.211 0.544-0.211z" fill="#000000"></path>
</svg>
