<?xml version="1.0" encoding="utf-8"?>
<!-- Generated by IcoMoon.io -->
<!DOCTYPE svg PUBLIC "-//W3C//DTD SVG 1.1//EN" "http://www.w3.org/Graphics/SVG/1.1/DTD/svg11.dtd">
<svg version="1.1" xmlns="http://www.w3.org/2000/svg" xmlns:xlink="http://www.w3.org/1999/xlink" width="32" height="32" viewBox="0 0 32 32">
<g id="icomoon-ignore">
	<line stroke-width="1" x1="" y1="" x2="" y2="" stroke="#449FDB" opacity=""></line>
</g>
	<path d="M9.949 15.469l0.81 0.595 1.046-1.536 0.861 1.578 1.056-2.71 0.845 3.411 0.954-4.544 0.979 4.314 0.877-3.216 1.040 3.056 0.842-1.542 1.005 1.475 0.858-0.95 1.034 0.758 0.243-0.090c0-0.022 0.003-0.045 0.003-0.067 0-3.536-2.864-6.4-6.4-6.4-3.395 0-6.166 2.646-6.381 5.987l0.33-0.118z" fill="#000000"></path>
	<path d="M22.051 16.877l-0.845-0.621-1.018 1.12-0.874-1.28-1.037 1.904-0.838-2.458-1.002 3.674-0.899-3.955-0.925 4.416-1.034-4.17-0.822 2.112-1.018-1.869-0.832 1.219-1.069-0.784-0.234 0.086c0.15 3.408 2.95 6.128 6.394 6.128 3.274 0 5.971-2.461 6.349-5.632l-0.298 0.109z" fill="#000000"></path>
</svg>
