<?xml version="1.0" encoding="utf-8"?>
<!-- Generated by IcoMoon.io -->
<!DOCTYPE svg PUBLIC "-//W3C//DTD SVG 1.1//EN" "http://www.w3.org/Graphics/SVG/1.1/DTD/svg11.dtd">
<svg version="1.1" xmlns="http://www.w3.org/2000/svg" xmlns:xlink="http://www.w3.org/1999/xlink" width="32" height="32" viewBox="0 0 32 32">
<g id="icomoon-ignore">
	<line stroke-width="1" x1="" y1="" x2="" y2="" stroke="#449FDB" opacity=""></line>
</g>
	<path d="M3.469 30.080c0 0.634-0.514 1.149-1.149 1.149s-1.149-0.514-1.149-1.149c0-0.634 0.514-1.149 1.149-1.149s1.149 0.514 1.149 1.149z" opacity="1" visibility="false" fill="#000000"></path>
	<path d="M5.677 26.045c-1.226 0-2.221 0.995-2.221 2.221s0.995 2.221 2.221 2.221c1.226 0 2.221-0.995 2.221-2.221-0.003-1.229-0.995-2.221-2.221-2.221zM5.677 29.206c-0.518 0-0.941-0.422-0.941-0.941s0.422-0.941 0.941-0.941c0.518 0 0.941 0.422 0.941 0.941-0.003 0.518-0.422 0.941-0.941 0.941z" opacity="1" visibility="false" fill="#000000"></path>
	<path d="M29.731 16.688c0.57-0.877 0.874-1.894 0.874-2.96 0-1.606-0.726-3.123-1.93-4.154 0.259-0.573 0.394-1.194 0.394-1.834 0-2.483-2.038-4.502-4.541-4.502-0.563 0-1.117 0.106-1.635 0.304-0.938-1.216-2.413-1.971-4.003-1.971-1.011 0-2.003 0.31-2.832 0.867-1.27-0.72-2.701-1.094-4.186-1.094-4.659 0-8.451 3.754-8.451 8.365 0 0.614 0.067 1.222 0.198 1.814-1.549 1.018-2.499 2.733-2.499 4.63 0 0.918 0.224 1.808 0.656 2.608-0.080 0.374-0.118 0.758-0.118 1.142 0 3.13 2.57 5.677 5.728 5.677 0.109 0 0.218-0.003 0.326-0.010 0.643 2.947 3.296 5.162 6.464 5.162 0.954 0 1.891-0.205 2.755-0.602 0.89 0.445 1.872 0.675 2.883 0.675 2.634 0 4.966-1.59 5.939-3.955 2.995-0.672 5.158-3.296 5.158-6.419 0-1.354-0.413-2.65-1.181-3.744zM24.787 25.715c-0.57 2.192-2.576 3.814-4.973 3.814-1.056 0-2.038-0.317-2.854-0.858-0.81 0.493-1.76 0.781-2.784 0.781-2.944 0-5.331-2.358-5.331-5.267 0-0.045 0.006-0.090 0.006-0.134-0.458 0.157-0.95 0.25-1.466 0.25-2.458 0-4.448-1.968-4.448-4.397 0-0.467 0.077-0.918 0.214-1.344-0.474-0.685-0.752-1.514-0.752-2.406 0-1.811 1.139-3.354 2.746-3.981-0.288-0.765-0.445-1.594-0.445-2.461 0-3.914 3.213-7.085 7.171-7.085 1.606 0 3.088 0.522 4.282 1.402 0.685-0.72 1.658-1.174 2.736-1.174 1.622 0 2.998 1.014 3.526 2.438 0.57-0.48 1.306-0.771 2.112-0.771 1.802 0 3.261 1.443 3.261 3.222 0 0.851-0.336 1.622-0.883 2.198 1.427 0.678 2.416 2.118 2.416 3.789 0 1.162-0.477 2.214-1.248 2.976 0.96 0.957 1.555 2.275 1.555 3.731 0.003 2.752-2.122 5.014-4.842 5.277z" opacity="1" visibility="false" fill="#000000"></path>
</svg>
