<?xml version="1.0" encoding="utf-8"?>
<!-- Generated by IcoMoon.io -->
<!DOCTYPE svg PUBLIC "-//W3C//DTD SVG 1.1//EN" "http://www.w3.org/Graphics/SVG/1.1/DTD/svg11.dtd">
<svg version="1.1" xmlns="http://www.w3.org/2000/svg" xmlns:xlink="http://www.w3.org/1999/xlink" width="32" height="32" viewBox="0 0 32 32">
<g id="icomoon-ignore">
	<line stroke-width="1" x1="" y1="" x2="" y2="" stroke="#449FDB" opacity=""></line>
</g>
	<path d="M24.112 17.427c0.531-0.723 0.589-1.763 0.182-2.56-0.384-0.752-1.107-1.11-1.933-1.11-1.101 0-2.198 0-3.299 0-0.538 0-1.078 0-1.616 0-0.275 0-0.618 0.051-0.89-0.022-0.858-0.23-0.669-1.402-0.218-1.898 0.57-0.627 1.222-1.197 1.818-1.802 0.461-0.47 1.062-0.928 1.347-1.533 0.339-0.717 0.23-1.549-0.026-2.272-0.307-0.874-0.819-1.619-1.37-2.352l-10.989 8.938c0 2.493 0 4.982 0 7.475 0 1.101 0 2.202 0 3.302 0 0.557-0.006 1.117 0.246 1.632 0.416 0.845 1.325 1.152 2.189 1.325 2.64 0.531 5.357 0.806 8.032 1.088 0.643 0.067 1.286 0.131 1.933 0.176 0.442 0.029 0.896 0.067 1.328-0.058 1.325-0.387 1.709-2.022 1.19-3.178 1.382-0.342 1.862-2.003 1.315-3.21 1.683-0.451 2.022-2.864 0.758-3.942 0.067-0.086 0.099 0.083 0 0zM23.379 19.901c-0.259 0.32-0.672 0.259-1.040 0.259-0.307 0-0.611 0-0.918 0-0.323 0-0.643 0-0.966 0v1.28c0.17 0 0.336 0 0.506 0 0.339 0 0.765-0.077 1.040 0.17 0.47 0.426 0.429 1.571-0.285 1.728-0.339 0.077-0.739 0.022-1.085 0.022-0.278 0-0.554 0-0.832 0v1.28c0.429 0 0.832-0.038 1.059 0.413 0.278 0.55 0.141 1.504-0.618 1.507h-0.019c-0.029 0-0.061 0-0.090 0v0c-1.702-0.035-3.424-0.298-5.11-0.509-1.741-0.214-3.494-0.416-5.216-0.758v0c-0.355-0.070-0.755-0.15-1.056-0.365-0.298-0.218-0.349-0.582-0.349-0.928 0-0.269 0-0.541 0-0.81 0-1.024 0-2.045 0-3.069 0-2.15 0-4.301 0-6.448 0-0.083 0-0.166 0-0.25l9.45-7.677c0.352 0.618 0.966 1.805 0.339 2.438-0.675 0.675-1.334 1.363-2.013 2.035-0.589 0.586-1.21 1.088-1.427 1.93-0.202 0.781-0.013 1.654 0.544 2.25 0.726 0.781 1.773 0.637 2.736 0.637 1.184 0 2.371 0 3.555 0 0.275 0 0.547 0 0.822 0 0.563 0 0.877 0.41 0.877 0.96 0.003 0.586-0.336 0.96-0.918 0.96-0.387 0-0.774 0-1.162 0v1.28c0.534 0 1.066 0 1.6 0 0.803 0.006 1.021 1.12 0.576 1.664-0.064 0.080 0.134-0.163 0 0z" fill="#000000"></path>
</svg>
