<?xml version="1.0" encoding="utf-8"?>
<!-- Generated by IcoMoon.io -->
<!DOCTYPE svg PUBLIC "-//W3C//DTD SVG 1.1//EN" "http://www.w3.org/Graphics/SVG/1.1/DTD/svg11.dtd">
<svg version="1.1" xmlns="http://www.w3.org/2000/svg" xmlns:xlink="http://www.w3.org/1999/xlink" width="32" height="32" viewBox="0 0 32 32">
<g id="icomoon-ignore">
	<line stroke-width="1" x1="" y1="" x2="" y2="" stroke="#449FDB" opacity=""></line>
</g>
	<path d="M21.76 22.72h-11.52c-0.352 0-0.64 0.288-0.64 0.64v6.72c0 0.352 0.288 0.64 0.64 0.64h11.52c0.352 0 0.64-0.288 0.64-0.64v-6.72c0-0.352-0.288-0.64-0.64-0.64z" fill="#000000"></path>
	<path d="M7.008 20.438c0 0.262-0.218 0.48-0.48 0.48h-3.328c-0.262 0-0.48-0.218-0.48-0.48h-0.32v0.362c0 0.442 0.358 0.8 0.8 0.8h3.328c0.442 0 0.8-0.358 0.8-0.8v-0.362h-0.32z" fill="#000000"></path>
	<path d="M29.28 20.438c0 0.262-0.218 0.48-0.48 0.48h-3.328c-0.262 0-0.48-0.218-0.48-0.48h-0.32v0.362c0 0.442 0.358 0.8 0.8 0.8h3.328c0.442 0 0.8-0.358 0.8-0.8v-0.362h-0.32z" fill="#000000"></path>
	<path d="M23.904 20.438c0 0.262-0.218 0.48-0.48 0.48h-14.848c-0.262 0-0.48-0.218-0.48-0.48h-0.32v0.362c0 0.442 0.358 0.8 0.8 0.8h14.848c0.442 0 0.8-0.358 0.8-0.8v-0.362h-0.32z" fill="#000000"></path>
	<path d="M3.2 18.698h1.024c0.442 0 0.8-0.358 0.8-0.8v-0.362h-0.32c0 0.262-0.218 0.48-0.48 0.48h-1.024c-0.262 0-0.48-0.218-0.48-0.48h-0.32v0.362c0 0.442 0.358 0.8 0.8 0.8z" fill="#000000"></path>
	<path d="M7.296 18.016h-1.024c-0.262 0-0.48-0.218-0.48-0.48h-0.32v0.362c0 0.442 0.358 0.8 0.8 0.8h1.024c0.442 0 0.8-0.358 0.8-0.8v-0.362h-0.32c0 0.262-0.218 0.48-0.48 0.48z" fill="#000000"></path>
	<path d="M10.368 18.016h-1.024c-0.262 0-0.48-0.218-0.48-0.48h-0.32v0.362c0 0.442 0.358 0.8 0.8 0.8h1.024c0.442 0 0.8-0.358 0.8-0.8v-0.362h-0.32c0 0.262-0.218 0.48-0.48 0.48z" fill="#000000"></path>
	<path d="M13.44 18.016h-1.024c-0.262 0-0.48-0.218-0.48-0.48h-0.32v0.362c0 0.442 0.358 0.8 0.8 0.8h1.024c0.442 0 0.8-0.358 0.8-0.8v-0.362h-0.32c0 0.262-0.218 0.48-0.48 0.48z" fill="#000000"></path>
	<path d="M16.512 18.016h-1.024c-0.262 0-0.48-0.218-0.48-0.48h-0.32v0.362c0 0.442 0.358 0.8 0.8 0.8h1.024c0.442 0 0.8-0.358 0.8-0.8v-0.362h-0.32c0 0.262-0.218 0.48-0.48 0.48z" fill="#000000"></path>
	<path d="M19.584 18.016h-1.024c-0.262 0-0.48-0.218-0.48-0.48h-0.32v0.362c0 0.442 0.358 0.8 0.8 0.8h1.024c0.442 0 0.8-0.358 0.8-0.8v-0.362h-0.32c0 0.262-0.218 0.48-0.48 0.48z" fill="#000000"></path>
	<path d="M22.656 18.016h-1.024c-0.262 0-0.48-0.218-0.48-0.48h-0.32v0.362c0 0.442 0.358 0.8 0.8 0.8h1.024c0.442 0 0.8-0.358 0.8-0.8v-0.362h-0.32c0 0.262-0.218 0.48-0.48 0.48z" fill="#000000"></path>
	<path d="M24.224 17.536h-0.32v0.362c0 0.442 0.358 0.8 0.8 0.8h1.024c0.442 0 0.8-0.358 0.8-0.8v-0.362h-0.32c0 0.262-0.218 0.48-0.48 0.48h-1.024c-0.262 0-0.48-0.218-0.48-0.48z" fill="#000000"></path>
	<path d="M29.28 17.536c0 0.262-0.218 0.48-0.48 0.48h-1.024c-0.262 0-0.48-0.218-0.48-0.48h-0.32v0.362c0 0.442 0.358 0.8 0.8 0.8h1.024c0.442 0 0.8-0.358 0.8-0.8v-0.362h-0.32z" fill="#000000"></path>
	<path d="M3.2 15.798h2.56c0.442 0 0.8-0.358 0.8-0.8v-0.362h-0.32c0 0.262-0.218 0.48-0.48 0.48h-2.56c-0.262 0-0.48-0.218-0.48-0.48h-0.32v0.362c0 0.442 0.358 0.8 0.8 0.8z" fill="#000000"></path>
	<path d="M7.808 15.798h1.024c0.442 0 0.8-0.358 0.8-0.8v-0.362h-0.32c0 0.262-0.218 0.48-0.48 0.48h-1.024c-0.262 0-0.48-0.218-0.48-0.48h-0.32v0.362c0 0.442 0.358 0.8 0.8 0.8z" fill="#000000"></path>
	<path d="M10.88 15.798h1.024c0.442 0 0.8-0.358 0.8-0.8v-0.362h-0.32c0 0.262-0.218 0.48-0.48 0.48h-1.024c-0.262 0-0.48-0.218-0.48-0.48h-0.32v0.362c0 0.442 0.358 0.8 0.8 0.8z" fill="#000000"></path>
	<path d="M13.952 15.798h1.024c0.442 0 0.8-0.358 0.8-0.8v-0.362h-0.32c0 0.262-0.218 0.48-0.48 0.48h-1.024c-0.262 0-0.48-0.218-0.48-0.48h-0.32v0.362c0 0.442 0.358 0.8 0.8 0.8z" fill="#000000"></path>
	<path d="M17.024 15.798h1.024c0.442 0 0.8-0.358 0.8-0.8v-0.362h-0.32c0 0.262-0.218 0.48-0.48 0.48h-1.024c-0.262 0-0.48-0.218-0.48-0.48h-0.32v0.362c0 0.442 0.358 0.8 0.8 0.8z" fill="#000000"></path>
	<path d="M20.096 15.798h1.024c0.442 0 0.8-0.358 0.8-0.8v-0.362h-0.32c0 0.262-0.218 0.48-0.48 0.48h-1.024c-0.262 0-0.48-0.218-0.48-0.48h-0.32v0.362c0 0.442 0.358 0.8 0.8 0.8z" fill="#000000"></path>
	<path d="M23.168 15.798h1.024c0.442 0 0.8-0.358 0.8-0.8v-0.362h-0.32c0 0.262-0.218 0.48-0.48 0.48h-1.024c-0.262 0-0.48-0.218-0.48-0.48h-0.32v0.362c0 0.442 0.358 0.8 0.8 0.8z" fill="#000000"></path>
	<path d="M29.28 14.634c0 0.262-0.218 0.48-0.48 0.48h-2.56c-0.262 0-0.48-0.218-0.48-0.48h-0.32v0.362c0 0.442 0.358 0.8 0.8 0.8h2.56c0.442 0 0.8-0.358 0.8-0.8v-0.362h-0.32z" fill="#000000"></path>
</svg>
