<?xml version="1.0" encoding="utf-8"?>
<!-- Generated by IcoMoon.io -->
<!DOCTYPE svg PUBLIC "-//W3C//DTD SVG 1.1//EN" "http://www.w3.org/Graphics/SVG/1.1/DTD/svg11.dtd">
<svg version="1.1" xmlns="http://www.w3.org/2000/svg" xmlns:xlink="http://www.w3.org/1999/xlink" width="6" height="32" viewBox="0 0 6 32">
<g id="icomoon-ignore">
	<line stroke-width="1" x1="" y1="" x2="" y2="" stroke="#449FDB" opacity=""></line>
</g>
	<path d="M5.882 19.21h-0.531c-0.115 0-0.211-0.019-0.282-0.054s-0.118-0.112-0.141-0.227l-0.134-0.63c-0.179 0.163-0.355 0.307-0.525 0.435s-0.349 0.234-0.538 0.323c-0.189 0.086-0.387 0.154-0.602 0.198s-0.448 0.067-0.71 0.067c-0.266 0-0.512-0.038-0.742-0.112s-0.432-0.186-0.602-0.333c-0.17-0.147-0.307-0.336-0.406-0.563s-0.15-0.496-0.15-0.806c0-0.269 0.074-0.528 0.221-0.778s0.387-0.47 0.717-0.666c0.33-0.192 0.762-0.352 1.293-0.477 0.534-0.125 1.184-0.186 1.955-0.186v-0.534c0-0.531-0.112-0.934-0.339-1.206s-0.56-0.41-1.005-0.41c-0.291 0-0.538 0.038-0.736 0.112s-0.371 0.157-0.518 0.25c-0.147 0.093-0.272 0.176-0.378 0.25s-0.208 0.112-0.314 0.112c-0.080 0-0.15-0.022-0.211-0.064s-0.109-0.096-0.144-0.157l-0.214-0.384c0.378-0.362 0.781-0.634 1.216-0.813s0.915-0.269 1.443-0.269c0.381 0 0.72 0.064 1.014 0.189s0.544 0.301 0.746 0.525c0.202 0.224 0.355 0.496 0.458 0.813s0.154 0.669 0.154 1.050v4.346zM2.778 18.477c0.211 0 0.403-0.022 0.579-0.064s0.339-0.102 0.493-0.182c0.154-0.077 0.304-0.173 0.445-0.285s0.278-0.24 0.413-0.384v-1.402c-0.55 0-1.021 0.035-1.405 0.106s-0.698 0.16-0.941 0.275-0.419 0.246-0.528 0.4c-0.109 0.154-0.163 0.323-0.163 0.515 0 0.179 0.029 0.336 0.086 0.467s0.138 0.237 0.234 0.32 0.214 0.144 0.349 0.182 0.282 0.051 0.438 0.051z" fill="#000000"></path>
</svg>
