<?xml version="1.0" encoding="utf-8"?>
<!-- Generated by IcoMoon.io -->
<!DOCTYPE svg PUBLIC "-//W3C//DTD SVG 1.1//EN" "http://www.w3.org/Graphics/SVG/1.1/DTD/svg11.dtd">
<svg version="1.1" xmlns="http://www.w3.org/2000/svg" xmlns:xlink="http://www.w3.org/1999/xlink" width="7" height="32" viewBox="0 0 7 32">
<g id="icomoon-ignore">
	<line stroke-width="1" x1="" y1="" x2="" y2="" stroke="#449FDB" opacity=""></line>
</g>
	<path d="M0.691 19.226v-9.901h1.203v4.074c0.282-0.326 0.605-0.589 0.97-0.79 0.365-0.198 0.784-0.298 1.254-0.298 0.394 0 0.749 0.074 1.069 0.221 0.317 0.147 0.589 0.368 0.813 0.662s0.397 0.656 0.518 1.088c0.122 0.432 0.182 0.931 0.182 1.494 0 0.502-0.067 0.97-0.202 1.402s-0.33 0.806-0.582 1.123c-0.253 0.317-0.563 0.563-0.928 0.746s-0.778 0.272-1.232 0.272c-0.438 0-0.813-0.086-1.12-0.256s-0.576-0.406-0.803-0.714l-0.061 0.618c-0.035 0.17-0.138 0.256-0.31 0.256h-0.771zM3.728 13.264c-0.39 0-0.733 0.090-1.024 0.269-0.294 0.179-0.563 0.432-0.81 0.758v3.293c0.214 0.294 0.454 0.506 0.717 0.624s0.554 0.182 0.877 0.182c0.637 0 1.123-0.227 1.466-0.678s0.512-1.098 0.512-1.936c0-0.445-0.038-0.826-0.118-1.142s-0.192-0.579-0.339-0.784c-0.147-0.205-0.33-0.352-0.544-0.448-0.218-0.093-0.464-0.138-0.736-0.138z" fill="#000000"></path>
</svg>
