<?xml version="1.0" encoding="utf-8"?>
<!-- Generated by IcoMoon.io -->
<!DOCTYPE svg PUBLIC "-//W3C//DTD SVG 1.1//EN" "http://www.w3.org/Graphics/SVG/1.1/DTD/svg11.dtd">
<svg version="1.1" xmlns="http://www.w3.org/2000/svg" xmlns:xlink="http://www.w3.org/1999/xlink" width="6" height="32" viewBox="0 0 6 32">
<g id="icomoon-ignore">
	<line stroke-width="1" x1="" y1="" x2="" y2="" stroke="#449FDB" opacity=""></line>
</g>
	<path d="M5.424 13.626c-0.035 0.048-0.070 0.086-0.109 0.115s-0.086 0.042-0.154 0.042-0.141-0.029-0.218-0.083c-0.080-0.054-0.179-0.118-0.298-0.186s-0.269-0.128-0.442-0.186c-0.173-0.054-0.384-0.083-0.634-0.083-0.333 0-0.624 0.061-0.88 0.179s-0.47 0.291-0.643 0.515c-0.173 0.224-0.301 0.496-0.39 0.813-0.086 0.317-0.131 0.675-0.131 1.069 0 0.413 0.048 0.778 0.141 1.098s0.227 0.589 0.397 0.806 0.378 0.384 0.621 0.496c0.243 0.115 0.518 0.173 0.822 0.173 0.291 0 0.531-0.035 0.72-0.106s0.346-0.147 0.47-0.23c0.125-0.086 0.227-0.163 0.31-0.23 0.080-0.070 0.16-0.106 0.243-0.106 0.102 0 0.179 0.038 0.227 0.115l0.336 0.435c-0.294 0.362-0.666 0.627-1.107 0.797-0.445 0.166-0.912 0.253-1.405 0.253-0.426 0-0.822-0.080-1.187-0.237s-0.682-0.384-0.95-0.682c-0.269-0.298-0.48-0.666-0.637-1.098-0.154-0.435-0.23-0.931-0.23-1.485 0-0.506 0.070-0.973 0.211-1.405s0.346-0.8 0.618-1.114c0.272-0.31 0.605-0.554 1.005-0.73s0.854-0.262 1.37-0.262c0.474 0 0.896 0.077 1.264 0.23s0.691 0.374 0.973 0.656l-0.314 0.429z" fill="#000000"></path>
</svg>
