<?xml version="1.0" encoding="utf-8"?>
<!-- Generated by IcoMoon.io -->
<!DOCTYPE svg PUBLIC "-//W3C//DTD SVG 1.1//EN" "http://www.w3.org/Graphics/SVG/1.1/DTD/svg11.dtd">
<svg version="1.1" xmlns="http://www.w3.org/2000/svg" xmlns:xlink="http://www.w3.org/1999/xlink" width="7" height="32" viewBox="0 0 7 32">
<g id="icomoon-ignore">
	<line stroke-width="1" x1="" y1="" x2="" y2="" stroke="#449FDB" opacity=""></line>
</g>
	<path d="M5.523 19.226c-0.17 0-0.278-0.083-0.323-0.25l-0.109-0.826c-0.291 0.355-0.624 0.637-0.998 0.851s-0.803 0.32-1.286 0.32c-0.39 0-0.742-0.074-1.062-0.224s-0.589-0.371-0.813-0.662-0.397-0.653-0.518-1.088c-0.122-0.435-0.182-0.934-0.182-1.498 0-0.502 0.067-0.97 0.202-1.402s0.33-0.806 0.582-1.126 0.56-0.566 0.925-0.749c0.362-0.182 0.774-0.272 1.235-0.272 0.416 0 0.774 0.070 1.069 0.211s0.56 0.339 0.794 0.595v-3.776h1.197v9.898h-0.71zM3.206 18.349c0.39 0 0.733-0.090 1.024-0.269 0.294-0.179 0.563-0.432 0.81-0.758v-3.293c-0.221-0.294-0.461-0.502-0.723-0.621s-0.554-0.179-0.87-0.179c-0.637 0-1.123 0.227-1.466 0.678-0.339 0.451-0.512 1.098-0.512 1.936 0 0.445 0.038 0.822 0.115 1.139s0.189 0.576 0.336 0.781c0.147 0.205 0.33 0.352 0.544 0.448s0.464 0.138 0.742 0.138z" fill="#000000"></path>
</svg>
