<?xml version="1.0" encoding="utf-8"?>
<!-- Generated by IcoMoon.io -->
<!DOCTYPE svg PUBLIC "-//W3C//DTD SVG 1.1//EN" "http://www.w3.org/Graphics/SVG/1.1/DTD/svg11.dtd">
<svg version="1.1" xmlns="http://www.w3.org/2000/svg" xmlns:xlink="http://www.w3.org/1999/xlink" width="7" height="32" viewBox="0 0 7 32">
<g id="icomoon-ignore">
	<line stroke-width="1" x1="" y1="" x2="" y2="" stroke="#449FDB" opacity=""></line>
</g>
	<path d="M3.699 12.31c0.406 0 0.784 0.067 1.13 0.205s0.643 0.333 0.893 0.592c0.25 0.256 0.448 0.576 0.589 0.954s0.211 0.81 0.211 1.293c0 0.189-0.019 0.314-0.061 0.378s-0.115 0.093-0.227 0.093h-4.531c0.010 0.429 0.067 0.803 0.176 1.123s0.256 0.582 0.445 0.797c0.189 0.214 0.413 0.371 0.672 0.477s0.55 0.157 0.874 0.157c0.301 0 0.56-0.035 0.774-0.106 0.218-0.070 0.403-0.144 0.56-0.224s0.288-0.157 0.394-0.224c0.106-0.070 0.195-0.106 0.272-0.106 0.099 0 0.173 0.038 0.227 0.115l0.336 0.435c-0.147 0.179-0.326 0.336-0.531 0.467s-0.426 0.24-0.662 0.326-0.48 0.15-0.73 0.192c-0.253 0.042-0.499 0.064-0.746 0.064-0.47 0-0.902-0.080-1.299-0.24s-0.739-0.394-1.027-0.698c-0.288-0.307-0.515-0.688-0.675-1.139s-0.243-0.973-0.243-1.558c0-0.474 0.074-0.918 0.218-1.331s0.355-0.771 0.627-1.072c0.272-0.304 0.608-0.541 1.002-0.714 0.397-0.17 0.842-0.256 1.334-0.256zM3.725 13.19c-0.579 0-1.034 0.166-1.363 0.499-0.333 0.333-0.538 0.797-0.618 1.389h3.702c0-0.278-0.038-0.531-0.115-0.762s-0.189-0.429-0.336-0.598c-0.147-0.166-0.33-0.298-0.541-0.39-0.214-0.093-0.458-0.138-0.73-0.138z" fill="#000000"></path>
</svg>
