<?xml version="1.0" encoding="utf-8"?>
<!-- Generated by IcoMoon.io -->
<!DOCTYPE svg PUBLIC "-//W3C//DTD SVG 1.1//EN" "http://www.w3.org/Graphics/SVG/1.1/DTD/svg11.dtd">
<svg version="1.1" xmlns="http://www.w3.org/2000/svg" xmlns:xlink="http://www.w3.org/1999/xlink" width="5" height="32" viewBox="0 0 5 32">
<g id="icomoon-ignore">
	<line stroke-width="1" x1="" y1="" x2="" y2="" stroke="#449FDB" opacity=""></line>
</g>
	<path d="M1.475 19.2v-5.786l-0.752-0.086c-0.093-0.022-0.173-0.058-0.23-0.106-0.061-0.048-0.090-0.115-0.090-0.205v-0.49h1.075v-0.659c0-0.39 0.054-0.736 0.163-1.037 0.109-0.304 0.266-0.557 0.47-0.765s0.448-0.365 0.736-0.474 0.608-0.16 0.966-0.16c0.304 0 0.586 0.045 0.848 0.134l-0.026 0.598c-0.003 0.090-0.042 0.144-0.115 0.16-0.070 0.019-0.173 0.026-0.301 0.026h-0.208c-0.205 0-0.394 0.026-0.56 0.080s-0.314 0.141-0.432 0.262c-0.122 0.122-0.214 0.282-0.278 0.477-0.064 0.198-0.096 0.442-0.096 0.733v0.624h1.968v0.867h-1.936v5.805h-1.203z" fill="#000000"></path>
</svg>
