<?xml version="1.0" encoding="utf-8"?>
<!-- Generated by IcoMoon.io -->
<!DOCTYPE svg PUBLIC "-//W3C//DTD SVG 1.1//EN" "http://www.w3.org/Graphics/SVG/1.1/DTD/svg11.dtd">
<svg version="1.1" xmlns="http://www.w3.org/2000/svg" xmlns:xlink="http://www.w3.org/1999/xlink" width="6" height="32" viewBox="0 0 6 32">
<g id="icomoon-ignore">
	<line stroke-width="1" x1="" y1="" x2="" y2="" stroke="#449FDB" opacity=""></line>
</g>
	<path d="M2.979 12.816c0.294 0 0.573 0.032 0.829 0.096s0.493 0.16 0.704 0.285h1.85v0.445c0 0.147-0.093 0.243-0.282 0.282l-0.771 0.109c0.15 0.291 0.227 0.614 0.227 0.973 0 0.333-0.064 0.634-0.192 0.902-0.128 0.272-0.304 0.502-0.531 0.694s-0.496 0.339-0.806 0.445c-0.31 0.102-0.653 0.154-1.024 0.154-0.317 0-0.618-0.038-0.899-0.115-0.144 0.093-0.253 0.192-0.326 0.298-0.080 0.115-0.115 0.218-0.115 0.32 0 0.166 0.064 0.294 0.195 0.378 0.128 0.086 0.301 0.147 0.518 0.186s0.461 0.054 0.733 0.054c0.275 0 0.554 0 0.838 0s0.563 0.026 0.838 0.074c0.272 0.051 0.518 0.131 0.733 0.246s0.387 0.269 0.518 0.47c0.128 0.198 0.195 0.458 0.195 0.774 0 0.294-0.074 0.579-0.218 0.858s-0.355 0.522-0.627 0.739c-0.275 0.214-0.608 0.387-1.002 0.518-0.394 0.128-0.838 0.195-1.338 0.195s-0.934-0.048-1.306-0.147c-0.374-0.099-0.685-0.23-0.931-0.397s-0.432-0.358-0.554-0.576-0.186-0.445-0.186-0.682c0-0.336 0.106-0.624 0.32-0.858 0.214-0.237 0.506-0.422 0.877-0.56-0.192-0.090-0.346-0.208-0.461-0.358s-0.173-0.349-0.173-0.602c0-0.099 0.016-0.198 0.054-0.304 0.035-0.106 0.090-0.208 0.163-0.314 0.074-0.102 0.166-0.202 0.272-0.294 0.109-0.093 0.234-0.176 0.378-0.25-0.336-0.189-0.598-0.438-0.79-0.749s-0.285-0.675-0.285-1.091c0-0.333 0.064-0.634 0.192-0.902s0.307-0.502 0.534-0.691c0.227-0.189 0.499-0.336 0.816-0.442 0.307-0.109 0.653-0.163 1.030-0.163zM5.101 20.083c0-0.173-0.048-0.314-0.141-0.419s-0.221-0.186-0.384-0.243-0.346-0.099-0.557-0.128c-0.211-0.026-0.432-0.042-0.666-0.042s-0.47 0-0.71 0-0.474-0.029-0.691-0.090c-0.256 0.122-0.464 0.269-0.621 0.445-0.16 0.176-0.24 0.384-0.24 0.627 0 0.154 0.038 0.294 0.118 0.426s0.198 0.246 0.358 0.342c0.16 0.096 0.365 0.173 0.608 0.227s0.531 0.083 0.864 0.083c0.323 0 0.611-0.029 0.867-0.090s0.47-0.144 0.65-0.253c0.176-0.109 0.314-0.24 0.406-0.39 0.093-0.144 0.138-0.314 0.138-0.496zM2.979 16.413c0.243 0 0.458-0.035 0.643-0.102s0.342-0.16 0.467-0.282c0.125-0.122 0.221-0.266 0.282-0.432 0.064-0.17 0.093-0.352 0.093-0.554 0-0.416-0.128-0.749-0.381-0.995s-0.621-0.371-1.107-0.371c-0.48 0-0.845 0.125-1.098 0.371s-0.381 0.579-0.381 0.995c0 0.202 0.032 0.387 0.096 0.554s0.16 0.314 0.285 0.432c0.125 0.122 0.282 0.214 0.464 0.282 0.189 0.067 0.397 0.102 0.637 0.102z" fill="#000000"></path>
</svg>
