<?xml version="1.0" encoding="utf-8"?>
<!-- Generated by IcoMoon.io -->
<!DOCTYPE svg PUBLIC "-//W3C//DTD SVG 1.1//EN" "http://www.w3.org/Graphics/SVG/1.1/DTD/svg11.dtd">
<svg version="1.1" xmlns="http://www.w3.org/2000/svg" xmlns:xlink="http://www.w3.org/1999/xlink" width="6" height="32" viewBox="0 0 6 32">
<g id="icomoon-ignore">
	<line stroke-width="1" x1="" y1="" x2="" y2="" stroke="#449FDB" opacity=""></line>
</g>
	<path d="M0.368 19.2v-9.898h1.197v4.006c0.291-0.31 0.614-0.557 0.966-0.742 0.355-0.186 0.762-0.278 1.222-0.278 0.371 0 0.701 0.061 0.986 0.186 0.285 0.122 0.522 0.298 0.714 0.525s0.336 0.499 0.432 0.816c0.099 0.317 0.147 0.669 0.147 1.056v4.33h-1.197v-4.333c0-0.515-0.118-0.915-0.352-1.2s-0.595-0.426-1.078-0.426c-0.355 0-0.685 0.086-0.992 0.256s-0.589 0.4-0.851 0.691v5.011h-1.194z" fill="#000000"></path>
</svg>
