<?xml version="1.0" encoding="utf-8"?>
<!-- Generated by IcoMoon.io -->
<!DOCTYPE svg PUBLIC "-//W3C//DTD SVG 1.1//EN" "http://www.w3.org/Graphics/SVG/1.1/DTD/svg11.dtd">
<svg version="1.1" xmlns="http://www.w3.org/2000/svg" xmlns:xlink="http://www.w3.org/1999/xlink" width="2" height="32" viewBox="0 0 2 32">
<g id="icomoon-ignore">
	<line stroke-width="1" x1="" y1="" x2="" y2="" stroke="#449FDB" opacity=""></line>
</g>
	<path d="M2.067 10.256c0 0.115-0.022 0.224-0.070 0.326s-0.109 0.192-0.189 0.269c-0.080 0.080-0.17 0.141-0.272 0.186-0.102 0.042-0.211 0.067-0.326 0.067s-0.224-0.022-0.326-0.067c-0.102-0.045-0.192-0.106-0.269-0.186-0.080-0.077-0.141-0.166-0.186-0.269-0.045-0.099-0.067-0.208-0.067-0.326 0-0.115 0.022-0.227 0.067-0.333s0.106-0.198 0.186-0.275c0.077-0.080 0.17-0.141 0.269-0.186s0.208-0.067 0.326-0.067 0.227 0.022 0.33 0.067c0.102 0.045 0.195 0.106 0.272 0.186s0.141 0.17 0.189 0.275c0.042 0.106 0.067 0.218 0.067 0.333zM1.798 12.394v6.806h-1.197v-6.806h1.197z" fill="#000000"></path>
</svg>
