<?xml version="1.0" encoding="utf-8"?>
<!-- Generated by IcoMoon.io -->
<!DOCTYPE svg PUBLIC "-//W3C//DTD SVG 1.1//EN" "http://www.w3.org/Graphics/SVG/1.1/DTD/svg11.dtd">
<svg version="1.1" xmlns="http://www.w3.org/2000/svg" xmlns:xlink="http://www.w3.org/1999/xlink" width="3" height="32" viewBox="0 0 3 32">
<g id="icomoon-ignore">
	<line stroke-width="1" x1="" y1="" x2="" y2="" stroke="#449FDB" opacity=""></line>
</g>
	<path d="M2.931 12.39v7.312c0 0.272-0.035 0.528-0.109 0.762-0.070 0.237-0.186 0.442-0.339 0.614-0.154 0.176-0.355 0.314-0.598 0.413s-0.538 0.15-0.877 0.15c-0.147 0-0.282-0.010-0.403-0.032s-0.243-0.054-0.362-0.102l0.054-0.646c0.010-0.058 0.029-0.096 0.061-0.112s0.080-0.022 0.147-0.022c0.035 0 0.074 0 0.115 0s0.090 0 0.147 0c0.349 0 0.598-0.083 0.746-0.246s0.221-0.426 0.221-0.79v-7.299h1.197zM3.2 10.256c0 0.115-0.022 0.224-0.070 0.326s-0.109 0.192-0.189 0.269c-0.080 0.080-0.17 0.141-0.272 0.186s-0.211 0.067-0.33 0.067-0.224-0.022-0.326-0.067-0.192-0.106-0.269-0.186c-0.080-0.077-0.141-0.166-0.186-0.269-0.045-0.099-0.067-0.208-0.067-0.326 0-0.115 0.022-0.227 0.067-0.333s0.106-0.198 0.186-0.275c0.077-0.080 0.17-0.141 0.269-0.186s0.208-0.067 0.326-0.067 0.227 0.022 0.33 0.067c0.102 0.045 0.195 0.106 0.272 0.186s0.141 0.17 0.189 0.275c0.048 0.106 0.070 0.218 0.070 0.333z" fill="#000000"></path>
</svg>
