<?xml version="1.0" encoding="utf-8"?>
<!-- Generated by IcoMoon.io -->
<!DOCTYPE svg PUBLIC "-//W3C//DTD SVG 1.1//EN" "http://www.w3.org/Graphics/SVG/1.1/DTD/svg11.dtd">
<svg version="1.1" xmlns="http://www.w3.org/2000/svg" xmlns:xlink="http://www.w3.org/1999/xlink" width="7" height="32" viewBox="0 0 7 32">
<g id="icomoon-ignore">
	<line stroke-width="1" x1="" y1="" x2="" y2="" stroke="#449FDB" opacity=""></line>
</g>
	<path d="M1.642 9.302v5.827h0.31c0.090 0 0.163-0.013 0.221-0.038s0.125-0.074 0.195-0.15l2.15-2.304c0.067-0.070 0.134-0.131 0.202-0.176s0.157-0.067 0.269-0.067h1.088l-2.506 2.669c-0.064 0.077-0.125 0.144-0.186 0.202s-0.128 0.109-0.205 0.154c0.080 0.054 0.154 0.115 0.218 0.186s0.128 0.147 0.186 0.24l2.662 3.357h-1.075c-0.099 0-0.182-0.019-0.253-0.058s-0.134-0.096-0.198-0.179l-2.237-2.787c-0.067-0.093-0.134-0.157-0.202-0.186s-0.166-0.045-0.301-0.045h-0.339v3.254h-1.203v-9.898h1.203z" fill="#000000"></path>
</svg>
