<?xml version="1.0" encoding="utf-8"?>
<!-- Generated by IcoMoon.io -->
<!DOCTYPE svg PUBLIC "-//W3C//DTD SVG 1.1//EN" "http://www.w3.org/Graphics/SVG/1.1/DTD/svg11.dtd">
<svg version="1.1" xmlns="http://www.w3.org/2000/svg" xmlns:xlink="http://www.w3.org/1999/xlink" width="10" height="32" viewBox="0 0 10 32">
<g id="icomoon-ignore">
	<line stroke-width="1" x1="" y1="" x2="" y2="" stroke="#449FDB" opacity=""></line>
</g>
	<path d="M0.79 19.2v-6.806h0.714c0.17 0 0.278 0.083 0.323 0.25l0.086 0.698c0.25-0.31 0.531-0.563 0.845-0.758 0.31-0.198 0.672-0.294 1.085-0.294 0.461 0 0.835 0.128 1.12 0.384s0.49 0.602 0.614 1.034c0.093-0.246 0.218-0.461 0.374-0.64 0.154-0.179 0.33-0.326 0.522-0.445s0.397-0.202 0.614-0.256c0.218-0.054 0.438-0.080 0.662-0.080 0.358 0 0.678 0.058 0.957 0.173 0.282 0.115 0.518 0.282 0.714 0.499 0.195 0.221 0.342 0.49 0.448 0.81 0.102 0.32 0.154 0.688 0.154 1.098v4.336h-1.197v-4.333c0-0.534-0.115-0.938-0.349-1.213s-0.573-0.413-1.014-0.413c-0.198 0-0.384 0.035-0.56 0.106s-0.333 0.173-0.467 0.307-0.24 0.304-0.32 0.506c-0.080 0.205-0.118 0.442-0.118 0.71v4.33h-1.197v-4.333c0-0.547-0.109-0.954-0.33-1.222s-0.541-0.403-0.96-0.403c-0.294 0-0.57 0.080-0.822 0.24s-0.486 0.374-0.694 0.65v5.069h-1.203z" fill="#000000"></path>
</svg>
