<?xml version="1.0" encoding="utf-8"?>
<!-- Generated by IcoMoon.io -->
<!DOCTYPE svg PUBLIC "-//W3C//DTD SVG 1.1//EN" "http://www.w3.org/Graphics/SVG/1.1/DTD/svg11.dtd">
<svg version="1.1" xmlns="http://www.w3.org/2000/svg" xmlns:xlink="http://www.w3.org/1999/xlink" width="6" height="32" viewBox="0 0 6 32">
<g id="icomoon-ignore">
	<line stroke-width="1" x1="" y1="" x2="" y2="" stroke="#449FDB" opacity=""></line>
</g>
	<path d="M0.368 19.2v-6.806h0.714c0.17 0 0.278 0.083 0.323 0.25l0.093 0.739c0.294-0.326 0.627-0.592 0.992-0.794s0.787-0.304 1.267-0.304c0.371 0 0.701 0.061 0.986 0.186s0.522 0.298 0.714 0.525 0.336 0.499 0.432 0.816c0.099 0.317 0.147 0.669 0.147 1.056v4.333h-1.197v-4.336c0-0.515-0.118-0.915-0.352-1.2-0.237-0.285-0.595-0.426-1.078-0.426-0.355 0-0.685 0.086-0.992 0.256s-0.589 0.4-0.851 0.691v5.014h-1.197zM3.923 10.294c0.16 0 0.285-0.048 0.374-0.141 0.086-0.093 0.134-0.24 0.138-0.438h0.726c0 0.211-0.029 0.403-0.083 0.582-0.058 0.176-0.138 0.33-0.243 0.454s-0.23 0.224-0.378 0.291c-0.147 0.070-0.307 0.106-0.486 0.106-0.157 0-0.304-0.032-0.442-0.096s-0.266-0.134-0.387-0.211c-0.122-0.077-0.234-0.147-0.342-0.211s-0.214-0.096-0.317-0.096c-0.323 0-0.49 0.198-0.496 0.592h-0.746c0-0.214 0.029-0.41 0.086-0.589 0.058-0.176 0.141-0.33 0.25-0.458s0.234-0.227 0.384-0.294c0.147-0.070 0.307-0.106 0.483-0.106 0.157 0 0.304 0.032 0.442 0.096s0.266 0.134 0.387 0.211 0.234 0.147 0.339 0.211c0.102 0.064 0.205 0.096 0.31 0.096z" fill="#000000"></path>
</svg>
