<?xml version="1.0" encoding="utf-8"?>
<!-- Generated by IcoMoon.io -->
<!DOCTYPE svg PUBLIC "-//W3C//DTD SVG 1.1//EN" "http://www.w3.org/Graphics/SVG/1.1/DTD/svg11.dtd">
<svg version="1.1" xmlns="http://www.w3.org/2000/svg" xmlns:xlink="http://www.w3.org/1999/xlink" width="7" height="32" viewBox="0 0 7 32">
<g id="icomoon-ignore">
	<line stroke-width="1" x1="" y1="" x2="" y2="" stroke="#449FDB" opacity=""></line>
</g>
	<path d="M3.526 12.285c0.496 0 0.947 0.083 1.347 0.25s0.742 0.4 1.021 0.707 0.496 0.672 0.646 1.104c0.15 0.432 0.224 0.915 0.224 1.45 0 0.538-0.074 1.021-0.224 1.453-0.15 0.429-0.365 0.797-0.646 1.101s-0.621 0.538-1.021 0.701c-0.4 0.163-0.851 0.246-1.347 0.246s-0.947-0.083-1.347-0.246c-0.4-0.163-0.742-0.397-1.024-0.701s-0.499-0.672-0.653-1.101c-0.154-0.429-0.227-0.915-0.227-1.453 0-0.534 0.077-1.014 0.227-1.45 0.154-0.432 0.368-0.8 0.653-1.104 0.282-0.304 0.624-0.541 1.024-0.707s0.851-0.25 1.347-0.25zM3.526 18.362c0.672 0 1.174-0.224 1.507-0.675s0.496-1.078 0.496-1.885c0-0.81-0.166-1.443-0.496-1.894-0.333-0.451-0.832-0.678-1.507-0.678-0.339 0-0.637 0.058-0.886 0.176s-0.461 0.285-0.627 0.506-0.294 0.49-0.378 0.81c-0.083 0.32-0.125 0.682-0.125 1.085s0.042 0.765 0.125 1.082c0.083 0.317 0.208 0.586 0.378 0.803s0.378 0.384 0.627 0.499 0.547 0.173 0.886 0.173z" fill="#000000"></path>
</svg>
