<?xml version="1.0" encoding="utf-8"?>
<!-- Generated by IcoMoon.io -->
<!DOCTYPE svg PUBLIC "-//W3C//DTD SVG 1.1//EN" "http://www.w3.org/Graphics/SVG/1.1/DTD/svg11.dtd">
<svg version="1.1" xmlns="http://www.w3.org/2000/svg" xmlns:xlink="http://www.w3.org/1999/xlink" width="6" height="32" viewBox="0 0 6 32">
<g id="icomoon-ignore">
	<line stroke-width="1" x1="" y1="" x2="" y2="" stroke="#449FDB" opacity=""></line>
</g>
	<path d="M0.198 21.52v-9.114h0.71c0.17 0 0.278 0.083 0.323 0.25l0.102 0.806c0.291-0.355 0.624-0.64 0.998-0.854s0.806-0.323 1.293-0.323c0.39 0 0.742 0.077 1.062 0.224s0.589 0.371 0.813 0.666c0.224 0.294 0.397 0.656 0.518 1.091s0.182 0.934 0.182 1.498c0 0.502-0.067 0.97-0.202 1.402s-0.326 0.806-0.579 1.123c-0.253 0.317-0.56 0.563-0.925 0.746s-0.774 0.272-1.232 0.272c-0.419 0-0.781-0.070-1.078-0.208s-0.56-0.336-0.79-0.592v3.011h-1.197zM3.229 13.254c-0.39 0-0.733 0.090-1.024 0.269-0.294 0.179-0.563 0.432-0.81 0.758v3.293c0.221 0.294 0.461 0.506 0.723 0.624 0.262 0.122 0.554 0.182 0.877 0.182 0.63 0 1.117-0.227 1.459-0.678 0.339-0.451 0.512-1.098 0.512-1.936 0-0.445-0.038-0.826-0.118-1.142s-0.192-0.579-0.339-0.784c-0.147-0.205-0.33-0.352-0.544-0.448-0.218-0.093-0.461-0.138-0.736-0.138z" fill="#000000"></path>
</svg>
