<?xml version="1.0" encoding="utf-8"?>
<!-- Generated by IcoMoon.io -->
<!DOCTYPE svg PUBLIC "-//W3C//DTD SVG 1.1//EN" "http://www.w3.org/Graphics/SVG/1.1/DTD/svg11.dtd">
<svg version="1.1" xmlns="http://www.w3.org/2000/svg" xmlns:xlink="http://www.w3.org/1999/xlink" width="6" height="32" viewBox="0 0 6 32">
<g id="icomoon-ignore">
	<line stroke-width="1" x1="" y1="" x2="" y2="" stroke="#449FDB" opacity=""></line>
</g>
	<path d="M6.202 12.406v9.114h-1.197v-3.315c-0.288 0.333-0.614 0.598-0.979 0.8s-0.784 0.304-1.254 0.304c-0.39 0-0.742-0.074-1.062-0.224s-0.589-0.371-0.813-0.662-0.397-0.653-0.518-1.088c-0.122-0.435-0.182-0.934-0.182-1.498 0-0.502 0.067-0.97 0.202-1.402s0.33-0.806 0.582-1.126c0.253-0.317 0.56-0.566 0.925-0.749 0.362-0.182 0.774-0.272 1.235-0.272 0.438 0 0.813 0.080 1.12 0.237s0.582 0.378 0.822 0.666l0.080-0.531c0.045-0.166 0.15-0.25 0.323-0.25h0.717zM3.171 18.339c0.39 0 0.733-0.090 1.024-0.269 0.294-0.179 0.563-0.432 0.81-0.758v-3.293c-0.214-0.288-0.454-0.493-0.72-0.614s-0.557-0.186-0.874-0.186c-0.637 0-1.123 0.227-1.466 0.678-0.339 0.451-0.512 1.098-0.512 1.936 0 0.445 0.038 0.822 0.115 1.139s0.189 0.576 0.336 0.781c0.147 0.205 0.33 0.352 0.544 0.448 0.218 0.093 0.464 0.138 0.742 0.138z" fill="#000000"></path>
</svg>
