<?xml version="1.0" encoding="utf-8"?>
<!-- Generated by IcoMoon.io -->
<!DOCTYPE svg PUBLIC "-//W3C//DTD SVG 1.1//EN" "http://www.w3.org/Graphics/SVG/1.1/DTD/svg11.dtd">
<svg version="1.1" xmlns="http://www.w3.org/2000/svg" xmlns:xlink="http://www.w3.org/1999/xlink" width="4" height="32" viewBox="0 0 4 32">
<g id="icomoon-ignore">
	<line stroke-width="1" x1="" y1="" x2="" y2="" stroke="#449FDB" opacity=""></line>
</g>
	<path d="M0.227 19.2v-6.806h0.685c0.131 0 0.221 0.026 0.269 0.074s0.083 0.134 0.102 0.256l0.080 1.062c0.234-0.474 0.522-0.845 0.864-1.114s0.746-0.4 1.206-0.4c0.189 0 0.358 0.022 0.512 0.064s0.294 0.102 0.422 0.179l-0.154 0.893c-0.032 0.112-0.099 0.166-0.208 0.166-0.064 0-0.16-0.022-0.288-0.064s-0.31-0.064-0.544-0.064c-0.416 0-0.765 0.122-1.046 0.362s-0.515 0.595-0.701 1.056v4.336h-1.2z" fill="#000000"></path>
</svg>
