<?xml version="1.0" encoding="utf-8"?>
<!-- Generated by IcoMoon.io -->
<!DOCTYPE svg PUBLIC "-//W3C//DTD SVG 1.1//EN" "http://www.w3.org/Graphics/SVG/1.1/DTD/svg11.dtd">
<svg version="1.1" xmlns="http://www.w3.org/2000/svg" xmlns:xlink="http://www.w3.org/1999/xlink" width="5" height="32" viewBox="0 0 5 32">
<g id="icomoon-ignore">
	<line stroke-width="1" x1="" y1="" x2="" y2="" stroke="#449FDB" opacity=""></line>
</g>
	<path d="M4.723 13.514c-0.054 0.099-0.138 0.147-0.25 0.147-0.067 0-0.144-0.026-0.227-0.074-0.086-0.048-0.189-0.106-0.314-0.163-0.122-0.061-0.269-0.115-0.442-0.166s-0.371-0.077-0.605-0.077c-0.202 0-0.384 0.026-0.544 0.077s-0.298 0.122-0.413 0.211-0.202 0.195-0.262 0.314-0.090 0.246-0.090 0.387c0 0.176 0.051 0.32 0.15 0.435s0.234 0.218 0.4 0.304c0.166 0.086 0.355 0.16 0.566 0.224s0.426 0.134 0.65 0.208c0.221 0.074 0.438 0.157 0.65 0.246s0.4 0.202 0.563 0.336 0.298 0.298 0.4 0.493c0.099 0.195 0.15 0.429 0.15 0.701 0 0.314-0.058 0.605-0.17 0.87s-0.278 0.496-0.496 0.691c-0.221 0.195-0.49 0.349-0.806 0.461s-0.685 0.17-1.101 0.17c-0.474 0-0.906-0.077-1.29-0.23s-0.714-0.352-0.982-0.595l0.282-0.458c0.035-0.058 0.077-0.102 0.128-0.134s0.115-0.048 0.195-0.048 0.166 0.032 0.256 0.093c0.090 0.064 0.198 0.131 0.326 0.208s0.282 0.147 0.464 0.208c0.182 0.064 0.41 0.093 0.682 0.093 0.234 0 0.438-0.029 0.611-0.090s0.32-0.141 0.438-0.246c0.115-0.102 0.202-0.221 0.259-0.355 0.054-0.134 0.083-0.278 0.083-0.429 0-0.189-0.051-0.342-0.15-0.467s-0.234-0.227-0.4-0.317c-0.166-0.086-0.355-0.163-0.566-0.227-0.214-0.064-0.429-0.134-0.653-0.205-0.221-0.070-0.438-0.154-0.653-0.246s-0.403-0.208-0.57-0.346-0.298-0.31-0.4-0.515c-0.102-0.205-0.15-0.451-0.15-0.742 0-0.259 0.054-0.509 0.16-0.749s0.266-0.451 0.47-0.63c0.205-0.182 0.461-0.326 0.758-0.432 0.301-0.109 0.643-0.16 1.027-0.16 0.448 0 0.851 0.070 1.206 0.211s0.666 0.336 0.925 0.582l-0.269 0.432z" fill="#000000"></path>
</svg>
