<?xml version="1.0" encoding="utf-8"?>
<!-- Generated by IcoMoon.io -->
<!DOCTYPE svg PUBLIC "-//W3C//DTD SVG 1.1//EN" "http://www.w3.org/Graphics/SVG/1.1/DTD/svg11.dtd">
<svg version="1.1" xmlns="http://www.w3.org/2000/svg" xmlns:xlink="http://www.w3.org/1999/xlink" width="5" height="32" viewBox="0 0 5 32">
<g id="icomoon-ignore">
	<line stroke-width="1" x1="" y1="" x2="" y2="" stroke="#449FDB" opacity=""></line>
</g>
	<path d="M2.928 19.309c-0.538 0-0.95-0.15-1.238-0.451s-0.435-0.733-0.435-1.296v-4.166h-0.819c-0.070 0-0.131-0.022-0.182-0.064-0.048-0.042-0.074-0.109-0.074-0.198v-0.477l1.117-0.141 0.275-2.102c0.010-0.067 0.038-0.122 0.086-0.163s0.112-0.064 0.189-0.064h0.605v2.346h1.949v0.867h-1.949v4.086c0 0.288 0.070 0.499 0.208 0.64s0.317 0.208 0.538 0.208c0.125 0 0.234-0.016 0.326-0.051 0.093-0.032 0.173-0.070 0.24-0.112s0.125-0.077 0.173-0.112c0.048-0.035 0.090-0.051 0.125-0.051 0.064 0 0.118 0.038 0.17 0.115l0.349 0.573c-0.205 0.192-0.454 0.342-0.746 0.454-0.294 0.102-0.595 0.16-0.906 0.16z" fill="#000000"></path>
</svg>
