<?xml version="1.0" encoding="utf-8"?>
<!-- Generated by IcoMoon.io -->
<!DOCTYPE svg PUBLIC "-//W3C//DTD SVG 1.1//EN" "http://www.w3.org/Graphics/SVG/1.1/DTD/svg11.dtd">
<svg version="1.1" xmlns="http://www.w3.org/2000/svg" xmlns:xlink="http://www.w3.org/1999/xlink" width="6" height="32" viewBox="0 0 6 32">
<g id="icomoon-ignore">
	<line stroke-width="1" x1="" y1="" x2="" y2="" stroke="#449FDB" opacity=""></line>
</g>
	<path d="M1.565 12.394v4.342c0 0.515 0.118 0.915 0.355 1.197s0.595 0.422 1.075 0.422c0.349 0 0.678-0.083 0.989-0.25s0.595-0.397 0.854-0.691v-5.021h1.197v6.806h-0.71c-0.17 0-0.278-0.083-0.323-0.25l-0.093-0.733c-0.294 0.326-0.627 0.589-0.995 0.79-0.368 0.198-0.787 0.301-1.264 0.301-0.371 0-0.701-0.061-0.986-0.186s-0.522-0.298-0.717-0.522c-0.192-0.224-0.336-0.496-0.432-0.813s-0.144-0.669-0.144-1.056v-4.339h1.194z" fill="#000000"></path>
</svg>
