<?xml version="1.0" encoding="utf-8"?>
<!-- Generated by IcoMoon.io -->
<!DOCTYPE svg PUBLIC "-//W3C//DTD SVG 1.1//EN" "http://www.w3.org/Graphics/SVG/1.1/DTD/svg11.dtd">
<svg version="1.1" xmlns="http://www.w3.org/2000/svg" xmlns:xlink="http://www.w3.org/1999/xlink" width="6" height="32" viewBox="0 0 6 32">
<g id="icomoon-ignore">
	<line stroke-width="1" x1="" y1="" x2="" y2="" stroke="#449FDB" opacity=""></line>
</g>
	<path d="M2.394 15.712l-2.291-3.318h1.149c0.099 0 0.17 0.016 0.214 0.048s0.086 0.077 0.122 0.134l1.667 2.554c0.042-0.125 0.099-0.25 0.176-0.378l1.466-2.15c0.045-0.064 0.090-0.112 0.134-0.15s0.099-0.058 0.166-0.058h1.104l-2.291 3.251 2.381 3.555h-1.149c-0.099 0-0.176-0.026-0.23-0.077-0.058-0.051-0.102-0.109-0.138-0.173l-1.715-2.669c-0.032 0.131-0.077 0.246-0.141 0.349l-1.587 2.317c-0.045 0.064-0.093 0.122-0.144 0.173-0.048 0.054-0.122 0.080-0.211 0.080h-1.066l2.384-3.488z" fill="#000000"></path>
</svg>
