<?xml version="1.0" encoding="utf-8"?>
<!-- Generated by IcoMoon.io -->
<!DOCTYPE svg PUBLIC "-//W3C//DTD SVG 1.1//EN" "http://www.w3.org/Graphics/SVG/1.1/DTD/svg11.dtd">
<svg version="1.1" xmlns="http://www.w3.org/2000/svg" xmlns:xlink="http://www.w3.org/1999/xlink" width="7" height="32" viewBox="0 0 7 32">
<g id="icomoon-ignore">
	<line stroke-width="1" x1="" y1="" x2="" y2="" stroke="#449FDB" opacity=""></line>
</g>
	<path d="M2.883 21.21c-0.042 0.090-0.090 0.16-0.15 0.214s-0.154 0.080-0.278 0.080h-0.89l1.245-2.701-2.81-6.41h1.034c0.102 0 0.182 0.026 0.243 0.077s0.099 0.109 0.128 0.173l1.821 4.288c0.042 0.099 0.074 0.198 0.106 0.294 0.029 0.099 0.054 0.198 0.077 0.304 0.032-0.102 0.064-0.205 0.093-0.304 0.032-0.099 0.067-0.198 0.109-0.304l1.766-4.282c0.026-0.070 0.074-0.131 0.138-0.179s0.134-0.070 0.211-0.070h0.954l-3.795 8.819z" fill="#000000"></path>
</svg>
