<?xml version="1.0" encoding="utf-8"?>
<!-- Generator: Adobe Illustrator 16.0.0, SVG Export Plug-In . SVG Version: 6.00 Build 0)  -->
<!DOCTYPE svg PUBLIC "-//W3C//DTD SVG 1.1//EN" "http://www.w3.org/Graphics/SVG/1.1/DTD/svg11.dtd">
<svg version="1.1" id="Capa_1" xmlns="http://www.w3.org/2000/svg" xmlns:xlink="http://www.w3.org/1999/xlink" x="0px" y="0px"
	 width="6.208px" height="28px" viewBox="0 0 6.208 28" enable-background="new 0 0 6.208 28" xml:space="preserve">
<g id="icomoon-ignore">
	<line fill="none" stroke="#449FDB" x1="3.104" y1="0" x2="3.104" y2="0"/>
</g>
<path d="M5.451,16.809H4.986c-0.102,0-0.186-0.018-0.246-0.049c-0.062-0.031-0.105-0.098-0.123-0.199l-0.119-0.552
	c-0.156,0.144-0.311,0.269-0.459,0.382c-0.148,0.111-0.305,0.203-0.47,0.282c-0.165,0.076-0.339,0.134-0.526,0.175
	c-0.187,0.039-0.392,0.059-0.622,0.059c-0.232,0-0.448-0.034-0.65-0.098c-0.202-0.064-0.378-0.162-0.526-0.291
	s-0.269-0.295-0.356-0.494c-0.087-0.198-0.132-0.434-0.132-0.705c0-0.235,0.064-0.463,0.193-0.68
	c0.129-0.219,0.339-0.413,0.627-0.583c0.288-0.168,0.666-0.308,1.131-0.417c0.468-0.109,1.036-0.162,1.712-0.162v-0.468
	c0-0.465-0.098-0.818-0.297-1.056c-0.199-0.238-0.49-0.358-0.88-0.358c-0.255,0-0.47,0.034-0.644,0.098
	c-0.174,0.064-0.325,0.137-0.454,0.218c-0.129,0.081-0.238,0.154-0.33,0.218c-0.092,0.064-0.182,0.098-0.274,0.098
	c-0.07,0-0.132-0.02-0.185-0.056c-0.053-0.036-0.095-0.084-0.126-0.137l-0.188-0.336c0.33-0.316,0.683-0.554,1.064-0.711
	c0.381-0.157,0.801-0.235,1.263-0.235c0.333,0,0.631,0.056,0.889,0.165s0.477,0.263,0.652,0.459
	c0.176,0.196,0.311,0.434,0.398,0.711c0.09,0.277,0.135,0.585,0.135,0.918v3.802L5.451,16.809z M2.734,16.167
	c0.185,0,0.353-0.021,0.507-0.056c0.154-0.036,0.297-0.09,0.431-0.16c0.135-0.067,0.266-0.151,0.389-0.249
	c0.123-0.099,0.244-0.21,0.361-0.336V14.14c-0.48,0-0.893,0.031-1.229,0.092s-0.61,0.14-0.823,0.241s-0.367,0.216-0.462,0.35
	s-0.143,0.282-0.143,0.45c0,0.158,0.025,0.295,0.076,0.41c0.051,0.114,0.12,0.207,0.204,0.279c0.084,0.073,0.188,0.126,0.305,0.16
	C2.467,16.157,2.596,16.168,2.734,16.167L2.734,16.167z"/>
</svg>
