<?xml version="1.0" encoding="utf-8"?>
<!-- Generated by IcoMoon.io -->
<!DOCTYPE svg PUBLIC "-//W3C//DTD SVG 1.1//EN" "http://www.w3.org/Graphics/SVG/1.1/DTD/svg11.dtd">
<svg version="1.1" xmlns="http://www.w3.org/2000/svg" xmlns:xlink="http://www.w3.org/1999/xlink" width="6" height="28" viewBox="0 0 6 28">
<g id="icomoon-ignore">
	<line stroke-width="1" x1="" y1="" x2="" y2="" stroke="#449FDB" opacity=""></line>
</g>
	<path d="M5.146 16.808h-0.465c-0.101 0-0.185-0.017-0.246-0.048s-0.104-0.098-0.123-0.199l-0.118-0.552c-0.157 0.143-0.311 0.269-0.459 0.381s-0.305 0.204-0.47 0.283c-0.165 0.076-0.339 0.134-0.526 0.174s-0.392 0.059-0.622 0.059c-0.232 0-0.448-0.034-0.65-0.098s-0.378-0.162-0.526-0.291c-0.148-0.129-0.269-0.294-0.356-0.493s-0.132-0.434-0.132-0.706c0-0.235 0.064-0.462 0.193-0.68s0.339-0.412 0.627-0.582c0.288-0.168 0.666-0.308 1.131-0.417 0.468-0.109 1.036-0.162 1.711-0.162v-0.468c0-0.465-0.098-0.818-0.297-1.056s-0.49-0.358-0.879-0.358c-0.255 0-0.47 0.034-0.644 0.098s-0.325 0.137-0.454 0.218c-0.129 0.081-0.238 0.154-0.33 0.218s-0.182 0.098-0.274 0.098c-0.070 0-0.132-0.020-0.185-0.056s-0.095-0.084-0.126-0.137l-0.188-0.336c0.33-0.316 0.683-0.554 1.064-0.711s0.801-0.235 1.263-0.235c0.333 0 0.63 0.056 0.888 0.165s0.476 0.263 0.652 0.459c0.176 0.196 0.311 0.434 0.4 0.711s0.134 0.585 0.134 0.918v3.802zM2.43 16.167c0.185 0 0.353-0.020 0.507-0.056s0.297-0.090 0.431-0.16c0.134-0.067 0.266-0.151 0.389-0.249s0.244-0.21 0.361-0.336v-1.226c-0.482 0-0.893 0.031-1.229 0.092s-0.61 0.14-0.823 0.241-0.367 0.216-0.462 0.35c-0.095 0.134-0.143 0.283-0.143 0.451 0 0.157 0.025 0.294 0.076 0.409s0.12 0.207 0.204 0.28 0.188 0.126 0.305 0.16 0.246 0.045 0.384 0.045z" opacity="1" visibility="false" fill="#000000"></path>
</svg>
