<?xml version="1.0" encoding="utf-8"?>
<!-- Generated by IcoMoon.io -->
<!DOCTYPE svg PUBLIC "-//W3C//DTD SVG 1.1//EN" "http://www.w3.org/Graphics/SVG/1.1/DTD/svg11.dtd">
<svg version="1.1" xmlns="http://www.w3.org/2000/svg" xmlns:xlink="http://www.w3.org/1999/xlink" width="32" height="32" viewBox="0 0 32 32">
<g>
	<line stroke-width="1" x1="" y1="" x2="" y2="" stroke="#449FDB" opacity=""></line>
</g>
	<path d="M18.16 19.942c-0.941-0.038-1.28 1.29-1.28 1.29l4.582 0.218-0.246-4.582c0 0-1.325 0.349-1.28 1.29 0.022 0.438 0.048 0.365 0.074 0.864 0.006 0.038 0.013 0.074 0.019 0.112l-3.13-3.133 3.117-3.117c-0.003 0.032-0.006 0.061-0.006 0.093-0.038 0.416-0.048 0.426-0.067 0.864-0.038 0.941 1.29 1.28 1.29 1.28l0.218-4.582-4.582 0.246c0 0 0.349 1.325 1.29 1.28 0.438-0.019 0.365-0.048 0.864-0.074 0.038-0.006 0.077-0.013 0.112-0.019l-3.133 3.13-3.117-3.117c0.032 0.003 0.061 0.006 0.093 0.006 0.416 0.038 0.426 0.048 0.864 0.067 0.941 0.038 1.28-1.29 1.28-1.29l-4.582-0.218 0.243 4.579c0 0 1.325-0.349 1.28-1.29-0.019-0.438-0.048-0.365-0.070-0.864-0.006-0.038-0.013-0.077-0.019-0.112l3.13 3.136-3.117 3.117c0.003-0.029 0.006-0.061 0.006-0.093 0.038-0.416 0.048-0.426 0.067-0.864 0.038-0.941-1.29-1.28-1.29-1.28l-0.218 4.582 4.579-0.243c0 0-0.349-1.325-1.29-1.28-0.438 0.019-0.365 0.048-0.864 0.074-0.038 0.006-0.074 0.013-0.112 0.019l3.136-3.133 3.117 3.117c-0.029-0.003-0.061-0.006-0.093-0.006-0.416-0.038-0.426-0.051-0.864-0.067z" fill="#000000"></path>
</svg>
