<?xml version="1.0" encoding="utf-8"?>
<!-- Generator: Adobe Illustrator 16.0.0, SVG Export Plug-In . SVG Version: 6.00 Build 0)  -->
<!DOCTYPE svg PUBLIC "-//W3C//DTD SVG 1.1 Tiny//EN" "http://www.w3.org/Graphics/SVG/1.1/DTD/svg11-tiny.dtd">
<svg version="1.1" baseProfile="tiny" id="Capa_1" xmlns="http://www.w3.org/2000/svg" xmlns:xlink="http://www.w3.org/1999/xlink"
	 x="0px" y="0px" width="100px" height="100px" viewBox="0 0 100 100" xml:space="preserve">
<path d="M61.7,51.59c-0.85,0.77-0.77,0.61-1.52,1.28c-1.59,1.45,0,4.13,0,4.13L68,50l-7.82-7c0,0-1.59,2.69,0,4.13
	c0.74,0.67,0.67,0.51,1.52,1.28H38.3c0.85-0.77,0.77-0.6,1.52-1.28c1.59-1.45,0-4.13,0-4.13L32,50l7.82,7c0,0,1.59-2.69,0-4.13
	c-0.74-0.67-0.67-0.51-1.52-1.28H61.7z"/>
</svg>
