<?xml version="1.0" encoding="utf-8"?>
<!-- Generated by IcoMoon.io -->
<!DOCTYPE svg PUBLIC "-//W3C//DTD SVG 1.1//EN" "http://www.w3.org/Graphics/SVG/1.1/DTD/svg11.dtd">
<svg version="1.1" xmlns="http://www.w3.org/2000/svg" xmlns:xlink="http://www.w3.org/1999/xlink" width="32" height="32" viewBox="0 0 32 32">
<g>
	<line stroke-width="1" x1="" y1="" x2="" y2="" stroke="#449FDB" opacity=""></line>
</g>
	<path d="M19.542 13.306c-0.022 0.432-0.045 0.368-0.064 0.746-0.038 0.813 1.104 1.104 1.104 1.104l0.218-3.955-3.955 0.218c0 0 0.291 1.142 1.104 1.104 0.378-0.019 0.317-0.042 0.746-0.064l-6.25 6.25c0.022-0.432 0.045-0.368 0.064-0.746 0.038-0.813-1.104-1.104-1.104-1.104l-0.218 3.958 3.958-0.218c0 0-0.291-1.142-1.104-1.104-0.378 0.019-0.317 0.042-0.746 0.064l6.246-6.253z" fill="#000000"></path>
</svg>
