<?xml version="1.0" encoding="utf-8"?>
<!-- Generated by IcoMoon.io -->
<!DOCTYPE svg PUBLIC "-//W3C//DTD SVG 1.1//EN" "http://www.w3.org/Graphics/SVG/1.1/DTD/svg11.dtd">
<svg version="1.1" xmlns="http://www.w3.org/2000/svg" xmlns:xlink="http://www.w3.org/1999/xlink" width="32" height="32" viewBox="0 0 32 32">
<g id="icomoon-ignore">
	<line stroke-width="1" x1="" y1="" x2="" y2="" stroke="#449FDB" opacity=""></line>
</g>
	<path d="M13.949 12.17c0.019 0.438 0.048 0.365 0.070 0.864 0.006 0.038 0.013 0.077 0.019 0.112l-2.035-2.035-0.899 0.899 2.022 2.022c-0.032-0.003-0.061-0.006-0.093-0.006-0.416-0.038-0.426-0.048-0.864-0.067-0.941-0.038-1.28 1.29-1.28 1.29l4.582 0.218-0.243-4.586c0 0-1.322 0.349-1.28 1.29z" fill="#000000"></path>
	<path d="M20.064 18.282c0.941 0.038 1.28-1.29 1.28-1.29l-4.582-0.218 0.243 4.579c0 0 1.325-0.349 1.28-1.29-0.019-0.438-0.048-0.365-0.070-0.864-0.006-0.038-0.013-0.074-0.019-0.112l2.035 2.035 0.899-0.899-2.022-2.022c0.032 0.003 0.061 0.006 0.093 0.006 0.416 0.045 0.426 0.058 0.864 0.074z" fill="#000000"></path>
	<path d="M12.17 18.288c0.438-0.019 0.365-0.048 0.864-0.074 0.038-0.006 0.077-0.013 0.112-0.019l-2.035 2.035 0.899 0.899 2.022-2.022c-0.003 0.032-0.006 0.061-0.006 0.093-0.038 0.416-0.048 0.426-0.067 0.864-0.038 0.941 1.29 1.28 1.29 1.28l0.218-4.579-4.586 0.243c0 0 0.349 1.322 1.29 1.28z" fill="#000000"></path>
	<path d="M20.067 13.949c-0.438 0.019-0.365 0.048-0.864 0.074-0.038 0.006-0.074 0.013-0.112 0.019l2.035-2.035-0.899-0.899-2.022 2.022c0.003-0.032 0.006-0.061 0.006-0.093 0.038-0.416 0.048-0.426 0.067-0.864 0.038-0.941-1.29-1.28-1.29-1.28l-0.218 4.579 4.579-0.243c0.006 0-0.342-1.322-1.283-1.28z" fill="#000000"></path>
</svg>
