<?xml version="1.0" encoding="utf-8"?>
<!-- Generator: Adobe Illustrator 16.0.0, SVG Export Plug-In . SVG Version: 6.00 Build 0)  -->
<!DOCTYPE svg PUBLIC "-//W3C//DTD SVG 1.1 Tiny//EN" "http://www.w3.org/Graphics/SVG/1.1/DTD/svg11-tiny.dtd">
<svg version="1.1" baseProfile="tiny" id="Capa_1" xmlns="http://www.w3.org/2000/svg" xmlns:xlink="http://www.w3.org/1999/xlink"
	 x="0px" y="0px" width="100px" height="100px" viewBox="0 0 100 100" xml:space="preserve">
<path d="M39.93,54.63c0-1.1-0.8-1.6-1.79-1.11l-6.3,3.15c-0.98,0.49-0.98,1.3,0,1.79l6.3,3.15c0.98,0.49,1.79-0.01,1.79-1.11V54.63z
	"/>
<path d="M47.06,52.63c-1.1,0-1.6,0.8-1.11,1.79l3.15,6.3c0.49,0.98,1.3,0.98,1.79,0l3.15-6.3c0.49-0.98-0.01-1.79-1.11-1.79H47.06z"
	/>
<path d="M60.07,60.51c0,1.1,0.8,1.6,1.79,1.11l6.3-3.15c0.98-0.49,0.98-1.3,0-1.79l-6.3-3.15c-0.98-0.49-1.79,0.01-1.79,1.11V60.51z
	"/>
<path d="M52.94,47.37c1.1,0,1.6-0.81,1.11-1.79l-3.15-6.3c-0.49-0.98-1.3-0.98-1.79,0l-3.15,6.3c-0.49,0.98,0.01,1.79,1.11,1.79
	H52.94z"/>
</svg>
