<?xml version="1.0" encoding="utf-8"?>
<!-- Generated by IcoMoon.io -->
<!DOCTYPE svg PUBLIC "-//W3C//DTD SVG 1.1//EN" "http://www.w3.org/Graphics/SVG/1.1/DTD/svg11.dtd">
<svg version="1.1" xmlns="http://www.w3.org/2000/svg" xmlns:xlink="http://www.w3.org/1999/xlink" width="32" height="32" viewBox="0 0 32 32">
<g>
	<line stroke-width="1" x1="" y1="" x2="" y2="" stroke="#449FDB" opacity=""></line>
</g>
	<path d="M16.509 12.256c0.246 0.272 0.195 0.246 0.41 0.486 0.464 0.509 1.322 0 1.322 0l-2.24-2.502-2.24 2.502c0 0 0.861 0.509 1.322 0 0.214-0.237 0.163-0.214 0.41-0.486v7.488c-0.246-0.272-0.192-0.246-0.41-0.486-0.464-0.509-1.322 0-1.322 0l2.24 2.502 2.24-2.502c0 0-0.861-0.509-1.322 0-0.214 0.237-0.163 0.214-0.41 0.486v-7.488z" fill="#000000"></path>
</svg>
