<?xml version="1.0" encoding="utf-8"?>
<!-- Generated by IcoMoon.io -->
<!DOCTYPE svg PUBLIC "-//W3C//DTD SVG 1.1//EN" "http://www.w3.org/Graphics/SVG/1.1/DTD/svg11.dtd">
<svg version="1.1" xmlns="http://www.w3.org/2000/svg" xmlns:xlink="http://www.w3.org/1999/xlink" width="32" height="32" viewBox="0 0 32 32">
<g>
	<line stroke-width="1" x1="" y1="" x2="" y2="" stroke="#449FDB" opacity=""></line>
</g>
	<path d="M21.277 14.624c-0.122 0.134-0.262 0.304-0.403 0.47-0.323-1.734-1.558-3.242-3.354-3.821-0.502-0.16-1.014-0.24-1.517-0.24-1.632 0-3.168 0.81-4.093 2.16l0.794 0.541c0.742-1.088 1.987-1.741 3.299-1.741 0.403 0 0.816 0.061 1.222 0.192 1.427 0.458 2.413 1.645 2.691 3.014-0.166-0.205-0.326-0.416-0.477-0.579-0.464-0.509-1.322 0-1.322 0l2.24 2.502 2.24-2.502c0 0.003-0.861-0.506-1.322 0.003z" fill="#000000"></path>
	<path d="M16 20c-0.403 0-0.816-0.061-1.222-0.192-1.6-0.515-2.65-1.946-2.765-3.526 0.157 0.195 0.31 0.394 0.451 0.55 0.464 0.509 1.322 0 1.322 0l-2.24-2.502-2.24 2.502c0 0 0.861 0.509 1.322 0 0.128-0.144 0.275-0.32 0.426-0.499 0.134 1.965 1.437 3.744 3.427 4.387 0.502 0.16 1.014 0.24 1.517 0.24 1.632 0 3.168-0.81 4.090-2.157l-0.79-0.544c-0.742 1.088-1.984 1.741-3.296 1.741z" fill="#000000"></path>
</svg>
