<?xml version="1.0" encoding="utf-8"?>
<!-- Generator: Adobe Illustrator 16.0.0, SVG Export Plug-In . SVG Version: 6.00 Build 0)  -->
<!DOCTYPE svg PUBLIC "-//W3C//DTD SVG 1.1 Tiny//EN" "http://www.w3.org/Graphics/SVG/1.1/DTD/svg11-tiny.dtd">
<svg version="1.1" baseProfile="tiny" id="Capa_1" xmlns="http://www.w3.org/2000/svg" xmlns:xlink="http://www.w3.org/1999/xlink"
	 x="0px" y="0px" width="100px" height="100px" viewBox="0 0 100 100" xml:space="preserve">
<path d="M61.07,41.58c-0.07,1.35-0.14,1.15-0.2,2.33c-0.12,2.54,3.45,3.45,3.45,3.45L65,35l-12.36,0.68c0,0,0.91,3.57,3.45,3.45
	c1.18-0.06,0.99-0.13,2.33-0.2L38.89,58.46c0.07-1.35,0.14-1.15,0.2-2.33c0.12-2.54-3.45-3.45-3.45-3.45l-0.68,12.37l12.37-0.68
	c0,0-0.91-3.57-3.45-3.45c-1.18,0.06-0.99,0.13-2.33,0.2L61.07,41.58z"/>
</svg>
