<?xml version="1.0" encoding="utf-8"?>
<!-- Generated by IcoMoon.io -->
<!DOCTYPE svg PUBLIC "-//W3C//DTD SVG 1.1//EN" "http://www.w3.org/Graphics/SVG/1.1/DTD/svg11.dtd">
<svg version="1.1" xmlns="http://www.w3.org/2000/svg" xmlns:xlink="http://www.w3.org/1999/xlink" width="32" height="32" viewBox="0 0 32 32">
<g id="icomoon-ignore">
	<line stroke-width="1" x1="" y1="" x2="" y2="" stroke="#449FDB" opacity=""></line>
</g>
	<path d="M18.736 13.28c0 0-0.614 1.046 0.003 1.606 0.288 0.262 0.262 0.198 0.592 0.496 0 0 0.003 0 0.003 0.003h-5.926c0.077 0.192 0.122 0.4 0.122 0.618s-0.045 0.426-0.122 0.618h5.923c-0.282 0.234-0.298 0.234-0.586 0.496-0.618 0.566 0.003 1.606 0.003 1.606l3.027-2.726-3.040-2.717z" fill="#000000"></path>
	<path d="M12.707 16c0 0.454-0.368 0.822-0.822 0.822s-0.822-0.368-0.822-0.822c0-0.454 0.368-0.822 0.822-0.822s0.822 0.368 0.822 0.822z" fill="#000000"></path>
</svg>
