<?xml version="1.0" encoding="utf-8"?>
<!-- Generator: Adobe Illustrator 16.0.0, SVG Export Plug-In . SVG Version: 6.00 Build 0)  -->
<!DOCTYPE svg PUBLIC "-//W3C//DTD SVG 1.1 Tiny//EN" "http://www.w3.org/Graphics/SVG/1.1/DTD/svg11-tiny.dtd">
<svg version="1.1" baseProfile="tiny" id="Capa_1" xmlns="http://www.w3.org/2000/svg" xmlns:xlink="http://www.w3.org/1999/xlink"
	 x="0px" y="0px" width="100px" height="100px" viewBox="0 0 100 100" xml:space="preserve">
<path d="M51.59,38.3c0.77,0.85,0.61,0.77,1.28,1.52c1.45,1.59,4.13,0,4.13,0L50,32l-7,7.82c0,0,2.69,1.59,4.13,0
	c0.67-0.74,0.51-0.67,1.28-1.52V61.7c-0.77-0.85-0.6-0.77-1.28-1.52c-1.45-1.59-4.13,0-4.13,0L50,68l7-7.82c0,0-2.69-1.59-4.13,0
	c-0.67,0.74-0.51,0.67-1.28,1.52V38.3z"/>
</svg>
