<?xml version="1.0" encoding="utf-8"?>
<!-- Generator: Adobe Illustrator 16.0.0, SVG Export Plug-In . SVG Version: 6.00 Build 0)  -->
<!DOCTYPE svg PUBLIC "-//W3C//DTD SVG 1.1 Tiny//EN" "http://www.w3.org/Graphics/SVG/1.1/DTD/svg11-tiny.dtd">
<svg version="1.1" baseProfile="tiny" id="Capa_1" xmlns="http://www.w3.org/2000/svg" xmlns:xlink="http://www.w3.org/1999/xlink"
	 x="0px" y="0px" width="100px" height="100px" viewBox="0 0 100 100" xml:space="preserve">
<path d="M61.55,38.37c-0.9-0.64-2.15-0.43-2.79,0.46l-1.68,2.19c-0.62-0.33-1.33-0.53-2.08-0.54H41c-2.48,0.01-4.49,2.01-4.5,4.5v14
	c0.01,2.49,2.02,4.49,4.5,4.5h14c2.48-0.01,4.49-2.01,4.5-4.5V46.03l4.5-6.04L61.55,38.37z M56.5,58.99c0,0.41-0.17,0.78-0.44,1.06
	c-0.28,0.28-0.65,0.44-1.06,0.44H41c-0.41,0-0.78-0.17-1.06-0.44c-0.28-0.28-0.44-0.65-0.44-1.06v-14c0-0.41,0.17-0.78,0.44-1.06
	c0.28-0.28,0.65-0.44,1.06-0.44h14l0.18,0.02l-5.75,7.51l-4.38-3.17c-0.88-0.66-2.14-0.48-2.8,0.4l-1.77,2.34l8.42,6.4
	c0.88,0.66,2.12,0.47,2.76-0.43l4.84-6.5V58.99z"/>
</svg>
