<?xml version="1.0" encoding="utf-8"?>
<!-- Generator: Adobe Illustrator 16.0.0, SVG Export Plug-In . SVG Version: 6.00 Build 0)  -->
<!DOCTYPE svg PUBLIC "-//W3C//DTD SVG 1.1 Tiny//EN" "http://www.w3.org/Graphics/SVG/1.1/DTD/svg11-tiny.dtd">
<svg version="1.1" baseProfile="tiny" id="Capa_1" xmlns="http://www.w3.org/2000/svg" xmlns:xlink="http://www.w3.org/1999/xlink"
	 x="0px" y="0px" width="100px" height="100px" viewBox="0 0 100 100" xml:space="preserve">
<g>
	<path d="M36.91,37c-1.96,0-3.54,1.59-3.55,3.55c0,1.96,1.59,3.54,3.55,3.54c1.96,0,3.54-1.59,3.55-3.54
		C40.45,38.59,38.87,37,36.91,37z M36.91,41.73c-0.65,0-1.18-0.53-1.18-1.18c0-0.65,0.53-1.18,1.18-1.18c0.65,0,1.18,0.53,1.18,1.18
		C38.09,41.2,37.56,41.73,36.91,41.73z"/>
	<path d="M36.91,46.45c-1.96,0-3.54,1.59-3.55,3.55c0,1.96,1.59,3.54,3.55,3.55c1.96,0,3.54-1.59,3.55-3.55
		C40.45,48.04,38.87,46.46,36.91,46.45z M36.91,51.18c-0.65,0-1.18-0.53-1.18-1.18c0-0.65,0.53-1.18,1.18-1.18
		c0.65,0,1.18,0.53,1.18,1.18C38.09,50.65,37.56,51.18,36.91,51.18z"/>
	<path d="M36.91,55.91c-1.96,0-3.54,1.59-3.55,3.54c0,1.96,1.59,3.54,3.55,3.55c1.96,0,3.54-1.59,3.55-3.55
		C40.45,57.5,38.87,55.91,36.91,55.91z M36.91,60.64c-0.65,0-1.18-0.53-1.18-1.18c0-0.65,0.53-1.18,1.18-1.18
		c0.65,0,1.18,0.53,1.18,1.18C38.09,60.11,37.56,60.63,36.91,60.64z"/>
	<rect x="42" y="38.18" width="25.64" height="4.73"/>
	<rect x="42" y="47.64" width="25.64" height="4.73"/>
	<rect x="42" y="57.09" width="25.64" height="4.73"/>
</g>
</svg>
