<?xml version="1.0" encoding="utf-8"?>
<!-- Generated by IcoMoon.io -->
<!DOCTYPE svg PUBLIC "-//W3C//DTD SVG 1.1//EN" "http://www.w3.org/Graphics/SVG/1.1/DTD/svg11.dtd">
<svg version="1.1" xmlns="http://www.w3.org/2000/svg" xmlns:xlink="http://www.w3.org/1999/xlink" width="32" height="32" viewBox="0 0 32 32">
<g>
	<line stroke-width="1" x1="" y1="" x2="" y2="" stroke="#449FDB" opacity=""></line>
</g>
	<path d="M14.982 20.285c0 0.426-0.345 0.771-0.771 0.771s-0.771-0.345-0.771-0.771c0-0.426 0.345-0.771 0.771-0.771s0.771 0.345 0.771 0.771z" fill="#000000"></path>
	<path d="M13.414 19.13c-0.915-0.755-1.462-1.888-1.462-3.082 0-0.403 0.061-0.816 0.192-1.222 0.515-1.6 1.946-2.65 3.526-2.765-0.195 0.157-0.394 0.31-0.55 0.451-0.509 0.464 0 1.322 0 1.322l2.502-2.24-2.502-2.24c0 0-0.509 0.861 0 1.322 0.144 0.128 0.32 0.275 0.496 0.426-1.965 0.134-3.744 1.437-4.387 3.427-0.16 0.502-0.24 1.014-0.24 1.517 0 1.51 0.694 2.938 1.866 3.872 0.093-0.32 0.288-0.602 0.56-0.787z" fill="#000000"></path>
</svg>
