<?xml version="1.0" encoding="utf-8"?>
<!-- Generator: Adobe Illustrator 16.0.0, SVG Export Plug-In . SVG Version: 6.00 Build 0)  -->
<!DOCTYPE svg PUBLIC "-//W3C//DTD SVG 1.1 Tiny//EN" "http://www.w3.org/Graphics/SVG/1.1/DTD/svg11-tiny.dtd">
<svg version="1.1" baseProfile="tiny" id="Capa_1" xmlns="http://www.w3.org/2000/svg" xmlns:xlink="http://www.w3.org/1999/xlink"
	 x="0px" y="0px" width="100px" height="100px" viewBox="0 0 100 100" xml:space="preserve">
<g>
	<path d="M50.57,32h-1.14c-1.1,0-2,0.9-2,2v3.71c0,1.1,0.9,2,2,2h1.14c1.1,0,2-0.9,2-2V34C52.57,32.9,51.67,32,50.57,32z"/>
	<path d="M50.57,60.29h-1.14c-1.1,0-2,0.9-2,2V66c0,1.1,0.9,2,2,2h1.14c1.1,0,2-0.9,2-2v-3.71C52.57,61.19,51.67,60.29,50.57,60.29z
		"/>
	<path d="M39.49,43.13c0.78,0.78,2.05,0.78,2.83,0l0.81-0.81c0.78-0.78,0.78-2.05,0-2.83l-2.63-2.63c-0.78-0.78-2.05-0.78-2.83,0
		l-0.81,0.81c-0.78,0.78-0.78,2.05,0,2.83L39.49,43.13z"/>
	<path d="M60.51,56.87c-0.78-0.78-2.05-0.78-2.83,0l-0.81,0.81c-0.78,0.78-0.78,2.05,0,2.83l2.63,2.63c0.78,0.78,2.05,0.78,2.83,0
		l0.81-0.81c0.78-0.78,0.78-2.05,0-2.83L60.51,56.87z"/>
	<path d="M39.71,50.57v-1.14c0-1.1-0.9-2-2-2H34c-1.1,0-2,0.9-2,2v1.14c0,1.1,0.9,2,2,2h3.71C38.81,52.57,39.71,51.67,39.71,50.57z"
		/>
	<path d="M66,47.43h-3.71c-1.1,0-2,0.9-2,2v1.14c0,1.1,0.9,2,2,2l3.71,0c1.1,0,2-0.9,2-2v-1.14C68,48.33,67.1,47.43,66,47.43z"/>
	<path d="M42.32,56.87c-0.78-0.78-2.05-0.78-2.83,0l-2.63,2.63c-0.78,0.78-0.78,2.05,0,2.83l0.81,0.81c0.78,0.78,2.05,0.78,2.83,0
		l2.63-2.63c0.78-0.78,0.78-2.05,0-2.83L42.32,56.87z"/>
	<path d="M57.68,43.13c0.78,0.78,2.05,0.78,2.83,0l2.63-2.63c0.78-0.78,0.78-2.05,0-2.83l-0.81-0.81c-0.78-0.78-2.05-0.78-2.83,0
		l-2.63,2.63c-0.78,0.78-0.78,2.05,0,2.83L57.68,43.13z"/>
</g>
</svg>
