<?xml version="1.0" encoding="utf-8"?>
<!-- Generated by IcoMoon.io -->
<!DOCTYPE svg PUBLIC "-//W3C//DTD SVG 1.1//EN" "http://www.w3.org/Graphics/SVG/1.1/DTD/svg11.dtd">
<svg version="1.1" xmlns="http://www.w3.org/2000/svg" xmlns:xlink="http://www.w3.org/1999/xlink" width="6" height="28" viewBox="0 0 6 28">
<g id="icomoon-ignore">
	<line stroke-width="1" x1="" y1="" x2="" y2="" stroke="#449FDB" opacity=""></line>
</g>
	<path d="M0.605 16.822v-8.663h1.053v3.564c0.246-0.286 0.529-0.515 0.848-0.692 0.319-0.174 0.686-0.26 1.098-0.26 0.344 0 0.655 0.064 0.935 0.193 0.277 0.129 0.515 0.322 0.711 0.58s0.347 0.574 0.454 0.952c0.106 0.378 0.16 0.815 0.16 1.308 0 0.44-0.059 0.848-0.176 1.226s-0.288 0.706-0.51 0.983c-0.221 0.277-0.493 0.493-0.812 0.652s-0.68 0.238-1.078 0.238c-0.384 0-0.711-0.076-0.98-0.224s-0.504-0.356-0.703-0.624l-0.053 0.54c-0.031 0.148-0.12 0.224-0.272 0.224h-0.675zM3.262 11.606c-0.342 0-0.641 0.078-0.896 0.235-0.258 0.157-0.493 0.378-0.708 0.664v2.881c0.188 0.258 0.398 0.442 0.627 0.546s0.484 0.16 0.767 0.16c0.557 0 0.983-0.199 1.282-0.594s0.448-0.96 0.448-1.694c0-0.389-0.034-0.722-0.104-1s-0.168-0.507-0.297-0.686c-0.129-0.179-0.288-0.308-0.476-0.392-0.19-0.081-0.406-0.12-0.644-0.12z" opacity="1" visibility="false" fill="#000000"></path>
</svg>
