<?xml version="1.0" encoding="utf-8"?>
<!-- Generator: Adobe Illustrator 16.0.0, SVG Export Plug-In . SVG Version: 6.00 Build 0)  -->
<!DOCTYPE svg PUBLIC "-//W3C//DTD SVG 1.1//EN" "http://www.w3.org/Graphics/SVG/1.1/DTD/svg11.dtd">
<svg version="1.1" id="Capa_1" xmlns="http://www.w3.org/2000/svg" xmlns:xlink="http://www.w3.org/1999/xlink" x="0px" y="0px"
	 width="6.719px" height="28px" viewBox="0 0 6.719 28" enable-background="new 0 0 6.719 28" xml:space="preserve">
<g id="icomoon-ignore">
	<line fill="none" stroke="#449FDB" x1="3.359" y1="0" x2="3.359" y2="0"/>
</g>
<path d="M0.73,16.822V8.159h1.053v3.564c0.246-0.286,0.529-0.515,0.848-0.692c0.319-0.174,0.687-0.26,1.098-0.26
	c0.345,0,0.655,0.064,0.936,0.193c0.277,0.129,0.516,0.322,0.711,0.58s0.348,0.574,0.454,0.952s0.159,0.815,0.159,1.308
	c0,0.44-0.059,0.848-0.176,1.226s-0.287,0.706-0.51,0.983c-0.221,0.276-0.492,0.492-0.812,0.651s-0.681,0.237-1.078,0.237
	c-0.384,0-0.711-0.075-0.979-0.223c-0.27-0.148-0.504-0.356-0.703-0.625l-0.054,0.54c-0.03,0.148-0.119,0.224-0.271,0.224H0.73
	V16.822z M3.388,11.606c-0.343,0-0.642,0.078-0.896,0.235c-0.258,0.157-0.493,0.378-0.708,0.664v2.881
	c0.188,0.259,0.398,0.442,0.627,0.546c0.229,0.104,0.484,0.16,0.767,0.16c0.558,0,0.983-0.199,1.282-0.594s0.448-0.96,0.448-1.694
	c0-0.389-0.034-0.722-0.104-1c-0.07-0.278-0.168-0.507-0.297-0.686c-0.129-0.179-0.288-0.308-0.477-0.392
	C3.84,11.645,3.624,11.606,3.388,11.606L3.388,11.606z"/>
</svg>
