<?xml version="1.0" encoding="utf-8"?>
<!-- Generated by IcoMoon.io -->
<!DOCTYPE svg PUBLIC "-//W3C//DTD SVG 1.1//EN" "http://www.w3.org/Graphics/SVG/1.1/DTD/svg11.dtd">
<svg version="1.1" xmlns="http://www.w3.org/2000/svg" xmlns:xlink="http://www.w3.org/1999/xlink" width="5" height="28" viewBox="0 0 5 28">
<g id="icomoon-ignore">
	<line stroke-width="1" x1="" y1="" x2="" y2="" stroke="#449FDB" opacity=""></line>
</g>
	<path d="M4.746 11.922c-0.031 0.042-0.062 0.076-0.095 0.101s-0.076 0.036-0.134 0.036-0.123-0.025-0.19-0.073c-0.070-0.048-0.157-0.104-0.26-0.162s-0.235-0.112-0.386-0.162c-0.151-0.048-0.336-0.073-0.554-0.073-0.291 0-0.546 0.053-0.77 0.157s-0.412 0.255-0.563 0.451c-0.151 0.196-0.263 0.434-0.342 0.711-0.076 0.277-0.115 0.591-0.115 0.935 0 0.361 0.042 0.68 0.123 0.96s0.199 0.515 0.347 0.706 0.33 0.336 0.543 0.434c0.213 0.101 0.454 0.151 0.72 0.151 0.255 0 0.465-0.031 0.63-0.092s0.302-0.129 0.412-0.202c0.109-0.076 0.199-0.143 0.272-0.202 0.070-0.062 0.14-0.092 0.213-0.092 0.090 0 0.157 0.034 0.199 0.101l0.294 0.381c-0.258 0.316-0.582 0.549-0.969 0.697-0.389 0.146-0.798 0.221-1.229 0.221-0.372 0-0.72-0.070-1.039-0.207s-0.596-0.336-0.832-0.596c-0.235-0.26-0.42-0.582-0.557-0.96-0.134-0.381-0.202-0.815-0.202-1.299 0-0.442 0.062-0.851 0.185-1.229s0.302-0.7 0.54-0.974c0.238-0.272 0.529-0.484 0.879-0.638s0.748-0.23 1.198-0.23c0.414 0 0.784 0.067 1.106 0.202s0.605 0.328 0.851 0.574l-0.274 0.375z" opacity="1" visibility="false" fill="#000000"></path>
</svg>
