<?xml version="1.0" encoding="utf-8"?>
<!-- Generator: Adobe Illustrator 16.0.0, SVG Export Plug-In . SVG Version: 6.00 Build 0)  -->
<!DOCTYPE svg PUBLIC "-//W3C//DTD SVG 1.1//EN" "http://www.w3.org/Graphics/SVG/1.1/DTD/svg11.dtd">
<svg version="1.1" id="Capa_1" xmlns="http://www.w3.org/2000/svg" xmlns:xlink="http://www.w3.org/1999/xlink" x="0px" y="0px"
	 width="5.781px" height="28px" viewBox="0 0 5.781 28" enable-background="new 0 0 5.781 28" xml:space="preserve">
<g id="icomoon-ignore">
	<line fill="none" stroke="#449FDB" x1="2.891" y1="0" x2="2.891" y2="0"/>
</g>
<path d="M4.961,11.922c-0.031,0.042-0.062,0.076-0.096,0.101c-0.032,0.025-0.075,0.036-0.133,0.036c-0.059,0-0.123-0.025-0.19-0.073
	c-0.07-0.048-0.157-0.104-0.261-0.162c-0.103-0.058-0.234-0.112-0.385-0.162c-0.152-0.048-0.336-0.073-0.555-0.073
	c-0.291,0-0.546,0.053-0.771,0.157c-0.224,0.104-0.412,0.255-0.562,0.451c-0.151,0.196-0.264,0.434-0.342,0.711
	c-0.076,0.277-0.115,0.591-0.115,0.935c0,0.361,0.042,0.681,0.123,0.96c0.081,0.28,0.199,0.516,0.347,0.706
	c0.148,0.191,0.33,0.337,0.543,0.435c0.213,0.101,0.454,0.15,0.721,0.15c0.255,0,0.465-0.031,0.63-0.092s0.302-0.129,0.411-0.202
	c0.109-0.075,0.199-0.143,0.272-0.202c0.07-0.062,0.14-0.092,0.214-0.092c0.09,0,0.156,0.034,0.198,0.102l0.294,0.381
	c-0.258,0.316-0.582,0.549-0.969,0.697c-0.389,0.146-0.798,0.221-1.229,0.221c-0.372,0-0.72-0.07-1.039-0.207
	c-0.318-0.137-0.596-0.336-0.832-0.596c-0.234-0.261-0.42-0.582-0.557-0.961c-0.134-0.381-0.202-0.814-0.202-1.299
	c0-0.442,0.062-0.851,0.185-1.229c0.123-0.378,0.303-0.7,0.54-0.974c0.238-0.272,0.529-0.484,0.88-0.638
	c0.35-0.154,0.747-0.23,1.198-0.23c0.414,0,0.783,0.067,1.105,0.202c0.322,0.135,0.605,0.328,0.852,0.574l-0.274,0.375L4.961,11.922
	z"/>
</svg>
