<?xml version="1.0" encoding="utf-8"?>
<!-- Generated by IcoMoon.io -->
<!DOCTYPE svg PUBLIC "-//W3C//DTD SVG 1.1//EN" "http://www.w3.org/Graphics/SVG/1.1/DTD/svg11.dtd">
<svg version="1.1" xmlns="http://www.w3.org/2000/svg" xmlns:xlink="http://www.w3.org/1999/xlink" width="32" height="32" viewBox="0 0 32 32">
<g id="icomoon-ignore">
	<line stroke-width="1" x1="" y1="" x2="" y2="" stroke="#449FDB" opacity=""></line>
</g>
	<path d="M20.589 11.040c0.317 0.314 0.659 1.002 0.762 1.526s-0.24 1.722-0.765 2.662-1.555 2.31-2.288 3.053-2.106 1.773-3.053 2.298-2.147 0.87-2.675 0.768-1.219-0.445-1.536-0.762-0.573-0.749-0.566-0.96 0.365-0.736 0.8-1.168 0.947-0.774 1.146-0.762 0.614 0.282 0.928 0.595 0.659 0.659 0.762 0.762 0.621-0.067 1.146-0.381 1.469-1.088 2.099-1.715 1.315-1.488 1.526-1.907 0.294-0.848 0.192-0.954-0.448-0.448-0.762-0.762-0.573-0.742-0.573-0.954 0.342-0.723 0.762-1.146 0.934-0.762 1.146-0.762 0.637 0.253 0.95 0.566z" fill="#000000"></path>
</svg>
