<?xml version="1.0" encoding="utf-8"?>
<!-- Generated by IcoMoon.io -->
<!DOCTYPE svg PUBLIC "-//W3C//DTD SVG 1.1//EN" "http://www.w3.org/Graphics/SVG/1.1/DTD/svg11.dtd">
<svg version="1.1" xmlns="http://www.w3.org/2000/svg" xmlns:xlink="http://www.w3.org/1999/xlink" width="32" height="32" viewBox="0 0 32 32">
<g>
	<line stroke-width="1" x1="" y1="" x2="" y2="" stroke="#449FDB" opacity=""></line>
</g>
	<path d="M18.144 18.95c0 0.749-0.611 1.363-1.363 1.363h-6.861c-0.749 0-1.363-0.611-1.363-1.363v-5.901c0-0.749 0.614-1.363 1.363-1.363h6.861c0.749 0 1.363 0.614 1.363 1.363v5.901z" fill="#000000"></path>
	<path d="M19.962 13.094c-0.694 0.282-1.264 1.123-1.264 1.872v2.067c0 0.749 0.57 1.59 1.264 1.872l2.218 0.896c0.694 0.282 1.264-0.102 1.264-0.851v-5.901c0-0.749-0.57-1.133-1.264-0.851l-2.218 0.896z" fill="#000000"></path>
</svg>
