<?xml version="1.0" encoding="utf-8"?>
<!-- Generated by IcoMoon.io -->
<!DOCTYPE svg PUBLIC "-//W3C//DTD SVG 1.1//EN" "http://www.w3.org/Graphics/SVG/1.1/DTD/svg11.dtd">
<svg version="1.1" xmlns="http://www.w3.org/2000/svg" xmlns:xlink="http://www.w3.org/1999/xlink" width="256" height="256" viewBox="0 0 256 256">
<g id="icomoon-ignore">
	<line stroke-width="1" x1="" y1="" x2="" y2="" stroke="#449FDB" opacity=""></line>
</g>
	<path d="M197.12 80.793h-96.359c0-0.103 0.025-0.179 0.025-0.256v-7.706c-0.025-5.657-4.582-10.215-10.24-10.24h-19.686c-5.657 0.026-10.215 4.583-10.24 10.24v7.706c0 0.103 0.026 0.179 0.026 0.256h-1.767c-7.066 0.025-12.774 5.734-12.8 12.8v87.040c0.026 7.066 5.734 12.774 12.8 12.8h138.24c7.065-0.025 12.774-5.734 12.8-12.8v-87.040c-0.025-7.091-5.734-12.8-12.8-12.8zM70.861 72.806h19.686v7.706h-19.686v-7.706zM198.938 182.425c-0.487 0.487-1.101 0.743-1.817 0.768h-138.24c-0.691 0-1.306-0.281-1.818-0.768-0.486-0.487-0.742-1.101-0.742-1.792v-87.040c0-0.691 0.282-1.305 0.742-1.792 0.486-0.487 1.101-0.743 1.818-0.768h138.24c0.691 0 1.305 0.281 1.817 0.768 0.487 0.487 0.743 1.101 0.743 1.792v87.040c0 0.691-0.281 1.305-0.743 1.792z" fill="#000000"></path>
	<path d="M128 98.713c-21.222 0-38.4 17.177-38.4 38.4s17.177 38.4 38.4 38.4c21.222 0 38.4-17.178 38.4-38.4s-17.178-38.4-38.4-38.4zM147.917 157.030c-5.12 5.095-12.109 8.243-19.917 8.243-7.782 0-14.797-3.149-19.917-8.243-5.094-5.12-8.243-12.109-8.243-19.917 0-7.782 3.149-14.797 8.243-19.917 5.12-5.094 12.109-8.243 19.917-8.243 7.782 0 14.797 3.149 19.917 8.243 5.095 5.12 8.243 12.109 8.243 19.917 0 7.782-3.149 14.797-8.243 19.917z" fill="#000000"></path>
	<path d="M105.114 137.625c0 5.427 1.817 10.47 4.864 14.464l6.118-4.633c-2.073-2.739-3.302-6.119-3.302-9.831 0-4.506 1.817-8.576 4.787-11.52 2.969-2.969 7.014-4.787 11.52-4.787 3.891 0 7.424 1.357 10.24 3.609l4.813-5.965c-4.096-3.328-9.369-5.299-15.053-5.299-13.235-0.025-23.987 10.727-23.987 23.962z" fill="#000000"></path>
</svg>
