<?xml version="1.0" encoding="utf-8"?>
<!-- Generated by IcoMoon.io -->
<!DOCTYPE svg PUBLIC "-//W3C//DTD SVG 1.1//EN" "http://www.w3.org/Graphics/SVG/1.1/DTD/svg11.dtd">
<svg version="1.1" xmlns="http://www.w3.org/2000/svg" xmlns:xlink="http://www.w3.org/1999/xlink" width="32" height="32" viewBox="0 0 32 32">
<g>
	<line stroke-width="1" x1="" y1="" x2="" y2="" stroke="#449FDB" opacity=""></line>
</g>
	<path d="M20.48 12.797l-0.784-0.518c-0.288-0.205-0.688-0.138-0.893 0.147l-0.538 0.701c-0.198-0.106-0.426-0.17-0.666-0.173h-4.48c-0.794 0.003-1.437 0.643-1.44 1.44v4.48c0.003 0.797 0.646 1.437 1.44 1.44h4.48c0.794-0.003 1.437-0.643 1.44-1.44v-4.144l1.44-1.933zM18.080 18.877c0 0.131-0.054 0.25-0.141 0.339-0.090 0.090-0.208 0.141-0.339 0.141h-4.48c-0.131 0-0.25-0.054-0.339-0.141-0.090-0.090-0.141-0.208-0.141-0.339v-4.48c0-0.131 0.054-0.25 0.141-0.339 0.090-0.090 0.208-0.141 0.339-0.141h4.48c0.019 0 0.038 0.003 0.058 0.006l-1.84 2.403-1.402-1.014c-0.282-0.211-0.685-0.154-0.896 0.128l-0.566 0.749 2.694 2.048c0.282 0.211 0.678 0.15 0.883-0.138l1.549-2.080v2.858z" fill="#000000"></path>
</svg>
