<?xml version="1.0" encoding="utf-8"?>
<!-- Generated by IcoMoon.io -->
<!DOCTYPE svg PUBLIC "-//W3C//DTD SVG 1.1//EN" "http://www.w3.org/Graphics/SVG/1.1/DTD/svg11.dtd">
<svg version="1.1" xmlns="http://www.w3.org/2000/svg" xmlns:xlink="http://www.w3.org/1999/xlink" width="32" height="32" viewBox="0 0 32 32">
<g id="icomoon-ignore">
	<line stroke-width="1" x1="" y1="" x2="" y2="" stroke="#449FDB" opacity=""></line>
</g>
	<path d="M2.797 10.566l-1.184-0.486c-0.256 0.624-0.474 1.267-0.65 1.93l1.238 0.326c0.16-0.605 0.362-1.197 0.595-1.77z" opacity="1" visibility="false" fill="#000000"></path>
	<path d="M1.728 16c0-0.621 0.038-1.232 0.115-1.834l-1.267-0.163c-0.083 0.656-0.128 1.322-0.128 1.997v0.032l1.28-0.003v-0.029z" opacity="1" visibility="false" fill="#000000"></path>
	<path d="M1.853 17.891l-1.27 0.166c0.090 0.678 0.224 1.344 0.4 1.994l1.235-0.333c-0.16-0.592-0.282-1.203-0.365-1.827z" opacity="1" visibility="false" fill="#000000"></path>
	<path d="M3.677 25.485c0.413 0.538 0.864 1.046 1.344 1.526l0.902-0.906c-0.442-0.438-0.851-0.906-1.232-1.402l-1.014 0.781z" opacity="1" visibility="false" fill="#000000"></path>
	<path d="M1.638 21.978c0.262 0.627 0.563 1.238 0.902 1.821l1.107-0.643c-0.31-0.534-0.589-1.094-0.829-1.67l-1.181 0.493z" opacity="1" visibility="false" fill="#000000"></path>
	<path d="M4.656 7.338l-1.018-0.778c-0.413 0.538-0.787 1.104-1.126 1.693l1.11 0.64c0.31-0.541 0.656-1.059 1.034-1.555z" opacity="1" visibility="false" fill="#000000"></path>
	<path d="M14.093 1.853l-0.17-1.267c-0.678 0.090-1.344 0.224-1.994 0.4l0.333 1.235c0.598-0.16 1.206-0.285 1.83-0.368z" opacity="1" visibility="false" fill="#000000"></path>
	<path d="M30.349 9.99c-0.262-0.627-0.566-1.235-0.906-1.818l-1.104 0.646c0.314 0.534 0.589 1.091 0.832 1.667l1.178-0.496z" opacity="1" visibility="false" fill="#000000"></path>
	<path d="M30.144 14.080l1.267-0.17c-0.093-0.678-0.227-1.344-0.403-1.994l-1.235 0.336c0.163 0.592 0.288 1.203 0.371 1.827z" opacity="1" visibility="false" fill="#000000"></path>
	<path d="M6.547 28.352c0.538 0.413 1.101 0.79 1.693 1.13l0.64-1.107c-0.541-0.314-1.059-0.659-1.552-1.037l-0.781 1.014z" opacity="1" visibility="false" fill="#000000"></path>
	<path d="M10.499 2.826l-0.493-1.181c-0.627 0.262-1.235 0.566-1.821 0.906l0.643 1.107c0.538-0.314 1.094-0.592 1.67-0.832z" opacity="1" visibility="false" fill="#000000"></path>
	<path d="M7.283 4.698l-0.784-1.014c-0.538 0.416-1.046 0.864-1.523 1.344l0.906 0.902c0.442-0.438 0.909-0.851 1.402-1.232z" opacity="1" visibility="false" fill="#000000"></path>
	<path d="M27.325 24.685l1.014 0.781c0.413-0.538 0.79-1.101 1.13-1.69l-1.107-0.64c-0.31 0.538-0.656 1.056-1.037 1.549z" opacity="1" visibility="false" fill="#000000"></path>
	<path d="M23.731 2.502l-0.637 1.11c0.541 0.31 1.059 0.656 1.555 1.034l0.778-1.018c-0.538-0.41-1.104-0.787-1.696-1.126z" opacity="1" visibility="false" fill="#000000"></path>
	<path d="M24.694 27.318l0.781 1.014c0.538-0.413 1.050-0.861 1.526-1.341l-0.906-0.906c-0.442 0.442-0.909 0.854-1.402 1.232z" opacity="1" visibility="false" fill="#000000"></path>
	<path d="M26.96 4.966l-0.902 0.909c0.442 0.438 0.854 0.906 1.235 1.398l1.011-0.784c-0.416-0.538-0.864-1.046-1.344-1.523z" opacity="1" visibility="false" fill="#000000"></path>
	<path d="M10.064 30.378c0.624 0.256 1.267 0.477 1.93 0.653l0.33-1.238c-0.605-0.16-1.197-0.362-1.77-0.598l-0.49 1.184z" opacity="1" visibility="false" fill="#000000"></path>
	<path d="M31.552 15.936l-1.28 0.006v0.058c0 0.63-0.042 1.254-0.122 1.862l1.27 0.166c0.086-0.662 0.131-1.341 0.131-2.029v-0.064z" opacity="1" visibility="false" fill="#000000"></path>
	<path d="M29.19 21.459l1.184 0.49c0.259-0.624 0.477-1.267 0.653-1.926l-1.235-0.33c-0.163 0.605-0.365 1.197-0.602 1.766z" opacity="1" visibility="false" fill="#000000"></path>
	<path d="M16 30.272c-0.627 0-1.242-0.042-1.85-0.118l-0.163 1.27c0.659 0.086 1.331 0.128 2.013 0.128h0.016v-1.28h-0.016z" opacity="1" visibility="false" fill="#000000"></path>
	<path d="M16 0.448h-0.048l0.003 1.28h0.045c0.618 0 1.222 0.038 1.818 0.115l0.16-1.27c-0.646-0.083-1.309-0.125-1.978-0.125z" opacity="1" visibility="false" fill="#000000"></path>
	<path d="M19.974 0.96l-0.326 1.238c0.608 0.16 1.197 0.358 1.77 0.595l0.486-1.184c-0.624-0.256-1.267-0.474-1.93-0.65z" opacity="1" visibility="false" fill="#000000"></path>
	<path d="M17.878 30.15l0.166 1.27c0.678-0.090 1.344-0.224 1.994-0.397l-0.333-1.235c-0.595 0.157-1.203 0.278-1.827 0.362z" opacity="1" visibility="false" fill="#000000"></path>
	<path d="M21.472 29.184l0.493 1.181c0.63-0.262 1.238-0.563 1.821-0.902l-0.64-1.107c-0.538 0.314-1.094 0.589-1.674 0.829z" opacity="1" visibility="false" fill="#000000"></path>
</svg>
