<?xml version="1.0" encoding="utf-8"?>
<!-- Generated by IcoMoon.io -->
<!DOCTYPE svg PUBLIC "-//W3C//DTD SVG 1.1//EN" "http://www.w3.org/Graphics/SVG/1.1/DTD/svg11.dtd">
<svg version="1.1" xmlns="http://www.w3.org/2000/svg" xmlns:xlink="http://www.w3.org/1999/xlink" width="32" height="32" viewBox="0 0 32 32">
<g>
	<line stroke-width="1" x1="" y1="" x2="" y2="" stroke="#449FDB" opacity=""></line>
</g>
	<path d="M15.178 12.067c0 0.352 0.288 0.64 0.64 0.64h0.365c0.352 0 0.64-0.288 0.64-0.64v-1.187c0-0.352-0.288-0.64-0.64-0.64h-0.365c-0.352 0-0.64 0.288-0.64 0.64v1.187z" fill="#000000"></path>
	<path d="M15.178 21.12c0 0.352 0.288 0.64 0.64 0.64h0.365c0.352 0 0.64-0.288 0.64-0.64v-1.187c0-0.352-0.288-0.64-0.64-0.64h-0.365c-0.352 0-0.64 0.288-0.64 0.64v1.187z" fill="#000000"></path>
	<path d="M13.802 13.542c0.25-0.25 0.25-0.656 0-0.906l-0.842-0.842c-0.25-0.25-0.656-0.25-0.906 0l-0.259 0.259c-0.25 0.25-0.25 0.656 0 0.906l0.842 0.842c0.25 0.25 0.656 0.25 0.906 0l0.259-0.259z" fill="#000000"></path>
	<path d="M18.198 18.458c-0.25 0.25-0.25 0.656 0 0.906l0.842 0.842c0.25 0.25 0.656 0.25 0.906 0l0.259-0.259c0.25-0.25 0.25-0.656 0-0.906l-0.842-0.842c-0.25-0.25-0.656-0.25-0.906 0l-0.259 0.259z" fill="#000000"></path>
	<path d="M12.707 15.818c0-0.352-0.288-0.64-0.64-0.64h-1.187c-0.352 0-0.64 0.288-0.64 0.64v0.365c0 0.352 0.288 0.64 0.64 0.64h1.187c0.352 0 0.64-0.288 0.64-0.64v-0.365z" fill="#000000"></path>
	<path d="M19.933 15.178c-0.352 0-0.64 0.288-0.64 0.64v0.365c0 0.352 0.288 0.64 0.64 0.64h1.187c0.352 0 0.64-0.288 0.64-0.64v-0.365c0-0.352-0.288-0.64-0.64-0.64h-1.187z" fill="#000000"></path>
	<path d="M11.798 19.040c-0.25 0.25-0.25 0.656 0 0.906l0.259 0.259c0.25 0.25 0.656 0.25 0.906 0l0.842-0.842c0.25-0.25 0.25-0.656 0-0.906l-0.259-0.259c-0.25-0.25-0.656-0.25-0.906 0l-0.842 0.842z" fill="#000000"></path>
	<path d="M20.202 12.96c0.25-0.25 0.25-0.656 0-0.906l-0.259-0.259c-0.25-0.25-0.656-0.25-0.906 0l-0.842 0.842c-0.25 0.25-0.25 0.656 0 0.906l0.259 0.259c0.25 0.25 0.656 0.25 0.906 0l0.842-0.842z" fill="#000000"></path>
</svg>
