<?xml version="1.0" encoding="utf-8"?>
<!-- Generated by IcoMoon.io -->
<!DOCTYPE svg PUBLIC "-//W3C//DTD SVG 1.1//EN" "http://www.w3.org/Graphics/SVG/1.1/DTD/svg11.dtd">
<svg version="1.1" xmlns="http://www.w3.org/2000/svg" xmlns:xlink="http://www.w3.org/1999/xlink" width="32" height="32" viewBox="0 0 32 32">
<g>
	<line stroke-width="1" x1="" y1="" x2="" y2="" stroke="#449FDB" opacity=""></line>
</g>
	<path d="M28.147 21.485c0.851-1.142 1.36-2.557 1.36-4.090 0-2.026-0.883-3.84-2.275-5.098 0.195-0.512 0.307-1.066 0.307-1.648 0-2.544-2.061-4.605-4.605-4.605-0.179 0-0.358 0.013-0.531 0.032-1.213-1.933-3.363-3.229-5.818-3.229-2.474 0-4.634 1.312-5.843 3.27-4.022 0.515-7.13 3.949-7.13 8.109 0 1.248 0.282 2.432 0.781 3.491-1.731 1.101-2.886 3.030-2.886 5.232 0 3.053 2.208 5.584 5.114 6.099v0.038h0.256c0.272 0.035 0.547 0.061 0.829 0.061s0.557-0.026 0.829-0.061l18.115-0.006c2.131-0.074 3.84-1.821 3.84-3.971 0.003-1.613-0.96-3.002-2.342-3.626zM26.608 27.802l-0.157 0.006-18.083 0.013c-0.256 0.035-0.467 0.051-0.659 0.051s-0.403-0.016-0.659-0.051l-0.083-0.013h-0.010l-0.109-0.019c-2.352-0.416-4.058-2.451-4.058-4.838 0-1.69 0.858-3.242 2.291-4.154l0.954-0.605-0.483-1.021c-0.438-0.925-0.659-1.914-0.659-2.944 0-3.462 2.586-6.403 6.013-6.842l0.605-0.077 0.32-0.518c1.030-1.667 2.806-2.662 4.752-2.662 1.933 0 3.702 0.986 4.733 2.634l0.429 0.685 0.803-0.093c0.144-0.016 0.269-0.026 0.384-0.026 1.834 0 3.325 1.491 3.325 3.325 0 0.403-0.077 0.8-0.224 1.187l-0.314 0.822 0.653 0.589c1.178 1.062 1.853 2.573 1.853 4.147 0 1.203-0.384 2.352-1.107 3.325l-0.95 1.277 1.45 0.653c0.966 0.435 1.59 1.402 1.59 2.458 0.006 1.459-1.139 2.643-2.598 2.691z" fill="#000000"></path>
</svg>
