<?xml version="1.0" encoding="utf-8"?>
<!-- Generated by IcoMoon.io -->
<!DOCTYPE svg PUBLIC "-//W3C//DTD SVG 1.1//EN" "http://www.w3.org/Graphics/SVG/1.1/DTD/svg11.dtd">
<svg version="1.1" xmlns="http://www.w3.org/2000/svg" xmlns:xlink="http://www.w3.org/1999/xlink" width="32" height="32" viewBox="0 0 32 32">
<g id="icomoon-ignore">
	<line stroke-width="1" x1="" y1="" x2="" y2="" stroke="#449FDB" opacity=""></line>
</g>
	<path d="M23.232 16.8c0.003 0 0.003-0.003 0.003-0.003s0.045-0.525 0.045-0.797c0-0.269-0.045-0.797-0.045-0.797 0-0.003-0.003-0.003-0.003-0.003l-1.578-0.211c-0.003 0-0.003-0.003-0.003-0.003l-0.25-0.931c0-0.003 0-0.003 0-0.006l1.261-0.973c0 0 0.003-0.003 0-0.006l-0.797-1.379c0 0-0.003-0.003-0.003 0l-1.472 0.605c-0.003 0-0.003 0-0.006 0l-0.682-0.682c0 0-0.003-0.003 0-0.006l0.605-1.472c0 0 0-0.003 0-0.003l-1.379-0.797c0 0-0.003 0-0.003 0l-0.973 1.261c0 0-0.003 0.003-0.006 0l-0.931-0.246c-0.003 0-0.003-0.003-0.003-0.003l-0.211-1.578c0-0.003-0.003-0.003-0.003-0.003s-0.525-0.045-0.797-0.045-0.797 0.045-0.797 0.045c-0.003 0-0.003 0.003-0.003 0.003l-0.211 1.578c0 0.003-0.003 0.003-0.003 0.003l-0.931 0.246c-0.003 0-0.003 0-0.006 0l-0.973-1.261c0 0-0.003-0.003-0.003 0l-1.379 0.797c0 0-0.003 0.003 0 0.003l0.605 1.472c0 0 0 0.003 0 0.006l-0.682 0.682c0 0-0.003 0.003-0.006 0l-1.472-0.605c-0.003 0-0.003 0-0.003 0l-0.797 1.379c0 0 0 0.003 0 0.006l1.261 0.973c0 0 0.003 0.003 0 0.006l-0.25 0.931c0 0.003-0.003 0.003-0.003 0.003l-1.578 0.211c-0.003 0-0.003 0.003-0.003 0.003s-0.045 0.525-0.045 0.797c0 0.269 0.045 0.797 0.045 0.797 0 0.003 0.003 0.003 0.003 0.003l1.578 0.211c0.003 0 0.003 0.003 0.003 0.003l0.25 0.931c0 0.003 0 0.003 0 0.006l-1.261 0.973c0 0-0.003 0.003 0 0.006l0.797 1.379c0 0 0.003 0.003 0.003 0l1.472-0.605c0.003 0 0.003 0 0.006 0l0.682 0.682c0 0 0.003 0.003 0 0.006l-0.605 1.475c0 0 0 0.003 0 0.003l1.379 0.797c0 0 0.003 0 0.003 0l0.973-1.261c0 0 0.003-0.003 0.006 0l0.931 0.246c0.003 0 0.003 0.003 0.003 0.003l0.211 1.578c0 0.003 0.003 0.003 0.003 0.003s0.525 0.045 0.797 0.045 0.797-0.045 0.797-0.045c0.003 0 0.003-0.003 0.003-0.003l0.211-1.578c0-0.003 0.003-0.003 0.003-0.003l0.931-0.246c0.003 0 0.003 0 0.006 0l0.973 1.261c0 0 0.003 0.003 0.003 0l1.379-0.797c0 0 0.003-0.003 0-0.003l-0.605-1.475c0 0 0-0.003 0-0.006l0.682-0.682c0 0 0.003-0.003 0.006 0l1.472 0.605c0.003 0 0.003 0 0.003 0l0.797-1.379c0 0 0-0.003 0-0.006l-1.261-0.973c0 0-0.003-0.003 0-0.006l0.25-0.931c0-0.003 0.003-0.003 0.003-0.003l1.578-0.211zM16 17.162c-0.643 0-1.162-0.522-1.162-1.162s0.518-1.162 1.162-1.162c0.643 0 1.162 0.522 1.162 1.162s-0.518 1.162-1.162 1.162z" fill="#000000"></path>
</svg>
