<?xml version="1.0" encoding="utf-8"?>
<!-- Generator: Adobe Illustrator 16.0.0, SVG Export Plug-In . SVG Version: 6.00 Build 0)  -->
<!DOCTYPE svg PUBLIC "-//W3C//DTD SVG 1.1 Tiny//EN" "http://www.w3.org/Graphics/SVG/1.1/DTD/svg11-tiny.dtd">
<svg version="1.1" baseProfile="tiny" id="Capa_1" xmlns="http://www.w3.org/2000/svg" xmlns:xlink="http://www.w3.org/1999/xlink"
	 x="0px" y="0px" width="100px" height="100px" viewBox="0 0 100 100" xml:space="preserve">
<g>
	<path d="M19.7,53.15c-2.16,0-4.32-1.75-5.85-3.36c0,0.08-0.01,0.15-0.01,0.23c0,7.76,2.52,15.23,6.99,21.35
		c4.47,6.12,10.89,10.88,18.71,13.25c3.49,1.05,7.01,1.56,10.47,1.56c12.94,0,25.09-7.03,31.49-18.42l3.92,2.21
		c-7.21,12.83-20.84,20.71-35.42,20.72c-3.9,0-7.86-0.57-11.78-1.75c-8.78-2.65-16.01-8.02-21.04-14.9
		c-5.03-6.88-7.86-15.27-7.86-24c0,0,0-0.01,0-0.01c-1.51,1.55-3.58,3.15-5.64,3.15c-3.7,0-3.41-1.41-3.41-1.41L11.7,40.33
		l11.41,11.41C23.11,51.74,22.35,53.15,19.7,53.15z"/>
	<path d="M99.71,48.38L88.29,59.79L76.88,48.38c0,0,0.76-1.41,3.41-1.41c2.16,0,4.32,1.75,5.85,3.37c0-0.12,0.01-0.23,0.01-0.35
		c0-7.76-2.52-15.23-6.99-21.35c-4.47-6.12-10.89-10.88-18.71-13.25c-3.49-1.05-7.01-1.56-10.47-1.56
		c-12.98,0-25.16,7.07-31.55,18.52l-3.93-2.19c7.2-12.89,20.86-20.82,35.48-20.83c3.9,0,7.86,0.57,11.78,1.75
		c8.78,2.65,16.01,8.02,21.04,14.9c5.03,6.88,7.86,15.27,7.86,24c0,0.04,0,0.08,0,0.12c1.51-1.54,3.57-3.14,5.64-3.14
		C99.99,46.97,99.71,48.38,99.71,48.38z"/>
</g>
</svg>
