<?xml version="1.0" encoding="utf-8"?>
<!-- Generator: Adobe Illustrator 16.0.0, SVG Export Plug-In . SVG Version: 6.00 Build 0)  -->
<!DOCTYPE svg PUBLIC "-//W3C//DTD SVG 1.1 Tiny//EN" "http://www.w3.org/Graphics/SVG/1.1/DTD/svg11-tiny.dtd">
<svg version="1.1" baseProfile="tiny" id="Capa_1" xmlns="http://www.w3.org/2000/svg" xmlns:xlink="http://www.w3.org/1999/xlink"
	 x="0px" y="0px" width="100px" height="100px" viewBox="0 0 100 100" xml:space="preserve">
<path d="M87.96,67.14c2.66-3.57,4.25-7.99,4.25-12.78c0-6.33-2.76-12-7.11-15.93c0.61-1.6,0.96-3.33,0.96-5.15
	c0-7.95-6.44-14.39-14.39-14.39c-0.56,0-1.12,0.04-1.66,0.1C66.22,12.95,59.5,8.9,51.83,8.9C44.1,8.9,37.35,13,33.57,19.12
	C21,20.73,11.29,31.46,11.29,44.46c0,3.9,0.88,7.6,2.44,10.91c-5.41,3.44-9.02,9.47-9.02,16.35c0,9.54,6.9,17.45,15.98,19.06v0.12
	h0.8c0.85,0.11,1.71,0.19,2.59,0.19c0.88,0,1.74-0.08,2.59-0.19h56.61v-0.02c6.66-0.23,12-5.69,12-12.41
	C95.29,73.43,92.28,69.09,87.96,67.14z M83.15,86.88l-0.49,0.02H26.68h-0.27l-0.26,0.04c-0.8,0.11-1.46,0.16-2.06,0.16
	s-1.26-0.05-2.06-0.16l-0.26-0.04h-0.03l-0.34-0.06c-7.35-1.3-12.68-7.66-12.68-15.12c0-5.28,2.68-10.13,7.16-12.98l2.98-1.89
	l-1.51-3.19c-1.37-2.89-2.06-5.98-2.06-9.2c0-10.82,8.08-20.01,18.79-21.38l1.89-0.24l1-1.62c3.22-5.21,8.77-8.32,14.85-8.32
	c6.04,0,11.57,3.08,14.79,8.23l1.34,2.14l2.51-0.29c0.45-0.05,0.84-0.08,1.2-0.08c5.73,0,10.39,4.66,10.39,10.39
	c0,1.26-0.24,2.5-0.7,3.71l-0.98,2.57l2.04,1.84c3.68,3.32,5.79,8.04,5.79,12.96c0,3.76-1.2,7.35-3.46,10.39l-2.97,3.99l4.53,2.04
	c3.02,1.36,4.97,4.38,4.97,7.68C91.29,83.03,87.71,86.73,83.15,86.88z"/>
</svg>
