<?xml version="1.0" encoding="utf-8"?>
<!-- Generator: Adobe Illustrator 16.0.0, SVG Export Plug-In . SVG Version: 6.00 Build 0)  -->
<!DOCTYPE svg PUBLIC "-//W3C//DTD SVG 1.1 Tiny//EN" "http://www.w3.org/Graphics/SVG/1.1/DTD/svg11-tiny.dtd">
<svg version="1.1" baseProfile="tiny" id="Capa_1" xmlns="http://www.w3.org/2000/svg" xmlns:xlink="http://www.w3.org/1999/xlink"
	 x="0px" y="0px" width="100px" height="100px" viewBox="0 0 100 100" xml:space="preserve">
<g>
	<path d="M68,65H32c-1.1,0-2,0.9-2,2v26c0,1.1,0.9,2,2,2h36c1.1,0,2-0.9,2-2V67C70,65.9,69.1,65,68,65z"/>
	<path d="M21.9,57.87c0,0.82-0.68,1.5-1.5,1.5H10c-0.82,0-1.5-0.68-1.5-1.5h-1V59c0,1.38,1.12,2.5,2.5,2.5h10.4
		c1.38,0,2.5-1.12,2.5-2.5v-1.13H21.9z"/>
	<path d="M91.5,57.87c0,0.82-0.68,1.5-1.5,1.5H79.6c-0.82,0-1.5-0.68-1.5-1.5h-1V59c0,1.38,1.12,2.5,2.5,2.5H90
		c1.38,0,2.5-1.12,2.5-2.5v-1.13H91.5z"/>
	<path d="M74.7,57.87c0,0.82-0.68,1.5-1.5,1.5H26.8c-0.82,0-1.5-0.68-1.5-1.5h-1V59c0,1.38,1.12,2.5,2.5,2.5h46.4
		c1.38,0,2.5-1.12,2.5-2.5v-1.13H74.7z"/>
	<path d="M10,52.43h3.2c1.38,0,2.5-1.12,2.5-2.5V48.8h-1c0,0.82-0.68,1.5-1.5,1.5H10c-0.82,0-1.5-0.68-1.5-1.5h-1v1.13
		C7.5,51.31,8.62,52.43,10,52.43z"/>
	<path d="M22.8,50.3h-3.2c-0.82,0-1.5-0.68-1.5-1.5h-1v1.13c0,1.38,1.12,2.5,2.5,2.5h3.2c1.38,0,2.5-1.12,2.5-2.5V48.8h-0.5h-0.5
		C24.3,49.62,23.62,50.3,22.8,50.3z"/>
	<path d="M29.2,52.43h3.2c1.38,0,2.5-1.12,2.5-2.5V48.8h-1c0,0.82-0.68,1.5-1.5,1.5h-3.2c-0.82,0-1.5-0.68-1.5-1.5h-1v1.13
		C26.7,51.31,27.82,52.43,29.2,52.43z"/>
	<path d="M38.8,52.43H42c1.38,0,2.5-1.12,2.5-2.5V48.8h-1c0,0.82-0.68,1.5-1.5,1.5h-3.2c-0.82,0-1.5-0.68-1.5-1.5h-1v1.13
		C36.3,51.31,37.42,52.43,38.8,52.43z"/>
	<path d="M48.4,52.43h3.2c1.38,0,2.5-1.12,2.5-2.5V48.8h-1c0,0.82-0.68,1.5-1.5,1.5h-3.2c-0.82,0-1.5-0.68-1.5-1.5h-1v1.13
		C45.9,51.31,47.02,52.43,48.4,52.43z"/>
	<path d="M58,52.43h3.2c1.38,0,2.5-1.12,2.5-2.5V48.8h-1c0,0.82-0.68,1.5-1.5,1.5H58c-0.82,0-1.5-0.68-1.5-1.5h-1v1.13
		C55.5,51.31,56.62,52.43,58,52.43z"/>
	<path d="M67.6,52.43h3.2c1.38,0,2.5-1.12,2.5-2.5V48.8h-1c0,0.82-0.68,1.5-1.5,1.5h-3.2c-0.82,0-1.5-0.68-1.5-1.5h-1v1.13
		C65.1,51.31,66.22,52.43,67.6,52.43z"/>
	<path d="M75.7,48.8h-1v1.13c0,1.38,1.12,2.5,2.5,2.5h3.2c1.38,0,2.5-1.12,2.5-2.5V48.8h-1c0,0.82-0.68,1.5-1.5,1.5h-3.2
		C76.38,50.3,75.7,49.62,75.7,48.8z"/>
	<path d="M91.5,48.8c0,0.82-0.68,1.5-1.5,1.5h-3.2c-0.82,0-1.5-0.68-1.5-1.5h-1v1.13c0,1.38,1.12,2.5,2.5,2.5H90
		c1.38,0,2.5-1.12,2.5-2.5V48.8H91.5z"/>
	<path d="M10,34.3h3.2c1.38,0,2.5-1.12,2.5-2.5v-1.13h-1c0,0.82-0.68,1.5-1.5,1.5H10c-0.82,0-1.5-0.68-1.5-1.5h-1v1.13
		C7.5,33.18,8.62,34.3,10,34.3z"/>
	<path d="M19.6,34.3h3.2c1.38,0,2.5-1.12,2.5-2.5v-1.13h-1c0,0.82-0.68,1.5-1.5,1.5h-3.2c-0.82,0-1.5-0.68-1.5-1.5h-1v1.13
		C17.1,33.18,18.22,34.3,19.6,34.3z"/>
	<path d="M29.2,34.3h3.2c1.38,0,2.5-1.12,2.5-2.5v-1.13h-1c0,0.82-0.68,1.5-1.5,1.5h-3.2c-0.82,0-1.5-0.68-1.5-1.5h-1v1.13
		C26.7,33.18,27.82,34.3,29.2,34.3z"/>
	<path d="M38.8,34.3H42c1.38,0,2.5-1.12,2.5-2.5v-1.13h-1c0,0.82-0.68,1.5-1.5,1.5h-3.2c-0.82,0-1.5-0.68-1.5-1.5h-1v1.13
		C36.3,33.18,37.42,34.3,38.8,34.3z"/>
	<path d="M48.4,34.3h3.2c1.38,0,2.5-1.12,2.5-2.5v-1.13h-1c0,0.82-0.68,1.5-1.5,1.5h-3.2c-0.82,0-1.5-0.68-1.5-1.5h-1v1.13
		C45.9,33.18,47.02,34.3,48.4,34.3z"/>
	<path d="M58,34.3h3.2c1.38,0,2.5-1.12,2.5-2.5v-1.13h-1c0,0.82-0.68,1.5-1.5,1.5H58c-0.82,0-1.5-0.68-1.5-1.5h-1v1.13
		C55.5,33.18,56.62,34.3,58,34.3z"/>
	<path d="M67.6,34.3h3.2c1.38,0,2.5-1.12,2.5-2.5v-1.13h-1c0,0.82-0.68,1.5-1.5,1.5h-3.2c-0.82,0-1.5-0.68-1.5-1.5h-1v1.13
		C65.1,33.18,66.22,34.3,67.6,34.3z"/>
	<path d="M77.2,34.3h3.2c1.38,0,2.5-1.12,2.5-2.5v-1.13h-1c0,0.82-0.68,1.5-1.5,1.5h-3.2c-0.82,0-1.5-0.68-1.5-1.5h-1v1.13
		C74.7,33.18,75.82,34.3,77.2,34.3z"/>
	<path d="M91.5,30.67c0,0.82-0.68,1.5-1.5,1.5h-3.2c-0.82,0-1.5-0.68-1.5-1.5h-1v1.13c0,1.38,1.12,2.5,2.5,2.5H90
		c1.38,0,2.5-1.12,2.5-2.5v-1.13H91.5z"/>
	<path d="M10,43.37h8c1.38,0,2.5-1.12,2.5-2.5v-1.13h-1c0,0.82-0.68,1.5-1.5,1.5h-8c-0.82,0-1.5-0.68-1.5-1.5h-1v1.13
		C7.5,42.25,8.62,43.37,10,43.37z"/>
	<path d="M30.1,40.87v-1.13h-1c0,0.82-0.68,1.5-1.5,1.5h-3.2c-0.82,0-1.5-0.68-1.5-1.5h-1v1.13c0,1.38,1.12,2.5,2.5,2.5h3.2
		C28.98,43.37,30.1,42.25,30.1,40.87z"/>
	<path d="M39.7,40.87v-1.13h-1c0,0.82-0.68,1.5-1.5,1.5H34c-0.82,0-1.5-0.68-1.5-1.5h-1v1.13c0,1.38,1.12,2.5,2.5,2.5h3.2
		C38.58,43.37,39.7,42.25,39.7,40.87z"/>
	<path d="M49.3,40.87v-1.13h-1c0,0.82-0.68,1.5-1.5,1.5h-3.2c-0.82,0-1.5-0.68-1.5-1.5h-1v1.13c0,1.38,1.12,2.5,2.5,2.5h3.2
		C48.18,43.37,49.3,42.25,49.3,40.87z"/>
	<path d="M58.9,40.87v-1.13h-1c0,0.82-0.68,1.5-1.5,1.5h-3.2c-0.82,0-1.5-0.68-1.5-1.5h-1v1.13c0,1.38,1.12,2.5,2.5,2.5h3.2
		C57.78,43.37,58.9,42.25,58.9,40.87z"/>
	<path d="M68.5,40.87v-1.13h-1c0,0.82-0.68,1.5-1.5,1.5h-3.2c-0.82,0-1.5-0.68-1.5-1.5h-1v1.13c0,1.38,1.12,2.5,2.5,2.5H66
		C67.38,43.37,68.5,42.25,68.5,40.87z"/>
	<path d="M77.1,39.73c0,0.82-0.68,1.5-1.5,1.5h-3.2c-0.82,0-1.5-0.68-1.5-1.5h-1v1.13c0,1.38,1.12,2.5,2.5,2.5h3.2
		c1.38,0,2.5-1.12,2.5-2.5v-1.13H77.1z"/>
	<path d="M91.5,39.73c0,0.82-0.68,1.5-1.5,1.5h-8c-0.82,0-1.5-0.68-1.5-1.5h-1v1.13c0,1.38,1.12,2.5,2.5,2.5h8
		c1.38,0,2.5-1.12,2.5-2.5v-1.13H91.5z"/>
</g>
</svg>
