<?xml version="1.0" encoding="utf-8"?>
<!-- Generator: Adobe Illustrator 16.0.0, SVG Export Plug-In . SVG Version: 6.00 Build 0)  -->
<!DOCTYPE svg PUBLIC "-//W3C//DTD SVG 1.1 Tiny//EN" "http://www.w3.org/Graphics/SVG/1.1/DTD/svg11-tiny.dtd">
<svg version="1.1" baseProfile="tiny" id="Capa_1" xmlns="http://www.w3.org/2000/svg" xmlns:xlink="http://www.w3.org/1999/xlink"
	 x="0px" y="0px" width="100px" height="100px" viewBox="0 0 100 100" xml:space="preserve">
<path d="M89.1,62.35c-3.16,10.1-10.25,18.7-19.55,23.73c-10.33,5.59-22.78,6.43-33.78,2.31C19.86,82.45,9.14,66.76,9.27,49.79
	c-1.97,2.01-4.25,3.48-7.16,3.02c-0.65-0.1-1.95-0.41-1.88-1.31l11.41-11.41L23.07,51.5c-0.62,1-1.98,1.35-3.08,1.41
	c-2.48,0.12-4.61-1.69-6.21-3.38c-0.2,11.04,4.8,21.82,13.35,28.8c8.89,7.26,21.03,9.91,32.14,7.01
	c10.41-2.72,19.27-10.07,23.8-19.83c4.96-10.69,4.41-23.36-1.49-33.56C76.11,22.5,66.5,15.93,55.72,14.23
	c-10.37-1.63-21.14,1.44-29.13,8.23c-2.39,2.03-4.51,4.37-6.3,6.94c1.55,3.59-2.68,7.07-5.91,4.89c-3.14-2.12-1.68-7.18,2.11-7.3
	c5.71-8.3,14.49-14.3,24.3-16.62c10.85-2.56,22.55-0.46,31.85,5.68C87.65,25.97,94.47,45.18,89.1,62.35
	C86.37,71.08,90.37,58.3,89.1,62.35z"/>
</svg>
