<?xml version="1.0" encoding="utf-8"?>
<!-- Generator: Adobe Illustrator 16.0.0, SVG Export Plug-In . SVG Version: 6.00 Build 0)  -->
<!DOCTYPE svg PUBLIC "-//W3C//DTD SVG 1.1 Tiny//EN" "http://www.w3.org/Graphics/SVG/1.1/DTD/svg11-tiny.dtd">
<svg version="1.1" baseProfile="tiny" id="Capa_1" xmlns="http://www.w3.org/2000/svg" xmlns:xlink="http://www.w3.org/1999/xlink"
	 x="0px" y="0px" width="100px" height="100px" viewBox="0 0 100 100" xml:space="preserve">
<path d="M86.85,13.01c1.47-5.49-7.47-7.63-11.16-8.51c-5.67-1.35-11.51-1.96-17.32-2.28C46.91,1.59,34.89,1.87,23.69,4.66
	C20.17,5.54,12.99,7.28,13,12v76c0,2.68,2.6,4.36,4.76,5.36c2.37,1.1,4.93,1.79,7.48,2.35c5.74,1.27,11.63,1.85,17.5,2.12
	c6.27,0.3,12.57,0.22,18.83-0.27c5.31-0.42,10.66-1.09,15.8-2.5c3.34-0.91,9.64-2.67,9.63-7.06h-0.15V13.01z M17.99,11.07
	c2.03-1.37,4.58-2.02,6.93-2.6c2.81-0.69,5.68-1.15,8.55-1.51c6.12-0.76,12.31-1.03,18.48-0.95c5.81,0.07,11.64,0.45,17.39,1.34
	c2.51,0.39,5.02,0.88,7.47,1.58c1.16,0.33,2.32,0.71,3.43,1.2c0.92,0.4,2.12,0.9,2.69,1.76c0.02,0.03,0.04,0.07,0.06,0.1l0,0l0,0
	h-0.14v0.21c-1.46,1.77-4.55,2.45-6.64,3.02c-2.68,0.72-5.42,1.22-8.16,1.6c-6.1,0.86-12.28,1.18-18.44,1.16
	c-5.92-0.01-11.87-0.34-17.73-1.17c-2.45-0.35-4.89-0.78-7.29-1.38c-2.32-0.58-4.99-1.26-6.93-2.75c-0.23-0.18-0.53-0.41-0.65-0.68
	l0,0l0.05-0.1C17.16,11.74,17.46,11.42,17.99,11.07C18.91,10.45,17.46,11.42,17.99,11.07z M82.01,88.93
	c-2.03,1.37-4.58,2.02-6.93,2.6c-2.81,0.69-5.68,1.15-8.55,1.51c-6.12,0.76-12.31,1.03-18.48,0.95c-5.81-0.07-11.64-0.45-17.39-1.34
	c-2.51-0.39-5.02-0.88-7.47-1.58c-1.16-0.33-2.32-0.71-3.43-1.2c-0.92-0.4-2.12-0.9-2.69-1.76c-0.02-0.03-0.04-0.07-0.06-0.1
	L17,87.98V16.96c4.7,2.47,10.34,3.32,15.54,3.99c5.91,0.76,11.89,1.06,17.85,1.05c5.86-0.01,11.73-0.33,17.54-1.11
	c5.01-0.67,10.37-1.53,14.92-3.84V88h0.14l-0.05,0.1C82.84,88.26,82.54,88.58,82.01,88.93C81.09,89.55,82.54,88.58,82.01,88.93z"/>
</svg>
