<?xml version="1.0" encoding="utf-8"?>
<!-- Generator: Adobe Illustrator 16.0.0, SVG Export Plug-In . SVG Version: 6.00 Build 0)  -->
<!DOCTYPE svg PUBLIC "-//W3C//DTD SVG 1.1 Tiny//EN" "http://www.w3.org/Graphics/SVG/1.1/DTD/svg11-tiny.dtd">
<svg version="1.1" baseProfile="tiny" id="Capa_1" xmlns="http://www.w3.org/2000/svg" xmlns:xlink="http://www.w3.org/1999/xlink"
	 x="0px" y="0px" width="100px" height="100px" viewBox="0 0 100 100" xml:space="preserve">
<g>
	<path d="M28.06,48.44C28.86,37.02,38.38,28,50,28c11.24,0,20.51,8.44,21.83,19.32L82,51.33l11.68-6.57C91.09,22.93,72.53,6,50,6
		C26.05,6,6.58,25.14,6.03,48.96L19,43.33L28.06,48.44z M10.7,42.57c1.5-8.01,5.41-15.36,11.34-21.17C29.55,14.05,39.48,10,50,10
		c19.37,0,35.82,13.85,39.31,32.63l-7.61,4.28l-6.3-2.48C72.82,32.63,62.31,24,50,24c-11.53,0-21.48,7.64-24.81,18.23l-4.23-2.38
		l-1.73-0.98l-1.82,0.79L10.7,42.57z"/>
	<path d="M81,56.67l-9.06-5.11C71.14,62.98,61.62,72,50,72c-11.24,0-20.51-8.44-21.83-19.32L18,48.67L6.32,55.24
		C8.91,77.07,27.47,94,50,94c23.95,0,43.42-19.14,43.97-42.96L81,56.67z M77.96,78.59C70.45,85.95,60.52,90,50,90
		c-19.37,0-35.82-13.85-39.31-32.63l7.61-4.28l6.3,2.48C27.18,67.37,37.69,76,50,76c11.53,0,21.48-7.64,24.81-18.23l4.23,2.38
		l1.73,0.98l1.82-0.79l6.71-2.91C87.8,65.43,83.89,72.79,77.96,78.59z"/>
</g>
</svg>
