<?xml version="1.0" encoding="utf-8"?>
<!-- Generator: Adobe Illustrator 16.0.0, SVG Export Plug-In . SVG Version: 6.00 Build 0)  -->
<!DOCTYPE svg PUBLIC "-//W3C//DTD SVG 1.1 Tiny//EN" "http://www.w3.org/Graphics/SVG/1.1/DTD/svg11-tiny.dtd">
<svg version="1.1" baseProfile="tiny" id="Capa_1" xmlns="http://www.w3.org/2000/svg" xmlns:xlink="http://www.w3.org/1999/xlink"
	 x="0px" y="0px" width="100px" height="100px" viewBox="0 0 100 100" xml:space="preserve">
<g>
	<path d="M79.7,79.7c0.01-0.02,0.03-0.03,0.04-0.05c-0.03,0.03-0.06,0.06-0.09,0.09C79.66,79.73,79.68,79.72,79.7,79.7z"/>
	<path d="M97,88l-13.79-6.27c3.67-3.81,6.72-8.25,8.91-13.22c7.37-16.75,3.87-36.82-8.68-50.1C74.81,9.28,62.61,4.01,50.04,4
		C56.38,4,62.67,4,50,4c-12.66,0-6.39,0-0.06,0C31.9,4.03,15.15,14.97,7.88,31.49c-3.85,8.75-4.86,18.65-2.9,28
		c2.1,9.97,7.59,19.08,15.37,25.65l0.23,0.19L-0.32,96H50c9.31,0,18.28-2.91,25.78-8H97z M73.69,81.79l7.46,2.87L50.04,84
		l-0.91-0.03c-8.63-0.3-16.71-3.94-22.73-10.26C20.34,67.36,17,58.98,17,50.13c0-18.68,14.93-33.87,33.27-33.87
		s33.27,15.19,33.27,33.87c0,9.53-3.98,18.68-10.92,25.09l-4.42,4.09L73.69,81.79z M50,92l-35.84,0.51l13.95-6.53l-2.65-1.92
		c-8.08-5.84-13.95-14.5-16.28-24.2C6.69,49.6,8.22,38.54,13.42,29.34c5.09-8.99,13.49-15.93,23.3-19.2
		C46.89,6.76,58.22,7.42,67.91,12c9.33,4.41,16.86,12.27,20.85,21.8c4.14,9.88,4.3,21.25,0.46,31.25
		c-2.1,5.46-5.35,10.46-9.48,14.61c1.89-1.89,3.73-3.73-0.04,0.05c-0.11,0.11-0.2,0.2-0.3,0.3l0,0c0.08-0.08,0.16-0.16,0.25-0.25
		c-0.08,0.08-0.17,0.16-0.26,0.24l-4.04-1.84c7.5-6.93,12.2-16.92,12.2-28.02c0-20.92-16.69-37.87-37.27-37.87
		C29.69,12.25,13,29.21,13,50.13c0,20.48,16,37.15,35.99,37.84V88h18.86C62.43,90.55,56.39,92,50,92z"/>
</g>
</svg>
