<?xml version="1.0" encoding="utf-8"?>
<!-- Generated by IcoMoon.io -->
<!DOCTYPE svg PUBLIC "-//W3C//DTD SVG 1.1//EN" "http://www.w3.org/Graphics/SVG/1.1/DTD/svg11.dtd">
<svg version="1.1" xmlns="http://www.w3.org/2000/svg" xmlns:xlink="http://www.w3.org/1999/xlink" width="32" height="32" viewBox="0 0 32 32">
<g>
	<line stroke-width="1" x1="" y1="" x2="" y2="" stroke="#449FDB" opacity=""></line>
</g>
	<path d="M16 8.96c-3.888 0-7.040 3.152-7.040 7.040s3.152 7.040 7.040 7.040c3.888 0 7.040-3.152 7.040-7.040s-3.152-7.040-7.040-7.040zM16 21.76c-1.594 0-3.027-0.643-4.074-1.686-0.147-0.147-0.282-0.301-0.413-0.464 0.186-0.432 0.483-0.762 0.966-0.874 1.344-0.31 2.672-0.589 2.032-1.763-1.885-3.478-0.534-5.453 1.494-5.453 1.99 0 3.376 1.901 1.491 5.453-0.621 1.168 0.659 1.443 2.032 1.763 0.48 0.112 0.778 0.435 0.963 0.864-0.131 0.166-0.272 0.323-0.419 0.474-1.046 1.043-2.48 1.686-4.074 1.686z" fill="#000000"></path>
</svg>
