<?xml version="1.0" encoding="utf-8"?>
<!-- Generator: Adobe Illustrator 16.0.0, SVG Export Plug-In . SVG Version: 6.00 Build 0)  -->
<!DOCTYPE svg PUBLIC "-//W3C//DTD SVG 1.1 Tiny//EN" "http://www.w3.org/Graphics/SVG/1.1/DTD/svg11-tiny.dtd">
<svg version="1.1" baseProfile="tiny" id="Capa_1" xmlns="http://www.w3.org/2000/svg" xmlns:xlink="http://www.w3.org/1999/xlink"
	 x="0px" y="0px" width="100px" height="100px" viewBox="0 0 100 100" xml:space="preserve">
<g>
	<path d="M91,51H51.5v-8c0-1.24,0.5-2.35,1.32-3.18C53.65,39,54.76,38.5,56,38.5h10v-3H56c-4.13,0.01-7.49,3.37-7.5,7.5v8H9
		c-2.75,0-5,2.25-5,5v34c0,2.75,2.25,5,5,5h82c2.75,0,5-2.25,5-5V56C96,53.25,93.75,51,91,51z M93,90c0,1.08-0.92,2-2,2H9
		c-1.08,0-2-0.92-2-2V56c0-1.08,0.92-2,2-2h82c1.08,0,2,0.92,2,2V90z"/>
	<polygon points="32,59 24,59 24,69 14,69 14,77 24,77 24,87 32,87 32,77 42,77 42,69 32,69 	"/>
	<path d="M72,68.5c3.04,0,5.5-2.46,5.5-5.5c0-3.04-2.46-5.5-5.5-5.5c-3.04,0-5.5,2.46-5.5,5.5C66.5,66.04,68.96,68.5,72,68.5z
		 M72,60.5c1.38,0,2.5,1.12,2.5,2.5c0,1.38-1.12,2.5-2.5,2.5c-1.38,0-2.5-1.12-2.5-2.5C69.5,61.62,70.62,60.5,72,60.5z"/>
	<path d="M62,67.5c-3.04,0-5.5,2.46-5.5,5.5c0,3.04,2.46,5.5,5.5,5.5c3.04,0,5.5-2.46,5.5-5.5C67.5,69.96,65.04,67.5,62,67.5z
		 M62,75.5c-1.38,0-2.5-1.12-2.5-2.5c0-1.38,1.12-2.5,2.5-2.5c1.38,0,2.5,1.12,2.5,2.5C64.5,74.38,63.38,75.5,62,75.5z"/>
	<path d="M72,77.5c-3.04,0-5.5,2.46-5.5,5.5c0,3.04,2.46,5.5,5.5,5.5c3.04,0,5.5-2.46,5.5-5.5C77.5,79.96,75.04,77.5,72,77.5z
		 M72,85.5c-1.38,0-2.5-1.12-2.5-2.5c0-1.38,1.12-2.5,2.5-2.5c1.38,0,2.5,1.12,2.5,2.5C74.5,84.38,73.38,85.5,72,85.5z"/>
	<path d="M82,67.5c-3.04,0-5.5,2.46-5.5,5.5c0,3.04,2.46,5.5,5.5,5.5c3.04,0,5.5-2.46,5.5-5.5C87.5,69.96,85.04,67.5,82,67.5z
		 M82,75.5c-1.38,0-2.5-1.12-2.5-2.5c0-1.38,1.12-2.5,2.5-2.5c1.38,0,2.5,1.12,2.5,2.5C84.5,74.38,83.38,75.5,82,75.5z"/>
</g>
</svg>
