<?xml version="1.0" encoding="utf-8"?>
<!-- Generator: Adobe Illustrator 16.0.0, SVG Export Plug-In . SVG Version: 6.00 Build 0)  -->
<!DOCTYPE svg PUBLIC "-//W3C//DTD SVG 1.1 Tiny//EN" "http://www.w3.org/Graphics/SVG/1.1/DTD/svg11-tiny.dtd">
<svg version="1.1" baseProfile="tiny" id="Capa_1" xmlns="http://www.w3.org/2000/svg" xmlns:xlink="http://www.w3.org/1999/xlink"
	 x="0px" y="0px" width="100px" height="100px" viewBox="0 0 100 100" xml:space="preserve">
<path d="M50,1.4C23.16,1.4,1.4,23.16,1.4,50c0,26.84,21.76,48.6,48.6,48.6c26.84,0,48.6-21.76,48.6-48.6
	C98.6,23.16,76.84,1.4,50,1.4z M81.54,81.54C73.46,89.61,62.32,94.6,50,94.6c-12.32,0-23.46-4.99-31.54-13.06
	C10.39,73.46,5.4,62.32,5.4,50c0-12.32,4.99-23.46,13.06-31.54C26.54,10.39,37.68,5.4,50,5.4c12.32,0,23.46,4.99,31.54,13.06
	C89.61,26.54,94.6,37.68,94.6,50C94.6,62.32,89.61,73.46,81.54,81.54z"/>
</svg>
