<?xml version="1.0" encoding="utf-8"?>
<!-- Generator: Adobe Illustrator 16.0.0, SVG Export Plug-In . SVG Version: 6.00 Build 0)  -->
<!DOCTYPE svg PUBLIC "-//W3C//DTD SVG 1.1 Tiny//EN" "http://www.w3.org/Graphics/SVG/1.1/DTD/svg11-tiny.dtd">
<svg version="1.1" baseProfile="tiny" id="Capa_1" xmlns="http://www.w3.org/2000/svg" xmlns:xlink="http://www.w3.org/1999/xlink"
	 x="0px" y="0px" width="100px" height="100px" viewBox="0 0 100 100" xml:space="preserve">
<path d="M50,4C31.94,4,15.16,14.95,7.88,31.49c-3.85,8.75-4.86,18.65-2.9,28c2.1,9.97,7.59,19.08,15.37,25.65
	c0.08,0.06,0.15,0.13,0.23,0.19L-0.32,96H50c18.06,0,34.84-10.95,42.12-27.49c7.37-16.75,3.87-36.82-8.68-50.1
	C74.8,9.27,62.58,4,50,4C24.59,4,75.41,4,50,4z M79.7,79.7C72.09,87.3,61.6,92,50,92H16.32l11.79-6.02l-2.65-1.92
	c-8.08-5.84-13.95-14.5-16.28-24.2C6.69,49.6,8.22,38.54,13.42,29.34c5.09-8.99,13.49-15.93,23.3-19.2
	C46.89,6.76,58.22,7.42,67.91,12c9.33,4.41,16.86,12.27,20.85,21.8c4.14,9.88,4.3,21.25,0.46,31.25
	C87.12,70.53,83.85,75.55,79.7,79.7C72.09,87.3,87.3,72.09,79.7,79.7z"/>
</svg>
