<?xml version="1.0" encoding="utf-8"?>
<!-- Generator: Adobe Illustrator 16.0.0, SVG Export Plug-In . SVG Version: 6.00 Build 0)  -->
<!DOCTYPE svg PUBLIC "-//W3C//DTD SVG 1.1 Tiny//EN" "http://www.w3.org/Graphics/SVG/1.1/DTD/svg11-tiny.dtd">
<svg version="1.1" baseProfile="tiny" id="Capa_1" xmlns="http://www.w3.org/2000/svg" xmlns:xlink="http://www.w3.org/1999/xlink"
	 x="0px" y="0px" width="100px" height="100px" viewBox="0 0 100 100" xml:space="preserve">
<path d="M50,6C25.7,6,6,25.7,6,50s19.7,44,44,44s44-19.7,44-44S74.3,6,50,6z M50,10c21.22,0,38.62,16.61,39.91,37.5l-6.82,4.69
	l-7.21-4.66C74.63,34.35,63.5,24,50,24c-14.34,0-26,11.66-26,26c0,0.21,0.01,0.42,0.02,0.64l-6.92-4.44l-7.07,4.84
	C10.02,50.69,10,50.35,10,50C10,27.94,27.94,10,50,10z M72,50c0,12.15-9.85,22-22,22s-22-9.85-22-22s9.85-22,22-22S72,37.85,72,50z
	 M50,90c-20.57,0-37.55-15.61-39.75-35.6l6.66-4.6l7.53,4.9C26.65,66.8,37.27,76,50,76c13.88,0,25.26-10.94,25.96-24.65l6.94,4.46
	l7.07-4.84C89.46,72.58,71.73,90,50,90z"/>
</svg>
