<?xml version="1.0" encoding="utf-8"?>
<!-- Generator: Adobe Illustrator 16.0.0, SVG Export Plug-In . SVG Version: 6.00 Build 0)  -->
<!DOCTYPE svg PUBLIC "-//W3C//DTD SVG 1.1 Tiny//EN" "http://www.w3.org/Graphics/SVG/1.1/DTD/svg11-tiny.dtd">
<svg version="1.1" baseProfile="tiny" id="Capa_1" xmlns="http://www.w3.org/2000/svg" xmlns:xlink="http://www.w3.org/1999/xlink"
	 x="0px" y="0px" width="100px" height="100px" viewBox="0 0 100 100" xml:space="preserve">
<path d="M96,23h-3v-3c0-1.65-1.35-3-3-3h-3v-3c0-1.65-1.35-3-3-3H16c-1.65,0-3,1.35-3,3v68c0,1.65,1.35,3,3,3h3v3c0,1.65,1.35,3,3,3
	h3v3c0,1.65,1.35,3,3,3h68c1.65,0,3-1.35,3-3V26C99,24.35,97.65,23,96,23z M17,15h66v66H17V15z M23,85h61c1.65,0,3-1.35,3-3V21h2v66
	H23V85z M95,93H29v-2h61c1.65,0,3-1.35,3-3V27h2V93z"/>
</svg>
