<?xml version="1.0" encoding="utf-8"?>
<!-- Generated by IcoMoon.io -->
<!DOCTYPE svg PUBLIC "-//W3C//DTD SVG 1.1//EN" "http://www.w3.org/Graphics/SVG/1.1/DTD/svg11.dtd">
<svg version="1.1" xmlns="http://www.w3.org/2000/svg" xmlns:xlink="http://www.w3.org/1999/xlink" width="6" height="28" viewBox="0 0 6 28">
<g id="icomoon-ignore">
	<line stroke-width="1" x1="" y1="" x2="" y2="" stroke="#449FDB" opacity=""></line>
</g>
	<path d="M4.833 16.822c-0.148 0-0.244-0.073-0.283-0.218l-0.095-0.722c-0.255 0.311-0.546 0.557-0.874 0.745s-0.703 0.28-1.126 0.28c-0.342 0-0.65-0.064-0.93-0.196s-0.515-0.325-0.711-0.58-0.347-0.571-0.454-0.952c-0.106-0.381-0.16-0.818-0.16-1.31 0-0.44 0.059-0.848 0.176-1.226s0.288-0.706 0.51-0.986 0.49-0.496 0.809-0.655c0.316-0.16 0.678-0.238 1.081-0.238 0.364 0 0.678 0.062 0.935 0.185s0.49 0.297 0.694 0.521v-3.304h1.047v8.66h-0.622zM2.806 16.055c0.342 0 0.641-0.078 0.896-0.235 0.258-0.157 0.493-0.378 0.708-0.664v-2.881c-0.193-0.258-0.403-0.44-0.633-0.543s-0.484-0.157-0.762-0.157c-0.557 0-0.983 0.199-1.282 0.594-0.297 0.395-0.448 0.96-0.448 1.694 0 0.389 0.034 0.72 0.101 0.997s0.165 0.504 0.294 0.683c0.129 0.179 0.288 0.308 0.476 0.392s0.406 0.12 0.65 0.12z" opacity="1" visibility="false" fill="#000000"></path>
</svg>
