<?xml version="1.0" encoding="utf-8"?>
<!-- Generator: Adobe Illustrator 16.0.0, SVG Export Plug-In . SVG Version: 6.00 Build 0)  -->
<!DOCTYPE svg PUBLIC "-//W3C//DTD SVG 1.1//EN" "http://www.w3.org/Graphics/SVG/1.1/DTD/svg11.dtd">
<svg version="1.1" id="Capa_1" xmlns="http://www.w3.org/2000/svg" xmlns:xlink="http://www.w3.org/1999/xlink" x="0px" y="0px"
	 width="6.719px" height="28px" viewBox="0 0 6.719 28" enable-background="new 0 0 6.719 28" xml:space="preserve">
<g id="icomoon-ignore">
	<line fill="none" stroke="#449FDB" x1="3.359" y1="0" x2="3.359" y2="0"/>
</g>
<path d="M5.366,16.822c-0.147,0-0.244-0.073-0.283-0.219l-0.095-0.722c-0.255,0.312-0.546,0.558-0.874,0.745s-0.703,0.28-1.126,0.28
	c-0.342,0-0.65-0.064-0.93-0.196c-0.28-0.132-0.515-0.325-0.711-0.58S1,15.561,0.893,15.18c-0.106-0.382-0.16-0.819-0.16-1.311
	c0-0.44,0.059-0.848,0.176-1.226s0.288-0.706,0.51-0.986c0.222-0.28,0.49-0.496,0.809-0.655c0.316-0.16,0.678-0.238,1.081-0.238
	c0.365,0,0.678,0.062,0.935,0.185s0.49,0.297,0.693,0.521V8.166h1.048v8.66H5.363L5.366,16.822z M3.339,16.055
	c0.342,0,0.641-0.078,0.896-0.234c0.258-0.157,0.493-0.379,0.708-0.664v-2.881c-0.193-0.258-0.403-0.44-0.633-0.543
	c-0.23-0.103-0.484-0.157-0.762-0.157c-0.558,0-0.983,0.199-1.283,0.594c-0.297,0.395-0.448,0.96-0.448,1.694
	c0,0.389,0.034,0.72,0.101,0.997c0.067,0.277,0.165,0.505,0.294,0.684c0.129,0.18,0.288,0.309,0.476,0.393
	C2.877,16.02,3.095,16.055,3.339,16.055z"/>
</svg>
