<?xml version="1.0" encoding="utf-8"?>
<!-- Generated by IcoMoon.io -->
<!DOCTYPE svg PUBLIC "-//W3C//DTD SVG 1.1//EN" "http://www.w3.org/Graphics/SVG/1.1/DTD/svg11.dtd">
<svg version="1.1" xmlns="http://www.w3.org/2000/svg" xmlns:xlink="http://www.w3.org/1999/xlink" width="32" height="32" viewBox="0 0 32 32">
<g>
	<line stroke-width="1" x1="" y1="" x2="" y2="" stroke="#449FDB" opacity=""></line>
</g>
	<path d="M27.792 4.163c0.47-1.757-2.39-2.442-3.571-2.723-1.814-0.432-3.683-0.627-5.542-0.73-3.667-0.202-7.514-0.112-11.098 0.781-1.126 0.282-3.424 0.838-3.421 2.349v24.32c0 0.858 0.832 1.395 1.523 1.715 0.758 0.352 1.578 0.573 2.394 0.752 1.837 0.406 3.722 0.592 5.6 0.678 2.006 0.096 4.022 0.070 6.026-0.086 1.699-0.134 3.411-0.349 5.056-0.8 1.069-0.291 3.085-0.854 3.082-2.259h-0.048v-23.997zM5.757 3.542c0.65-0.438 1.466-0.646 2.218-0.832 0.899-0.221 1.818-0.368 2.736-0.483 1.958-0.243 3.939-0.33 5.914-0.304 1.859 0.022 3.725 0.144 5.565 0.429 0.803 0.125 1.606 0.282 2.39 0.506 0.371 0.106 0.742 0.227 1.098 0.384 0.294 0.128 0.678 0.288 0.861 0.563 0.006 0.010 0.013 0.022 0.019 0.032v0 0h-0.045v0.067c-0.467 0.566-1.456 0.784-2.125 0.966-0.858 0.23-1.734 0.39-2.611 0.512-1.952 0.275-3.93 0.378-5.901 0.371-1.894-0.003-3.798-0.109-5.674-0.374-0.784-0.112-1.565-0.25-2.333-0.442-0.742-0.186-1.597-0.403-2.218-0.88-0.074-0.058-0.17-0.131-0.208-0.218v0l0.016-0.032c0.032-0.051 0.128-0.154 0.298-0.266 0.294-0.198-0.17 0.112 0 0zM26.243 28.458c-0.65 0.438-1.466 0.646-2.218 0.832-0.899 0.221-1.818 0.368-2.736 0.483-1.958 0.243-3.939 0.33-5.914 0.304-1.859-0.022-3.725-0.144-5.565-0.429-0.803-0.125-1.606-0.282-2.39-0.506-0.371-0.106-0.742-0.227-1.098-0.384-0.294-0.128-0.678-0.288-0.861-0.563-0.006-0.010-0.013-0.022-0.019-0.032l-0.003-0.010v-22.726c1.504 0.79 3.309 1.062 4.973 1.277 1.891 0.243 3.805 0.339 5.712 0.336 1.875-0.003 3.754-0.106 5.613-0.355 1.603-0.214 3.318-0.49 4.774-1.229v22.704h0.045l-0.016 0.032c-0.032 0.051-0.128 0.154-0.298 0.266-0.294 0.198 0.17-0.112 0 0z" fill="#000000"></path>
</svg>
