<?xml version="1.0" encoding="utf-8"?>
<!-- Generator: Adobe Illustrator 16.0.0, SVG Export Plug-In . SVG Version: 6.00 Build 0)  -->
<!DOCTYPE svg PUBLIC "-//W3C//DTD SVG 1.1 Tiny//EN" "http://www.w3.org/Graphics/SVG/1.1/DTD/svg11-tiny.dtd">
<svg version="1.1" baseProfile="tiny" id="Capa_1" xmlns="http://www.w3.org/2000/svg" xmlns:xlink="http://www.w3.org/1999/xlink"
	 x="0px" y="0px" width="100px" height="100px" viewBox="0 0 100 100" xml:space="preserve">
<g>
	<circle cx="50" cy="74" r="2"/>
	<path d="M83.5,42.27v-1.72c0-2.67-6.18-5.02-15.5-6.37V24c-0.01-3.31-2.69-5.99-6-6H38c-3.31,0.01-5.99,2.69-6,6v10.16
		c-9.42,1.34-15.67,3.7-15.67,6.39v1.72v12.46v1.72c0,0.92,0.39,1.76,0.94,2.41c0.48,0.58,1.09,1.06,1.79,1.51
		c1.24,0.78,2.8,1.43,4.68,2.03c2.31,0.73,5.11,1.35,8.26,1.84V76c0.01,3.31,2.69,5.99,6,6h24c3.31-0.01,5.99-2.69,6-6V64.2
		c1.8-0.28,3.48-0.61,5.01-0.97c2.97-0.71,5.41-1.54,7.22-2.54c0.91-0.51,1.67-1.06,2.26-1.74c0.59-0.67,1.02-1.54,1.01-2.5
		L83.5,42.27L83.5,42.27z M36,24c0-0.55,0.22-1.04,0.59-1.41C36.96,22.22,37.45,22,38,22h24c0.55,0,1.04,0.22,1.41,0.59
		C63.78,22.96,64,23.45,64,24v23.55c-0.65,0.08-1.32,0.15-2,0.22V26H38v21.77c-0.68-0.07-1.34-0.14-2-0.21V24z M26.79,60.14
		c-2.58-0.65-4.63-1.42-5.91-2.17c-0.64-0.37-1.08-0.74-1.31-1.02c-0.23-0.29-0.25-0.42-0.25-0.5v-10.1c1.18,0.7,2.62,1.3,4.33,1.85
		c5.37,1.7,13.34,2.82,22.47,3.08l2.49,5.98l-2.17,5.19C38.68,62.25,31.74,61.39,26.79,60.14z M64,76c0,0.55-0.22,1.04-0.59,1.41
		C63.04,77.78,62.55,78,62,78H38c-0.55,0-1.04-0.22-1.41-0.59C36.22,77.04,36,76.55,36,76V64.76c0.66,0.07,1.32,0.14,2,0.21V70h24
		v-5.05c0.68-0.06,1.34-0.13,2-0.21V76z M80.5,56.45c0,0.08-0.02,0.22-0.28,0.54c-0.23,0.26-0.63,0.6-1.2,0.94
		c-1,0.6-2.5,1.22-4.36,1.77c-5.19,1.55-13.21,2.62-22.29,2.78l2.18-5.22l-2.48-5.95c8.1-0.13,15.4-0.94,20.89-2.23
		c2.99-0.71,5.44-1.54,7.26-2.55c0.1-0.06,0.19-0.12,0.29-0.17V56.45z"/>
</g>
</svg>
