<?xml version="1.0" encoding="utf-8"?>
<!-- Generator: Adobe Illustrator 16.0.0, SVG Export Plug-In . SVG Version: 6.00 Build 0)  -->
<!DOCTYPE svg PUBLIC "-//W3C//DTD SVG 1.1 Tiny//EN" "http://www.w3.org/Graphics/SVG/1.1/DTD/svg11-tiny.dtd">
<svg version="1.1" baseProfile="tiny" id="Capa_1" xmlns="http://www.w3.org/2000/svg" xmlns:xlink="http://www.w3.org/1999/xlink"
	 x="0px" y="0px" width="100px" height="100px" viewBox="0 0 100 100" xml:space="preserve">
<g>
	<path d="M76,9H24c-3.31,0.01-5.99,2.69-6,6v70c0.01,3.31,2.69,5.99,6,6h52c3.31-0.01,5.99-2.69,6-6V15C81.99,11.69,79.31,9.01,76,9
		z M77.41,86.41C77.04,86.78,76.55,87,76,87H24c-0.55,0-1.04-0.22-1.41-0.59C22.22,86.04,22,85.55,22,85V15
		c0-0.55,0.22-1.04,0.59-1.41C22.96,13.22,23.45,13,24,13h52c0.55,0,1.04,0.22,1.41,0.59C77.78,13.96,78,14.45,78,15v70
		C78,85.55,77.78,86.04,77.41,86.41z"/>
	<rect x="24" y="17" width="52" height="62"/>
	<circle cx="50" cy="83" r="2"/>
</g>
</svg>
