<?xml version="1.0" encoding="utf-8"?>
<!-- Generated by IcoMoon.io -->
<!DOCTYPE svg PUBLIC "-//W3C//DTD SVG 1.1//EN" "http://www.w3.org/Graphics/SVG/1.1/DTD/svg11.dtd">
<svg version="1.1" xmlns="http://www.w3.org/2000/svg" xmlns:xlink="http://www.w3.org/1999/xlink" width="256" height="256" viewBox="0 0 256 256">
<g id="icomoon-ignore">
	<line stroke-width="1" x1="" y1="" x2="" y2="" stroke="#449FDB" opacity=""></line>
</g>
	<path d="M144.487 139.443h46.080v61.44h-46.080v-61.44z" fill="#000000"></path>
	<path d="M195.686 124.083h-51.2v10.24h51.2c1.408 0 2.662 0.563 3.609 1.511s1.511 2.202 1.511 3.609v61.44c0 1.408-0.563 2.662-1.511 3.609s-2.202 1.511-3.609 1.511h-51.865c-1.049 4.019-3.303 7.577-6.349 10.24h58.214c8.474-0.025 15.334-6.887 15.36-15.36v-61.44c-0.025-8.474-6.887-15.335-15.36-15.36z" fill="#000000"></path>
	<path d="M202.726 90.855c-3.507 3.328-6.938 6.605-7.885 7.475 0.205-3.353 0.333-6.579 0.333-9.651 0-10.983-1.28-20.326-3.635-28.288s-5.76-14.541-9.959-19.891c-6.042-7.706-14.387-12.493-23.322-15.309-8.96-2.816-18.585-3.763-27.673-3.763-7.987 0-15.513 0.742-21.837 1.639 0.793-0.998 3.763-4.71 6.784-8.499 3.533-4.403-2.048-10.777-2.048-10.777l-21.017 26.368 29.235 16.794c0 0 2.841-7.987-2.048-10.778-4.531-2.586-8.96-5.12-9.6-5.504 6.016-0.845 13.133-1.536 20.557-1.536 8.55 0 17.459 0.922 25.369 3.405 7.911 2.509 14.745 6.528 19.609 12.723 3.584 4.557 6.553 10.189 8.653 17.331 2.099 7.117 3.303 15.719 3.303 26.112 0 2.867-0.102 5.888-0.307 9.037-0.384-0.563-3.328-4.787-6.323-9.114-3.226-4.633-10.931-1.126-10.931-1.126l19.251 27.699 24.448-23.219c-0.025-0.025-6.861-5.017-10.957-1.127z" fill="#000000"></path>
	<path d="M121.114 53.171h-61.44c-8.474 0.026-15.334 6.886-15.36 15.36v133.12c0.026 8.474 6.886 15.334 15.36 15.36h61.44c8.473-0.025 15.335-6.887 15.36-15.36v-133.12c0-8.474-6.861-15.334-15.36-15.36zM124.723 205.261c-0.947 0.947-2.201 1.511-3.609 1.511h-61.44c-1.408 0-2.663-0.563-3.609-1.511s-1.511-2.202-1.511-3.609v-133.12c0-1.408 0.563-2.662 1.511-3.609s2.202-1.511 3.609-1.511h61.44c1.408 0 2.662 0.563 3.609 1.511s1.51 2.201 1.51 3.609v133.12c0 1.408-0.563 2.662-1.51 3.609z" fill="#000000"></path>
	<path d="M59.673 73.651h61.44v112.64h-61.44v-112.64z" fill="#000000"></path>
	<path d="M95.513 195.072c0 2.828-2.292 5.12-5.12 5.12s-5.12-2.292-5.12-5.12c0-2.828 2.292-5.12 5.12-5.12s5.12 2.292 5.12 5.12z" fill="#000000"></path>
</svg>
