<?xml version="1.0" encoding="utf-8"?>
<!-- Generator: Adobe Illustrator 16.0.0, SVG Export Plug-In . SVG Version: 6.00 Build 0)  -->
<!DOCTYPE svg PUBLIC "-//W3C//DTD SVG 1.1 Tiny//EN" "http://www.w3.org/Graphics/SVG/1.1/DTD/svg11-tiny.dtd">
<svg version="1.1" baseProfile="tiny" id="Capa_1" xmlns="http://www.w3.org/2000/svg" xmlns:xlink="http://www.w3.org/1999/xlink"
	 x="0px" y="0px" width="100px" height="100px" viewBox="0 0 100 100" xml:space="preserve">
<g>
	<path d="M84.32,60.15c0-2.04-0.99-3.86-2.44-5.08c-0.45-0.38-0.94-0.7-1.47-0.97c0.82-1.15,1.31-2.55,1.31-4.08
		c0-1.31-0.36-2.53-0.99-3.57l3.35-28.92c0.34-3.3-2.5-6.25-6.35-6.61l-1.84-0.17c2.99,0.82,5.11,3.28,4.97,6.07L79.4,44.82
		c-0.66-0.59-1.42-1.06-2.27-1.37l1.37-25.29c0.14-3.31-2.41-6.11-5.72-6.27l-1.58-0.07c2.59,0.66,4.51,3,4.52,5.81v25.47
		C75.38,43.04,75.05,43,74.7,43h-1.14V19.03c-0.01-3.31-2.69-5.99-6-6h-24c-3.31,0.01-5.99,2.69-6,6v7.81l-2.3,2.52V17.62
		c0.01-2.8,1.92-5.14,4.52-5.81l-1.58,0.07c-3.31,0.16-5.86,2.96-5.72,6.27l0.73,13.47L31.03,34l-0.92-17.17
		c-0.14-2.8,1.98-5.25,4.97-6.07l-1.84,0.17c-3.86,0.36-6.69,3.31-6.35,6.61l2.15,18.65L21,44.97V87l42.04,0.17
		c0.33,0.06,0.68,0.1,1.03,0.1h8.64c1.84,0,3.47-0.88,4.57-2.17c1.11-1.29,1.75-3,1.75-4.85c0-1.31-0.33-2.54-0.9-3.61
		c2.44-1.1,4.14-3.55,4.14-6.4c0-1.6-0.54-3.07-1.45-4.25c0.38-0.22,0.74-0.47,1.07-0.75C83.33,64.01,84.32,62.19,84.32,60.15z
		 M74.7,47c0.84,0,1.58,0.33,2.14,0.88c0.55,0.55,0.88,1.3,0.88,2.14c0,0.84-0.33,1.58-0.88,2.14c-0.55,0.55-1.3,0.88-2.14,0.88
		H64.66c-0.84,0-1.58-0.34-2.14-0.88c-0.55-0.55-0.88-1.3-0.88-2.14c0-0.84,0.33-1.58,0.88-2.14c0.55-0.55,1.3-0.88,2.14-0.88H74.7z
		 M67.57,17.03c0.55,0,1.04,0.22,1.41,0.59c0.37,0.37,0.59,0.86,0.59,1.41V43h-2V21.03H49.91c-0.83-1.49-1.52-2.42-1.55-2.48
		l-1.13-1.52H67.57z M41.57,19.03c0-0.55,0.22-1.04,0.59-1.41c0.37-0.37,0.86-0.59,1.41-0.59h2.96l-4.96,5.43V19.03z M58.32,83.14
		L25,83V46.53l21.45-23.48c0.2,0.36,0.41,0.75,0.62,1.18c0.95,1.94,1.83,4.51,1.82,6.9c0,0.95-0.13,1.88-0.43,2.76
		c-0.3,0.88-0.76,1.73-1.47,2.56c-1.96,2.27-3.51,4.12-4.75,5.79c-1.86,2.49-3,4.66-3.76,7.07c-0.56,1.8-0.8,2.75-0.88,4.42
		l-0.03,0.08v0.73c-0.02,0.8-0.02,1.77,0,3.03l0,0.06v13.43c0.01,3.31,2.69,5.99,6,6h14.88c-0.45,0.97-0.7,2.07-0.7,3.22
		C57.75,81.27,57.95,82.25,58.32,83.14z M58.76,73.03h-15.2c-0.55,0-1.04-0.22-1.41-0.59c-0.37-0.37-0.59-0.86-0.59-1.41V56.04
		c0.07-1.4,0.17-2.59,0.33-3.63c0.3-1.9,0.76-3.31,1.67-4.95v17.57h15.29l0.21,0.2c0.23,0.19,0.47,0.37,0.72,0.53
		c-1.01,1.21-1.61,2.77-1.61,4.48C58.17,71.23,58.39,72.17,58.76,73.03z M74.4,82.49c-0.54,0.53-1.16,0.77-1.8,0.78h-8.75
		c-0.62,0-1.22-0.24-1.75-0.78c-0.52-0.53-0.89-1.33-0.89-2.25c0-0.92,0.37-1.72,0.89-2.25c0.53-0.53,1.12-0.77,1.75-0.77l9.07,0.03
		c0.53,0.07,1.03,0.3,1.49,0.74c0.54,0.53,0.92,1.33,0.92,2.25C75.32,81.17,74.94,81.97,74.4,82.49z M77.37,72.37
		c-0.55,0.55-1.3,0.88-2.14,0.88l-10.35-0.03c-0.71-0.07-1.34-0.37-1.83-0.85c-0.55-0.55-0.88-1.3-0.88-2.14
		c0-0.84,0.33-1.58,0.88-2.14c0.55-0.55,1.3-0.88,2.14-0.88h10.04c0.84,0,1.58,0.33,2.14,0.88c0.55,0.55,0.88,1.3,0.88,2.14
		C78.26,71.08,77.92,71.82,77.37,72.37z M79.55,62.16c-0.52,0.59-1.3,1-2.19,1l-13.95,0.01c-0.84,0-1.57-0.41-2.06-1
		c-0.49-0.6-0.73-1.29-0.73-2.02c0-0.73,0.24-1.43,0.73-2.02c0.49-0.59,1.22-1,2.06-1l13.95-0.01c0.89,0,1.67,0.41,2.19,0.99
		c0.52,0.6,0.78,1.29,0.78,2.02C80.32,60.87,80.07,61.57,79.55,62.16z"/>
	<circle cx="55.57" cy="69.03" r="2"/>
</g>
</svg>
