<?xml version="1.0" encoding="utf-8"?>
<!-- Generator: Adobe Illustrator 16.0.0, SVG Export Plug-In . SVG Version: 6.00 Build 0)  -->
<!DOCTYPE svg PUBLIC "-//W3C//DTD SVG 1.1 Tiny//EN" "http://www.w3.org/Graphics/SVG/1.1/DTD/svg11-tiny.dtd">
<svg version="1.1" baseProfile="tiny" id="Capa_1" xmlns="http://www.w3.org/2000/svg" xmlns:xlink="http://www.w3.org/1999/xlink"
	 x="0px" y="0px" width="100px" height="100px" viewBox="0 0 100 100" xml:space="preserve">
<g>
	<path d="M68,76V24c-0.01-3.31-2.69-5.99-6-6H38c-3.31,0.01-5.99,2.69-6,6v52c0.01,3.31,2.69,5.99,6,6h24
		C65.31,81.99,67.99,79.31,68,76z M36.59,77.41C36.22,77.04,36,76.55,36,76V24c0-0.55,0.22-1.04,0.59-1.41
		C36.96,22.22,37.45,22,38,22h24c0.55,0,1.04,0.22,1.41,0.59C63.78,22.96,64,23.45,64,24v52c0,0.55-0.22,1.04-0.59,1.41
		C63.04,77.78,62.55,78,62,78H38C37.45,78,36.96,77.78,36.59,77.41z"/>
	<rect x="38" y="26" width="24" height="44"/>
	<circle cx="50" cy="74" r="2"/>
	<path d="M36.86,16.55h15.33c0.55,0,1-0.45,1-1s-0.45-1-1-1H36.86h0c-4.74,0.01-8.57,3.84-8.58,8.58v0.01v30.71c0,0.55,0.45,1,1,1
		s1-0.45,1-1V23.13C30.29,19.5,33.22,16.56,36.86,16.55z"/>
	<path d="M71.72,76.87L71.72,76.87V46.15c0-0.55-0.45-1-1-1s-1,0.45-1,1v30.72c-0.01,3.64-2.95,6.58-6.58,6.59H47.81
		c-0.55,0-1,0.45-1,1s0.45,1,1,1h15.33C67.88,85.44,71.71,81.61,71.72,76.87z"/>
	<path d="M35.79,12.73h10.71c0.55,0,1-0.45,1-1s-0.45-1-1-1H35.78h0c-6.31,0.01-11.41,5.12-11.42,11.42v0.01v26.67
		c0,0.55,0.45,1,1,1s1-0.45,1-1V22.16C26.37,16.95,30.58,12.74,35.79,12.73z"/>
	<path d="M74.64,50.17c-0.55,0-1,0.45-1,1v26.68c-0.01,5.21-4.22,9.42-9.43,9.43H53.51c-0.55,0-1,0.45-1,1s0.45,1,1,1h10.71
		c6.31-0.01,11.41-5.12,11.42-11.42v0V51.17C75.64,50.62,75.2,50.17,74.64,50.17z"/>
</g>
</svg>
