<?xml version="1.0" encoding="utf-8"?>
<!-- Generator: Adobe Illustrator 16.0.0, SVG Export Plug-In . SVG Version: 6.00 Build 0)  -->
<!DOCTYPE svg PUBLIC "-//W3C//DTD SVG 1.1 Tiny//EN" "http://www.w3.org/Graphics/SVG/1.1/DTD/svg11-tiny.dtd">
<svg version="1.1" baseProfile="tiny" id="Capa_1" xmlns="http://www.w3.org/2000/svg" xmlns:xlink="http://www.w3.org/1999/xlink"
	 x="0px" y="0px" width="100px" height="100px" viewBox="0 0 100 100" xml:space="preserve">
<g>
	<path d="M92,2H8C4.69,2.01,2.01,4.69,2,8v70c0.01,3.31,2.69,5.99,6,6h25.77v12H28c-1.1,0-2,0.9-2,2s0.9,2,2,2h5.77h32.47H72
		c1.1,0,2-0.9,2-2s-0.9-2-2-2h-5.77V84H92c3.31-0.01,5.99-2.69,6-6V8C97.99,4.69,95.31,2.01,92,2z M62.23,96H37.77V84h24.47V96z
		 M93.41,79.41C93.04,79.78,92.55,80,92,80H66.23H33.77H8c-0.55,0-1.04-0.22-1.41-0.59C6.22,79.04,6,78.55,6,78V8
		c0-0.55,0.22-1.04,0.59-1.41C6.96,6.22,7.45,6,8,6h84c0.55,0,1.04,0.22,1.41,0.59C93.78,6.96,94,7.45,94,8v70
		C94,78.55,93.78,79.04,93.41,79.41z"/>
	<rect x="8.27" y="8" width="83.73" height="64"/>
</g>
</svg>
