<?xml version="1.0" encoding="utf-8"?>
<!-- Generator: Adobe Illustrator 16.0.0, SVG Export Plug-In . SVG Version: 6.00 Build 0)  -->
<!DOCTYPE svg PUBLIC "-//W3C//DTD SVG 1.1 Tiny//EN" "http://www.w3.org/Graphics/SVG/1.1/DTD/svg11-tiny.dtd">
<svg version="1.1" baseProfile="tiny" id="Capa_1" xmlns="http://www.w3.org/2000/svg" xmlns:xlink="http://www.w3.org/1999/xlink"
	 x="0px" y="0px" width="100px" height="100px" viewBox="0 0 100 100" xml:space="preserve">
<g>
	<path d="M62,18H38c-3.31,0.01-5.99,2.69-6,6v52c0.01,3.31,2.69,5.99,6,6h24c3.31-0.01,5.99-2.69,6-6V24
		C67.99,20.69,65.31,18.01,62,18z M63.41,77.41C63.04,77.78,62.55,78,62,78H38c-0.55,0-1.04-0.22-1.41-0.59
		C36.22,77.04,36,76.55,36,76V24c0-0.55,0.22-1.04,0.59-1.41C36.96,22.22,37.45,22,38,22h24c0.55,0,1.04,0.22,1.41,0.59
		C63.78,22.96,64,23.45,64,24v52C64,76.55,63.78,77.04,63.41,77.41z"/>
	<rect x="38" y="26" width="24" height="44"/>
	<circle cx="50" cy="74" r="2"/>
</g>
</svg>
