<?xml version="1.0" encoding="utf-8"?>
<!-- Generator: Adobe Illustrator 16.0.0, SVG Export Plug-In . SVG Version: 6.00 Build 0)  -->
<!DOCTYPE svg PUBLIC "-//W3C//DTD SVG 1.1 Tiny//EN" "http://www.w3.org/Graphics/SVG/1.1/DTD/svg11-tiny.dtd">
<svg version="1.1" baseProfile="tiny" id="Capa_1" xmlns="http://www.w3.org/2000/svg" xmlns:xlink="http://www.w3.org/1999/xlink"
	 x="0px" y="0px" width="100px" height="100px" viewBox="0 0 100 100" xml:space="preserve">
<g>
	<rect x="56" y="52" fill="#010202" width="18" height="24"/>
	<path fill="#010202" d="M54,24c-0.01-3.31-2.69-5.99-6-6H24c-3.31,0.01-5.99,2.69-6,6v52c0.01,3.31,2.69,5.99,6,6h24
		c3.31-0.01,5.99-2.69,6-6V24z M50,76c0,0.55-0.22,1.04-0.59,1.41C49.04,77.78,48.55,78,48,78H24c-0.55,0-1.04-0.22-1.41-0.59
		C22.22,77.04,22,76.55,22,76V24c0-0.55,0.22-1.04,0.59-1.41C22.96,22.22,23.45,22,24,22h24c0.55,0,1.04,0.22,1.41,0.59
		C49.78,22.96,50,23.45,50,24V76z"/>
	<path fill="#010202" d="M76,46H56v4h20c0.55,0,1.04,0.22,1.41,0.59C77.78,50.96,78,51.45,78,52v24c0,0.55-0.22,1.04-0.59,1.41
		C77.04,77.78,76.55,78,76,78H56h-0.26c-0.41,1.57-1.29,2.96-2.48,4H76c3.31-0.01,5.99-2.69,6-6V52C81.99,48.69,79.31,46.01,76,46z"
		/>
	<rect x="24" y="26" fill="#010202" width="24" height="44"/>
	<circle fill="#010202" cx="36" cy="74" r="2"/>
	<path fill="#010202" d="M63,20.92c-0.3-0.26-0.66-0.53-1.03-0.81c3.11,0.18,5.75,0.67,7.91,1.47c1.79,0.66,3.26,1.52,4.48,2.56
		c1.83,1.56,3.13,3.55,3.99,6.13c0.75,2.27,1.13,5.01,1.12,8.2c-0.2-0.28-0.4-0.55-0.59-0.78c-1.37-1.66-4.13-0.2-4.13-0.2
		l6.62,8.15l7.37-7.47c0,0-2.61-1.72-4.12-0.2c-0.35,0.36-0.75,0.79-1.16,1.22c0.06-3.35-0.23-6.39-0.98-9.1
		c-0.6-2.18-1.49-4.16-2.69-5.89c-1.8-2.6-4.33-4.61-7.45-5.95c-2.96-1.27-6.45-1.97-10.49-2.17c0.35-0.32,0.7-0.63,0.99-0.91
		c1.55-1.49-0.12-4.13-0.12-4.13l-7.61,7.23l8.03,6.76C63.12,25.05,64.63,22.32,63,20.92z"/>
</g>
</svg>
