<?xml version="1.0" encoding="utf-8"?>
<!-- Generated by IcoMoon.io -->
<!DOCTYPE svg PUBLIC "-//W3C//DTD SVG 1.1//EN" "http://www.w3.org/Graphics/SVG/1.1/DTD/svg11.dtd">
<svg version="1.1" xmlns="http://www.w3.org/2000/svg" xmlns:xlink="http://www.w3.org/1999/xlink" width="32" height="32" viewBox="0 0 32 32">
<g>
	<line stroke-width="1" x1="" y1="" x2="" y2="" stroke="#449FDB" opacity=""></line>
</g>
	<path d="M25.504 25.504c0.003-0.006 0.010-0.010 0.013-0.016-0.010 0.010-0.019 0.019-0.029 0.029 0.003-0.003 0.010-0.006 0.016-0.013z" fill="#000000"></path>
	<path d="M31.040 28.16l-4.413-2.006c1.174-1.219 2.15-2.64 2.851-4.23 2.358-5.36 1.238-11.782-2.778-16.032-2.762-2.922-6.666-4.608-10.688-4.611 2.029 0 4.042 0-0.013 0-4.051 0-2.045 0-0.019 0-5.773 0.010-11.133 3.51-13.459 8.797-1.232 2.8-1.555 5.968-0.928 8.96 0.672 3.19 2.429 6.106 4.918 8.208l0.074 0.061-6.688 3.414h16.102c2.979 0 5.85-0.931 8.25-2.56h6.79zM23.581 26.173l2.387 0.918-10.246-0.221c-2.762-0.096-5.347-1.261-7.274-3.283-1.939-2.032-3.008-4.714-3.008-7.546 0-5.978 4.778-10.838 10.646-10.838s10.646 4.861 10.646 10.838c0 3.050-1.274 5.978-3.494 8.029l-1.414 1.309 1.757 0.794zM16 29.44l-11.469 0.163 4.464-2.090-0.848-0.614c-2.586-1.869-4.464-4.64-5.21-7.744-0.797-3.283-0.307-6.822 1.357-9.766 1.629-2.877 4.317-5.098 7.456-6.144 3.254-1.082 6.88-0.87 9.981 0.595 2.986 1.411 5.395 3.926 6.672 6.976 1.325 3.162 1.376 6.8 0.147 10-0.672 1.747-1.712 3.347-3.034 4.675 0.605-0.605 1.194-1.194-0.013 0.016-0.035 0.035-0.064 0.064-0.096 0.096v0c0.026-0.026 0.051-0.051 0.080-0.080-0.026 0.026-0.054 0.051-0.083 0.077l-1.293-0.589c2.4-2.218 3.904-5.414 3.904-8.966 0-6.694-5.341-12.118-11.926-12.118-6.589-0.006-11.93 5.421-11.93 12.115 0 6.554 5.12 11.888 11.517 12.109v0.010h6.035c-1.734 0.816-3.667 1.28-5.712 1.28z" fill="#000000"></path>
</svg>
