<?xml version="1.0" encoding="utf-8"?>
<!-- Generated by IcoMoon.io -->
<!DOCTYPE svg PUBLIC "-//W3C//DTD SVG 1.1//EN" "http://www.w3.org/Graphics/SVG/1.1/DTD/svg11.dtd">
<svg version="1.1" xmlns="http://www.w3.org/2000/svg" xmlns:xlink="http://www.w3.org/1999/xlink" width="32" height="32" viewBox="0 0 32 32">
<g id="icomoon-ignore">
	<line stroke-width="1" x1="" y1="" x2="" y2="" stroke="#449FDB" opacity=""></line>
</g>
	<path d="M18.72 23.36l3.606-3.613c0 0-1.203-0.602-1.802 0-0.31 0.31-0.781 0.781-1.165 1.165l-0.003-6.512c-0.205 0.038-0.416 0.061-0.634 0.061s-0.429-0.022-0.634-0.061l-0.010 6.515c-0.384-0.384-0.854-0.854-1.165-1.165-0.243-0.243-0.586-0.288-0.909-0.256-0.326-0.035-0.675 0.010-0.922 0.256-0.31 0.31-0.781 0.781-1.165 1.165l-0.003-6.515c-0.205 0.038-0.416 0.061-0.634 0.061s-0.429-0.022-0.634-0.061l-0.010 6.515c-0.384-0.384-0.854-0.854-1.165-1.165-0.602-0.602-1.805 0-1.805 0l3.61 3.61 2.72-2.72 2.72 2.72z" opacity="1" visibility="false" fill="#000000"></path>
	<path d="M21.28 11.2c0 1.414-1.146 2.56-2.56 2.56s-2.56-1.146-2.56-2.56c0-1.414 1.146-2.56 2.56-2.56s2.56 1.146 2.56 2.56z" opacity="1" visibility="false" fill="#000000"></path>
	<path d="M15.84 11.2c0 1.414-1.146 2.56-2.56 2.56s-2.56-1.146-2.56-2.56c0-1.414 1.146-2.56 2.56-2.56s2.56 1.146 2.56 2.56z" opacity="1" visibility="false" fill="#000000"></path>
</svg>
