<?xml version="1.0" encoding="utf-8"?>
<!-- Generated by IcoMoon.io -->
<!DOCTYPE svg PUBLIC "-//W3C//DTD SVG 1.1//EN" "http://www.w3.org/Graphics/SVG/1.1/DTD/svg11.dtd">
<svg version="1.1" xmlns="http://www.w3.org/2000/svg" xmlns:xlink="http://www.w3.org/1999/xlink" width="32" height="32" viewBox="0 0 32 32">
<g id="icomoon-ignore">
	<line stroke-width="1" x1="" y1="" x2="" y2="" stroke="#449FDB" opacity=""></line>
</g>
	<path d="M18.56 10.88c0 1.414-1.146 2.56-2.56 2.56s-2.56-1.146-2.56-2.56c0-1.414 1.146-2.56 2.56-2.56s2.56 1.146 2.56 2.56z" opacity="1" visibility="false" fill="#000000"></path>
	<path d="M17.92 19.84c-0.64 0.64-1.28 1.28-1.28 1.28v-7.091c-0.208 0.029-0.422 0.051-0.64 0.051s-0.432-0.022-0.64-0.051v7.091c0 0-0.64-0.64-1.28-1.28s-1.92 0-1.92 0l3.84 3.84 3.84-3.84c0 0-1.28-0.64-1.92 0z" opacity="1" visibility="false" fill="#000000"></path>
</svg>
