<?xml version="1.0" encoding="utf-8"?>
<!-- Generator: Adobe Illustrator 16.0.0, SVG Export Plug-In . SVG Version: 6.00 Build 0)  -->
<!DOCTYPE svg PUBLIC "-//W3C//DTD SVG 1.1//EN" "http://www.w3.org/Graphics/SVG/1.1/DTD/svg11.dtd">
<svg version="1.1" id="Capa_1" xmlns="http://www.w3.org/2000/svg" xmlns:xlink="http://www.w3.org/1999/xlink" x="0px" y="0px"
	 width="6.531px" height="28px" viewBox="0 0 6.531 28" enable-background="new 0 0 6.531 28" xml:space="preserve">
<g id="icomoon-ignore">
	<line fill="none" stroke="#449FDB" x1="3.266" y1="0" x2="3.266" y2="0"/>
</g>
<path d="M3.423,10.772c0.356,0,0.686,0.059,0.988,0.179c0.303,0.12,0.563,0.291,0.781,0.518c0.219,0.224,0.393,0.504,0.516,0.834
	c0.123,0.33,0.185,0.708,0.185,1.131c0,0.165-0.017,0.274-0.054,0.33c-0.035,0.056-0.101,0.081-0.198,0.081H1.675
	c0.008,0.375,0.059,0.703,0.154,0.983c0.095,0.279,0.224,0.51,0.389,0.697c0.165,0.188,0.361,0.324,0.588,0.416
	c0.227,0.093,0.482,0.138,0.764,0.138c0.263,0,0.49-0.031,0.679-0.093c0.189-0.062,0.353-0.125,0.489-0.195
	c0.138-0.07,0.253-0.137,0.345-0.196c0.092-0.062,0.17-0.092,0.237-0.092c0.087,0,0.151,0.034,0.199,0.101l0.294,0.381
	c-0.129,0.158-0.286,0.295-0.465,0.41c-0.18,0.114-0.372,0.209-0.58,0.285s-0.42,0.133-0.639,0.168
	c-0.221,0.036-0.437,0.057-0.651,0.057c-0.412,0-0.79-0.07-1.137-0.211c-0.347-0.139-0.647-0.344-0.899-0.609
	c-0.252-0.27-0.451-0.602-0.591-0.997s-0.213-0.851-0.213-1.364c0-0.414,0.064-0.804,0.19-1.165s0.311-0.675,0.549-0.938
	c0.238-0.266,0.532-0.473,0.876-0.624c0.347-0.148,0.736-0.224,1.168-0.224H3.423z M3.445,11.542c-0.507,0-0.904,0.146-1.193,0.437
	c-0.291,0.291-0.47,0.697-0.54,1.215h3.24c0-0.244-0.033-0.465-0.101-0.666c-0.067-0.201-0.165-0.375-0.294-0.524
	c-0.129-0.146-0.288-0.26-0.473-0.342C3.896,11.581,3.685,11.542,3.445,11.542L3.445,11.542z"/>
</svg>
