<?xml version="1.0" encoding="utf-8"?>
<!-- Generated by IcoMoon.io -->
<!DOCTYPE svg PUBLIC "-//W3C//DTD SVG 1.1//EN" "http://www.w3.org/Graphics/SVG/1.1/DTD/svg11.dtd">
<svg version="1.1" xmlns="http://www.w3.org/2000/svg" xmlns:xlink="http://www.w3.org/1999/xlink" width="6" height="28" viewBox="0 0 6 28">
<g id="icomoon-ignore">
	<line stroke-width="1" x1="" y1="" x2="" y2="" stroke="#449FDB" opacity=""></line>
</g>
	<path d="M3.237 10.772c0.356 0 0.686 0.059 0.988 0.179s0.563 0.291 0.781 0.518c0.218 0.224 0.392 0.504 0.515 0.834s0.185 0.708 0.185 1.131c0 0.165-0.017 0.274-0.053 0.33s-0.101 0.081-0.199 0.081h-3.965c0.008 0.375 0.059 0.703 0.154 0.983s0.224 0.51 0.389 0.697c0.165 0.188 0.361 0.325 0.588 0.417s0.482 0.137 0.764 0.137c0.263 0 0.49-0.031 0.678-0.092 0.19-0.062 0.353-0.126 0.49-0.196s0.252-0.137 0.344-0.196c0.092-0.062 0.171-0.092 0.238-0.092 0.087 0 0.151 0.034 0.199 0.101l0.294 0.381c-0.129 0.157-0.286 0.294-0.465 0.409s-0.372 0.21-0.58 0.286-0.42 0.132-0.638 0.168c-0.221 0.036-0.437 0.056-0.652 0.056-0.412 0-0.79-0.070-1.137-0.21s-0.647-0.344-0.899-0.61c-0.252-0.269-0.451-0.602-0.591-0.997s-0.213-0.851-0.213-1.364c0-0.414 0.064-0.804 0.19-1.165s0.311-0.675 0.549-0.938c0.238-0.266 0.532-0.473 0.876-0.624 0.347-0.148 0.736-0.224 1.168-0.224zM3.259 11.542c-0.507 0-0.904 0.146-1.193 0.437-0.291 0.291-0.47 0.697-0.54 1.215h3.24c0-0.244-0.034-0.465-0.101-0.666s-0.165-0.375-0.294-0.524c-0.129-0.146-0.288-0.26-0.473-0.342-0.188-0.081-0.4-0.12-0.638-0.12z" opacity="1" visibility="false" fill="#000000"></path>
</svg>
