<?xml version="1.0" encoding="utf-8"?>
<!-- Generator: Adobe Illustrator 16.0.0, SVG Export Plug-In . SVG Version: 6.00 Build 0)  -->
<!DOCTYPE svg PUBLIC "-//W3C//DTD SVG 1.1//EN" "http://www.w3.org/Graphics/SVG/1.1/DTD/svg11.dtd">
<svg version="1.1" id="Capa_1" xmlns="http://www.w3.org/2000/svg" xmlns:xlink="http://www.w3.org/1999/xlink" x="0px" y="0px"
	 width="4.729px" height="28px" viewBox="0 0 4.729 28" enable-background="new 0 0 4.729 28" xml:space="preserve">
<g id="icomoon-ignore">
	<line fill="none" stroke="#449FDB" x1="2.365" y1="0" x2="2.365" y2="0"/>
</g>
<path d="M1.438,16.8v-5.062L0.78,11.662c-0.081-0.02-0.15-0.05-0.201-0.092c-0.054-0.042-0.078-0.101-0.078-0.179v-0.428h0.94
	v-0.577c0-0.342,0.048-0.644,0.144-0.907C1.68,9.213,1.816,8.992,1.997,8.81c0.18-0.182,0.392-0.319,0.644-0.414
	s0.532-0.14,0.846-0.14c0.267,0,0.513,0.039,0.742,0.118L4.206,8.898c-0.002,0.078-0.035,0.126-0.101,0.14
	C4.044,9.055,3.954,9.06,3.843,9.06H3.661c-0.18,0-0.345,0.022-0.49,0.07C3.024,9.178,2.896,9.253,2.792,9.36
	C2.687,9.466,2.604,9.606,2.549,9.777c-0.056,0.174-0.084,0.386-0.084,0.641v0.546h1.722v0.759H2.493v5.079H1.439L1.438,16.8z"/>
</svg>
