<?xml version="1.0" encoding="utf-8"?>
<!-- Generated by IcoMoon.io -->
<!DOCTYPE svg PUBLIC "-//W3C//DTD SVG 1.1//EN" "http://www.w3.org/Graphics/SVG/1.1/DTD/svg11.dtd">
<svg version="1.1" xmlns="http://www.w3.org/2000/svg" xmlns:xlink="http://www.w3.org/1999/xlink" width="4" height="28" viewBox="0 0 4 28">
<g id="icomoon-ignore">
	<line stroke-width="1" x1="" y1="" x2="" y2="" stroke="#449FDB" opacity=""></line>
</g>
	<path d="M1.291 16.8v-5.062l-0.658-0.076c-0.081-0.020-0.151-0.050-0.202-0.092-0.053-0.042-0.078-0.101-0.078-0.179v-0.428h0.941v-0.577c0-0.342 0.048-0.644 0.143-0.907 0.095-0.266 0.232-0.487 0.412-0.669s0.392-0.319 0.644-0.414 0.532-0.14 0.846-0.14c0.266 0 0.512 0.039 0.742 0.118l-0.022 0.524c-0.003 0.078-0.036 0.126-0.101 0.14-0.062 0.017-0.151 0.022-0.263 0.022h-0.182c-0.179 0-0.344 0.022-0.49 0.070s-0.274 0.123-0.378 0.23c-0.106 0.106-0.188 0.246-0.244 0.417-0.056 0.174-0.084 0.386-0.084 0.641v0.546h1.722v0.759h-1.694v5.079h-1.053z" opacity="1" visibility="false" fill="#000000"></path>
</svg>
