<?xml version="1.0" encoding="utf-8"?>
<!-- Generator: Adobe Illustrator 16.0.0, SVG Export Plug-In . SVG Version: 6.00 Build 0)  -->
<!DOCTYPE svg PUBLIC "-//W3C//DTD SVG 1.1 Tiny//EN" "http://www.w3.org/Graphics/SVG/1.1/DTD/svg11-tiny.dtd">
<svg version="1.1" baseProfile="tiny" id="Capa_1" xmlns="http://www.w3.org/2000/svg" xmlns:xlink="http://www.w3.org/1999/xlink"
	 x="0px" y="0px" width="100px" height="100px" viewBox="0 0 100 100" xml:space="preserve">
<g>
	<circle cx="30" cy="35" r="4"/>
	<path d="M70,21H30c-7.73,0-14,6.27-14,14s6.27,14,14,14h40c7.73,0,14-6.27,14-14S77.73,21,70,21z M30,45c-5.52,0-10-4.48-10-10
		s4.48-10,10-10s10,4.48,10,10S35.52,45,30,45z M70,45c-5.52,0-10-4.48-10-10s4.48-10,10-10s10,4.48,10,10S75.52,45,70,45z"/>
	<circle cx="70" cy="35" r="4"/>
	<path d="M68,66H32c-4.96,0-9,4.04-9,9s4.04,9,9,9h36c4.96,0,9-4.04,9-9S72.96,66,68,66z M29,80.19c-1.52-0.88-2.61-2.4-2.91-4.19
		H29V80.19z M29,74h-2.91c0.3-1.79,1.39-3.31,2.91-4.19V74z M37,81h-5c-0.34,0-0.67-0.04-1-0.09V76h6V81z M37,74h-6v-4.91
		c0.33-0.05,0.66-0.09,1-0.09h5V74z M45,81h-6v-5h6V81z M45,74h-6v-5h6V74z M53,81h-6v-5h6V81z M53,74h-6v-5h6V74z M61,81h-6v-5h6
		V81z M61,74h-6v-5h6V74z M69,80.91C68.67,80.96,68.34,81,68,81h-5v-5h6V80.91z M69,74h-6v-5h5c0.34,0,0.67,0.04,1,0.09V74z
		 M71,80.19V76h2.91C73.61,77.79,72.52,79.31,71,80.19z M71,74v-4.19c1.52,0.88,2.61,2.4,2.91,4.19H71z"/>
</g>
</svg>
