<?xml version="1.0" encoding="utf-8"?>
<!-- Generated by IcoMoon.io -->
<!DOCTYPE svg PUBLIC "-//W3C//DTD SVG 1.1//EN" "http://www.w3.org/Graphics/SVG/1.1/DTD/svg11.dtd">
<svg version="1.1" xmlns="http://www.w3.org/2000/svg" xmlns:xlink="http://www.w3.org/1999/xlink" width="32" height="32" viewBox="0 0 32 32">
<g id="icomoon-ignore">
	<line stroke-width="1" x1="" y1="" x2="" y2="" stroke="#449FDB" opacity=""></line>
</g>
	<path d="M24.384 9.514c-0.566-0.384-1.261-0.554-1.958-0.554-0.71 0-1.421 0.17-1.997 0.57-0.576 0.397-1.002 1.040-1.114 1.891l0.634 0.086c0.096-0.691 0.406-1.142 0.845-1.453 0.438-0.307 1.021-0.458 1.632-0.454 0.592 0 1.165 0.147 1.6 0.445s0.742 0.726 0.845 1.36l0.634-0.099c-0.125-0.8-0.554-1.411-1.12-1.792z" fill="#000000"></path>
	<path d="M27.808 7.968c-0.134-0.205-0.314-0.515-0.557-0.858-0.365-0.512-0.886-1.104-1.674-1.555-0.784-0.454-1.824-0.755-3.178-0.755v0h-0.013c-0.448 0-0.845 0.058-1.2 0.163-0.63 0.182-1.11 0.528-1.469 0.899-0.269 0.278-0.48 0.57-0.666 0.838-0.278 0.403-0.515 0.742-0.768 0.954-0.128 0.106-0.256 0.189-0.413 0.246s-0.346 0.099-0.595 0.102l0.016 1.28c0.387-0.003 0.736-0.070 1.046-0.189 0.544-0.208 0.934-0.573 1.232-0.931 0.224-0.272 0.406-0.547 0.582-0.8 0.266-0.378 0.518-0.691 0.842-0.909 0.16-0.109 0.342-0.198 0.57-0.266 0.221-0.067 0.493-0.109 0.835-0.109v0 0c0.89 0 1.562 0.147 2.086 0.362 0.787 0.323 1.264 0.803 1.632 1.29 0.182 0.243 0.333 0.486 0.477 0.717 0.147 0.23 0.272 0.442 0.47 0.646l0.906-0.906c-0.022-0.026-0.086-0.106-0.163-0.221z" fill="#000000"></path>
	<path d="M23.354 11.062c0 0.5-0.405 0.906-0.906 0.906s-0.906-0.405-0.906-0.906c0-0.5 0.405-0.906 0.906-0.906s0.906 0.405 0.906 0.906z" fill="#000000"></path>
	<path d="M13.789 19.846c0.234 0.4 0.598 0.669 0.982 0.838 0.387 0.17 0.81 0.243 1.229 0.243 0.56-0.003 1.123-0.131 1.6-0.448 0.237-0.16 0.454-0.368 0.608-0.634 0.157-0.266 0.243-0.586 0.243-0.918h-1.28c0 0.122-0.026 0.198-0.067 0.272-0.064 0.109-0.189 0.224-0.387 0.31-0.195 0.086-0.454 0.138-0.717 0.138-0.349 0.003-0.691-0.093-0.893-0.234-0.102-0.067-0.17-0.141-0.214-0.214-0.042-0.074-0.067-0.154-0.067-0.272h-1.28c0 0.336 0.090 0.653 0.243 0.918z" fill="#000000"></path>
	<path d="M9.6 9.28c2.198 0 3.84 0 5.12 0v-1.28c-1.28 0-2.922 0-5.12 0-0.56 0-1.107-0.013-1.632-0.013-0.826 0-1.606 0.026-2.339 0.198-0.365 0.086-0.72 0.211-1.053 0.39s-0.643 0.419-0.912 0.717l0.95 0.858c0.17-0.189 0.355-0.333 0.57-0.448 0.32-0.173 0.71-0.285 1.178-0.352s1.008-0.083 1.603-0.083c0.509 0 1.056 0.013 1.635 0.013z" fill="#000000"></path>
	<path d="M10.227 10.464c0.89 0.15 1.539 0.595 1.862 1.162l0.557-0.317c-0.538-0.938-1.661-1.542-3.072-1.542-1.376 0-2.48 0.576-3.034 1.478l0.547 0.333c0.323-0.534 0.944-0.95 1.782-1.104-0.138 0.16-0.224 0.365-0.224 0.592 0 0.499 0.406 0.906 0.906 0.906 0.502 0 0.906-0.406 0.906-0.906 0.003-0.234-0.086-0.442-0.23-0.602z" fill="#000000"></path>
	<path d="M21.005 22.893c-0.534 0.134-1.056 0.176-1.549 0.176-0.419 0-0.816-0.032-1.181-0.064-0.368-0.032-0.698-0.067-1.005-0.067-0.026 0-0.163-0.006-0.342-0.016-0.182-0.010-0.416-0.016-0.694-0.016-0.688 0-1.626 0.051-2.63 0.282-1.005 0.234-2.077 0.65-3.018 1.395-0.208 0.163-0.243 0.467-0.077 0.675 0.163 0.208 0.467 0.243 0.675 0.077 0.797-0.63 1.734-1.002 2.64-1.213s1.773-0.259 2.413-0.259c0.259 0 0.477 0.006 0.65 0.016 0.176 0.006 0.288 0.016 0.384 0.016 0.23 0 0.547 0.032 0.922 0.064 0.371 0.032 0.8 0.067 1.267 0.067 0.547 0 1.152-0.048 1.782-0.205 0.256-0.064 0.413-0.323 0.349-0.582-0.070-0.253-0.33-0.41-0.586-0.346z" fill="#000000"></path>
</svg>
