<?xml version="1.0" encoding="utf-8"?>
<!-- Generated by IcoMoon.io -->
<!DOCTYPE svg PUBLIC "-//W3C//DTD SVG 1.1//EN" "http://www.w3.org/Graphics/SVG/1.1/DTD/svg11.dtd">
<svg version="1.1" xmlns="http://www.w3.org/2000/svg" xmlns:xlink="http://www.w3.org/1999/xlink" width="32" height="32" viewBox="0 0 32 32">
<g id="icomoon-ignore">
	<line stroke-width="1" x1="" y1="" x2="" y2="" stroke="#449FDB" opacity=""></line>
</g>
	<path d="M13.93 19.453c-0.141 0.24-0.221 0.531-0.221 0.838h0.96c0-0.147 0.035-0.253 0.090-0.352 0.083-0.147 0.24-0.278 0.464-0.374 0.221-0.096 0.499-0.15 0.781-0.15 0.374 0 0.746 0.099 0.979 0.259 0.118 0.080 0.205 0.17 0.262 0.269s0.090 0.208 0.090 0.352h0.96c0-0.307-0.080-0.595-0.221-0.838-0.214-0.365-0.547-0.614-0.909-0.771-0.365-0.157-0.765-0.23-1.165-0.23-0.531 0.003-1.069 0.128-1.514 0.419-0.221 0.144-0.416 0.336-0.557 0.579z" fill="#000000"></path>
	<path d="M9.552 8.243h0.013c0.224 0 0.445 0 0.662 0 0.944 0 1.818-0.013 2.653-0.186 0.832-0.173 1.629-0.534 2.294-1.206l-0.906-0.906c-0.48 0.477-0.992 0.717-1.654 0.858-0.659 0.141-1.456 0.16-2.387 0.16-0.214 0-0.435 0-0.662 0h-0.013c-2.506 0-4.586 0.886-5.888 2.33l0.95 0.854c1.014-1.126 2.726-1.904 4.938-1.904v0z" fill="#000000"></path>
	<path d="M22.448 6.963v0h-0.016c-0.227 0-0.448 0-0.662 0-0.931 0-1.728-0.019-2.387-0.16-0.659-0.144-1.174-0.384-1.654-0.858l-0.906 0.906c0.666 0.669 1.462 1.034 2.294 1.206 0.832 0.176 1.709 0.186 2.653 0.186 0.218 0 0.438 0 0.662 0h0.013c2.211 0 3.92 0.778 4.934 1.907l0.95-0.854c-1.296-1.446-3.373-2.333-5.882-2.333z" fill="#000000"></path>
	<path d="M20.864 23.274c-0.576 0.362-1.168 0.656-1.926 0.867s-1.693 0.339-2.938 0.339c-1.251 0-2.192-0.109-2.95-0.31s-1.338-0.493-1.891-0.883c-0.218-0.154-0.515-0.102-0.669 0.115s-0.102 0.515 0.115 0.669c0.63 0.448 1.334 0.797 2.202 1.027s1.891 0.342 3.197 0.342c1.309 0 2.333-0.134 3.194-0.371s1.552-0.586 2.182-0.982c0.224-0.141 0.291-0.438 0.15-0.662s-0.442-0.291-0.666-0.15z" fill="#000000"></path>
	<path d="M10.227 10.464c0.89 0.15 1.539 0.595 1.862 1.162l0.557-0.317c-0.534-0.938-1.661-1.542-3.069-1.542v0h-0.003c-1.376 0-2.48 0.576-3.030 1.478l0.547 0.333c0.323-0.534 0.944-0.95 1.782-1.104-0.138 0.16-0.224 0.365-0.224 0.592 0 0.499 0.406 0.906 0.906 0.906 0.502 0 0.906-0.406 0.906-0.906 0-0.234-0.090-0.442-0.234-0.602z" fill="#000000"></path>
	<path d="M22.426 9.763v0 0 0h-0.003c-1.408 0-2.531 0.605-3.069 1.542l0.557 0.317c0.323-0.566 0.973-1.011 1.862-1.162-0.144 0.16-0.23 0.368-0.23 0.598 0 0.499 0.406 0.906 0.906 0.906s0.906-0.406 0.906-0.906c0-0.227-0.086-0.432-0.224-0.592 0.838 0.154 1.459 0.57 1.782 1.104l0.547-0.333c-0.554-0.899-1.658-1.475-3.034-1.475z" fill="#000000"></path>
</svg>
