<?xml version="1.0" encoding="utf-8"?>
<!-- Generated by IcoMoon.io -->
<!DOCTYPE svg PUBLIC "-//W3C//DTD SVG 1.1//EN" "http://www.w3.org/Graphics/SVG/1.1/DTD/svg11.dtd">
<svg version="1.1" xmlns="http://www.w3.org/2000/svg" xmlns:xlink="http://www.w3.org/1999/xlink" width="32" height="32" viewBox="0 0 32 32">
<g>
	<line stroke-width="1" x1="" y1="" x2="" y2="" stroke="#449FDB" opacity=""></line>
</g>
	<path d="M9.546 8.243h0.010c2.061 0 3.686 0.675 4.72 1.68l0.893-0.918c-1.306-1.27-3.264-2.038-5.594-2.042v0h-0.022c-2.506 0-4.582 0.886-5.882 2.33l0.95 0.858c1.008-1.13 2.717-1.904 4.925-1.907v0z" fill="#000000"></path>
	<path d="M10.227 10.464c0.89 0.15 1.539 0.595 1.862 1.162l0.557-0.317c-0.534-0.934-1.654-1.539-3.059-1.542v0h-0.016c-1.373 0-2.477 0.576-3.027 1.478l0.547 0.333c0.323-0.534 0.944-0.95 1.782-1.104-0.138 0.16-0.224 0.365-0.224 0.592 0 0.499 0.406 0.906 0.906 0.906 0.502 0 0.906-0.406 0.906-0.906 0-0.234-0.090-0.442-0.234-0.602z" fill="#000000"></path>
	<path d="M22.429 9.763v0h-0.016c-1.402 0.003-2.525 0.608-3.059 1.542l0.557 0.317c0.323-0.566 0.973-1.011 1.862-1.162-0.141 0.16-0.23 0.368-0.23 0.598 0 0.499 0.406 0.906 0.906 0.906s0.906-0.406 0.906-0.906c0-0.227-0.086-0.432-0.224-0.592 0.838 0.154 1.459 0.57 1.782 1.104l0.547-0.333c-0.55-0.896-1.654-1.475-3.030-1.475z" fill="#000000"></path>
	<path d="M22.454 6.963v0h-0.003c0 0 0 0 0 0h-0.019c-2.33 0.003-4.285 0.771-5.594 2.042l0.893 0.918c1.030-1.005 2.659-1.68 4.72-1.68h0.010c2.208 0.003 3.917 0.778 4.928 1.907l0.95-0.858c-1.302-1.443-3.379-2.326-5.885-2.33z" fill="#000000"></path>
	<path d="M14.758 19.283c-0.058-0.099-0.090-0.208-0.090-0.352h-0.96c0 0.307 0.080 0.595 0.221 0.835 0.214 0.365 0.547 0.614 0.909 0.771 0.365 0.157 0.765 0.23 1.165 0.23 0.531-0.003 1.069-0.128 1.514-0.419 0.221-0.147 0.419-0.339 0.56-0.582 0.141-0.24 0.221-0.531 0.221-0.835h-0.96c0 0.147-0.035 0.253-0.090 0.352-0.083 0.147-0.24 0.278-0.464 0.374-0.221 0.096-0.499 0.15-0.781 0.15-0.374 0.003-0.746-0.099-0.979-0.259-0.125-0.080-0.211-0.17-0.266-0.266z" fill="#000000"></path>
	<path d="M21.12 23.917c-0.768 0-1.325-0.198-1.84-0.416-0.256-0.109-0.499-0.224-0.752-0.32-0.253-0.093-0.522-0.173-0.822-0.173-0.202 0.003-0.368 0.054-0.522 0.109-0.23 0.086-0.445 0.192-0.65 0.272s-0.39 0.131-0.534 0.128c-0.192 0.003-0.458-0.090-0.742-0.214-0.141-0.061-0.288-0.128-0.442-0.186-0.154-0.054-0.32-0.109-0.522-0.109-0.301 0-0.57 0.077-0.822 0.173-0.758 0.291-1.44 0.733-2.592 0.733-0.266 0-0.48 0.214-0.48 0.48s0.214 0.48 0.48 0.48c0.941 0 1.661-0.256 2.214-0.493 0.278-0.118 0.515-0.23 0.714-0.304 0.202-0.077 0.358-0.112 0.486-0.112 0.010-0.003 0.086 0.010 0.192 0.051 0.16 0.058 0.378 0.166 0.63 0.266s0.547 0.192 0.883 0.195c0.448-0.003 0.822-0.166 1.126-0.294 0.15-0.067 0.285-0.128 0.39-0.166s0.179-0.051 0.192-0.051c0.128 0 0.285 0.035 0.486 0.112 0.602 0.221 1.52 0.797 2.928 0.797 0.266 0 0.48-0.214 0.48-0.48s-0.218-0.477-0.483-0.477z" fill="#000000"></path>
</svg>
