<?xml version="1.0" encoding="utf-8"?>
<!-- Generator: Adobe Illustrator 16.0.0, SVG Export Plug-In . SVG Version: 6.00 Build 0)  -->
<!DOCTYPE svg PUBLIC "-//W3C//DTD SVG 1.1 Tiny//EN" "http://www.w3.org/Graphics/SVG/1.1/DTD/svg11-tiny.dtd">
<svg version="1.1" baseProfile="tiny" id="Capa_1" xmlns="http://www.w3.org/2000/svg" xmlns:xlink="http://www.w3.org/1999/xlink"
	 x="0px" y="0px" width="100px" height="100px" viewBox="0 0 100 100" xml:space="preserve">
<g>
	<path d="M29.98,26.51L29.98,26.51l-0.06,0h-0.01h0l0,0l-0.02,0v0c-2.28,0-4.32,0.94-5.92,2.49c-1.62,1.55-2.83,3.69-3.62,6.18
		l1.91,0.6c0.71-2.24,1.79-4.09,3.1-5.34c1.31-1.25,2.82-1.92,4.55-1.93h0l0.02,0c1.78,0.01,3.32,0.71,4.66,2.02
		c1.33,1.31,2.42,3.24,3.11,5.58l1.92-0.57c-0.77-2.59-1.98-4.82-3.62-6.43C34.37,27.51,32.3,26.53,29.98,26.51z"/>
	<path d="M47.68,28.02c-1.98-3.09-4.51-5.65-7.53-7.45c-3-1.79-6.48-2.8-10.25-2.81v0l-0.05,0h-0.01h0h-0.01v0
		c-4.06,0-7.78,1.16-10.94,3.21c-3.16,2.05-5.76,4.96-7.7,8.43l3.49,1.96c1.67-2.98,3.84-5.38,6.39-7.03
		c2.55-1.65,5.47-2.57,8.78-2.57h0h0c3.08,0,5.83,0.8,8.25,2.24c2.42,1.44,4.52,3.54,6.21,6.17L47.68,28.02z"/>
	<circle cx="29.85" cy="34.57" r="2.83"/>
	<path d="M70.11,26.51L70.11,26.51l-0.02,0l0,0h0l0,0h0c0,0-0.01,0-0.01,0l-0.06,0v0c-2.31,0.02-4.38,1-5.99,2.6
		c-1.64,1.62-2.85,3.84-3.62,6.43l1.92,0.57c0.69-2.34,1.78-4.27,3.11-5.58c1.34-1.31,2.88-2.02,4.66-2.02l0.02,0
		c1.74,0.01,3.24,0.68,4.56,1.93c1.31,1.25,2.39,3.1,3.1,5.34l1.91-0.6c-0.79-2.49-2.01-4.63-3.62-6.18
		C74.43,27.45,72.38,26.51,70.11,26.51z"/>
	<path d="M81.1,20.97c-3.16-2.05-6.88-3.21-10.94-3.21v0h-0.01h0h-0.01c0,0,0,0-0.01,0l-0.04,0v0c-3.77,0.01-7.25,1.01-10.25,2.8
		c-3.02,1.8-5.55,4.37-7.53,7.45l3.37,2.16c1.68-2.63,3.79-4.73,6.21-6.17c2.42-1.44,5.17-2.24,8.25-2.24h0h0
		c3.31,0,6.23,0.92,8.78,2.57c2.55,1.65,4.72,4.05,6.39,7.03l3.49-1.96C86.86,25.93,84.26,23.02,81.1,20.97z"/>
	<circle cx="70.15" cy="34.57" r="2.83"/>
	<path d="M53.88,60.26c-0.26,0.46-0.75,0.87-1.45,1.17c-0.69,0.3-1.56,0.47-2.44,0.47c-1.17,0.01-2.33-0.31-3.06-0.81
		c-0.37-0.25-0.64-0.53-0.82-0.84c-0.18-0.31-0.28-0.65-0.28-1.1h-3c0,0.96,0.25,1.86,0.69,2.61c0.67,1.14,1.71,1.92,2.84,2.41
		c1.14,0.49,2.39,0.72,3.64,0.72c1.66-0.01,3.34-0.4,4.73-1.31c0.69-0.46,1.31-1.06,1.75-1.82c0.44-0.75,0.69-1.66,0.69-2.61h-3
		C54.16,59.61,54.06,59.95,53.88,60.26z"/>
	<circle cx="50" cy="77" r="4"/>
</g>
</svg>
