<?xml version="1.0" encoding="utf-8"?>
<!-- Generated by IcoMoon.io -->
<!DOCTYPE svg PUBLIC "-//W3C//DTD SVG 1.1//EN" "http://www.w3.org/Graphics/SVG/1.1/DTD/svg11.dtd">
<svg version="1.1" xmlns="http://www.w3.org/2000/svg" xmlns:xlink="http://www.w3.org/1999/xlink" width="32" height="32" viewBox="0 0 32 32">
<g>
	<line stroke-width="1" x1="" y1="" x2="" y2="" stroke="#449FDB" opacity=""></line>
</g>
	<path d="M9.533 8.243c0.576 0.016 1.066 0.134 1.51 0.31 0.666 0.262 1.232 0.669 1.77 1.094 0.538 0.422 1.030 0.864 1.622 1.165l0.573-1.146c-0.243-0.122-0.538-0.336-0.867-0.598-0.499-0.397-1.085-0.902-1.827-1.322-0.739-0.422-1.645-0.752-2.739-0.781-0.304-0.010-0.592-0.013-0.87-0.013-0.963 0-1.811 0.064-2.624 0.288s-1.574 0.614-2.333 1.219l0.794 1.005c0.653-0.515 1.235-0.81 1.882-0.989s1.373-0.243 2.278-0.243c0.262-0.003 0.541 0 0.832 0.010z" fill="#000000"></path>
	<path d="M10.358 10.659c0.835 0.182 1.434 0.595 1.712 1.075l0.55-0.326c-0.515-0.867-1.61-1.434-3.008-1.488-0.070-0.003-0.141-0.003-0.211-0.003-1.267 0-2.298 0.451-2.861 1.2l0.512 0.384c0.32-0.432 0.915-0.771 1.712-0.893-0.074 0.125-0.122 0.266-0.125 0.419-0.019 0.499 0.371 0.922 0.87 0.941s0.922-0.371 0.941-0.87c0.013-0.16-0.026-0.307-0.093-0.438z" fill="#000000"></path>
	<path d="M22.592 9.917c-0.070 0-0.141 0-0.211 0.003-1.398 0.054-2.49 0.624-3.008 1.488l0.55 0.326c0.282-0.483 0.877-0.893 1.712-1.075-0.067 0.131-0.106 0.282-0.099 0.438 0.019 0.499 0.442 0.89 0.941 0.87s0.89-0.442 0.87-0.941c-0.006-0.154-0.054-0.294-0.125-0.419 0.797 0.122 1.395 0.461 1.712 0.893l0.512-0.384c-0.554-0.749-1.587-1.2-2.854-1.2z" fill="#000000"></path>
	<path d="M25.923 7.238c-0.813-0.227-1.661-0.288-2.624-0.288-0.278 0-0.57 0.006-0.87 0.013-0.73 0.019-1.376 0.173-1.946 0.4-0.854 0.339-1.526 0.832-2.093 1.28-0.563 0.448-1.030 0.845-1.398 1.024l0.573 1.146c0.397-0.198 0.742-0.464 1.094-0.742 0.525-0.419 1.053-0.867 1.661-1.21s1.286-0.589 2.147-0.614c0.294-0.010 0.573-0.013 0.835-0.013 0.909 0 1.632 0.061 2.278 0.243s1.229 0.474 1.882 0.989l0.794-1.005c-0.762-0.605-1.52-0.998-2.333-1.222z" fill="#000000"></path>
	<path d="M14.758 19.283c-0.058-0.099-0.090-0.208-0.090-0.352h-0.96c0 0.307 0.080 0.595 0.221 0.838 0.214 0.365 0.547 0.614 0.909 0.771 0.365 0.157 0.765 0.23 1.165 0.23 0.531-0.003 1.069-0.128 1.514-0.419 0.221-0.147 0.419-0.339 0.56-0.582 0.141-0.24 0.221-0.531 0.221-0.838h-0.96c0 0.147-0.035 0.253-0.090 0.352-0.083 0.147-0.24 0.278-0.464 0.374-0.221 0.096-0.499 0.15-0.781 0.15-0.374 0.003-0.746-0.099-0.979-0.259-0.125-0.080-0.211-0.17-0.266-0.266z" fill="#000000"></path>
	<path d="M21.376 25.514c-0.259-0.163-0.509-0.381-0.79-0.627-0.426-0.368-0.928-0.803-1.651-1.136-0.726-0.33-1.661-0.55-2.934-0.55-0.848 0-1.546 0.093-2.131 0.25-0.88 0.234-1.51 0.624-2.006 1.018-0.496 0.397-0.867 0.784-1.261 1.062-0.218 0.154-0.269 0.454-0.115 0.669s0.454 0.269 0.669 0.115c0.33-0.234 0.605-0.493 0.883-0.736 0.416-0.368 0.826-0.707 1.414-0.97 0.589-0.259 1.376-0.445 2.547-0.448 0.778 0 1.386 0.090 1.875 0.224 0.736 0.208 1.216 0.518 1.654 0.867 0.435 0.346 0.819 0.746 1.334 1.075 0.224 0.141 0.522 0.074 0.662-0.15s0.074-0.522-0.15-0.662z" fill="#000000"></path>
</svg>
