<?xml version="1.0" encoding="utf-8"?>
<!-- Generator: Adobe Illustrator 16.0.0, SVG Export Plug-In . SVG Version: 6.00 Build 0)  -->
<!DOCTYPE svg PUBLIC "-//W3C//DTD SVG 1.1 Tiny//EN" "http://www.w3.org/Graphics/SVG/1.1/DTD/svg11-tiny.dtd">
<svg version="1.1" baseProfile="tiny" id="Capa_1" xmlns="http://www.w3.org/2000/svg" xmlns:xlink="http://www.w3.org/1999/xlink"
	 x="0px" y="0px" width="100px" height="100px" viewBox="0 0 100 100" xml:space="preserve">
<g>
	<path d="M29.85,25.76L29.85,25.76h0.02c0.71,0,1.41,0,2.1,0c2.95,0,5.68-0.04,8.28-0.58c2.59-0.54,5.08-1.67,7.16-3.77l-2.83-2.83
		c-1.5,1.49-3.1,2.23-5.16,2.68c-2.05,0.44-4.54,0.5-7.45,0.5c-0.68,0-1.38,0-2.1,0h-0.02h-0.01h0l0,0c-7.83,0-14.33,2.77-18.4,7.28
		l2.97,2.68C17.59,28.19,22.94,25.76,29.85,25.76L29.85,25.76z"/>
	<path d="M32.67,34.15c-0.11-0.72-0.49-1.33-1.02-1.76c2.84,0.03,5.05,1.11,6.32,2.71l1.56-1.25c-1.74-2.18-4.61-3.47-8.01-3.47
		c-0.72,0-1.46,0.06-2.22,0.17h0c-4.25,0.66-7.39,2.97-8.66,6.01l1.85,0.77c0.75-1.8,2.46-3.39,4.98-4.26
		c-0.35,0.56-0.52,1.23-0.41,1.94c0.24,1.55,1.69,2.61,3.23,2.37C31.85,37.15,32.91,35.7,32.67,34.15z"/>
	<path d="M70.68,30.57c-0.76-0.12-1.5-0.17-2.22-0.17c-3.39,0-6.27,1.29-8.01,3.47l1.56,1.25c1.28-1.6,3.48-2.67,6.32-2.71
		c-0.53,0.43-0.91,1.03-1.02,1.76c-0.24,1.55,0.82,2.99,2.37,3.23c1.54,0.24,2.99-0.82,3.23-2.37c0.11-0.7-0.06-1.38-0.41-1.94
		c2.52,0.88,4.23,2.46,4.98,4.26l1.85-0.77v0C78.07,33.54,74.93,31.22,70.68,30.57z"/>
	<path d="M70.15,21.76L70.15,21.76L70.15,21.76L70.15,21.76L70.15,21.76L70.15,21.76h-0.03c-0.72,0-1.42,0-2.1,0
		c-2.9,0-5.4-0.06-7.45-0.5c-2.06-0.45-3.66-1.2-5.16-2.68l-2.83,2.83c2.08,2.09,4.57,3.23,7.16,3.77c2.6,0.55,5.33,0.58,8.28,0.58
		c0.69,0,1.39,0,2.1,0h0.02h0h0c6.91,0,12.26,2.43,15.42,5.96l2.97-2.67C84.49,24.53,77.99,21.76,70.15,21.76z"/>
	<path d="M46.12,60.26c-0.18-0.31-0.28-0.65-0.28-1.1h-3c0,0.96,0.25,1.86,0.69,2.61c0.67,1.14,1.71,1.92,2.84,2.41
		c1.14,0.49,2.39,0.72,3.64,0.72c1.66-0.01,3.34-0.4,4.73-1.31c0.69-0.46,1.31-1.06,1.75-1.82c0.44-0.75,0.69-1.66,0.69-2.61h-3
		c0,0.46-0.11,0.79-0.28,1.1c-0.26,0.46-0.75,0.87-1.45,1.17c-0.69,0.3-1.56,0.47-2.44,0.47c-1.17,0.01-2.33-0.31-3.06-0.81
		C46.56,60.84,46.29,60.56,46.12,60.26z"/>
	<path d="M66.8,76.73c-0.93-0.59-1.79-1.15-2.73-1.67c-1.42-0.79-3.04-1.46-5.23-1.89c-2.19-0.44-4.96-0.67-8.84-0.67
		c-5.15,0-8.36,0.34-10.86,1.08c-1.24,0.37-2.29,0.84-3.25,1.39c-0.96,0.55-1.83,1.15-2.76,1.81c-0.68,0.48-0.84,1.42-0.36,2.09
		c0.48,0.68,1.42,0.84,2.09,0.36c0.92-0.65,1.71-1.2,2.5-1.65c1.19-0.67,2.42-1.17,4.34-1.52c1.92-0.36,4.52-0.55,8.29-0.55
		c5.02,0,7.92,0.4,9.96,1.04c1.02,0.32,1.84,0.69,2.66,1.14c0.81,0.45,1.63,0.98,2.58,1.58c0.7,0.44,1.63,0.23,2.07-0.47
		C67.71,78.1,67.5,77.17,66.8,76.73z"/>
</g>
</svg>
