<?xml version="1.0" encoding="utf-8"?>
<!-- Generated by IcoMoon.io -->
<!DOCTYPE svg PUBLIC "-//W3C//DTD SVG 1.1//EN" "http://www.w3.org/Graphics/SVG/1.1/DTD/svg11.dtd">
<svg version="1.1" xmlns="http://www.w3.org/2000/svg" xmlns:xlink="http://www.w3.org/1999/xlink" width="32" height="32" viewBox="0 0 32 32">
<g>
	<line stroke-width="1" x1="" y1="" x2="" y2="" stroke="#449FDB" opacity=""></line>
</g>
	<path d="M9.594 8.483v0h-0.029c-0.73 0-1.382 0.301-1.894 0.797-0.518 0.496-0.906 1.181-1.158 1.978l0.611 0.192c0.227-0.717 0.573-1.309 0.992-1.709s0.902-0.614 1.456-0.618v0h0.006c0.57 0.003 1.062 0.227 1.491 0.646 0.426 0.419 0.774 1.037 0.995 1.786l0.614-0.182c-0.246-0.829-0.634-1.542-1.158-2.058-0.522-0.512-1.184-0.826-1.926-0.832z" fill="#000000"></path>
	<path d="M15.258 8.966c-0.634-0.989-1.443-1.808-2.41-2.384-0.96-0.573-2.074-0.896-3.28-0.899v0h-0.022c-1.299 0-2.49 0.371-3.501 1.027s-1.843 1.587-2.464 2.698l1.117 0.627c0.534-0.954 1.229-1.722 2.045-2.25s1.75-0.822 2.81-0.822v0 0c0.986 0 1.866 0.256 2.64 0.717s1.446 1.133 1.987 1.974l1.078-0.688z" fill="#000000"></path>
	<path d="M10.458 11.062c0 0.5-0.405 0.906-0.906 0.906s-0.906-0.405-0.906-0.906c0-0.5 0.405-0.906 0.906-0.906s0.906 0.405 0.906 0.906z" fill="#000000"></path>
	<path d="M22.435 8.483v0h-0.006c0 0-0.003 0-0.003 0h-0.019c-0.739 0.006-1.402 0.32-1.917 0.832-0.525 0.518-0.912 1.229-1.158 2.058l0.614 0.182c0.221-0.749 0.57-1.366 0.995-1.786 0.429-0.419 0.922-0.646 1.491-0.646h0.006c0.557 0.003 1.037 0.218 1.459 0.618 0.419 0.4 0.765 0.992 0.992 1.709l0.611-0.192c-0.253-0.797-0.643-1.482-1.158-1.978-0.525-0.496-1.181-0.797-1.907-0.797z" fill="#000000"></path>
	<path d="M25.952 6.71c-1.011-0.656-2.202-1.027-3.501-1.027v0h-0.006c0 0 0 0-0.003 0h-0.013c-1.206 0.003-2.32 0.323-3.28 0.896-0.966 0.576-1.776 1.398-2.41 2.384l1.078 0.691c0.538-0.842 1.213-1.514 1.987-1.974s1.654-0.717 2.64-0.717v0 0c1.059 0 1.994 0.294 2.81 0.822s1.51 1.296 2.045 2.25l1.117-0.627c-0.621-1.11-1.453-2.042-2.464-2.698z" fill="#000000"></path>
	<path d="M23.354 11.062c0 0.5-0.405 0.906-0.906 0.906s-0.906-0.405-0.906-0.906c0-0.5 0.405-0.906 0.906-0.906s0.906 0.405 0.906 0.906z" fill="#000000"></path>
	<path d="M17.242 19.283c-0.083 0.147-0.24 0.278-0.464 0.374-0.221 0.096-0.499 0.15-0.781 0.15-0.374 0.003-0.746-0.099-0.979-0.259-0.118-0.080-0.205-0.17-0.262-0.269s-0.090-0.208-0.090-0.352h-0.96c0 0.307 0.080 0.595 0.221 0.835 0.214 0.365 0.547 0.614 0.909 0.771 0.365 0.157 0.765 0.23 1.165 0.23 0.531-0.003 1.069-0.128 1.514-0.419 0.221-0.147 0.419-0.339 0.56-0.582 0.141-0.24 0.221-0.531 0.221-0.835h-0.96c-0.003 0.147-0.035 0.256-0.093 0.355z" fill="#000000"></path>
	<path d="M17.28 24.64c0 0.707-0.573 1.28-1.28 1.28s-1.28-0.573-1.28-1.28c0-0.707 0.573-1.28 1.28-1.28s1.28 0.573 1.28 1.28z" fill="#000000"></path>
</svg>
