<?xml version="1.0" encoding="utf-8"?>
<!-- Generator: Adobe Illustrator 16.0.0, SVG Export Plug-In . SVG Version: 6.00 Build 0)  -->
<!DOCTYPE svg PUBLIC "-//W3C//DTD SVG 1.1 Tiny//EN" "http://www.w3.org/Graphics/SVG/1.1/DTD/svg11-tiny.dtd">
<svg version="1.1" baseProfile="tiny" id="Capa_1" xmlns="http://www.w3.org/2000/svg" xmlns:xlink="http://www.w3.org/1999/xlink"
	 x="0px" y="0px" width="100px" height="100px" viewBox="0 0 100 100" xml:space="preserve">
<g>
	<path fill-rule="evenodd" d="M37.78,36.32l1.74-0.99c-1.68-2.93-5.19-4.82-9.6-4.82c-4.3,0-7.75,1.8-9.48,4.62l1.71,1.04
		c1.28-2.1,4.01-3.65,7.77-3.66C33.77,32.52,36.54,34.14,37.78,36.32z"/>
	<path fill-rule="evenodd" d="M70.08,30.51c-4.4,0-7.92,1.89-9.6,4.82l1.74,0.99c1.24-2.18,4.01-3.81,7.86-3.81
		c3.76,0,6.49,1.55,7.77,3.66l1.71-1.04C77.83,32.31,74.38,30.51,70.08,30.51z"/>
	<path fill-rule="evenodd" d="M43.53,60.79c-0.44,0.75-0.69,1.66-0.69,2.62h3c0-0.46,0.11-0.79,0.28-1.1
		c0.26-0.46,0.75-0.87,1.45-1.17c0.69-0.3,1.56-0.47,2.44-0.47c1.17,0,2.33,0.31,3.06,0.81c0.37,0.25,0.64,0.53,0.82,0.84
		c0.18,0.31,0.28,0.65,0.28,1.1h3c0-0.96-0.25-1.86-0.69-2.62c-0.67-1.14-1.71-1.92-2.84-2.41c-1.14-0.49-2.39-0.72-3.64-0.72
		c-1.66,0.01-3.34,0.4-4.73,1.31C44.58,59.43,43.97,60.03,43.53,60.79z"/>
	<path fill-rule="evenodd" d="M29.85,25.76h0.04c0.7,0,1.39,0,2.07,0c2.95,0,5.68-0.04,8.29-0.58c2.6-0.54,5.09-1.67,7.17-3.77
		l-2.83-2.83c-1.5,1.49-3.1,2.24-5.17,2.68c-2.06,0.44-4.55,0.5-7.46,0.5c-0.67,0-1.36,0-2.07,0h-0.04h-0.01h0
		c-7.84,0-14.33,2.77-18.4,7.28l2.97,2.67C17.59,28.19,22.94,25.76,29.85,25.76L29.85,25.76z"/>
	<path fill-rule="evenodd" d="M70.15,21.76L70.15,21.76h-0.01H70.1c-0.71,0-1.4,0-2.07,0c-2.91,0-5.4-0.06-7.46-0.5
		c-2.06-0.45-3.67-1.2-5.17-2.68l-2.83,2.83c2.08,2.09,4.57,3.23,7.17,3.77c2.6,0.55,5.34,0.58,8.29,0.58c0.68,0,1.37,0,2.07,0h0.04
		h0c6.91,0,12.25,2.43,15.42,5.96l2.97-2.67C84.48,24.53,77.99,21.76,70.15,21.76z"/>
	<path fill-rule="evenodd" d="M69,71c-1.65-1.1-6.6-1.55-11-1s-11.6,0.55-16,0s-9.35-0.1-11,1s-0.75,5.15,2,9s7.7,7.45,11,8
		s8.7,0.55,12,0s8.25-4.15,11-8S70.65,72.1,69,71z"/>
</g>
</svg>
