<?xml version="1.0" encoding="utf-8"?>
<!-- Generator: Adobe Illustrator 16.0.0, SVG Export Plug-In . SVG Version: 6.00 Build 0)  -->
<!DOCTYPE svg PUBLIC "-//W3C//DTD SVG 1.1 Tiny//EN" "http://www.w3.org/Graphics/SVG/1.1/DTD/svg11-tiny.dtd">
<svg version="1.1" baseProfile="tiny" id="Capa_1" xmlns="http://www.w3.org/2000/svg" xmlns:xlink="http://www.w3.org/1999/xlink"
	 x="0px" y="0px" width="100px" height="100px" viewBox="0 0 100 100" xml:space="preserve">
<g>
	<path d="M29.79,25.76c1.8,0.05,3.33,0.42,4.72,0.97c2.08,0.82,3.85,2.09,5.53,3.42c1.68,1.32,3.22,2.7,5.07,3.64l1.79-3.58
		c-0.76-0.38-1.68-1.05-2.71-1.87c-1.56-1.24-3.39-2.82-5.71-4.13c-2.31-1.32-5.14-2.35-8.56-2.44c-0.95-0.03-1.85-0.04-2.72-0.04
		c-3.01,0-5.66,0.2-8.2,0.9c-2.54,0.7-4.92,1.92-7.29,3.81l2.48,3.14c2.04-1.61,3.86-2.53,5.88-3.09c2.02-0.56,4.29-0.76,7.12-0.76
		C28.01,25.72,28.88,25.73,29.79,25.76z"/>
	<path d="M32.37,33.31c2.61,0.57,4.48,1.86,5.35,3.36l1.72-1.02c-1.61-2.71-5.03-4.48-9.4-4.65c-0.22-0.01-0.44-0.01-0.66-0.01
		c-3.96,0-7.18,1.41-8.94,3.75l1.6,1.2c1-1.35,2.86-2.41,5.35-2.79c-0.23,0.39-0.38,0.83-0.39,1.31c-0.06,1.56,1.16,2.88,2.72,2.94
		c1.56,0.06,2.88-1.16,2.94-2.72C32.7,34.18,32.58,33.72,32.37,33.31z"/>
	<path d="M70.6,30.99c-0.22,0-0.44,0-0.66,0.01c-4.37,0.17-7.78,1.95-9.4,4.65l1.72,1.02c0.88-1.51,2.74-2.79,5.35-3.36
		c-0.21,0.41-0.33,0.88-0.31,1.37c0.06,1.56,1.38,2.78,2.94,2.72c1.56-0.06,2.78-1.38,2.72-2.94c-0.02-0.48-0.17-0.92-0.39-1.31
		c2.49,0.38,4.36,1.44,5.35,2.79l1.6-1.2C77.79,32.4,74.56,30.99,70.6,30.99z"/>
	<path d="M81.01,22.62c-2.54-0.71-5.19-0.9-8.2-0.9c-0.87,0-1.78,0.02-2.72,0.04c-2.28,0.06-4.3,0.54-6.08,1.25
		c-2.67,1.06-4.77,2.6-6.54,4c-1.76,1.4-3.22,2.64-4.37,3.2l1.79,3.58c1.24-0.62,2.32-1.45,3.42-2.32c1.64-1.31,3.29-2.71,5.19-3.78
		c1.9-1.07,4.02-1.84,6.71-1.92c0.92-0.03,1.79-0.04,2.61-0.04c2.84,0,5.1,0.19,7.12,0.76c2.02,0.57,3.84,1.48,5.88,3.09l2.48-3.14
		C85.92,24.55,83.55,23.32,81.01,22.62z"/>
	<path d="M46.12,60.26c-0.18-0.31-0.28-0.65-0.28-1.1h-3c0,0.96,0.25,1.86,0.69,2.62c0.67,1.14,1.71,1.92,2.84,2.41
		c1.14,0.49,2.39,0.72,3.64,0.72c1.66-0.01,3.34-0.4,4.73-1.31c0.69-0.46,1.31-1.06,1.75-1.82c0.44-0.75,0.69-1.66,0.69-2.62h-3
		c0,0.46-0.11,0.79-0.28,1.1c-0.26,0.46-0.75,0.87-1.45,1.17c-0.69,0.3-1.56,0.47-2.44,0.47c-1.17,0.01-2.33-0.31-3.06-0.81
		C46.56,60.84,46.29,60.56,46.12,60.26z"/>
	<path d="M66.8,79.73c-0.81-0.51-1.59-1.19-2.47-1.96c-1.33-1.15-2.9-2.51-5.16-3.55C56.9,73.19,53.98,72.5,50,72.5
		c-2.65,0-4.83,0.29-6.66,0.78c-2.75,0.73-4.72,1.95-6.27,3.18c-1.55,1.24-2.71,2.45-3.94,3.32c-0.68,0.48-0.84,1.42-0.36,2.09
		s1.42,0.84,2.09,0.36c1.03-0.73,1.89-1.54,2.76-2.3c1.3-1.15,2.58-2.21,4.42-3.03c1.84-0.81,4.3-1.39,7.96-1.4
		c2.43,0,4.33,0.28,5.86,0.7c2.3,0.65,3.8,1.62,5.17,2.71c1.36,1.08,2.56,2.33,4.17,3.36c0.7,0.44,1.63,0.23,2.07-0.47
		C67.71,81.1,67.5,80.17,66.8,79.73z"/>
</g>
</svg>
