<?xml version="1.0" encoding="utf-8"?>
<!-- Generated by IcoMoon.io -->
<!DOCTYPE svg PUBLIC "-//W3C//DTD SVG 1.1//EN" "http://www.w3.org/Graphics/SVG/1.1/DTD/svg11.dtd">
<svg version="1.1" xmlns="http://www.w3.org/2000/svg" xmlns:xlink="http://www.w3.org/1999/xlink" width="32" height="32" viewBox="0 0 32 32">
<g>
	<line stroke-width="1" x1="" y1="" x2="" y2="" stroke="#449FDB" opacity=""></line>
</g>
	<path d="M14.253 19.914c0 0.843-0.683 1.526-1.526 1.526s-1.526-0.683-1.526-1.526c0-0.843 0.683-1.526 1.526-1.526s1.526 0.683 1.526 1.526z" fill="#000000"></path>
	<path d="M15.424 17.216c-0.688-0.688-1.645-1.117-2.698-1.117v0h-1.018v1.526h1.018c0.634 0 1.2 0.256 1.619 0.669 0.416 0.416 0.669 0.986 0.669 1.619v0 1.018h1.526v-1.018c0-1.050-0.429-2.010-1.117-2.698z" fill="#000000"></path>
	<path d="M12.726 13.808v0h-1.018v1.526h1.018c1.267 0 2.406 0.512 3.238 1.341 0.829 0.832 1.341 1.971 1.341 3.238v1.018h1.526v-1.018c0-1.683-0.685-3.213-1.789-4.317s-2.634-1.789-4.317-1.789z" fill="#000000"></path>
	<path d="M21.12 19.914c0-2.317-0.941-4.419-2.458-5.936s-3.622-2.458-5.936-2.458h-1.018v1.526h1.018c1.898 0 3.61 0.768 4.854 2.013s2.010 2.957 2.013 4.858v0 1.018h1.526v-1.021z" fill="#000000"></path>
</svg>
