<?xml version="1.0" encoding="utf-8"?>
<!-- Generated by IcoMoon.io -->
<!DOCTYPE svg PUBLIC "-//W3C//DTD SVG 1.1//EN" "http://www.w3.org/Graphics/SVG/1.1/DTD/svg11.dtd">
<svg version="1.1" xmlns="http://www.w3.org/2000/svg" xmlns:xlink="http://www.w3.org/1999/xlink" width="6" height="28" viewBox="0 0 6 28">
<g id="icomoon-ignore">
	<line stroke-width="1" x1="" y1="" x2="" y2="" stroke="#449FDB" opacity=""></line>
</g>
	<path d="M2.607 11.214c0.258 0 0.501 0.028 0.725 0.084s0.431 0.14 0.616 0.249h1.618v0.389c0 0.129-0.081 0.213-0.246 0.246l-0.675 0.095c0.132 0.255 0.199 0.538 0.199 0.851 0 0.291-0.056 0.554-0.168 0.79-0.112 0.238-0.266 0.44-0.465 0.608s-0.434 0.297-0.706 0.389c-0.272 0.090-0.571 0.134-0.896 0.134-0.277 0-0.54-0.034-0.787-0.101-0.126 0.081-0.221 0.168-0.286 0.26-0.070 0.101-0.101 0.19-0.101 0.28 0 0.146 0.056 0.258 0.171 0.33 0.112 0.076 0.263 0.129 0.454 0.162s0.403 0.048 0.641 0.048c0.241 0 0.484 0 0.734 0s0.493 0.022 0.734 0.064c0.238 0.045 0.454 0.115 0.641 0.216s0.339 0.235 0.454 0.412c0.112 0.174 0.171 0.4 0.171 0.678 0 0.258-0.064 0.507-0.19 0.75s-0.311 0.456-0.549 0.647c-0.241 0.188-0.532 0.339-0.876 0.454-0.344 0.112-0.734 0.171-1.17 0.171s-0.818-0.042-1.142-0.129c-0.328-0.087-0.599-0.202-0.815-0.347s-0.378-0.314-0.484-0.504-0.162-0.389-0.162-0.596c0-0.294 0.092-0.546 0.28-0.75 0.188-0.207 0.442-0.37 0.767-0.49-0.168-0.078-0.302-0.182-0.403-0.314s-0.151-0.305-0.151-0.526c0-0.087 0.014-0.174 0.048-0.266 0.031-0.092 0.078-0.182 0.143-0.274 0.064-0.090 0.146-0.176 0.238-0.258 0.095-0.081 0.204-0.154 0.33-0.218-0.294-0.165-0.524-0.384-0.692-0.655s-0.249-0.591-0.249-0.955c0-0.291 0.056-0.554 0.168-0.79s0.269-0.44 0.468-0.605c0.199-0.165 0.437-0.294 0.714-0.386 0.269-0.095 0.571-0.143 0.902-0.143zM4.463 17.573c0-0.151-0.042-0.274-0.123-0.367s-0.193-0.162-0.336-0.213-0.302-0.087-0.487-0.112c-0.185-0.022-0.378-0.036-0.582-0.036s-0.412 0-0.622 0-0.414-0.025-0.605-0.078c-0.224 0.106-0.406 0.235-0.543 0.389-0.14 0.154-0.21 0.336-0.21 0.549 0 0.134 0.034 0.258 0.104 0.372s0.174 0.216 0.314 0.3c0.14 0.084 0.319 0.151 0.532 0.199s0.465 0.073 0.756 0.073c0.283 0 0.535-0.025 0.759-0.078s0.412-0.126 0.568-0.221c0.154-0.095 0.274-0.21 0.356-0.342 0.081-0.126 0.12-0.274 0.12-0.434zM2.607 14.361c0.213 0 0.4-0.031 0.563-0.090s0.3-0.14 0.409-0.246c0.109-0.106 0.193-0.232 0.246-0.378 0.056-0.148 0.081-0.308 0.081-0.484 0-0.364-0.112-0.655-0.333-0.871s-0.543-0.325-0.969-0.325c-0.42 0-0.739 0.109-0.96 0.325s-0.333 0.507-0.333 0.871c0 0.176 0.028 0.339 0.084 0.484s0.14 0.274 0.249 0.378c0.109 0.106 0.246 0.188 0.406 0.246 0.165 0.059 0.347 0.090 0.557 0.090z" opacity="1" visibility="false" fill="#000000"></path>
</svg>
