<?xml version="1.0" encoding="utf-8"?>
<!-- Generator: Adobe Illustrator 16.0.0, SVG Export Plug-In . SVG Version: 6.00 Build 0)  -->
<!DOCTYPE svg PUBLIC "-//W3C//DTD SVG 1.1//EN" "http://www.w3.org/Graphics/SVG/1.1/DTD/svg11.dtd">
<svg version="1.1" id="Capa_1" xmlns="http://www.w3.org/2000/svg" xmlns:xlink="http://www.w3.org/1999/xlink" x="0px" y="0px"
	 width="6.375px" height="28px" viewBox="0 0 6.375 28" enable-background="new 0 0 6.375 28" xml:space="preserve">
<g id="icomoon-ignore">
	<line fill="none" stroke="#449FDB" x1="3.188" y1="0" x2="3.188" y2="0"/>
</g>
<path d="M2.988,11.214c0.258,0,0.501,0.028,0.725,0.084c0.225,0.056,0.432,0.14,0.616,0.249h1.618v0.389
	c0,0.129-0.082,0.213-0.246,0.246l-0.676,0.095c0.133,0.255,0.199,0.538,0.199,0.851c0,0.291-0.056,0.554-0.168,0.79
	c-0.111,0.238-0.266,0.44-0.465,0.607c-0.199,0.168-0.434,0.298-0.706,0.39c-0.272,0.09-0.571,0.134-0.896,0.134
	c-0.277,0-0.54-0.033-0.787-0.101c-0.126,0.081-0.221,0.168-0.286,0.26c-0.07,0.101-0.101,0.19-0.101,0.28
	c0,0.146,0.056,0.258,0.171,0.33c0.112,0.076,0.263,0.129,0.454,0.162s0.403,0.047,0.641,0.047c0.241,0,0.484,0,0.734,0
	s0.492,0.022,0.733,0.064c0.238,0.045,0.454,0.115,0.642,0.217c0.187,0.101,0.338,0.234,0.453,0.411
	c0.112,0.175,0.172,0.4,0.172,0.679c0,0.258-0.064,0.506-0.19,0.75c-0.126,0.242-0.312,0.455-0.55,0.646
	c-0.24,0.188-0.531,0.339-0.875,0.454c-0.344,0.112-0.734,0.171-1.17,0.171s-0.818-0.042-1.142-0.129
	c-0.328-0.087-0.599-0.202-0.815-0.348c-0.216-0.145-0.378-0.313-0.484-0.504c-0.106-0.189-0.162-0.389-0.162-0.596
	c0-0.294,0.092-0.546,0.28-0.75c0.188-0.207,0.442-0.369,0.767-0.49c-0.168-0.078-0.302-0.182-0.403-0.313s-0.151-0.306-0.151-0.526
	c0-0.087,0.014-0.174,0.048-0.266C1,15.406,1.047,15.316,1.112,15.225c0.064-0.091,0.146-0.177,0.238-0.259
	c0.095-0.081,0.204-0.153,0.33-0.218c-0.294-0.165-0.524-0.384-0.692-0.655c-0.168-0.271-0.249-0.591-0.249-0.955
	c0-0.291,0.056-0.554,0.168-0.79c0.112-0.236,0.269-0.44,0.468-0.605c0.199-0.165,0.437-0.294,0.714-0.386
	c0.269-0.095,0.571-0.143,0.902-0.143H2.988z M4.844,17.573c0-0.151-0.042-0.274-0.123-0.367s-0.193-0.162-0.336-0.213
	c-0.143-0.052-0.302-0.087-0.486-0.112c-0.186-0.021-0.379-0.036-0.583-0.036c-0.204,0-0.412,0-0.622,0S2.28,16.82,2.089,16.768
	c-0.224,0.105-0.406,0.234-0.543,0.389c-0.14,0.154-0.21,0.336-0.21,0.549c0,0.134,0.034,0.258,0.104,0.372
	c0.07,0.114,0.174,0.216,0.314,0.3s0.319,0.15,0.532,0.199c0.213,0.048,0.465,0.072,0.756,0.072c0.283,0,0.534-0.024,0.759-0.078
	c0.225-0.053,0.412-0.125,0.568-0.221c0.154-0.095,0.273-0.209,0.355-0.342C4.806,17.882,4.845,17.734,4.844,17.573L4.844,17.573z
	 M2.988,14.361c0.213,0,0.4-0.031,0.563-0.09s0.301-0.14,0.409-0.246s0.192-0.232,0.246-0.378c0.056-0.148,0.081-0.308,0.081-0.484
	c0-0.364-0.112-0.655-0.333-0.871c-0.222-0.216-0.543-0.325-0.969-0.325c-0.42,0-0.739,0.109-0.96,0.325s-0.333,0.507-0.333,0.871
	c0,0.176,0.028,0.339,0.084,0.484s0.14,0.274,0.249,0.378c0.109,0.106,0.246,0.188,0.406,0.246
	C2.596,14.33,2.778,14.361,2.988,14.361z"/>
</svg>
