<?xml version="1.0" encoding="utf-8"?>
<!-- Generated by IcoMoon.io -->
<!DOCTYPE svg PUBLIC "-//W3C//DTD SVG 1.1//EN" "http://www.w3.org/Graphics/SVG/1.1/DTD/svg11.dtd">
<svg version="1.1" xmlns="http://www.w3.org/2000/svg" xmlns:xlink="http://www.w3.org/1999/xlink" width="32" height="32" viewBox="0 0 32 32">
<g>
	<line stroke-width="1" x1="" y1="" x2="" y2="" stroke="#449FDB" opacity=""></line>
</g>
	<path d="M29.12 16.32h-26.24c-0.88 0-1.6 0.72-1.6 1.6v10.88c0 0.88 0.72 1.6 1.6 1.6h26.24c0.88 0 1.6-0.72 1.6-1.6v-10.88c0-0.88-0.72-1.6-1.6-1.6zM29.76 28.8c0 0.346-0.294 0.64-0.64 0.64h-26.24c-0.346 0-0.64-0.294-0.64-0.64v-10.88c0-0.346 0.294-0.64 0.64-0.64h26.24c0.346 0 0.64 0.294 0.64 0.64v10.88z" fill="#000000"></path>
	<path d="M10.24 18.88h-2.56v3.2h-3.2v2.56h3.2v3.2h2.56v-3.2h3.2v-2.56h-3.2z" fill="#000000"></path>
	<path d="M23.040 21.92c0.973 0 1.76-0.787 1.76-1.76s-0.787-1.76-1.76-1.76c-0.973 0-1.76 0.787-1.76 1.76s0.787 1.76 1.76 1.76zM23.040 19.36c0.442 0 0.8 0.358 0.8 0.8s-0.358 0.8-0.8 0.8c-0.442 0-0.8-0.358-0.8-0.8s0.358-0.8 0.8-0.8z" fill="#000000"></path>
	<path d="M19.84 21.6c-0.973 0-1.76 0.787-1.76 1.76s0.787 1.76 1.76 1.76c0.973 0 1.76-0.787 1.76-1.76s-0.787-1.76-1.76-1.76zM19.84 24.16c-0.442 0-0.8-0.358-0.8-0.8s0.358-0.8 0.8-0.8c0.442 0 0.8 0.358 0.8 0.8s-0.358 0.8-0.8 0.8z" fill="#000000"></path>
	<path d="M23.040 24.8c-0.973 0-1.76 0.787-1.76 1.76s0.787 1.76 1.76 1.76c0.973 0 1.76-0.787 1.76-1.76s-0.787-1.76-1.76-1.76zM23.040 27.36c-0.442 0-0.8-0.358-0.8-0.8s0.358-0.8 0.8-0.8c0.442 0 0.8 0.358 0.8 0.8s-0.358 0.8-0.8 0.8z" fill="#000000"></path>
	<path d="M26.24 21.6c-0.973 0-1.76 0.787-1.76 1.76s0.787 1.76 1.76 1.76c0.973 0 1.76-0.787 1.76-1.76s-0.787-1.76-1.76-1.76zM26.24 24.16c-0.442 0-0.8-0.358-0.8-0.8s0.358-0.8 0.8-0.8c0.442 0 0.8 0.358 0.8 0.8s-0.358 0.8-0.8 0.8z" fill="#000000"></path>
</svg>
