<?xml version="1.0" encoding="utf-8"?>
<!-- Generated by IcoMoon.io -->
<!DOCTYPE svg PUBLIC "-//W3C//DTD SVG 1.1//EN" "http://www.w3.org/Graphics/SVG/1.1/DTD/svg11.dtd">
<svg version="1.1" xmlns="http://www.w3.org/2000/svg" xmlns:xlink="http://www.w3.org/1999/xlink" width="32" height="32" viewBox="0 0 32 32">
<g id="icomoon-ignore">
	<line stroke-width="1" x1="" y1="" x2="" y2="" stroke="#449FDB" opacity=""></line>
</g>
	<path d="M30.832 16.701l-0.822-0.234c0.013-0.31 0.013-0.621 0-0.934l0.822-0.234c0.778-0.221 0.387-1.424 0.291-1.974-0.096-0.547-0.138-1.798-0.941-1.741l-0.864 0.061c-0.096-0.294-0.202-0.586-0.317-0.874l0.701-0.506c0.653-0.474-0.125-1.469-0.403-1.949s-0.752-1.645-1.485-1.315l-0.787 0.352c-0.192-0.243-0.39-0.48-0.598-0.71l0.486-0.717c0.445-0.656-0.579-1.302-0.998-1.654-0.317-0.269-0.646-0.522-0.986-0.765-0.282-0.202-0.634-0.266-0.906-0.003l-0.618 0.598c-0.262-0.163-0.531-0.32-0.806-0.467l0.211-0.835c0.195-0.781-1.030-1.043-1.552-1.232-0.522-0.192-1.638-0.784-1.994-0.058l-0.378 0.778c-0.301-0.064-0.608-0.118-0.915-0.16l-0.090-0.854c-0.083-0.803-1.331-0.634-1.885-0.634s-1.802-0.17-1.885 0.63l-0.090 0.854c-0.31 0.045-0.614 0.096-0.915 0.16l-0.378-0.778c-0.352-0.726-1.469-0.134-1.994 0.058-0.522 0.189-1.747 0.454-1.552 1.232l0.211 0.835c-0.275 0.147-0.544 0.301-0.806 0.467l-0.618-0.598c-0.57-0.55-1.382 0.342-1.805 0.694-0.32 0.266-0.63 0.544-0.928 0.835-0.246 0.243-0.371 0.579-0.16 0.893l0.486 0.717c-0.208 0.23-0.406 0.467-0.598 0.71l-0.787-0.352c-0.736-0.33-1.206 0.835-1.485 1.315s-1.056 1.475-0.403 1.949l0.701 0.506c-0.115 0.288-0.221 0.579-0.317 0.874l-0.864-0.061c-0.803-0.058-0.845 1.194-0.941 1.741s-0.486 1.754 0.291 1.974l0.822 0.234c-0.013 0.31-0.013 0.621 0 0.934l-0.822 0.234c-0.778 0.221-0.387 1.424-0.291 1.974 0.096 0.547 0.138 1.798 0.941 1.741l0.864-0.061c0.096 0.294 0.202 0.586 0.317 0.874l-0.701 0.506c-0.653 0.474 0.125 1.469 0.403 1.949s0.752 1.645 1.485 1.315l0.787-0.352c0.192 0.243 0.39 0.48 0.598 0.71l-0.486 0.717c-0.445 0.656 0.579 1.302 0.998 1.654 0.317 0.269 0.646 0.522 0.986 0.765 0.282 0.202 0.634 0.266 0.906 0.003l0.618-0.598c0.262 0.163 0.531 0.32 0.806 0.467l-0.211 0.835c-0.195 0.781 1.030 1.043 1.552 1.232 0.522 0.192 1.638 0.784 1.994 0.058l0.378-0.778c0.301 0.064 0.608 0.118 0.915 0.16l0.090 0.854c0.086 0.806 1.334 0.637 1.888 0.637s1.802 0.17 1.885-0.63l0.090-0.854c0.31-0.045 0.614-0.096 0.915-0.16l0.378 0.778c0.352 0.726 1.469 0.134 1.994-0.058 0.522-0.189 1.747-0.454 1.552-1.232l-0.211-0.835c0.275-0.147 0.544-0.301 0.806-0.467l0.618 0.598c0.57 0.55 1.382-0.342 1.805-0.694 0.32-0.266 0.63-0.544 0.928-0.835 0.246-0.243 0.371-0.579 0.16-0.893l-0.486-0.717c0.208-0.23 0.406-0.467 0.598-0.71l0.787 0.352c0.736 0.33 1.206-0.835 1.485-1.315s1.056-1.475 0.403-1.949l-0.701-0.506c0.115-0.288 0.221-0.579 0.317-0.874l0.864 0.061c0.803 0.058 0.845-1.194 0.941-1.741 0.096-0.554 0.483-1.757-0.294-1.978zM23.936 26.63c-0.486-0.47-1.085 0.125-1.514 0.374-0.445 0.259-1.36 0.499-1.187 1.184l0.202 0.797c-0.41 0.173-0.829 0.323-1.254 0.458l-0.358-0.739c-0.307-0.634-1.158-0.234-1.664-0.144-0.49 0.083-1.338 0.010-1.408 0.685l-0.083 0.816c-0.445 0.022-0.89 0.022-1.338 0l-0.083-0.816c-0.070-0.678-0.915-0.602-1.408-0.685-0.506-0.086-1.357-0.49-1.664 0.144l-0.358 0.739c-0.429-0.134-0.848-0.285-1.254-0.458l0.202-0.797c0.166-0.659-0.653-0.877-1.085-1.123-0.448-0.256-1.11-0.928-1.616-0.435l-0.589 0.57c-0.355-0.269-0.698-0.557-1.024-0.858l0.464-0.685c0.381-0.56-0.31-1.046-0.634-1.424-0.333-0.394-0.726-1.251-1.373-0.96l-0.752 0.336c-0.24-0.374-0.464-0.758-0.669-1.155l0.669-0.483c0.547-0.397 0.067-1.088-0.106-1.552-0.179-0.483-0.253-1.427-0.96-1.376l-0.822 0.058c-0.096-0.432-0.173-0.87-0.227-1.315l0.794-0.227c0.669-0.189 0.429-1.050 0.429-1.558s0.24-1.366-0.429-1.558l-0.794-0.227c0.054-0.445 0.131-0.883 0.227-1.315l0.822 0.058c0.678 0.048 0.749-0.794 0.918-1.264 0.173-0.483 0.72-1.251 0.147-1.664l-0.669-0.483c0.205-0.397 0.429-0.781 0.669-1.155l0.752 0.336c0.618 0.278 0.976-0.486 1.293-0.87 0.33-0.397 1.107-0.931 0.71-1.517l-0.464-0.685c0.326-0.301 0.669-0.586 1.024-0.858l0.589 0.57c0.486 0.47 1.085-0.125 1.514-0.374 0.445-0.259 1.36-0.499 1.187-1.184l-0.202-0.797c0.41-0.173 0.829-0.323 1.254-0.458l0.358 0.739c0.307 0.634 1.158 0.234 1.664 0.144 0.49-0.083 1.338-0.010 1.408-0.685l0.083-0.816c0.445-0.022 0.89-0.022 1.338 0l0.083 0.816c0.070 0.678 0.915 0.602 1.408 0.685 0.506 0.086 1.357 0.49 1.664-0.144l0.358-0.739c0.429 0.134 0.848 0.285 1.254 0.458l-0.202 0.797c-0.166 0.659 0.653 0.877 1.085 1.123 0.448 0.256 1.11 0.928 1.616 0.435l0.592-0.566c0.355 0.269 0.698 0.557 1.024 0.858l-0.464 0.685c-0.381 0.56 0.31 1.046 0.634 1.424 0.333 0.394 0.726 1.251 1.373 0.96l0.752-0.336c0.24 0.374 0.464 0.758 0.669 1.155l-0.669 0.483c-0.547 0.397-0.067 1.088 0.106 1.552 0.179 0.483 0.253 1.427 0.96 1.376l0.822-0.058c0.096 0.432 0.173 0.87 0.227 1.315l-0.794 0.227c-0.669 0.189-0.429 1.050-0.429 1.558s-0.24 1.366 0.429 1.558l0.794 0.227c-0.054 0.445-0.131 0.883-0.227 1.315l-0.822-0.058c-0.678-0.048-0.749 0.794-0.918 1.264-0.173 0.483-0.72 1.251-0.147 1.664l0.669 0.483c-0.205 0.397-0.429 0.781-0.669 1.155l-0.752-0.336c-0.618-0.278-0.976 0.486-1.293 0.87-0.33 0.397-1.107 0.931-0.71 1.517l0.464 0.685c-0.326 0.301-0.669 0.586-1.024 0.858l-0.592-0.573z" fill="#000000"></path>
</svg>
