<?xml version="1.0" encoding="utf-8"?>
<!-- Generator: Adobe Illustrator 16.0.0, SVG Export Plug-In . SVG Version: 6.00 Build 0)  -->
<!DOCTYPE svg PUBLIC "-//W3C//DTD SVG 1.1 Tiny//EN" "http://www.w3.org/Graphics/SVG/1.1/DTD/svg11-tiny.dtd">
<svg version="1.1" baseProfile="tiny" id="Capa_1" xmlns="http://www.w3.org/2000/svg" xmlns:xlink="http://www.w3.org/1999/xlink"
	 x="0px" y="0px" width="100px" height="100px" viewBox="0 0 100 100" xml:space="preserve">
<line fill="none" stroke="#000000" stroke-width="3" stroke-linecap="round" stroke-miterlimit="10" stroke-dasharray="1,8" x1="4" y1="34" x2="38" y2="34"/>
<line fill="none" stroke="#000000" stroke-width="3" stroke-linecap="round" stroke-miterlimit="10" stroke-dasharray="1,8" x1="44" y1="34" x2="58" y2="34"/>
<line fill="none" stroke="#000000" stroke-width="3" stroke-linecap="round" stroke-miterlimit="10" stroke-dasharray="1,8" x1="68" y1="34" x2="82" y2="34"/>
<line fill="none" stroke="#000000" stroke-width="3" stroke-linecap="round" stroke-miterlimit="10" stroke-dasharray="1,8" x1="90" y1="34" x2="98" y2="34"/>
<line fill="none" stroke="#000000" stroke-width="4" stroke-linecap="round" stroke-miterlimit="10" x1="4" y1="68" x2="96" y2="68"/>
<path fill="none" stroke="#000000" stroke-width="4" stroke-miterlimit="10" d="M24,18c0,3.31-2.69,6-6,6l0,0c-3.31,0-6-2.69-6-6
	l0,0c0-3.31,2.69-6,6-6l0,0C21.31,12,24,14.69,24,18L24,18z"/>
<path fill="none" stroke="#000000" stroke-width="4" stroke-miterlimit="10" d="M44,52c0,3.31-2.69,6-6,6l0,0c-3.31,0-6-2.69-6-6
	l0,0c0-3.31,2.69-6,6-6l0,0C41.31,46,44,48.69,44,52L44,52z"/>
<path fill="none" stroke="#000000" stroke-width="4" stroke-miterlimit="10" d="M68,18c0,3.31-2.69,6-6,6l0,0c-3.31,0-6-2.69-6-6
	l0,0c0-3.31,2.69-6,6-6l0,0C65.31,12,68,14.69,68,18L68,18z"/>
<path fill="none" stroke="#000000" stroke-width="4" stroke-miterlimit="10" d="M90,52c0,3.31-2.69,6-6,6l0,0c-3.31,0-6-2.69-6-6
	l0,0c0-3.31,2.69-6,6-6l0,0C87.31,46,90,48.69,90,52L90,52z"/>
<path fill="none" stroke="#000000" stroke-width="4" stroke-miterlimit="10" d="M44,86c0,3.31-2.69,6-6,6l0,0c-3.31,0-6-2.69-6-6
	l0,0c0-3.31,2.69-6,6-6l0,0C41.31,80,44,82.69,44,86L44,86z"/>
<path fill="none" stroke="#000000" stroke-width="4" stroke-miterlimit="10" d="M24,18c0,0,3.15,0,7,0s7,3.6,7,8v20"/>
<line fill="none" stroke="#000000" stroke-width="4" stroke-miterlimit="10" x1="38" y1="58" x2="38" y2="80"/>
<path fill="none" stroke="#000000" stroke-width="4" stroke-miterlimit="10" d="M44,52h10c4.4,0,8-3.6,8-8V24"/>
<path fill="none" stroke="#000000" stroke-width="4" stroke-miterlimit="10" d="M68,18h8c4.4,0,8,3.6,8,8v21"/>
</svg>
