<?xml version="1.0" encoding="utf-8"?>
<!-- Generator: Adobe Illustrator 16.0.0, SVG Export Plug-In . SVG Version: 6.00 Build 0)  -->
<!DOCTYPE svg PUBLIC "-//W3C//DTD SVG 1.1 Tiny//EN" "http://www.w3.org/Graphics/SVG/1.1/DTD/svg11-tiny.dtd">
<svg version="1.1" baseProfile="tiny" id="Capa_1" xmlns="http://www.w3.org/2000/svg" xmlns:xlink="http://www.w3.org/1999/xlink"
	 x="0px" y="0px" width="100px" height="100px" viewBox="0 0 100 100" xml:space="preserve">
<path d="M94,6v40H53c-3.86,0-7,3.14-7,7v41H6V6H94 M95,2H5C3.35,2,2,3.35,2,5v90c0,1.65,1.35,3,3,3h42c1.65,0,3-1.35,3-3V53
	c0-1.65,1.35-3,3-3h42c1.65,0,3-1.35,3-3V5C98,3.35,96.65,2,95,2z"/>
</svg>
