<?xml version="1.0" encoding="utf-8"?>
<!-- Generator: Adobe Illustrator 16.0.0, SVG Export Plug-In . SVG Version: 6.00 Build 0)  -->
<!DOCTYPE svg PUBLIC "-//W3C//DTD SVG 1.1 Tiny//EN" "http://www.w3.org/Graphics/SVG/1.1/DTD/svg11-tiny.dtd">
<svg version="1.1" baseProfile="tiny" id="Capa_1" xmlns="http://www.w3.org/2000/svg" xmlns:xlink="http://www.w3.org/1999/xlink"
	 x="0px" y="0px" width="100px" height="100px" viewBox="0 0 100 100" xml:space="preserve">
<line fill="none" stroke="#000000" stroke-width="4" stroke-miterlimit="10" x1="24" y1="30" x2="24" y2="18"/>
<line fill="none" stroke="#000000" stroke-width="4" stroke-miterlimit="10" x1="30" y1="24" x2="18" y2="24"/>
<line fill="none" stroke="#000000" stroke-width="4" stroke-miterlimit="10" x1="76" y1="30" x2="76" y2="18"/>
<line fill="none" stroke="#000000" stroke-width="4" stroke-miterlimit="10" x1="82" y1="24" x2="70" y2="24"/>
<line fill="none" stroke="#000000" stroke-width="4" stroke-miterlimit="10" x1="24" y1="82" x2="24" y2="70"/>
<line fill="none" stroke="#000000" stroke-width="4" stroke-miterlimit="10" x1="30" y1="76" x2="18" y2="76"/>
<line fill="none" stroke="#000000" stroke-width="4" stroke-miterlimit="10" x1="76" y1="82" x2="76" y2="70"/>
<line fill="none" stroke="#000000" stroke-width="4" stroke-miterlimit="10" x1="82" y1="76" x2="70" y2="76"/>
<path d="M94,6v36H75c-3.86,0-7,3.14-7,7v2c0,3.86,3.14,7,7,7h19v36H58V75c0-3.86-3.14-7-7-7h-2c-3.86,0-7,3.14-7,7v19H6V58h19
	c3.86,0,7-3.14,7-7v-2c0-3.86-3.14-7-7-7H6V6h36v19c0,3.86,3.14,7,7,7h2c3.86,0,7-3.14,7-7V6H94 M95,2H57c-1.65,0-3,1.35-3,3v20
	c0,1.65-1.35,3-3,3h-2c-1.65,0-3-1.35-3-3V5c0-1.65-1.35-3-3-3H5C3.35,2,2,3.35,2,5v38c0,1.65,1.35,3,3,3h20c1.65,0,3,1.35,3,3v2
	c0,1.65-1.35,3-3,3H5c-1.65,0-3,1.35-3,3v38c0,1.65,1.35,3,3,3h38c1.65,0,3-1.35,3-3V75c0-1.65,1.35-3,3-3h2c1.65,0,3,1.35,3,3v20
	c0,1.65,1.35,3,3,3h38c1.65,0,3-1.35,3-3V57c0-1.65-1.35-3-3-3H75c-1.65,0-3-1.35-3-3v-2c0-1.65,1.35-3,3-3h20c1.65,0,3-1.35,3-3V5
	C98,3.35,96.65,2,95,2L95,2z"/>
</svg>
