<?xml version="1.0" encoding="utf-8"?>
<!-- Generated by IcoMoon.io -->
<!DOCTYPE svg PUBLIC "-//W3C//DTD SVG 1.1//EN" "http://www.w3.org/Graphics/SVG/1.1/DTD/svg11.dtd">
<svg version="1.1" xmlns="http://www.w3.org/2000/svg" xmlns:xlink="http://www.w3.org/1999/xlink" width="32" height="32" viewBox="0 0 32 32">
<g>
	<line stroke-width="1" x1="" y1="" x2="" y2="" stroke="#449FDB" opacity=""></line>
</g>
	<path d="M8.32 5.76h-1.28v1.28h-1.28v1.28h1.28v1.28h1.28v-1.28h1.28v-1.28h-1.28z" fill="#000000"></path>
	<path d="M23.68 9.6h1.28v-1.28h1.28v-1.28h-1.28v-1.28h-1.28v1.28h-1.28v1.28h1.28z" fill="#000000"></path>
	<path d="M8.32 22.4h-1.28v1.28h-1.28v1.28h1.28v1.28h1.28v-1.28h1.28v-1.28h-1.28z" fill="#000000"></path>
	<path d="M23.68 26.24h1.28v-1.28h1.28v-1.28h-1.28v-1.28h-1.28v1.28h-1.28v1.28h1.28z" fill="#000000"></path>
	<path d="M24 14.72h6.4c0.528 0 0.96-0.432 0.96-0.96v-12.16c0-0.528-0.432-0.96-0.96-0.96h-12.16c-0.528 0-0.96 0.432-0.96 0.96v6.4c0 0.528-0.432 0.96-0.96 0.96h-0.64c-0.528 0-0.96-0.432-0.96-0.96v-6.4c0-0.528-0.432-0.96-0.96-0.96h-12.16c-0.528 0-0.96 0.432-0.96 0.96v12.16c0 0.528 0.432 0.96 0.96 0.96h6.4c0.528 0 0.96 0.432 0.96 0.96v0.64c0 0.528-0.432 0.96-0.96 0.96h-6.4c-0.528 0-0.96 0.432-0.96 0.96v12.16c0 0.528 0.432 0.96 0.96 0.96h12.16c0.528 0 0.96-0.432 0.96-0.96v-6.4c0-0.528 0.432-0.96 0.96-0.96h0.64c0.528 0 0.96 0.432 0.96 0.96v6.4c0 0.528 0.432 0.96 0.96 0.96h12.16c0.528 0 0.96-0.432 0.96-0.96v-12.16c0-0.528-0.432-0.96-0.96-0.96h-6.4c-0.528 0-0.96-0.432-0.96-0.96v-0.64c0-0.528 0.432-0.96 0.96-0.96zM24 18.56h6.080v11.52h-11.52v-6.080c0-1.235-1.005-2.24-2.24-2.24h-0.64c-1.235 0-2.24 1.005-2.24 2.24v6.080h-11.52v-11.52h6.080c1.235 0 2.24-1.005 2.24-2.24v-0.64c0-1.235-1.005-2.24-2.24-2.24h-6.080v-11.52h11.52v6.080c0 1.235 1.005 2.24 2.24 2.24h0.64c1.235 0 2.24-1.005 2.24-2.24v-6.080h11.52v11.52h-6.080c-1.235 0-2.24 1.005-2.24 2.24v0.64c0 1.235 1.005 2.24 2.24 2.24z" fill="#000000"></path>
</svg>
