<?xml version="1.0" encoding="utf-8"?>
<!-- Generated by IcoMoon.io -->
<!DOCTYPE svg PUBLIC "-//W3C//DTD SVG 1.1//EN" "http://www.w3.org/Graphics/SVG/1.1/DTD/svg11.dtd">
<svg version="1.1" xmlns="http://www.w3.org/2000/svg" xmlns:xlink="http://www.w3.org/1999/xlink" width="32" height="32" viewBox="0 0 32 32">
<g>
	<line stroke-width="1" x1="" y1="" x2="" y2="" stroke="#449FDB" opacity=""></line>
</g>
	<path d="M30.4 0.64h-13.44c-0.528 0-0.96 0.432-0.96 0.96v13.44c0 0.528-0.432 0.96-0.96 0.96h-13.44c-0.528 0-0.96 0.432-0.96 0.96v13.44c0 0.528 0.432 0.96 0.96 0.96h28.8c0.528 0 0.96-0.432 0.96-0.96v-28.8c0-0.528-0.432-0.96-0.96-0.96zM30.080 30.080h-28.16v-12.8h13.12c1.235 0 2.24-1.005 2.24-2.24v-13.12h12.8v28.16z" fill="#000000"></path>
</svg>
