<?xml version="1.0" encoding="utf-8"?>
<!-- Generator: Adobe Illustrator 16.0.0, SVG Export Plug-In . SVG Version: 6.00 Build 0)  -->
<!DOCTYPE svg PUBLIC "-//W3C//DTD SVG 1.1 Tiny//EN" "http://www.w3.org/Graphics/SVG/1.1/DTD/svg11-tiny.dtd">
<svg version="1.1" baseProfile="tiny" id="Capa_1" xmlns="http://www.w3.org/2000/svg" xmlns:xlink="http://www.w3.org/1999/xlink"
	 x="0px" y="0px" width="100px" height="100px" viewBox="0 0 100 100" xml:space="preserve">
<g>
	<path d="M43,2H5C3.35,2,2,3.35,2,5v38c0,1.65,1.35,3,3,3h38c1.65,0,3-1.35,3-3V5C46,3.35,44.65,2,43,2z M42,42H6V6h36V42z"/>
	<path d="M95,2H57c-1.65,0-3,1.35-3,3v38c0,1.65,1.35,3,3,3h38c1.65,0,3-1.35,3-3V5C98,3.35,96.65,2,95,2z M94,42H58V6h36V42z"/>
	<path d="M43,54H5c-1.65,0-3,1.35-3,3v38c0,1.65,1.35,3,3,3h38c1.65,0,3-1.35,3-3V57C46,55.35,44.65,54,43,54z M42,94H6V58h36V94z"
		/>
	<path d="M95,54H57c-1.65,0-3,1.35-3,3v38c0,1.65,1.35,3,3,3h38c1.65,0,3-1.35,3-3V57C98,55.35,96.65,54,95,54z M94,94H58V58h36V94z
		"/>
</g>
</svg>
