<?xml version="1.0" encoding="utf-8"?>
<!-- Generator: Adobe Illustrator 16.0.0, SVG Export Plug-In . SVG Version: 6.00 Build 0)  -->
<!DOCTYPE svg PUBLIC "-//W3C//DTD SVG 1.1 Tiny//EN" "http://www.w3.org/Graphics/SVG/1.1/DTD/svg11-tiny.dtd">
<svg version="1.1" baseProfile="tiny" id="Capa_1" xmlns="http://www.w3.org/2000/svg" xmlns:xlink="http://www.w3.org/1999/xlink"
	 x="0px" y="0px" width="100px" height="100px" viewBox="0 0 100 100" xml:space="preserve">
<g>
	<path d="M69,28H31c-1.65,0-3,1.35-3,3v38c0,1.65,1.35,3,3,3h38c1.65,0,3-1.35,3-3V31C72,29.35,70.65,28,69,28z M68,68H32V32h36V68z
		"/>
	<polygon points="48,56 52,56 52,52 56,52 56,48 52,48 52,44 48,44 48,48 44,48 44,52 48,52 	"/>
</g>
</svg>
