<?xml version="1.0" encoding="utf-8"?>
<!-- Generator: Adobe Illustrator 16.0.0, SVG Export Plug-In . SVG Version: 6.00 Build 0)  -->
<!DOCTYPE svg PUBLIC "-//W3C//DTD SVG 1.1//EN" "http://www.w3.org/Graphics/SVG/1.1/DTD/svg11.dtd">
<svg version="1.1" id="Capa_1" xmlns="http://www.w3.org/2000/svg" xmlns:xlink="http://www.w3.org/1999/xlink" x="0px" y="0px"
	 width="6.344px" height="28px" viewBox="0 0 6.344 28" enable-background="new 0 0 6.344 28" xml:space="preserve">
<g id="icomoon-ignore">
	<line fill="none" stroke="#449FDB" x1="3.172" y1="0" x2="3.172" y2="0"/>
</g>
<path d="M0.694,16.8V8.14h1.047v3.506c0.255-0.272,0.538-0.487,0.846-0.65c0.312-0.162,0.666-0.244,1.07-0.244
	c0.324,0,0.613,0.053,0.861,0.162c0.25,0.106,0.457,0.26,0.625,0.459s0.293,0.437,0.377,0.714c0.088,0.277,0.129,0.585,0.129,0.924
	v3.788H4.603v-3.791c0-0.451-0.104-0.801-0.308-1.05s-0.521-0.372-0.943-0.372c-0.312,0-0.6,0.076-0.868,0.224
	c-0.27,0.148-0.515,0.35-0.745,0.605V16.8H0.694z"/>
</svg>
