<?xml version="1.0" encoding="utf-8"?>
<!-- Generator: Adobe Illustrator 16.0.0, SVG Export Plug-In . SVG Version: 6.00 Build 0)  -->
<!DOCTYPE svg PUBLIC "-//W3C//DTD SVG 1.1 Tiny//EN" "http://www.w3.org/Graphics/SVG/1.1/DTD/svg11-tiny.dtd">
<svg version="1.1" baseProfile="tiny" id="Capa_1" xmlns="http://www.w3.org/2000/svg" xmlns:xlink="http://www.w3.org/1999/xlink"
	 x="0px" y="0px" width="100px" height="100px" viewBox="0 0 100 100" xml:space="preserve">
<path d="M94,33c0.01-5.19-5.68-7.52-10.04-5.69c0-2.89-0.01-5.78-0.01-8.67c0-1.71-0.01-3.39-0.99-4.88
	c-1.92-2.93-5.97-3.38-8.96-1.98c0-3.84-2.83-6.62-6.66-6.78c-3.67-0.15-7.1,2.27-7.32,6.09C55.62,9.28,49.99,11.87,50,17
	c0,2.18,0,4.37,0,6.55c0,8.82,0,17.63,0,26.45h-7.3l-8.92,20.07L46.79,95c7.7,0,15.4,0,23.09,0c3.53,0,7.05,0,10.58,0
	c1.6,0,3.22,0.06,4.75-0.51c2.78-1.03,3.99-3.7,4.6-6.4c1.15-5.1,1.69-10.38,2.35-15.56c0.72-5.68,1.5-11.4,1.8-17.13
	C94.19,51.1,94,46.75,94,42.45C94,39.3,94,36.15,94,33L94,33z M90,52.62c0,0.57,0,1.14,0,1.71l0,0c-0.12,5.33-0.93,10.69-1.59,15.97
	c-0.67,5.44-1.3,10.92-2.37,16.3v0c-0.22,1.11-0.47,2.36-1.14,3.3C84.22,90.84,83.08,91,82,91c-0.86,0-1.71,0-2.57,0
	c-3.25,0-6.5,0-9.74,0c-6.73,0-13.45,0-20.18,0c-0.1,0-0.2,0-0.3,0L38.22,69.93L45.3,54H50c0,5.33,0,10.67,0,16h4
	c0-9.21,0-18.43,0-27.64c0-6.25,0-12.5,0-18.75c0-1.86,0-3.71,0-5.57c0-0.79-0.09-1.68,0.37-2.37C55.75,13.6,59.99,14.29,60,17
	c0,11.33,0,22.67,0,34h4c0-10.59,0-21.19,0-31.78c0-0.74,0-1.48,0-2.22c0-1.3,0-2.6,0-3.9c0-0.85-0.15-1.91,0.23-2.69
	c1.07-2.19,5.48-1.83,5.75,0.76c0.23,2.18,0.02,4.49,0.02,6.67c0,5.1,0,28.76,0,35.48h4c0-5.41,0-24.97,0-29.35
	c0-1.91,0-3.82,0-5.72c0-1.22,0.38-2.17,1.5-2.77c1.08-0.58,2.78-0.76,3.78,0.1c0.95,0.81,0.67,2.74,0.68,3.88
	c0,2.33,0.01,4.66,0.01,6.98C79.97,32.82,80,52.12,80,55.39l4,0c0-4.78,0-19.23,0-21.67c0-0.86-0.01-1.68,0.74-2.29
	c1.67-1.37,5.26-0.99,5.26,1.63C90,39.57,90.01,46.1,90,52.62C90,53.14,90,51.6,90,52.62z"/>
</svg>
