<?xml version="1.0" encoding="utf-8"?>
<!-- Generated by IcoMoon.io -->
<!DOCTYPE svg PUBLIC "-//W3C//DTD SVG 1.1//EN" "http://www.w3.org/Graphics/SVG/1.1/DTD/svg11.dtd">
<svg version="1.1" xmlns="http://www.w3.org/2000/svg" xmlns:xlink="http://www.w3.org/1999/xlink" width="32" height="32" viewBox="0 0 32 32">
<g id="icomoon-ignore">
	<line stroke-width="1" x1="" y1="" x2="" y2="" stroke="#449FDB" opacity=""></line>
</g>
	<path d="M31.363 11.107c-0.662-1.408-2.675-1.613-3.619-0.39-0.438 0.566-0.618 1.366-0.854 2.032 0.189-1.571 0.378-3.146 0.566-4.717 0.064-0.541 0.166-1.088 0.189-1.632 0.032-0.829-0.355-1.622-1.053-2.077-0.704-0.458-1.661-0.518-2.365-0.029-0.502 0.349-0.787 0.925-0.867 1.52v-0.003l-0.73 5.139c-0.115-2.234-0.176-4.483-0.384-6.71v0c-0.128-1.373-1.402-2.154-2.71-1.894-0.608 0.122-1.184 0.458-1.53 0.979-0.326 0.49-0.342 1.011-0.294 1.574 0.221 2.566 0.317 5.149 0.451 7.722-0.653-1.997-1.325-3.987-1.946-5.997v0c-0.342-1.133-1.523-1.645-2.63-1.363-1.194 0.304-2.032 1.453-1.651 2.685v0c0.966 3.13 1.917 6.262 2.874 9.395 0.166 0.544 0.374 1.050 0.368 1.616-0.003 0.586-0.006 1.171-0.010 1.757-0.003 0.522 0.080 1.069-0.49 1.334-0.81 0.378-1.402-0.262-1.91-0.79-0.483-0.499-0.986-0.982-1.482-1.469-0.502-0.493-0.973-1.098-1.67-1.306-1.283-0.384-2.781 0.349-3.792 1.107l-0.112 0.915c1.974 2.429 3.946 4.858 5.92 7.286 0.79 0.973 1.584 1.949 2.374 2.922 0.086 0.106 0.41 0.269 0.538 0.269 0.608 0 1.219 0 1.827 0 1.347 0 2.694 0 4.045 0 1.405 0 2.813 0 4.218 0 0.534 0 1.094 0.042 1.613-0.102 1.091-0.301 1.507-1.315 1.712-2.333v0c0.291-1.459 0.531-2.928 0.765-4.397 0.266-1.667 0.544-3.344 0.688-5.027 0.026-0.298 0.032-0.57 0.125-0.854 0.093-0.288 0.189-0.573 0.282-0.858 0.25-0.742 0.502-1.482 0.755-2.224 0.256-0.749 0.512-1.498 0.771-2.246 0.208-0.605 0.304-1.226 0.019-1.834-0.182-0.387 0.118 0.256 0 0zM29.45 18.477v0c0 0 0 0 0 0v0zM29.216 15.19c-0.298 0.874-0.598 1.747-0.883 2.627-0.195 0.605-0.195 1.206-0.266 1.837-0.179 1.616-0.435 3.229-0.698 4.835-0.208 1.274-0.413 2.547-0.669 3.811-0.070 0.355-0.15 0.755-0.365 1.056-0.218 0.298-0.582 0.349-0.928 0.349-0.269 0-0.541 0-0.81 0-3.254 0-6.512 0-9.766 0l-7.677-9.45c0.448-0.256 0.934-0.483 1.45-0.566 0.608-0.096 0.906 0.144 1.315 0.55 0.736 0.73 1.52 1.43 2.208 2.208v0c1.075 1.229 3.315 1.427 4.125-0.224 0.317-0.646 0.198-1.485 0.202-2.182 0.003-0.426 0.006-0.854 0.006-1.28 0-0.154 0.019-0.33-0.026-0.48-0.39-1.27-0.778-2.541-1.165-3.811-0.595-1.942-1.187-3.885-1.782-5.827-0.176-0.573-0.637-1.45-0.058-1.907 0.317-0.253 0.819-0.368 1.197-0.186 0.282 0.134 0.355 0.419 0.442 0.691 0.237 0.746 0.48 1.491 0.723 2.237 0.57 1.747 1.139 3.494 1.712 5.242 0.221 0.672 0.442 1.347 0.662 2.019 0.077 0.237 0.278 0.592 0.278 0.845l1.248-0.23c0-0.522-0.051-1.050-0.080-1.571-0.064-1.254-0.128-2.509-0.195-3.766-0.070-1.338-0.141-2.672-0.218-4.010-0.067-1.152-0.090-2.32-0.23-3.466v0c-0.099-0.768 0.886-1.12 1.494-0.899 0.611 0.224 0.538 0.989 0.57 1.52 0.083 1.328 0.154 2.653 0.224 3.981 0.086 1.619 0.17 3.235 0.253 4.854 0.038 0.723 0.074 1.446 0.109 2.166 0.026 0.477-0.019 1.021 0.074 1.491l1.274 0.058c0.448-3.155 0.896-6.314 1.344-9.469 0.090-0.64 0.182-1.277 0.272-1.917 0.016-0.109 0.032-0.218 0.048-0.33 0.099-0.694 0.755-0.998 1.341-0.547 0.515 0.397 0.39 0.995 0.323 1.542-0.086 0.72-0.173 1.443-0.259 2.163-0.365 3.050-0.733 6.099-1.098 9.152l1.238 0.291c0.512-1.44 1.024-2.883 1.533-4.323 0.262-0.736 0.522-1.469 0.784-2.205 0.093-0.259 0.182-0.528 0.403-0.71 0.662-0.55 1.587 0.166 1.318 0.944-0.339 0.96-0.669 1.923-0.998 2.886-0.253 0.742 0.477-1.389 0 0z" fill="#000000"></path>
</svg>
