<?xml version="1.0" encoding="utf-8"?>
<!-- Generator: Adobe Illustrator 16.0.0, SVG Export Plug-In . SVG Version: 6.00 Build 0)  -->
<!DOCTYPE svg PUBLIC "-//W3C//DTD SVG 1.1 Tiny//EN" "http://www.w3.org/Graphics/SVG/1.1/DTD/svg11-tiny.dtd">
<svg version="1.1" baseProfile="tiny" id="Capa_1" xmlns="http://www.w3.org/2000/svg" xmlns:xlink="http://www.w3.org/1999/xlink"
	 x="0px" y="0px" width="100px" height="100px" viewBox="0 0 100 100" xml:space="preserve">
<g>
	<path d="M93.99,53.74c-0.03-0.91-0.23-1.77-0.6-2.53c-0.6-1.25-1.61-2.17-2.72-2.73c-1.11-0.57-2.32-0.82-3.53-0.82
		c-1.14,0-2.28,0.24-3.33,0.71c-0.1-0.43-0.24-0.84-0.43-1.22c-0.61-1.27-1.62-2.22-2.74-2.81c-1.13-0.59-2.36-0.86-3.6-0.86
		c-1.12,0-2.25,0.23-3.29,0.71c-0.1-0.36-0.22-0.71-0.38-1.04c-0.62-1.27-1.64-2.21-2.76-2.8c-1.13-0.59-2.37-0.86-3.61-0.86
		c-1.02,0-2.04,0.19-3,0.58c0-9.01,0-20.69,0-23.08c0-1.03-0.22-2-0.63-2.84c-0.62-1.27-1.64-2.21-2.76-2.8
		c-1.13-0.59-2.37-0.86-3.61-0.86c-1.64,0-3.32,0.48-4.69,1.56c-0.68,0.54-1.27,1.25-1.68,2.09C50.22,15,50,15.97,50,17
		c0,3.78,0,47.13,0,48c0,0.61-0.26,1.15-0.81,1.62c-0.54,0.47-1.35,0.79-2.24,0.79c-1.08-0.01-2.27-0.42-3.45-1.74
		c-0.39-0.44-0.89-0.96-1.48-1.56c-1.78-1.81-4.41-4.33-6.6-6.53c-0.71-0.71-1.54-1.22-2.4-1.53c-0.86-0.31-1.74-0.43-2.58-0.43
		c-1.27,0-2.48,0.26-3.6,0.62c-1.67,0.54-3.15,1.32-4.23,1.96c-1.08,0.64-1.77,1.16-1.81,1.19l-1.66,1.25L47.05,95H48
		c0,0,1.88,0,4.75,0C61.38,95,79,95,82,95c1.17,0,2.24-0.15,3.21-0.51c0.73-0.27,1.4-0.67,1.96-1.16c0.85-0.75,1.44-1.69,1.86-2.68
		c0.42-1,0.7-2.08,0.93-3.26v0c0.33-1.65,0.73-4.16,1.16-7.12c0.64-4.43,1.33-9.85,1.88-14.67c0.27-2.41,0.51-4.67,0.69-6.59
		c0.17-1.92,0.29-3.49,0.31-4.58v0c0-0.17,0.01-0.28,0.01-0.36l0-0.15C94,53.88,94,53.84,93.99,53.74z M90,54.34L90,54.34
		c-0.03,1.21-0.21,3.5-0.49,6.29c-0.42,4.19-1.06,9.53-1.71,14.41c-0.65,4.87-1.31,9.3-1.77,11.57c-0.18,0.92-0.38,1.68-0.61,2.26
		c-0.17,0.44-0.35,0.78-0.53,1.03c-0.28,0.38-0.53,0.58-0.94,0.77C83.55,90.86,82.93,91,82,91c-3.58,0-27.95,0-33.05,0L24.96,61.47
		c0.24-0.14,0.5-0.28,0.77-0.42c0.73-0.38,1.56-0.75,2.38-1.01c0.82-0.26,1.64-0.42,2.32-0.42c0.47,0,0.87,0.07,1.21,0.19
		c0.35,0.13,0.64,0.3,0.93,0.6c1.49,1.49,3.15,3.11,4.61,4.54c0.73,0.72,1.4,1.39,1.97,1.96c0.57,0.58,1.04,1.07,1.33,1.4
		c1.84,2.1,4.23,3.1,6.45,3.09c1.83,0,3.54-0.64,4.85-1.76C53.1,68.55,54,66.88,54,65c0-0.87,0-44.22,0-48
		c0-0.47,0.09-0.81,0.23-1.09c0.2-0.42,0.53-0.74,1.02-1c0.48-0.25,1.11-0.41,1.75-0.4c0.86,0,1.68,0.27,2.19,0.69
		c0.26,0.21,0.45,0.44,0.58,0.72C59.91,16.19,60,16.53,60,17c0,2.97,0,20.29,0,29c0,3.48,0,2.69,0,5h4c0,0,0-1.99,0-5
		c0-0.47,0.09-0.81,0.23-1.09c0.2-0.42,0.53-0.74,1.02-1c0.48-0.25,1.11-0.41,1.75-0.4c0.86,0,1.68,0.27,2.19,0.69
		c0.26,0.21,0.45,0.44,0.58,0.72C69.91,45.19,70,45.53,70,46c0,1.47,0,2.84,0,4v3.32h4c0,0,0-1.33,0-3.32c0-0.47,0.09-0.8,0.23-1.09
		c0.21-0.42,0.54-0.75,1.04-1.02c0.49-0.26,1.13-0.41,1.77-0.41c0.85,0,1.66,0.27,2.16,0.68c0.25,0.21,0.44,0.43,0.58,0.72
		C79.91,49.17,80,49.52,80,50v4v1.38h4V54c0-0.41,0.08-0.69,0.22-0.95c0.2-0.38,0.55-0.72,1.07-0.98c0.52-0.26,1.19-0.42,1.85-0.41
		c0.85,0,1.65,0.26,2.11,0.64c0.24,0.19,0.41,0.4,0.54,0.66c0.12,0.26,0.23,0.62,0.23,1.08C90.02,54.03,90,54.18,90,54.34z"/>
</g>
</svg>
