<?xml version="1.0" encoding="utf-8"?>
<!-- Generator: Adobe Illustrator 16.0.0, SVG Export Plug-In . SVG Version: 6.00 Build 0)  -->
<!DOCTYPE svg PUBLIC "-//W3C//DTD SVG 1.1 Tiny//EN" "http://www.w3.org/Graphics/SVG/1.1/DTD/svg11-tiny.dtd">
<svg version="1.1" baseProfile="tiny" id="Capa_1" xmlns="http://www.w3.org/2000/svg" xmlns:xlink="http://www.w3.org/1999/xlink"
	 x="0px" y="0px" width="100px" height="100px" viewBox="0 0 100 100" xml:space="preserve">
<g>
	<path d="M48,95c0,0,1.88,0,4.75,0C61.38,95,79,95,82,95c1.17,0,2.24-0.15,3.21-0.51c0.73-0.27,1.4-0.67,1.96-1.16
		c0.85-0.75,1.44-1.69,1.86-2.68c0.42-1,0.7-2.08,0.93-3.26v0c0.33-1.65,0.73-4.16,1.16-7.12c0.64-4.43,1.33-9.85,1.88-14.67
		c0.27-2.41,0.51-4.67,0.69-6.59c0.17-1.92,0.29-3.49,0.31-4.58v0c0-0.17,0.01-0.28,0.01-0.36l0-0.15c0-0.04,0-0.07-0.02-0.18
		c-0.03-0.91-0.23-1.77-0.6-2.53c-0.6-1.25-1.61-2.17-2.72-2.73c-1.11-0.57-2.32-0.82-3.53-0.82c-1.14,0-2.28,0.24-3.34,0.72
		c-0.1-0.42-0.24-0.83-0.43-1.2c-0.61-1.27-1.63-2.2-2.75-2.78c-1.12-0.58-2.36-0.85-3.58-0.85c-1.03,0-2.07,0.21-3.04,0.62
		c0-11.46,0-29.93,0-32.66c0-1.03-0.22-2-0.63-2.84c-0.62-1.27-1.64-2.21-2.76-2.8C69.48,5.27,68.24,5,67,5
		c-1.64,0-3.32,0.48-4.69,1.56c-0.68,0.54-1.27,1.25-1.68,2.09c-0.36,0.73-0.56,1.57-0.61,2.44c-0.97-0.4-1.99-0.6-3.02-0.6
		c-1.64,0-3.32,0.48-4.69,1.56c-0.68,0.54-1.27,1.25-1.68,2.09C50.22,15,50,15.97,50,17c0,2.2,0,19.22,0,33h-7.3l-8.92,20.07
		L46.79,95H48z M90.01,54.12 M45.3,54H50c0,7.95,0,14,0,14v2h4v-2c0,0,0-47.22,0-51c0-0.47,0.09-0.81,0.23-1.09
		c0.2-0.42,0.53-0.74,1.02-1c0.48-0.25,1.11-0.41,1.75-0.4c0.86,0,1.68,0.27,2.19,0.69c0.26,0.21,0.45,0.44,0.58,0.72
		C59.91,16.19,60,16.53,60,17c0,10.59,0,32.17,0,34h4c0,0,0-30,0-34c0-2.76,0-4.78,0-5.5c0-0.47,0.09-0.81,0.23-1.09
		c0.2-0.42,0.53-0.74,1.02-1C65.73,9.15,66.36,9,67,9c0.86,0,1.68,0.27,2.19,0.69c0.26,0.21,0.45,0.44,0.58,0.72
		C69.91,10.69,70,11.03,70,11.5c0,3.27,0,29.2,0,38.5v3.32h4c0,0,0-1.26,0-3.32c0-0.45,0.09-0.78,0.23-1.05
		c0.2-0.4,0.54-0.73,1.03-0.99c0.49-0.26,1.14-0.41,1.78-0.41c0.86,0,1.67,0.27,2.17,0.67c0.25,0.2,0.44,0.43,0.57,0.7
		C79.91,49.19,80,49.53,80,50v4v1.38h4V54c0-0.41,0.08-0.69,0.22-0.95c0.2-0.38,0.55-0.72,1.07-0.98c0.52-0.26,1.19-0.42,1.85-0.41
		c0.85,0,1.65,0.26,2.11,0.64c0.24,0.19,0.41,0.4,0.54,0.66C89.91,53.21,90,53.54,90,54l0,0.05v0c0,0,0,0.12,0,0.28v0
		c-0.03,1.21-0.21,3.51-0.49,6.29c-0.42,4.19-1.06,9.53-1.71,14.41c-0.65,4.87-1.31,9.3-1.77,11.57v0
		c-0.18,0.92-0.38,1.68-0.61,2.27c-0.17,0.44-0.35,0.78-0.53,1.03c-0.28,0.38-0.53,0.58-0.94,0.77C83.55,90.86,82.93,91,82,91
		c-3.52,0-27.15,0-32.79,0L38.22,69.93L45.3,54z"/>
</g>
</svg>
