<?xml version="1.0" encoding="utf-8"?>
<!-- Generator: Adobe Illustrator 16.0.0, SVG Export Plug-In . SVG Version: 6.00 Build 0)  -->
<!DOCTYPE svg PUBLIC "-//W3C//DTD SVG 1.1 Tiny//EN" "http://www.w3.org/Graphics/SVG/1.1/DTD/svg11-tiny.dtd">
<svg version="1.1" baseProfile="tiny" id="Capa_1" xmlns="http://www.w3.org/2000/svg" xmlns:xlink="http://www.w3.org/1999/xlink"
	 x="0px" y="0px" width="100px" height="100px" viewBox="0 0 100 100" xml:space="preserve">
<path d="M93.99,53.74c-0.18-5.05-5.99-7.24-10.19-5.36c-1.06-4.28-6.29-5.81-10.03-4.11c-1.09-4.11-6.08-5.7-9.77-4.18
	c0-6.52,0-13.03,0-19.55c0-2.62,0.34-5.58-1.52-7.71c-1.16-1.33-2.84-2.08-4.58-2.26c-3.55-0.36-7.31,1.71-7.84,5.46
	c-0.2,1.43-0.07,2.92-0.07,4.36c0,1.7,0,3.39,0,5.09c0,3.3,0,6.6,0,9.89c0,3.03,0,6.07,0,9.1c0,1.45,0,2.9,0,4.35
	c0,0.86,0.29,1.19-0.52,1.19c-2.26,0-4.52,0-6.78,0l-8.92,20.07L46.79,95c6.64,0,13.27,0,19.91,0c3.28,0,6.57,0,9.85,0
	c1.55,0,3.11,0,4.66,0c1.54,0,3.13-0.06,4.55-0.74c2.12-1.02,3.26-3.18,3.87-5.37c0.82-2.96,1.24-6.06,1.65-9.1
	c0.88-6.4,1.64-12.84,2.27-19.27c0.23-2.36,0.59-4.79,0.43-7.16C93.98,53.49,93.97,53.62,93.99,53.74
	C93.8,48.61,94,53.84,93.99,53.74z M90,54.06c0,0.03,0,0.12,0,0.28l0,0c-0.12,5.49-0.97,10.92-1.64,16.36
	c-0.66,5.32-1.28,10.65-2.33,15.91c-0.24,1.19-0.47,2.62-1.34,3.54C83.73,91.16,82.17,91,80.9,91c-3.22,0-6.43,0-9.65,0
	c-6.58,0-13.17,0-19.76,0c-0.35,0-2.17,0.21-2.31-0.07c-0.1-0.2-0.21-0.39-0.31-0.59c-0.44-0.84-0.88-1.69-1.32-2.53
	c-1.41-2.71-2.83-5.42-4.24-8.13c-1.69-3.25-3.39-6.49-5.08-9.74L45.3,54H50c0,4.55,0,9.11,0,13.66c0,0.33-0.12,2.34,0.11,2.34
	c0.43,0,0.86,0,1.3,0c0.86,0,1.73,0,2.59,0c0-13.2,0-26.41,0-39.61c0-3.32,0-6.64,0-9.97c0-2.13-0.63-5.28,2.11-5.88
	c1.51-0.33,3.55,0.33,3.85,2.04c0.24,1.38,0.04,2.96,0.04,4.36c0,1.71,0,3.43,0,5.14c0,6.06,0,12.12,0,18.19c0,1.45,0,2.9,0,4.35
	c0,0.79,0,1.58,0,2.37c0.06,0.05,0.35,0,0.42,0c1.19,0,2.39,0,3.58,0c0-1.54,0-3.08,0-4.61c0-1.01,0.3-1.98,1.25-2.48
	c1.05-0.55,2.43-0.56,3.48-0.02c1.06,0.55,1.27,1.56,1.28,2.66c0,1.41,0,2.83,0,4.24c0,0.72,0,1.45,0,2.17
	c0,0.45-0.05,0.36,0.3,0.36c1.24,0,2.47,0,3.7,0c0-1.94-0.63-4.72,1.67-5.55c1.43-0.52,3.67-0.25,4.21,1.41
	c0.4,1.24,0.12,2.69,0.12,3.97c0,0.74,0,1.49,0,2.23c0.06,0.04,0.35,0,0.42,0c1.19,0,2.39,0,3.58,0c0-0.88-0.09-1.89,0.46-2.63
	c0.5-0.69,1.42-0.99,2.24-1.07C88.29,51.52,89.97,52.27,90,54.06L90,54.06z"/>
<line x1="90" y1="54.05" x2="90" y2="54.06"/>
</svg>
