<?xml version="1.0" encoding="utf-8"?>
<!-- Generator: Adobe Illustrator 16.0.0, SVG Export Plug-In . SVG Version: 6.00 Build 0)  -->
<!DOCTYPE svg PUBLIC "-//W3C//DTD SVG 1.1//EN" "http://www.w3.org/Graphics/SVG/1.1/DTD/svg11.dtd">
<svg version="1.1" id="Capa_1" xmlns="http://www.w3.org/2000/svg" xmlns:xlink="http://www.w3.org/1999/xlink" x="0px" y="0px"
	 width="2.833px" height="28px" viewBox="0 0 2.833 28" enable-background="new 0 0 2.833 28" xml:space="preserve">
<g id="icomoon-ignore">
	<line fill="none" stroke="#449FDB" x1="1.417" y1="0" x2="1.417" y2="0"/>
</g>
<path d="M2.163,8.974c0,0.101-0.02,0.196-0.062,0.286C2.06,9.35,2.007,9.428,1.937,9.495c-0.07,0.07-0.148,0.123-0.238,0.162
	c-0.09,0.036-0.186,0.059-0.286,0.059s-0.196-0.02-0.286-0.059c-0.09-0.039-0.168-0.092-0.235-0.162
	C0.821,9.428,0.768,9.349,0.729,9.26C0.69,9.173,0.67,9.078,0.67,8.974c0-0.101,0.021-0.199,0.06-0.291
	c0.038-0.092,0.092-0.174,0.161-0.241c0.067-0.07,0.148-0.123,0.235-0.162c0.087-0.039,0.182-0.059,0.286-0.059
	c0.104,0,0.199,0.02,0.288,0.059c0.09,0.039,0.171,0.092,0.238,0.162c0.066,0.07,0.123,0.148,0.165,0.241
	C2.142,8.775,2.162,8.873,2.163,8.974L2.163,8.974z M1.931,10.844V16.8H0.884v-5.956H1.931z"/>
</svg>
