<?xml version="1.0" encoding="utf-8"?>
<!-- Generated by IcoMoon.io -->
<!DOCTYPE svg PUBLIC "-//W3C//DTD SVG 1.1//EN" "http://www.w3.org/Graphics/SVG/1.1/DTD/svg11.dtd">
<svg version="1.1" xmlns="http://www.w3.org/2000/svg" xmlns:xlink="http://www.w3.org/1999/xlink" width="2" height="28" viewBox="0 0 2 28">
<g id="icomoon-ignore">
	<line stroke-width="1" x1="" y1="" x2="" y2="" stroke="#449FDB" opacity=""></line>
</g>
	<path d="M1.842 8.974c0 0.101-0.020 0.196-0.062 0.286s-0.095 0.168-0.165 0.235c-0.070 0.070-0.148 0.123-0.238 0.162-0.090 0.036-0.185 0.059-0.286 0.059s-0.196-0.020-0.286-0.059-0.168-0.092-0.235-0.162c-0.070-0.067-0.123-0.146-0.162-0.235-0.039-0.087-0.059-0.182-0.059-0.286 0-0.101 0.020-0.199 0.059-0.291s0.092-0.174 0.162-0.241c0.067-0.070 0.148-0.123 0.235-0.162s0.182-0.059 0.286-0.059 0.199 0.020 0.288 0.059c0.090 0.039 0.171 0.092 0.238 0.162s0.123 0.148 0.165 0.241c0.039 0.092 0.059 0.19 0.059 0.291zM1.61 10.844v5.956h-1.047v-5.956h1.047z" opacity="1" visibility="false" fill="#000000"></path>
</svg>
