<?xml version="1.0" encoding="utf-8"?>
<!-- Generated by IcoMoon.io -->
<!DOCTYPE svg PUBLIC "-//W3C//DTD SVG 1.1//EN" "http://www.w3.org/Graphics/SVG/1.1/DTD/svg11.dtd">
<svg version="1.1" xmlns="http://www.w3.org/2000/svg" xmlns:xlink="http://www.w3.org/1999/xlink" width="3" height="28" viewBox="0 0 3 28">
<g id="icomoon-ignore">
	<line stroke-width="1" x1="" y1="" x2="" y2="" stroke="#449FDB" opacity=""></line>
</g>
	<path d="M2.565 10.842v6.398c0 0.238-0.031 0.462-0.095 0.666-0.062 0.207-0.162 0.386-0.297 0.538-0.134 0.154-0.311 0.274-0.524 0.361s-0.47 0.132-0.767 0.132c-0.129 0-0.246-0.008-0.353-0.028s-0.213-0.048-0.316-0.090l0.048-0.566c0.008-0.050 0.025-0.084 0.053-0.098s0.070-0.020 0.129-0.020c0.031 0 0.064 0 0.101 0s0.078 0 0.129 0c0.305 0 0.524-0.073 0.652-0.216s0.193-0.372 0.193-0.692v-6.387h1.047zM2.8 8.974c0 0.101-0.020 0.196-0.062 0.286s-0.095 0.168-0.165 0.235c-0.070 0.070-0.148 0.123-0.238 0.162s-0.185 0.059-0.288 0.059-0.196-0.020-0.286-0.059-0.168-0.092-0.235-0.162c-0.070-0.067-0.123-0.146-0.162-0.235-0.039-0.087-0.059-0.182-0.059-0.286 0-0.101 0.020-0.199 0.059-0.291s0.092-0.174 0.162-0.241c0.067-0.070 0.148-0.123 0.235-0.162s0.182-0.059 0.286-0.059 0.199 0.020 0.288 0.059c0.090 0.039 0.171 0.092 0.238 0.162s0.123 0.148 0.165 0.241c0.042 0.092 0.062 0.19 0.062 0.291z" opacity="1" visibility="false" fill="#000000"></path>
</svg>
