<?xml version="1.0" encoding="utf-8"?>
<!-- Generator: Adobe Illustrator 16.0.0, SVG Export Plug-In . SVG Version: 6.00 Build 0)  -->
<!DOCTYPE svg PUBLIC "-//W3C//DTD SVG 1.1//EN" "http://www.w3.org/Graphics/SVG/1.1/DTD/svg11.dtd">
<svg version="1.1" id="Capa_1" xmlns="http://www.w3.org/2000/svg" xmlns:xlink="http://www.w3.org/1999/xlink" x="0px" y="0px"
	 width="3.562px" height="28px" viewBox="0 0 3.562 28" enable-background="new 0 0 3.562 28" xml:space="preserve">
<g id="icomoon-ignore">
	<line fill="none" stroke="#449FDB" x1="1.781" y1="0" x2="1.781" y2="0"/>
</g>
<path d="M2.84,10.842v6.398c0,0.238-0.031,0.462-0.094,0.666c-0.062,0.207-0.162,0.386-0.299,0.537
	c-0.133,0.154-0.311,0.274-0.523,0.361c-0.213,0.088-0.47,0.133-0.767,0.133c-0.129,0-0.246-0.008-0.353-0.028
	c-0.107-0.021-0.213-0.048-0.316-0.091l0.048-0.565c0.008-0.05,0.025-0.084,0.053-0.098c0.028-0.015,0.07-0.021,0.129-0.021
	c0.031,0,0.064,0,0.101,0s0.078,0,0.129,0c0.305,0,0.524-0.072,0.652-0.216c0.128-0.144,0.193-0.372,0.193-0.692V10.84H2.84V10.842z
	 M3.074,8.974c0,0.101-0.02,0.196-0.061,0.286C2.971,9.35,2.918,9.428,2.848,9.495c-0.07,0.07-0.148,0.123-0.238,0.162
	C2.52,9.696,2.426,9.716,2.322,9.716s-0.196-0.02-0.286-0.059c-0.09-0.039-0.168-0.092-0.235-0.162
	C1.731,9.428,1.678,9.349,1.639,9.26C1.6,9.173,1.58,9.078,1.58,8.974c0-0.101,0.02-0.199,0.059-0.291
	c0.039-0.092,0.092-0.174,0.162-0.241c0.067-0.07,0.148-0.123,0.235-0.162c0.087-0.039,0.182-0.059,0.286-0.059
	c0.104,0,0.199,0.02,0.287,0.059c0.09,0.039,0.172,0.092,0.238,0.162c0.068,0.07,0.123,0.148,0.166,0.241
	C3.055,8.775,3.074,8.873,3.074,8.974z"/>
</svg>
