<?xml version="1.0" encoding="utf-8"?>
<!-- Generated by IcoMoon.io -->
<!DOCTYPE svg PUBLIC "-//W3C//DTD SVG 1.1//EN" "http://www.w3.org/Graphics/SVG/1.1/DTD/svg11.dtd">
<svg version="1.1" xmlns="http://www.w3.org/2000/svg" xmlns:xlink="http://www.w3.org/1999/xlink" width="6" height="28" viewBox="0 0 6 28">
<g id="icomoon-ignore">
	<line stroke-width="1" x1="" y1="" x2="" y2="" stroke="#449FDB" opacity=""></line>
</g>
	<path d="M1.436 8.14v5.099h0.272c0.078 0 0.143-0.011 0.193-0.034s0.109-0.064 0.171-0.132l1.882-2.016c0.059-0.062 0.118-0.115 0.176-0.154s0.137-0.059 0.235-0.059h0.952l-2.192 2.335c-0.056 0.067-0.109 0.126-0.162 0.176s-0.112 0.095-0.179 0.134c0.070 0.048 0.134 0.101 0.19 0.162s0.112 0.129 0.162 0.21l2.33 2.937h-0.941c-0.087 0-0.16-0.017-0.221-0.050s-0.118-0.084-0.174-0.157l-1.957-2.439c-0.059-0.081-0.118-0.137-0.176-0.162s-0.146-0.039-0.263-0.039h-0.297v2.848h-1.053v-8.66h1.053z" opacity="1" visibility="false" fill="#000000"></path>
</svg>
