<?xml version="1.0" encoding="utf-8"?>
<!-- Generator: Adobe Illustrator 16.0.0, SVG Export Plug-In . SVG Version: 6.00 Build 0)  -->
<!DOCTYPE svg PUBLIC "-//W3C//DTD SVG 1.1//EN" "http://www.w3.org/Graphics/SVG/1.1/DTD/svg11.dtd">
<svg version="1.1" id="Capa_1" xmlns="http://www.w3.org/2000/svg" xmlns:xlink="http://www.w3.org/1999/xlink" x="0px" y="0px"
	 width="6.406px" height="28px" viewBox="-0.406 0 6.406 28" enable-background="new -0.406 0 6.406 28" xml:space="preserve">
<g id="icomoon-ignore">
	<line fill="none" stroke="#449FDB" x1="2.797" y1="0" x2="2.797" y2="0"/>
</g>
<path d="M1.308,8.14v5.099H1.58c0.078,0,0.143-0.011,0.193-0.034c0.05-0.023,0.109-0.064,0.171-0.132l1.882-2.016
	c0.06-0.062,0.118-0.115,0.176-0.154c0.058-0.039,0.138-0.059,0.235-0.059h0.951l-2.191,2.335c-0.056,0.067-0.109,0.126-0.162,0.176
	c-0.053,0.05-0.112,0.095-0.179,0.134c0.07,0.048,0.134,0.101,0.19,0.162c0.056,0.061,0.112,0.129,0.162,0.21l2.33,2.937h-0.94
	c-0.088,0-0.16-0.017-0.221-0.05c-0.062-0.033-0.119-0.084-0.175-0.157l-1.957-2.439c-0.059-0.081-0.118-0.137-0.176-0.162
	c-0.058-0.025-0.146-0.039-0.263-0.039H1.309v2.848H0.256v-8.66L1.308,8.14L1.308,8.14z"/>
</svg>
