<?xml version="1.0" encoding="utf-8"?>
<!-- Generated by IcoMoon.io -->
<!DOCTYPE svg PUBLIC "-//W3C//DTD SVG 1.1//EN" "http://www.w3.org/Graphics/SVG/1.1/DTD/svg11.dtd">
<svg version="1.1" xmlns="http://www.w3.org/2000/svg" xmlns:xlink="http://www.w3.org/1999/xlink" width="32" height="32" viewBox="0 0 32 32">
<g>
	<line stroke-width="1" x1="" y1="" x2="" y2="" stroke="#449FDB" opacity=""></line>
</g>
	<path d="M12.778 17.482c0-0.352-0.256-0.512-0.573-0.355l-2.016 1.008c-0.314 0.157-0.314 0.416 0 0.573l2.016 1.008c0.314 0.157 0.573-0.003 0.573-0.355v-1.878z" fill="#000000"></path>
	<path d="M15.059 16.842c-0.352 0-0.512 0.256-0.355 0.573l1.008 2.016c0.157 0.314 0.416 0.314 0.573 0l1.008-2.016c0.157-0.314-0.003-0.573-0.355-0.573h-1.878z" fill="#000000"></path>
	<path d="M19.222 19.363c0 0.352 0.256 0.512 0.573 0.355l2.016-1.008c0.314-0.157 0.314-0.416 0-0.573l-2.016-1.008c-0.314-0.157-0.573 0.003-0.573 0.355v1.878z" fill="#000000"></path>
	<path d="M16.941 15.158c0.352 0 0.512-0.256 0.355-0.573l-1.008-2.016c-0.157-0.314-0.416-0.314-0.573 0l-1.008 2.016c-0.157 0.314 0.003 0.573 0.355 0.573h1.878z" fill="#000000"></path>
</svg>
