<?xml version="1.0" encoding="utf-8"?>
<!-- Generated by IcoMoon.io -->
<!DOCTYPE svg PUBLIC "-//W3C//DTD SVG 1.1//EN" "http://www.w3.org/Graphics/SVG/1.1/DTD/svg11.dtd">
<svg version="1.1" xmlns="http://www.w3.org/2000/svg" xmlns:xlink="http://www.w3.org/1999/xlink" width="32" height="32" viewBox="0 0 32 32">
<g>
	<line stroke-width="1" x1="" y1="" x2="" y2="" stroke="#449FDB" opacity=""></line>
</g>
	<path d="M14.774 13.046c0 0.396-0.321 0.717-0.717 0.717s-0.717-0.321-0.717-0.717c0-0.396 0.321-0.717 0.717-0.717s0.717 0.321 0.717 0.717z" fill="#000000"></path>
	<path d="M19.789 12.509h-4.486c0.070 0.166 0.112 0.346 0.112 0.538s-0.042 0.371-0.112 0.538h4.49c0.246 0 0.467 0.099 0.634 0.262 0.163 0.166 0.262 0.387 0.262 0.634v2.867c0 0.246-0.099 0.467-0.262 0.634-0.17 0.16-0.39 0.259-0.637 0.259h-7.898c0.006-0.006 0.013-0.010 0.019-0.016 0.25-0.208 0.262-0.208 0.512-0.438 0.538-0.496-0.003-1.414-0.003-1.414l-2.64 2.4 2.653 2.384c0 0 0.538-0.918-0.003-1.411-0.25-0.227-0.227-0.176-0.506-0.429h7.869c1.088-0.003 1.968-0.883 1.971-1.971v-2.867c-0.006-1.085-0.886-1.968-1.974-1.968z" fill="#000000"></path>
</svg>
