<?xml version="1.0" encoding="utf-8"?>
<!-- Generated by IcoMoon.io -->
<!DOCTYPE svg PUBLIC "-//W3C//DTD SVG 1.1//EN" "http://www.w3.org/Graphics/SVG/1.1/DTD/svg11.dtd">
<svg version="1.1" xmlns="http://www.w3.org/2000/svg" xmlns:xlink="http://www.w3.org/1999/xlink" width="32" height="32" viewBox="0 0 32 32">
<g>
	<line stroke-width="1" x1="" y1="" x2="" y2="" stroke="#449FDB" opacity=""></line>
</g>
	<path d="M29.76 16.8h-27.52c-0.794 0.003-1.437 0.646-1.44 1.44v11.52c0.003 0.794 0.646 1.437 1.44 1.44h27.52c0.794-0.003 1.437-0.646 1.44-1.44v-11.52c-0.003-0.794-0.646-1.437-1.44-1.44zM30.099 30.099c-0.090 0.090-0.208 0.141-0.339 0.141h-27.52c-0.131 0-0.25-0.054-0.339-0.141-0.086-0.090-0.141-0.208-0.141-0.339v-11.52c0-0.131 0.054-0.25 0.141-0.339 0.090-0.086 0.208-0.141 0.339-0.141h27.52c0.131 0 0.25 0.054 0.339 0.141 0.090 0.090 0.141 0.208 0.141 0.339v11.52c0 0.131-0.054 0.25-0.141 0.339z" fill="#000000"></path>
	<path d="M6.848 27.264h-3.968c-0.176 0-0.32 0.144-0.32 0.32v1.536c0 0.176 0.144 0.32 0.32 0.32h3.968c0.176 0 0.32-0.144 0.32-0.32v-1.536c0-0.176-0.144-0.32-0.32-0.32z" fill="#000000"></path>
	<path d="M29.12 27.264h-3.968c-0.176 0-0.32 0.144-0.32 0.32v1.536c0 0.176 0.144 0.32 0.32 0.32h3.968c0.176 0 0.32-0.144 0.32-0.32v-1.536c0-0.176-0.144-0.32-0.32-0.32z" fill="#000000"></path>
	<path d="M23.744 27.264h-15.488c-0.176 0-0.32 0.144-0.32 0.32v1.536c0 0.176 0.144 0.32 0.32 0.32h15.488c0.176 0 0.32-0.144 0.32-0.32v-1.536c0-0.176-0.144-0.32-0.32-0.32z" fill="#000000"></path>
	<path d="M2.88 26.538h1.664c0.176 0 0.32-0.144 0.32-0.32v-1.536c0-0.176-0.144-0.32-0.32-0.32h-1.664c-0.176 0-0.32 0.144-0.32 0.32v1.536c0 0.176 0.144 0.32 0.32 0.32z" fill="#000000"></path>
	<path d="M7.936 24.682c0-0.176-0.144-0.32-0.32-0.32h-1.664c-0.176 0-0.32 0.144-0.32 0.32v1.536c0 0.176 0.144 0.32 0.32 0.32h1.664c0.176 0 0.32-0.144 0.32-0.32v-1.536z" fill="#000000"></path>
	<path d="M9.024 26.538h1.664c0.176 0 0.32-0.144 0.32-0.32v-1.536c0-0.176-0.144-0.32-0.32-0.32h-1.664c-0.176 0-0.32 0.144-0.32 0.32v1.536c0 0.176 0.144 0.32 0.32 0.32z" fill="#000000"></path>
	<path d="M12.096 26.538h1.664c0.176 0 0.32-0.144 0.32-0.32v-1.536c0-0.176-0.144-0.32-0.32-0.32h-1.664c-0.176 0-0.32 0.144-0.32 0.32v1.536c0 0.176 0.144 0.32 0.32 0.32z" fill="#000000"></path>
	<path d="M15.168 26.538h1.664c0.176 0 0.32-0.144 0.32-0.32v-1.536c0-0.176-0.144-0.32-0.32-0.32h-1.664c-0.176 0-0.32 0.144-0.32 0.32v1.536c0 0.176 0.144 0.32 0.32 0.32z" fill="#000000"></path>
	<path d="M18.24 26.538h1.664c0.176 0 0.32-0.144 0.32-0.32v-1.536c0-0.176-0.144-0.32-0.32-0.32h-1.664c-0.176 0-0.32 0.144-0.32 0.32v1.536c0 0.176 0.144 0.32 0.32 0.32z" fill="#000000"></path>
	<path d="M21.312 26.538h1.664c0.176 0 0.32-0.144 0.32-0.32v-1.536c0-0.176-0.144-0.32-0.32-0.32h-1.664c-0.176 0-0.32 0.144-0.32 0.32v1.536c0 0.176 0.144 0.32 0.32 0.32z" fill="#000000"></path>
	<path d="M26.368 26.218v-1.536c0-0.176-0.144-0.32-0.32-0.32h-1.664c-0.176 0-0.32 0.144-0.32 0.32v1.536c0 0.176 0.144 0.32 0.32 0.32h1.664c0.176 0 0.32-0.144 0.32-0.32z" fill="#000000"></path>
	<path d="M29.12 24.362h-1.664c-0.176 0-0.32 0.144-0.32 0.32v1.536c0 0.176 0.144 0.32 0.32 0.32h1.664c0.176 0 0.32-0.144 0.32-0.32v-1.536c0-0.176-0.144-0.32-0.32-0.32z" fill="#000000"></path>
	<path d="M2.88 20.736h1.664c0.176 0 0.32-0.144 0.32-0.32v-1.536c0-0.176-0.144-0.32-0.32-0.32h-1.664c-0.176 0-0.32 0.144-0.32 0.32v1.536c0 0.176 0.144 0.32 0.32 0.32z" fill="#000000"></path>
	<path d="M5.952 20.736h1.664c0.176 0 0.32-0.144 0.32-0.32v-1.536c0-0.176-0.144-0.32-0.32-0.32h-1.664c-0.176 0-0.32 0.144-0.32 0.32v1.536c0 0.176 0.144 0.32 0.32 0.32z" fill="#000000"></path>
	<path d="M9.024 20.736h1.664c0.176 0 0.32-0.144 0.32-0.32v-1.536c0-0.176-0.144-0.32-0.32-0.32h-1.664c-0.176 0-0.32 0.144-0.32 0.32v1.536c0 0.176 0.144 0.32 0.32 0.32z" fill="#000000"></path>
	<path d="M12.096 20.736h1.664c0.176 0 0.32-0.144 0.32-0.32v-1.536c0-0.176-0.144-0.32-0.32-0.32h-1.664c-0.176 0-0.32 0.144-0.32 0.32v1.536c0 0.176 0.144 0.32 0.32 0.32z" fill="#000000"></path>
	<path d="M15.168 20.736h1.664c0.176 0 0.32-0.144 0.32-0.32v-1.536c0-0.176-0.144-0.32-0.32-0.32h-1.664c-0.176 0-0.32 0.144-0.32 0.32v1.536c0 0.176 0.144 0.32 0.32 0.32z" fill="#000000"></path>
	<path d="M18.24 20.736h1.664c0.176 0 0.32-0.144 0.32-0.32v-1.536c0-0.176-0.144-0.32-0.32-0.32h-1.664c-0.176 0-0.32 0.144-0.32 0.32v1.536c0 0.176 0.144 0.32 0.32 0.32z" fill="#000000"></path>
	<path d="M21.312 20.736h1.664c0.176 0 0.32-0.144 0.32-0.32v-1.536c0-0.176-0.144-0.32-0.32-0.32h-1.664c-0.176 0-0.32 0.144-0.32 0.32v1.536c0 0.176 0.144 0.32 0.32 0.32z" fill="#000000"></path>
	<path d="M24.384 20.736h1.664c0.176 0 0.32-0.144 0.32-0.32v-1.536c0-0.176-0.144-0.32-0.32-0.32h-1.664c-0.176 0-0.32 0.144-0.32 0.32v1.536c0 0.176 0.144 0.32 0.32 0.32z" fill="#000000"></path>
	<path d="M29.12 18.56h-1.664c-0.176 0-0.32 0.144-0.32 0.32v1.536c0 0.176 0.144 0.32 0.32 0.32h1.664c0.176 0 0.32-0.144 0.32-0.32v-1.536c0-0.176-0.144-0.32-0.32-0.32z" fill="#000000"></path>
	<path d="M2.88 23.638h3.2c0.176 0 0.32-0.144 0.32-0.32v-1.536c0-0.176-0.144-0.32-0.32-0.32h-3.2c-0.176 0-0.32 0.144-0.32 0.32v1.536c0 0.176 0.144 0.32 0.32 0.32z" fill="#000000"></path>
	<path d="M9.472 23.318v-1.536c0-0.176-0.144-0.32-0.32-0.32h-1.664c-0.176 0-0.32 0.144-0.32 0.32v1.536c0 0.176 0.144 0.32 0.32 0.32h1.664c0.176 0 0.32-0.144 0.32-0.32z" fill="#000000"></path>
	<path d="M12.544 23.318v-1.536c0-0.176-0.144-0.32-0.32-0.32h-1.664c-0.176 0-0.32 0.144-0.32 0.32v1.536c0 0.176 0.144 0.32 0.32 0.32h1.664c0.176 0 0.32-0.144 0.32-0.32z" fill="#000000"></path>
	<path d="M15.616 23.318v-1.536c0-0.176-0.144-0.32-0.32-0.32h-1.664c-0.176 0-0.32 0.144-0.32 0.32v1.536c0 0.176 0.144 0.32 0.32 0.32h1.664c0.176 0 0.32-0.144 0.32-0.32z" fill="#000000"></path>
	<path d="M18.688 23.318v-1.536c0-0.176-0.144-0.32-0.32-0.32h-1.664c-0.176 0-0.32 0.144-0.32 0.32v1.536c0 0.176 0.144 0.32 0.32 0.32h1.664c0.176 0 0.32-0.144 0.32-0.32z" fill="#000000"></path>
	<path d="M21.76 23.318v-1.536c0-0.176-0.144-0.32-0.32-0.32h-1.664c-0.176 0-0.32 0.144-0.32 0.32v1.536c0 0.176 0.144 0.32 0.32 0.32h1.664c0.176 0 0.32-0.144 0.32-0.32z" fill="#000000"></path>
	<path d="M24.832 23.318v-1.536c0-0.176-0.144-0.32-0.32-0.32h-1.664c-0.176 0-0.32 0.144-0.32 0.32v1.536c0 0.176 0.144 0.32 0.32 0.32h1.664c0.176 0 0.32-0.144 0.32-0.32z" fill="#000000"></path>
	<path d="M29.12 21.462h-3.2c-0.176 0-0.32 0.144-0.32 0.32v1.536c0 0.176 0.144 0.32 0.32 0.32h3.2c0.176 0 0.32-0.144 0.32-0.32v-1.536c0-0.176-0.144-0.32-0.32-0.32z" fill="#000000"></path>
</svg>
