<?xml version="1.0" encoding="utf-8"?>
<!-- Generated by IcoMoon.io -->
<!DOCTYPE svg PUBLIC "-//W3C//DTD SVG 1.1//EN" "http://www.w3.org/Graphics/SVG/1.1/DTD/svg11.dtd">
<svg version="1.1" xmlns="http://www.w3.org/2000/svg" xmlns:xlink="http://www.w3.org/1999/xlink" width="32" height="32" viewBox="0 0 32 32">
<g id="icomoon-ignore">
	<line stroke-width="1" x1="" y1="" x2="" y2="" stroke="#449FDB" opacity=""></line>
</g>
	<path d="M16 11.091c1.379 0 2.637 0.909 3.072 2.214 0.48 1.44-0.144 3.062-1.456 3.824l-0.64 0.371v0.739c0 0.394 0.096 0.678-0.301 0.877-0.346 0.173-0.778 0.192-1.146 0.083-0.118-0.035-0.512-0.176-0.512-0.349v-1.347c-0.486-0.282-0.989-0.541-1.379-0.957-0.621-0.662-0.944-1.574-0.87-2.48 0.141-1.661 1.571-2.976 3.232-2.976zM16 9.811c-1.942 0-3.712 1.29-4.304 3.139-0.64 2.003 0.227 4.237 2.045 5.29 0 0.371-0.042 0.768 0.102 1.117 0.237 0.57 0.813 0.931 1.389 1.085 1.114 0.301 3.027-0.147 3.027-1.594 0-0.131 0-0.262 0-0.394 0-0.24 0.022-0.218 0.234-0.358 0.48-0.32 0.902-0.73 1.229-1.206 0.653-0.947 0.918-2.128 0.742-3.264-0.342-2.173-2.272-3.814-4.464-3.814z" fill="#000000"></path>
	<path d="M17.28 20.832c-0.374 0.323-0.906 0.445-1.392 0.422-0.243-0.013-0.486-0.061-0.714-0.154-0.224-0.090-0.384-0.262-0.598-0.362-0.406-0.189-0.89 0.102-0.909 0.55-0.022 0.502 0.557 0.797 0.95 0.966 0.922 0.403 2.045 0.378 2.941-0.083 0.371-0.189 0.851-0.48 0.765-0.966-0.083-0.477-0.675-0.688-1.043-0.374-0.282 0.243 0.269-0.227 0 0z" fill="#000000"></path>
</svg>
