<?xml version="1.0" encoding="utf-8"?>
<!-- Generated by IcoMoon.io -->
<!DOCTYPE svg PUBLIC "-//W3C//DTD SVG 1.1//EN" "http://www.w3.org/Graphics/SVG/1.1/DTD/svg11.dtd">
<svg version="1.1" xmlns="http://www.w3.org/2000/svg" xmlns:xlink="http://www.w3.org/1999/xlink" width="256" height="256" viewBox="0 0 256 256">
<g id="icomoon-ignore">
	<line stroke-width="1" x1="" y1="" x2="" y2="" stroke="#449FDB" opacity=""></line>
</g>
	<path d="M198.093 132.659c3.917-5.325 4.327-12.979 1.357-18.841-2.841-5.555-8.166-8.166-14.233-8.166-8.089 0-16.205 0-24.294 0-3.968 0-7.936 0-11.904 0-2.048 0-4.557 0.384-6.554-0.153-6.323-1.689-4.915-10.317-1.613-13.952 4.173-4.608 9.011-8.806 13.389-13.261 3.379-3.456 7.833-6.835 9.933-11.264 2.509-5.273 1.69-11.392-0.179-16.717-2.253-6.451-6.042-11.904-10.087-17.305l-80.973 65.715c0 18.329 0 36.659 0 55.014 0 8.089 0 16.205 0 24.294 0 4.096-0.025 8.218 1.817 12.006 3.072 6.221 9.754 8.474 16.103 9.754 19.43 3.917 39.45 5.939 59.161 8.013 4.736 0.487 9.472 0.973 14.233 1.28 3.251 0.231 6.605 0.512 9.779-0.435 9.754-2.867 12.595-14.874 8.781-23.373 10.189-2.535 13.721-14.745 9.702-23.629 12.391-3.277 14.874-21.043 5.581-28.979zM192.691 150.861c-1.894 2.355-4.941 1.92-7.655 1.92-2.253 0-4.506 0-6.758 0-2.381 0-4.736 0-7.117 0v9.421c1.229 0 2.483 0 3.712 0 2.483 0 5.632-0.563 7.655 1.255 3.456 3.123 3.174 11.546-2.099 12.723-2.509 0.563-5.453 0.154-7.987 0.154-2.048 0-4.096 0-6.144 0v9.421c3.174 0 6.119-0.281 7.808 3.021 2.048 4.045 1.049 11.085-4.557 11.111h-0.793c-12.544-0.256-25.216-2.202-37.657-3.738-12.8-1.587-25.754-3.072-38.4-5.581-2.611-0.512-5.555-1.101-7.782-2.688-2.201-1.613-2.56-4.275-2.56-6.835 0-1.997 0-3.968 0-5.965 0-7.526 0-15.053 0-22.579 0-15.821 0-31.642 0-47.463 0-0.615 0-1.229 0-1.817l69.581-56.499c2.611 4.557 7.117 13.287 2.509 17.945-4.966 4.966-9.831 10.035-14.822 14.976-4.352 4.301-8.909 8.013-10.522 14.208-1.485 5.76-0.077 12.16 3.994 16.563 5.351 5.76 13.082 4.685 20.147 4.685 8.73 0 17.459 0 26.189 0 2.023 0 4.045 0 6.067 0 4.147 0 6.451 3.021 6.451 7.066 0.025 4.301-2.483 7.066-6.758 7.066-2.867 0-5.709 0-8.576 0v9.421c3.942 0 7.859 0 11.776 0 5.965 0.025 7.577 8.218 4.301 12.211z" fill="#000000"></path>
	<path d="M198.093 132.659c0.717 0.614 0.487-0.64 0 0v0z" fill="#000000"></path>
	<path d="M42.035 98.713h20.48v95.207h-20.48v-95.207z" fill="#000000"></path>
</svg>
