<?xml version="1.0" encoding="utf-8"?>
<!-- Generated by IcoMoon.io -->
<!DOCTYPE svg PUBLIC "-//W3C//DTD SVG 1.1//EN" "http://www.w3.org/Graphics/SVG/1.1/DTD/svg11.dtd">
<svg version="1.1" xmlns="http://www.w3.org/2000/svg" xmlns:xlink="http://www.w3.org/1999/xlink" width="32" height="32" viewBox="0 0 32 32">
<g id="icomoon-ignore">
	<line stroke-width="1" x1="" y1="" x2="" y2="" stroke="#449FDB" opacity=""></line>
</g>
	<path d="M22.33 14.79c-0.634-0.634-1.52-1.030-2.486-1.030h-3.206c0 0-0.003 0-0.003 0v0c-0.362 0-0.714 0.058-1.043 0.16 0 0 0 0 0 0-0.109 0.035-0.218 0.074-0.32 0.118-0.032 0.013-0.064 0.032-0.096 0.048-0.070 0.032-0.141 0.064-0.208 0.102-0.067 0.035-0.128 0.077-0.192 0.115-0.032 0.019-0.067 0.038-0.099 0.061-0.186 0.128-0.362 0.269-0.518 0.429-0.122 0.118-0.227 0.25-0.33 0.387-0.026 0.035-0.048 0.074-0.074 0.109-0.070 0.106-0.138 0.214-0.198 0.326-0.013 0.022-0.022 0.042-0.032 0.064h6.317c0.445 0 0.838 0.176 1.133 0.467 0.291 0.294 0.467 0.688 0.467 1.133s-0.176 0.838-0.467 1.133c-0.294 0.291-0.688 0.467-1.133 0.467h-4.16v-0.016c-0.106 0.010-0.214 0.016-0.32 0.016h-1.846c0.013 0.022 0.022 0.042 0.032 0.064 0.061 0.112 0.128 0.221 0.198 0.326 0.026 0.035 0.048 0.074 0.074 0.109 0.102 0.138 0.211 0.269 0.33 0.387 0.637 0.637 1.523 1.034 2.49 1.034h3.206c0.97 0 1.853-0.397 2.486-1.030s1.030-1.52 1.030-2.49c0-0.97-0.397-1.856-1.030-2.49z" fill="#000000"></path>
	<path d="M15.36 18.24v0c0.003 0 0.006 0 0.006 0v0c0.362 0 0.714-0.058 1.043-0.16 0 0 0 0 0 0 0.109-0.035 0.218-0.074 0.32-0.118 0.032-0.013 0.061-0.029 0.093-0.045 0.074-0.032 0.144-0.067 0.214-0.102 0.058-0.032 0.112-0.067 0.166-0.099 0.042-0.026 0.083-0.048 0.125-0.077 0.186-0.125 0.362-0.269 0.518-0.429 0.122-0.118 0.23-0.25 0.33-0.387 0.026-0.035 0.048-0.074 0.074-0.109 0.070-0.106 0.138-0.214 0.198-0.326 0.013-0.022 0.022-0.042 0.032-0.064h-6.32c-0.445 0-0.838-0.176-1.133-0.467-0.291-0.298-0.467-0.691-0.467-1.136s0.176-0.838 0.467-1.133c0.294-0.291 0.688-0.467 1.133-0.467h4.16v0.016c0.106-0.010 0.214-0.016 0.32-0.016h1.846c-0.013-0.022-0.022-0.042-0.032-0.064-0.061-0.112-0.128-0.221-0.198-0.326-0.026-0.035-0.048-0.074-0.074-0.109-0.102-0.138-0.211-0.269-0.33-0.387-0.637-0.637-1.523-1.034-2.49-1.034h-3.206c-0.97 0-1.853 0.397-2.486 1.030s-1.030 1.52-1.030 2.49c0 0.97 0.397 1.856 1.030 2.49s1.52 1.030 2.486 1.030h3.203z" fill="#000000"></path>
</svg>
