<?xml version="1.0" encoding="utf-8"?>
<!-- Generated by IcoMoon.io -->
<!DOCTYPE svg PUBLIC "-//W3C//DTD SVG 1.1//EN" "http://www.w3.org/Graphics/SVG/1.1/DTD/svg11.dtd">
<svg version="1.1" xmlns="http://www.w3.org/2000/svg" xmlns:xlink="http://www.w3.org/1999/xlink" width="32" height="32" viewBox="0 0 32 32">
<g id="icomoon-ignore">
	<line stroke-width="1" x1="" y1="" x2="" y2="" stroke="#449FDB" opacity=""></line>
</g>
	<path d="M19.555 15.21c0 0 0 0 0-3.114 0-0.522-0.112-1.014-0.32-1.44-0.31-0.643-0.829-1.12-1.398-1.418-0.573-0.301-1.206-0.438-1.837-0.438-0.838 0.003-1.69 0.243-2.384 0.794-0.346 0.275-0.643 0.634-0.851 1.059s-0.32 0.918-0.32 1.44c0 3.114 0 3.114 0 3.114h-1.117v6.234h9.344v-6.23h-1.117zM14.365 15.21c0 0 0 0 0-3.114 0-0.256 0.051-0.445 0.128-0.602 0.115-0.234 0.298-0.413 0.563-0.554 0.262-0.138 0.602-0.221 0.947-0.218 0.461-0.003 0.906 0.147 1.184 0.374 0.141 0.115 0.246 0.243 0.323 0.4s0.125 0.346 0.128 0.602c0 3.114 0 3.114 0 3.114h-3.274z" fill="#000000"></path>
</svg>
