<?xml version="1.0" encoding="utf-8"?>
<!-- Generated by IcoMoon.io -->
<!DOCTYPE svg PUBLIC "-//W3C//DTD SVG 1.1//EN" "http://www.w3.org/Graphics/SVG/1.1/DTD/svg11.dtd">
<svg version="1.1" xmlns="http://www.w3.org/2000/svg" xmlns:xlink="http://www.w3.org/1999/xlink" width="9" height="28" viewBox="0 0 9 28">
<g id="icomoon-ignore">
	<line stroke-width="1" x1="" y1="" x2="" y2="" stroke="#449FDB" opacity=""></line>
</g>
	<path d="M0.692 16.8v-5.956h0.624c0.148 0 0.244 0.073 0.283 0.218l0.076 0.61c0.218-0.272 0.465-0.493 0.739-0.664 0.272-0.174 0.588-0.258 0.949-0.258 0.403 0 0.731 0.112 0.98 0.336s0.428 0.526 0.538 0.904c0.081-0.216 0.19-0.403 0.328-0.56 0.134-0.157 0.288-0.286 0.456-0.389s0.347-0.176 0.538-0.224c0.19-0.048 0.384-0.070 0.58-0.070 0.314 0 0.594 0.050 0.837 0.151 0.246 0.101 0.454 0.246 0.624 0.437 0.171 0.193 0.3 0.428 0.392 0.708 0.090 0.28 0.134 0.602 0.134 0.96v3.794h-1.047v-3.791c0-0.468-0.101-0.82-0.305-1.061s-0.501-0.361-0.888-0.361c-0.174 0-0.336 0.031-0.49 0.092s-0.291 0.151-0.409 0.269-0.21 0.266-0.28 0.442c-0.070 0.179-0.104 0.386-0.104 0.622v3.788h-1.047v-3.791c0-0.479-0.095-0.834-0.288-1.070s-0.473-0.353-0.84-0.353c-0.258 0-0.498 0.070-0.72 0.21s-0.426 0.328-0.608 0.568v4.435h-1.053z" opacity="1" visibility="false" fill="#000000"></path>
</svg>
