<?xml version="1.0" encoding="utf-8"?>
<!-- Generator: Adobe Illustrator 16.0.0, SVG Export Plug-In . SVG Version: 6.00 Build 0)  -->
<!DOCTYPE svg PUBLIC "-//W3C//DTD SVG 1.1//EN" "http://www.w3.org/Graphics/SVG/1.1/DTD/svg11.dtd">
<svg version="1.1" id="Capa_1" xmlns="http://www.w3.org/2000/svg" xmlns:xlink="http://www.w3.org/1999/xlink" x="0px" y="0px"
	 width="9px" height="28px" viewBox="0 0 9 28" enable-background="new 0 0 9 28" xml:space="preserve">
<g id="icomoon-ignore">
	<line fill="none" stroke="#449FDB" x1="0" y1="0" x2="0" y2="0"/>
</g>
<path d="M0.462,16.8v-5.956h0.624c0.147,0,0.244,0.073,0.283,0.218l0.075,0.61c0.219-0.272,0.466-0.493,0.739-0.664
	c0.272-0.174,0.588-0.258,0.949-0.258c0.403,0,0.731,0.112,0.979,0.336c0.249,0.224,0.429,0.526,0.538,0.904
	c0.081-0.216,0.189-0.403,0.328-0.56c0.134-0.157,0.288-0.286,0.456-0.389s0.347-0.176,0.538-0.224
	c0.189-0.048,0.384-0.07,0.58-0.07c0.314,0,0.594,0.05,0.837,0.151c0.246,0.101,0.454,0.246,0.624,0.437
	c0.171,0.193,0.3,0.428,0.393,0.708c0.09,0.28,0.133,0.602,0.133,0.96v3.794H7.492v-3.791c0-0.468-0.101-0.82-0.305-1.061
	c-0.204-0.241-0.501-0.361-0.889-0.361c-0.174,0-0.336,0.031-0.489,0.092c-0.153,0.061-0.291,0.151-0.409,0.269
	c-0.117,0.118-0.21,0.266-0.279,0.442c-0.07,0.179-0.104,0.386-0.104,0.622v3.788H3.97v-3.791c0-0.479-0.095-0.834-0.288-1.07
	c-0.192-0.236-0.473-0.353-0.84-0.353c-0.258,0-0.498,0.07-0.72,0.21c-0.223,0.14-0.427,0.328-0.608,0.568v4.435H0.461L0.462,16.8z"
	/>
</svg>
