<?xml version="1.0" encoding="utf-8"?>
<!-- Generated by IcoMoon.io -->
<!DOCTYPE svg PUBLIC "-//W3C//DTD SVG 1.1//EN" "http://www.w3.org/Graphics/SVG/1.1/DTD/svg11.dtd">
<svg version="1.1" xmlns="http://www.w3.org/2000/svg" xmlns:xlink="http://www.w3.org/1999/xlink" width="32" height="32" viewBox="0 0 32 32">
<g>
	<line stroke-width="1" x1="" y1="" x2="" y2="" stroke="#449FDB" opacity=""></line>
</g>
	<path d="M21.12 9.76h-10.24c-0.704 0-1.28 0.576-1.28 1.28v7.68c0 0.704 0.576 1.28 1.28 1.28h3.44l1.68 2.080 1.68-2.080h3.44c0.704 0 1.28-0.576 1.28-1.28v-7.68c0-0.704-0.576-1.28-1.28-1.28zM21.44 18.72c0 0.173-0.147 0.32-0.32 0.32h-3.898l-0.288 0.358-0.934 1.155-0.934-1.155-0.288-0.358h-3.898c-0.173 0-0.32-0.147-0.32-0.32v-7.68c0-0.173 0.147-0.32 0.32-0.32h10.24c0.173 0 0.32 0.147 0.32 0.32v7.68z" fill="#000000"></path>
	<path d="M12.8 12.477h6.256v0.96h-6.256v-0.96z" fill="#000000"></path>
	<path d="M12.8 14.397h7.040v0.96h-7.040v-0.96z" fill="#000000"></path>
	<path d="M12.8 16.317h5.475v0.96h-5.475v-0.96z" fill="#000000"></path>
</svg>
