<?xml version="1.0" encoding="utf-8"?>
<!-- Generated by IcoMoon.io -->
<!DOCTYPE svg PUBLIC "-//W3C//DTD SVG 1.1//EN" "http://www.w3.org/Graphics/SVG/1.1/DTD/svg11.dtd">
<svg version="1.1" xmlns="http://www.w3.org/2000/svg" xmlns:xlink="http://www.w3.org/1999/xlink" width="32" height="32" viewBox="0 0 32 32">
<g>
	<line stroke-width="1" x1="" y1="" x2="" y2="" stroke="#449FDB" opacity=""></line>
</g>
	<path d="M21.12 10.72c0.173 0 0.32 0.147 0.32 0.32v7.68c0 0.173-0.147 0.32-0.32 0.32h-3.898l-0.288 0.358-0.934 1.155-0.934-1.155-0.288-0.358h-3.898c-0.173 0-0.32-0.147-0.32-0.32v-7.68c0-0.173 0.147-0.32 0.32-0.32h10.24zM21.12 9.76h-10.24c-0.704 0-1.28 0.576-1.28 1.28v7.68c0 0.704 0.576 1.28 1.28 1.28h3.44l1.68 2.080 1.68-2.080h3.44c0.704 0 1.28-0.576 1.28-1.28v-7.68c0-0.704-0.576-1.28-1.28-1.28v0z" fill="#000000"></path>
	<path d="M17.405 12.262c-0.4-0.355-0.893-0.544-1.485-0.566-1.12 0.003-1.99 0.88-1.923 1.952 0.358 0 0.717-0.003 1.078-0.003-0.016-0.256 0.077-0.483 0.243-0.653s0.4-0.272 0.669-0.272c0.269 0 0.515 0.102 0.704 0.269 0.189 0.17 0.31 0.397 0.326 0.653s-0.077 0.483-0.243 0.653c-0.147 0.147-0.342 0.24-0.57 0.262v-0.010l-0.96 0.032 0.019 1.786 1.082-0.003-0.074-0.778c1.082-0.051 1.891-0.906 1.824-1.949-0.038-0.534-0.301-1.021-0.691-1.373-0.022-0.019 0.39 0.352 0 0z" fill="#000000"></path>
	<path d="M15.824 16.973c-0.39 0-0.685 0.304-0.662 0.672 0.022 0.371 0.358 0.669 0.746 0.669 0.39 0 0.685-0.301 0.662-0.672s-0.355-0.672-0.746-0.669z" fill="#000000"></path>
</svg>
