<?xml version="1.0" encoding="utf-8"?>
<!-- Generated by IcoMoon.io -->
<!DOCTYPE svg PUBLIC "-//W3C//DTD SVG 1.1//EN" "http://www.w3.org/Graphics/SVG/1.1/DTD/svg11.dtd">
<svg version="1.1" xmlns="http://www.w3.org/2000/svg" xmlns:xlink="http://www.w3.org/1999/xlink" width="32" height="32" viewBox="0 0 32 32">
<g>
	<line stroke-width="1" x1="" y1="" x2="" y2="" stroke="#449FDB" opacity=""></line>
</g>
	<path d="M21.12 10.72c0.173 0 0.32 0.147 0.32 0.32v7.68c0 0.173-0.147 0.32-0.32 0.32h-3.898l-0.288 0.358-0.934 1.155-0.934-1.155-0.288-0.358h-3.898c-0.173 0-0.32-0.147-0.32-0.32v-7.68c0-0.173 0.147-0.32 0.32-0.32h10.24zM21.12 9.76h-10.24c-0.704 0-1.28 0.576-1.28 1.28v7.68c0 0.704 0.576 1.28 1.28 1.28h3.44l1.68 2.080 1.68-2.080h3.44c0.704 0 1.28-0.576 1.28-1.28v-7.68c0-0.704-0.576-1.28-1.28-1.28v0z" fill="#000000"></path>
	<path d="M15.213 11.949l0.192 3.357 1.19-0.010 0.192-3.386z" fill="#000000"></path>
	<path d="M16.813 16.762c0 0.449-0.364 0.813-0.813 0.813s-0.813-0.364-0.813-0.813c0-0.449 0.364-0.813 0.813-0.813s0.813 0.364 0.813 0.813z" fill="#000000"></path>
</svg>
