<?xml version="1.0" encoding="utf-8"?>
<!-- Generated by IcoMoon.io -->
<!DOCTYPE svg PUBLIC "-//W3C//DTD SVG 1.1//EN" "http://www.w3.org/Graphics/SVG/1.1/DTD/svg11.dtd">
<svg version="1.1" xmlns="http://www.w3.org/2000/svg" xmlns:xlink="http://www.w3.org/1999/xlink" width="32" height="32" viewBox="0 0 32 32">
<g>
	<line stroke-width="1" x1="" y1="" x2="" y2="" stroke="#449FDB" opacity=""></line>
</g>
	<path d="M16.5 18.88c1.414 0 2.56-1.146 2.56-2.56v-5.76c0-1.414-1.146-2.56-2.56-2.56s-2.56 1.146-2.56 2.56v5.76c0 1.414 1.146 2.56 2.56 2.56z" fill="#000000"></path>
	<path d="M20.98 23.36h-3.84v-2.774c2.077-0.314 3.68-2.106 3.68-4.266v-3.84c0-0.266-0.214-0.48-0.48-0.48s-0.48 0.214-0.48 0.48v3.84c0 0.925-0.378 1.76-0.989 2.371s-1.446 0.989-2.371 0.989c-0.925 0-1.76-0.378-2.371-0.989s-0.989-1.446-0.989-2.371v-3.84c0-0.266-0.214-0.48-0.48-0.48s-0.48 0.214-0.48 0.48v3.84c0 2.16 1.603 3.955 3.68 4.266v2.774h-3.84c-0.352 0-0.64 0.288-0.64 0.64s0.288 0.64 0.64 0.64h8.96c0.352 0 0.64-0.288 0.64-0.64s-0.288-0.64-0.64-0.64z" fill="#000000"></path>
</svg>
