<?xml version="1.0" encoding="utf-8"?>
<!-- Generated by IcoMoon.io -->
<!DOCTYPE svg PUBLIC "-//W3C//DTD SVG 1.1//EN" "http://www.w3.org/Graphics/SVG/1.1/DTD/svg11.dtd">
<svg version="1.1" xmlns="http://www.w3.org/2000/svg" xmlns:xlink="http://www.w3.org/1999/xlink" width="32" height="32" viewBox="0 0 32 32">
<g>
	<line stroke-width="1" x1="" y1="" x2="" y2="" stroke="#449FDB" opacity=""></line>
</g>
	<path d="M16.64 23.68c0 0.353-0.287 0.64-0.64 0.64s-0.64-0.287-0.64-0.64c0-0.353 0.287-0.64 0.64-0.64s0.64 0.287 0.64 0.64z" fill="#000000"></path>
	<path d="M26.72 13.526v-0.55c0-0.854-1.978-1.606-4.96-2.038v-3.258c-0.003-1.059-0.861-1.917-1.92-1.92h-7.68c-1.059 0.003-1.917 0.861-1.92 1.92v3.251c-3.014 0.429-5.014 1.184-5.014 2.045v5.088c0 0.294 0.125 0.563 0.301 0.771 0.154 0.186 0.349 0.339 0.573 0.483 0.397 0.25 0.896 0.458 1.498 0.65 0.739 0.234 1.635 0.432 2.643 0.589v3.763c0.003 1.059 0.861 1.917 1.92 1.92h7.68c1.059-0.003 1.917-0.861 1.92-1.92v-3.776c0.576-0.090 1.114-0.195 1.603-0.31 0.95-0.227 1.731-0.493 2.31-0.813 0.291-0.163 0.534-0.339 0.723-0.557 0.189-0.214 0.326-0.493 0.323-0.8v-4.538zM11.52 7.68c0-0.176 0.070-0.333 0.189-0.451s0.275-0.189 0.451-0.189h7.68c0.176 0 0.333 0.070 0.451 0.189s0.189 0.275 0.189 0.451v7.536c-0.208 0.026-0.422 0.048-0.64 0.070v-6.966h-7.68v6.966c-0.218-0.022-0.429-0.045-0.64-0.067v-7.539zM8.573 19.245c-0.826-0.208-1.482-0.454-1.891-0.694-0.205-0.118-0.346-0.237-0.419-0.326-0.074-0.093-0.080-0.134-0.080-0.16v-3.232c0.378 0.224 0.838 0.416 1.386 0.592 1.718 0.544 4.269 0.902 7.19 0.986l0.797 1.914-0.694 1.661c-2.483-0.064-4.704-0.339-6.288-0.739zM20.48 24.32c0 0.176-0.070 0.333-0.189 0.451s-0.275 0.189-0.451 0.189h-7.68c-0.176 0-0.333-0.070-0.451-0.189s-0.189-0.275-0.189-0.451v-3.597c0.211 0.022 0.422 0.045 0.64 0.067v1.61h7.68v-1.616c0.218-0.019 0.429-0.042 0.64-0.067v3.603zM25.76 18.064c0 0.026-0.006 0.070-0.090 0.173-0.074 0.083-0.202 0.192-0.384 0.301-0.32 0.192-0.8 0.39-1.395 0.566-1.661 0.496-4.227 0.838-7.133 0.89l0.698-1.67-0.794-1.904c2.592-0.042 4.928-0.301 6.685-0.714 0.957-0.227 1.741-0.493 2.323-0.816 0.032-0.019 0.061-0.038 0.093-0.054v3.229z" fill="#000000"></path>
</svg>
