<?xml version="1.0" encoding="utf-8"?>
<!-- Generated by IcoMoon.io -->
<!DOCTYPE svg PUBLIC "-//W3C//DTD SVG 1.1//EN" "http://www.w3.org/Graphics/SVG/1.1/DTD/svg11.dtd">
<svg version="1.1" xmlns="http://www.w3.org/2000/svg" xmlns:xlink="http://www.w3.org/1999/xlink" width="32" height="32" viewBox="0 0 32 32">
<g>
	<line stroke-width="1" x1="" y1="" x2="" y2="" stroke="#449FDB" opacity=""></line>
</g>
	<path d="M30.701 13.373c-0.166-0.95-0.374-1.805-0.621-2.522-0.125-0.358-0.262-0.682-0.413-0.966-0.154-0.285-0.323-0.538-0.534-0.749-0.659-0.656-1.52-1.117-2.474-1.424-0.954-0.304-1.997-0.451-3.043-0.451s-2.093 0.147-3.046 0.451c-0.954 0.304-1.818 0.765-2.477 1.421-0.211 0.211-0.381 0.461-0.534 0.749-0.269 0.502-0.49 1.117-0.678 1.83-0.285 1.069-0.502 2.355-0.65 3.747-0.154 1.392-0.23 2.886-0.23 4.365 0 2.026 0.144 4.013 0.467 5.661 0.16 0.826 0.365 1.568 0.63 2.198 0.266 0.627 0.589 1.155 1.046 1.53 1.533 1.229 3.501 1.827 5.459 1.827 1.962 0 3.93-0.598 5.466-1.827 0.461-0.374 0.781-0.902 1.046-1.53 0.397-0.944 0.662-2.144 0.838-3.498 0.176-1.35 0.259-2.851 0.259-4.371 0-2.253-0.179-4.541-0.512-6.442zM29.491 25.235c-0.147 0.765-0.336 1.434-0.554 1.949-0.214 0.515-0.464 0.87-0.669 1.027-1.27 1.024-2.963 1.549-4.666 1.549-1.699 0-3.392-0.528-4.659-1.546-0.205-0.16-0.454-0.512-0.669-1.027-0.326-0.771-0.582-1.885-0.749-3.162-0.166-1.28-0.246-2.73-0.246-4.202 0-2.182 0.176-4.416 0.496-6.224 0.16-0.902 0.355-1.702 0.573-2.323 0.109-0.31 0.224-0.576 0.336-0.787s0.224-0.362 0.31-0.448c0.47-0.47 1.155-0.851 1.965-1.11 0.806-0.259 1.731-0.39 2.656-0.39s1.846 0.134 2.653 0.39c0.806 0.256 1.491 0.64 1.958 1.107 0.086 0.086 0.198 0.237 0.31 0.448 0.198 0.368 0.397 0.906 0.57 1.555 0.262 0.976 0.47 2.205 0.611 3.546s0.218 2.794 0.218 4.224c-0.003 1.965-0.147 3.891-0.445 5.424z" fill="#000000"></path>
</svg>
