<?xml version="1.0" encoding="utf-8"?>
<!-- Generated by IcoMoon.io -->
<!DOCTYPE svg PUBLIC "-//W3C//DTD SVG 1.1//EN" "http://www.w3.org/Graphics/SVG/1.1/DTD/svg11.dtd">
<svg version="1.1" xmlns="http://www.w3.org/2000/svg" xmlns:xlink="http://www.w3.org/1999/xlink" width="32" height="32" viewBox="0 0 32 32">
<g id="icomoon-ignore">
	<line stroke-width="1" x1="" y1="" x2="" y2="" stroke="#449FDB" opacity=""></line>
</g>
	<path d="M19.258 13.76c0 0-0.509 0.861 0 1.322 0.237 0.214 0.214 0.163 0.486 0.41h-3.235v-3.235c0.246 0.272 0.195 0.246 0.41 0.486 0.464 0.509 1.322 0 1.322 0l-2.24-2.502-2.24 2.502c0 0 0.861 0.509 1.322 0 0.214-0.237 0.163-0.214 0.41-0.486v3.235h-3.235c0.272-0.246 0.246-0.192 0.486-0.41 0.509-0.464 0-1.322 0-1.322l-2.502 2.24 2.502 2.24c0 0 0.509-0.861 0-1.322-0.237-0.214-0.214-0.163-0.486-0.41h3.235v3.235c-0.246-0.272-0.192-0.246-0.41-0.486-0.464-0.509-1.322 0-1.322 0l2.24 2.502 2.24-2.502c0 0-0.861-0.509-1.322 0-0.214 0.237-0.163 0.214-0.41 0.486v-3.235h3.235c-0.272 0.246-0.246 0.195-0.486 0.41-0.509 0.464 0 1.322 0 1.322l2.502-2.24-2.502-2.24z" fill="#000000"></path>
</svg>
