<?xml version="1.0" encoding="utf-8"?>
<!-- Generator: Adobe Illustrator 16.0.0, SVG Export Plug-In . SVG Version: 6.00 Build 0)  -->
<!DOCTYPE svg PUBLIC "-//W3C//DTD SVG 1.1//EN" "http://www.w3.org/Graphics/SVG/1.1/DTD/svg11.dtd">
<svg version="1.1" id="Capa_1" xmlns="http://www.w3.org/2000/svg" xmlns:xlink="http://www.w3.org/1999/xlink" x="0px" y="0px"
	 width="6px" height="28px" viewBox="0 0 6 28" enable-background="new 0 0 6 28" xml:space="preserve">
<g id="icomoon-ignore">
	<line fill="none" stroke="#449FDB" x1="0" y1="0" x2="0" y2="0"/>
</g>
<path d="M0.52,16.8v-5.956h0.624c0.148,0,0.244,0.073,0.283,0.218l0.081,0.647c0.258-0.286,0.549-0.518,0.868-0.694
	c0.319-0.176,0.689-0.266,1.109-0.266c0.324,0,0.613,0.053,0.861,0.162c0.25,0.106,0.457,0.26,0.625,0.459
	c0.168,0.199,0.293,0.437,0.381,0.714c0.087,0.277,0.129,0.585,0.129,0.924v3.791H4.435v-3.791c0-0.451-0.104-0.801-0.309-1.05
	c-0.207-0.249-0.521-0.372-0.944-0.372c-0.311,0-0.599,0.076-0.867,0.224c-0.27,0.148-0.516,0.35-0.745,0.605V16.8H0.52L0.52,16.8z"
	/>
</svg>
