<?xml version="1.0" encoding="utf-8"?>
<!-- Generated by IcoMoon.io -->
<!DOCTYPE svg PUBLIC "-//W3C//DTD SVG 1.1//EN" "http://www.w3.org/Graphics/SVG/1.1/DTD/svg11.dtd">
<svg version="1.1" xmlns="http://www.w3.org/2000/svg" xmlns:xlink="http://www.w3.org/1999/xlink" width="6" height="28" viewBox="0 0 6 28">
<g id="icomoon-ignore">
	<line stroke-width="1" x1="" y1="" x2="" y2="" stroke="#449FDB" opacity=""></line>
</g>
	<path d="M0.322 16.8v-5.956h0.624c0.148 0 0.244 0.073 0.283 0.218l0.081 0.647c0.258-0.286 0.549-0.518 0.868-0.694s0.689-0.266 1.109-0.266c0.325 0 0.613 0.053 0.862 0.162 0.249 0.106 0.456 0.26 0.624 0.459s0.294 0.437 0.381 0.714c0.087 0.277 0.129 0.585 0.129 0.924v3.791h-1.047v-3.791c0-0.451-0.104-0.801-0.308-1.050-0.207-0.249-0.521-0.372-0.944-0.372-0.311 0-0.599 0.076-0.868 0.224s-0.515 0.35-0.745 0.605v4.385h-1.050z" opacity="1" visibility="false" fill="#000000"></path>
</svg>
