<?xml version="1.0" encoding="utf-8"?>
<!-- Generated by IcoMoon.io -->
<!DOCTYPE svg PUBLIC "-//W3C//DTD SVG 1.1//EN" "http://www.w3.org/Graphics/SVG/1.1/DTD/svg11.dtd">
<svg version="1.1" xmlns="http://www.w3.org/2000/svg" xmlns:xlink="http://www.w3.org/1999/xlink" width="32" height="32" viewBox="0 0 32 32">
<g>
	<line stroke-width="1" x1="" y1="" x2="" y2="" stroke="#449FDB" opacity=""></line>
</g>
	<path d="M21.12 11.2h-10.24c-0.704 0-1.28 0.576-1.28 1.28v7.040c0 0.704 0.576 1.28 1.28 1.28h10.24c0.704 0 1.28-0.576 1.28-1.28v-7.040c0-0.704-0.576-1.28-1.28-1.28zM19.2 18.24c0 0.352-0.288 0.64-0.64 0.64h-0.64c-0.352 0-0.64-0.288-0.64-0.64v-1.926c-0.013 0.010-0.026 0.022-0.042 0.032l-3.901 2.509c-0.294 0.189-0.538 0.058-0.538-0.294v-5.12c0-0.352 0.243-0.483 0.538-0.294l3.901 2.509c0.016 0.010 0.026 0.022 0.042 0.032v-1.926c0-0.352 0.288-0.64 0.64-0.64h0.64c0.352 0 0.64 0.288 0.64 0.64v4.48z" fill="#000000"></path>
</svg>
