<?xml version="1.0" encoding="utf-8"?>
<!-- Generated by IcoMoon.io -->
<!DOCTYPE svg PUBLIC "-//W3C//DTD SVG 1.1//EN" "http://www.w3.org/Graphics/SVG/1.1/DTD/svg11.dtd">
<svg version="1.1" xmlns="http://www.w3.org/2000/svg" xmlns:xlink="http://www.w3.org/1999/xlink" width="32" height="32" viewBox="0 0 32 32">
<g>
	<line stroke-width="1" x1="" y1="" x2="" y2="" stroke="#449FDB" opacity=""></line>
</g>
	<path d="M16 9.6c-3.536 0-6.4 2.864-6.4 6.4s2.864 6.4 6.4 6.4 6.4-2.864 6.4-6.4-2.864-6.4-6.4-6.4zM18.947 17.53c0.31 0.31 0.31 0.822 0 1.133l-0.285 0.285c-0.31 0.31-0.822 0.31-1.133 0l-1.546-1.555-1.514 1.555c-0.31 0.31-0.822 0.31-1.133 0l-0.285-0.285c-0.31-0.31-0.31-0.822 0-1.133l1.699-1.619-1.699-1.44c-0.31-0.31-0.31-0.822 0-1.133l0.285-0.285c0.31-0.31 0.822-0.31 1.133 0l1.536 1.626 1.523-1.626c0.31-0.31 0.822-0.31 1.133 0l0.285 0.285c0.31 0.31 0.31 0.822 0 1.133l-1.664 1.552 1.664 1.507z" fill="#000000"></path>
</svg>
