<?xml version="1.0" encoding="utf-8"?>
<!-- Generated by IcoMoon.io -->
<!DOCTYPE svg PUBLIC "-//W3C//DTD SVG 1.1//EN" "http://www.w3.org/Graphics/SVG/1.1/DTD/svg11.dtd">
<svg version="1.1" xmlns="http://www.w3.org/2000/svg" xmlns:xlink="http://www.w3.org/1999/xlink" width="32" height="32" viewBox="0 0 32 32">
<g>
	<line stroke-width="1" x1="" y1="" x2="" y2="" stroke="#449FDB" opacity=""></line>
</g>
	<path d="M6.848 24.413h-3.968c-0.176 0-0.32 0.144-0.32 0.32v0.822c0 0.176 0.144 0.32 0.32 0.32h3.968c0.176 0 0.32-0.144 0.32-0.32v-0.822c0-0.176-0.144-0.32-0.32-0.32z" fill="#000000"></path>
	<path d="M29.12 24.413h-3.968c-0.176 0-0.32 0.144-0.32 0.32v0.822c0 0.176 0.144 0.32 0.32 0.32h3.968c0.176 0 0.32-0.144 0.32-0.32v-0.822c0-0.176-0.144-0.32-0.32-0.32z" fill="#000000"></path>
	<path d="M20.995 26.358h-9.99c-0.176 0-0.32 0.144-0.32 0.32v2.634c0 0.176 0.144 0.32 0.32 0.32h9.987c0.176 0 0.32-0.144 0.32-0.32v-2.634c0.003-0.176-0.141-0.32-0.317-0.32z" fill="#000000"></path>
	<path d="M23.744 24.413h-15.488c-0.176 0-0.32 0.144-0.32 0.32v0.822c0 0.176 0.144 0.32 0.32 0.32h15.488c0.176 0 0.32-0.144 0.32-0.32v-0.822c0-0.176-0.144-0.32-0.32-0.32z" fill="#000000"></path>
	<path d="M2.88 23.926h1.664c0.176 0 0.32-0.144 0.32-0.32v-0.822c0-0.176-0.144-0.32-0.32-0.32h-1.664c-0.176 0-0.32 0.144-0.32 0.32v0.822c0 0.176 0.144 0.32 0.32 0.32z" fill="#000000"></path>
	<path d="M7.936 22.784c0-0.176-0.144-0.32-0.32-0.32h-1.664c-0.176 0-0.32 0.144-0.32 0.32v0.822c0 0.176 0.144 0.32 0.32 0.32h1.664c0.176 0 0.32-0.144 0.32-0.32v-0.822z" fill="#000000"></path>
	<path d="M9.024 23.926h1.664c0.176 0 0.32-0.144 0.32-0.32v-0.822c0-0.176-0.144-0.32-0.32-0.32h-1.664c-0.176 0-0.32 0.144-0.32 0.32v0.822c0 0.176 0.144 0.32 0.32 0.32z" fill="#000000"></path>
	<path d="M12.096 23.926h1.664c0.176 0 0.32-0.144 0.32-0.32v-0.822c0-0.176-0.144-0.32-0.32-0.32h-1.664c-0.176 0-0.32 0.144-0.32 0.32v0.822c0 0.176 0.144 0.32 0.32 0.32z" fill="#000000"></path>
	<path d="M15.168 23.926h1.664c0.176 0 0.32-0.144 0.32-0.32v-0.822c0-0.176-0.144-0.32-0.32-0.32h-1.664c-0.176 0-0.32 0.144-0.32 0.32v0.822c0 0.176 0.144 0.32 0.32 0.32z" fill="#000000"></path>
	<path d="M18.24 23.926h1.664c0.176 0 0.32-0.144 0.32-0.32v-0.822c0-0.176-0.144-0.32-0.32-0.32h-1.664c-0.176 0-0.32 0.144-0.32 0.32v0.822c0 0.176 0.144 0.32 0.32 0.32z" fill="#000000"></path>
	<path d="M21.312 23.926h1.664c0.176 0 0.32-0.144 0.32-0.32v-0.822c0-0.176-0.144-0.32-0.32-0.32h-1.664c-0.176 0-0.32 0.144-0.32 0.32v0.822c0 0.176 0.144 0.32 0.32 0.32z" fill="#000000"></path>
	<path d="M26.368 23.606v-0.822c0-0.176-0.144-0.32-0.32-0.32h-1.664c-0.176 0-0.32 0.144-0.32 0.32v0.822c0 0.176 0.144 0.32 0.32 0.32h1.664c0.176 0 0.32-0.144 0.32-0.32z" fill="#000000"></path>
	<path d="M29.12 22.464h-1.664c-0.176 0-0.32 0.144-0.32 0.32v0.822c0 0.176 0.144 0.32 0.32 0.32h1.664c0.176 0 0.32-0.144 0.32-0.32v-0.822c0-0.176-0.144-0.32-0.32-0.32z" fill="#000000"></path>
	<path d="M2.88 20.022h1.664c0.176 0 0.32-0.144 0.32-0.32v-0.822c0-0.176-0.144-0.32-0.32-0.32h-1.664c-0.176 0-0.32 0.144-0.32 0.32v0.822c0 0.176 0.144 0.32 0.32 0.32z" fill="#000000"></path>
	<path d="M5.952 20.022h1.664c0.176 0 0.32-0.144 0.32-0.32v-0.822c0-0.176-0.144-0.32-0.32-0.32h-1.664c-0.176 0-0.32 0.144-0.32 0.32v0.822c0 0.176 0.144 0.32 0.32 0.32z" fill="#000000"></path>
	<path d="M9.024 20.022h1.664c0.176 0 0.32-0.144 0.32-0.32v-0.822c0-0.176-0.144-0.32-0.32-0.32h-1.664c-0.176 0-0.32 0.144-0.32 0.32v0.822c0 0.176 0.144 0.32 0.32 0.32z" fill="#000000"></path>
	<path d="M12.096 20.022h1.664c0.176 0 0.32-0.144 0.32-0.32v-0.822c0-0.176-0.144-0.32-0.32-0.32h-1.664c-0.176 0-0.32 0.144-0.32 0.32v0.822c0 0.176 0.144 0.32 0.32 0.32z" fill="#000000"></path>
	<path d="M15.168 20.022h1.664c0.176 0 0.32-0.144 0.32-0.32v-0.822c0-0.176-0.144-0.32-0.32-0.32h-1.664c-0.176 0-0.32 0.144-0.32 0.32v0.822c0 0.176 0.144 0.32 0.32 0.32z" fill="#000000"></path>
	<path d="M18.24 20.022h1.664c0.176 0 0.32-0.144 0.32-0.32v-0.822c0-0.176-0.144-0.32-0.32-0.32h-1.664c-0.176 0-0.32 0.144-0.32 0.32v0.822c0 0.176 0.144 0.32 0.32 0.32z" fill="#000000"></path>
	<path d="M21.312 20.022h1.664c0.176 0 0.32-0.144 0.32-0.32v-0.822c0-0.176-0.144-0.32-0.32-0.32h-1.664c-0.176 0-0.32 0.144-0.32 0.32v0.822c0 0.176 0.144 0.32 0.32 0.32z" fill="#000000"></path>
	<path d="M24.384 20.022h1.664c0.176 0 0.32-0.144 0.32-0.32v-0.822c0-0.176-0.144-0.32-0.32-0.32h-1.664c-0.176 0-0.32 0.144-0.32 0.32v0.822c0 0.176 0.144 0.32 0.32 0.32z" fill="#000000"></path>
	<path d="M29.12 18.56h-1.664c-0.176 0-0.32 0.144-0.32 0.32v0.822c0 0.176 0.144 0.32 0.32 0.32h1.664c0.176 0 0.32-0.144 0.32-0.32v-0.822c0-0.176-0.144-0.32-0.32-0.32z" fill="#000000"></path>
	<path d="M2.88 21.974h3.2c0.176 0 0.32-0.144 0.32-0.32v-0.822c0-0.176-0.144-0.32-0.32-0.32h-3.2c-0.176 0-0.32 0.144-0.32 0.32v0.822c0 0.176 0.144 0.32 0.32 0.32z" fill="#000000"></path>
	<path d="M9.472 21.654v-0.822c0-0.176-0.144-0.32-0.32-0.32h-1.664c-0.176 0-0.32 0.144-0.32 0.32v0.822c0 0.176 0.144 0.32 0.32 0.32h1.664c0.176 0 0.32-0.144 0.32-0.32z" fill="#000000"></path>
	<path d="M12.544 21.654v-0.822c0-0.176-0.144-0.32-0.32-0.32h-1.664c-0.176 0-0.32 0.144-0.32 0.32v0.822c0 0.176 0.144 0.32 0.32 0.32h1.664c0.176 0 0.32-0.144 0.32-0.32z" fill="#000000"></path>
	<path d="M15.616 21.654v-0.822c0-0.176-0.144-0.32-0.32-0.32h-1.664c-0.176 0-0.32 0.144-0.32 0.32v0.822c0 0.176 0.144 0.32 0.32 0.32h1.664c0.176 0 0.32-0.144 0.32-0.32z" fill="#000000"></path>
	<path d="M18.688 21.654v-0.822c0-0.176-0.144-0.32-0.32-0.32h-1.664c-0.176 0-0.32 0.144-0.32 0.32v0.822c0 0.176 0.144 0.32 0.32 0.32h1.664c0.176 0 0.32-0.144 0.32-0.32z" fill="#000000"></path>
	<path d="M21.76 21.654v-0.822c0-0.176-0.144-0.32-0.32-0.32h-1.664c-0.176 0-0.32 0.144-0.32 0.32v0.822c0 0.176 0.144 0.32 0.32 0.32h1.664c0.176 0 0.32-0.144 0.32-0.32z" fill="#000000"></path>
	<path d="M24.832 21.654v-0.822c0-0.176-0.144-0.32-0.32-0.32h-1.664c-0.176 0-0.32 0.144-0.32 0.32v0.822c0 0.176 0.144 0.32 0.32 0.32h1.664c0.176 0 0.32-0.144 0.32-0.32z" fill="#000000"></path>
	<path d="M29.12 20.512h-3.2c-0.176 0-0.32 0.144-0.32 0.32v0.822c0 0.176 0.144 0.32 0.32 0.32h3.2c0.176 0 0.32-0.144 0.32-0.32v-0.822c0-0.176-0.144-0.32-0.32-0.32z" fill="#000000"></path>
	<path d="M29.44 0.64h-26.88c-1.059 0.003-1.917 0.861-1.92 1.92v26.88c0.003 1.059 0.861 1.917 1.92 1.92h26.88c1.059-0.003 1.917-0.861 1.92-1.92v-26.88c-0.003-1.059-0.861-1.917-1.92-1.92zM1.92 2.56c0-0.176 0.070-0.333 0.189-0.451s0.275-0.189 0.451-0.189h26.88c0.176 0 0.333 0.070 0.451 0.189s0.189 0.275 0.189 0.451v14.24h-28.16v-14.24zM29.891 29.891c-0.118 0.118-0.275 0.189-0.451 0.189h-26.88c-0.176 0-0.333-0.070-0.451-0.189s-0.189-0.275-0.189-0.451v-11.68h28.16v11.68c0 0.176-0.070 0.333-0.189 0.451z" fill="#000000"></path>
	<path d="M2.646 2.56h26.794v13.44h-26.794v-13.44z" fill="#000000"></path>
</svg>
