<?xml version="1.0" encoding="utf-8"?>
<!-- Generator: Adobe Illustrator 16.0.0, SVG Export Plug-In . SVG Version: 6.00 Build 0)  -->
<!DOCTYPE svg PUBLIC "-//W3C//DTD SVG 1.1//EN" "http://www.w3.org/Graphics/SVG/1.1/DTD/svg11.dtd">
<svg version="1.1" id="Capa_1" xmlns="http://www.w3.org/2000/svg" xmlns:xlink="http://www.w3.org/1999/xlink" x="0px" y="0px"
	 width="6.156px" height="28px" viewBox="0 0 6.156 28" enable-background="new 0 0 6.156 28" xml:space="preserve">
<g id="icomoon-ignore">
	<line fill="none" stroke="#449FDB" x1="0" y1="0" x2="0" y2="0"/>
</g>
<path d="M3.083,10.749c0.434,0,0.829,0.073,1.18,0.218c0.35,0.145,0.648,0.35,0.893,0.619c0.242,0.269,0.434,0.588,0.566,0.966
	c0.131,0.378,0.195,0.801,0.195,1.268c0,0.47-0.064,0.893-0.195,1.271c-0.133,0.375-0.32,0.697-0.566,0.964
	c-0.248,0.266-0.543,0.469-0.893,0.612c-0.352,0.144-0.746,0.216-1.18,0.216s-0.829-0.072-1.179-0.216
	c-0.35-0.144-0.65-0.347-0.896-0.612c-0.246-0.267-0.437-0.589-0.571-0.964c-0.134-0.375-0.199-0.801-0.199-1.271
	c0-0.468,0.067-0.888,0.199-1.268c0.134-0.378,0.322-0.7,0.571-0.966c0.246-0.266,0.546-0.473,0.896-0.619
	C2.254,10.821,2.649,10.749,3.083,10.749z M3.083,16.066c0.588,0,1.028-0.196,1.319-0.592c0.291-0.395,0.434-0.943,0.434-1.648
	c0-0.708-0.145-1.263-0.434-1.658c-0.291-0.395-0.729-0.594-1.319-0.594c-0.297,0-0.557,0.05-0.776,0.154
	c-0.219,0.104-0.403,0.249-0.549,0.442s-0.258,0.428-0.33,0.708c-0.073,0.28-0.109,0.596-0.109,0.949s0.036,0.669,0.109,0.946
	c0.073,0.276,0.182,0.512,0.33,0.703c0.148,0.19,0.33,0.336,0.549,0.437c0.219,0.101,0.479,0.151,0.776,0.151V16.066z"/>
</svg>
