<?xml version="1.0" encoding="utf-8"?>
<!-- Generated by IcoMoon.io -->
<!DOCTYPE svg PUBLIC "-//W3C//DTD SVG 1.1//EN" "http://www.w3.org/Graphics/SVG/1.1/DTD/svg11.dtd">
<svg version="1.1" xmlns="http://www.w3.org/2000/svg" xmlns:xlink="http://www.w3.org/1999/xlink" width="6" height="28" viewBox="0 0 6 28">
<g id="icomoon-ignore">
	<line stroke-width="1" x1="" y1="" x2="" y2="" stroke="#449FDB" opacity=""></line>
</g>
	<path d="M3.086 10.749c0.434 0 0.829 0.073 1.179 0.218s0.65 0.35 0.893 0.619 0.434 0.588 0.566 0.966c0.132 0.378 0.196 0.801 0.196 1.268 0 0.47-0.064 0.893-0.196 1.271-0.132 0.375-0.319 0.697-0.566 0.963s-0.543 0.47-0.893 0.613c-0.35 0.143-0.745 0.216-1.179 0.216s-0.829-0.073-1.179-0.216c-0.35-0.143-0.65-0.347-0.896-0.613s-0.437-0.588-0.571-0.963c-0.134-0.375-0.199-0.801-0.199-1.271 0-0.468 0.067-0.888 0.199-1.268 0.134-0.378 0.322-0.7 0.571-0.966 0.246-0.266 0.546-0.473 0.896-0.619s0.745-0.218 1.179-0.218zM3.086 16.066c0.588 0 1.028-0.196 1.319-0.591s0.434-0.944 0.434-1.649c0-0.708-0.146-1.263-0.434-1.658-0.291-0.395-0.728-0.594-1.319-0.594-0.297 0-0.557 0.050-0.776 0.154s-0.403 0.249-0.549 0.442-0.258 0.428-0.33 0.708c-0.073 0.28-0.109 0.596-0.109 0.949s0.036 0.669 0.109 0.946c0.073 0.277 0.182 0.512 0.33 0.703s0.33 0.336 0.549 0.437 0.479 0.151 0.776 0.151z" opacity="1" visibility="false" fill="#000000"></path>
</svg>
