<?xml version="1.0" encoding="utf-8"?>
<!-- Generator: Adobe Illustrator 16.0.0, SVG Export Plug-In . SVG Version: 6.00 Build 0)  -->
<!DOCTYPE svg PUBLIC "-//W3C//DTD SVG 1.1 Tiny//EN" "http://www.w3.org/Graphics/SVG/1.1/DTD/svg11-tiny.dtd">
<svg version="1.1" baseProfile="tiny" id="Capa_1" xmlns="http://www.w3.org/2000/svg" xmlns:xlink="http://www.w3.org/1999/xlink"
	 x="0px" y="0px" width="100px" height="100px" viewBox="0 0 100 100" xml:space="preserve">
<g>
	<path d="M66,30.5H34c-2.2,0-4,1.8-4,4v24c0,2.2,1.8,4,4,4h10.75L50,69l5.25-6.5H66c2.2,0,4-1.8,4-4v-24C70,32.3,68.2,30.5,66,30.5z
		 M67,58.5c0,0.54-0.46,1-1,1H55.25h-1.43l-0.9,1.12L50,64.23l-2.92-3.61l-0.9-1.12h-1.43H34c-0.54,0-1-0.46-1-1v-24
		c0-0.54,0.46-1,1-1h32c0.54,0,1,0.46,1,1V58.5z"/>
	<rect x="40" y="38.99" width="19.55" height="3"/>
	<rect x="40" y="44.99" width="22" height="3"/>
	<rect x="40" y="50.99" width="17.11" height="3"/>
</g>
</svg>
