<?xml version="1.0" encoding="utf-8"?>
<!-- Generator: Adobe Illustrator 16.0.0, SVG Export Plug-In . SVG Version: 6.00 Build 0)  -->
<!DOCTYPE svg PUBLIC "-//W3C//DTD SVG 1.1 Tiny//EN" "http://www.w3.org/Graphics/SVG/1.1/DTD/svg11-tiny.dtd">
<svg version="1.1" baseProfile="tiny" id="Capa_1" xmlns="http://www.w3.org/2000/svg" xmlns:xlink="http://www.w3.org/1999/xlink"
	 x="0px" y="0px" width="100px" height="100px" viewBox="0 0 100 100" xml:space="preserve">
<g>
	<path d="M69.78,46.22C67.8,44.24,65.03,43,62.01,43H62h-3.43H52h-0.01c0,0-0.01,0-0.01,0l0,0c-1.13,0-2.23,0.18-3.26,0.5
		c0,0,0,0,0,0c-0.34,0.11-0.68,0.23-1,0.37c-0.1,0.04-0.2,0.1-0.3,0.15c-0.22,0.1-0.44,0.2-0.65,0.32c-0.21,0.11-0.4,0.24-0.6,0.36
		c-0.1,0.06-0.21,0.12-0.31,0.19c-0.58,0.4-1.13,0.84-1.62,1.34c-0.38,0.37-0.71,0.78-1.03,1.21c-0.08,0.11-0.15,0.23-0.23,0.34
		c-0.22,0.33-0.43,0.67-0.62,1.02c-0.04,0.07-0.07,0.13-0.1,0.2H49h2h7.57H62c1.39,0,2.62,0.55,3.54,1.46
		C66.45,51.38,67,52.61,67,54c0,1.39-0.55,2.62-1.46,3.54C64.62,58.45,63.39,59,62,59H52h-3v-0.05C48.67,58.98,48.33,59,48,59h-5.77
		c0.04,0.07,0.07,0.13,0.1,0.2c0.19,0.35,0.4,0.69,0.62,1.02c0.08,0.11,0.15,0.23,0.23,0.34c0.32,0.43,0.66,0.84,1.03,1.21
		C46.2,63.76,48.97,65,51.99,65H52h10h0.01c3.03,0,5.79-1.24,7.77-3.22C71.76,59.8,73,57.03,73,54C73,50.97,71.76,48.2,69.78,46.22z
		"/>
	<path d="M48,57L48,57c0.01,0,0.02,0,0.02,0l0,0c1.13,0,2.23-0.18,3.26-0.5c0,0,0,0,0,0c0.34-0.11,0.68-0.23,1-0.37
		c0.1-0.04,0.19-0.09,0.29-0.14c0.23-0.1,0.45-0.21,0.67-0.32c0.18-0.1,0.35-0.21,0.52-0.31c0.13-0.08,0.26-0.15,0.39-0.24
		c0.58-0.39,1.13-0.84,1.62-1.34c0.38-0.37,0.72-0.78,1.03-1.21c0.08-0.11,0.15-0.23,0.23-0.34c0.22-0.33,0.43-0.67,0.62-1.02
		c0.04-0.07,0.07-0.13,0.1-0.2H51h-2h-7.57H38c-1.39,0-2.62-0.55-3.54-1.46C33.55,48.62,33,47.39,33,46c0-1.39,0.55-2.62,1.46-3.54
		C35.38,41.55,36.61,41,38,41h10h3v0.05c0.33-0.03,0.67-0.05,1-0.05h5.77c-0.04-0.07-0.07-0.13-0.1-0.2
		c-0.19-0.35-0.4-0.69-0.62-1.02c-0.08-0.11-0.15-0.23-0.23-0.34c-0.32-0.43-0.66-0.84-1.03-1.21C53.8,36.24,51.03,35,48.01,35H48
		H38h-0.01c-3.03,0-5.79,1.24-7.77,3.22C28.24,40.2,27,42.97,27,46c0,3.03,1.24,5.8,3.22,7.78C32.2,55.76,34.97,57,37.99,57H38h3.43
		H48z"/>
</g>
</svg>
