<?xml version="1.0" encoding="utf-8"?>
<!-- Generator: Adobe Illustrator 16.0.0, SVG Export Plug-In . SVG Version: 6.00 Build 0)  -->
<!DOCTYPE svg PUBLIC "-//W3C//DTD SVG 1.1 Tiny//EN" "http://www.w3.org/Graphics/SVG/1.1/DTD/svg11-tiny.dtd">
<svg version="1.1" baseProfile="tiny" id="Capa_1" xmlns="http://www.w3.org/2000/svg" xmlns:xlink="http://www.w3.org/1999/xlink"
	 x="0px" y="0px" width="100px" height="100px" viewBox="0 0 100 100" xml:space="preserve">
<g>
	<circle cx="50" cy="50" r="2"/>
	<circle cx="67" cy="50" r="2"/>
	<path d="M73,41.5H27c-2.48,0.01-4.49,2.01-4.5,4.5v8c0.01,2.49,2.02,4.49,4.5,4.5h46c2.48-0.01,4.49-2.01,4.5-4.5v-8
		C77.49,43.51,75.48,41.51,73,41.5z M33,52c-1.1,0-2-0.9-2-2s0.9-2,2-2s2,0.9,2,2S34.1,52,33,52z M58,55.5H42v-11h16V55.5z M74.5,54
		c0,0.41-0.17,0.78-0.44,1.06c-0.28,0.28-0.65,0.44-1.06,0.44H60v-11h13c0.41,0,0.78,0.17,1.06,0.44c0.28,0.28,0.44,0.65,0.44,1.06
		V54z"/>
</g>
</svg>
