<?xml version="1.0" encoding="utf-8"?>
<!-- Generator: Adobe Illustrator 16.0.0, SVG Export Plug-In . SVG Version: 6.00 Build 0)  -->
<!DOCTYPE svg PUBLIC "-//W3C//DTD SVG 1.1 Tiny//EN" "http://www.w3.org/Graphics/SVG/1.1/DTD/svg11-tiny.dtd">
<svg version="1.1" baseProfile="tiny" id="Capa_1" xmlns="http://www.w3.org/2000/svg" xmlns:xlink="http://www.w3.org/1999/xlink"
	 x="0px" y="0px" width="100px" height="100px" viewBox="0 0 100 100" xml:space="preserve">
<g>
	<path d="M71,32H29c-1.65,0-3,1.35-3,3v30c0,1.65,1.35,3,3,3h42c1.65,0,3-1.35,3-3V35C74,33.35,72.65,32,71,32z M70,64H30V36h40V64z
		"/>
	<path d="M47,59.22C47.53,59.7,48.23,60,49,60h2v-2h-2c-0.54,0-1-0.46-1-1V43c0-0.54,0.46-1,1-1h2v-2h-2c-0.77,0-1.47,0.3-2,0.78
		C46.47,40.3,45.77,40,45,40h-2v2h2c0.54,0,1,0.46,1,1v14c0,0.54-0.46,1-1,1h-2v2h2C45.77,60,46.47,59.7,47,59.22L47,59.22z"/>
	<path d="M35.5,53c0.01,1.94,1.57,3.49,3.5,3.5h2v-3h-2c-0.27,0-0.5-0.23-0.5-0.5v-6.5H41v-3h-2.5V41h-3v2.5H33v3h2.5V53z"/>
</g>
</svg>
