<?xml version="1.0" encoding="utf-8"?>
<!-- Generator: Adobe Illustrator 16.0.0, SVG Export Plug-In . SVG Version: 6.00 Build 0)  -->
<!DOCTYPE svg PUBLIC "-//W3C//DTD SVG 1.1 Tiny//EN" "http://www.w3.org/Graphics/SVG/1.1/DTD/svg11-tiny.dtd">
<svg version="1.1" baseProfile="tiny" id="Capa_1" xmlns="http://www.w3.org/2000/svg" xmlns:xlink="http://www.w3.org/1999/xlink"
	 x="0px" y="0px" width="100px" height="100px" viewBox="0 0 100 100" xml:space="preserve">
<g>
	<path d="M69.88,29.87H30.12c-1.65,0-3,1.35-3,3v34.26c0,1.65,1.35,3,3,3h39.75c1.65,0,3-1.35,3-3V32.87
		C72.88,31.22,71.53,29.87,69.88,29.87z M40.41,33.03c0.78,0,1.42,0.63,1.42,1.42s-0.63,1.41-1.42,1.41S39,35.23,39,34.45
		S39.63,33.03,40.41,33.03z M36.06,33.03c0.78,0,1.42,0.63,1.42,1.42c0,0.78-0.63,1.41-1.42,1.41s-1.41-0.63-1.41-1.41
		C34.64,33.66,35.27,33.03,36.06,33.03z M30.29,34.45c0-0.78,0.63-1.42,1.42-1.42s1.41,0.63,1.41,1.42c0,0.78-0.63,1.41-1.41,1.41
		S30.29,35.23,30.29,34.45z M68.88,66.13H31.12V39.78h37.75V66.13z"/>
	<rect x="34" y="44.5" width="18" height="3"/>
	<rect x="34" y="50.5" width="18" height="3"/>
	<rect x="34" y="56.5" width="18" height="3"/>
	<path d="M66,44H54v16h12V44z M63,57h-6V47h6V57z"/>
</g>
</svg>
