<?xml version="1.0" encoding="utf-8"?>
<!-- Generator: Adobe Illustrator 16.0.0, SVG Export Plug-In . SVG Version: 6.00 Build 0)  -->
<!DOCTYPE svg PUBLIC "-//W3C//DTD SVG 1.1 Tiny//EN" "http://www.w3.org/Graphics/SVG/1.1/DTD/svg11-tiny.dtd">
<svg version="1.1" baseProfile="tiny" id="Capa_1" xmlns="http://www.w3.org/2000/svg" xmlns:xlink="http://www.w3.org/1999/xlink"
	 x="0px" y="0px" width="100px" height="100px" viewBox="0 0 100 100" xml:space="preserve">
<path d="M72.5,36.34c-0.18-1.65-0.97-3.24-2.21-4.48c-1.43-1.43-3.33-2.25-5.21-2.25c-1.61,0-3.09,0.6-4.17,1.68L35.17,57.01
	l-2.16,12.12l12.12-2.15l25.73-25.73C72.11,40,72.71,38.21,72.5,36.34z M43.68,64.19l-3.72,0.66c0.05-0.18,0.08-0.36,0.08-0.55
	c0-1.21-0.98-2.19-2.19-2.19c-0.19,0-0.37,0.03-0.55,0.08l0.66-3.72l20.48-20.48l5.72,5.72L43.68,64.19z M68.74,39.13l-2.29,2.29
	l-5.72-5.72l2.29-2.29c0.54-0.54,1.27-0.8,2.05-0.8c1.05,0,2.19,0.47,3.09,1.38C69.75,35.56,70,37.86,68.74,39.13z"/>
</svg>
