<?xml version="1.0" encoding="utf-8"?>
<!-- Generator: Adobe Illustrator 16.0.0, SVG Export Plug-In . SVG Version: 6.00 Build 0)  -->
<!DOCTYPE svg PUBLIC "-//W3C//DTD SVG 1.1 Tiny//EN" "http://www.w3.org/Graphics/SVG/1.1/DTD/svg11-tiny.dtd">
<svg version="1.1" baseProfile="tiny" id="Capa_1" xmlns="http://www.w3.org/2000/svg" xmlns:xlink="http://www.w3.org/1999/xlink"
	 x="0px" y="0px" width="100px" height="100px" viewBox="0 0 100 100" xml:space="preserve">
<g>
	<path d="M56.7,59.22c0,2.34-1.91,4.26-4.26,4.26H31c-2.34,0-4.26-1.91-4.26-4.26V40.78c0-2.34,1.92-4.26,4.26-4.26h21.44
		c2.34,0,4.26,1.92,4.26,4.26V59.22z"/>
	<path d="M62.38,40.92c-2.17,0.88-3.95,3.51-3.95,5.85v6.46c0,2.34,1.78,4.97,3.95,5.85l6.93,2.8c2.17,0.88,3.95-0.32,3.95-2.66
		V40.78c0-2.34-1.78-3.54-3.95-2.66L62.38,40.92z"/>
</g>
</svg>
