<?xml version="1.0" encoding="utf-8"?>
<!-- Generator: Adobe Illustrator 16.0.0, SVG Export Plug-In . SVG Version: 6.00 Build 0)  -->
<!DOCTYPE svg PUBLIC "-//W3C//DTD SVG 1.1 Tiny//EN" "http://www.w3.org/Graphics/SVG/1.1/DTD/svg11-tiny.dtd">
<svg version="1.1" baseProfile="tiny" id="Capa_1" xmlns="http://www.w3.org/2000/svg" xmlns:xlink="http://www.w3.org/1999/xlink"
	 x="0px" y="0px" width="100px" height="100px" viewBox="0 0 100 100" xml:space="preserve">
<g>
	<path d="M31.09,48.34l2.53,1.86l3.27-4.8l2.69,4.93l3.3-8.47l2.64,10.66l2.98-14.2l3.06,13.48l2.74-10.05l3.25,9.55l2.63-4.82
		l3.14,4.61L66,48.12l3.23,2.37l0.76-0.28c0-0.07,0.01-0.14,0.01-0.21c0-11.05-8.95-20-20-20c-10.61,0-19.27,8.27-19.94,18.71
		L31.09,48.34z"/>
	<path d="M68.91,52.74l-2.64-1.94l-3.18,3.5l-2.73-4l-3.24,5.95l-2.62-7.68l-3.13,11.48l-2.81-12.36l-2.89,13.8l-3.23-13.03
		l-2.57,6.6l-3.18-5.84l-2.6,3.81l-3.34-2.45l-0.73,0.27C30.49,61.5,39.24,70,50,70c10.23,0,18.66-7.69,19.84-17.6L68.91,52.74z"/>
</g>
</svg>
