<?xml version="1.0" encoding="utf-8"?>
<!-- Generator: Adobe Illustrator 16.0.0, SVG Export Plug-In . SVG Version: 6.00 Build 0)  -->
<!DOCTYPE svg PUBLIC "-//W3C//DTD SVG 1.1 Tiny//EN" "http://www.w3.org/Graphics/SVG/1.1/DTD/svg11-tiny.dtd">
<svg version="1.1" baseProfile="tiny" id="Capa_1" xmlns="http://www.w3.org/2000/svg" xmlns:xlink="http://www.w3.org/1999/xlink"
	 x="0px" y="0px" width="100px" height="100px" viewBox="0 0 100 100" xml:space="preserve">
<path fill="#020304" d="M50,28.02c-8.47,0-15.36,6.75-15.36,15.05c0,3.98,1.88,7.55,2.69,8.9l9.26,15.11l3.4,5.55l3.42-5.54
	L62.69,52c1.68-2.8,2.67-6.12,2.67-8.94C65.36,34.77,58.47,28.02,50,28.02z M49.83,48.39c-3.4,0-6.16-2.68-6.16-5.99
	s2.76-5.99,6.16-5.99c3.4,0,6.16,2.68,6.16,5.99S53.23,48.39,49.83,48.39z"/>
</svg>
