<?xml version="1.0" encoding="utf-8"?>
<!-- Generator: Adobe Illustrator 16.0.0, SVG Export Plug-In . SVG Version: 6.00 Build 0)  -->
<!DOCTYPE svg PUBLIC "-//W3C//DTD SVG 1.1 Tiny//EN" "http://www.w3.org/Graphics/SVG/1.1/DTD/svg11-tiny.dtd">
<svg version="1.1" baseProfile="tiny" id="Capa_1" xmlns="http://www.w3.org/2000/svg" xmlns:xlink="http://www.w3.org/1999/xlink"
	 x="0px" y="0px" width="100px" height="100px" viewBox="0 0 100 100" xml:space="preserve">
<path d="M50,28c-12.15,0-22,9.85-22,22c0,12.15,9.85,22,22,22c12.15,0,22-9.85,22-22C72,37.85,62.15,28,50,28z M50,68
	c-4.98,0-9.46-2.01-12.73-5.27c-0.46-0.46-0.88-0.94-1.29-1.45c0.58-1.35,1.51-2.38,3.02-2.73c4.2-0.97,8.35-1.84,6.35-5.51
	C39.46,42.17,43.68,36,50.02,36c6.22,0,10.55,5.94,4.66,17.04c-1.94,3.65,2.06,4.51,6.35,5.51c1.5,0.35,2.43,1.36,3.01,2.7
	c-0.41,0.52-0.85,1.01-1.31,1.48C59.46,65.99,54.98,68,50,68z"/>
</svg>
