<?xml version="1.0" encoding="utf-8"?>
<!-- Generator: Adobe Illustrator 16.0.0, SVG Export Plug-In . SVG Version: 6.00 Build 0)  -->
<!DOCTYPE svg PUBLIC "-//W3C//DTD SVG 1.1 Tiny//EN" "http://www.w3.org/Graphics/SVG/1.1/DTD/svg11-tiny.dtd">
<svg version="1.1" baseProfile="tiny" id="Capa_1" xmlns="http://www.w3.org/2000/svg" xmlns:xlink="http://www.w3.org/1999/xlink"
	 x="0px" y="0px" width="100px" height="100px" viewBox="0 0 100 100" xml:space="preserve">
<g>
	<path d="M69.88,29.87H30.12c-1.65,0-3,1.35-3,3v34.26c0,1.65,1.35,3,3,3h39.75c1.65,0,3-1.35,3-3V32.87
		C72.88,31.22,71.53,29.87,69.88,29.87z M40.41,33.03c0.78,0,1.42,0.63,1.42,1.42s-0.63,1.41-1.42,1.41S39,35.23,39,34.45
		S39.63,33.03,40.41,33.03z M36.06,33.03c0.78,0,1.42,0.63,1.42,1.42c0,0.78-0.63,1.41-1.42,1.41s-1.41-0.63-1.41-1.41
		C34.64,33.66,35.27,33.03,36.06,33.03z M30.29,34.45c0-0.78,0.63-1.42,1.42-1.42s1.41,0.63,1.41,1.42c0,0.78-0.63,1.41-1.41,1.41
		S30.29,35.23,30.29,34.45z M31.12,39.78H43v26.36H31.12V39.78z M54,66.13h-4v-2.31h4V66.13z M64,66.13h-4v-2.31h4V66.13z
		 M68.88,66.13H66v-4.31h-8v4.31h-2v-4.31h-8v4.31h-3V39.78h23.88V66.13z"/>
	<path d="M56,42h-8v8.18h8V42z M54,48.18h-4V44h4V48.18z"/>
	<path d="M66,42h-8v8.18h8V42z M64,48.18h-4V44h4V48.18z"/>
	<path d="M56,51.82h-8V60h8V51.82z M54,58h-4v-4.18h4V58z"/>
	<path d="M66,51.82h-8V60h8V51.82z M64,58h-4v-4.18h4V58z"/>
	<rect x="34" y="44.5" width="5.14" height="3"/>
	<rect x="34" y="50.5" width="6" height="3"/>
	<rect x="34" y="56.5" width="5.14" height="3"/>
</g>
</svg>
