<?xml version="1.0" encoding="utf-8"?>
<!-- Generator: Adobe Illustrator 16.0.0, SVG Export Plug-In . SVG Version: 6.00 Build 0)  -->
<!DOCTYPE svg PUBLIC "-//W3C//DTD SVG 1.1 Tiny//EN" "http://www.w3.org/Graphics/SVG/1.1/DTD/svg11-tiny.dtd">
<svg version="1.1" baseProfile="tiny" id="Capa_1" xmlns="http://www.w3.org/2000/svg" xmlns:xlink="http://www.w3.org/1999/xlink"
	 x="0px" y="0px" width="100px" height="100px" viewBox="0 0 100 100" xml:space="preserve">
<path d="M66,33.5c0.54,0,1,0.46,1,1v24c0,0.54-0.46,1-1,1H55.25h-1.43l-0.9,1.12L50,64.23l-2.92-3.61l-0.9-1.12h-1.43H34
	c-0.54,0-1-0.46-1-1v-24c0-0.54,0.46-1,1-1H66 M66,30.5H34c-2.2,0-4,1.8-4,4v24c0,2.2,1.8,4,4,4h10.75L50,69l5.25-6.5H66
	c2.2,0,4-1.8,4-4v-24C70,32.3,68.2,30.5,66,30.5L66,30.5z"/>
<g>
	<path d="M54.39,38.32c-1.25-1.11-2.79-1.7-4.64-1.77c-3.5,0.01-6.22,2.75-6.01,6.1c1.12,0,2.24-0.01,3.37-0.01
		c-0.05-0.8,0.24-1.51,0.76-2.04c0.52-0.53,1.25-0.85,2.09-0.85c0.84,0,1.61,0.32,2.2,0.84c0.59,0.53,0.97,1.24,1.02,2.04
		c0.05,0.8-0.24,1.51-0.76,2.04c-0.46,0.46-1.07,0.75-1.78,0.82l0-0.03l-3,0.1l0.06,5.58l3.38-0.01l-0.23-2.43
		c3.38-0.16,5.91-2.83,5.7-6.09C56.43,40.94,55.61,39.42,54.39,38.32C54.32,38.26,55.61,39.42,54.39,38.32z"/>
	<path d="M49.45,53.04c-1.22,0-2.14,0.95-2.07,2.1c0.07,1.16,1.12,2.09,2.33,2.09c1.22,0,2.14-0.94,2.07-2.1
		C51.71,53.97,50.67,53.03,49.45,53.04z"/>
</g>
</svg>
