<?xml version="1.0" encoding="utf-8"?>
<!-- Generated by IcoMoon.io -->
<!DOCTYPE svg PUBLIC "-//W3C//DTD SVG 1.1//EN" "http://www.w3.org/Graphics/SVG/1.1/DTD/svg11.dtd">
<svg version="1.1" xmlns="http://www.w3.org/2000/svg" xmlns:xlink="http://www.w3.org/1999/xlink" width="32" height="32" viewBox="0 0 32 32">
<g>
	<line stroke-width="1" x1="" y1="" x2="" y2="" stroke="#449FDB" opacity=""></line>
</g>
	<path d="M16 9.6c-3.536 0-6.4 2.864-6.4 6.4s2.864 6.4 6.4 6.4 6.4-2.864 6.4-6.4-2.867-6.4-6.4-6.4zM15.027 20.090l-3.117-3.734 0.179-0.093c0.003-0.003 0.154-0.080 0.365-0.157s0.483-0.157 0.752-0.157c0.070 0 0.144 0.006 0.214 0.022 0.093 0.019 0.173 0.064 0.262 0.118 0.086 0.054 0.176 0.125 0.269 0.205 0.186 0.157 0.381 0.355 0.56 0.547 0.214 0.23 0.406 0.454 0.525 0.598 0.214-0.278 0.688-0.883 1.232-1.558 0.742-0.918 1.606-1.955 2.128-2.448 0.154-0.141 0.266-0.24 0.387-0.288 0.154-0.061 0.317-0.083 0.474-0.083 0.579 0.003 1.136 0.278 1.149 0.282l0.186 0.090-5.565 6.656z" fill="#000000"></path>
</svg>
