<?xml version="1.0" encoding="utf-8"?>
<!-- Generator: Adobe Illustrator 16.0.0, SVG Export Plug-In . SVG Version: 6.00 Build 0)  -->
<!DOCTYPE svg PUBLIC "-//W3C//DTD SVG 1.1//EN" "http://www.w3.org/Graphics/SVG/1.1/DTD/svg11.dtd">
<svg version="1.1" id="Capa_1" xmlns="http://www.w3.org/2000/svg" xmlns:xlink="http://www.w3.org/1999/xlink" x="0px" y="0px"
	 width="6.083px" height="28px" viewBox="-0.25 0 6.083 28" enable-background="new -0.25 0 6.083 28" xml:space="preserve">
<g id="icomoon-ignore">
	<line fill="none" stroke="#449FDB" x1="0" y1="0" x2="0" y2="0"/>
</g>
<path d="M0.174,18.83v-7.974h0.622c0.148,0,0.244,0.073,0.283,0.218l0.09,0.706c0.255-0.312,0.546-0.561,0.874-0.748
	c0.328-0.188,0.706-0.283,1.131-0.283c0.342,0,0.65,0.067,0.93,0.196c0.28,0.129,0.516,0.325,0.711,0.582
	c0.197,0.258,0.348,0.574,0.455,0.955c0.106,0.381,0.16,0.818,0.16,1.31c0,0.44-0.06,0.849-0.177,1.226
	c-0.116,0.379-0.286,0.707-0.507,0.983s-0.49,0.493-0.809,0.651c-0.319,0.16-0.679,0.238-1.079,0.238
	c-0.367,0-0.683-0.062-0.944-0.182c-0.261-0.12-0.49-0.294-0.692-0.518v2.635H0.176L0.174,18.83z M2.825,11.598
	c-0.342,0-0.641,0.078-0.896,0.235c-0.258,0.157-0.493,0.378-0.708,0.664v2.881c0.193,0.258,0.403,0.442,0.633,0.546
	c0.23,0.106,0.484,0.16,0.767,0.16c0.552,0,0.977-0.199,1.277-0.594c0.297-0.396,0.447-0.961,0.447-1.694
	c0-0.389-0.033-0.722-0.104-1c-0.07-0.278-0.168-0.507-0.297-0.686c-0.129-0.179-0.288-0.308-0.476-0.392
	C3.279,11.637,3.066,11.598,2.825,11.598z"/>
</svg>
