<?xml version="1.0" encoding="utf-8"?>
<!-- Generated by IcoMoon.io -->
<!DOCTYPE svg PUBLIC "-//W3C//DTD SVG 1.1//EN" "http://www.w3.org/Graphics/SVG/1.1/DTD/svg11.dtd">
<svg version="1.1" xmlns="http://www.w3.org/2000/svg" xmlns:xlink="http://www.w3.org/1999/xlink" width="6" height="28" viewBox="0 0 6 28">
<g id="icomoon-ignore">
	<line stroke-width="1" x1="" y1="" x2="" y2="" stroke="#449FDB" opacity=""></line>
</g>
	<path d="M0.174 18.83v-7.974h0.622c0.148 0 0.244 0.073 0.283 0.218l0.090 0.706c0.255-0.311 0.546-0.56 0.874-0.748s0.706-0.283 1.131-0.283c0.342 0 0.65 0.067 0.93 0.196s0.515 0.325 0.711 0.582c0.196 0.258 0.347 0.574 0.454 0.955s0.16 0.818 0.16 1.31c0 0.44-0.059 0.848-0.176 1.226s-0.286 0.706-0.507 0.983c-0.221 0.277-0.49 0.493-0.809 0.652s-0.678 0.238-1.078 0.238c-0.367 0-0.683-0.062-0.944-0.182s-0.49-0.294-0.692-0.518v2.635h-1.047zM2.825 11.598c-0.342 0-0.641 0.078-0.896 0.235-0.258 0.157-0.493 0.378-0.708 0.664v2.881c0.193 0.258 0.403 0.442 0.633 0.546 0.23 0.106 0.484 0.16 0.767 0.16 0.552 0 0.977-0.199 1.277-0.594 0.297-0.395 0.448-0.96 0.448-1.694 0-0.389-0.034-0.722-0.104-1s-0.168-0.507-0.297-0.686c-0.129-0.179-0.288-0.308-0.476-0.392-0.19-0.081-0.403-0.12-0.644-0.12z" opacity="1" visibility="false" fill="#000000"></path>
</svg>
