<?xml version="1.0" encoding="utf-8"?>
<!-- Generated by IcoMoon.io -->
<!DOCTYPE svg PUBLIC "-//W3C//DTD SVG 1.1//EN" "http://www.w3.org/Graphics/SVG/1.1/DTD/svg11.dtd">
<svg version="1.1" xmlns="http://www.w3.org/2000/svg" xmlns:xlink="http://www.w3.org/1999/xlink" width="32" height="32" viewBox="0 0 32 32">
<g>
	<line stroke-width="1" x1="" y1="" x2="" y2="" stroke="#449FDB" opacity=""></line>
</g>
	<path d="M23.2 11.629c-0.058-0.528-0.31-1.037-0.707-1.434-0.458-0.458-1.066-0.72-1.667-0.72-0.515 0-0.989 0.192-1.334 0.538l-8.237 8.23-0.691 3.878 3.878-0.688 8.234-8.234c0.4-0.4 0.592-0.973 0.525-1.571zM13.978 20.541l-1.19 0.211c0.016-0.058 0.026-0.115 0.026-0.176 0-0.387-0.314-0.701-0.701-0.701-0.061 0-0.118 0.010-0.176 0.026l0.211-1.19 6.554-6.554 1.83 1.83-6.554 6.554zM21.997 12.522l-0.733 0.733-1.83-1.83 0.733-0.733c0.173-0.173 0.406-0.256 0.656-0.256 0.336 0 0.701 0.15 0.989 0.442 0.509 0.502 0.589 1.238 0.186 1.645z" fill="#000000"></path>
</svg>
