<?xml version="1.0" encoding="utf-8"?>
<!-- Generated by IcoMoon.io -->
<!DOCTYPE svg PUBLIC "-//W3C//DTD SVG 1.1//EN" "http://www.w3.org/Graphics/SVG/1.1/DTD/svg11.dtd">
<svg version="1.1" xmlns="http://www.w3.org/2000/svg" xmlns:xlink="http://www.w3.org/1999/xlink" width="256" height="256" viewBox="0 0 256 256">
<g id="icomoon-ignore">
	<line stroke-width="1" x1="" y1="" x2="" y2="" stroke="#449FDB" opacity=""></line>
</g>
	<path d="M74.419 64.281h0.077c17.101 0 30.618 5.606 39.168 13.952l7.424-7.603c-10.855-10.547-27.111-16.922-46.439-16.947v0h-0.205c-20.787 0-38.041 7.347-48.819 19.328l7.91 7.117c8.371-9.395 22.553-15.821 40.883-15.847v0z" fill="#000000"></path>
	<path d="M80.077 82.688c7.398 1.254 12.775 4.941 15.463 9.626l4.608-2.637c-4.429-7.757-13.747-12.775-25.395-12.8v0h-0.128c-11.418 0-20.557 4.787-25.139 12.263l4.531 2.765c2.688-4.429 7.834-7.885 14.797-9.165-1.152 1.331-1.869 3.021-1.869 4.915 0 4.147 3.353 7.526 7.526 7.526 4.147 0 7.526-3.379 7.526-7.526 0-1.894-0.717-3.635-1.92-4.966z" fill="#000000"></path>
	<path d="M181.376 76.903v0h-0.128c-11.648 0.025-20.941 5.043-25.395 12.8l4.608 2.637c2.688-4.71 8.064-8.397 15.463-9.626-1.178 1.331-1.92 3.072-1.92 4.966 0 4.147 3.379 7.526 7.526 7.526s7.526-3.379 7.526-7.526c0-1.894-0.717-3.584-1.869-4.915 6.963 1.28 12.109 4.736 14.797 9.165l4.531-2.765c-4.583-7.475-13.721-12.263-25.139-12.263z" fill="#000000"></path>
	<path d="M181.581 53.657v0h-0.205c-19.328 0.026-35.584 6.4-46.413 16.947l7.424 7.603c8.576-8.346 22.067-13.952 39.168-13.952h0.077c18.329 0.025 32.512 6.451 40.909 15.821l7.859-7.091c-10.778-11.981-28.032-19.328-48.819-19.328z" fill="#000000"></path>
	<path d="M117.683 155.904c-0.461-0.819-0.743-1.715-0.743-2.944h-7.962c0 2.535 0.665 4.941 1.843 6.938 1.766 3.021 4.531 5.095 7.526 6.4 3.021 1.305 6.349 1.92 9.651 1.92 4.429-0.025 8.883-1.049 12.57-3.482 1.843-1.229 3.456-2.816 4.633-4.839 1.178-1.997 1.843-4.403 1.843-6.938h-7.962c0 1.229-0.281 2.125-0.743 2.944-0.691 1.203-1.997 2.304-3.84 3.123-1.843 0.793-4.147 1.255-6.477 1.255-3.097 0.025-6.169-0.819-8.141-2.15-0.999-0.666-1.715-1.408-2.201-2.227z" fill="#000000"></path>
	<path d="M170.496 194.381c-6.375 0-11.008-1.638-15.257-3.456-2.125-0.896-4.147-1.869-6.246-2.662s-4.327-1.434-6.835-1.434c-1.69 0.025-3.047 0.435-4.327 0.896-1.92 0.717-3.712 1.613-5.401 2.253-1.69 0.666-3.251 1.075-4.429 1.075-1.587 0.025-3.814-0.743-6.169-1.792-1.177-0.512-2.381-1.075-3.661-1.536s-2.662-0.896-4.326-0.896c-2.483 0-4.736 0.64-6.835 1.434-6.297 2.406-11.955 6.093-21.504 6.093-2.201 0-3.993 1.792-3.993 3.994s1.792 3.994 3.993 3.994c7.808 0 13.773-2.125 18.381-4.071 2.304-0.973 4.275-1.894 5.939-2.535s2.969-0.922 4.019-0.922c0.077-0.025 0.717 0.077 1.587 0.41 1.331 0.487 3.149 1.382 5.248 2.202s4.531 1.613 7.347 1.613c3.738-0.025 6.809-1.382 9.344-2.458 1.255-0.537 2.381-1.049 3.251-1.382s1.485-0.435 1.587-0.41c1.049 0 2.355 0.307 4.019 0.922 4.992 1.817 12.621 6.605 24.32 6.605 2.202 0 3.994-1.792 3.994-3.994s-1.843-3.942-4.045-3.942z" fill="#000000"></path>
</svg>
