<?xml version="1.0" encoding="utf-8"?>
<!-- Generated by IcoMoon.io -->
<!DOCTYPE svg PUBLIC "-//W3C//DTD SVG 1.1//EN" "http://www.w3.org/Graphics/SVG/1.1/DTD/svg11.dtd">
<svg version="1.1" xmlns="http://www.w3.org/2000/svg" xmlns:xlink="http://www.w3.org/1999/xlink" width="32" height="32" viewBox="0 0 32 32">
<g id="icomoon-ignore">
	<line stroke-width="1" x1="" y1="" x2="" y2="" stroke="#449FDB" opacity=""></line>
</g>
	<path d="M22.72 8.96h-13.44c-0.528 0-0.96 0.432-0.96 0.96v12.16c0 0.528 0.432 0.96 0.96 0.96h13.44c0.528 0 0.96-0.432 0.96-0.96v-12.16c0-0.528-0.432-0.96-0.96-0.96zM22.4 10.24v7.19l-2.451-1.885c-0.448-0.349-1.19-0.346-1.638 0l-0.838 0.646-2.509 1.93c-0.675 0.518-1.638 0.845-2.49 0.848h-2.848c-0.010 0-0.016 0.003-0.026 0.003v-0.64c0.010 0 0.016-0.003 0.026-0.003h2.848c0.707 0.003 1.539-0.282 2.099-0.714l2.442-1.878-2.032-2.032c-0.499-0.496-1.312-0.496-1.811 0l-3.306 3.309c-0.083 0.083-0.176 0.166-0.266 0.256v-7.030h12.8z" fill="#000000"></path>
	<path d="M19.52 14.080c0.874 0 1.6-0.726 1.6-1.6s-0.726-1.6-1.6-1.6-1.6 0.726-1.6 1.6 0.726 1.6 1.6 1.6z" fill="#000000"></path>
</svg>
