<?xml version="1.0" encoding="utf-8"?>
<!-- Generated by IcoMoon.io -->
<!DOCTYPE svg PUBLIC "-//W3C//DTD SVG 1.1//EN" "http://www.w3.org/Graphics/SVG/1.1/DTD/svg11.dtd">
<svg version="1.1" xmlns="http://www.w3.org/2000/svg" xmlns:xlink="http://www.w3.org/1999/xlink" width="32" height="32" viewBox="0 0 32 32">
<g>
	<line stroke-width="1" x1="" y1="" x2="" y2="" stroke="#449FDB" opacity=""></line>
</g>
	<path d="M30.077 17.197c-0.058-1.638-1.898-2.326-3.261-1.715-0.342-1.382-2.003-1.862-3.21-1.315-0.413-1.542-2.477-1.958-3.658-1.027-0.493-1.766-1.306-3.459-2.509-4.858-0.541-0.63-1.162-1.197-1.84-1.674-0.717-0.502-1.594-1.085-2.49-1.126-1.773-0.083-3.232 2.237-1.859 3.632 0.294 0.298 0.666 0.426 1.027 0.614 0.371 0.192 0.717 0.435 1.027 0.72 0.605 0.554 1.062 1.251 1.408 1.994 0.797 1.706 1.072 3.632 1.2 5.494 0.067 0.947 0.086 1.907 0.086 2.864-0.006 0.886-1.229 0.886-1.757 0.509-0.301-0.214-0.538-0.531-0.797-0.794-0.307-0.31-0.618-0.614-0.928-0.922-0.32-0.314-0.637-0.624-0.954-0.938-0.301-0.298-0.589-0.573-0.995-0.717-1.472-0.534-3.085 0.451-4.227 1.306-0.074 0.054-0.144 0.109-0.218 0.163l8.931 10.992c2.493 0 4.982 0 7.475 0 1.101 0 2.202 0 3.302 0 0.557 0 1.117 0.006 1.632-0.246 0.845-0.416 1.152-1.325 1.325-2.189 0.365-1.843 0.579-3.722 0.806-5.584 0.122-0.998 0.237-1.994 0.336-2.995 0.067-0.698 0.23-1.488 0.144-2.189-0.013-0.291 0.003 0.032 0 0zM28.8 17.389v0c-0.038 1.744-0.307 3.501-0.522 5.229-0.218 1.734-0.403 3.494-0.768 5.206-0.074 0.342-0.16 0.742-0.397 1.014-0.218 0.253-0.579 0.282-0.893 0.282-0.278 0-0.557 0-0.835 0-1.034 0-2.064 0-3.098 0-2.208 0-4.416 0-6.624 0l-7.677-9.45c0.618-0.355 1.808-0.966 2.438-0.339v0c0.845 0.845 1.747 1.645 2.541 2.541l-0.006-0.010c1.075 1.229 3.315 1.427 4.125-0.224 0.358-0.733 0.195-1.728 0.17-2.518-0.032-0.944-0.093-1.888-0.214-2.826-0.237-1.853-0.682-3.754-1.683-5.354-0.448-0.717-1.014-1.357-1.693-1.859-0.333-0.243-0.688-0.454-1.062-0.627-0.384-0.176-0.678-0.368-0.582-0.848 0.115-0.573 0.659-0.957 1.235-0.822 0.57 0.134 1.142 0.538 1.616 0.87 0.954 0.672 1.757 1.536 2.387 2.515 1.149 1.779 1.885 4.042 1.942 6.166l1.28-0.016c0-0.56-0.054-1.149 0.006-1.706 0.080-0.742 1.158-0.88 1.654-0.474 0.32 0.259 0.259 0.672 0.259 1.040 0 0.288 0 0.576 0 0.864 0 0.339 0 0.682 0 1.021h1.28c0-0.17 0-0.336 0-0.506 0-0.339-0.077-0.765 0.17-1.040 0.426-0.47 1.571-0.429 1.728 0.285 0.077 0.339 0.022 0.739 0.022 1.085 0 0.278 0 0.554 0 0.832h1.28c0-0.429-0.038-0.832 0.413-1.059 0.547-0.275 1.504-0.141 1.507 0.618 0 0 0 0.058 0 0.109z" fill="#000000"></path>
</svg>
