<?xml version="1.0" encoding="utf-8"?>
<!-- Generated by IcoMoon.io -->
<!DOCTYPE svg PUBLIC "-//W3C//DTD SVG 1.1//EN" "http://www.w3.org/Graphics/SVG/1.1/DTD/svg11.dtd">
<svg version="1.1" xmlns="http://www.w3.org/2000/svg" xmlns:xlink="http://www.w3.org/1999/xlink" width="32" height="32" viewBox="0 0 32 32">
<g id="icomoon-ignore">
	<line stroke-width="1" x1="" y1="" x2="" y2="" stroke="#449FDB" opacity=""></line>
</g>
	<path d="M11.302 23.258c0 1.414-1.146 2.56-2.56 2.56s-2.56-1.146-2.56-2.56c0-1.414 1.146-2.56 2.56-2.56s2.56 1.146 2.56 2.56z" opacity="1" visibility="false" fill="#000000"></path>
	<path d="M11.491 17.795c0.906 0 1.811 0 1.811 0l-2.784 2.784c0.17 0.128 0.333 0.262 0.49 0.416 0.154 0.154 0.291 0.32 0.416 0.49l2.784-2.784c0 0 0 0.906 0 1.811s1.357 1.357 1.357 1.357v-5.434h-5.43c0 0 0.451 1.36 1.357 1.36z" opacity="1" visibility="false" fill="#000000"></path>
	<path d="M25.818 8.742c0 1.414-1.146 2.56-2.56 2.56s-2.56-1.146-2.56-2.56c0-1.414 1.146-2.56 2.56-2.56s2.56 1.146 2.56 2.56z" opacity="1" visibility="false" fill="#000000"></path>
	<path d="M20.509 14.205c-0.906 0-1.811 0-1.811 0l2.784-2.784c-0.17-0.128-0.333-0.262-0.49-0.416-0.154-0.154-0.291-0.32-0.416-0.49l-2.784 2.784c0 0 0-0.906 0-1.811s-1.357-1.357-1.357-1.357v5.43h5.43c0 0.003-0.451-1.357-1.357-1.357z" opacity="1" visibility="false" fill="#000000"></path>
</svg>
