<?xml version="1.0" encoding="utf-8"?>
<!-- Generated by IcoMoon.io -->
<!DOCTYPE svg PUBLIC "-//W3C//DTD SVG 1.1//EN" "http://www.w3.org/Graphics/SVG/1.1/DTD/svg11.dtd">
<svg version="1.1" xmlns="http://www.w3.org/2000/svg" xmlns:xlink="http://www.w3.org/1999/xlink" width="32" height="32" viewBox="0 0 32 32">
<g id="icomoon-ignore">
	<line stroke-width="1" x1="" y1="" x2="" y2="" stroke="#449FDB" opacity=""></line>
</g>
	<path d="M7.52 14.621c0 1.146 0.435 2.298 1.309 3.168 0.17 0.17 0.336 0.336 0.499 0.499 0.115-0.176 0.253-0.342 0.406-0.499 0.154-0.154 0.32-0.288 0.499-0.406-0.16-0.16-0.326-0.326-0.499-0.499-0.621-0.621-0.931-1.44-0.931-2.262s0.31-1.642 0.931-2.262c0.342-0.342 0.669-0.669 0.97-0.97-0.013 0.541-0.026 1.197-0.035 1.632-0.019 0.851 1.248 1.302 1.248 1.302l0.106-5.104-5.104-0.106c0 0 0.4 1.283 1.248 1.302 0.442 0.010 1.117 0.022 1.661 0.032-0.31 0.31-0.65 0.65-1.005 1.005-0.867 0.87-1.302 2.022-1.302 3.168z" opacity="1" visibility="false" fill="#000000"></path>
	<path d="M23.83 21.584c-0.442-0.010-1.117-0.022-1.661-0.032 0.31-0.31 0.65-0.65 1.005-1.005 0.87-0.87 1.309-2.022 1.309-3.168s-0.435-2.298-1.309-3.168c-0.17-0.17-0.336-0.336-0.499-0.499-0.115 0.176-0.253 0.342-0.406 0.499-0.154 0.154-0.32 0.291-0.499 0.406 0.163 0.163 0.326 0.326 0.499 0.499 0.621 0.621 0.931 1.44 0.931 2.262s-0.31 1.642-0.931 2.262c-0.342 0.342-0.669 0.669-0.97 0.97 0.013-0.541 0.026-1.197 0.035-1.632 0.019-0.851-1.248-1.302-1.248-1.302l-0.109 5.107 5.104 0.106c0-0.003-0.4-1.286-1.251-1.306z" opacity="1" visibility="false" fill="#000000"></path>
	<path d="M14.554 20.051c0 1.414-1.146 2.56-2.56 2.56s-2.56-1.146-2.56-2.56c0-1.414 1.146-2.56 2.56-2.56s2.56 1.146 2.56 2.56z" opacity="1" visibility="false" fill="#000000"></path>
	<path d="M22.566 11.949c0 1.414-1.146 2.56-2.56 2.56s-2.56-1.146-2.56-2.56c0-1.414 1.146-2.56 2.56-2.56s2.56 1.146 2.56 2.56z" opacity="1" visibility="false" fill="#000000"></path>
</svg>
