<?xml version="1.0" encoding="utf-8"?>
<!-- Generated by IcoMoon.io -->
<!DOCTYPE svg PUBLIC "-//W3C//DTD SVG 1.1//EN" "http://www.w3.org/Graphics/SVG/1.1/DTD/svg11.dtd">
<svg version="1.1" xmlns="http://www.w3.org/2000/svg" xmlns:xlink="http://www.w3.org/1999/xlink" width="512" height="512" viewBox="0 0 512 512">
<g id="icomoon-ignore">
	<line stroke-width="1" x1="" y1="" x2="" y2="" stroke="#449FDB" opacity=""></line>
</g>
	<path d="M403.865 213.965l-0.512-0.87-0.615 0.358c-2.918-1.178-6.093-1.843-9.421-1.843h-39.834v20.48h18.688l-110.439 67.174c-1.433 0.921-4.454 1.792-7.577 1.741-3.174 0.051-6.349-0.87-7.782-1.843l-107.315-67.072h15.411v-20.48h-35.737c-3.328 0-6.502 0.717-9.421 1.843l-0.512-0.307-0.409 0.666c-8.96 3.994-15.207 12.903-15.258 23.347v157.082c0.051 14.131 11.469 25.549 25.6 25.6h274.586c14.131-0.051 25.549-11.469 25.6-25.6v-157.030c-0.051-10.343-6.195-19.2-15.053-23.245zM396.902 397.824c-0.973 0.973-2.202 1.485-3.584 1.485h-274.637c-1.382 0-2.611-0.563-3.584-1.485-0.973-0.973-1.485-2.202-1.536-3.635v-153.856l121.959 76.237c5.786 3.584 12.237 4.915 18.637 4.966 6.247-0.051 12.544-1.331 18.227-4.711l126.003-76.697v154.112c0 1.382-0.512 2.611-1.485 3.584z" opacity="1" visibility="false" fill="#000000"></path>
	<path d="M265.267 243.2v-148.633c17.255 17.203 50.688 50.585 59.341 59.239 11.878 11.879 35.533 0 35.533 0l-105.319-105.165-104.857 104.858c0 0 23.654 11.827 35.533 0 8.755-8.755 42.291-42.291 59.29-59.341v148.992h20.48z" opacity="1" visibility="false" fill="#000000"></path>
</svg>
