<?xml version="1.0" encoding="utf-8"?>
<!-- Generated by IcoMoon.io -->
<!DOCTYPE svg PUBLIC "-//W3C//DTD SVG 1.1//EN" "http://www.w3.org/Graphics/SVG/1.1/DTD/svg11.dtd">
<svg version="1.1" xmlns="http://www.w3.org/2000/svg" xmlns:xlink="http://www.w3.org/1999/xlink" width="512" height="512" viewBox="0 0 512 512">
<g id="icomoon-ignore">
	<line stroke-width="1" x1="" y1="" x2="" y2="" stroke="#449FDB" opacity=""></line>
</g>
	<path d="M391.987 92.109c-2.457-3.072-5.376-5.478-8.755-7.68-5.888-3.789-13.056-6.912-21.504-9.626-12.647-4.096-28.211-7.322-45.875-9.575s-37.376-3.481-58.266-3.481c-36.352 0-69.222 3.737-93.747 10.035-12.288 3.174-22.477 6.912-30.413 11.725-3.942 2.406-7.424 5.12-10.189 8.602-2.765 3.43-4.864 7.987-4.864 13.056v270.49c0 5.069 2.099 9.625 4.864 13.056 2.457 3.072 5.376 5.478 8.755 7.68 5.888 3.789 13.056 6.912 21.504 9.625 12.647 4.096 28.211 7.322 45.875 9.575s37.376 3.481 58.265 3.481c36.352 0 69.222-3.738 93.747-10.035 12.288-3.175 22.477-6.912 30.413-11.725 3.942-2.406 7.424-5.12 10.189-8.601 2.765-3.43 4.864-7.987 4.864-13.056v-270.49c0-5.069-2.099-9.626-4.864-13.056zM140.697 103.475c2.406-2.15 7.526-5.069 14.592-7.629 10.599-3.942 25.549-7.424 43.111-9.831s37.785-3.789 59.29-3.789c34.867 0 66.509 3.686 88.627 9.421 11.059 2.816 19.763 6.246 24.883 9.37 2.56 1.536 4.199 3.021 4.813 3.84l0.205 0.307c-0.256 0.359-0.717 0.921-1.587 1.689-2.406 2.15-7.526 5.069-14.592 7.629-10.599 3.942-25.549 7.424-43.111 9.831s-37.786 3.789-59.289 3.789c-34.867 0-66.509-3.686-88.627-9.421-11.059-2.816-19.763-6.246-24.883-9.37-2.56-1.536-4.198-3.021-4.813-3.84l-0.205-0.307c0.256-0.359 0.717-0.973 1.587-1.689zM374.63 377.395c-2.406 2.151-7.526 5.069-14.592 7.629-10.599 3.942-25.549 7.424-43.111 9.831s-37.786 3.789-59.289 3.789c-34.867 0-66.509-3.687-88.627-9.421-11.059-2.816-19.763-6.247-24.883-9.37-2.56-1.536-4.198-3.021-4.813-3.84l-0.41-0.615v-245.657c4.352 2.15 9.165 4.045 14.592 5.837 12.647 4.096 28.211 7.321 45.875 9.575s37.376 3.482 58.266 3.482c36.352 0 69.222-3.738 93.747-10.035 9.677-2.509 17.971-5.376 24.986-8.806v245.658c-0.103 0.154-0.563 0.921-1.741 1.945z" opacity="1" visibility="false" fill="#000000"></path>
</svg>
