<?xml version="1.0" encoding="utf-8"?>
<!-- Generated by IcoMoon.io -->
<!DOCTYPE svg PUBLIC "-//W3C//DTD SVG 1.1//EN" "http://www.w3.org/Graphics/SVG/1.1/DTD/svg11.dtd">
<svg version="1.1" xmlns="http://www.w3.org/2000/svg" xmlns:xlink="http://www.w3.org/1999/xlink" width="256" height="256" viewBox="0 0 256 256">
<g id="icomoon-ignore">
	<line stroke-width="1" x1="" y1="" x2="" y2="" stroke="#449FDB" opacity=""></line>
</g>
	<path d="M199.091 42.727c6.579-0.512 13.107-0.998 14.592-1.101l-37.734 37.683 7.245 7.245 37.734-37.683c-0.102 1.536-0.614 8.038-1.126 14.592-0.563 7.501 10.343 10.368 10.343 10.368l3.456-44.825-44.826 3.379c-0.025-0.026 2.816 10.905 10.317 10.343z" opacity="1" visibility="false" fill="#000000"></path>
	<path d="M84.915 197.376c-6.553 0.512-13.056 0.999-14.592 1.126l37.273-37.274-7.245-7.245-37.248 37.274c0.102-1.485 0.589-8.013 1.127-14.592 0.563-7.501-10.343-10.343-10.343-10.368l-3.405 44.826 44.825-3.405c-0.025 0-2.893-10.905-10.394-10.343z" opacity="1" visibility="false" fill="#000000"></path>
	<path d="M170.675 114.867l-0.205 0.179-0.025 0.025z" opacity="1" visibility="false" fill="#000000"></path>
	<path d="M143.027 87.629v0c-3.789 3.789-5.683 8.781-5.683 13.722s1.894 9.933 5.683 13.722v0c3.789 3.789 8.755 5.683 13.721 5.683 4.941 0 9.933-1.894 13.721-5.683v0c3.763-3.763 5.683-8.755 5.657-13.696 0-4.941-1.894-9.933-5.683-13.722v0c-3.789-3.789-8.755-5.683-13.721-5.683-4.941-0.025-9.933 1.894-13.696 5.657zM165.018 109.645v0c-2.304 2.304-5.274 3.43-8.294 3.43s-5.99-1.127-8.294-3.43v0c-2.304-2.304-3.43-5.273-3.43-8.269 0-3.021 1.126-5.99 3.43-8.294s5.274-3.43 8.294-3.43c3.021 0 5.99 1.126 8.294 3.43s3.43 5.273 3.43 8.294c0 2.995-1.126 5.965-3.43 8.269z" opacity="1" visibility="false" fill="#000000"></path>
	<path d="M109.133 122.087v0 0z" opacity="1" visibility="false" fill="#000000"></path>
	<path d="M122.855 155.187c4.941 0 9.933-1.894 13.721-5.683s5.683-8.755 5.683-13.721c0-4.941-1.894-9.933-5.683-13.722s-8.755-5.683-13.722-5.683c-4.941 0-9.933 1.894-13.722 5.683s-5.683 8.781-5.683 13.722c0 4.941 1.894 9.933 5.683 13.721s8.781 5.683 13.722 5.683zM114.56 127.513v0c2.304-2.304 5.273-3.43 8.294-3.43s5.99 1.126 8.269 3.43c2.304 2.304 3.43 5.274 3.43 8.294s-1.126 5.99-3.43 8.269c-2.304 2.304-5.273 3.43-8.294 3.43s-5.99-1.126-8.294-3.43c-2.304-2.304-3.43-5.274-3.43-8.269 0.051-3.021 1.177-5.99 3.456-8.294z" opacity="1" visibility="false" fill="#000000"></path>
</svg>
