<?xml version="1.0" encoding="utf-8"?>
<!-- Generated by IcoMoon.io -->
<!DOCTYPE svg PUBLIC "-//W3C//DTD SVG 1.1//EN" "http://www.w3.org/Graphics/SVG/1.1/DTD/svg11.dtd">
<svg version="1.1" xmlns="http://www.w3.org/2000/svg" xmlns:xlink="http://www.w3.org/1999/xlink" width="512" height="512" viewBox="0 0 512 512">
<g id="icomoon-ignore">
	<line stroke-width="1" x1="" y1="" x2="" y2="" stroke="#449FDB" opacity=""></line>
</g>
	<path d="M448.87 245.145h-89.702c-4.711-22.835-24.935-39.936-49.152-39.936-20.377 0-37.888 12.185-45.721 29.594 0 0-0.051 0-0.051 0h-197.069c-8.448 0-15.36 6.912-15.36 15.36v10.24c0 8.448 6.912 15.36 15.36 15.36h196.967c7.834 17.562 25.395 29.849 45.875 29.849 24.217 0 44.39-17.152 49.152-39.936h89.702c5.632 0 10.24-4.608 10.24-10.24s-4.608-10.291-10.24-10.291zM331.059 276.429c-5.427 5.376-12.8 8.704-20.992 8.704-8.243 0-15.616-3.328-20.992-8.704-5.376-5.427-8.704-12.8-8.704-20.992 0-8.243 3.328-15.616 8.704-20.992 5.427-5.376 12.8-8.704 20.992-8.704 8.243 0 15.616 3.328 20.992 8.704 5.376 5.427 8.704 12.8 8.704 20.992s-3.328 15.565-8.704 20.992z" opacity="1" visibility="false" fill="#000000"></path>
</svg>
