<?xml version="1.0" encoding="utf-8"?>
<!-- Generated by IcoMoon.io -->
<!DOCTYPE svg PUBLIC "-//W3C//DTD SVG 1.1//EN" "http://www.w3.org/Graphics/SVG/1.1/DTD/svg11.dtd">
<svg version="1.1" xmlns="http://www.w3.org/2000/svg" xmlns:xlink="http://www.w3.org/1999/xlink" width="512" height="512" viewBox="0 0 512 512">
<g id="icomoon-ignore">
	<line stroke-width="1" x1="" y1="" x2="" y2="" stroke="#449FDB" opacity=""></line>
</g>
	<path d="M162.918 440.115c-12.903 2.918-25.6 5.786-28.57 6.451l29.286-39.424-16.435-12.185-29.287 39.424c-0.205-3.021-1.127-16.077-2.048-29.184-1.075-15.002-23.501-17.459-23.501-17.459l6.349 89.702 87.706-19.865c0 0-8.806-20.787-23.501-17.459z" opacity="1" visibility="false" fill="#000000"></path>
	<path d="M194.458 312.217c-22.631 0-40.96 18.329-40.96 40.96s18.329 40.96 40.96 40.96 40.96-18.329 40.96-40.96c0-22.63-18.329-40.96-40.96-40.96zM194.458 378.777c-14.131 0-25.6-11.469-25.6-25.6s11.469-25.6 25.6-25.6 25.6 11.469 25.6 25.6c0 14.131-11.469 25.6-25.6 25.6z" opacity="1" visibility="false" fill="#000000"></path>
	<path d="M95.949 205.977l-34.151-35.225c3.072 0.256 16.026 1.434 29.133 2.714 14.951 1.382 21.043-20.377 21.043-20.377l-89.549-8.243 5.427 89.754c0 0 21.913-5.376 20.992-20.377-0.819-13.209-1.587-26.215-1.741-29.235l34.15 35.277 14.695-14.285z" opacity="1" visibility="false" fill="#000000"></path>
	<path d="M94.259 250.778c0 21.453 17.357 38.809 38.809 38.809s38.809-17.357 38.809-38.81c0-21.401-17.357-38.81-38.81-38.81s-38.809 17.357-38.809 38.81zM116.48 234.189c4.249-4.25 10.087-6.861 16.589-6.861s12.288 2.611 16.589 6.861c4.25 4.25 6.861 10.087 6.861 16.589s-2.611 12.288-6.861 16.589c-4.25 4.25-10.087 6.861-16.589 6.861s-12.288-2.611-16.589-6.861c-4.249-4.25-6.861-10.087-6.861-16.589s2.611-12.288 6.861-16.589z" opacity="1" visibility="false" fill="#000000"></path>
	<path d="M192.819 113.305c8.55-10.087 17.049-20.019 18.995-22.272l0.205 49.101 20.48-0.102-0.205-49.049c1.997 2.304 10.547 12.186 19.149 22.118 9.831 11.367 29.286-0.103 29.286-0.103l-58.931-67.993-58.266 68.454c0 0 19.507 11.315 29.286-0.153z" opacity="1" visibility="false" fill="#000000"></path>
	<path d="M215.040 159.181c-21.453 0-38.809 17.357-38.809 38.809s17.357 38.81 38.81 38.81c21.453 0 38.81-17.357 38.81-38.81s-17.357-38.81-38.81-38.81zM231.629 214.528c-4.25 4.25-10.087 6.861-16.589 6.861s-12.288-2.611-16.589-6.861c-4.25-4.25-6.861-10.087-6.861-16.589s2.611-12.288 6.861-16.589c4.25-4.25 10.087-6.861 16.589-6.861s12.288 2.611 16.589 6.861c4.25 4.25 6.861 10.087 6.861 16.589s-2.611 12.339-6.861 16.589z" opacity="1" visibility="false" fill="#000000"></path>
	<path d="M420.966 126.976l-89.907-0.973c0 0 3.789 22.272 18.841 22.425 13.209 0.102 26.265 0.256 29.286 0.307l-37.581 31.539 13.159 15.667 37.581-31.539c-0.512 3.021-2.611 15.872-4.762 28.877-2.406 14.848 18.841 22.425 18.841 22.425l14.541-88.73z" opacity="1" visibility="false" fill="#000000"></path>
	<path d="M339.968 224.87c0-21.401-17.357-38.81-38.81-38.81s-38.81 17.357-38.81 38.81c0 21.453 17.357 38.81 38.81 38.81s38.81-17.357 38.81-38.81zM284.621 241.459c-4.25-4.25-6.861-10.087-6.861-16.589s2.611-12.288 6.861-16.589c4.25-4.25 10.087-6.861 16.589-6.861s12.288 2.611 16.589 6.861c4.25 4.25 6.861 10.087 6.861 16.589s-2.611 12.288-6.861 16.589c-4.25 4.25-10.087 6.861-16.589 6.861s-12.339-2.611-16.589-6.861z" opacity="1" visibility="false" fill="#000000"></path>
	<path d="M337.817 268.288c-21.453 0-38.81 17.357-38.81 38.81s17.357 38.81 38.81 38.81c21.453 0 38.81-17.357 38.81-38.81s-17.357-38.81-38.81-38.81zM354.406 323.687c-4.25 4.25-10.087 6.861-16.589 6.861s-12.288-2.611-16.589-6.861c-4.25-4.25-6.861-10.087-6.861-16.589s2.611-12.288 6.861-16.589c4.25-4.25 10.087-6.861 16.589-6.861s12.288 2.611 16.589 6.861c4.25 4.25 6.861 10.087 6.861 16.589s-2.611 12.288-6.861 16.589z" opacity="1" visibility="false" fill="#000000"></path>
	<path d="M424.141 242.279c0 0-11.469 19.456-0.051 29.286 10.035 8.653 19.968 17.203 22.169 19.098l-49.101-0.103-0.051 20.48 49.050 0.103c-2.355 1.997-12.237 10.496-22.272 18.995-11.418 9.779-0.051 29.286-0.051 29.286l68.352-58.419-68.045-58.726z" opacity="1" visibility="false" fill="#000000"></path>
</svg>
