<?xml version="1.0" encoding="utf-8"?>
<!-- Generated by IcoMoon.io -->
<!DOCTYPE svg PUBLIC "-//W3C//DTD SVG 1.1//EN" "http://www.w3.org/Graphics/SVG/1.1/DTD/svg11.dtd">
<svg version="1.1" xmlns="http://www.w3.org/2000/svg" xmlns:xlink="http://www.w3.org/1999/xlink" width="256" height="256" viewBox="0 0 256 256">
<g id="icomoon-ignore">
	<line stroke-width="1" x1="" y1="" x2="" y2="" stroke="#449FDB" opacity=""></line>
</g>
	<path d="M110.695 144.384c-5.017-4.301-9.984-8.576-11.111-9.523h34.483v-10.24h-34.483c1.152-0.999 6.093-5.248 11.111-9.523 5.709-4.889 0-14.643 0-14.643l-34.099 29.312 34.099 29.286c0-0.025 5.709-9.754 0-14.669z" opacity="1" visibility="false" fill="#000000"></path>
	<path d="M163.865 147.405c10.701 0 19.405-8.679 19.405-19.405 0-10.701-8.679-19.405-19.405-19.405s-19.405 8.678-19.405 19.405c0 10.726 8.679 19.405 19.405 19.405zM155.571 119.706c2.125-2.125 5.043-3.43 8.294-3.43s6.144 1.305 8.294 3.43c2.125 2.125 3.43 5.043 3.43 8.294s-1.305 6.144-3.43 8.294c-2.125 2.125-5.043 3.43-8.294 3.43s-6.144-1.305-8.294-3.43c-2.125-2.125-3.43-5.043-3.43-8.294s1.305-6.144 3.43-8.294z" opacity="1" visibility="false" fill="#000000"></path>
</svg>
