<?xml version="1.0" encoding="utf-8"?>
<!-- Generated by IcoMoon.io -->
<!DOCTYPE svg PUBLIC "-//W3C//DTD SVG 1.1//EN" "http://www.w3.org/Graphics/SVG/1.1/DTD/svg11.dtd">
<svg version="1.1" xmlns="http://www.w3.org/2000/svg" xmlns:xlink="http://www.w3.org/1999/xlink" width="256" height="256" viewBox="0 0 256 256">
<g id="icomoon-ignore">
	<line stroke-width="1" x1="" y1="" x2="" y2="" stroke="#449FDB" opacity=""></line>
</g>
	<path d="M194.176 48.435l-67.379-0.077-64.999 0.077c-6.349 0-11.52 5.171-11.52 11.52v4.070c0 3.814 1.843 7.68 4.813 10.061l51.533 41.523v82.56c0 6.119 4.685 10.905 10.65 10.905 2.79 0 5.478-1.101 7.578-3.072l20.352-19.2c2.56-2.432 4.147-6.093 4.147-9.6v-61.44l51.353-39.501c3.097-2.381 5.018-6.272 5.018-10.163v-6.144c-0.025-6.349-5.171-11.52-11.546-11.52zM195.456 66.099c0 0.717-0.461 1.638-1.024 2.048l-54.297 41.805c-0.563 0.435-1.024 1.357-1.024 2.048v65.203c0 0.691-0.41 1.664-0.922 2.15l-20.377 19.226-0.512 0.281c-0.256 0-0.409-0.231-0.409-0.666v-86.169c0-0.717-0.435-1.638-0.999-2.073l-54.349-43.827c-0.538-0.435-0.998-1.382-0.998-2.073v-4.071c0-0.717 0.563-1.28 1.28-1.28l64.973-0.077c0.717 0 1.843 0 2.56 0l64.819 0.077c0.717 0 1.28 0.589 1.28 1.28v6.119z" opacity="1" visibility="false" fill="#000000"></path>
</svg>
