<?xml version="1.0" encoding="utf-8"?>
<!-- Generated by IcoMoon.io -->
<!DOCTYPE svg PUBLIC "-//W3C//DTD SVG 1.1//EN" "http://www.w3.org/Graphics/SVG/1.1/DTD/svg11.dtd">
<svg version="1.1" xmlns="http://www.w3.org/2000/svg" xmlns:xlink="http://www.w3.org/1999/xlink" width="256" height="256" viewBox="0 0 256 256">
<g id="icomoon-ignore">
	<line stroke-width="1" x1="" y1="" x2="" y2="" stroke="#449FDB" opacity=""></line>
</g>
	<path d="M224.435 122.573h-44.851c-2.355-11.418-12.467-19.968-24.576-19.968-10.189 0-18.944 6.093-22.861 14.797 0 0-0.025 0-0.025 0h-98.534c-4.224 0-7.68 3.456-7.68 7.68v5.12c0 4.224 3.456 7.68 7.68 7.68h98.483c3.917 8.781 12.697 14.925 22.938 14.925 12.109 0 22.195-8.576 24.576-19.968h44.851c2.816 0 5.12-2.304 5.12-5.12s-2.304-5.145-5.12-5.145zM165.53 138.214c-2.714 2.688-6.4 4.352-10.496 4.352-4.121 0-7.808-1.664-10.496-4.352-2.688-2.714-4.352-6.4-4.352-10.496 0-4.121 1.664-7.808 4.352-10.496 2.714-2.688 6.4-4.352 10.496-4.352 4.121 0 7.808 1.664 10.496 4.352 2.688 2.713 4.352 6.4 4.352 10.496s-1.664 7.783-4.352 10.496z" opacity="1" visibility="false" fill="#000000"></path>
</svg>
