<?xml version="1.0" encoding="utf-8"?>
<!-- Generated by IcoMoon.io -->
<!DOCTYPE svg PUBLIC "-//W3C//DTD SVG 1.1//EN" "http://www.w3.org/Graphics/SVG/1.1/DTD/svg11.dtd">
<svg version="1.1" xmlns="http://www.w3.org/2000/svg" xmlns:xlink="http://www.w3.org/1999/xlink" width="256" height="256" viewBox="0 0 256 256">
<g id="icomoon-ignore">
	<line stroke-width="1" x1="" y1="" x2="" y2="" stroke="#449FDB" opacity=""></line>
</g>
	<path d="M206.489 97.126l-20.403 59.904c-0.231 0.743-1.024 1.843-2.15 2.637-1.101 0.793-2.381 1.203-3.174 1.178l-72.96 0.077c-0.793 0.025-2.15-0.384-3.302-1.203-1.152-0.793-2.022-1.92-2.304-2.662v0l-36.787-97.152c-1.229-3.2-3.456-5.657-6.067-7.475-2.611-1.792-5.709-2.995-9.139-3.021h-12.672v10.24h12.672c0.794-0.026 2.176 0.384 3.303 1.203 1.178 0.794 2.023 1.92 2.304 2.663v0l36.787 97.152c1.229 3.2 3.456 5.657 6.041 7.475 2.611 1.792 5.709 2.995 9.139 3.021h0.025l72.96-0.077c3.43-0.025 6.528-1.255 9.139-3.097 2.585-1.869 4.736-4.403 5.863-7.655l20.403-59.904-9.677-3.302z" opacity="1" visibility="false" fill="#000000"></path>
	<path d="M115.174 197.12c0 7.126-5.776 12.903-12.903 12.903s-12.903-5.776-12.903-12.903c0-7.126 5.776-12.903 12.903-12.903s12.903 5.776 12.903 12.903z" opacity="1" visibility="false" fill="#000000"></path>
	<path d="M197.837 197.12c0 7.126-5.776 12.903-12.903 12.903s-12.903-5.776-12.903-12.903c0-7.126 5.776-12.903 12.903-12.903s12.903 5.776 12.903 12.903z" opacity="1" visibility="false" fill="#000000"></path>
	<path d="M140.8 24.32v83.405c-8.627-8.602-25.344-25.293-29.671-29.619-5.939-5.939-17.767 0-17.767 0l52.659 52.608 52.429-52.429c0 0-11.827-5.913-17.767 0-4.377 4.377-21.145 21.145-29.645 29.671v-83.635h-10.24z" opacity="1" visibility="false" fill="#000000"></path>
</svg>
