<?xml version="1.0" encoding="utf-8"?>
<!-- Generated by IcoMoon.io -->
<!DOCTYPE svg PUBLIC "-//W3C//DTD SVG 1.1//EN" "http://www.w3.org/Graphics/SVG/1.1/DTD/svg11.dtd">
<svg version="1.1" xmlns="http://www.w3.org/2000/svg" xmlns:xlink="http://www.w3.org/1999/xlink" width="512" height="512" viewBox="0 0 512 512">
<g id="icomoon-ignore">
	<line stroke-width="1" x1="" y1="" x2="" y2="" stroke="#449FDB" opacity=""></line>
</g>
	<path d="M84.224 123.136v276.48c0.051 14.131 11.469 25.549 25.6 25.6h282.471c14.131-0.051 25.549-11.469 25.6-25.6v-100.608h-20.48v100.557c0 1.382-0.563 2.611-1.536 3.584s-2.202 1.485-3.584 1.536h-282.471c-1.382 0-2.611-0.563-3.584-1.536s-1.536-2.202-1.536-3.584v-276.48c0-1.382 0.563-2.611 1.536-3.584s2.201-1.485 3.584-1.536h99.891v-20.48h-99.891c-14.183 0.051-25.549 11.469-25.6 25.651z" opacity="1" visibility="false" fill="#000000"></path>
	<path d="M196.915 219.341c0-16.743-25.139-25.139-25.139-25.139v148.327l148.889 0.103c0 0-8.346-25.139-25.139-25.139-12.237-0.051-59.495-0.051-83.865-0.103l180.634-180.633c0 24.371 0.051 71.629 0.051 83.865 0 16.793 25.139 25.139 25.139 25.139l-0.103-148.889h-148.275c0 0 8.397 25.139 25.139 25.139 12.339 0 59.801 0 83.865 0l-181.197 181.197c0-24.064 0-71.526 0-83.865z" opacity="1" visibility="false" fill="#000000"></path>
</svg>
