<?xml version="1.0" encoding="utf-8"?>
<!-- Generated by IcoMoon.io -->
<!DOCTYPE svg PUBLIC "-//W3C//DTD SVG 1.1//EN" "http://www.w3.org/Graphics/SVG/1.1/DTD/svg11.dtd">
<svg version="1.1" xmlns="http://www.w3.org/2000/svg" xmlns:xlink="http://www.w3.org/1999/xlink" width="512" height="512" viewBox="0 0 512 512">
<g id="icomoon-ignore">
	<line stroke-width="1" x1="" y1="" x2="" y2="" stroke="#449FDB" opacity=""></line>
</g>
	<path d="M423.168 122.112c-5.069-5.069-12.135-8.243-19.917-8.243h-56.678v-40.346c0-2.816-2.304-5.12-5.12-5.12h-10.24c-2.816 0-5.12 2.304-5.12 5.12v40.346h-137.831v-40.346c0-2.816-2.304-5.12-5.12-5.12h-10.24c-2.816 0-5.12 2.304-5.12 5.12v40.346h-59.085c-7.731 0-14.848 3.174-19.917 8.243s-8.243 12.135-8.243 19.917v249.241c0 7.731 3.174 14.848 8.243 19.917s12.135 8.243 19.917 8.243h294.605c7.731 0 14.848-3.175 19.917-8.243s8.243-12.135 8.243-19.917v-249.242c0-7.731-3.226-14.848-8.295-19.917zM106.906 140.237c0.512-0.512 1.075-0.768 1.792-0.768h59.033v37.274c0 2.816 2.304 5.12 5.12 5.12h10.24c2.816 0 5.12-2.304 5.12-5.12v-37.274h137.831v37.274c0 2.816 2.304 5.12 5.12 5.12h10.24c2.816 0 5.12-2.304 5.12-5.12v-37.274h56.73c0.717 0 1.28 0.256 1.792 0.768s0.768 1.126 0.768 1.792v60.16h-299.673v-60.16c0-0.717 0.256-1.28 0.768-1.792zM405.094 393.063c-0.512 0.512-1.127 0.768-1.792 0.768h-294.605c-0.717 0-1.28-0.256-1.792-0.768s-0.768-1.075-0.768-1.792v-163.482h299.725v163.482c0 0.717-0.256 1.28-0.768 1.792z" opacity="1" visibility="false" fill="#000000"></path>
</svg>
