<?xml version="1.0" encoding="utf-8"?>
<!-- Generated by IcoMoon.io -->
<!DOCTYPE svg PUBLIC "-//W3C//DTD SVG 1.1//EN" "http://www.w3.org/Graphics/SVG/1.1/DTD/svg11.dtd">
<svg version="1.1" xmlns="http://www.w3.org/2000/svg" xmlns:xlink="http://www.w3.org/1999/xlink" width="256" height="256" viewBox="0 0 256 256">
<g id="icomoon-ignore">
	<line stroke-width="1" x1="" y1="" x2="" y2="" stroke="#449FDB" opacity=""></line>
</g>
	<path d="M123.264 203.213c43.136 0 78.080-34.944 78.080-78.080v-0.307c-0.205-42.906-34.969-77.645-77.927-77.747-0.103 0-0.179 0-0.179 0s0 0 0 0v0 0c-43.111 0-78.080 34.944-78.080 78.080 0.026 43.111 34.969 78.055 78.106 78.055zM75.29 77.184c12.288-12.288 29.209-19.865 47.975-19.865v0c18.739 0 35.686 7.578 47.975 19.865s19.865 29.209 19.865 47.975v0 0c0 18.739-7.577 35.686-19.865 47.975s-29.209 19.865-47.975 19.865c-18.739 0-35.686-7.577-47.975-19.865s-19.865-29.209-19.865-47.975c0-18.765 7.578-35.686 19.865-47.975z" opacity="1" visibility="false" fill="#000000"></path>
	<path d="M78.336 130.253h39.808v39.808c0 1.408 1.152 2.56 2.56 2.56h5.12c1.408 0 2.56-1.152 2.56-2.56v-39.808h39.808c1.408 0 2.56-1.152 2.56-2.56v-5.12c0-1.408-1.152-2.56-2.56-2.56h-39.808v-39.808c0-1.408-1.152-2.56-2.56-2.56h-5.12c-1.408 0-2.56 1.152-2.56 2.56v39.808h-39.808c-1.408 0-2.56 1.152-2.56 2.56v5.12c0 1.408 1.152 2.56 2.56 2.56z" opacity="1" visibility="false" fill="#000000"></path>
</svg>
