<?xml version="1.0" encoding="utf-8"?>
<!-- Generated by IcoMoon.io -->
<!DOCTYPE svg PUBLIC "-//W3C//DTD SVG 1.1//EN" "http://www.w3.org/Graphics/SVG/1.1/DTD/svg11.dtd">
<svg version="1.1" xmlns="http://www.w3.org/2000/svg" xmlns:xlink="http://www.w3.org/1999/xlink" width="512" height="512" viewBox="0 0 512 512">
<g id="icomoon-ignore">
	<line stroke-width="1" x1="" y1="" x2="" y2="" stroke="#449FDB" opacity=""></line>
</g>
	<path d="M377.498 64.768c0 0 5.683 21.862 20.685 20.685 13.159-1.024 26.214-1.997 29.184-2.201l-75.469 75.366 14.49 14.489 75.469-75.367c-0.205 3.072-1.229 16.077-2.253 29.184-1.127 15.001 20.685 20.736 20.685 20.736l6.912-89.651-89.702 6.758z" opacity="1" visibility="false" fill="#000000"></path>
	<path d="M200.755 307.968l-74.547 74.547c0.205-2.969 1.177-16.026 2.253-29.184 1.126-15.002-20.685-20.685-20.685-20.736l-6.809 89.651 89.651-6.81c0 0-5.734-21.811-20.685-20.685-13.107 1.024-26.112 1.997-29.184 2.253l74.547-74.547-14.541-14.49z" opacity="1" visibility="false" fill="#000000"></path>
	<path d="M340.889 175.257c-7.577-7.577-17.51-11.367-27.443-11.367-9.882 0-19.865 3.789-27.443 11.367v0c-7.577 7.577-11.366 17.561-11.366 27.443s3.789 19.865 11.366 27.443v0c7.577 7.577 17.51 11.367 27.443 11.367 9.882 0 19.865-3.789 27.443-11.367v0c7.577-7.526 11.366-17.511 11.366-27.443 0-9.881-3.789-19.865-11.366-27.443v0zM313.498 226.15c-6.041 0-11.981-2.253-16.589-6.861v0c-4.608-4.608-6.861-10.547-6.861-16.537 0-6.042 2.253-11.981 6.861-16.589s10.547-6.861 16.589-6.861c6.041 0 11.981 2.253 16.589 6.861s6.861 10.547 6.861 16.589c0 6.042-2.253 11.981-6.861 16.537v0c-4.659 4.557-10.599 6.861-16.589 6.861z" opacity="1" visibility="false" fill="#000000"></path>
	<path d="M245.709 232.806c-9.881 0-19.865 3.789-27.443 11.367v0c-7.577 7.577-11.367 17.51-11.367 27.443 0 9.882 3.789 19.865 11.367 27.443s17.511 11.366 27.443 11.366c9.881 0 19.865-3.789 27.443-11.366 7.577-7.526 11.366-17.51 11.366-27.443 0-9.882-3.789-19.865-11.366-27.443s-17.511-11.367-27.443-11.367zM245.709 295.014c-6.042 0-11.981-2.253-16.589-6.861s-6.861-10.547-6.861-16.538c0-6.041 2.253-11.981 6.861-16.589v0c4.608-4.608 10.547-6.861 16.589-6.861s11.981 2.253 16.538 6.861c4.608 4.608 6.861 10.547 6.861 16.589s-2.253 11.981-6.861 16.538c-4.557 4.608-10.496 6.861-16.537 6.861z" opacity="1" visibility="false" fill="#000000"></path>
</svg>
