<?xml version="1.0" encoding="utf-8"?>
<!-- Generated by IcoMoon.io -->
<!DOCTYPE svg PUBLIC "-//W3C//DTD SVG 1.1//EN" "http://www.w3.org/Graphics/SVG/1.1/DTD/svg11.dtd">
<svg version="1.1" xmlns="http://www.w3.org/2000/svg" xmlns:xlink="http://www.w3.org/1999/xlink" width="512" height="512" viewBox="0 0 512 512">
<g id="icomoon-ignore">
	<line stroke-width="1" x1="" y1="" x2="" y2="" stroke="#449FDB" opacity=""></line>
</g>
	<path d="M462.285 211.815c-6.247-4.198-13.363-5.734-20.070-5.734-7.783 0-15.309 1.946-22.375 4.506-10.599 3.891-20.224 9.472-27.392 14.080-1.075 0.666-2.048 1.331-2.969 1.946-13.568-23.091-38.656-38.656-67.379-38.656-25.856 0-48.743 12.595-62.976 31.949-5.069-3.738-10.137-6.758-15.207-8.96-8.243-3.533-16.333-5.018-23.808-5.018-15.053 0-27.341 5.734-35.84 11.161-1.382 0.87-2.662 1.792-3.84 2.662-14.233-19.251-37.069-31.846-62.874-31.846-43.213 0-78.234 35.021-78.234 78.234s35.021 78.233 78.234 78.233c43.213 0 78.234-35.021 78.234-78.233 0-9.984-1.946-19.507-5.376-28.262 1.536-1.229 3.379-2.56 5.53-3.942 6.298-3.942 14.745-7.526 24.115-7.526 4.864 0 10.035 0.922 15.769 3.328 4.147 1.792 8.601 4.454 13.312 8.243-3.379 8.755-5.325 18.227-5.325 28.16 0 43.213 35.021 78.233 78.233 78.233s78.233-35.021 78.233-78.233c0-7.014-1.024-13.773-2.765-20.224 3.277-2.355 8.192-5.683 13.978-8.909 4.966-2.816 10.496-5.53 15.872-7.475s10.649-3.072 14.797-3.072c2.509 0 4.557 0.358 6.298 1.024 2.56 1.024 4.505 2.458 6.605 5.939 2.048 3.482 3.942 9.216 4.608 17.971l20.429-1.587c-0.563-7.219-1.843-13.517-3.789-19.047-2.918-8.192-7.731-14.797-14.029-18.944zM158.413 307.046c-10.496 10.445-24.832 16.896-40.806 16.896s-30.362-6.451-40.858-16.896c-10.445-10.496-16.896-24.832-16.896-40.858 0-15.975 6.451-30.362 16.896-40.858 10.496-10.445 24.832-16.896 40.858-16.896 15.975 0 30.362 6.451 40.806 16.896 10.445 10.496 16.896 24.832 16.896 40.858 0 15.974-6.451 30.361-16.896 40.858zM362.906 307.046c-10.496 10.445-24.832 16.896-40.806 16.896s-30.361-6.451-40.858-16.896c-10.445-10.496-16.896-24.832-16.896-40.858 0-15.975 6.451-30.362 16.896-40.858 10.496-10.445 24.832-16.896 40.858-16.896 15.974 0 30.361 6.451 40.807 16.896 10.445 10.496 16.896 24.832 16.896 40.858 0 15.974-6.4 30.361-16.896 40.858z" opacity="1" visibility="false" fill="#000000"></path>
</svg>
