<?xml version="1.0" encoding="utf-8"?>
<!-- Generated by IcoMoon.io -->
<!DOCTYPE svg PUBLIC "-//W3C//DTD SVG 1.1//EN" "http://www.w3.org/Graphics/SVG/1.1/DTD/svg11.dtd">
<svg version="1.1" xmlns="http://www.w3.org/2000/svg" xmlns:xlink="http://www.w3.org/1999/xlink" width="512" height="512" viewBox="0 0 512 512">
<g id="icomoon-ignore">
	<line stroke-width="1" x1="" y1="" x2="" y2="" stroke="#449FDB" opacity=""></line>
</g>
	<path d="M394.291 226.97c10.035 8.601 19.968 17.152 22.221 19.047h-148.787v-149.657c1.997 2.304 10.496 12.186 19.046 22.221 9.779 11.417 29.286 0 29.286 0l-58.573-68.249-58.573 68.249c0 0 19.456 11.417 29.286 0 8.601-10.087 17.152-19.968 19.047-22.221v149.709h-150.887c2.253-1.946 12.135-10.445 22.221-19.047 11.417-9.779 0-29.286 0-29.286l-68.249 58.522 68.198 58.573c0 0 11.418-19.456 0-29.286-9.984-8.55-19.865-17.050-22.221-19.046h150.887v149.094c-1.946-2.253-10.445-12.135-19.047-22.221-9.779-11.418-29.286 0-29.286 0l58.573 68.198 58.573-68.198c0 0-19.456-11.418-29.286 0-8.55 9.984-17.050 19.865-19.046 22.221v-149.095h148.787c-2.304 1.997-12.185 10.496-22.221 19.046-11.418 9.779 0 29.286 0 29.286l68.198-58.573-68.147-58.573c0 0-11.418 19.456 0 29.286z" opacity="1" visibility="false" fill="#000000"></path>
</svg>
