<?xml version="1.0" encoding="utf-8"?>
<!-- Generated by IcoMoon.io -->
<!DOCTYPE svg PUBLIC "-//W3C//DTD SVG 1.1//EN" "http://www.w3.org/Graphics/SVG/1.1/DTD/svg11.dtd">
<svg version="1.1" xmlns="http://www.w3.org/2000/svg" xmlns:xlink="http://www.w3.org/1999/xlink" width="512" height="512" viewBox="0 0 512 512">
<g id="icomoon-ignore">
	<line stroke-width="1" x1="" y1="" x2="" y2="" stroke="#449FDB" opacity=""></line>
</g>
	<path d="M430.336 117.094h-348.672c-14.131 0.051-25.549 11.469-25.6 25.6v226.662c0.051 14.131 11.469 25.549 25.6 25.6h348.672c14.131-0.051 25.549-11.469 25.6-25.6v-226.662c-0.051-14.183-11.469-25.6-25.6-25.6zM433.92 372.941c-0.973 0.973-2.202 1.485-3.584 1.485h-348.672c-1.382 0-2.611-0.563-3.584-1.485-0.973-0.973-1.485-2.202-1.536-3.635v-226.611c0-1.382 0.563-2.611 1.536-3.635 0.973-0.973 2.201-1.485 3.584-1.485h348.672c1.382 0 2.611 0.563 3.584 1.485 0.973 0.973 1.485 2.202 1.536 3.635v226.662c0 1.382-0.563 2.611-1.536 3.584z" opacity="1" visibility="false" fill="#000000"></path>
	<path d="M323.687 189.901h-10.24c-2.816 0-5.12 2.304-5.12 5.12v55.194c-0.615-0.461-1.28-0.922-2.099-1.331l-109.415-57.139c-2.048-1.075-3.942-1.536-5.683-1.536-4.659 0-7.936 3.635-7.936 9.831l-0.051 112.025c0 6.144 3.277 9.83 7.936 9.83 1.741 0 3.635-0.512 5.683-1.536l109.465-57.139c0.768-0.409 1.433-0.87 2.099-1.331v55.808c0 2.816 2.304 5.12 5.12 5.12h10.24c2.816 0 5.12-2.304 5.12-5.12v-122.675c0-2.816-2.304-5.12-5.12-5.12z" opacity="1" visibility="false" fill="#000000"></path>
</svg>
