<?xml version="1.0" encoding="utf-8"?>
<!-- Generated by IcoMoon.io -->
<!DOCTYPE svg PUBLIC "-//W3C//DTD SVG 1.1//EN" "http://www.w3.org/Graphics/SVG/1.1/DTD/svg11.dtd">
<svg version="1.1" xmlns="http://www.w3.org/2000/svg" xmlns:xlink="http://www.w3.org/1999/xlink" width="512" height="512" viewBox="0 0 512 512">
<g id="icomoon-ignore">
	<line stroke-width="1" x1="" y1="" x2="" y2="" stroke="#449FDB" opacity=""></line>
</g>
	<path d="M189.235 419.328h134.502c14.131-0.051 25.549-11.469 25.6-25.6v-45.056h69.786c14.131-0.051 25.549-11.469 25.6-25.6v-148.889c-0.051-14.131-11.469-25.549-25.6-25.6h-42.957v-65.894c-0.051-8.499-6.861-15.309-15.36-15.36h-208.64c-8.499 0.051-15.309 6.861-15.36 15.36v65.946h-42.957c-14.131 0.051-25.549 11.469-25.6 25.6v148.839c0.051 14.131 11.469 25.549 25.6 25.6h69.786v45.056c0 14.183 11.417 25.6 25.6 25.6zM327.322 397.363c-0.973 0.973-2.202 1.536-3.584 1.536h-134.502c-1.382 0-2.611-0.563-3.584-1.536s-1.536-2.202-1.536-3.584v-109.671c0-1.382 0.563-2.611 1.536-3.584s2.202-1.536 3.584-1.536h134.502c1.382 0 2.611 0.563 3.584 1.536s1.485 2.202 1.536 3.584v109.619c0 1.433-0.563 2.663-1.536 3.635zM157.286 87.808h198.4v60.825h-198.4v-60.826zM93.85 328.192c-1.382 0-2.611-0.563-3.635-1.485-0.973-0.973-1.485-2.202-1.485-3.635v-148.889c0-1.382 0.563-2.662 1.485-3.635 0.973-0.973 2.201-1.485 3.635-1.485h325.274c1.382 0 2.611 0.563 3.635 1.485 0.973 0.973 1.485 2.202 1.485 3.635v148.889c0 1.382-0.563 2.663-1.485 3.635-0.973 0.973-2.202 1.485-3.635 1.485h-69.786v-44.083c-0.051-14.131-11.469-25.549-25.6-25.6h-134.502c-14.131 0.051-25.549 11.469-25.6 25.6v44.083h-69.785z" opacity="1" visibility="false" fill="#000000"></path>
</svg>
