<?xml version="1.0" encoding="utf-8"?>
<!-- Generated by IcoMoon.io -->
<!DOCTYPE svg PUBLIC "-//W3C//DTD SVG 1.1//EN" "http://www.w3.org/Graphics/SVG/1.1/DTD/svg11.dtd">
<svg version="1.1" xmlns="http://www.w3.org/2000/svg" xmlns:xlink="http://www.w3.org/1999/xlink" width="256" height="256" viewBox="0 0 256 256">
<g id="icomoon-ignore">
	<line stroke-width="1" x1="" y1="" x2="" y2="" stroke="#449FDB" opacity=""></line>
</g>
	<path d="M128 152.32c13.44 0 24.32-10.88 24.32-24.32s-10.88-24.32-24.32-24.32c-13.44 0-24.32 10.88-24.32 24.32s10.88 24.32 24.32 24.32zM116.224 116.224c3.021-3.021 7.168-4.864 11.776-4.864s8.755 1.869 11.776 4.864c3.021 3.021 4.864 7.168 4.864 11.776s-1.869 8.755-4.864 11.776c-3.021 3.021-7.168 4.864-11.776 4.864s-8.755-1.869-11.776-4.864c-3.021-3.021-4.864-7.168-4.864-11.776s1.869-8.755 4.864-11.776z" opacity="1" visibility="false" fill="#000000"></path>
	<path d="M128.589 98.637c1.408 0 2.56-1.152 2.56-2.56v-7.757c0-1.408-1.152-2.56-2.56-2.56s-2.56 1.152-2.56 2.56v7.757c0 1.408 1.152 2.56 2.56 2.56z" opacity="1" visibility="false" fill="#000000"></path>
	<path d="M131.149 167.68v-6.579c0-1.408-1.152-2.56-2.56-2.56s-2.56 1.152-2.56 2.56v6.579c0 1.408 1.152 2.56 2.56 2.56s2.56-1.152 2.56-2.56z" opacity="1" visibility="false" fill="#000000"></path>
	<path d="M157.363 128c0 1.408 1.152 2.56 2.56 2.56h7.757c1.408 0 2.56-1.152 2.56-2.56s-1.152-2.56-2.56-2.56h-7.757c-1.408 0-2.56 1.152-2.56 2.56z" opacity="1" visibility="false" fill="#000000"></path>
	<path d="M88.32 130.56h6.579c1.408 0 2.56-1.152 2.56-2.56s-1.152-2.56-2.56-2.56h-6.579c-1.408 0-2.56 1.152-2.56 2.56s1.152 2.56 2.56 2.56z" opacity="1" visibility="false" fill="#000000"></path>
	<path d="M152.371 149.734c-0.999-0.999-2.637-0.999-3.609 0s-0.999 2.637 0 3.609l5.478 5.478c0.999 0.999 2.637 0.999 3.609 0v0c0.999-0.999 0.999-2.637 0-3.609l-5.478-5.478z" opacity="1" visibility="false" fill="#000000"></path>
	<path d="M102.784 107.367c0.999 0.999 2.637 0.999 3.609 0s0.999-2.637 0-3.609l-4.659-4.659c-0.999-0.999-2.637-0.999-3.609 0v0c-0.999 0.999-0.999 2.637 0 3.609l4.659 4.659z" opacity="1" visibility="false" fill="#000000"></path>
	<path d="M152.371 106.266l5.478-5.478c0.999-0.999 0.999-2.637 0-3.609v0c-0.999-0.999-2.637-0.999-3.609 0l-5.478 5.478c-0.999 0.999-0.999 2.637 0 3.609s2.637 0.999 3.609 0z" opacity="1" visibility="false" fill="#000000"></path>
	<path d="M101.76 156.903l4.659-4.659c0.999-0.999 0.999-2.637 0-3.609s-2.637-0.999-3.609 0l-4.659 4.659c-0.999 0.999-0.999 2.637 0 3.609v0c0.973 0.999 2.611 0.999 3.609 0z" opacity="1" visibility="false" fill="#000000"></path>
</svg>
