<?xml version="1.0" encoding="utf-8"?>
<!-- Generated by IcoMoon.io -->
<!DOCTYPE svg PUBLIC "-//W3C//DTD SVG 1.1//EN" "http://www.w3.org/Graphics/SVG/1.1/DTD/svg11.dtd">
<svg version="1.1" xmlns="http://www.w3.org/2000/svg" xmlns:xlink="http://www.w3.org/1999/xlink" width="256" height="256" viewBox="0 0 256 256">
<g id="icomoon-ignore">
	<line stroke-width="1" x1="" y1="" x2="" y2="" stroke="#449FDB" opacity=""></line>
</g>
	<path d="M180.096 118.656c5.018 4.301 9.984 8.576 11.111 9.523h-37.888c-5.581-0.205-9.369-1.664-12.211-3.609-2.125-1.485-3.763-3.277-5.043-5.299-1.92-2.995-3.021-6.477-3.609-9.37-0.563-2.893-0.614-5.197-0.614-5.785v-0.435c-0.205-6.835-1.561-12.391-3.763-16.819-3.277-6.681-8.499-10.599-13.21-12.57-4.736-1.997-8.96-2.253-11.239-2.278-0.64 0-1.126 0.025-1.408 0.051h-23.117c-2.509-7.347-9.472-12.647-17.664-12.647-10.317 0-18.688 8.371-18.688 18.688s8.371 18.688 18.688 18.688c8.883 0 16.281-6.195 18.201-14.49h23.040l0.231-0.025h0.025c0.103 0 0.333-0.025 0.743-0.025 0.896 0 2.534 0.077 4.377 0.512 1.382 0.333 2.893 0.845 4.326 1.638 2.176 1.203 4.275 2.969 5.99 5.939s3.046 7.219 3.251 13.543c0 0.051 0 0.128 0 0.205 0.025 1.92 0.153 9.626 4.121 17.664 1.997 3.993 5.043 8.089 9.575 11.213 0.051 0.025 0.102 0.051 0.128 0.077-0.077 0.051-0.128 0.077-0.205 0.128-3.277 2.202-5.811 4.966-7.68 7.833-2.816 4.327-4.275 8.883-5.043 12.749-0.793 3.865-0.896 7.091-0.896 8.806 0 0.461 0 0.768 0.025 0.999-0.179 5.581-1.28 9.549-2.688 12.441-2.176 4.327-5.069 6.4-8.013 7.68-2.918 1.255-5.888 1.459-7.245 1.459-0.307 0-0.512 0-0.64-0.025h-0.103l-0.231-0.025h-23.373c-2.355-7.655-9.447-13.209-17.869-13.209-10.317 0-18.688 8.371-18.688 18.688s8.371 18.688 18.688 18.688c8.678 0 15.949-5.913 18.048-13.927h22.733c0.307 0.025 0.768 0.051 1.433 0.051 1.51 0 3.891-0.128 6.733-0.793 2.125-0.512 4.48-1.305 6.886-2.637 3.609-1.971 7.27-5.12 9.959-9.805s4.403-10.752 4.633-18.432v-0.461c0-0.051 0-0.307 0-0.717-0.025-2.15 0.358-8.627 3.149-13.977 1.382-2.688 3.277-5.095 5.965-6.938 2.688-1.792 6.246-3.123 11.469-3.328 0.205 0 0.384 0.025 0.589 0.051h38.169c-1.152 0.999-6.093 5.248-11.111 9.523-5.709 4.889 0 14.643 0 14.643l34.099-29.286-34.15-29.209c0 0-5.709 9.754 0 14.643zM67.405 84.121c-1.536 1.536-3.635 2.483-5.965 2.483-2.355 0-4.429-0.947-5.965-2.483s-2.483-3.635-2.483-5.965c0-2.355 0.947-4.429 2.483-5.965s3.635-2.483 5.965-2.483c2.355 0 4.429 0.947 5.965 2.483s2.483 3.635 2.483 5.965c0 2.329-0.947 4.429-2.483 5.965zM67.405 196.633c-1.536 1.536-3.635 2.483-5.965 2.483-2.355 0-4.429-0.947-5.965-2.483s-2.483-3.635-2.483-5.965c0-2.355 0.947-4.429 2.483-5.965s3.635-2.483 5.965-2.483c2.355 0 4.429 0.947 5.965 2.483s2.483 3.635 2.483 5.965c0 2.329-0.947 4.403-2.483 5.965z" opacity="1" visibility="false" fill="#000000"></path>
</svg>
