<?xml version="1.0" encoding="utf-8"?>
<!-- Generated by IcoMoon.io -->
<!DOCTYPE svg PUBLIC "-//W3C//DTD SVG 1.1//EN" "http://www.w3.org/Graphics/SVG/1.1/DTD/svg11.dtd">
<svg version="1.1" xmlns="http://www.w3.org/2000/svg" xmlns:xlink="http://www.w3.org/1999/xlink" width="512" height="512" viewBox="0 0 512 512">
<g id="icomoon-ignore">
	<line stroke-width="1" x1="" y1="" x2="" y2="" stroke="#449FDB" opacity=""></line>
</g>
	<path d="M290.611 200.909c0 0-11.418 19.456 0 29.286 10.035 8.601 19.968 17.152 22.221 19.047h-68.966v20.48h68.966c-2.304 1.997-12.185 10.496-22.221 19.046-11.418 9.779 0 29.286 0 29.286l68.198-58.573-68.198-58.573z" opacity="1" visibility="false" fill="#000000"></path>
	<path d="M184.269 217.19c-21.401 0-38.81 17.357-38.81 38.81s17.357 38.81 38.81 38.81c21.453 0 38.81-17.357 38.81-38.81s-17.357-38.81-38.81-38.81zM200.857 272.589c-4.25 4.25-10.087 6.861-16.589 6.861s-12.288-2.611-16.589-6.861c-4.25-4.25-6.861-10.087-6.861-16.589s2.611-12.288 6.861-16.589c4.25-4.25 10.087-6.861 16.589-6.861s12.288 2.611 16.589 6.861c4.25 4.25 6.861 10.087 6.861 16.589s-2.611 12.288-6.861 16.589z" opacity="1" visibility="false" fill="#000000"></path>
</svg>
