<?xml version="1.0" encoding="utf-8"?>
<!-- Generated by IcoMoon.io -->
<!DOCTYPE svg PUBLIC "-//W3C//DTD SVG 1.1//EN" "http://www.w3.org/Graphics/SVG/1.1/DTD/svg11.dtd">
<svg version="1.1" xmlns="http://www.w3.org/2000/svg" xmlns:xlink="http://www.w3.org/1999/xlink" width="512" height="512" viewBox="0 0 512 512">
<g id="icomoon-ignore">
	<line stroke-width="1" x1="" y1="" x2="" y2="" stroke="#449FDB" opacity=""></line>
</g>
	<path d="M115.968 357.735c-21.453 0-38.809 17.357-38.809 38.81s17.357 38.81 38.809 38.81c21.402 0 38.809-17.357 38.809-38.81-0.051-21.453-17.408-38.81-38.809-38.81zM132.506 413.082c-4.25 4.25-10.087 6.861-16.589 6.861s-12.288-2.611-16.589-6.861c-4.249-4.25-6.861-10.087-6.861-16.589s2.611-12.288 6.861-16.589c4.249-4.25 10.087-6.861 16.589-6.861s12.288 2.611 16.589 6.861c4.25 4.25 6.861 10.087 6.861 16.589 0 6.553-2.611 12.339-6.861 16.589z" opacity="1" visibility="false" fill="#000000"></path>
	<path d="M396.032 76.698c-21.453 0-38.81 17.357-38.81 38.809s17.357 38.81 38.81 38.81c21.401 0 38.81-17.357 38.81-38.809s-17.357-38.809-38.81-38.809zM412.621 132.045c-4.25 4.25-10.087 6.861-16.589 6.861s-12.288-2.611-16.589-6.861c-4.25-4.249-6.861-10.087-6.861-16.589s2.611-12.288 6.861-16.589c4.25-4.249 10.087-6.861 16.589-6.861s12.288 2.611 16.589 6.861c4.25 4.249 6.861 10.087 6.861 16.589s-2.611 12.339-6.861 16.589z" opacity="1" visibility="false" fill="#000000"></path>
	<path d="M347.853 149.607l-59.648 59.648c0.205-2.97 1.178-16.025 2.253-29.184 1.127-15.001-20.685-20.685-20.685-20.736l-6.81 89.651 89.651-6.81c0 0-5.735-21.811-20.685-20.685-13.107 1.024-26.112 1.997-29.184 2.253l59.648-59.648-14.541-14.489z" opacity="1" visibility="false" fill="#000000"></path>
	<path d="M249.037 263.373l-89.651 6.81c0 0 5.734 21.811 20.736 20.685 13.159-1.024 26.214-1.997 29.184-2.253l-59.648 59.699 14.489 14.49 59.648-59.648c-0.205 3.021-1.229 16.026-2.253 29.184-1.126 15.002 20.685 20.685 20.685 20.685l6.81-89.651z" opacity="1" visibility="false" fill="#000000"></path>
</svg>
