<?xml version="1.0" encoding="utf-8"?>
<!-- Generated by IcoMoon.io -->
<!DOCTYPE svg PUBLIC "-//W3C//DTD SVG 1.1//EN" "http://www.w3.org/Graphics/SVG/1.1/DTD/svg11.dtd">
<svg version="1.1" xmlns="http://www.w3.org/2000/svg" xmlns:xlink="http://www.w3.org/1999/xlink" width="512" height="512" viewBox="0 0 512 512">
<g id="icomoon-ignore">
	<line stroke-width="1" x1="" y1="" x2="" y2="" stroke="#449FDB" opacity=""></line>
</g>
	<path d="M122.522 300.032c16.793 0 30.976-11.059 35.738-26.317h54.681c11.161 0.409 18.739 3.328 24.422 7.219 4.25 2.969 7.526 6.553 10.087 10.599 3.84 5.99 6.042 12.954 7.219 18.739 1.126 5.786 1.229 10.394 1.229 11.571v0.87c0.461 15.257 2.509 27.597 5.888 37.786 2.56 7.629 5.888 14.029 9.882 19.303 5.99 7.936 13.414 13.159 20.839 16.281 7.424 3.175 14.745 4.454 21.094 5.171 5.632 0.615 12.647 1.024 20.685 1.28s16.998 0.358 26.214 0.358c10.854 0 22.067-0.154 32.563-0.307l-1.536 1.639c0 0-11.52 12.135-23.040 24.269-11.52 12.185 0.921 35.533 0.921 35.533l69.223-72.909-72.909-69.222c0 0-11.264 23.962 0.921 35.533 12.083 11.52 24.269 23.040 24.269 23.040l1.69 1.639c-10.342 0.205-21.453 0.307-32.103 0.307-9.113 0-17.869-0.103-25.6-0.307-7.68-0.256-14.387-0.615-18.995-1.127-4.813-0.512-9.472-1.382-13.721-3.021-3.175-1.178-6.144-2.765-8.909-5.017-4.096-3.328-7.936-8.141-11.059-16.128s-5.376-19.149-5.837-34.509c0-0.103 0-0.256 0-0.461-0.051-3.84-0.307-19.251-8.243-35.328-3.993-7.987-10.087-16.179-19.149-22.425-0.307-0.205-0.666-0.409-0.973-0.615 0.307-0.205 0.614-0.358 0.87-0.563 6.81-4.659 11.93-10.445 15.719-16.435 5.735-8.96 8.55-18.279 10.035-25.805s1.639-13.363 1.639-15.513c0-0.205 0-0.307 0-0.461 0.409-13.671 2.253-24.013 4.864-31.744 1.945-5.837 4.301-10.137 6.81-13.465 3.789-4.966 7.885-7.782 12.544-9.831 4.659-1.997 9.933-3.021 15.309-3.635 4.659-0.512 11.315-0.922 18.995-1.126 7.731-0.256 16.486-0.307 25.6-0.307 10.649 0 21.76 0.154 32.103 0.307l-1.69 1.638c0 0-12.135 11.52-24.269 23.040-12.135 11.571-0.921 35.533-0.921 35.533l72.909-69.222-69.222-72.858c0 0-12.493 23.347-0.921 35.533 11.469 12.135 23.040 24.269 23.040 24.269l1.536 1.638c-10.445-0.205-21.709-0.307-32.563-0.307-9.267 0-18.227 0.103-26.214 0.359-8.038 0.256-15.053 0.615-20.685 1.28-5.683 0.665-12.083 1.689-18.637 4.147-4.915 1.843-9.933 4.506-14.592 8.243-7.014 5.632-13.056 13.824-17.255 24.627-4.199 10.855-6.759 24.371-7.27 41.523v0.87c0.051 2.099-0.41 14.951-6.093 26.163-2.816 5.632-6.758 10.803-12.441 14.695s-13.209 6.758-24.32 7.219h-54.272c-4.198-16.077-18.739-27.955-36.147-27.955-20.633 0-37.376 16.743-37.376 37.376 0.051 20.634 16.793 37.325 37.427 37.325zM110.592 250.726c3.072-3.072 7.27-4.966 11.93-4.966 4.71 0 8.857 1.894 11.929 4.966s4.966 7.271 4.966 11.93c0 4.711-1.894 8.858-4.966 11.93s-7.27 4.966-11.93 4.966c-4.71 0-8.858-1.894-11.93-4.966s-4.966-7.271-4.966-11.93c0-4.659 1.894-8.806 4.966-11.929z" opacity="1" visibility="false" fill="#000000"></path>
</svg>
