<?xml version="1.0" encoding="utf-8"?>
<!-- Generated by IcoMoon.io -->
<!DOCTYPE svg PUBLIC "-//W3C//DTD SVG 1.1//EN" "http://www.w3.org/Graphics/SVG/1.1/DTD/svg11.dtd">
<svg version="1.1" xmlns="http://www.w3.org/2000/svg" xmlns:xlink="http://www.w3.org/1999/xlink" width="512" height="512" viewBox="0 0 512 512">
<g id="icomoon-ignore">
	<line stroke-width="1" x1="" y1="" x2="" y2="" stroke="#449FDB" opacity=""></line>
</g>
	<path d="M360.192 237.312c10.035 8.601 19.968 17.152 22.221 19.046h-75.776c-11.161-0.41-18.739-3.328-24.423-7.219-4.25-2.97-7.526-6.553-10.087-10.599-3.84-5.99-6.041-12.953-7.219-18.739-1.127-5.786-1.229-10.393-1.229-11.571v-0.87c-0.409-13.671-3.123-24.781-7.526-33.638-6.553-13.363-16.999-21.197-26.419-25.139-9.472-3.994-17.92-4.506-22.477-4.557-1.28 0-2.253 0.051-2.816 0.102h-46.233c-5.018-14.695-18.944-25.293-35.328-25.293-20.633 0-37.376 16.743-37.376 37.376s16.743 37.376 37.376 37.376c17.767 0 32.563-12.391 36.403-28.979h46.080l0.461-0.051h0.051c0.205 0 0.666-0.051 1.485-0.051 1.792 0 5.069 0.154 8.755 1.024 2.765 0.666 5.786 1.69 8.653 3.277 4.352 2.406 8.55 5.939 11.981 11.879s6.093 14.439 6.502 27.085c0 0.102 0 0.256 0 0.41 0.051 3.84 0.307 19.251 8.243 35.328 3.994 7.987 10.086 16.179 19.149 22.425 0.103 0.051 0.205 0.103 0.256 0.154-0.154 0.103-0.256 0.154-0.409 0.256-6.553 4.403-11.623 9.933-15.36 15.719-5.632 8.653-8.55 17.767-10.087 25.498-1.587 7.731-1.792 14.183-1.792 17.562 0 0.921 0 1.536 0.051 1.997-0.358 11.161-2.56 19.098-5.376 24.883-4.352 8.653-10.137 12.8-16.025 15.36-5.837 2.509-11.776 2.918-14.489 2.918-0.614 0-1.024 0-1.28-0.051h-0.205l-0.461-0.051h-46.745c-4.71-15.309-18.893-26.419-35.737-26.419-20.633 0-37.376 16.743-37.376 37.376s16.743 37.376 37.376 37.376c17.357 0 31.898-11.827 36.096-27.853h45.465c0.614 0.051 1.536 0.103 2.867 0.103 3.021 0 7.782-0.256 13.465-1.587 4.25-1.024 8.96-2.611 13.773-5.274 7.219-3.891 14.541-10.24 19.917-19.61s8.806-21.504 9.267-36.864v-0.921c0-0.154 0-0.615 0-1.433-0.051-4.301 0.717-17.255 6.298-27.955 2.765-5.376 6.553-10.24 11.93-13.875 5.376-3.584 12.493-6.247 22.938-6.656 0.409 0 0.768 0.051 1.178 0.051h76.339c-2.304 1.997-12.185 10.496-22.221 19.046-11.418 9.779 0 29.286 0 29.286l68.198-58.573-68.301-58.368c0 0-11.418 19.507 0 29.286zM134.81 168.243c-3.072 3.072-7.27 4.966-11.93 4.966-4.71 0-8.858-1.894-11.93-4.966s-4.966-7.27-4.966-11.929c0-4.71 1.894-8.857 4.966-11.929s7.27-4.966 11.93-4.966c4.71 0 8.858 1.894 11.93 4.966s4.966 7.27 4.966 11.929c0 4.659-1.894 8.857-4.966 11.929zM134.81 393.267c-3.072 3.072-7.27 4.966-11.93 4.966-4.71 0-8.858-1.894-11.93-4.966s-4.966-7.271-4.966-11.93c0-4.711 1.894-8.858 4.966-11.93s7.27-4.966 11.93-4.966c4.71 0 8.858 1.894 11.93 4.966s4.966 7.271 4.966 11.93c0 4.659-1.894 8.807-4.966 11.93z" opacity="1" visibility="false" fill="#000000"></path>
</svg>
