<?xml version="1.0" encoding="utf-8"?>
<!-- Generated by IcoMoon.io -->
<!DOCTYPE svg PUBLIC "-//W3C//DTD SVG 1.1//EN" "http://www.w3.org/Graphics/SVG/1.1/DTD/svg11.dtd">
<svg version="1.1" xmlns="http://www.w3.org/2000/svg" xmlns:xlink="http://www.w3.org/1999/xlink" width="512" height="512" viewBox="0 0 512 512">
<g id="icomoon-ignore">
	<line stroke-width="1" x1="" y1="" x2="" y2="" stroke="#449FDB" opacity=""></line>
</g>
	<path d="M246.477 406.425v0 0 0h0.666c85.965-0.307 155.545-70.093 155.597-156.16v-0.512c-0.307-85.811-69.939-155.443-155.904-155.597-0.051 0-0.154 0-0.205 0h-0.256c-86.221 0.051-156.058 69.939-156.058 156.16 0.051 86.221 69.939 156.109 156.16 156.109zM150.579 154.368c24.474-24.423 58.112-39.578 95.334-39.731h0.154l0.614-0.051c37.427 0.051 71.219 15.206 95.744 39.731 24.576 24.576 39.731 58.419 39.731 95.949v0 0c0 37.478-15.155 71.373-39.731 95.949s-58.419 39.731-95.949 39.731v0c0 0 0 0 0 0v0 0c-37.478 0-71.322-15.155-95.949-39.731-24.576-24.576-39.731-58.419-39.731-95.949 0.051-37.478 15.207-71.322 39.782-95.897z" opacity="1" visibility="false" fill="#000000"></path>
	<path d="M156.672 260.505h179.712c2.816 0 5.12-2.304 5.12-5.12v-10.24c0-2.816-2.304-5.12-5.12-5.12h-179.712c-2.816 0-5.12 2.304-5.12 5.12v10.24c0 2.816 2.304 5.12 5.12 5.12z" opacity="1" visibility="false" fill="#000000"></path>
</svg>
