<?xml version="1.0" encoding="utf-8"?>
<!-- Generated by IcoMoon.io -->
<!DOCTYPE svg PUBLIC "-//W3C//DTD SVG 1.1//EN" "http://www.w3.org/Graphics/SVG/1.1/DTD/svg11.dtd">
<svg version="1.1" xmlns="http://www.w3.org/2000/svg" xmlns:xlink="http://www.w3.org/1999/xlink" width="512" height="512" viewBox="0 0 512 512">
<g id="icomoon-ignore">
	<line stroke-width="1" x1="" y1="" x2="" y2="" stroke="#449FDB" opacity=""></line>
</g>
	<path d="M256.051 311.654c25.037 0 45.414-20.377 45.414-45.414s-20.377-45.415-45.414-45.415-45.415 20.377-45.415 45.415 20.377 45.414 45.415 45.414zM256.051 241.305c13.773 0 24.935 11.161 24.935 24.935s-11.161 24.935-24.935 24.935-24.935-11.161-24.935-24.935 11.161-24.935 24.935-24.935z" opacity="1" visibility="false" fill="#000000"></path>
	<path d="M131.328 245.351l-28.57 3.789 0.153 33.741 28.569 3.533v-0.563c1.28 8.089 3.277 15.872 6.042 23.399l-22.886 16.998 16.486 29.44 26.522-10.701c5.683 7.065 12.083 13.517 19.097 19.251l-2.355-1.382-11.161 26.573 29.133 16.947 17.459-22.784c7.475 2.969 15.309 5.223 23.398 6.707l2.765 28.007 33.69 0.973 4.403-28.109c9.83-1.382 19.251-3.891 28.211-7.373l-3.226 1.843 17.408 22.938 29.235-16.793-11.059-26.624-0.103 0.051c6.707-5.274 12.8-11.213 18.329-17.715l26.368 11.469 17.255-28.979-22.63-17.715c3.226-8.192 5.632-16.845 7.117-25.805l28.109-3.379 0.256-33.69-28.416-3.84c-1.485-8.909-3.84-17.561-7.065-25.754l22.477-17.767-17.357-28.928-26.163 11.469c-5.581-6.605-11.827-12.595-18.637-17.971l10.854-25.498-29.082-17.049-17.613 22.784 0.154 0.102c-7.885-2.816-16.077-4.813-24.576-6.042l-3.533-27.597h-33.741l-3.635 28.467c-8.345 1.536-16.384 3.891-24.064 7.014l0.41-0.256-17.92-22.579-28.877 17.459 11.673 26.368 0.205-0.154c-6.195 5.222-11.827 11.059-16.896 17.408l-26.522-10.905-16.691 29.338 23.040 17.305c-2.867 7.833-4.915 15.975-6.195 24.423l0.154-1.843zM181.401 191.13c19.2-19.2 45.619-31.027 74.854-31.027 29.286 0 55.654 11.827 74.855 31.027s31.027 45.619 31.027 74.855c0 29.286-11.827 55.654-31.027 74.855s-45.619 31.027-74.855 31.027c-29.286 0-55.654-11.827-74.855-31.027s-31.027-45.568-31.027-74.855c0.051-29.286 11.879-55.654 31.027-74.855z" opacity="1" visibility="false" fill="#000000"></path>
</svg>
