<?xml version="1.0" encoding="utf-8"?>
<!-- Generated by IcoMoon.io -->
<!DOCTYPE svg PUBLIC "-//W3C//DTD SVG 1.1//EN" "http://www.w3.org/Graphics/SVG/1.1/DTD/svg11.dtd">
<svg version="1.1" xmlns="http://www.w3.org/2000/svg" xmlns:xlink="http://www.w3.org/1999/xlink" width="256" height="256" viewBox="0 0 256 256">
<g id="icomoon-ignore">
	<line stroke-width="1" x1="" y1="" x2="" y2="" stroke="#449FDB" opacity=""></line>
</g>
	<path d="M135.68 18.329c-59.392 0-107.52 48.128-107.52 107.52 0 31.923 13.952 60.595 36.045 80.281l-47.232 27.238h118.707c59.392 0 107.52-48.128 107.52-107.52s-48.128-107.52-107.52-107.52zM204.467 194.637c-17.613 17.613-41.907 28.493-68.787 28.493h-80.435l27.059-15.59-6.041-4.659c-23.040-17.817-37.862-45.671-37.862-77.031 0-26.88 10.88-51.175 28.493-68.787s41.907-28.493 68.787-28.493c26.88 0 51.174 10.88 68.787 28.493s28.493 41.907 28.493 68.787c0 26.88-10.88 51.175-28.493 68.787z" opacity="1" visibility="false" fill="#000000"></path>
</svg>
