<?xml version="1.0" encoding="utf-8"?>
<!-- Generated by IcoMoon.io -->
<!DOCTYPE svg PUBLIC "-//W3C//DTD SVG 1.1//EN" "http://www.w3.org/Graphics/SVG/1.1/DTD/svg11.dtd">
<svg version="1.1" xmlns="http://www.w3.org/2000/svg" xmlns:xlink="http://www.w3.org/1999/xlink" width="512" height="512" viewBox="0 0 512 512">
<g id="icomoon-ignore">
	<line stroke-width="1" x1="" y1="" x2="" y2="" stroke="#449FDB" opacity=""></line>
</g>
	<path d="M369.357 204.647v0l-0.051 0.051z" opacity="1" visibility="false" fill="#000000"></path>
	<path d="M403.353 149.248c-2.406-5.888-5.632-11.417-10.087-15.923l-0.051-0.051-5.786-5.734c-4.505-4.454-10.035-7.68-15.923-10.087-5.939-2.355-12.135-3.942-18.432-3.942h-1.075l-56.832 1.843c-6.349 0.256-12.647 2.048-18.637 4.608-5.99 2.611-11.571 5.99-16.128 10.445v0l-150.067 150.119c-5.171 5.171-7.782 12.032-7.731 18.791 0 6.759 2.611 13.619 7.782 18.791l92.365 92.365c5.171 5.171 12.032 7.783 18.791 7.783s13.619-2.611 18.791-7.783l150.118-150.118c4.505-4.506 7.834-10.137 10.445-16.128 2.56-5.99 4.352-12.288 4.608-18.688v0l1.843-56.832v-1.075c-0.051-6.195-1.587-12.441-3.993-18.381zM382.055 236.135c-1.741 4.096-4.25 7.936-6.144 9.779l-150.119 150.119c-1.178 1.178-2.714 1.741-4.301 1.792-1.638 0-3.123-0.563-4.301-1.741l-92.365-92.416c-1.177-1.178-1.741-2.663-1.741-4.301s0.615-3.123 1.792-4.352l150.016-150.119c1.792-1.894 5.683-4.403 9.779-6.144 4.096-1.792 8.55-2.867 11.161-2.918l57.242-1.843c2.611-0.051 6.861 0.87 10.701 2.458 3.891 1.536 7.475 3.84 9.113 5.581l5.786 5.786c1.741 1.69 4.045 5.274 5.581 9.165 1.587 3.891 2.509 8.141 2.457 10.752v0.41l-1.843 56.832c0.051 2.611-1.024 7.065-2.816 11.161z" opacity="1" visibility="false" fill="#000000"></path>
	<path d="M342.784 140.493c-9.625 0-19.303 3.686-26.675 11.008v0c-7.322 7.321-11.059 16.999-11.008 26.624 0 9.575 3.687 19.251 11.059 26.573v0c7.322 7.321 16.998 11.008 26.624 11.008s19.303-3.686 26.624-11.059c7.373-7.321 11.059-16.999 11.059-26.624 0-9.575-3.687-19.303-11.059-26.573s-17.050-10.957-26.624-10.957zM354.867 190.208c-3.379 3.379-7.731 5.018-12.185 5.069-4.403 0-8.755-1.638-12.135-5.018v0c-3.379-3.379-5.017-7.68-5.017-12.083s1.639-8.755 5.017-12.135v0c3.43-3.379 7.783-5.018 12.185-5.069 4.454 0 8.755 1.638 12.135 5.018v0c3.379 3.379 5.017 7.68 5.017 12.083 0.051 4.403-1.587 8.704-5.017 12.135v0z" opacity="1" visibility="false" fill="#000000"></path>
	<path d="M369.357 151.45v0 0.051z" opacity="1" visibility="false" fill="#000000"></path>
</svg>
