<?xml version="1.0" encoding="utf-8"?>
<!-- Generated by IcoMoon.io -->
<!DOCTYPE svg PUBLIC "-//W3C//DTD SVG 1.1//EN" "http://www.w3.org/Graphics/SVG/1.1/DTD/svg11.dtd">
<svg version="1.1" xmlns="http://www.w3.org/2000/svg" xmlns:xlink="http://www.w3.org/1999/xlink" width="256" height="256" viewBox="0 0 256 256">
<g id="icomoon-ignore">
	<line stroke-width="1" x1="" y1="" x2="" y2="" stroke="#449FDB" opacity=""></line>
</g>
	<path d="M75.392 84.48c-14.131 0-25.626 11.495-25.626 25.626v35.789c0 14.131 11.495 25.625 25.626 25.625h105.19c14.131 0 25.625-11.494 25.625-25.625v-35.789c0-14.131-11.494-25.626-25.625-25.626h-105.191zM134.938 145.894c0 8.448-6.912 15.386-15.386 15.386h-44.16c-8.448 0-15.386-6.912-15.386-15.386v-35.789c0-8.448 6.912-15.386 15.386-15.386h44.16c8.448 0 15.386 6.912 15.386 15.386v35.789z" opacity="1" visibility="false" fill="#000000"></path>
</svg>
