<?xml version="1.0" encoding="utf-8"?>
<!-- Generated by IcoMoon.io -->
<!DOCTYPE svg PUBLIC "-//W3C//DTD SVG 1.1//EN" "http://www.w3.org/Graphics/SVG/1.1/DTD/svg11.dtd">
<svg version="1.1" xmlns="http://www.w3.org/2000/svg" xmlns:xlink="http://www.w3.org/1999/xlink" width="512" height="512" viewBox="0 0 512 512">
<g id="icomoon-ignore">
	<line stroke-width="1" x1="" y1="" x2="" y2="" stroke="#449FDB" opacity=""></line>
</g>
	<path d="M228.864 290.202c-18.073-18.841-43.879-29.901-73.677-29.849v20.48c24.883 0.051 44.749 8.909 58.931 23.603 14.541 15.155 23.194 36.864 23.245 62.669h20.48c-0.051-30.413-10.393-57.549-28.979-76.903v0z" opacity="1" visibility="false" fill="#000000"></path>
	<path d="M155.136 213.811v20.48c37.99 0.051 69.837 14.336 92.518 37.939 22.63 23.603 36.147 56.73 36.147 94.874h20.48c0-43.008-15.36-81.459-41.882-109.056-26.419-27.648-64.051-44.288-107.264-44.237z" opacity="1" visibility="false" fill="#000000"></path>
	<path d="M155.136 163.584v20.48c51.609 0.051 95.949 19.815 127.744 52.327 31.949 32.768 51.149 78.541 51.149 130.662h20.48c0-57.139-21.197-108.288-56.986-144.947-35.481-36.454-85.453-58.573-142.387-58.522z" opacity="1" visibility="false" fill="#000000"></path>
	<path d="M194.202 347.187c0 10.971-8.894 19.865-19.865 19.865s-19.865-8.894-19.865-19.865c0-10.971 8.894-19.865 19.865-19.865s19.865 8.894 19.865 19.865z" opacity="1" visibility="false" fill="#000000"></path>
	<path d="M384.051 113.51h-251.597c-14.131 0.051-25.549 11.469-25.6 25.6v252.774c0.051 14.131 11.469 25.549 25.6 25.6h251.546c14.131-0.051 25.549-11.469 25.6-25.6v-252.774c0-14.131-11.418-25.549-25.549-25.6zM387.635 395.52c-0.973 0.973-2.202 1.485-3.584 1.536h-251.597c-1.382 0-2.611-0.563-3.584-1.536s-1.485-2.202-1.536-3.584v-252.826c0-1.382 0.563-2.611 1.536-3.584s2.202-1.485 3.584-1.536h251.546c1.382 0 2.611 0.563 3.584 1.536s1.485 2.202 1.536 3.584v252.775c0.051 1.382-0.512 2.663-1.485 3.635z" opacity="1" visibility="false" fill="#000000"></path>
</svg>
