<?xml version="1.0" encoding="utf-8"?>
<!-- Generated by IcoMoon.io -->
<!DOCTYPE svg PUBLIC "-//W3C//DTD SVG 1.1//EN" "http://www.w3.org/Graphics/SVG/1.1/DTD/svg11.dtd">
<svg version="1.1" xmlns="http://www.w3.org/2000/svg" xmlns:xlink="http://www.w3.org/1999/xlink" width="256" height="256" viewBox="0 0 256 256">
<g id="icomoon-ignore">
	<line stroke-width="1" x1="" y1="" x2="" y2="" stroke="#449FDB" opacity=""></line>
</g>
	<path d="M128.743 76.467l2.073-7.475c0.384-1.357-0.435-2.765-1.792-3.149v0c-1.357-0.384-2.765 0.435-3.149 1.792l-2.073 7.475c-0.384 1.357 0.435 2.765 1.792 3.149v0c1.357 0.384 2.791-0.435 3.149-1.792z" opacity="1" visibility="false" fill="#000000"></path>
	<path d="M106.394 137.754l-1.766 6.349c-0.384 1.357 0.435 2.765 1.792 3.149s2.765-0.435 3.149-1.792l1.766-6.349c0.384-1.357-0.435-2.765-1.792-3.149v0c-1.357-0.384-2.765 0.435-3.149 1.792z" opacity="1" visibility="false" fill="#000000"></path>
	<path d="M147.226 117.401l7.475 2.073c1.357 0.384 2.765-0.435 3.149-1.792v0c0.384-1.357-0.435-2.765-1.792-3.149l-7.475-2.073c-1.357-0.384-2.765 0.435-3.149 1.792v0c-0.358 1.357 0.435 2.765 1.792 3.149z" opacity="1" visibility="false" fill="#000000"></path>
	<path d="M79.616 93.287c-1.357-0.384-2.765 0.435-3.149 1.792s0.435 2.765 1.792 3.149l6.349 1.766c1.357 0.384 2.765-0.435 3.149-1.792v0c0.384-1.357-0.435-2.765-1.792-3.149l-6.349-1.766z" opacity="1" visibility="false" fill="#000000"></path>
	<path d="M96.128 70.528c-1.229 0.691-1.664 2.253-0.973 3.481l3.251 5.734c0.691 1.229 2.253 1.664 3.481 0.973v0c1.229-0.691 1.664-2.253 0.973-3.481l-3.251-5.734c-0.691-1.229-2.253-1.664-3.481-0.973z" opacity="1" visibility="false" fill="#000000"></path>
	<path d="M146.483 91.981l6.758-3.814c1.229-0.691 1.664-2.253 0.973-3.481s-2.253-1.664-3.482-0.973l-6.758 3.814c-1.229 0.691-1.664 2.253-0.973 3.481 0.666 1.254 2.253 1.689 3.482 0.973z" opacity="1" visibility="false" fill="#000000"></path>
	<path d="M87.347 119.501l-5.734 3.251c-1.229 0.691-1.664 2.253-0.973 3.481s2.253 1.664 3.481 0.973l5.734-3.225c1.229-0.691 1.664-2.253 0.973-3.481-0.691-1.254-2.253-1.689-3.481-0.999z" opacity="1" visibility="false" fill="#000000"></path>
	<path d="M109.671 129.664l-1.433-9.114c-1.024-0.64-1.971-1.408-2.816-2.253-3.021-3.021-4.864-7.168-4.864-11.776s1.869-8.755 4.864-11.776c3.021-3.021 7.168-4.864 11.776-4.864s8.755 1.869 11.776 4.864c2.585 2.585 4.301 5.99 4.736 9.805l7.577 5.222c0.154-1.075 0.231-2.15 0.231-3.251 0-13.44-10.88-24.32-24.32-24.32s-24.32 10.88-24.32 24.32c-0.025 10.829 7.014 19.993 16.793 23.143z" opacity="1" visibility="false" fill="#000000"></path>
	<path d="M169.677 166.758l11.443-7.194c2.765-1.741 4.429-4.608 4.506-7.731s-1.485-6.067-4.173-7.911l-54.323-37.529c-0.537-5.145-4.838-9.165-10.138-9.165-5.657 0-10.24 4.582-10.24 10.24 0 4.173 2.509 7.757 6.093 9.344l10.087 63.898c0.743 4.633 4.557 7.987 9.088 7.987 1.792 0 3.584-0.537 5.145-1.511l11.443-7.194 7.194 11.443c1.894 2.995 5.12 4.787 8.679 4.787 1.92 0 3.815-0.537 5.453-1.561l3.712-2.329c4.787-2.995 6.221-9.344 3.226-14.106l-7.194-11.469zM169.575 185.805l-3.712 2.329c-0.41 0.256-0.896 0.384-1.357 0.384-0.845 0-1.69-0.435-2.176-1.203l-9.933-15.769c-0.487-0.768-1.331-1.203-2.176-1.203-0.461 0-0.947 0.128-1.357 0.384l-15.769 9.933c-0.358 0.231-0.743 0.333-1.075 0.333-0.743 0-1.357-0.537-1.485-1.511l-9.882-62.489c0 0 0 0 0.025 0l-0.64-4.121c-0.077-0.793 0.205-1.254 0.717-1.254 0.281 0 0.615 0.128 0.999 0.384l55.347 38.221c1.152 0.793 1.126 2.073-0.051 2.816l-15.769 9.933c-1.203 0.743-1.561 2.329-0.793 3.533l9.933 15.769c0.691 1.203 0.333 2.791-0.845 3.533z" opacity="1" visibility="false" fill="#000000"></path>
</svg>
