<?xml version="1.0" encoding="utf-8"?>
<!-- Generated by IcoMoon.io -->
<!DOCTYPE svg PUBLIC "-//W3C//DTD SVG 1.1//EN" "http://www.w3.org/Graphics/SVG/1.1/DTD/svg11.dtd">
<svg version="1.1" xmlns="http://www.w3.org/2000/svg" xmlns:xlink="http://www.w3.org/1999/xlink" width="512" height="512" viewBox="0 0 512 512">
<g id="icomoon-ignore">
	<line stroke-width="1" x1="" y1="" x2="" y2="" stroke="#449FDB" opacity=""></line>
</g>
	<path d="M307.046 241.049c0-7.577-1.178-15.104-3.533-22.323l-17.203 17.203c0.154 1.69 0.256 3.379 0.256 5.12 0 14.489-5.888 29.747-17.664 41.472l-98.714 98.816c-11.776 11.776-26.983 17.664-41.472 17.664-12.954 0-25.088-4.557-34.202-13.671s-13.671-21.248-13.671-34.202c0-14.49 5.888-29.747 17.664-41.472l98.765-98.765c11.776-11.776 26.983-17.664 41.472-17.664 0.922 0 1.792 0 2.714 0.051l18.227-17.459c-6.758-2.048-13.824-3.072-20.941-3.072-19.968 0-40.345 8.038-55.962 23.654l-98.816 98.714c-15.616 15.616-23.654 35.993-23.654 55.962 0 17.767 6.451 35.43 19.661 48.691s30.873 19.712 48.691 19.661c19.968 0 40.346-8.038 55.962-23.654l98.765-98.765c15.667-15.616 23.654-35.993 23.654-55.962z" opacity="1" visibility="false" fill="#000000"></path>
	<path d="M432.486 132.198c-13.209-13.261-30.873-19.712-48.691-19.661-19.968 0-40.346 8.038-55.962 23.655l-98.765 98.765c-15.616 15.616-23.654 35.993-23.654 55.962 0 7.577 1.178 15.104 3.533 22.323l17.203-17.203c-0.154-1.69-0.256-3.379-0.256-5.12 0-14.49 5.888-29.747 17.664-41.472l98.765-98.765c11.776-11.776 26.983-17.664 41.472-17.664 12.954 0 25.088 4.557 34.202 13.671s13.671 21.248 13.671 34.202c0 14.489-5.888 29.747-17.664 41.472l-98.714 98.765c-11.776 11.776-26.983 17.664-41.472 17.664-0.921 0-1.792 0-2.714-0.051l-18.227 17.459c6.758 2.048 13.824 3.072 20.941 3.072 19.968 0 40.346-8.038 55.962-23.654l98.765-98.765c15.616-15.616 23.654-35.993 23.654-55.962 0-17.817-6.451-35.481-19.712-48.691z" opacity="1" visibility="false" fill="#000000"></path>
</svg>
