<?xml version="1.0" encoding="utf-8"?>
<!-- Generated by IcoMoon.io -->
<!DOCTYPE svg PUBLIC "-//W3C//DTD SVG 1.1//EN" "http://www.w3.org/Graphics/SVG/1.1/DTD/svg11.dtd">
<svg version="1.1" xmlns="http://www.w3.org/2000/svg" xmlns:xlink="http://www.w3.org/1999/xlink" width="256" height="256" viewBox="0 0 256 256">
<g id="icomoon-ignore">
	<line stroke-width="1" x1="" y1="" x2="" y2="" stroke="#449FDB" opacity=""></line>
</g>
	<path d="M58.727 102.349c5.709-4.889 0-14.643 0-14.643l-34.099 29.287 34.099 29.287c0 0 5.709-9.728 0-14.643-5.043-4.301-9.984-8.576-11.111-9.523h34.483v-10.24h-34.458c1.152-1.024 6.093-5.273 11.085-9.523z" opacity="1" visibility="false" fill="#000000"></path>
	<path d="M132.813 112.665c0-10.701-8.678-19.405-19.405-19.405s-19.405 8.678-19.405 19.405c0 10.727 8.678 19.405 19.405 19.405 10.727-0.025 19.405-8.704 19.405-19.405zM121.703 120.96c-2.125 2.125-5.043 3.43-8.294 3.43s-6.144-1.305-8.294-3.43c-2.125-2.125-3.43-5.043-3.43-8.294s1.305-6.144 3.43-8.294c2.125-2.125 5.043-3.43 8.294-3.43s6.144 1.305 8.294 3.43c2.125 2.125 3.43 5.043 3.43 8.294s-1.305 6.144-3.43 8.294z" opacity="1" visibility="false" fill="#000000"></path>
	<path d="M154.419 66.867c-10.701 0-19.405 8.678-19.405 19.405s8.678 19.405 19.405 19.405c10.726 0 19.405-8.678 19.405-19.405s-8.678-19.405-19.405-19.405zM162.714 94.541c-2.125 2.125-5.043 3.43-8.294 3.43s-6.144-1.305-8.294-3.43c-2.125-2.125-3.43-5.043-3.43-8.294s1.305-6.144 3.43-8.294c2.125-2.125 5.043-3.43 8.294-3.43s6.144 1.305 8.294 3.43c2.125 2.125 3.43 5.043 3.43 8.294s-1.305 6.169-3.43 8.294z" opacity="1" visibility="false" fill="#000000"></path>
	<path d="M216.883 99.712c0-10.701-8.679-19.405-19.405-19.405s-19.405 8.678-19.405 19.405c0 10.727 8.679 19.405 19.405 19.405s19.405-8.678 19.405-19.405zM189.209 108.007c-2.125-2.125-3.43-5.043-3.43-8.294s1.305-6.144 3.43-8.294c2.125-2.125 5.043-3.43 8.294-3.43s6.144 1.305 8.294 3.43c2.125 2.125 3.43 5.043 3.43 8.294s-1.305 6.144-3.43 8.294c-2.125 2.125-5.043 3.43-8.294 3.43s-6.169-1.305-8.294-3.43z" opacity="1" visibility="false" fill="#000000"></path>
	<path d="M215.808 121.421c-10.726 0-19.405 8.678-19.405 19.405s8.679 19.405 19.405 19.405c10.701 0 19.405-8.678 19.405-19.405s-8.679-19.405-19.405-19.405zM224.102 149.12c-2.125 2.125-5.043 3.43-8.294 3.43s-6.144-1.305-8.294-3.43c-2.125-2.125-3.43-5.043-3.43-8.294s1.305-6.144 3.43-8.294c2.125-2.125 5.043-3.43 8.294-3.43s6.144 1.305 8.294 3.43c2.125 2.125 3.43 5.043 3.43 8.294s-1.305 6.144-3.43 8.294z" opacity="1" visibility="false" fill="#000000"></path>
	<path d="M144.666 144.333c-11.315 0-20.48 9.165-20.48 20.48s9.165 20.48 20.48 20.48 20.48-9.165 20.48-20.48c0-11.315-9.191-20.48-20.48-20.48zM144.666 177.613c-7.065 0-12.8-5.734-12.8-12.8s5.734-12.8 12.8-12.8 12.8 5.734 12.8 12.8c0 7.065-5.76 12.8-12.8 12.8z" opacity="1" visibility="false" fill="#000000"></path>
</svg>
