<?xml version="1.0" encoding="utf-8"?>
<!-- Generated by IcoMoon.io -->
<!DOCTYPE svg PUBLIC "-//W3C//DTD SVG 1.1//EN" "http://www.w3.org/Graphics/SVG/1.1/DTD/svg11.dtd">
<svg version="1.1" xmlns="http://www.w3.org/2000/svg" xmlns:xlink="http://www.w3.org/1999/xlink" width="512" height="512" viewBox="0 0 512 512">
<g id="icomoon-ignore">
	<line stroke-width="1" x1="" y1="" x2="" y2="" stroke="#449FDB" opacity=""></line>
</g>
	<path d="M384.563 194.714h-256.461c-14.131 0.051-25.549 11.469-25.6 25.6v71.424c0.051 14.131 11.469 25.549 25.6 25.6h256.461c14.131-0.051 25.549-11.469 25.6-25.6v-71.424c0-14.183-11.418-25.6-25.6-25.6zM388.199 295.322c-0.973 0.973-2.202 1.485-3.584 1.485h-256.512c-1.382 0-2.611-0.563-3.584-1.485-0.973-0.973-1.485-2.202-1.536-3.635v-71.373c0-1.382 0.563-2.611 1.536-3.635 0.973-0.973 2.201-1.485 3.584-1.485h256.461c1.382 0 2.611 0.563 3.584 1.485 0.973 0.973 1.485 2.202 1.536 3.635v71.424c0 1.382-0.512 2.611-1.485 3.584z" opacity="1" visibility="false" fill="#000000"></path>
	<path d="M289.843 337.51h-66.253c-8.448 0-10.957 5.325-5.632 11.878l28.979 35.277c5.376 6.553 14.131 6.553 19.507 0l28.979-35.277c5.376-6.502 2.867-11.878-5.581-11.878z" opacity="1" visibility="false" fill="#000000"></path>
	<path d="M222.874 173.773h66.253c8.448 0 10.957-5.325 5.632-11.879l-28.979-35.277c-5.376-6.553-14.131-6.553-19.507 0l-28.979 35.277c-5.376 6.502-2.867 11.879 5.581 11.879z" opacity="1" visibility="false" fill="#000000"></path>
</svg>
