<?xml version="1.0" encoding="utf-8"?>
<!-- Generated by IcoMoon.io -->
<!DOCTYPE svg PUBLIC "-//W3C//DTD SVG 1.1//EN" "http://www.w3.org/Graphics/SVG/1.1/DTD/svg11.dtd">
<svg version="1.1" xmlns="http://www.w3.org/2000/svg" xmlns:xlink="http://www.w3.org/1999/xlink" width="512" height="512" viewBox="0 0 512 512">
<g id="icomoon-ignore">
	<line stroke-width="1" x1="" y1="" x2="" y2="" stroke="#449FDB" opacity=""></line>
</g>
	<path d="M92.16 391.577c0.051 14.131 11.469 25.549 25.6 25.6h276.48c14.131-0.051 25.549-11.469 25.6-25.6v-142.285h-20.48v142.285c0 1.382-0.563 2.611-1.536 3.635-0.973 0.973-2.202 1.485-3.584 1.485h-276.48c-1.382 0-2.611-0.563-3.584-1.485-0.973-0.973-1.536-2.202-1.536-3.635v-142.848h-20.48v142.848z" opacity="1" visibility="false" fill="#000000"></path>
	<path d="M266.24 350.822v-210.073c17.255 17.203 50.688 50.585 59.341 59.239 11.878 11.879 35.533 0 35.533 0l-105.319-105.165-104.857 104.858c0 0 23.654 11.827 35.533 0 8.755-8.755 42.291-42.291 59.29-59.29v210.432h20.48z" opacity="1" visibility="false" fill="#000000"></path>
</svg>
