<?xml version="1.0" encoding="utf-8"?>
<!-- Generated by IcoMoon.io -->
<!DOCTYPE svg PUBLIC "-//W3C//DTD SVG 1.1//EN" "http://www.w3.org/Graphics/SVG/1.1/DTD/svg11.dtd">
<svg version="1.1" xmlns="http://www.w3.org/2000/svg" xmlns:xlink="http://www.w3.org/1999/xlink" width="512" height="512" viewBox="0 0 512 512">
<g id="icomoon-ignore">
	<line stroke-width="1" x1="" y1="" x2="" y2="" stroke="#449FDB" opacity=""></line>
</g>
	<path d="M244.48 92.979v237.363c-17.255-17.203-50.688-50.586-59.341-59.238-11.879-11.878-35.533 0-35.533 0l105.319 105.216 104.857-104.858c0 0-23.654-11.827-35.533 0-8.755 8.755-42.291 42.291-59.289 59.341v-237.824h-20.48z" opacity="1" visibility="false" fill="#000000"></path>
	<path d="M254.72 429.261c94.311 0 170.701-76.442 170.701-170.701 0-62.874-34.048-117.863-84.633-147.456v24.371c38.81 27.187 64.154 72.089 64.154 123.085 0 41.523-16.793 79.001-43.981 106.24-27.238 27.187-64.717 43.981-106.24 43.981s-79.001-16.793-106.24-43.981c-27.187-27.238-43.981-64.717-43.981-106.24 0-50.944 25.395-95.897 64.154-123.085v-24.371c-50.585 29.593-84.633 84.531-84.633 147.456 0 94.259 76.441 170.649 170.701 170.701z" opacity="1" visibility="false" fill="#000000"></path>
</svg>
