<?xml version="1.0" encoding="utf-8"?>
<!-- Generated by IcoMoon.io -->
<!DOCTYPE svg PUBLIC "-//W3C//DTD SVG 1.1//EN" "http://www.w3.org/Graphics/SVG/1.1/DTD/svg11.dtd">
<svg version="1.1" xmlns="http://www.w3.org/2000/svg" xmlns:xlink="http://www.w3.org/1999/xlink" width="512" height="512" viewBox="0 0 512 512">
<g id="icomoon-ignore">
	<line stroke-width="1" x1="" y1="" x2="" y2="" stroke="#449FDB" opacity=""></line>
</g>
	<path d="M255.846 306.125c37.12 0 67.226-30.106 67.226-67.226v-128.256c0-37.12-30.106-67.225-67.226-67.225s-67.226 30.105-67.226 67.225v128.205c0 37.171 30.106 67.226 67.226 67.277zM209.101 110.643c0-12.954 5.222-24.576 13.671-33.024 8.499-8.499 20.121-13.671 33.075-13.671s24.576 5.222 33.075 13.671c8.499 8.499 13.671 20.121 13.671 33.024v128.205c0 12.953-5.223 24.576-13.671 33.075-8.499 8.499-20.122 13.671-33.075 13.671s-24.576-5.223-33.075-13.671c-8.499-8.499-13.671-20.121-13.671-33.075v-128.205z" opacity="1" visibility="false" fill="#000000"></path>
	<path d="M148.736 268.749c0.666 8.55 3.379 17.664 8.141 26.726 7.117 13.568 18.841 26.983 35.533 37.069 14.233 8.601 32 14.592 53.248 16.179v47.309h-92.672v20.48h205.67v-20.48h-92.57v-47.104c14.387-0.666 33.433-3.072 51.405-11.93 11.059-5.478 21.658-13.517 29.798-25.037s13.671-26.368 15.207-44.697c0.717-8.346 1.075-20.377 1.331-33.587 0.256-13.159 0.307-27.392 0.307-39.731 0-18.227-0.154-32.256-0.154-32.256l-20.48 0.205c0 0 0.051 3.482 0.051 9.216 0.051 5.734 0.103 13.773 0.103 22.835 0 12.237-0.051 26.368-0.307 39.373-0.256 12.953-0.666 24.832-1.28 32.205-1.28 15.257-5.632 26.214-11.52 34.56-4.454 6.298-9.831 11.111-15.923 15.002-9.113 5.786-19.763 9.267-30.055 11.213-10.342 1.945-20.224 2.355-27.699 2.355-30.515-0.051-51.763-9.933-65.945-22.528-7.065-6.298-12.391-13.363-15.975-20.224s-5.478-13.517-5.837-18.791c-0.461-5.735-0.768-16.077-0.922-27.904s-0.205-25.19-0.205-37.478c0-10.752 0.051-20.685 0.102-27.904s0.102-11.673 0.102-11.673l-20.48-0.205c0 0-0.154 18.125-0.154 39.782 0 12.288 0.051 25.754 0.256 37.734 0.102 12.135 0.41 22.579 0.922 29.287z" opacity="1" visibility="false" fill="#000000"></path>
</svg>
