<?xml version="1.0" encoding="utf-8"?>
<!-- Generated by IcoMoon.io -->
<!DOCTYPE svg PUBLIC "-//W3C//DTD SVG 1.1//EN" "http://www.w3.org/Graphics/SVG/1.1/DTD/svg11.dtd">
<svg version="1.1" xmlns="http://www.w3.org/2000/svg" xmlns:xlink="http://www.w3.org/1999/xlink" width="512" height="512" viewBox="0 0 512 512">
<g id="icomoon-ignore">
	<line stroke-width="1" x1="" y1="" x2="" y2="" stroke="#449FDB" opacity=""></line>
</g>
	<path d="M257.792 82.637c-92.621 0-167.68 75.059-167.68 167.68s75.059 167.68 167.68 167.68c92.57 0 167.68-75.059 167.68-167.68 0-92.57-75.059-167.629-167.68-167.68zM358.247 350.822c-25.753 25.753-61.184 41.625-100.454 41.625s-74.701-15.872-100.454-41.625c-25.754-25.753-41.626-61.184-41.626-100.454s15.872-74.701 41.626-100.454c25.754-25.754 61.184-41.626 100.454-41.626s74.701 15.872 100.454 41.626c25.753 25.702 41.625 61.133 41.625 100.403s-15.872 74.752-41.625 100.505z" opacity="1" visibility="false" fill="#000000"></path>
	<path d="M270.592 167.526h-25.6v95.591h114.585v-25.6h-88.986z" opacity="1" visibility="false" fill="#000000"></path>
</svg>
