<?xml version="1.0" encoding="utf-8"?>
<!-- Generated by IcoMoon.io -->
<!DOCTYPE svg PUBLIC "-//W3C//DTD SVG 1.1//EN" "http://www.w3.org/Graphics/SVG/1.1/DTD/svg11.dtd">
<svg version="1.1" xmlns="http://www.w3.org/2000/svg" xmlns:xlink="http://www.w3.org/1999/xlink" width="512" height="512" viewBox="0 0 512 512">
<g id="icomoon-ignore">
	<line stroke-width="1" x1="" y1="" x2="" y2="" stroke="#449FDB" opacity=""></line>
</g>
	<path d="M286.157 310.682c-8.601 10.087-17.152 19.968-19.046 22.221v-109.875h-20.48v109.824c-1.997-2.304-10.496-12.185-19.047-22.221-9.779-11.418-29.286 0-29.286 0l58.573 68.25 58.573-68.199c0 0-19.507-11.418-29.286 0z" opacity="1" visibility="false" fill="#000000"></path>
	<path d="M256 202.649c21.453 0 38.81-17.357 38.81-38.81 0-21.401-17.357-38.809-38.81-38.809s-38.81 17.357-38.81 38.809c0 21.453 17.357 38.81 38.81 38.81zM239.411 147.251c4.25-4.25 10.087-6.861 16.589-6.861s12.288 2.611 16.589 6.861c4.25 4.25 6.861 10.087 6.861 16.589s-2.611 12.288-6.861 16.589c-4.25 4.25-10.087 6.861-16.589 6.861s-12.288-2.611-16.589-6.861c-4.25-4.25-6.861-10.087-6.861-16.589s2.611-12.288 6.861-16.589z" opacity="1" visibility="false" fill="#000000"></path>
</svg>
