<?xml version="1.0" encoding="utf-8"?>
<!-- Generated by IcoMoon.io -->
<!DOCTYPE svg PUBLIC "-//W3C//DTD SVG 1.1//EN" "http://www.w3.org/Graphics/SVG/1.1/DTD/svg11.dtd">
<svg version="1.1" xmlns="http://www.w3.org/2000/svg" xmlns:xlink="http://www.w3.org/1999/xlink" width="256" height="256" viewBox="0 0 256 256">
<g id="icomoon-ignore">
	<line stroke-width="1" x1="" y1="" x2="" y2="" stroke="#449FDB" opacity=""></line>
</g>
	<path d="M29.952 67.661l6.349 8.038c5.223-4.121 9.882-6.477 15.053-7.91s10.983-1.945 18.227-1.945c2.099 0 4.326 0.051 6.681 0.103 4.608 0.128 8.525 1.075 12.083 2.483 5.325 2.099 9.856 5.35 14.157 8.755 4.301 3.379 8.243 6.912 12.979 9.319l4.582-9.165c-1.945-0.973-4.301-2.688-6.938-4.787-3.993-3.174-8.678-7.219-14.617-10.573-5.913-3.379-13.159-6.016-21.913-6.246-2.432-0.077-4.736-0.102-6.963-0.102-7.706 0-14.489 0.512-20.992 2.304-6.528 1.767-12.595 4.915-18.688 9.728z" opacity="1" visibility="false" fill="#000000"></path>
	<path d="M76.135 95.744c3.993 0.153 7.373-2.969 7.526-6.963 0.051-1.254-0.256-2.457-0.793-3.507 6.681 1.459 11.469 4.761 13.696 8.602l4.403-2.611c-4.121-6.938-12.877-11.469-24.064-11.904-0.563-0.025-1.126-0.025-1.689-0.025-10.138 0-18.381 3.609-22.886 9.6l4.096 3.072c2.56-3.456 7.322-6.169 13.696-7.142-0.589 0.999-0.973 2.125-0.999 3.353-0.103 3.993 2.995 7.373 7.014 7.526z" opacity="1" visibility="false" fill="#000000"></path>
	<path d="M199.526 91.981l4.096-3.072c-4.506-5.99-12.749-9.575-22.887-9.6-0.563 0-1.126 0-1.69 0.025-11.187 0.435-19.917 4.992-24.064 11.904l4.403 2.611c2.253-3.865 7.014-7.142 13.696-8.602-0.537 1.049-0.845 2.253-0.793 3.507 0.154 3.993 3.533 7.117 7.526 6.963s7.117-3.533 6.963-7.526c-0.051-1.229-0.435-2.355-0.999-3.353 6.425 0.973 11.213 3.686 13.747 7.142z" opacity="1" visibility="false" fill="#000000"></path>
	<path d="M186.393 55.603c-2.227 0-4.557 0.051-6.963 0.102-5.837 0.154-11.008 1.383-15.565 3.2-6.835 2.714-12.211 6.656-16.743 10.24-4.506 3.584-8.243 6.758-11.187 8.192l4.583 9.165c3.174-1.587 5.939-3.712 8.755-5.939 4.198-3.353 8.422-6.938 13.286-9.677s10.291-4.71 17.178-4.915c2.355-0.077 4.583-0.103 6.681-0.103 7.27 0 13.056 0.487 18.227 1.945s9.831 3.789 15.053 7.91l6.349-8.038c-6.093-4.813-12.185-7.962-18.662-9.754-6.502-1.818-13.286-2.33-20.992-2.33z" opacity="1" visibility="false" fill="#000000"></path>
	<path d="M137.933 154.266c-0.666 1.178-1.92 2.227-3.712 2.995-1.767 0.768-3.994 1.203-6.246 1.203-2.995 0.025-5.965-0.793-7.834-2.073-0.947-0.64-1.638-1.357-2.099-2.15s-0.717-1.664-0.717-2.816h-7.68c0 2.458 0.64 4.762 1.766 6.707 1.715 2.918 4.377 4.915 7.27 6.169 2.918 1.255 6.118 1.843 9.318 1.843 4.25-0.025 8.55-1.024 12.109-3.353 1.767-1.178 3.353-2.714 4.48-4.659 1.126-1.92 1.767-4.25 1.767-6.707h-7.68c-0.025 1.178-0.281 2.048-0.743 2.841z" opacity="1" visibility="false" fill="#000000"></path>
	<path d="M128 185.6c-6.784 0-12.365 0.743-17.049 1.997-7.040 1.869-12.083 4.992-16.051 8.141-3.968 3.174-6.938 6.272-10.087 8.499-1.741 1.229-2.15 3.635-0.921 5.351s3.635 2.15 5.35 0.922c2.637-1.869 4.838-3.942 7.066-5.888 3.328-2.944 6.605-5.657 11.315-7.757 4.71-2.073 11.008-3.559 20.378-3.584 6.221 0 11.085 0.717 15.001 1.792 5.888 1.664 9.728 4.147 13.235 6.938 3.482 2.765 6.553 5.965 10.675 8.601 1.792 1.126 4.173 0.589 5.299-1.203s0.589-4.173-1.203-5.299c-2.073-1.305-4.071-3.047-6.323-5.018-3.405-2.944-7.424-6.425-13.209-9.088-5.811-2.637-13.286-4.403-23.475-4.403z" opacity="1" visibility="false" fill="#000000"></path>
</svg>
