<?xml version="1.0" encoding="utf-8"?>
<!-- Generated by IcoMoon.io -->
<!DOCTYPE svg PUBLIC "-//W3C//DTD SVG 1.1//EN" "http://www.w3.org/Graphics/SVG/1.1/DTD/svg11.dtd">
<svg version="1.1" xmlns="http://www.w3.org/2000/svg" xmlns:xlink="http://www.w3.org/1999/xlink" width="512" height="512" viewBox="0 0 512 512">
<g id="icomoon-ignore">
	<line stroke-width="1" x1="" y1="" x2="" y2="" stroke="#449FDB" opacity=""></line>
</g>
	<path d="M194.253 239.975c-10.343-9.267-29.44 1.536-29.44 1.536l71.526 76.288 121.753-149.555c0 0-20.122-8.806-29.44 1.536-9.267 10.291-92.57 113.51-92.57 113.51s-31.488-33.997-41.831-43.315z" opacity="1" visibility="false" fill="#000000"></path>
	<path d="M305.817 327.68c0 1.382-0.563 2.663-1.485 3.635-1.024 0.921-2.253 1.485-3.635 1.485h-143.36c-1.382 0-2.611-0.563-3.635-1.485-0.973-0.973-1.485-2.202-1.485-3.635v-143.36c0-1.382 0.563-2.611 1.485-3.584 0.973-0.973 2.202-1.485 3.635-1.536h143.36l13.517-17.408c0 0-5.223-3.123-13.517-3.072h-143.36c-14.131 0.051-25.549 11.469-25.6 25.6v143.36c0.051 14.131 11.469 25.549 25.6 25.6h143.36c14.131-0.051 25.549-11.469 25.6-25.6v-93.85l-20.48 25.344v68.505z" opacity="1" visibility="false" fill="#000000"></path>
</svg>
