<?xml version="1.0" encoding="utf-8"?>
<!-- Generated by IcoMoon.io -->
<!DOCTYPE svg PUBLIC "-//W3C//DTD SVG 1.1//EN" "http://www.w3.org/Graphics/SVG/1.1/DTD/svg11.dtd">
<svg version="1.1" xmlns="http://www.w3.org/2000/svg" xmlns:xlink="http://www.w3.org/1999/xlink" width="512" height="512" viewBox="0 0 512 512">
<g id="icomoon-ignore">
	<line stroke-width="1" x1="" y1="" x2="" y2="" stroke="#449FDB" opacity=""></line>
</g>
	<path d="M251.187 156.518v0c2.714 0.768 5.529-0.87 6.298-3.584l4.147-14.951c0.768-2.714-0.87-5.53-3.584-6.298v0c-2.714-0.768-5.53 0.87-6.298 3.584l-4.147 14.951c-0.717 2.714 0.87 5.53 3.584 6.298z" opacity="1" visibility="false" fill="#000000"></path>
	<path d="M219.085 271.923v0c-2.714-0.768-5.53 0.87-6.298 3.584l-3.533 12.697c-0.768 2.714 0.87 5.529 3.584 6.298s5.53-0.87 6.298-3.584l3.533-12.697c0.768-2.714-0.87-5.529-3.584-6.298z" opacity="1" visibility="false" fill="#000000"></path>
	<path d="M290.918 228.506v0c-0.768 2.714 0.87 5.53 3.584 6.298l14.95 4.147c2.714 0.768 5.529-0.87 6.298-3.584v0c0.768-2.714-0.87-5.53-3.584-6.298l-14.95-4.147c-2.714-0.717-5.581 0.87-6.298 3.584z" opacity="1" visibility="false" fill="#000000"></path>
	<path d="M175.463 196.403v0c0.768-2.714-0.87-5.53-3.584-6.298l-12.697-3.533c-2.714-0.768-5.53 0.87-6.298 3.584s0.87 5.53 3.584 6.298l12.697 3.533c2.714 0.768 5.581-0.87 6.298-3.584z" opacity="1" visibility="false" fill="#000000"></path>
	<path d="M196.813 159.488c1.382 2.458 4.506 3.328 6.963 1.946v0c2.458-1.382 3.328-4.506 1.946-6.963l-6.502-11.469c-1.382-2.458-4.506-3.328-6.963-1.946s-3.328 4.506-1.946 6.963l6.502 11.469z" opacity="1" visibility="false" fill="#000000"></path>
	<path d="M292.966 183.962l13.517-7.629c2.457-1.382 3.328-4.506 1.945-6.963s-4.505-3.328-6.963-1.946l-13.517 7.629c-2.457 1.382-3.328 4.506-1.945 6.963 1.331 2.509 4.505 3.379 6.963 1.946z" opacity="1" visibility="false" fill="#000000"></path>
	<path d="M174.695 239.001l-11.469 6.502c-2.458 1.382-3.328 4.506-1.946 6.963s4.506 3.328 6.963 1.946l11.469-6.451c2.458-1.382 3.328-4.506 1.946-6.963-1.382-2.509-4.506-3.379-6.963-1.997z" opacity="1" visibility="false" fill="#000000"></path>
	<path d="M216.423 241.152c-2.048-1.28-3.942-2.816-5.632-4.506-6.042-6.042-9.728-14.336-9.728-23.552s3.738-17.511 9.728-23.552c6.042-6.042 14.336-9.728 23.552-9.728s17.511 3.738 23.552 9.728c5.171 5.171 8.601 11.981 9.472 19.609l15.155 10.445c0.307-2.15 0.461-4.301 0.461-6.502 0-26.88-21.76-48.64-48.64-48.64s-48.64 21.76-48.64 48.64c0 21.607 14.131 39.936 33.638 46.233l-2.918-18.176z" opacity="1" visibility="false" fill="#000000"></path>
	<path d="M362.906 287.795l-108.647-75.008c-1.075-10.291-9.677-18.329-20.275-18.329-11.315 0-20.48 9.165-20.48 20.48 0 8.345 5.018 15.513 12.185 18.688l20.173 127.795c1.485 9.267 9.113 15.974 18.176 15.974 3.584 0 7.168-1.075 10.291-3.021l22.887-14.387 14.387 22.887c3.789 5.99 10.24 9.575 17.357 9.575 3.84 0 7.629-1.075 10.906-3.123l7.424-4.659c9.575-5.99 12.442-18.688 6.451-28.211l-14.387-22.887 22.887-14.387c5.529-3.481 8.858-9.216 9.011-15.462s-3.021-12.185-8.346-15.923zM354.048 306.074l-31.539 19.865c-2.406 1.485-3.123 4.659-1.587 7.065l19.865 31.539c1.485 2.406 0.768 5.581-1.587 7.065l-7.424 4.659c-0.819 0.512-1.792 0.768-2.714 0.768-1.69 0-3.379-0.87-4.352-2.406l-19.865-31.539c-0.973-1.536-2.663-2.406-4.352-2.406-0.921 0-1.894 0.256-2.714 0.768l-31.539 19.865c-0.717 0.461-1.485 0.666-2.151 0.666-1.485 0-2.714-1.075-2.969-3.021l-19.763-125.031c0 0 0.051 0 0.051 0l-1.28-8.243c-0.154-1.587 0.41-2.509 1.434-2.509 0.563 0 1.229 0.256 1.997 0.768l110.695 76.442c2.202 1.69 2.151 4.199-0.205 5.683z" opacity="1" visibility="false" fill="#000000"></path>
</svg>
