<?xml version="1.0" encoding="utf-8"?>
<!-- Generated by IcoMoon.io -->
<!DOCTYPE svg PUBLIC "-//W3C//DTD SVG 1.1//EN" "http://www.w3.org/Graphics/SVG/1.1/DTD/svg11.dtd">
<svg version="1.1" xmlns="http://www.w3.org/2000/svg" xmlns:xlink="http://www.w3.org/1999/xlink" width="512" height="512" viewBox="0 0 512 512">
<g id="icomoon-ignore">
	<line stroke-width="1" x1="" y1="" x2="" y2="" stroke="#449FDB" opacity=""></line>
</g>
	<path d="M176.64 271.36c-26.88 0-48.64 21.76-48.64 48.64s21.76 48.64 48.64 48.64c26.88 0 48.64-21.76 48.64-48.64s-21.76-48.64-48.64-48.64zM200.192 343.552c-6.042 6.041-14.336 9.728-23.552 9.728s-17.511-3.738-23.552-9.728c-6.042-6.041-9.728-14.336-9.728-23.552s3.738-17.51 9.728-23.552c6.042-6.041 14.336-9.728 23.552-9.728s17.511 3.738 23.552 9.728c6.042 6.041 9.728 14.336 9.728 23.552s-3.738 17.51-9.728 23.552z" opacity="1" visibility="false" fill="#000000"></path>
	<path d="M177.817 261.274c2.816 0 5.12-2.304 5.12-5.12v-15.513c0-2.816-2.304-5.12-5.12-5.12s-5.12 2.304-5.12 5.12v15.513c0 2.816 2.304 5.12 5.12 5.12z" opacity="1" visibility="false" fill="#000000"></path>
	<path d="M177.817 381.082c-2.816 0-5.12 2.304-5.12 5.12v13.159c0 2.816 2.304 5.12 5.12 5.12s5.12-2.304 5.12-5.12v-13.159c0-2.816-2.304-5.12-5.12-5.12z" opacity="1" visibility="false" fill="#000000"></path>
	<path d="M256 314.88h-15.513c-2.816 0-5.12 2.304-5.12 5.12s2.304 5.12 5.12 5.12h15.513c2.816 0 5.12-2.304 5.12-5.12s-2.304-5.12-5.12-5.12z" opacity="1" visibility="false" fill="#000000"></path>
	<path d="M110.439 314.88h-13.159c-2.816 0-5.12 2.304-5.12 5.12s2.304 5.12 5.12 5.12h13.159c2.816 0 5.12-2.304 5.12-5.12s-2.304-5.12-5.12-5.12z" opacity="1" visibility="false" fill="#000000"></path>
	<path d="M225.382 363.469c-1.997-1.997-5.274-1.997-7.219 0s-1.997 5.274 0 7.219l10.957 10.957c1.997 1.997 5.274 1.997 7.219 0v0c1.997-1.997 1.997-5.274 0-7.219l-10.957-10.957z" opacity="1" visibility="false" fill="#000000"></path>
	<path d="M126.208 278.733c1.997 1.997 5.274 1.997 7.219 0s1.997-5.274 0-7.219l-9.319-9.318c-1.997-1.997-5.273-1.997-7.219 0v0c-1.997 1.997-1.997 5.274 0 7.219l9.319 9.319z" opacity="1" visibility="false" fill="#000000"></path>
	<path d="M229.12 258.355l-10.957 10.957c-1.997 1.997-1.997 5.274 0 7.219s5.274 1.997 7.219 0l10.957-10.957c1.997-1.997 1.997-5.274 0-7.219v0c-1.946-1.997-5.222-1.997-7.219 0z" opacity="1" visibility="false" fill="#000000"></path>
	<path d="M126.208 361.267l-9.319 9.319c-1.997 1.997-1.997 5.274 0 7.219v0c1.997 1.997 5.273 1.997 7.219 0l9.319-9.319c1.997-1.997 1.997-5.274 0-7.219s-5.222-1.997-7.219 0z" opacity="1" visibility="false" fill="#000000"></path>
	<path d="M313.447 162.406c-6.247-2.714-12.8-3.994-19.251-3.994-18.841 0-36.711 11.008-44.697 29.389-2.714 6.246-3.994 12.8-3.994 19.251 0 18.841 11.008 36.71 29.389 44.697 6.247 2.714 12.8 3.994 19.251 3.994 18.841 0 36.711-11.008 44.697-29.389 2.714-6.246 3.993-12.8 3.993-19.251 0-18.841-11.008-36.762-29.389-44.697zM324.711 220.262c-5.427 12.595-17.715 20.071-30.567 20.071-4.403 0-8.858-0.87-13.159-2.714-12.595-5.427-20.070-17.715-20.070-30.566 0-4.403 0.87-8.857 2.714-13.159 5.427-12.595 17.715-20.071 30.567-20.071 4.403 0 8.858 0.87 13.159 2.714 12.595 5.427 20.070 17.715 20.070 30.566 0 4.403-0.87 8.857-2.714 13.159z" opacity="1" visibility="false" fill="#000000"></path>
	<path d="M219.75 179.2l14.233 6.144c2.56 1.126 5.632-0.102 6.707-2.662v0c1.126-2.56-0.102-5.632-2.662-6.707l-14.233-6.144c-2.56-1.126-5.632 0.102-6.707 2.662v0c-1.126 2.56 0.051 5.581 2.662 6.707z" opacity="1" visibility="false" fill="#000000"></path>
	<path d="M369.51 232.755l-12.083-5.222c-2.56-1.126-5.632 0.102-6.707 2.662-1.127 2.56 0.103 5.632 2.663 6.707l12.083 5.222c2.56 1.126 5.632-0.102 6.707-2.662s-0.051-5.632-2.663-6.707z" opacity="1" visibility="false" fill="#000000"></path>
	<path d="M317.44 153.139c2.56 1.126 5.632-0.102 6.707-2.662l6.144-14.233c1.127-2.56-0.103-5.632-2.663-6.707v0c-2.56-1.126-5.632 0.102-6.707 2.662l-6.144 14.233c-1.127 2.56 0.103 5.581 2.663 6.707z" opacity="1" visibility="false" fill="#000000"></path>
	<path d="M269.926 263.117c-2.56-1.127-5.632 0.103-6.707 2.663l-5.223 12.083c-1.127 2.56 0.103 5.632 2.663 6.707v0c2.56 1.127 5.632-0.103 6.707-2.663l5.223-12.083c1.127-2.56-0.051-5.581-2.663-6.707z" opacity="1" visibility="false" fill="#000000"></path>
	<path d="M374.425 176.691v0c-1.024-2.611-4.045-3.891-6.656-2.867l-14.387 5.734c-2.611 1.024-3.891 4.045-2.867 6.656s4.045 3.891 6.656 2.867l14.438-5.734c2.56-1.075 3.891-4.045 2.816-6.656z" opacity="1" visibility="false" fill="#000000"></path>
	<path d="M239.155 230.349c-1.024-2.611-4.045-3.891-6.656-2.867l-12.237 4.864c-2.611 1.024-3.891 4.045-2.867 6.656v0c1.024 2.611 4.045 3.891 6.656 2.867l12.237-4.864c2.611-1.024 3.891-4.045 2.867-6.656z" opacity="1" visibility="false" fill="#000000"></path>
	<path d="M264.089 148.839c1.024 2.611 4.045 3.891 6.656 2.867v0c2.611-1.024 3.891-4.045 2.867-6.656l-5.735-14.439c-1.024-2.611-4.045-3.891-6.656-2.867s-3.891 4.045-2.867 6.656l5.735 14.439z" opacity="1" visibility="false" fill="#000000"></path>
	<path d="M321.587 265.933c-1.024-2.611-4.045-3.891-6.656-2.867s-3.891 4.045-2.867 6.656l4.864 12.237c1.024 2.611 4.045 3.891 6.656 2.867s3.891-4.045 2.867-6.656l-4.864-12.237z" opacity="1" visibility="false" fill="#000000"></path>
</svg>
