<?xml version="1.0" encoding="utf-8"?>
<!-- Generated by IcoMoon.io -->
<!DOCTYPE svg PUBLIC "-//W3C//DTD SVG 1.1//EN" "http://www.w3.org/Graphics/SVG/1.1/DTD/svg11.dtd">
<svg version="1.1" xmlns="http://www.w3.org/2000/svg" xmlns:xlink="http://www.w3.org/1999/xlink" width="512" height="512" viewBox="0 0 512 512">
<g id="icomoon-ignore">
	<line stroke-width="1" x1="" y1="" x2="" y2="" stroke="#449FDB" opacity=""></line>
</g>
	<path d="M433.562 190.925h-355.123c-14.131 0.051-25.549 11.469-25.6 25.6v78.951c0.051 14.131 11.469 25.549 25.6 25.6h355.072c14.131-0.051 25.549-11.469 25.6-25.6v-78.951c0-14.183-11.418-25.549-25.549-25.6zM144.537 255.744c0 8.499-6.861 15.36-15.36 15.36s-15.36-6.861-15.36-15.36c0-8.499 6.861-15.36 15.36-15.36s15.36 6.861 15.36 15.36zM191.181 211.405h124.16v89.191h-124.16v-89.19zM437.146 299.111c-0.973 0.973-2.202 1.485-3.635 1.536h-97.69v-89.242h97.69c1.382 0 2.611 0.563 3.635 1.536 0.973 0.973 1.485 2.202 1.485 3.584v78.951c0.051 1.433-0.512 2.663-1.485 3.635z" opacity="1" visibility="false" fill="#000000"></path>
	<path d="M402.227 256c0 8.483-6.877 15.36-15.36 15.36s-15.36-6.877-15.36-15.36c0-8.483 6.877-15.36 15.36-15.36s15.36 6.877 15.36 15.36z" opacity="1" visibility="false" fill="#000000"></path>
	<path d="M271.36 256c0 8.483-6.877 15.36-15.36 15.36s-15.36-6.877-15.36-15.36c0-8.483 6.877-15.36 15.36-15.36s15.36 6.877 15.36 15.36z" opacity="1" visibility="false" fill="#000000"></path>
</svg>
