<?xml version="1.0" encoding="utf-8"?>
<!-- Generated by IcoMoon.io -->
<!DOCTYPE svg PUBLIC "-//W3C//DTD SVG 1.1//EN" "http://www.w3.org/Graphics/SVG/1.1/DTD/svg11.dtd">
<svg version="1.1" xmlns="http://www.w3.org/2000/svg" xmlns:xlink="http://www.w3.org/1999/xlink" width="512" height="512" viewBox="0 0 512 512">
<g id="icomoon-ignore">
	<line stroke-width="1" x1="" y1="" x2="" y2="" stroke="#449FDB" opacity=""></line>
</g>
	<path d="M396.185 265.318c1.433 1.229 0.973-1.28 0 0v0z" opacity="1" visibility="false" fill="#000000"></path>
	<path d="M396.185 265.318c7.834-10.649 8.653-25.959 2.714-37.683-5.683-11.111-16.333-16.333-28.467-16.333-16.179 0-32.409 0-48.589 0-7.936 0-15.872 0-23.808 0-4.096 0-9.113 0.768-13.107-0.307-12.647-3.379-9.831-20.633-3.226-27.904 8.346-9.216 18.022-17.613 26.777-26.522 6.759-6.912 15.667-13.671 19.865-22.528 5.017-10.547 3.379-22.784-0.358-33.434-4.505-12.903-12.083-23.808-20.173-34.611l-161.946 131.43c0 36.659 0 73.318 0 110.029 0 16.179 0 32.409 0 48.589 0 8.192-0.051 16.435 3.635 24.013 6.144 12.442 19.507 16.947 32.205 19.507 38.861 7.834 78.899 11.878 118.323 16.026 9.472 0.973 18.944 1.945 28.467 2.56 6.502 0.461 13.209 1.024 19.558-0.87 19.507-5.735 25.19-29.747 17.562-46.745 20.377-5.069 27.443-29.491 19.405-47.257 24.781-6.553 29.747-42.087 11.161-57.959zM385.382 301.721c-3.789 4.711-9.882 3.84-15.309 3.84-4.505 0-9.011 0-13.517 0-4.762 0-9.472 0-14.233 0v18.841c2.457 0 4.966 0 7.424 0 4.966 0 11.264-1.127 15.309 2.509 6.912 6.247 6.349 23.091-4.199 25.447-5.017 1.127-10.906 0.307-15.974 0.307-4.096 0-8.192 0-12.288 0v18.841c6.349 0 12.237-0.563 15.616 6.041 4.096 8.089 2.099 22.169-9.113 22.221h-1.587c-25.088-0.512-50.432-4.403-75.315-7.475-25.6-3.175-51.507-6.144-76.8-11.161-5.222-1.024-11.111-2.202-15.565-5.376-4.403-3.226-5.12-8.55-5.12-13.671 0-3.993 0-7.936 0-11.93 0-15.053 0-30.106 0-45.159 0-31.642 0-63.283 0-94.925 0-1.229 0-2.458 0-3.635l139.161-112.999c5.223 9.114 14.233 26.573 5.017 35.891-9.933 9.933-19.661 20.071-29.645 29.952-8.704 8.601-17.817 16.025-21.043 28.416-2.97 11.52-0.154 24.32 7.987 33.126 10.701 11.52 26.163 9.369 40.294 9.369 17.459 0 34.918 0 52.377 0 4.045 0 8.089 0 12.135 0 8.295 0 12.902 6.042 12.902 14.131 0.051 8.601-4.966 14.131-13.517 14.131-5.735 0-11.418 0-17.152 0v18.841c7.885 0 15.719 0 23.552 0 11.93 0.051 15.155 16.435 8.601 24.423z" opacity="1" visibility="false" fill="#000000"></path>
	<path d="M84.070 197.427h40.96v190.413h-40.96v-190.413z" opacity="1" visibility="false" fill="#000000"></path>
</svg>
