<?xml version="1.0" encoding="utf-8"?>
<!-- Generated by IcoMoon.io -->
<!DOCTYPE svg PUBLIC "-//W3C//DTD SVG 1.1//EN" "http://www.w3.org/Graphics/SVG/1.1/DTD/svg11.dtd">
<svg version="1.1" xmlns="http://www.w3.org/2000/svg" xmlns:xlink="http://www.w3.org/1999/xlink" width="256" height="256" viewBox="0 0 256 256">
<g id="icomoon-ignore">
	<line stroke-width="1" x1="" y1="" x2="" y2="" stroke="#449FDB" opacity=""></line>
</g>
	<path d="M191.642 42.215c-2.944-1.895-6.528-3.456-10.752-4.813-6.323-2.048-14.106-3.661-22.938-4.787s-18.688-1.741-29.133-1.741c-18.176 0-34.611 1.869-46.874 5.017-6.144 1.587-11.239 3.456-15.207 5.862-1.971 1.203-3.712 2.56-5.094 4.301-1.383 1.715-2.432 3.993-2.432 6.528v135.245c0 2.535 1.050 4.813 2.432 6.528 1.229 1.536 2.688 2.739 4.377 3.84 2.944 1.894 6.528 3.456 10.752 4.813 6.323 2.048 14.106 3.661 22.938 4.787s18.688 1.741 29.133 1.741c18.176 0 34.611-1.869 46.874-5.018 6.144-1.587 11.238-3.456 15.207-5.863 1.971-1.203 3.712-2.56 5.095-4.301 1.382-1.715 2.432-3.994 2.432-6.528v-135.245c0-2.535-1.049-4.813-2.432-6.528-1.229-1.536-2.714-2.739-4.377-3.84zM70.349 51.737c1.203-1.075 3.763-2.535 7.296-3.815 5.299-1.971 12.775-3.712 21.555-4.915s18.893-1.895 29.645-1.895c17.434 0 33.255 1.843 44.314 4.71 5.53 1.408 9.881 3.123 12.441 4.685 1.28 0.768 2.099 1.511 2.406 1.92l0.102 0.154c-0.128 0.179-0.358 0.461-0.793 0.845-1.203 1.075-3.763 2.535-7.296 3.815-5.299 1.971-12.774 3.712-21.555 4.915s-18.893 1.894-29.645 1.894c-17.433 0-33.255-1.843-44.314-4.71-5.529-1.408-9.882-3.123-12.442-4.685-1.28-0.768-2.099-1.511-2.406-1.92l-0.103-0.154c0.128-0.179 0.359-0.486 0.793-0.845zM187.315 188.697c-1.203 1.075-3.763 2.535-7.296 3.815-5.299 1.971-12.774 3.712-21.555 4.915s-18.893 1.894-29.645 1.894c-17.433 0-33.255-1.843-44.314-4.71-5.529-1.408-9.882-3.123-12.442-4.685-1.28-0.768-2.099-1.511-2.406-1.92l-0.205-0.307v-122.829c2.176 1.075 4.582 2.022 7.296 2.918 6.323 2.048 14.105 3.661 22.938 4.787s18.688 1.741 29.133 1.741c18.176 0 34.611-1.869 46.874-5.017 4.839-1.254 8.986-2.688 12.493-4.403v122.829c-0.051 0.077-0.281 0.461-0.87 0.973z" opacity="1" visibility="false" fill="#000000"></path>
</svg>
