<?xml version="1.0" encoding="utf-8"?>
<!-- Generated by IcoMoon.io -->
<!DOCTYPE svg PUBLIC "-//W3C//DTD SVG 1.1//EN" "http://www.w3.org/Graphics/SVG/1.1/DTD/svg11.dtd">
<svg version="1.1" xmlns="http://www.w3.org/2000/svg" xmlns:xlink="http://www.w3.org/1999/xlink" width="512" height="512" viewBox="0 0 512 512">
<g id="icomoon-ignore">
	<line stroke-width="1" x1="" y1="" x2="" y2="" stroke="#449FDB" opacity=""></line>
</g>
	<path d="M170.649 165.683c0 0-21.913 5.376-20.992 20.377 0.819 13.209 1.587 26.214 1.741 29.235l-34.15-35.277-14.695 14.233 34.15 35.226c-3.072-0.256-16.025-1.434-29.133-2.714-14.951-1.382-21.043 20.377-21.043 20.377l89.549 8.243-5.427-89.702z" opacity="1" visibility="false" fill="#000000"></path>
	<path d="M141.977 315.238c0 0 8.909 20.736 23.552 17.408 12.851-2.969 25.6-5.888 28.518-6.553l-29.184 39.475 16.487 12.185 29.184-39.475c0.205 3.021 1.178 16.026 2.099 29.184 1.126 15.002 23.552 17.408 23.552 17.408l-6.554-89.651-87.654 20.019z" opacity="1" visibility="false" fill="#000000"></path>
	<path d="M294.451 142.592c0 0-19.507-11.315-29.286 0.154-8.55 10.087-17.049 20.019-18.995 22.272l-0.205-49.101-20.48 0.103 0.205 49.050c-1.997-2.304-10.547-12.185-19.149-22.119-9.831-11.367-29.286 0.102-29.286 0.102l58.829 67.993 58.368-68.454z" opacity="1" visibility="false" fill="#000000"></path>
	<path d="M362.291 211.097c-13.209-0.102-26.265-0.256-29.286-0.307l37.632-31.59-13.159-15.667-37.581 31.539c0.512-3.021 2.611-15.872 4.762-28.877 2.406-14.848-18.841-22.425-18.841-22.425l-14.592 88.73 89.907 0.973c0 0.051-3.789-22.221-18.841-22.375z" opacity="1" visibility="false" fill="#000000"></path>
	<path d="M360.55 275.046c11.418-9.779 0.051-29.286 0.051-29.286l-68.352 58.419 68.096 58.726c0 0 11.469-19.456 0.051-29.286-10.035-8.601-19.917-17.152-22.17-19.098l49.101 0.103 0.051-20.48-49.050-0.103c2.304-1.997 12.185-10.496 22.221-18.995z" opacity="1" visibility="false" fill="#000000"></path>
	<path d="M235.315 95.129c21.401 0 38.81-17.357 38.81-38.809 0-21.401-17.357-38.809-38.81-38.809s-38.81 17.357-38.81 38.809c0 21.453 17.357 38.809 38.81 38.809zM218.726 39.731c4.25-4.249 10.087-6.861 16.589-6.861s12.288 2.611 16.589 6.861c4.25 4.249 6.861 10.087 6.861 16.589s-2.611 12.288-6.861 16.589c-4.25 4.249-10.087 6.861-16.589 6.861s-12.288-2.611-16.589-6.861c-4.25-4.249-6.861-10.087-6.861-16.589s2.611-12.288 6.861-16.589z" opacity="1" visibility="false" fill="#000000"></path>
	<path d="M406.733 170.137c21.401 0 38.81-17.357 38.81-38.81 0-21.401-17.357-38.809-38.81-38.809s-38.81 17.357-38.81 38.809c0.051 21.453 17.408 38.81 38.81 38.81zM390.195 114.79c4.25-4.249 10.087-6.861 16.589-6.861s12.288 2.611 16.589 6.861c4.25 4.249 6.861 10.087 6.861 16.589s-2.611 12.288-6.861 16.589c-4.25 4.25-10.087 6.861-16.589 6.861s-12.288-2.611-16.589-6.861c-4.25-4.25-6.861-10.087-6.861-16.589 0-6.553 2.56-12.339 6.861-16.589z" opacity="1" visibility="false" fill="#000000"></path>
	<path d="M445.44 263.117c-21.453 0-38.81 17.357-38.81 38.81s17.357 38.81 38.81 38.81c21.401 0 38.81-17.357 38.81-38.81s-17.357-38.81-38.81-38.81zM462.029 318.464c-4.25 4.25-10.087 6.861-16.589 6.861s-12.288-2.611-16.589-6.861c-4.25-4.25-6.861-10.087-6.861-16.589s2.611-12.288 6.861-16.589c4.25-4.25 10.087-6.861 16.589-6.861s12.288 2.611 16.589 6.861c4.25 4.25 6.861 10.087 6.861 16.589 0 6.553-2.611 12.339-6.861 16.589z" opacity="1" visibility="false" fill="#000000"></path>
	<path d="M138.24 381.031c-21.453 0-38.809 17.357-38.809 38.81s17.357 38.81 38.809 38.81c21.401 0 38.81-17.357 38.81-38.81s-17.357-38.81-38.81-38.81zM154.829 436.429c-4.25 4.25-10.087 6.861-16.589 6.861s-12.288-2.611-16.589-6.861c-4.249-4.25-6.861-10.087-6.861-16.589s2.611-12.288 6.861-16.589c4.249-4.25 10.087-6.861 16.589-6.861s12.288 2.611 16.589 6.861c4.25 4.25 6.861 10.087 6.861 16.589s-2.611 12.288-6.861 16.589z" opacity="1" visibility="false" fill="#000000"></path>
	<path d="M104.397 147.815c0-21.401-17.357-38.809-38.809-38.809s-38.809 17.357-38.809 38.809c0 21.453 17.357 38.81 38.809 38.81 21.401 0 38.758-17.357 38.809-38.81zM82.125 164.403c-4.249 4.25-10.087 6.861-16.589 6.861s-12.288-2.611-16.589-6.861c-4.249-4.25-6.861-10.087-6.861-16.589s2.611-12.288 6.861-16.589c4.249-4.249 10.087-6.861 16.589-6.861s12.288 2.611 16.589 6.861c4.249 4.25 6.861 10.087 6.861 16.589s-2.56 12.339-6.861 16.589z" opacity="1" visibility="false" fill="#000000"></path>
</svg>
