<?xml version="1.0" encoding="utf-8"?>
<!-- Generated by IcoMoon.io -->
<!DOCTYPE svg PUBLIC "-//W3C//DTD SVG 1.1//EN" "http://www.w3.org/Graphics/SVG/1.1/DTD/svg11.dtd">
<svg version="1.1" xmlns="http://www.w3.org/2000/svg" xmlns:xlink="http://www.w3.org/1999/xlink" width="256" height="256" viewBox="0 0 256 256">
<g id="icomoon-ignore">
	<line stroke-width="1" x1="" y1="" x2="" y2="" stroke="#449FDB" opacity=""></line>
</g>
	<path d="M174.054 35.379c-3.174-0.922-6.528-0.64-9.779-0.435-4.762 0.333-9.498 0.794-14.233 1.28-19.712 2.074-39.706 4.096-59.161 8.013-6.349 1.28-13.056 3.533-16.102 9.754-1.843 3.763-1.817 7.91-1.817 12.007 0 8.090 0 16.205 0 24.294 0 18.329 0 36.659 0 55.014l80.973 65.741c4.045-5.401 7.833-10.88 10.087-17.305 1.869-5.325 2.688-11.443 0.179-16.717-2.099-4.429-6.554-7.833-9.933-11.264-4.377-4.454-9.191-8.653-13.389-13.261-3.303-3.661-4.71-12.262 1.613-13.952 1.997-0.537 4.506-0.154 6.553-0.154 3.968 0 7.936 0 11.904 0 8.089 0 16.205 0 24.294 0 6.067 0 11.392-2.637 14.233-8.167 2.995-5.837 2.56-13.517-1.357-18.841 9.293-7.936 6.784-25.677-5.581-28.979 4.019-8.883 0.487-21.094-9.703-23.629 3.815-8.525 0.973-20.557-8.781-23.398zM182.528 80.589c-2.023 1.817-5.145 1.254-7.655 1.254-1.229 0-2.483 0-3.712 0v9.421c2.381 0 4.736 0 7.117 0 2.253 0 4.506 0 6.758 0 2.714 0 5.76-0.461 7.655 1.92 3.277 3.993 1.664 12.186-4.275 12.211-3.917 0-7.859 0-11.776 0v9.421c2.867 0 5.709 0 8.576 0 4.275 0 6.784 2.765 6.758 7.066 0.025 4.045-2.304 7.066-6.451 7.066-2.023 0-4.045 0-6.067 0-8.73 0-17.459 0-26.189 0-7.091 0-14.797-1.075-20.147 4.685-4.071 4.377-5.478 10.803-3.994 16.563 1.613 6.195 6.195 9.907 10.522 14.208 4.992 4.941 9.831 10.035 14.822 14.976 4.633 4.685 0.102 13.415-2.509 17.946l-69.606-56.499c0-0.614 0-1.229 0-1.817 0-15.821 0-31.642 0-47.463 0-7.526 0-15.053 0-22.579 0-1.997 0-3.968 0-5.965 0-2.535 0.384-5.223 2.56-6.835 2.227-1.562 5.145-2.151 7.782-2.688 12.672-2.509 25.6-3.993 38.4-5.581 12.441-1.536 25.088-3.481 37.657-3.737v0h0.793c5.581 0.026 6.579 7.066 4.557 11.111-1.664 3.303-4.633 3.021-7.808 3.021v9.421c2.048 0 4.096 0 6.144 0 2.535 0 5.478-0.409 7.987 0.153 5.274 1.152 5.555 9.575 2.099 12.723z" opacity="1" visibility="false" fill="#000000"></path>
	<path d="M198.093 111.36c0.487 0.64 0.717-0.615 0 0v0z" opacity="1" visibility="false" fill="#000000"></path>
	<path d="M42.035 50.099h20.48v95.206h-20.48v-95.207z" opacity="1" visibility="false" fill="#000000"></path>
</svg>
