<?xml version="1.0" encoding="utf-8"?>
<!-- Generated by IcoMoon.io -->
<!DOCTYPE svg PUBLIC "-//W3C//DTD SVG 1.1//EN" "http://www.w3.org/Graphics/SVG/1.1/DTD/svg11.dtd">
<svg version="1.1" xmlns="http://www.w3.org/2000/svg" xmlns:xlink="http://www.w3.org/1999/xlink" width="512" height="512" viewBox="0 0 512 512">
<g id="icomoon-ignore">
	<line stroke-width="1" x1="" y1="" x2="" y2="" stroke="#449FDB" opacity=""></line>
</g>
	<path d="M384.358 73.37h-9.677c-47.923 0.051-86.989 39.117-87.040 87.040v87.757h-180.48c-8.448 0-15.36 6.912-15.36 15.36v139.315c0 8.448 6.912 15.36 15.36 15.36h218.061c8.448 0 15.36-6.912 15.36-15.36v-139.366c0-8.448-6.912-15.36-15.36-15.36h-17.152v-87.706c0-18.279 7.475-34.867 19.558-47.001 12.135-12.083 28.723-19.558 47.002-19.558h9.677c18.279 0 34.867 7.475 47.002 19.558 12.083 12.135 19.558 28.723 19.558 47.001v90.829h20.48v-90.829c0-47.975-39.065-87.040-86.989-87.040zM320.103 397.671h-207.821v-129.075h207.821v129.075z" opacity="1" visibility="false" fill="#000000"></path>
</svg>
