<?xml version="1.0" encoding="utf-8"?>
<!-- Generated by IcoMoon.io -->
<!DOCTYPE svg PUBLIC "-//W3C//DTD SVG 1.1//EN" "http://www.w3.org/Graphics/SVG/1.1/DTD/svg11.dtd">
<svg version="1.1" xmlns="http://www.w3.org/2000/svg" xmlns:xlink="http://www.w3.org/1999/xlink" width="256" height="256" viewBox="0 0 256 256">
<g id="icomoon-ignore">
	<line stroke-width="1" x1="" y1="" x2="" y2="" stroke="#449FDB" opacity=""></line>
</g>
	<path d="M220.211 129.664v0c-1.587-2.304-3.686-4.275-6.246-6.246-3.815-2.944-8.679-5.785-14.029-8.371-5.376-2.585-11.238-4.864-17.075-6.553-7.245-2.073-16.358-3.865-25.651-5.248l-5.12 9.626c0.691 0.103 1.382 0.179 2.073 0.281 9.472 1.331 18.918 3.2 25.881 5.197 6.938 1.971 14.208 5.069 20.121 8.32 2.944 1.638 5.555 3.303 7.577 4.864 2.023 1.536 3.456 3.021 4.019 3.865v0c1.792 2.611 3.609 6.477 4.889 10.266 1.305 3.789 2.048 7.629 2.023 9.907 0 2.714-0.41 5.683-0.999 7.987-0.307 1.152-0.64 2.15-0.947 2.816-0.154 0.307-0.281 0.563-0.358 0.691-0.333 0.179-1.101 0.487-2.125 0.743-3.226 0.896-8.73 1.613-13.977 1.613h-0.128c-3.994 0-8.064-0.41-11.136-1.024-1.536-0.307-2.816-0.666-3.635-0.973-0.256-0.102-0.461-0.179-0.589-0.256-0.128-0.231-0.281-0.614-0.435-1.075-0.41-1.152-0.819-2.867-1.101-4.736s-0.461-3.942-0.461-5.863c0-6.323 0-13.184 0-15.309v-0.025c0-0.819-0.179-1.561-0.41-2.176-0.435-1.152-1.024-1.894-1.587-2.509-0.999-1.075-2.048-1.792-3.226-2.535-1.767-1.075-3.84-2.023-6.195-2.944-2.355-0.896-4.992-1.741-7.782-2.432-4.557-1.127-10.905-2.073-17.843-2.79l-5.222 9.805c1.255 0.102 2.535 0.205 3.763 0.333 6.758 0.666 13.056 1.638 16.819 2.585v0c3.891 0.973 7.424 2.279 9.754 3.43 0.691 0.333 1.255 0.666 1.664 0.947 0 3.021 0 8.474 0 13.594v0c0 3.559 0.41 7.143 1.101 10.317 0.358 1.587 0.768 3.047 1.28 4.429 0.537 1.357 1.126 2.611 2.253 3.917v0c0.768 0.87 1.536 1.382 2.279 1.817 1.305 0.743 2.637 1.229 4.147 1.69 2.253 0.666 4.813 1.152 7.629 1.511s5.837 0.563 8.909 0.563v0h0.128c4.659 0 9.267-0.435 13.184-1.178 1.971-0.358 3.738-0.819 5.351-1.382 0.793-0.281 1.561-0.589 2.304-0.973s1.485-0.845 2.253-1.561c1.305-1.255 2.023-2.56 2.688-3.968 0.947-2.099 1.613-4.454 2.125-7.014 0.487-2.56 0.768-5.299 0.768-8.064v0c-0.025-4.096-1.024-8.601-2.56-13.184-1.587-4.531-3.635-9.037-6.144-12.723z" opacity="1" visibility="false" fill="#000000"></path>
	<path d="M29.927 170.445c0.64 1.382 1.305 2.688 2.56 3.942 0.768 0.743 1.485 1.229 2.253 1.638 1.306 0.717 2.637 1.203 4.147 1.638 4.48 1.28 10.368 2.023 16.358 2.048 4.557 0 9.088-0.461 12.928-1.229 1.945-0.384 3.686-0.845 5.273-1.434 0.793-0.307 1.561-0.614 2.304-1.024s1.485-0.896 2.253-1.638c1.229-1.28 1.92-2.56 2.56-3.942 0.896-2.073 1.561-4.429 2.022-6.989s0.743-5.274 0.743-7.987c0-4.198 0-8.678 0-11.802 0-0.87 0-1.613 0-2.253l0.307-0.256c0.691-0.537 1.817-1.255 3.149-1.92s2.893-1.331 4.531-1.869c1.177-0.41 3.174-0.87 5.555-1.305 2.637-0.487 5.76-0.896 9.114-1.255l5.734-10.778c-2.637 0.179-5.273 0.409-7.757 0.691-3.225 0.359-6.246 0.793-8.934 1.28s-5.017 1.024-6.963 1.664c-3.558 1.203-6.758 2.713-9.319 4.429-1.28 0.87-2.432 1.767-3.43 2.893-0.512 0.563-0.999 1.203-1.408 2.023s-0.793 1.869-0.793 3.174v0c0 0.691 0 1.92 0 3.482 0 3.123 0 7.603 0 11.802 0 2.688-0.384 5.657-0.973 7.987-0.281 1.152-0.64 2.176-0.947 2.867-0.153 0.333-0.281 0.589-0.384 0.743-0.256 0.128-0.871 0.41-1.715 0.666-1.51 0.461-3.686 0.922-6.093 1.255-2.432 0.307-5.12 0.512-7.731 0.512-3.865 0-7.859-0.41-10.931-1.024-1.536-0.307-2.841-0.666-3.737-0.999-0.41-0.154-0.717-0.281-0.896-0.384-0.102-0.179-0.307-0.563-0.512-1.075-0.461-1.126-0.947-2.816-1.255-4.685-0.333-1.869-0.538-3.942-0.538-5.863v-0.025c-0.026-2.253 0.717-6.067 1.997-9.831 1.255-3.789 3.047-7.603 4.813-10.24 0.538-0.845 1.946-2.304 3.943-3.84 2.995-2.329 7.322-4.915 12.134-7.219 4.838-2.329 10.215-4.403 15.385-5.862 7.014-1.971 16.537-3.865 26.061-5.222 5.76-0.819 11.52-1.459 16.742-1.843l5.632-10.547c-7.091 0.231-15.437 1.075-23.808 2.253-9.882 1.408-19.737 3.328-27.418 5.504-7.782 2.201-15.59 5.504-22.169 9.139-3.303 1.817-6.297 3.737-8.832 5.709s-4.633 3.942-6.221 6.272c-2.458 3.686-4.48 8.141-6.016 12.672-1.511 4.531-2.483 9.037-2.509 13.082v0.051c0 3.635 0.486 7.245 1.305 10.47 0.384 1.561 0.87 3.072 1.485 4.454z" opacity="1" visibility="false" fill="#000000"></path>
	<path d="M103.927 160.678l43.308-87.248 11.465 5.691-43.308 87.248-11.465-5.691z" opacity="1" visibility="false" fill="#000000"></path>
</svg>
