<?xml version="1.0" encoding="utf-8"?>
<!-- Generated by IcoMoon.io -->
<!DOCTYPE svg PUBLIC "-//W3C//DTD SVG 1.1//EN" "http://www.w3.org/Graphics/SVG/1.1/DTD/svg11.dtd">
<svg version="1.1" xmlns="http://www.w3.org/2000/svg" xmlns:xlink="http://www.w3.org/1999/xlink" width="512" height="512" viewBox="0 0 512 512">
<g id="icomoon-ignore">
	<line stroke-width="1" x1="" y1="" x2="" y2="" stroke="#449FDB" opacity=""></line>
</g>
	<path d="M256 158.72c-53.76 0-97.28 43.571-97.28 97.28 0 53.76 43.52 97.28 97.28 97.28 53.709 0 97.28-43.52 97.28-97.28 0-53.709-43.571-97.28-97.28-97.28zM310.323 310.323c-13.926 13.875-33.075 22.477-54.323 22.477s-40.397-8.601-54.323-22.477c-13.875-13.926-22.477-33.075-22.477-54.323s8.601-40.397 22.477-54.323c13.927-13.875 33.075-22.477 54.323-22.477s40.397 8.601 54.323 22.477c13.875 13.927 22.477 33.075 22.477 54.323s-8.601 40.397-22.477 54.323z" opacity="1" visibility="false" fill="#000000"></path>
	<path d="M309.197 256c0 29.38-23.817 53.197-53.197 53.197s-53.197-23.817-53.197-53.197c0-29.38 23.817-53.197 53.197-53.197s53.197 23.817 53.197 53.197z" opacity="1" visibility="false" fill="#000000"></path>
</svg>
