<?xml version="1.0" encoding="utf-8"?>
<!-- Generated by IcoMoon.io -->
<!DOCTYPE svg PUBLIC "-//W3C//DTD SVG 1.1//EN" "http://www.w3.org/Graphics/SVG/1.1/DTD/svg11.dtd">
<svg version="1.1" xmlns="http://www.w3.org/2000/svg" xmlns:xlink="http://www.w3.org/1999/xlink" width="512" height="512" viewBox="0 0 512 512">
<g id="icomoon-ignore">
	<line stroke-width="1" x1="" y1="" x2="" y2="" stroke="#449FDB" opacity=""></line>
</g>
	<path d="M269.824 196.198c9.779 11.417 29.286 0 29.286 0l-58.573-68.198-58.573 68.198c0 0 19.456 11.417 29.286 0 8.601-10.035 17.152-19.968 19.047-22.221v109.875h20.48v-109.824c2.048 2.304 10.547 12.185 19.046 22.169z" opacity="1" visibility="false" fill="#000000"></path>
	<path d="M290.816 304.231c-21.401 0-38.81 17.357-38.81 38.81 0 21.401 17.357 38.81 38.81 38.81s38.81-17.357 38.81-38.81c0-21.401-17.357-38.81-38.81-38.81zM307.405 359.629c-4.25 4.25-10.087 6.861-16.589 6.861s-12.288-2.611-16.589-6.861c-4.25-4.25-6.861-10.087-6.861-16.589s2.611-12.288 6.861-16.589c4.25-4.25 10.087-6.861 16.589-6.861s12.288 2.611 16.589 6.861c4.25 4.25 6.861 10.087 6.861 16.589s-2.611 12.288-6.861 16.589z" opacity="1" visibility="false" fill="#000000"></path>
	<path d="M190.822 304.231c-21.453 0-38.81 17.357-38.81 38.81 0 21.401 17.357 38.81 38.81 38.81s38.81-17.357 38.81-38.81c0-21.401-17.357-38.81-38.81-38.81zM207.411 359.629c-4.25 4.25-10.087 6.861-16.589 6.861s-12.288-2.611-16.589-6.861c-4.25-4.25-6.861-10.087-6.861-16.589s2.611-12.288 6.861-16.589c4.25-4.25 10.087-6.861 16.589-6.861s12.288 2.611 16.589 6.861c4.25 4.25 6.861 10.087 6.861 16.589s-2.611 12.288-6.861 16.589z" opacity="1" visibility="false" fill="#000000"></path>
</svg>
