<?xml version="1.0" encoding="utf-8"?>
<!-- Generated by IcoMoon.io -->
<!DOCTYPE svg PUBLIC "-//W3C//DTD SVG 1.1//EN" "http://www.w3.org/Graphics/SVG/1.1/DTD/svg11.dtd">
<svg version="1.1" xmlns="http://www.w3.org/2000/svg" xmlns:xlink="http://www.w3.org/1999/xlink" width="512" height="512" viewBox="0 0 512 512">
<g id="icomoon-ignore">
	<line stroke-width="1" x1="" y1="" x2="" y2="" stroke="#449FDB" opacity=""></line>
</g>
	<path d="M327.271 222.31c11.93 0 22.835-4.966 30.618-12.8 7.834-7.833 12.8-18.688 12.8-30.618s-4.966-22.784-12.8-30.618c-7.834-7.833-18.688-12.8-30.618-12.8s-22.784 4.966-30.618 12.8c-7.834 7.833-12.8 18.688-12.8 30.618s4.966 22.784 12.8 30.618c7.834 7.782 18.688 12.8 30.618 12.8zM311.142 162.714c4.25-4.25 9.984-6.81 16.128-6.81 6.195 0 11.93 2.56 16.179 6.81s6.81 9.984 6.81 16.128c0 6.144-2.56 11.879-6.81 16.128s-9.984 6.81-16.179 6.81c-6.144 0-11.878-2.56-16.128-6.81s-6.81-9.984-6.81-16.128c-0.051-6.144 2.56-11.879 6.81-16.128z" opacity="1" visibility="false" fill="#000000"></path>
	<path d="M397.209 104.499h-274.637c-14.131 0.051-25.549 11.469-25.6 25.6v251.801c0.051 14.131 11.469 25.549 25.6 25.6h274.637c14.131-0.051 25.549-11.469 25.6-25.6v-251.802c-0.051-14.131-11.469-25.549-25.6-25.6zM118.938 126.515c0.973-0.973 2.201-1.485 3.635-1.536h274.637c1.382 0 2.611 0.563 3.635 1.536 0.973 0.973 1.485 2.201 1.485 3.584v158.413l-65.075-49.255c0 0 0 0 0 0l-0.103-0.051c-6.81-5.171-15.002-7.424-23.091-7.475-8.089 0-16.384 2.253-23.194 7.526l-18.176 13.977-38.707-36.403c-7.526-7.066-17.255-10.496-26.88-10.496s-19.353 3.43-26.88 10.496v0l-62.771 58.982v-145.715c0-1.382 0.563-2.611 1.485-3.584zM221.85 292.352c-5.939 4.557-13.465 8.448-21.401 11.161s-16.281 4.199-23.757 4.199h-59.187v-3.84c1.894-1.741 3.481-3.226 4.096-3.789l0.103-0.103 72.55-68.198c3.43-3.226 8.038-4.915 12.851-4.915s9.421 1.69 12.851 4.915l36.301 34.15-34.406 26.419zM400.793 385.485c-0.973 0.973-2.202 1.485-3.635 1.536h-274.586c-1.382 0-2.611-0.563-3.635-1.536-0.973-0.973-1.485-2.202-1.485-3.584v-53.709h59.29c10.087-0.051 20.429-1.945 30.31-5.274 9.881-3.379 19.251-8.141 27.238-14.285v0l69.12-53.094c2.406-1.894 6.451-3.277 10.649-3.226 4.199 0 8.243 1.331 10.649 3.226l0.051 0.051 77.568 58.726v67.686c0 1.28-0.563 2.509-1.536 3.481z" opacity="1" visibility="false" fill="#000000"></path>
	<path d="M290.867 239.257v0 0z" opacity="1" visibility="false" fill="#000000"></path>
</svg>
