<?xml version="1.0" encoding="utf-8"?>
<!-- Generated by IcoMoon.io -->
<!DOCTYPE svg PUBLIC "-//W3C//DTD SVG 1.1//EN" "http://www.w3.org/Graphics/SVG/1.1/DTD/svg11.dtd">
<svg version="1.1" xmlns="http://www.w3.org/2000/svg" xmlns:xlink="http://www.w3.org/1999/xlink" width="512" height="512" viewBox="0 0 512 512">
<g id="icomoon-ignore">
	<line stroke-width="1" x1="" y1="" x2="" y2="" stroke="#449FDB" opacity=""></line>
</g>
	<path d="M168.397 271.155c-9.523-9.933-22.323-14.95-35.072-14.95-12.083 0-24.269 4.505-33.69 13.568-9.933 9.523-14.951 22.323-14.951 35.072 0 12.083 4.505 24.269 13.568 33.69 9.523 9.933 22.323 14.95 35.072 14.95 12.083 0 24.269-4.505 33.69-13.568 9.933-9.523 14.951-22.323 14.951-35.072 0-12.083-4.557-24.269-13.568-33.69zM156.365 328.858c-6.451 6.195-14.745 9.267-23.040 9.267-8.755 0-17.459-3.43-24.013-10.24-6.195-6.451-9.267-14.745-9.267-23.040 0-8.755 3.43-17.459 10.24-24.013 6.451-6.195 14.746-9.267 23.040-9.267 8.755 0 17.459 3.43 24.013 10.24 6.195 6.451 9.267 14.745 9.267 23.040-0.051 8.755-3.43 17.459-10.24 24.013z" opacity="1" visibility="false" fill="#000000"></path>
	<path d="M90.112 348.058c-1.945-2.048-5.222-2.099-7.219-0.154l-9.523 9.113c-2.048 1.945-2.099 5.223-0.153 7.219v0c1.945 2.048 5.222 2.099 7.219 0.154l9.472-9.113c2.048-1.945 2.15-5.223 0.205-7.219v0z" opacity="1" visibility="false" fill="#000000"></path>
	<path d="M181.248 347.341c-1.946-2.048-5.222-2.099-7.219-0.154s-2.099 5.223-0.154 7.219l10.752 11.161c1.946 2.048 5.222 2.099 7.219 0.154s2.099-5.223 0.154-7.219l-10.752-11.161z" opacity="1" visibility="false" fill="#000000"></path>
	<path d="M83.763 260.659c1.945 2.048 5.222 2.099 7.219 0.154s2.099-5.222 0.153-7.219l-9.114-9.472c-1.945-2.048-5.222-2.099-7.219-0.154v0c-2.048 1.946-2.099 5.222-0.153 7.219l9.114 9.472z" opacity="1" visibility="false" fill="#000000"></path>
	<path d="M130.765 364.902c-2.816-0.051-5.171 2.202-5.222 5.017l-0.307 15.514c-0.051 2.816 2.201 5.171 5.017 5.223s5.171-2.202 5.222-5.017l0.307-15.514c0.051-2.816-2.202-5.171-5.018-5.223z" opacity="1" visibility="false" fill="#000000"></path>
	<path d="M133.12 245.145c2.816 0.051 5.171-2.202 5.222-5.018l0.256-13.159c0.051-2.816-2.202-5.171-5.018-5.222v0c-2.816-0.051-5.171 2.202-5.222 5.018l-0.256 13.159c-0.051 2.816 2.202 5.171 5.018 5.222z" opacity="1" visibility="false" fill="#000000"></path>
	<path d="M214.119 299.981l-15.513-0.307c-2.816-0.051-5.171 2.202-5.222 5.017s2.202 5.171 5.018 5.223l15.513 0.307c2.816 0.051 5.171-2.202 5.222-5.017v0c0.051-2.816-2.202-5.171-5.018-5.223z" opacity="1" visibility="false" fill="#000000"></path>
	<path d="M73.626 302.336c0.051-2.816-2.201-5.171-5.017-5.223l-13.159-0.256c-2.816-0.051-5.171 2.202-5.222 5.017s2.202 5.171 5.017 5.223l13.159 0.256c2.816 0.051 5.171-2.202 5.222-5.017z" opacity="1" visibility="false" fill="#000000"></path>
	<path d="M268.647 172.595c-9.472-9.369-21.913-14.131-34.253-14.080-12.493 0-25.037 4.813-34.509 14.387-9.369 9.472-14.131 21.913-14.131 34.253 0 12.493 4.813 25.037 14.387 34.509 9.472 9.369 21.913 14.131 34.253 14.080 12.493 0 25.037-4.813 34.56-14.387 9.37-9.472 14.131-21.913 14.131-34.253 0-12.493-4.864-25.037-14.438-34.509zM258.048 230.554c-6.502 6.554-15.053 9.831-23.654 9.831-8.499 0-16.947-3.174-23.45-9.625-6.605-6.553-9.831-15.053-9.831-23.603 0-8.499 3.174-16.947 9.677-23.45 6.502-6.553 15.053-9.831 23.603-9.831 8.499 0 16.947 3.174 23.45 9.625v0c6.553 6.502 9.83 15.053 9.83 23.603 0 8.499-3.175 16.947-9.625 23.45z" opacity="1" visibility="false" fill="#000000"></path>
	<path d="M268.647 172.595v0 0z" opacity="1" visibility="false" fill="#000000"></path>
	<path d="M186.317 164.915c1.997 1.997 5.274 1.946 7.27-0.051v0c1.997-1.997 1.997-5.274 0-7.219l-11.008-10.905c-1.997-1.997-5.274-1.946-7.219 0.051s-1.946 5.274 0.051 7.219l10.905 10.905z" opacity="1" visibility="false" fill="#000000"></path>
	<path d="M285.849 249.242c-1.997-1.997-5.274-1.946-7.219 0.051-1.997 1.997-1.945 5.274 0.051 7.219l9.37 9.267c1.997 1.997 5.274 1.945 7.219-0.051 1.997-1.997 1.945-5.274-0.051-7.219l-9.37-9.267z" opacity="1" visibility="false" fill="#000000"></path>
	<path d="M282.983 165.376l10.906-11.008c1.997-1.997 1.945-5.274-0.051-7.219v0c-1.997-1.997-5.274-1.946-7.219 0.051l-10.906 11.008c-1.997 1.997-1.945 5.274 0.051 7.219s5.274 1.946 7.219-0.051z" opacity="1" visibility="false" fill="#000000"></path>
	<path d="M174.899 267.111v0c1.997 1.997 5.274 1.945 7.27-0.051l9.267-9.37c1.997-1.997 1.946-5.274 0-7.219s-5.274-1.946-7.219 0.051l-9.267 9.37c-2.048 1.945-2.048 5.223-0.051 7.219z" opacity="1" visibility="false" fill="#000000"></path>
	<path d="M156.416 213.913l13.159-0.051c2.816 0 5.12-2.304 5.12-5.12s-2.304-5.12-5.12-5.12l-13.209 0.051c-2.816 0-5.12 2.304-5.12 5.12v0c0.051 2.816 2.355 5.12 5.171 5.12z" opacity="1" visibility="false" fill="#000000"></path>
	<path d="M232.806 146.995v0c2.816 0 5.12-2.304 5.12-5.12l-0.051-15.513c0-2.816-2.304-5.12-5.12-5.12s-5.12 2.304-5.12 5.12l0.051 15.513c0 2.867 2.304 5.171 5.12 5.12z" opacity="1" visibility="false" fill="#000000"></path>
	<path d="M233.319 266.803c-2.816 0-5.12 2.304-5.12 5.12l0.051 13.159c0 2.816 2.304 5.12 5.12 5.12s5.12-2.304 5.12-5.12l-0.051-13.159c0-2.816-2.304-5.12-5.12-5.12z" opacity="1" visibility="false" fill="#000000"></path>
	<path d="M424.601 209.255c0-11.929-4.403-23.962-13.209-33.331-9.575-10.137-22.528-15.309-35.43-15.309-11.93 0-23.962 4.403-33.331 13.209v0c-10.137 9.575-15.309 22.528-15.309 35.43 0 11.929 4.403 23.962 13.209 33.331v0c9.523 10.137 22.528 15.309 35.43 15.309 11.93 0 23.962-4.403 33.331-13.209l0.103-0.051-0.051 0.051c10.087-9.523 15.257-22.477 15.257-35.43zM398.745 233.523v0c-6.451 6.042-14.592 9.011-22.784 9.011-8.909 0-17.664-3.482-24.217-10.445v0c-6.041-6.451-9.011-14.592-9.063-22.784 0-8.857 3.481-17.664 10.496-24.269v0c6.451-6.042 14.592-9.011 22.784-9.063 8.858 0 17.664 3.482 24.217 10.496 6.041 6.451 9.011 14.592 9.063 22.784 0 8.909-3.481 17.715-10.496 24.269z" opacity="1" visibility="false" fill="#000000"></path>
	<path d="M329.318 165.478c1.945 2.048 5.171 2.15 7.219 0.205v0c2.048-1.946 2.151-5.171 0.205-7.219l-10.649-11.315c-1.945-2.048-5.171-2.15-7.219-0.205s-2.151 5.171-0.205 7.219l10.649 11.315z" opacity="1" visibility="false" fill="#000000"></path>
	<path d="M425.933 253.133c-1.945-2.048-5.171-2.15-7.219-0.205s-2.151 5.171-0.205 7.219l9.011 9.575c1.945 2.048 5.171 2.151 7.219 0.205s2.151-5.171 0.205-7.219l-9.011-9.575z" opacity="1" visibility="false" fill="#000000"></path>
	<path d="M425.984 169.267l11.315-10.649c2.048-1.946 2.151-5.171 0.205-7.219v0c-1.945-2.048-5.171-2.15-7.219-0.205l-11.264 10.649c-2.048 1.946-2.151 5.171-0.205 7.219 1.843 2.048 5.12 2.099 7.168 0.205z" opacity="1" visibility="false" fill="#000000"></path>
	<path d="M324.25 250.931l-9.575 9.011c-2.048 1.945-2.151 5.171-0.205 7.219v0c1.945 2.048 5.171 2.151 7.219 0.205l9.575-9.011c2.048-1.945 2.151-5.171 0.205-7.219-1.894-2.048-5.171-2.15-7.219-0.205z" opacity="1" visibility="false" fill="#000000"></path>
	<path d="M456.755 207.975l-15.514-0.461c-2.816-0.102-5.171 2.15-5.274 4.966s2.151 5.171 4.966 5.274l15.514 0.461c2.816 0.102 5.171-2.15 5.274-4.966v0c0.103-2.816-2.151-5.171-4.966-5.274z" opacity="1" visibility="false" fill="#000000"></path>
	<path d="M316.262 208.845c0.103-2.816-2.151-5.171-4.966-5.274l-13.159-0.41c-2.816-0.102-5.171 2.15-5.274 4.966v0c-0.103 2.816 2.151 5.171 4.966 5.274l13.159 0.41c2.816 0.051 5.171-2.15 5.274-4.966z" opacity="1" visibility="false" fill="#000000"></path>
	<path d="M376.423 149.197c2.816 0.102 5.171-2.15 5.274-4.966l0.461-15.513c0.103-2.816-2.151-5.171-4.966-5.273s-5.171 2.15-5.274 4.967l-0.461 15.513c-0.051 2.816 2.151 5.171 4.966 5.274z" opacity="1" visibility="false" fill="#000000"></path>
	<path d="M372.787 268.902v0c-2.816-0.103-5.223 2.151-5.274 4.966l-0.409 13.159c-0.103 2.816 2.151 5.171 4.966 5.274s5.171-2.151 5.274-4.966l0.409-13.159c0.103-2.816-2.151-5.171-4.966-5.274z" opacity="1" visibility="false" fill="#000000"></path>
</svg>
