<?xml version="1.0" encoding="utf-8"?>
<!-- Generated by IcoMoon.io -->
<!DOCTYPE svg PUBLIC "-//W3C//DTD SVG 1.1//EN" "http://www.w3.org/Graphics/SVG/1.1/DTD/svg11.dtd">
<svg version="1.1" xmlns="http://www.w3.org/2000/svg" xmlns:xlink="http://www.w3.org/1999/xlink" width="256" height="256" viewBox="0 0 256 256">
<g id="icomoon-ignore">
	<line stroke-width="1" x1="" y1="" x2="" y2="" stroke="#449FDB" opacity=""></line>
</g>
	<path d="M231.143 105.907c-3.123-2.099-6.681-2.867-10.035-2.867-3.891 0-7.655 0.973-11.187 2.253-5.299 1.945-10.112 4.736-13.696 7.040-0.537 0.333-1.024 0.665-1.485 0.973-6.784-11.546-19.328-19.328-33.69-19.328-12.928 0-24.371 6.297-31.488 15.975-2.534-1.869-5.069-3.379-7.603-4.48-4.121-1.766-8.166-2.509-11.904-2.509-7.526 0-13.671 2.867-17.92 5.581-0.691 0.435-1.331 0.896-1.92 1.331-7.117-9.626-18.535-15.923-31.437-15.923-21.606 0-39.117 17.51-39.117 39.117s17.511 39.117 39.117 39.117c21.606 0 39.117-17.511 39.117-39.117 0-4.992-0.973-9.754-2.688-14.131 0.768-0.615 1.689-1.28 2.765-1.971 3.149-1.971 7.373-3.763 12.058-3.763 2.432 0 5.017 0.461 7.885 1.664 2.073 0.896 4.301 2.227 6.656 4.121-1.689 4.377-2.662 9.114-2.662 14.080 0 21.607 17.511 39.117 39.117 39.117s39.117-17.511 39.117-39.117c0-3.507-0.512-6.886-1.382-10.112 1.638-1.177 4.096-2.841 6.989-4.454 2.483-1.408 5.248-2.765 7.936-3.737s5.325-1.536 7.399-1.536c1.255 0 2.279 0.179 3.149 0.512 1.28 0.512 2.253 1.229 3.303 2.969 1.024 1.741 1.971 4.608 2.304 8.986l10.214-0.793c-0.281-3.609-0.922-6.758-1.894-9.523-1.459-4.096-3.865-7.398-7.014-9.472zM79.207 153.523c-5.248 5.222-12.416 8.448-20.403 8.448s-15.181-3.226-20.429-8.448c-5.223-5.248-8.448-12.416-8.448-20.429 0-7.987 3.225-15.181 8.448-20.429 5.248-5.222 12.416-8.448 20.429-8.448 7.987 0 15.181 3.225 20.403 8.448 5.222 5.248 8.448 12.416 8.448 20.429 0 7.987-3.225 15.181-8.448 20.429zM181.453 153.523c-5.248 5.222-12.416 8.448-20.403 8.448s-15.181-3.226-20.429-8.448c-5.222-5.248-8.448-12.416-8.448-20.429 0-7.987 3.226-15.181 8.448-20.429 5.248-5.222 12.416-8.448 20.429-8.448 7.987 0 15.181 3.225 20.403 8.448 5.222 5.248 8.448 12.416 8.448 20.429 0 7.987-3.2 15.181-8.448 20.429z" opacity="1" visibility="false" fill="#000000"></path>
</svg>
