<?xml version="1.0" encoding="utf-8"?>
<!-- Generated by IcoMoon.io -->
<!DOCTYPE svg PUBLIC "-//W3C//DTD SVG 1.1//EN" "http://www.w3.org/Graphics/SVG/1.1/DTD/svg11.dtd">
<svg version="1.1" xmlns="http://www.w3.org/2000/svg" xmlns:xlink="http://www.w3.org/1999/xlink" width="256" height="256" viewBox="0 0 256 256">
<g id="icomoon-ignore">
	<line stroke-width="1" x1="" y1="" x2="" y2="" stroke="#449FDB" opacity=""></line>
</g>
	<path d="M64.793 210.048c9.344 0 18.841-3.763 26.112-11.085l5.99-6.042 0.103 0.102 4.505-4.736 20.121-20.327-0.409-0.41 63.974-67.277c5.043-5.299 7.655-12.083 7.655-18.739 0-5.811-2.048-11.648-6.4-16-4.173-4.173-9.754-6.195-15.283-6.195-6.81 0-13.696 2.919-18.893 8.397l-80.435 84.787 7.424 7.040 80.409-84.761c3.328-3.507 7.603-5.222 11.469-5.222 3.149 0.025 5.939 1.075 8.064 3.2 2.202 2.201 3.379 5.273 3.379 8.73 0 3.942-1.587 8.294-4.839 11.674l-83.533 87.885-10.573 10.675c-5.325 5.376-12.237 8.064-18.841 8.064-5.862 0-11.392-2.073-15.539-6.221-4.224-4.224-6.4-9.958-6.4-16.051 0-6.605 2.586-13.517 7.731-18.893l45.67-47.565 49.459-51.2c8.141-8.448 18.688-12.672 28.57-12.672 8.218 0.026 15.846 2.867 21.607 8.602 5.939 5.939 8.934 14.029 8.96 22.758 0 9.907-3.968 20.48-11.853 28.749l-81.792 85.657 7.398 7.066 81.766-85.657c9.702-10.189 14.669-23.194 14.695-35.815 0-11.059-3.891-21.965-11.955-30.003-7.808-7.808-18.253-11.623-28.851-11.597-12.774 0-25.907 5.401-35.942 15.795l-49.459 51.2 3.712 3.558-3.686-3.558-45.696 47.59c-7.014 7.321-10.599 16.743-10.599 25.984 0 8.525 3.072 16.999 9.395 23.322 6.221 6.195 14.489 9.216 22.809 9.19z" opacity="1" visibility="false" fill="#000000"></path>
</svg>
