<?xml version="1.0" encoding="utf-8"?>
<!-- Generated by IcoMoon.io -->
<!DOCTYPE svg PUBLIC "-//W3C//DTD SVG 1.1//EN" "http://www.w3.org/Graphics/SVG/1.1/DTD/svg11.dtd">
<svg version="1.1" xmlns="http://www.w3.org/2000/svg" xmlns:xlink="http://www.w3.org/1999/xlink" width="256" height="256" viewBox="0 0 256 256">
<g id="icomoon-ignore">
	<line stroke-width="1" x1="" y1="" x2="" y2="" stroke="#449FDB" opacity=""></line>
</g>
	<path d="M109.952 187.187h-7.68v7.68c0 5.76 3.174 11.161 8.73 14.848 4.633 3.072 10.675 4.762 16.973 4.787 14.438 0 25.753-8.576 25.753-19.559v-7.68h-7.68l-36.096-0.077zM128 206.797h-0.025c-9.959 0-18.048-5.351-18.023-11.929l36.096 0.051c0 6.579-8.089 11.879-18.048 11.879z" opacity="1" visibility="false" fill="#000000"></path>
	<path d="M191.053 152.013c-1.382-1.408-2.688-2.381-3.174-2.816v0c-0.358-0.307-0.563-0.461-0.896-0.768-0.537-0.512-1.331-1.28-2.304-2.714-1.434-2.125-3.226-5.683-4.685-11.597s-2.56-14.183-2.56-25.575c0-1.229 0-2.509 0.051-3.814v0c0-0.461 0-0.896 0-1.357 0-15.488-5.376-29.517-14.157-39.808-8.755-10.265-21.095-16.845-34.688-16.845-6.886 0-13.44 1.69-19.328 4.71-8.832 4.531-16.179 11.981-21.325 21.197s-8.115 20.198-8.192 31.975c-0.077 16-1.331 25.395-3.353 31.463-1.024 3.047-2.176 5.274-3.635 7.321-1.433 2.073-3.174 3.968-5.35 6.169-1.024 1.101-2.79 2.406-4.505 4.787-0.845 1.178-1.587 2.637-2.099 4.301s-0.768 3.507-0.768 5.53c0 4.659 1.946 8.909 5.043 11.904 3.097 3.021 7.373 4.864 12.032 4.864h102.938c2.304 0 4.531-0.461 6.528-1.331 2.995-1.331 5.376-3.609 6.938-6.298 1.561-2.714 2.329-5.811 2.355-9.037v0-0.281c0-2.176-0.384-4.198-1.024-5.939-0.947-2.637-2.458-4.633-3.84-6.042zM185.677 164.121v0c-0.025 2.279-0.743 3.968-1.638 4.966-0.461 0.512-0.947 0.896-1.587 1.152-0.614 0.281-1.382 0.461-2.355 0.461h-102.938c-1.945 0-3.635-0.768-4.864-1.946-1.229-1.203-1.945-2.791-1.945-4.583 0-1.178 0.153-1.997 0.307-2.56 0.281-0.845 0.563-1.331 1.203-2.048 0.615-0.717 1.638-1.587 2.893-2.841 2.304-2.329 4.505-4.685 6.451-7.501 2.969-4.224 5.222-9.395 6.63-16.358 1.433-6.989 2.125-15.872 2.201-28.237 0.077-13.44 4.608-25.523 11.699-34.099 3.533-4.275 7.706-7.68 12.237-10.010 4.557-2.33 9.472-3.584 14.669-3.584 10.214 0 19.738 4.915 26.88 13.261s11.725 20.070 11.725 33.152c0 0.384 0 0.768 0 1.152v0c-0.025 1.382-0.051 2.713-0.051 4.019 0 18.355 2.688 29.824 5.888 37.171 1.613 3.661 3.353 6.298 4.915 8.141 0.768 0.922 1.511 1.638 2.125 2.176 0.589 0.537 1.101 0.922 1.203 1.024v0c0.614 0.512 1.152 0.922 1.664 1.382 0.768 0.666 1.434 1.382 1.894 2.227s0.793 1.792 0.819 3.328l-0.025 0.154z" opacity="1" visibility="false" fill="#000000"></path>
</svg>
