<?xml version="1.0" encoding="utf-8"?>
<!-- Generated by IcoMoon.io -->
<!DOCTYPE svg PUBLIC "-//W3C//DTD SVG 1.1//EN" "http://www.w3.org/Graphics/SVG/1.1/DTD/svg11.dtd">
<svg version="1.1" xmlns="http://www.w3.org/2000/svg" xmlns:xlink="http://www.w3.org/1999/xlink" width="512" height="512" viewBox="0 0 512 512">
<g id="icomoon-ignore">
	<line stroke-width="1" x1="" y1="" x2="" y2="" stroke="#449FDB" opacity=""></line>
</g>
	<path d="M425.063 116.736c-0.051-14.131-11.469-25.549-25.6-25.6h-142.285v20.48h142.285c1.382 0 2.611 0.563 3.584 1.536s1.485 2.201 1.536 3.584v276.48c0 1.382-0.563 2.611-1.536 3.635-0.973 0.973-2.202 1.485-3.584 1.485h-142.848v20.48h142.848c14.131-0.051 25.549-11.469 25.6-25.6v-276.48z" opacity="1" visibility="false" fill="#000000"></path>
	<path d="M207.872 149.863l-105.216 105.319 104.858 104.857c0 0 11.827-23.654 0-35.533-8.755-8.755-42.291-42.291-59.341-59.289h210.432v-20.48h-209.971c17.203-17.255 50.585-50.688 59.238-59.341 11.879-11.879 0-35.533 0-35.533z" opacity="1" visibility="false" fill="#000000"></path>
</svg>
