<?xml version="1.0" encoding="utf-8"?>
<!-- Generated by IcoMoon.io -->
<!DOCTYPE svg PUBLIC "-//W3C//DTD SVG 1.1//EN" "http://www.w3.org/Graphics/SVG/1.1/DTD/svg11.dtd">
<svg version="1.1" xmlns="http://www.w3.org/2000/svg" xmlns:xlink="http://www.w3.org/1999/xlink" width="256" height="256" viewBox="0 0 256 256">
<g id="icomoon-ignore">
	<line stroke-width="1" x1="" y1="" x2="" y2="" stroke="#449FDB" opacity=""></line>
</g>
	<path d="M198.375 112.947c5.043 4.301 9.984 8.576 11.111 9.523h-34.509v10.24h34.483c-1.152 0.999-6.093 5.248-11.111 9.523-5.709 4.889 0 14.643 0 14.643l34.099-29.287-34.099-29.287c0.025 0-5.683 9.728 0.025 14.643z" opacity="1" visibility="false" fill="#000000"></path>
	<path d="M39.091 107.725c-10.701 0-19.405 8.678-19.405 19.405s8.678 19.405 19.405 19.405c10.727 0 19.405-8.679 19.405-19.405-0.026-10.727-8.704-19.405-19.405-19.405zM47.36 135.399c-2.125 2.125-5.043 3.43-8.294 3.43s-6.144-1.305-8.294-3.43c-2.125-2.125-3.43-5.043-3.43-8.294s1.305-6.144 3.43-8.294c2.125-2.125 5.043-3.43 8.294-3.43s6.144 1.305 8.294 3.43c2.125 2.125 3.431 5.043 3.431 8.294 0 3.277-1.28 6.169-3.431 8.294z" opacity="1" visibility="false" fill="#000000"></path>
	<path d="M80.103 81.331c-10.727 0-19.405 8.678-19.405 19.405s8.678 19.405 19.405 19.405c10.701 0 19.405-8.678 19.405-19.405-0.025-10.727-8.704-19.405-19.405-19.405zM88.371 109.005c-2.125 2.125-5.043 3.43-8.294 3.43s-6.144-1.305-8.294-3.43c-2.125-2.125-3.43-5.043-3.43-8.294s1.305-6.144 3.43-8.294c2.125-2.125 5.043-3.43 8.294-3.43s6.144 1.305 8.294 3.43c2.125 2.125 3.43 5.043 3.43 8.294s-1.305 6.169-3.43 8.294z" opacity="1" visibility="false" fill="#000000"></path>
	<path d="M142.566 114.176c0-10.701-8.679-19.405-19.405-19.405-10.701 0-19.405 8.678-19.405 19.405s8.678 19.405 19.405 19.405c10.726 0 19.405-8.678 19.405-19.405zM114.867 122.471c-2.125-2.125-3.43-5.043-3.43-8.294s1.305-6.144 3.43-8.294c2.125-2.125 5.043-3.43 8.294-3.43s6.144 1.305 8.295 3.43c2.125 2.125 3.43 5.043 3.43 8.294s-1.305 6.144-3.43 8.294c-2.125 2.125-5.043 3.43-8.294 3.43s-6.144-1.305-8.294-3.43z" opacity="1" visibility="false" fill="#000000"></path>
	<path d="M141.491 135.885c-10.701 0-19.405 8.678-19.405 19.405s8.678 19.405 19.405 19.405c10.726 0 19.405-8.678 19.405-19.405-0.025-10.726-8.704-19.405-19.405-19.405zM149.76 163.559c-2.125 2.125-5.043 3.43-8.294 3.43s-6.144-1.305-8.294-3.43c-2.125-2.125-3.43-5.043-3.43-8.294s1.305-6.144 3.43-8.294c2.125-2.125 5.043-3.43 8.294-3.43s6.144 1.305 8.294 3.43c2.125 2.125 3.43 5.043 3.43 8.294 0 3.277-1.28 6.169-3.43 8.294z" opacity="1" visibility="false" fill="#000000"></path>
</svg>
