<?xml version="1.0" encoding="utf-8"?>
<!-- Generated by IcoMoon.io -->
<!DOCTYPE svg PUBLIC "-//W3C//DTD SVG 1.1//EN" "http://www.w3.org/Graphics/SVG/1.1/DTD/svg11.dtd">
<svg version="1.1" xmlns="http://www.w3.org/2000/svg" xmlns:xlink="http://www.w3.org/1999/xlink" width="512" height="512" viewBox="0 0 512 512">
<g id="icomoon-ignore">
	<line stroke-width="1" x1="" y1="" x2="" y2="" stroke="#449FDB" opacity=""></line>
</g>
	<path d="M143.79 115.742l65.854 65.854-14.482 14.482-65.854-65.854 14.482-14.481z" opacity="1" visibility="false" fill="#000000"></path>
	<path d="M95.943 168.706l80.653 46.566-10.24 17.736-80.653-46.566 10.24-17.736z" opacity="1" visibility="false" fill="#000000"></path>
	<path d="M200.034 72.106l46.576 80.653-17.736 10.242-46.576-80.653 17.736-10.242z" opacity="1" visibility="false" fill="#000000"></path>
	<path d="M243.609 298.803c5.939 16.333 2.355 35.328-10.701 48.384l-79.616 79.616c-8.653 8.653-20.224 13.414-32.563 13.414s-23.91-4.762-32.615-13.414l-3.635-3.635c-17.971-17.971-17.971-47.207 0-65.178l79.616-79.616c8.653-8.653 20.224-13.414 32.563-13.414 5.478 0 10.803 0.921 15.769 2.714l15.513-15.463c-9.728-5.171-20.531-7.731-31.283-7.731-17.049 0-34.099 6.451-47.053 19.405l-79.565 79.667c-25.907 25.907-25.907 68.25 0 94.106l3.635 3.635c12.954 12.954 30.003 19.405 47.053 19.405s34.099-6.451 47.053-19.405l79.616-79.616c21.094-21.094 24.986-53.197 11.673-78.336l-15.463 15.462z" opacity="1" visibility="false" fill="#000000"></path>
	<path d="M441.959 79.053l-3.635-3.635c-12.954-12.953-30.003-19.405-47.053-19.405s-34.099 6.451-47.053 19.405l-79.616 79.616c-21.095 21.095-24.986 53.197-11.673 78.336l15.462-15.463c-5.939-16.333-2.355-35.328 10.701-48.384l79.616-79.616c8.653-8.653 20.224-13.415 32.563-13.415s23.911 4.761 32.615 13.415l3.635 3.635c17.92 17.971 17.92 47.207-0.051 65.178l-79.616 79.616c-8.653 8.653-20.224 13.415-32.563 13.415-5.478 0-10.803-0.922-15.769-2.714l-15.514 15.463c9.728 5.171 20.531 7.731 31.283 7.731 17.050 0 34.099-6.451 47.053-19.405l79.616-79.616c25.907-25.907 25.907-68.249 0-94.157z" opacity="1" visibility="false" fill="#000000"></path>
</svg>
