<?xml version="1.0" encoding="utf-8"?>
<!-- Generated by IcoMoon.io -->
<!DOCTYPE svg PUBLIC "-//W3C//DTD SVG 1.1//EN" "http://www.w3.org/Graphics/SVG/1.1/DTD/svg11.dtd">
<svg version="1.1" xmlns="http://www.w3.org/2000/svg" xmlns:xlink="http://www.w3.org/1999/xlink" width="512" height="512" viewBox="0 0 512 512">
<g id="icomoon-ignore">
	<line stroke-width="1" x1="" y1="" x2="" y2="" stroke="#449FDB" opacity=""></line>
</g>
	<path d="M388.147 368.691l6.81-7.68-77.209-68.454c-2.048-1.792-4.352-3.123-6.707-4.199 11.008-18.074 17.357-39.27 17.357-61.952 0-65.792-53.351-119.091-119.091-119.091-65.792 0-119.091 53.35-119.091 119.091 0 65.792 53.299 119.091 119.091 119.091 22.631 0 43.827-6.298 61.849-17.305 1.075 2.406 2.406 4.711 4.199 6.759l68.454 77.312c4.813 5.478 11.673 8.397 18.483 8.397 6.298 0 12.697-2.509 17.459-7.322l16.333-16.333c4.813-4.762 7.322-11.161 7.322-17.51 0-6.81-2.918-13.619-8.346-18.483l-6.912 7.68zM139.52 296.089c-17.869-17.869-28.877-42.496-28.877-69.734 0-27.29 11.008-51.865 28.877-69.734s42.496-28.877 69.734-28.877c27.29 0 51.865 11.008 69.735 28.877s28.877 42.496 28.877 69.734c0 26.368-10.342 50.125-27.136 67.84l-3.584 3.584c-17.715 16.845-41.523 27.187-67.891 27.187-27.238 0.051-51.815-11.008-69.734-28.877zM381.543 382.515l-16.333 16.333c-0.973 0.973-1.945 1.28-2.969 1.28-1.127 0-2.151-0.409-3.175-1.485l-68.454-77.312c-0.87-1.024-1.433-2.457-1.433-3.993 0-1.639 0.615-3.175 1.587-4.199 1.741-1.69 3.481-3.379 5.12-5.12 1.024-0.973 2.509-1.587 4.147-1.587 1.587 0 3.021 0.563 3.993 1.433l77.261 68.505c1.075 0.973 1.485 2.048 1.485 3.175 0.051 1.024-0.256 1.997-1.229 2.969z" opacity="1" visibility="false" fill="#000000"></path>
</svg>
