<?xml version="1.0" encoding="utf-8"?>
<!-- Generated by IcoMoon.io -->
<!DOCTYPE svg PUBLIC "-//W3C//DTD SVG 1.1//EN" "http://www.w3.org/Graphics/SVG/1.1/DTD/svg11.dtd">
<svg version="1.1" xmlns="http://www.w3.org/2000/svg" xmlns:xlink="http://www.w3.org/1999/xlink" width="256" height="256" viewBox="0 0 256 256">
<g id="icomoon-ignore">
	<line stroke-width="1" x1="" y1="" x2="" y2="" stroke="#449FDB" opacity=""></line>
</g>
	<path d="M235.315 146.253l-55.347-38.221c-1.664-1.152-3.507-1.741-5.351-1.741-2.458 0-4.787 1.075-6.375 2.918-1.69 1.971-2.381 4.608-1.946 7.424l10.496 66.432c0.743 4.633 4.557 7.987 9.088 7.987 1.792 0 3.584-0.537 5.171-1.511l11.443-7.194 7.194 11.443c1.894 2.995 5.12 4.787 8.678 4.787 1.92 0 3.815-0.537 5.453-1.561l3.712-2.329c2.304-1.459 3.917-3.738 4.531-6.4s0.128-5.401-1.305-7.731l-7.194-11.443 11.443-7.194c2.739-1.741 4.429-4.608 4.506-7.731 0.025-3.149-1.536-6.093-4.198-7.936zM230.887 155.392l-15.769 9.933c-1.178 0.743-1.561 2.329-0.793 3.533l9.933 15.769c0.743 1.203 0.384 2.791-0.793 3.533l-3.712 2.329c-0.41 0.256-0.896 0.384-1.357 0.384-0.845 0-1.69-0.435-2.176-1.203l-9.933-15.769c-0.487-0.768-1.331-1.203-2.176-1.203-0.461 0-0.947 0.128-1.357 0.384l-15.769 9.933c-0.358 0.231-0.743 0.333-1.075 0.333-0.743 0-1.357-0.537-1.485-1.511l-10.496-66.432c-0.154-0.947 0.154-1.459 0.717-1.459 0.281 0 0.614 0.128 0.999 0.384l55.296 38.246c1.178 0.793 1.152 2.048-0.051 2.816z" opacity="1" visibility="false" fill="#000000"></path>
	<path d="M159.257 120.73c-3.021-3.021-4.864-7.168-4.864-11.776s1.869-8.755 4.864-11.776c3.021-3.021 7.168-4.864 11.776-4.864s8.755 1.843 11.776 4.864c2.585 2.585 4.301 5.99 4.762 9.779l7.577 5.222c0.128-1.075 0.231-2.15 0.231-3.251 0-13.44-10.88-24.32-24.32-24.32s-24.32 10.88-24.32 24.32c0 10.803 7.065 19.968 16.819 23.117l-1.434-9.114c-1.075-0.615-2.023-1.357-2.867-2.201z" opacity="1" visibility="false" fill="#000000"></path>
	<path d="M113.382 97.51c5.709-4.889 0-14.643 0-14.643l-34.125 29.312 34.099 29.286c0 0 5.709-9.728 0-14.643-5.017-4.301-9.984-8.576-11.111-9.523h34.483v-10.24h-34.458c1.152-1.024 6.093-5.273 11.111-9.549z" opacity="1" visibility="false" fill="#000000"></path>
	<path d="M43.929 87.834c-13.44 0-24.32 10.88-24.32 24.32s10.88 24.32 24.32 24.32c13.44 0 24.32-10.88 24.32-24.32s-10.88-24.32-24.32-24.32zM55.706 123.93c-3.021 3.021-7.168 4.864-11.776 4.864s-8.755-1.869-11.776-4.864c-3.021-3.021-4.864-7.168-4.864-11.776s1.869-8.755 4.864-11.776c3.021-3.021 7.168-4.864 11.776-4.864s8.755 1.843 11.776 4.864c3.021 3.021 4.864 7.168 4.864 11.776s-1.843 8.755-4.864 11.776z" opacity="1" visibility="false" fill="#000000"></path>
</svg>
