<?xml version="1.0" encoding="utf-8"?>
<!-- Generated by IcoMoon.io -->
<!DOCTYPE svg PUBLIC "-//W3C//DTD SVG 1.1//EN" "http://www.w3.org/Graphics/SVG/1.1/DTD/svg11.dtd">
<svg version="1.1" xmlns="http://www.w3.org/2000/svg" xmlns:xlink="http://www.w3.org/1999/xlink" width="512" height="512" viewBox="0 0 512 512">
<g id="icomoon-ignore">
	<line stroke-width="1" x1="" y1="" x2="" y2="" stroke="#449FDB" opacity=""></line>
</g>
	<path d="M388.352 96.871l-134.758-0.153-129.997 0.153c-12.698 0-23.040 10.343-23.040 23.040v8.141c0 7.629 3.686 15.36 9.626 20.121l103.066 83.046v165.12c0 12.237 9.369 21.811 21.299 21.811 5.581 0 10.957-2.202 15.155-6.144l40.704-38.4c5.12-4.864 8.294-12.185 8.294-19.2v-122.88l102.707-79.001c6.195-4.762 10.035-12.544 10.035-20.327v-12.288c-0.051-12.698-10.342-23.040-23.091-23.040zM390.912 132.198c0 1.434-0.921 3.277-2.048 4.096l-108.595 83.609c-1.127 0.87-2.048 2.714-2.048 4.096v130.406c0 1.382-0.819 3.328-1.843 4.301l-40.755 38.451-1.024 0.563c-0.512 0-0.819-0.461-0.819-1.331v-172.339c0-1.434-0.87-3.277-1.997-4.147l-108.698-87.654c-1.075-0.87-1.997-2.765-1.997-4.147v-8.141c0-1.433 1.126-2.56 2.56-2.56l129.946-0.153c1.434 0 3.687 0 5.12 0l129.638 0.153c1.433 0 2.56 1.177 2.56 2.56v12.237z" opacity="1" visibility="false" fill="#000000"></path>
</svg>
