<?xml version="1.0" encoding="utf-8"?>
<!-- Generated by IcoMoon.io -->
<!DOCTYPE svg PUBLIC "-//W3C//DTD SVG 1.1//EN" "http://www.w3.org/Graphics/SVG/1.1/DTD/svg11.dtd">
<svg version="1.1" xmlns="http://www.w3.org/2000/svg" xmlns:xlink="http://www.w3.org/1999/xlink" width="512" height="512" viewBox="0 0 512 512">
<g id="icomoon-ignore">
	<line stroke-width="1" x1="" y1="" x2="" y2="" stroke="#449FDB" opacity=""></line>
</g>
	<path d="M393.318 116.531h-274.637c-14.131 0.051-25.549 11.469-25.6 25.6v251.802c0.051 14.131 11.469 25.549 25.6 25.6h274.637c14.131-0.051 25.549-11.469 25.6-25.6v-251.802c-0.051-14.131-11.469-25.549-25.6-25.6zM396.902 397.517c-0.973 0.973-2.202 1.485-3.584 1.536h-274.637c-1.382 0-2.611-0.563-3.584-1.536s-1.485-2.202-1.536-3.584v-251.802c0-1.382 0.563-2.611 1.536-3.584s2.201-1.485 3.584-1.536h274.637c1.382 0 2.611 0.563 3.584 1.536s1.485 2.202 1.536 3.584v251.802c0 1.382-0.563 2.611-1.536 3.584z" opacity="1" visibility="false" fill="#000000"></path>
	<path d="M160.563 152.167h-22.119c-5.632 0-10.24 4.608-10.24 10.24v9.523c0 5.632 4.608 10.24 10.24 10.24h22.119c5.632 0 10.24-4.608 10.24-10.24v-9.523c0-5.632-4.608-10.24-10.24-10.24z" opacity="1" visibility="false" fill="#000000"></path>
	<path d="M160.563 192.87h-22.119c-5.632 0-10.24 4.608-10.24 10.24v9.523c0 5.632 4.608 10.24 10.24 10.24h22.119c5.632 0 10.24-4.608 10.24-10.24v-9.523c0-5.632-4.608-10.24-10.24-10.24z" opacity="1" visibility="false" fill="#000000"></path>
	<path d="M160.563 233.625h-22.119c-5.632 0-10.24 4.608-10.24 10.24v9.523c0 5.632 4.608 10.24 10.24 10.24h22.119c5.632 0 10.24-4.608 10.24-10.24v-9.523c0-5.632-4.608-10.24-10.24-10.24z" opacity="1" visibility="false" fill="#000000"></path>
	<path d="M160.563 274.381h-22.119c-5.632 0-10.24 4.608-10.24 10.24v9.523c0 5.632 4.608 10.24 10.24 10.24h22.119c5.632 0 10.24-4.608 10.24-10.24v-9.523c0-5.632-4.608-10.24-10.24-10.24z" opacity="1" visibility="false" fill="#000000"></path>
	<path d="M160.563 315.085h-22.119c-5.632 0-10.24 4.608-10.24 10.24v9.523c0 5.632 4.608 10.24 10.24 10.24h22.119c5.632 0 10.24-4.608 10.24-10.24v-9.523c0-5.632-4.608-10.24-10.24-10.24z" opacity="1" visibility="false" fill="#000000"></path>
	<path d="M160.563 355.84h-22.119c-5.632 0-10.24 4.608-10.24 10.24v9.523c0 5.632 4.608 10.24 10.24 10.24h22.119c5.632 0 10.24-4.608 10.24-10.24v-9.523c0-5.632-4.608-10.24-10.24-10.24z" opacity="1" visibility="false" fill="#000000"></path>
	<path d="M379.085 152.167h-22.118c-5.632 0-10.24 4.608-10.24 10.24v9.523c0 5.632 4.608 10.24 10.24 10.24h22.118c5.632 0 10.24-4.608 10.24-10.24v-9.523c0-5.632-4.608-10.24-10.24-10.24z" opacity="1" visibility="false" fill="#000000"></path>
	<path d="M379.085 192.87h-22.118c-5.632 0-10.24 4.608-10.24 10.24v9.523c0 5.632 4.608 10.24 10.24 10.24h22.118c5.632 0 10.24-4.608 10.24-10.24v-9.523c0-5.632-4.608-10.24-10.24-10.24z" opacity="1" visibility="false" fill="#000000"></path>
	<path d="M379.085 233.625h-22.118c-5.632 0-10.24 4.608-10.24 10.24v9.523c0 5.632 4.608 10.24 10.24 10.24h22.118c5.632 0 10.24-4.608 10.24-10.24v-9.523c0-5.632-4.608-10.24-10.24-10.24z" opacity="1" visibility="false" fill="#000000"></path>
	<path d="M379.085 274.381h-22.118c-5.632 0-10.24 4.608-10.24 10.24v9.523c0 5.632 4.608 10.24 10.24 10.24h22.118c5.632 0 10.24-4.608 10.24-10.24v-9.523c0-5.632-4.608-10.24-10.24-10.24z" opacity="1" visibility="false" fill="#000000"></path>
	<path d="M379.085 315.085h-22.118c-5.632 0-10.24 4.608-10.24 10.24v9.523c0 5.632 4.608 10.24 10.24 10.24h22.118c5.632 0 10.24-4.608 10.24-10.24v-9.523c0-5.632-4.608-10.24-10.24-10.24z" opacity="1" visibility="false" fill="#000000"></path>
	<path d="M379.085 355.84h-22.118c-5.632 0-10.24 4.608-10.24 10.24v9.523c0 5.632 4.608 10.24 10.24 10.24h22.118c5.632 0 10.24-4.608 10.24-10.24v-9.523c0-5.632-4.608-10.24-10.24-10.24z" opacity="1" visibility="false" fill="#000000"></path>
	<path d="M315.904 265.933l-109.415-57.139c-2.048-1.075-3.942-1.536-5.683-1.536-4.659 0-7.936 3.635-7.936 9.831l-0.051 112.025c0 6.144 3.277 9.83 7.936 9.83 1.741 0 3.635-0.512 5.683-1.536l109.465-57.242c7.475-3.942 7.475-10.342 0-14.233zM213.299 310.63v-75.161l71.936 37.581-71.936 37.581z" opacity="1" visibility="false" fill="#000000"></path>
</svg>
