<?xml version="1.0" encoding="utf-8"?>
<!-- Generated by IcoMoon.io -->
<!DOCTYPE svg PUBLIC "-//W3C//DTD SVG 1.1//EN" "http://www.w3.org/Graphics/SVG/1.1/DTD/svg11.dtd">
<svg version="1.1" xmlns="http://www.w3.org/2000/svg" xmlns:xlink="http://www.w3.org/1999/xlink" width="512" height="512" viewBox="0 0 512 512">
<g id="icomoon-ignore">
	<line stroke-width="1" x1="" y1="" x2="" y2="" stroke="#449FDB" opacity=""></line>
</g>
	<path d="M256.666 88.525c-91.187 0-165.12 73.933-165.12 165.12s73.933 165.12 165.12 165.12c91.187 0 165.12-73.933 165.12-165.12s-73.933-165.069-165.12-165.12zM165.786 366.131l1.638 0.717c1.638-3.789 3.533-6.707 5.734-8.755 2.202-2.099 4.659-3.481 8.243-4.352v0c12.032-2.816 24.371-5.427 34.816-9.984 5.222-2.304 10.137-5.12 14.183-9.421 1.997-2.151 3.789-4.711 5.018-7.629s1.894-6.144 1.894-9.421c0-5.683-1.843-11.264-4.864-16.845v0c-13.312-24.474-18.535-44.749-18.483-60.16 0-7.629 1.229-14.080 3.328-19.456 3.174-8.089 8.141-13.875 14.643-17.92s14.643-6.298 24.064-6.298c12.339 0 22.579 3.84 29.798 10.752 3.635 3.482 6.553 7.782 8.653 13.159s3.328 11.827 3.379 19.507c0 15.36-5.12 35.738-18.279 60.519-2.918 5.529-4.711 11.059-4.711 16.691 0 3.226 0.615 6.451 1.843 9.318 2.099 5.12 5.735 9.011 9.728 11.878 6.041 4.352 13.005 7.014 20.531 9.319s15.616 4.147 23.705 5.99c3.584 0.819 5.99 2.253 8.192 4.301s4.096 4.915 5.735 8.601l0.615 1.433c-24.474 18.944-55.091 30.208-88.423 30.208-34.56 0-66.15-12.032-90.983-32.154zM360.96 353.843c-2.151-3.891-4.813-7.526-8.141-10.752-4.659-4.403-10.701-7.783-17.613-9.37-12.339-2.816-23.911-5.529-31.334-8.858-3.687-1.639-6.195-3.379-7.322-4.659-0.563-0.615-0.87-1.127-1.024-1.536s-0.256-0.819-0.256-1.536c0-1.229 0.409-3.533 2.304-7.065 14.233-26.931 20.685-50.227 20.685-70.144 0-9.933-1.639-18.995-4.762-26.983-4.659-12.032-12.851-21.504-22.938-27.699-10.137-6.195-22.067-9.216-34.56-9.216-16.845 0-32.717 5.53-44.288 16.743-5.786 5.581-10.393 12.544-13.465 20.531-3.123 7.987-4.71 17.049-4.71 26.88 0 19.968 6.553 43.315 20.992 69.939v0c1.946 3.533 2.355 5.888 2.355 7.065 0 0.717-0.102 1.075-0.256 1.485-0.307 0.666-1.024 1.792-2.97 3.175-2.867 2.099-8.141 4.352-14.643 6.298s-14.233 3.687-22.169 5.529v0c-7.014 1.587-13.107 4.966-17.767 9.472-3.021 2.918-5.478 6.195-7.475 9.728-24.474-25.907-39.526-60.774-39.526-99.277 0-39.987 16.179-76.083 42.343-102.298 26.214-26.215 62.31-42.343 102.298-42.343s76.083 16.179 102.298 42.343c26.214 26.214 42.343 62.31 42.343 102.298-0.051 39.014-15.411 74.24-40.397 100.25z" opacity="1" visibility="false" fill="#000000"></path>
</svg>
