<?xml version="1.0" encoding="utf-8"?>
<!-- Generated by IcoMoon.io -->
<!DOCTYPE svg PUBLIC "-//W3C//DTD SVG 1.1//EN" "http://www.w3.org/Graphics/SVG/1.1/DTD/svg11.dtd">
<svg version="1.1" xmlns="http://www.w3.org/2000/svg" xmlns:xlink="http://www.w3.org/1999/xlink" width="256" height="256" viewBox="0 0 256 256">
<g id="icomoon-ignore">
	<line stroke-width="1" x1="" y1="" x2="" y2="" stroke="#449FDB" opacity=""></line>
</g>
	<path d="M87.040 83.2c0 5.656-4.585 10.24-10.24 10.24s-10.24-4.585-10.24-10.24c0-5.656 4.585-10.24 10.24-10.24s10.24 4.585 10.24 10.24z" opacity="1" visibility="false" fill="#000000"></path>
	<path d="M179.2 47.36h-102.4c-19.789 0-35.84 16.051-35.84 35.84s16.051 35.84 35.84 35.84h102.4c19.789 0 35.84-16.051 35.84-35.84s-16.051-35.84-35.84-35.84zM76.8 108.8c-14.131 0-25.6-11.469-25.6-25.6s11.469-25.6 25.6-25.6 25.6 11.469 25.6 25.6-11.469 25.6-25.6 25.6zM179.2 108.8c-14.131 0-25.6-11.469-25.6-25.6s11.469-25.6 25.6-25.6 25.6 11.469 25.6 25.6-11.469 25.6-25.6 25.6z" opacity="1" visibility="false" fill="#000000"></path>
	<path d="M189.44 83.2c0 5.656-4.584 10.24-10.24 10.24s-10.24-4.585-10.24-10.24c0-5.656 4.584-10.24 10.24-10.24s10.24 4.585 10.24 10.24z" opacity="1" visibility="false" fill="#000000"></path>
	<path d="M174.080 162.56h-92.16c-12.698 0-23.040 10.343-23.040 23.040s10.342 23.040 23.040 23.040h92.16c12.697 0 23.040-10.343 23.040-23.040s-10.343-23.040-23.040-23.040zM74.24 198.887c-3.891-2.253-6.681-6.144-7.45-10.726h7.45v10.726zM74.24 183.040h-7.45c0.768-4.583 3.558-8.474 7.45-10.726v10.726zM94.72 200.96h-12.8c-0.871 0-1.715-0.102-2.56-0.231v-12.57h15.36v12.8zM94.72 183.040h-15.36v-12.57c0.845-0.128 1.689-0.231 2.56-0.231h12.8v12.8zM115.2 200.96h-15.36v-12.8h15.36v12.8zM115.2 183.040h-15.36v-12.8h15.36v12.8zM135.68 200.96h-15.36v-12.8h15.36v12.8zM135.68 183.040h-15.36v-12.8h15.36v12.8zM156.16 200.96h-15.36v-12.8h15.36v12.8zM156.16 183.040h-15.36v-12.8h15.36v12.8zM176.64 200.73c-0.845 0.128-1.69 0.231-2.56 0.231h-12.8v-12.8h15.36v12.57zM176.64 183.040h-15.36v-12.8h12.8c0.87 0 1.715 0.102 2.56 0.231v12.57zM181.76 198.887v-10.726h7.45c-0.768 4.583-3.559 8.474-7.45 10.726zM181.76 183.040v-10.726c3.891 2.253 6.681 6.144 7.45 10.726h-7.45z" opacity="1" visibility="false" fill="#000000"></path>
</svg>
