<?xml version="1.0" encoding="utf-8"?>
<!-- Generated by IcoMoon.io -->
<!DOCTYPE svg PUBLIC "-//W3C//DTD SVG 1.1//EN" "http://www.w3.org/Graphics/SVG/1.1/DTD/svg11.dtd">
<svg version="1.1" xmlns="http://www.w3.org/2000/svg" xmlns:xlink="http://www.w3.org/1999/xlink" width="256" height="256" viewBox="0 0 256 256">
<g id="icomoon-ignore">
	<line stroke-width="1" x1="" y1="" x2="" y2="" stroke="#449FDB" opacity=""></line>
</g>
	<path d="M128.333 44.263c-45.594 0-82.56 36.967-82.56 82.56s36.966 82.56 82.56 82.56c45.594 0 82.56-36.966 82.56-82.56s-36.966-82.534-82.56-82.56zM82.893 183.065l0.819 0.358c0.819-1.894 1.766-3.353 2.867-4.377 1.101-1.049 2.329-1.741 4.121-2.176v0c6.016-1.408 12.186-2.714 17.408-4.992 2.611-1.152 5.069-2.56 7.091-4.71 0.999-1.075 1.894-2.355 2.509-3.815s0.947-3.072 0.947-4.71c0-2.841-0.921-5.632-2.432-8.422v0c-6.656-12.237-9.267-22.374-9.242-30.080 0-3.814 0.615-7.040 1.664-9.728 1.587-4.045 4.070-6.938 7.322-8.96s7.322-3.149 12.032-3.149c6.169 0 11.29 1.92 14.899 5.376 1.817 1.741 3.277 3.891 4.327 6.579s1.664 5.913 1.69 9.754c0 7.68-2.56 17.869-9.139 30.259-1.459 2.765-2.355 5.53-2.355 8.345 0 1.613 0.307 3.226 0.922 4.659 1.049 2.56 2.867 4.506 4.864 5.939 3.021 2.176 6.502 3.507 10.266 4.659s7.808 2.073 11.853 2.995c1.792 0.41 2.995 1.126 4.096 2.15s2.048 2.458 2.867 4.301l0.307 0.717c-12.237 9.472-27.546 15.104-44.211 15.104-17.28 0-33.075-6.016-45.491-16.077zM180.48 176.922c-1.075-1.946-2.406-3.763-4.071-5.376-2.329-2.202-5.351-3.891-8.806-4.685-6.169-1.408-11.955-2.765-15.667-4.429-1.843-0.819-3.097-1.69-3.661-2.329-0.281-0.307-0.435-0.563-0.512-0.768s-0.128-0.41-0.128-0.768c0-0.614 0.205-1.767 1.152-3.533 7.117-13.465 10.343-25.113 10.343-35.072 0-4.966-0.819-9.498-2.381-13.491-2.329-6.016-6.425-10.752-11.469-13.85-5.069-3.097-11.034-4.608-17.28-4.608-8.422 0-16.358 2.765-22.144 8.371-2.893 2.79-5.197 6.272-6.733 10.266-1.561 3.993-2.355 8.525-2.355 13.44 0 9.984 3.277 21.657 10.496 34.969v0c0.973 1.767 1.177 2.944 1.177 3.533 0 0.358-0.051 0.537-0.128 0.743-0.153 0.333-0.512 0.896-1.485 1.587-1.433 1.049-4.070 2.176-7.322 3.149s-7.117 1.843-11.085 2.765l-0.103 0.077 0.077-0.025c-3.507 0.793-6.553 2.483-8.883 4.736-1.51 1.459-2.739 3.097-3.737 4.864-12.237-12.953-19.763-30.387-19.763-49.638 0-19.993 8.090-38.041 21.171-51.149 13.107-13.107 31.155-21.171 51.149-21.171s38.042 8.090 51.149 21.171c13.107 13.107 21.171 31.155 21.171 51.149 0 19.456-7.68 37.069-20.173 50.073z" opacity="1" visibility="false" fill="#000000"></path>
</svg>
