<?xml version="1.0" encoding="utf-8"?>
<!-- Generated by IcoMoon.io -->
<!DOCTYPE svg PUBLIC "-//W3C//DTD SVG 1.1//EN" "http://www.w3.org/Graphics/SVG/1.1/DTD/svg11.dtd">
<svg version="1.1" xmlns="http://www.w3.org/2000/svg" xmlns:xlink="http://www.w3.org/1999/xlink" width="256" height="256" viewBox="0 0 256 256">
<g id="icomoon-ignore">
	<line stroke-width="1" x1="" y1="" x2="" y2="" stroke="#449FDB" opacity=""></line>
</g>
	<path d="M128.154 199.833c-25.498 0-50.279-13.159-64.025-36.787-5.683-9.779-8.883-20.301-9.805-30.848l-10.215 0.87c1.024 12.032 4.685 24.013 11.136 35.123 15.642 26.88 43.879 41.882 72.883 41.856 14.387 0 29.005-3.686 42.317-11.443v0c10.599-6.169 19.328-14.336 26.061-23.706 0.077 1.843 0.281 8.089 0.487 14.387 0.256 7.501 11.417 9.165 11.417 9.165l-1.511-44.928-44.185 8.294c0 0 4.045 10.547 11.417 9.139 6.861-1.305 13.619-2.56 14.566-2.739-5.965 8.525-13.824 15.923-23.424 21.53v0c-11.673 6.861-24.474 10.087-37.12 10.087z" opacity="1" visibility="false" fill="#000000"></path>
	<path d="M90.368 91.034c0 0-6.093-9.498-13.056-6.63s-13.824 5.683-13.824 5.683l-0.154-0.077c6.247-11.315 15.488-21.145 27.494-28.16 11.725-6.835 24.525-10.061 37.171-10.061 25.498 0 50.279 13.159 64.025 36.787 6.835 11.725 10.061 24.525 10.061 37.171 0 0.845-0.025 1.664-0.051 2.483l10.24 0.333c0.025-0.947 0.051-1.894 0.051-2.841 0-14.387-3.686-29.005-11.469-42.317-15.616-26.855-43.879-41.856-72.858-41.856-14.387 0-29.005 3.687-42.317 11.443-13.543 7.885-24.038 18.995-31.155 31.769-0.512-2.125-1.92-7.859-3.303-13.696-1.792-7.296-13.056-6.63-13.056-6.63l10.624 43.699 41.575-17.101z" opacity="1" visibility="false" fill="#000000"></path>
</svg>
