<?xml version="1.0" encoding="utf-8"?>
<!-- Generated by IcoMoon.io -->
<!DOCTYPE svg PUBLIC "-//W3C//DTD SVG 1.1//EN" "http://www.w3.org/Graphics/SVG/1.1/DTD/svg11.dtd">
<svg version="1.1" xmlns="http://www.w3.org/2000/svg" xmlns:xlink="http://www.w3.org/1999/xlink" width="256" height="256" viewBox="0 0 256 256">
<g id="icomoon-ignore">
	<line stroke-width="1" x1="" y1="" x2="" y2="" stroke="#449FDB" opacity=""></line>
</g>
	<path d="M188.544 209.69c7.066-0.025 12.774-5.734 12.8-12.8v-126.387c-0.025-7.066-5.734-12.775-12.8-12.8h-125.799c-7.066 0.026-12.775 5.734-12.8 12.8v126.387c0.026 7.065 5.734 12.774 12.8 12.8h125.799zM60.953 68.71c0.486-0.487 1.101-0.743 1.792-0.768h125.773c0.691 0 1.305 0.281 1.792 0.768s0.743 1.101 0.768 1.792v50.483l-9.139 10.087-11.52-16.922-10.88 19.968-11.673-34.279-11.008 40.423-11.418-50.329-11.315 54.016-10.88-43.955-11.725 30.131-10.957-20.096-11.699 17.177-8.653-6.349v-50.355c-0.026-0.691 0.256-1.305 0.742-1.792zM60.185 196.889v-63.334l11.136 8.166 8.243-12.083 13.466 24.73 8.013-20.557 13.901 56.090 10.88-51.968 10.138 44.621 13.005-47.744 8.423 24.704 14.003-25.728 9.395 13.824 10.291-11.341v60.647c0 0.691-0.281 1.305-0.768 1.792s-1.101 0.743-1.792 0.768h-125.773c-0.691 0-1.306-0.281-1.792-0.768s-0.768-1.101-0.768-1.817z" opacity="1" visibility="false" fill="#000000"></path>
</svg>
