<?xml version="1.0" encoding="utf-8"?>
<!-- Generated by IcoMoon.io -->
<!DOCTYPE svg PUBLIC "-//W3C//DTD SVG 1.1//EN" "http://www.w3.org/Graphics/SVG/1.1/DTD/svg11.dtd">
<svg version="1.1" xmlns="http://www.w3.org/2000/svg" xmlns:xlink="http://www.w3.org/1999/xlink" width="512" height="512" viewBox="0 0 512 512">
<g id="icomoon-ignore">
	<line stroke-width="1" x1="" y1="" x2="" y2="" stroke="#449FDB" opacity=""></line>
</g>
	<path d="M436.582 60.825h-356.966c-14.131 0.051-25.549 11.469-25.6 25.6v308.634c0.051 14.131 11.469 25.549 25.6 25.6h356.966c14.131-0.051 25.549-11.469 25.6-25.6v-308.634c-0.051-14.131-11.418-25.549-25.6-25.6zM76.032 82.841c0.973-0.973 2.201-1.485 3.635-1.536h356.966c1.382 0 2.611 0.563 3.584 1.536s1.485 2.201 1.536 3.584v27.085h-367.257v-27.085c0-1.382 0.563-2.611 1.536-3.584zM440.217 398.643c-0.973 0.973-2.202 1.485-3.584 1.536h-357.017c-1.382 0-2.611-0.563-3.635-1.536-0.973-0.973-1.485-2.202-1.485-3.584v-261.069h367.207v261.069c0 1.382-0.563 2.611-1.485 3.584z" opacity="1" visibility="false" fill="#000000"></path>
	<path d="M107.008 97.945c0 5.656-4.585 10.24-10.24 10.24s-10.24-4.585-10.24-10.24c0-5.656 4.585-10.24 10.24-10.24s10.24 4.585 10.24 10.24z" opacity="1" visibility="false" fill="#000000"></path>
	<path d="M137.472 97.945c0 5.656-4.584 10.24-10.24 10.24s-10.24-4.585-10.24-10.24c0-5.656 4.585-10.24 10.24-10.24s10.24 4.585 10.24 10.24z" opacity="1" visibility="false" fill="#000000"></path>
	<path d="M167.936 97.945c0 5.656-4.584 10.24-10.24 10.24s-10.24-4.585-10.24-10.24c0-5.656 4.584-10.24 10.24-10.24s10.24 4.585 10.24 10.24z" opacity="1" visibility="false" fill="#000000"></path>
	<path d="M157.696 320.205h205.415v20.48h-205.415v-20.48z" opacity="1" visibility="false" fill="#000000"></path>
	<path d="M157.696 286.515h205.415v20.48h-205.415v-20.48z" opacity="1" visibility="false" fill="#000000"></path>
	<path d="M158.003 252.774h90.88v20.48h-90.88v-20.48z" opacity="1" visibility="false" fill="#000000"></path>
	<path d="M158.003 219.034h90.88v20.48h-90.88v-20.48z" opacity="1" visibility="false" fill="#000000"></path>
	<path d="M158.31 185.293h90.88v20.48h-90.88v-20.48z" opacity="1" visibility="false" fill="#000000"></path>
	<path d="M358.349 187.904h-90.829v84.019h90.829v-84.019zM337.869 251.443h-49.869v-43.059h49.869v43.059z" opacity="1" visibility="false" fill="#000000"></path>
</svg>
