<?xml version="1.0" encoding="utf-8"?>
<!-- Generated by IcoMoon.io -->
<!DOCTYPE svg PUBLIC "-//W3C//DTD SVG 1.1//EN" "http://www.w3.org/Graphics/SVG/1.1/DTD/svg11.dtd">
<svg version="1.1" xmlns="http://www.w3.org/2000/svg" xmlns:xlink="http://www.w3.org/1999/xlink" width="256" height="256" viewBox="0 0 256 256">
<g id="icomoon-ignore">
	<line stroke-width="1" x1="" y1="" x2="" y2="" stroke="#449FDB" opacity=""></line>
</g>
	<path d="M197.12 78.848h-138.24c-7.066 0.025-12.775 5.734-12.8 12.8v72.704c0.026 7.065 5.734 12.774 12.8 12.8h138.24c7.065-0.025 12.774-5.734 12.8-12.8v-72.704c-0.025-7.091-5.734-12.8-12.8-12.8zM57.063 89.831c0.486-0.487 1.101-0.743 1.818-0.743h138.24c0.691 0 1.305 0.281 1.817 0.743 0.461 0.487 0.743 1.101 0.743 1.817v6.067h-143.36v-6.067c0-0.717 0.282-1.331 0.742-1.817zM198.938 166.169c-0.487 0.487-1.101 0.743-1.817 0.743h-138.24c-0.691 0-1.306-0.281-1.818-0.743-0.461-0.487-0.742-1.101-0.742-1.817v-48.717h143.36v48.717c0 0.717-0.281 1.331-0.743 1.817z" opacity="1" visibility="false" fill="#000000"></path>
	<path d="M154.24 144.128h24.96v14.080h-24.96v-14.080z" opacity="1" visibility="false" fill="#000000"></path>
</svg>
