<?xml version="1.0" encoding="utf-8"?>
<!-- Generated by IcoMoon.io -->
<!DOCTYPE svg PUBLIC "-//W3C//DTD SVG 1.1//EN" "http://www.w3.org/Graphics/SVG/1.1/DTD/svg11.dtd">
<svg version="1.1" xmlns="http://www.w3.org/2000/svg" xmlns:xlink="http://www.w3.org/1999/xlink" width="256" height="256" viewBox="0 0 256 256">
<g id="icomoon-ignore">
	<line stroke-width="1" x1="" y1="" x2="" y2="" stroke="#449FDB" opacity=""></line>
</g>
	<path d="M123.264 203.213c43.136 0 78.080-34.944 78.080-78.080s-34.944-78.080-78.080-78.080c-43.136 0-78.080 34.944-78.080 78.080s34.944 78.080 78.080 78.080zM75.29 77.184c12.288-12.288 29.209-19.865 47.975-19.865 18.739 0 35.686 7.578 47.975 19.865s19.865 29.209 19.865 47.975c0 18.739-7.577 35.686-19.865 47.975s-29.209 19.865-47.975 19.865c-18.739 0-35.686-7.577-47.975-19.865s-19.865-29.209-19.865-47.975c0-18.765 7.578-35.686 19.865-47.975z" opacity="1" visibility="false" fill="#000000"></path>
	<path d="M117.657 152.371h10.112v10.573h-10.112v-10.573z" opacity="1" visibility="false" fill="#000000"></path>
	<path d="M111.513 101.581c2.227-4.198 6.195-6.297 11.981-6.297 4.659 0 8.013 1.229 10.035 3.661s3.047 5.325 3.047 8.627c0 2.381-0.691 4.659-2.099 6.861-0.768 1.254-1.792 2.457-3.021 3.609l-4.147 4.019c-3.968 3.84-6.528 7.219-7.68 10.189s-1.715 6.861-1.715 11.699h9.037c0-4.275 0.512-7.501 1.51-9.677s3.149-4.864 6.477-8.013c4.557-4.326 7.577-7.629 9.063-9.856s2.202-5.145 2.202-8.73c0-5.939-2.023-10.803-6.093-14.617s-9.472-5.709-16.231-5.709c-7.296 0-13.056 2.227-17.229 6.681s-6.272 10.343-6.272 17.664h9.037c0.153-4.403 0.845-7.782 2.099-10.112z" opacity="1" visibility="false" fill="#000000"></path>
</svg>
