<?xml version="1.0" encoding="utf-8"?>
<!-- Generated by IcoMoon.io -->
<!DOCTYPE svg PUBLIC "-//W3C//DTD SVG 1.1//EN" "http://www.w3.org/Graphics/SVG/1.1/DTD/svg11.dtd">
<svg version="1.1" xmlns="http://www.w3.org/2000/svg" xmlns:xlink="http://www.w3.org/1999/xlink" width="512" height="512" viewBox="0 0 512 512">
<g id="icomoon-ignore">
	<line stroke-width="1" x1="" y1="" x2="" y2="" stroke="#449FDB" opacity=""></line>
</g>
	<path d="M408.064 143.616h-85.146v-36.045c-0.051-14.131-11.469-25.549-25.6-25.6h-45.824v-22.374c-0.051-7.117-5.683-12.749-12.8-12.8h-76.135c-7.117 0.051-12.749 5.683-12.8 12.8v22.374h-45.824c-14.131 0.051-25.549 11.469-25.6 25.6v289.331c0.051 14.131 11.469 25.549 25.6 25.6h73.779v23.245c0.051 14.131 11.469 25.549 25.6 25.6h111.001c6.144-0.051 12.185-1.587 17.92-3.891 5.735-2.355 11.161-5.478 15.565-9.728l71.783-70.246c4.403-4.352 7.577-9.728 10.035-15.462 2.406-5.735 3.993-11.776 4.045-17.971v-184.832c-0.051-14.131-11.469-25.549-25.6-25.6zM165.12 62.157h71.065v19.814h-71.065v-19.814zM177.715 169.216v232.755h-73.779c-1.382 0-2.611-0.563-3.635-1.536-0.973-0.973-1.485-2.202-1.485-3.584v-289.28c0-1.382 0.563-2.611 1.485-3.584 0.973-0.973 2.201-1.485 3.635-1.536h33.126v21.657h128.461v-21.657h31.795c1.382 0 2.611 0.563 3.635 1.536 0.973 0.973 1.485 2.201 1.485 3.584v36.045h-99.123c-14.131 0.051-25.549 11.469-25.6 25.6zM337.92 438.682v-52.685c0-1.382 0.563-2.611 1.485-3.584 0.973-0.973 2.202-1.485 3.635-1.536h53.913l-59.034 57.805zM413.184 353.945c0 1.536-0.409 3.942-1.127 6.451h-69.017c-14.131 0.051-25.549 11.469-25.6 25.6v64.461c-1.178 0.205-2.304 0.358-3.123 0.358h-111.001c-1.382 0-2.611-0.563-3.635-1.536-0.973-0.973-1.485-2.202-1.485-3.584v-276.48c0-1.382 0.563-2.611 1.485-3.584 0.973-0.973 2.202-1.485 3.635-1.536h204.749c1.382 0 2.611 0.563 3.635 1.536 0.973 0.973 1.485 2.202 1.485 3.584v184.73z" opacity="1" visibility="false" fill="#000000"></path>
</svg>
