<?xml version="1.0" encoding="utf-8"?>
<!-- Generated by IcoMoon.io -->
<!DOCTYPE svg PUBLIC "-//W3C//DTD SVG 1.1//EN" "http://www.w3.org/Graphics/SVG/1.1/DTD/svg11.dtd">
<svg version="1.1" xmlns="http://www.w3.org/2000/svg" xmlns:xlink="http://www.w3.org/1999/xlink" width="512" height="512" viewBox="0 0 512 512">
<g id="icomoon-ignore">
	<line stroke-width="1" x1="" y1="" x2="" y2="" stroke="#449FDB" opacity=""></line>
</g>
	<path d="M361.113 91.546h-111.001c-6.144 0.051-12.185 1.587-17.92 3.891-5.734 2.355-11.161 5.478-15.565 9.728l-71.782 70.297c-4.403 4.352-7.577 9.728-10.035 15.463-2.406 5.734-3.994 11.776-4.045 17.971v184.73c0.051 14.131 11.469 25.549 25.6 25.6h204.749c14.131-0.051 25.549-11.469 25.6-25.6v-276.48c0-14.183-11.418-25.6-25.6-25.6zM226.509 124.16v52.633c0 1.382-0.563 2.611-1.536 3.584s-2.202 1.485-3.584 1.536h-53.913l59.034-57.754zM366.233 393.625c0 1.382-0.563 2.611-1.536 3.584s-2.202 1.485-3.584 1.536h-204.749c-1.382 0-2.611-0.563-3.584-1.536s-1.485-2.202-1.536-3.584v-184.781c-0.051-1.536 0.41-3.942 1.126-6.451h68.966c14.131-0.051 25.549-11.469 25.6-25.6v-64.461c1.178-0.205 2.304-0.359 3.123-0.359h111.001c1.382 0 2.611 0.563 3.584 1.536s1.485 2.201 1.536 3.584v276.531z" opacity="1" visibility="false" fill="#000000"></path>
</svg>
