<?xml version="1.0" encoding="utf-8"?>
<!-- Generated by IcoMoon.io -->
<!DOCTYPE svg PUBLIC "-//W3C//DTD SVG 1.1//EN" "http://www.w3.org/Graphics/SVG/1.1/DTD/svg11.dtd">
<svg version="1.1" xmlns="http://www.w3.org/2000/svg" xmlns:xlink="http://www.w3.org/1999/xlink" width="512" height="512" viewBox="0 0 512 512">
<g id="icomoon-ignore">
	<line stroke-width="1" x1="" y1="" x2="" y2="" stroke="#449FDB" opacity=""></line>
</g>
	<path d="M395.315 96c-8.448-8.397-17.664-15.053-27.034-19.661-9.37-4.557-18.893-7.219-28.109-7.219-4.557 0-9.063 0.665-13.312 2.201s-8.294 3.993-11.623 7.322l-221.082 221.030-23.347 120.781 120.781-23.347 221.082-221.082c3.328-3.328 5.786-7.322 7.322-11.571s2.202-8.755 2.202-13.312c0-9.216-2.663-18.739-7.219-28.109-4.659-9.37-11.264-18.637-19.661-27.034zM181.555 378.214l-56.115 10.854c0-0.409 0.103-0.768 0.153-1.178 0.103-12.288-9.626-22.323-21.709-22.425-0.512 0-1.024 0.103-1.536 0.154l10.803-55.859 181.76-181.76 68.505 68.505-181.863 181.709zM400.691 157.491c-0.615 1.69-1.433 2.97-2.509 4.045l-20.429 20.429-68.454-68.454 20.429-20.429c1.075-1.075 2.355-1.894 4.045-2.509s3.84-0.973 6.4-0.973c5.171 0 11.93 1.638 19.098 5.171 7.168 3.481 14.695 8.806 21.555 15.719 6.912 6.912 12.237 14.439 15.719 21.555 3.533 7.168 5.171 13.927 5.12 19.097 0.051 2.509-0.358 4.659-0.973 6.349z" opacity="1" visibility="false" fill="#000000"></path>
</svg>
