<?xml version="1.0" encoding="utf-8"?>
<!-- Generated by IcoMoon.io -->
<!DOCTYPE svg PUBLIC "-//W3C//DTD SVG 1.1//EN" "http://www.w3.org/Graphics/SVG/1.1/DTD/svg11.dtd">
<svg version="1.1" xmlns="http://www.w3.org/2000/svg" xmlns:xlink="http://www.w3.org/1999/xlink" width="256" height="256" viewBox="0 0 256 256">
<g id="icomoon-ignore">
	<line stroke-width="1" x1="" y1="" x2="" y2="" stroke="#449FDB" opacity=""></line>
</g>
	<path d="M40.832 197.786h174.336c7.065-0.025 12.774-5.734 12.8-12.8v-113.331c-0.025-7.066-5.734-12.775-12.8-12.8h-174.336c-7.066 0.026-12.774 5.734-12.8 12.8v113.331c0.026 7.065 5.735 12.774 12.8 12.8zM38.272 71.654c0-0.691 0.282-1.305 0.768-1.817 0.486-0.487 1.101-0.743 1.792-0.743h174.336c0.691 0 1.305 0.281 1.792 0.743 0.487 0.487 0.743 1.101 0.768 1.817v113.331c0 0.691-0.281 1.305-0.768 1.817-0.487 0.487-1.101 0.743-1.792 0.743h-174.336c-0.691 0-1.306-0.281-1.792-0.743-0.486-0.487-0.742-1.101-0.768-1.817v-113.331z" opacity="1" visibility="false" fill="#000000"></path>
	<path d="M97.792 160.819c0.871 0 1.817-0.256 2.841-0.768l54.733-28.595c3.738-1.946 3.738-5.145 0-7.117l-54.707-28.57c-1.024-0.537-1.971-0.768-2.841-0.768-2.329 0-3.968 1.817-3.968 4.915l-0.025 55.987c0 3.072 1.638 4.915 3.968 4.915z" opacity="1" visibility="false" fill="#000000"></path>
</svg>
