<?xml version="1.0" encoding="utf-8"?>
<!-- Generated by IcoMoon.io -->
<!DOCTYPE svg PUBLIC "-//W3C//DTD SVG 1.1//EN" "http://www.w3.org/Graphics/SVG/1.1/DTD/svg11.dtd">
<svg version="1.1" xmlns="http://www.w3.org/2000/svg" xmlns:xlink="http://www.w3.org/1999/xlink" width="512" height="512" viewBox="0 0 512 512">
<g id="icomoon-ignore">
	<line stroke-width="1" x1="" y1="" x2="" y2="" stroke="#449FDB" opacity=""></line>
</g>
	<path d="M361.216 168.96h-210.432c-28.263 0-51.251 22.989-51.251 51.251v71.577c0 28.262 22.989 51.251 51.251 51.251h210.381c28.262 0 51.251-22.989 51.251-51.251v-71.577c0.051-28.262-22.938-51.251-51.2-51.251zM269.875 291.789c0 16.896-13.824 30.771-30.771 30.771h-88.32c-16.896 0-30.771-13.824-30.771-30.771v-71.577c0-16.896 13.824-30.771 30.771-30.771h88.32c16.896 0 30.771 13.824 30.771 30.771v71.577z" opacity="1" visibility="false" fill="#000000"></path>
</svg>
