<?xml version="1.0" encoding="utf-8"?>
<!-- Generated by IcoMoon.io -->
<!DOCTYPE svg PUBLIC "-//W3C//DTD SVG 1.1//EN" "http://www.w3.org/Graphics/SVG/1.1/DTD/svg11.dtd">
<svg version="1.1" xmlns="http://www.w3.org/2000/svg" xmlns:xlink="http://www.w3.org/1999/xlink" width="256" height="256" viewBox="0 0 256 256">
<g id="icomoon-ignore">
	<line stroke-width="1" x1="" y1="" x2="" y2="" stroke="#449FDB" opacity=""></line>
</g>
	<path d="M15.36 30.72v-15.36h10.24v-10.24h-12.8c-4.224 0-7.68 3.456-7.68 7.68v17.92h10.24z" opacity="1" visibility="false" fill="#000000"></path>
	<path d="M225.28 15.36h15.36v10.24h10.24v-12.8c0-4.224-3.456-7.68-7.68-7.68h-17.92v10.24z" opacity="1" visibility="false" fill="#000000"></path>
	<path d="M40.96 5.12h15.36v10.24h-15.36v-10.24z" opacity="1" visibility="false" fill="#000000"></path>
	<path d="M71.68 5.12h15.36v10.24h-15.36v-10.24z" opacity="1" visibility="false" fill="#000000"></path>
	<path d="M102.4 5.12h15.36v10.24h-15.36v-10.24z" opacity="1" visibility="false" fill="#000000"></path>
	<path d="M133.12 5.12h15.36v10.24h-15.36v-10.24z" opacity="1" visibility="false" fill="#000000"></path>
	<path d="M163.84 5.12h15.36v10.24h-15.36v-10.24z" opacity="1" visibility="false" fill="#000000"></path>
	<path d="M194.56 5.12h15.36v10.24h-15.36v-10.24z" opacity="1" visibility="false" fill="#000000"></path>
	<path d="M240.64 40.96h10.24v15.36h-10.24v-15.36z" opacity="1" visibility="false" fill="#000000"></path>
	<path d="M240.64 71.68h10.24v15.36h-10.24v-15.36z" opacity="1" visibility="false" fill="#000000"></path>
	<path d="M240.64 102.4h10.24v15.36h-10.24v-15.36z" opacity="1" visibility="false" fill="#000000"></path>
	<path d="M240.64 133.12h10.24v15.36h-10.24v-15.36z" opacity="1" visibility="false" fill="#000000"></path>
	<path d="M240.64 163.84h10.24v15.36h-10.24v-15.36z" opacity="1" visibility="false" fill="#000000"></path>
	<path d="M240.64 194.56h10.24v15.36h-10.24v-15.36z" opacity="1" visibility="false" fill="#000000"></path>
	<path d="M5.12 199.68h10.24v15.36h-10.24v-15.36z" opacity="1" visibility="false" fill="#000000"></path>
	<path d="M5.12 168.96h10.24v15.36h-10.24v-15.36z" opacity="1" visibility="false" fill="#000000"></path>
	<path d="M5.12 138.24h10.24v15.36h-10.24v-15.36z" opacity="1" visibility="false" fill="#000000"></path>
	<path d="M5.12 107.52h10.24v15.36h-10.24v-15.36z" opacity="1" visibility="false" fill="#000000"></path>
	<path d="M5.12 76.8h10.24v15.36h-10.24v-15.36z" opacity="1" visibility="false" fill="#000000"></path>
	<path d="M5.12 46.080h10.24v15.36h-10.24v-15.36z" opacity="1" visibility="false" fill="#000000"></path>
	<path d="M240.64 225.28v15.36h-10.24v10.24h12.8c4.224 0 7.68-3.456 7.68-7.68v-17.92h-10.24z" opacity="1" visibility="false" fill="#000000"></path>
	<path d="M30.72 240.64h-15.36v-10.24h-10.24v12.8c0 4.224 3.456 7.68 7.68 7.68h17.92v-10.24z" opacity="1" visibility="false" fill="#000000"></path>
	<path d="M199.68 240.64h15.36v10.24h-15.36v-10.24z" opacity="1" visibility="false" fill="#000000"></path>
	<path d="M168.96 240.64h15.36v10.24h-15.36v-10.24z" opacity="1" visibility="false" fill="#000000"></path>
	<path d="M138.24 240.64h15.36v10.24h-15.36v-10.24z" opacity="1" visibility="false" fill="#000000"></path>
	<path d="M107.52 240.64h15.36v10.24h-15.36v-10.24z" opacity="1" visibility="false" fill="#000000"></path>
	<path d="M76.8 240.64h15.36v10.24h-15.36v-10.24z" opacity="1" visibility="false" fill="#000000"></path>
	<path d="M46.080 240.64h15.36v10.24h-15.36v-10.24z" opacity="1" visibility="false" fill="#000000"></path>
</svg>
