<?xml version="1.0" encoding="utf-8"?>
<!-- Generated by IcoMoon.io -->
<!DOCTYPE svg PUBLIC "-//W3C//DTD SVG 1.1//EN" "http://www.w3.org/Graphics/SVG/1.1/DTD/svg11.dtd">
<svg version="1.1" xmlns="http://www.w3.org/2000/svg" xmlns:xlink="http://www.w3.org/1999/xlink" width="512" height="512" viewBox="0 0 512 512">
<g id="icomoon-ignore">
	<line stroke-width="1" x1="" y1="" x2="" y2="" stroke="#449FDB" opacity=""></line>
</g>
	<path d="M246.528 406.425c86.272 0 156.16-69.888 156.16-156.16s-69.888-156.16-156.16-156.16c-86.272 0-156.16 69.888-156.16 156.16s69.888 156.16 156.16 156.16zM150.579 154.368c24.576-24.576 58.419-39.731 95.949-39.731 37.478 0 71.373 15.155 95.949 39.731s39.731 58.419 39.731 95.949c0 37.478-15.155 71.373-39.731 95.949s-58.419 39.731-95.949 39.731c-37.478 0-71.373-15.155-95.949-39.731s-39.731-58.419-39.731-95.949c0-37.529 15.155-71.373 39.731-95.949z" opacity="1" visibility="false" fill="#000000"></path>
	<path d="M235.929 173.773h21.145v116.583h-21.145v-116.582z" opacity="1" visibility="false" fill="#000000"></path>
	<path d="M235.929 305.152h20.736v21.657h-20.736v-21.658z" opacity="1" visibility="false" fill="#000000"></path>
</svg>
