<?xml version="1.0" encoding="utf-8"?>
<!-- Generated by IcoMoon.io -->
<!DOCTYPE svg PUBLIC "-//W3C//DTD SVG 1.1//EN" "http://www.w3.org/Graphics/SVG/1.1/DTD/svg11.dtd">
<svg version="1.1" xmlns="http://www.w3.org/2000/svg" xmlns:xlink="http://www.w3.org/1999/xlink" width="512" height="512" viewBox="0 0 512 512">
<g id="icomoon-ignore">
	<line stroke-width="1" x1="" y1="" x2="" y2="" stroke="#449FDB" opacity=""></line>
</g>
	<path d="M92.365 410.624c12.391 12.39 28.979 18.432 45.568 18.432 18.688 0 37.683-7.526 52.224-22.169l11.981-12.083 0.205 0.205 9.011-9.472 40.243-40.653-0.819-0.819 127.949-134.554c10.087-10.599 15.309-24.167 15.309-37.478 0-11.623-4.096-23.296-12.8-32-8.346-8.345-19.507-12.391-30.567-12.391-13.619 0-27.392 5.837-37.786 16.793l-160.922 169.575 14.848 14.080 160.819-169.523c6.656-7.014 15.207-10.445 22.938-10.445 6.298 0.051 11.827 2.15 16.128 6.4 4.403 4.403 6.759 10.547 6.759 17.459 0 7.885-3.175 16.589-9.677 23.347l-167.065 175.769-21.145 21.351c-10.649 10.752-24.474 16.128-37.683 16.128-11.725 0-22.784-4.147-31.078-12.442v0c-8.448-8.448-12.8-19.917-12.8-32.103 0-13.209 5.171-27.034 15.463-37.786l91.341-95.13 98.919-102.4c16.281-16.896 37.376-25.344 57.139-25.344 16.435 0.051 31.693 5.734 43.213 17.203 11.878 11.879 17.869 28.058 17.92 45.517 0 19.815-7.936 40.96-23.706 57.498l-163.533 171.315 14.797 14.131 163.533-171.264c19.405-20.377 29.337-46.387 29.389-71.629 0-22.119-7.783-43.929-23.911-60.007-15.616-15.616-36.505-23.245-57.702-23.194-25.549 0-51.815 10.803-71.885 31.591l-98.918 102.4-91.341 95.13c-14.029 14.643-21.197 33.485-21.197 51.968 0 16.998 6.144 33.997 18.841 46.592v0z" opacity="1" visibility="false" fill="#000000"></path>
</svg>
