<?xml version="1.0" encoding="utf-8"?>
<!-- Generated by IcoMoon.io -->
<!DOCTYPE svg PUBLIC "-//W3C//DTD SVG 1.1//EN" "http://www.w3.org/Graphics/SVG/1.1/DTD/svg11.dtd">
<svg version="1.1" xmlns="http://www.w3.org/2000/svg" xmlns:xlink="http://www.w3.org/1999/xlink" width="512" height="512" viewBox="0 0 512 512">
<g id="icomoon-ignore">
	<line stroke-width="1" x1="" y1="" x2="" y2="" stroke="#449FDB" opacity=""></line>
</g>
	<path d="M412.979 194.253l-40.806 119.757c-0.461 1.485-2.048 3.687-4.301 5.274-2.202 1.587-4.762 2.406-6.349 2.355l-145.92 0.154c-1.587 0.051-4.301-0.768-6.605-2.406-2.304-1.587-4.045-3.84-4.608-5.325l-73.575-194.253c-2.458-6.4-6.912-11.315-12.135-14.951-5.222-3.584-11.418-5.99-18.279-6.041h-25.344v20.48h25.344c1.587-0.051 4.352 0.768 6.605 2.406 2.355 1.587 4.045 3.84 4.608 5.325v0l73.575 194.304c2.458 6.4 6.912 11.315 12.083 14.95 5.222 3.584 11.367 5.939 18.176 5.99v0h0.102l145.92-0.154c6.861-0.051 13.056-2.509 18.279-6.195 5.171-3.738 9.472-8.806 11.725-15.309v0l40.807-119.808-19.303-6.553z" opacity="1" visibility="false" fill="#000000"></path>
	<path d="M230.349 394.24c0 14.252-11.553 25.805-25.805 25.805s-25.805-11.553-25.805-25.805c0-14.252 11.553-25.805 25.805-25.805s25.805 11.553 25.805 25.805z" opacity="1" visibility="false" fill="#000000"></path>
	<path d="M395.673 394.24c0 14.252-11.553 25.805-25.805 25.805s-25.805-11.553-25.805-25.805c0-14.252 11.553-25.805 25.805-25.805s25.805 11.553 25.805 25.805z" opacity="1" visibility="false" fill="#000000"></path>
	<path d="M281.6 48.64v166.81c-17.255-17.203-50.688-50.585-59.341-59.238-11.879-11.879-35.533 0-35.533 0l105.318 105.216 104.858-104.858c0 0-23.654-11.827-35.533 0-8.755 8.755-42.291 42.291-59.289 59.341v-167.27h-20.48z" opacity="1" visibility="false" fill="#000000"></path>
</svg>
