<?xml version="1.0" encoding="utf-8"?>
<!-- Generated by IcoMoon.io -->
<!DOCTYPE svg PUBLIC "-//W3C//DTD SVG 1.1//EN" "http://www.w3.org/Graphics/SVG/1.1/DTD/svg11.dtd">
<svg version="1.1" xmlns="http://www.w3.org/2000/svg" xmlns:xlink="http://www.w3.org/1999/xlink" width="256" height="256" viewBox="0 0 256 256">
<g id="icomoon-ignore">
	<line stroke-width="1" x1="" y1="" x2="" y2="" stroke="#449FDB" opacity=""></line>
</g>
	<path d="M215.168 58.522h-174.336c-7.066 0.026-12.774 5.734-12.8 12.8v113.331c0.026 7.066 5.735 12.774 12.8 12.8h174.336c7.065-0.025 12.774-5.734 12.8-12.8v-113.331c-0.025-7.066-5.734-12.775-12.8-12.8zM216.96 186.47c-0.487 0.487-1.101 0.743-1.792 0.768h-174.336c-0.691 0-1.306-0.281-1.818-0.743-0.486-0.487-0.742-1.101-0.742-1.817v-113.357c0-0.691 0.282-1.305 0.742-1.817 0.486-0.487 1.101-0.743 1.818-0.743h174.336c0.691 0 1.305 0.281 1.792 0.768s0.743 1.101 0.768 1.792v113.331c0 0.717-0.281 1.331-0.768 1.817z" opacity="1" visibility="false" fill="#000000"></path>
	<path d="M154.778 94.797h-15.36c-1.408 0-2.56 1.152-2.56 2.56v61.286c0 1.408 1.152 2.56 2.56 2.56h15.36c1.408 0 2.56-1.152 2.56-2.56v-61.286c0-1.408-1.152-2.56-2.56-2.56z" opacity="1" visibility="false" fill="#000000"></path>
	<path d="M118.297 94.797h-15.36c-1.408 0-2.56 1.152-2.56 2.56v61.286c0 1.408 1.152 2.56 2.56 2.56h15.36c1.408 0 2.56-1.152 2.56-2.56v-61.286c0-1.408-1.177-2.56-2.56-2.56z" opacity="1" visibility="false" fill="#000000"></path>
</svg>
