<?xml version="1.0" encoding="utf-8"?>
<!-- Generated by IcoMoon.io -->
<!DOCTYPE svg PUBLIC "-//W3C//DTD SVG 1.1//EN" "http://www.w3.org/Graphics/SVG/1.1/DTD/svg11.dtd">
<svg version="1.1" xmlns="http://www.w3.org/2000/svg" xmlns:xlink="http://www.w3.org/1999/xlink" width="512" height="512" viewBox="0 0 512 512">
<g id="icomoon-ignore">
	<line stroke-width="1" x1="" y1="" x2="" y2="" stroke="#449FDB" opacity=""></line>
</g>
	<path d="M433.255 60.723h-355.635c-14.131 0.051-25.549 11.469-25.6 25.6v308.634c0.051 14.131 11.469 25.549 25.6 25.6h355.635c14.131-0.051 25.549-11.469 25.6-25.6v-308.634c-0.051-14.131-11.469-25.549-25.6-25.6zM73.984 82.739c0.973-0.973 2.201-1.485 3.584-1.536h355.635c1.382 0 2.611 0.563 3.584 1.536s1.485 2.201 1.536 3.584v27.085h-365.824v-27.085c0-1.382 0.512-2.611 1.485-3.584zM436.839 398.541c-0.973 0.973-2.202 1.485-3.584 1.536h-355.635c-1.382 0-2.611-0.563-3.584-1.536s-1.485-2.202-1.536-3.584v-261.069h365.875v261.069c0 1.382-0.563 2.611-1.536 3.584z" opacity="1" visibility="false" fill="#000000"></path>
	<path d="M105.011 97.843c0 5.656-4.585 10.24-10.24 10.24s-10.24-4.585-10.24-10.24c0-5.656 4.585-10.24 10.24-10.24s10.24 4.585 10.24 10.24z" opacity="1" visibility="false" fill="#000000"></path>
	<path d="M135.475 97.843c0 5.656-4.584 10.24-10.24 10.24s-10.24-4.585-10.24-10.24c0-5.656 4.585-10.24 10.24-10.24s10.24 4.585 10.24 10.24z" opacity="1" visibility="false" fill="#000000"></path>
	<path d="M165.939 97.843c0 5.656-4.584 10.24-10.24 10.24s-10.24-4.585-10.24-10.24c0-5.656 4.584-10.24 10.24-10.24s10.24 4.585 10.24 10.24z" opacity="1" visibility="false" fill="#000000"></path>
</svg>
