<?xml version="1.0" encoding="utf-8"?>
<!-- Generated by IcoMoon.io -->
<!DOCTYPE svg PUBLIC "-//W3C//DTD SVG 1.1//EN" "http://www.w3.org/Graphics/SVG/1.1/DTD/svg11.dtd">
<svg version="1.1" xmlns="http://www.w3.org/2000/svg" xmlns:xlink="http://www.w3.org/1999/xlink" width="512" height="512" viewBox="0 0 512 512">
<g id="icomoon-ignore">
	<line stroke-width="1" x1="" y1="" x2="" y2="" stroke="#449FDB" opacity=""></line>
</g>
	<path d="M470.63 292.505l-110.695-76.442c-3.328-2.304-7.014-3.482-10.701-3.482-4.915 0-9.575 2.15-12.749 5.837-3.379 3.942-4.762 9.216-3.891 14.848l20.992 132.864c1.485 9.267 9.113 15.974 18.176 15.974 3.584 0 7.168-1.075 10.342-3.021l22.887-14.387 14.387 22.887c3.789 5.99 10.24 9.575 17.357 9.575 3.84 0 7.629-1.075 10.906-3.123l7.424-4.659c4.608-2.918 7.834-7.475 9.063-12.8s0.307-10.803-2.611-15.462l-14.387-22.887 22.887-14.387c5.478-3.481 8.858-9.216 9.011-15.462 0.051-6.298-3.072-12.185-8.397-15.872zM461.773 310.784l-31.539 19.865c-2.406 1.485-3.123 4.659-1.587 7.065l19.865 31.539c1.485 2.406 0.768 5.581-1.587 7.065l-7.424 4.659c-0.819 0.512-1.792 0.768-2.714 0.768-1.69 0-3.379-0.87-4.352-2.406l-19.865-31.539c-0.973-1.536-2.663-2.406-4.352-2.406-0.921 0-1.894 0.256-2.714 0.768l-31.539 19.865c-0.717 0.461-1.485 0.666-2.151 0.666-1.485 0-2.714-1.075-2.969-3.021l-20.992-132.864c-0.307-1.894 0.307-2.918 1.433-2.918 0.563 0 1.229 0.256 1.997 0.768l110.592 76.493c2.355 1.587 2.253 4.096-0.103 5.632z" opacity="1" visibility="false" fill="#000000"></path>
	<path d="M318.515 241.459c-6.041-6.042-9.728-14.336-9.728-23.552s3.738-17.511 9.728-23.552c6.041-6.042 14.336-9.728 23.552-9.728s17.51 3.686 23.552 9.728c5.171 5.171 8.601 11.981 9.523 19.559l15.155 10.445c0.256-2.15 0.461-4.301 0.461-6.502 0-26.88-21.76-48.64-48.64-48.64s-48.64 21.76-48.64 48.64c0 21.607 14.131 39.936 33.639 46.233l-2.867-18.227c-2.151-1.229-4.045-2.714-5.735-4.403z" opacity="1" visibility="false" fill="#000000"></path>
	<path d="M226.765 195.021c11.417-9.779 0-29.286 0-29.286l-68.25 58.624 68.198 58.573c0 0 11.417-19.456 0-29.286-10.087-8.601-19.968-17.152-22.221-19.047h68.966v-20.48h-68.915c2.304-2.048 12.185-10.547 22.221-19.097z" opacity="1" visibility="false" fill="#000000"></path>
	<path d="M87.859 175.667c-26.88 0-48.64 21.76-48.64 48.64s21.76 48.64 48.64 48.64c26.88 0 48.64-21.76 48.64-48.64s-21.76-48.64-48.64-48.64zM111.411 247.859c-6.041 6.042-14.336 9.728-23.552 9.728s-17.511-3.738-23.552-9.728c-6.041-6.042-9.728-14.336-9.728-23.552s3.737-17.511 9.728-23.552c6.041-6.042 14.336-9.728 23.552-9.728s17.511 3.686 23.552 9.728c6.041 6.042 9.728 14.336 9.728 23.552s-3.686 17.511-9.728 23.552z" opacity="1" visibility="false" fill="#000000"></path>
</svg>
