<?xml version="1.0" encoding="utf-8"?>
<!-- Generated by IcoMoon.io -->
<!DOCTYPE svg PUBLIC "-//W3C//DTD SVG 1.1//EN" "http://www.w3.org/Graphics/SVG/1.1/DTD/svg11.dtd">
<svg version="1.1" xmlns="http://www.w3.org/2000/svg" xmlns:xlink="http://www.w3.org/1999/xlink" width="512" height="512" viewBox="0 0 512 512">
<g id="icomoon-ignore">
	<line stroke-width="1" x1="" y1="" x2="" y2="" stroke="#449FDB" opacity=""></line>
</g>
	<path d="M437.197 107.059h-357.632c-14.131 0.051-25.549 11.469-25.6 25.6v245.095c0.051 14.131 11.469 25.549 25.6 25.6h134.605l42.855 59.289 44.237-59.289h135.936c14.131-0.051 25.549-11.469 25.6-25.6v-245.095c0-14.131-11.418-25.549-25.6-25.6zM442.317 377.753c0 1.382-0.563 2.611-1.536 3.635-0.973 0.973-2.202 1.485-3.584 1.485h-146.176l-33.69 45.159-32.614-45.159h-145.203c-1.382 0-2.611-0.563-3.584-1.485-0.973-0.973-1.485-2.202-1.536-3.635v-245.095c0-1.382 0.563-2.611 1.536-3.584s2.201-1.485 3.584-1.536h357.683c1.382 0 2.611 0.563 3.584 1.536s1.485 2.202 1.536 3.584v245.095z" opacity="1" visibility="false" fill="#000000"></path>
</svg>
