<?xml version="1.0" encoding="utf-8"?>
<!-- Generated by IcoMoon.io -->
<!DOCTYPE svg PUBLIC "-//W3C//DTD SVG 1.1//EN" "http://www.w3.org/Graphics/SVG/1.1/DTD/svg11.dtd">
<svg version="1.1" xmlns="http://www.w3.org/2000/svg" xmlns:xlink="http://www.w3.org/1999/xlink" width="512" height="512" viewBox="0 0 512 512">
<g id="icomoon-ignore">
	<line stroke-width="1" x1="" y1="" x2="" y2="" stroke="#449FDB" opacity=""></line>
</g>
	<path d="M407.040 143.36h-87.194v-35.43c-0.051-14.131-11.469-25.549-25.6-25.6h-189.286c-14.131 0.051-25.549 11.469-25.6 25.6v296.141c0.051 14.131 11.469 25.549 25.6 25.6h71.782v15.769c0.051 14.131 11.469 25.549 25.6 25.6h111.001c6.144-0.051 12.185-1.587 17.92-3.891 5.735-2.355 11.161-5.478 15.565-9.728l71.783-70.246c4.403-4.352 7.577-9.728 10.035-15.462 2.406-5.735 3.993-11.776 4.045-17.971v-184.781c-0.051-14.131-11.469-25.549-25.651-25.6zM104.96 409.241c-1.382 0-2.611-0.563-3.635-1.536-0.973-0.973-1.485-2.202-1.485-3.584v-296.141c0-1.382 0.563-2.611 1.485-3.584 0.973-0.973 2.201-1.485 3.635-1.536h189.286c1.382 0 2.611 0.563 3.635 1.536 0.973 0.973 1.485 2.201 1.485 3.584v35.379h-97.075c-14.131 0.051-25.549 11.469-25.6 25.6v240.281h-71.731zM202.291 450.56c-1.382 0-2.611-0.563-3.635-1.536-0.973-0.973-1.485-2.202-1.485-3.584v-276.48c0-1.382 0.563-2.611 1.485-3.584 1.024-0.973 2.253-1.536 3.635-1.536h204.749c1.382 0 2.611 0.563 3.635 1.536 0.973 0.973 1.485 2.202 1.485 3.584v184.729c0 1.536-0.409 3.942-1.127 6.451h-69.017c-14.131 0.051-25.549 11.469-25.6 25.6v64.461c-1.178 0.256-2.304 0.358-3.123 0.358h-111.001zM336.896 438.425v-52.685c0-1.382 0.563-2.611 1.485-3.584 0.973-0.973 2.202-1.485 3.635-1.536h53.913l-59.034 57.805z" opacity="1" visibility="false" fill="#000000"></path>
</svg>
