<?xml version="1.0" encoding="utf-8"?>
<!-- Generated by IcoMoon.io -->
<!DOCTYPE svg PUBLIC "-//W3C//DTD SVG 1.1//EN" "http://www.w3.org/Graphics/SVG/1.1/DTD/svg11.dtd">
<svg version="1.1" xmlns="http://www.w3.org/2000/svg" xmlns:xlink="http://www.w3.org/1999/xlink" width="512" height="512" viewBox="0 0 512 512">
<g id="icomoon-ignore">
	<line stroke-width="1" x1="" y1="" x2="" y2="" stroke="#449FDB" opacity=""></line>
</g>
	<path d="M115.814 222.72c-7.834 10.649-8.653 25.958-2.713 37.683 5.683 11.111 16.333 16.333 28.467 16.333 16.179 0 32.41 0 48.589 0 7.936 0 15.872 0 23.808 0 4.096 0 9.113-0.768 13.107 0.307 12.647 3.379 9.831 20.634 3.226 27.904-8.345 9.216-18.023 17.613-26.778 26.522-6.758 6.912-15.667 13.671-19.865 22.528-5.018 10.547-3.379 22.784 0.358 33.433 4.506 12.902 12.083 23.808 20.173 34.611l161.945-131.482c0-36.659 0-73.319 0-110.029 0-16.179 0-32.41 0-48.589 0-8.192 0.051-16.435-3.635-24.013-6.144-12.442-19.507-16.947-32.205-19.507-38.861-7.834-78.899-11.879-118.323-16.025-9.472-0.973-18.944-1.945-28.467-2.56-6.502-0.461-13.209-1.024-19.559 0.871-19.507 5.734-25.191 29.747-17.561 46.746-20.377 5.069-27.443 29.491-19.405 47.257-24.781 6.605-29.747 42.138-11.162 58.010zM126.618 186.317c3.789-4.71 9.881-3.84 15.309-3.84 4.506 0 9.011 0 13.517 0 4.762 0 9.472 0 14.233 0v-18.841c-2.458 0-4.966 0-7.424 0-4.966 0-11.264 1.126-15.309-2.509-6.912-6.246-6.349-23.091 4.198-25.447 5.018-1.126 10.905-0.307 15.975-0.307 4.096 0 8.192 0 12.288 0v-18.841c-6.349 0-12.237 0.563-15.616-6.041-4.096-8.090-2.099-22.169 9.113-22.221h1.587c25.088 0.512 50.432 4.403 75.315 7.475 25.6 3.174 51.507 6.144 76.8 11.162 5.223 1.024 11.111 2.201 15.565 5.376 4.403 3.225 5.12 8.55 5.12 13.671 0 3.994 0 7.936 0 11.929 0 15.053 0 30.106 0 45.159 0 31.642 0 63.283 0 94.925 0 1.229 0 2.457 0 3.635l-139.213 113.049c-5.222-9.113-14.233-26.573-5.018-35.891 9.933-9.933 19.661-20.070 29.645-29.952 8.704-8.601 17.817-16.026 21.043-28.416 2.97-11.52 0.154-24.32-7.987-33.127-10.701-11.52-26.163-9.37-40.294-9.37-17.459 0-34.918 0-52.377 0-4.045 0-8.089 0-12.135 0-8.294 0-12.903-6.042-12.903-14.131-0.051-8.601 4.966-14.131 13.517-14.131 5.734 0 11.417 0 17.152 0v-18.841c-7.885 0-15.719 0-23.552 0-11.879-0.102-15.104-16.487-8.55-24.474z" opacity="1" visibility="false" fill="#000000"></path>
	<path d="M115.814 222.72c-1.433-1.229-0.973 1.28 0 0v0z" opacity="1" visibility="false" fill="#000000"></path>
	<path d="M386.969 100.198h40.96v190.413h-40.96v-190.413z" opacity="1" visibility="false" fill="#000000"></path>
</svg>
