<?xml version="1.0" encoding="utf-8"?>
<!-- Generated by IcoMoon.io -->
<!DOCTYPE svg PUBLIC "-//W3C//DTD SVG 1.1//EN" "http://www.w3.org/Graphics/SVG/1.1/DTD/svg11.dtd">
<svg version="1.1" xmlns="http://www.w3.org/2000/svg" xmlns:xlink="http://www.w3.org/1999/xlink" width="256" height="256" viewBox="0 0 256 256">
<g id="icomoon-ignore">
	<line stroke-width="1" x1="" y1="" x2="" y2="" stroke="#449FDB" opacity=""></line>
</g>
	<path d="M76.416 65.945v0 0h0.051c1.817 0 3.609 0 5.376 0 7.552 0 14.541-0.103 21.197-1.485 6.63-1.383 13.005-4.275 18.329-9.651l-7.245-7.245c-3.84 3.815-7.936 5.709-13.21 6.861-5.248 1.127-11.623 1.28-19.072 1.28-1.741 0-3.533 0-5.376 0h-0.077c-20.045 0-36.685 7.091-47.104 18.637l7.603 6.861c8.141-9.037 21.837-15.258 39.526-15.258z" opacity="1" visibility="false" fill="#000000"></path>
	<path d="M69.299 89.651c0.615 3.968 4.326 6.681 8.269 6.067 3.968-0.615 6.681-4.326 6.067-8.269-0.281-1.843-1.254-3.405-2.611-4.505 7.27 0.077 12.928 2.841 16.179 6.938l3.993-3.2c-4.454-5.581-11.802-8.883-20.505-8.883-1.843 0-3.737 0.153-5.683 0.435v0c-10.88 1.689-18.919 7.603-22.169 15.385l4.736 1.971c1.92-4.608 6.297-8.678 12.749-10.906-0.871 1.433-1.305 3.174-1.024 4.966z" opacity="1" visibility="false" fill="#000000"></path>
	<path d="M198.375 95.616l4.736-1.971c-3.251-7.808-11.29-13.722-22.169-15.385-1.946-0.307-3.84-0.435-5.683-0.435-8.679 0-16.051 3.302-20.506 8.883l3.994 3.2c3.277-4.096 8.909-6.835 16.179-6.938-1.357 1.101-2.329 2.637-2.611 4.505-0.614 3.968 2.099 7.654 6.067 8.269 3.942 0.615 7.655-2.099 8.269-6.067 0.281-1.792-0.154-3.533-1.049-4.966 6.502 2.227 10.88 6.297 12.774 10.906z" opacity="1" visibility="false" fill="#000000"></path>
	<path d="M179.584 55.706v0 0 0 0 0h-0.077c-1.843 0-3.635 0-5.376 0-7.424 0-13.824-0.154-19.072-1.28-5.274-1.152-9.369-3.072-13.209-6.861l-7.245 7.245c5.325 5.35 11.699 8.269 18.329 9.651 6.656 1.408 13.645 1.485 21.197 1.485 1.767 0 3.559 0 5.376 0h0.051c17.69 0 31.386 6.221 39.475 15.257l7.603-6.835c-10.343-11.571-26.983-18.663-47.053-18.663z" opacity="1" visibility="false" fill="#000000"></path>
	<path d="M118.067 154.266c-0.461-0.793-0.717-1.664-0.717-2.816h-7.68c0 2.458 0.64 4.762 1.766 6.681 1.715 2.918 4.377 4.915 7.27 6.169 2.918 1.255 6.118 1.843 9.319 1.843 4.25-0.025 8.55-1.024 12.109-3.353 1.767-1.178 3.353-2.714 4.48-4.659 1.126-1.92 1.767-4.25 1.767-6.681h-7.68c0 1.178-0.281 2.023-0.717 2.816-0.666 1.178-1.92 2.227-3.712 2.995-1.767 0.768-3.994 1.203-6.246 1.203-2.995 0.025-5.965-0.793-7.834-2.073-0.999-0.64-1.689-1.357-2.125-2.125z" opacity="1" visibility="false" fill="#000000"></path>
	<path d="M128 185.6c-13.184 0-21.401 0.87-27.802 2.765-3.174 0.947-5.862 2.15-8.32 3.559s-4.685 2.944-7.066 4.633c-1.741 1.229-2.15 3.635-0.921 5.351 1.229 1.741 3.635 2.15 5.35 0.922 2.355-1.664 4.377-3.072 6.4-4.224 3.046-1.715 6.195-2.995 11.111-3.891 4.915-0.922 11.571-1.408 21.222-1.408 12.851 0 20.275 1.024 25.497 2.662 2.611 0.819 4.71 1.767 6.809 2.918 2.073 1.152 4.173 2.509 6.605 4.045 1.792 1.126 4.173 0.589 5.299-1.203s0.589-4.173-1.203-5.299c-2.381-1.511-4.583-2.944-6.989-4.275-3.635-2.023-7.782-3.738-13.389-4.839-5.607-1.126-12.672-1.715-22.605-1.715z" opacity="1" visibility="false" fill="#000000"></path>
</svg>
