<?xml version="1.0" encoding="utf-8"?>
<!-- Generated by IcoMoon.io -->
<!DOCTYPE svg PUBLIC "-//W3C//DTD SVG 1.1//EN" "http://www.w3.org/Graphics/SVG/1.1/DTD/svg11.dtd">
<svg version="1.1" xmlns="http://www.w3.org/2000/svg" xmlns:xlink="http://www.w3.org/1999/xlink" width="512" height="512" viewBox="0 0 512 512">
<g id="icomoon-ignore">
	<line stroke-width="1" x1="" y1="" x2="" y2="" stroke="#449FDB" opacity=""></line>
</g>
	<path d="M430.336 117.094h-348.672c-14.131 0.051-25.549 11.469-25.6 25.6v226.662c0.051 14.131 11.469 25.549 25.6 25.6h348.672c14.131-0.051 25.549-11.469 25.6-25.6v-226.662c-0.051-14.183-11.469-25.6-25.6-25.6zM433.92 372.941c-0.973 0.973-2.202 1.485-3.584 1.485h-348.672c-1.382 0-2.611-0.563-3.584-1.485-0.973-0.973-1.485-2.202-1.536-3.635v-226.611c0-1.382 0.563-2.611 1.536-3.635 0.973-0.973 2.201-1.485 3.584-1.485h348.672c1.382 0 2.611 0.563 3.584 1.485 0.973 0.973 1.485 2.202 1.536 3.635v226.662c0 1.382-0.563 2.611-1.536 3.584z" opacity="1" visibility="false" fill="#000000"></path>
	<path d="M333.671 256c0 42.896-34.774 77.671-77.671 77.671s-77.671-34.774-77.671-77.671c0-42.896 34.774-77.671 77.671-77.671s77.671 34.774 77.671 77.671z" opacity="1" visibility="false" fill="#000000"></path>
</svg>
