<?xml version="1.0" encoding="utf-8"?>
<!-- Generated by IcoMoon.io -->
<!DOCTYPE svg PUBLIC "-//W3C//DTD SVG 1.1//EN" "http://www.w3.org/Graphics/SVG/1.1/DTD/svg11.dtd">
<svg version="1.1" xmlns="http://www.w3.org/2000/svg" xmlns:xlink="http://www.w3.org/1999/xlink" width="256" height="256" viewBox="0 0 256 256">
<g id="icomoon-ignore">
	<line stroke-width="1" x1="" y1="" x2="" y2="" stroke="#449FDB" opacity=""></line>
</g>
	<path d="M94.618 209.664h67.251c7.066-0.025 12.774-5.734 12.8-12.8v-22.528h34.893c7.065-0.025 12.774-5.734 12.8-12.8v-74.445c-0.025-7.066-5.734-12.775-12.8-12.8h-21.478v-32.947c-0.025-4.249-3.43-7.654-7.68-7.68h-104.32c-4.249 0.026-7.654 3.431-7.68 7.68v32.973h-21.478c-7.066 0.025-12.775 5.734-12.8 12.8v74.419c0.026 7.065 5.734 12.774 12.8 12.8h34.893v22.528c0 7.091 5.709 12.8 12.8 12.8zM163.661 198.681c-0.487 0.487-1.101 0.743-1.792 0.768h-67.251c-0.691 0-1.305-0.281-1.792-0.768s-0.768-1.101-0.768-1.792v-54.835c0-0.691 0.281-1.305 0.768-1.792s1.101-0.743 1.792-0.768h67.251c0.691 0 1.305 0.281 1.792 0.768s0.743 1.101 0.768 1.792v54.809c0 0.717-0.281 1.331-0.768 1.817zM78.643 43.904h99.2v30.413h-99.2v-30.413zM46.925 164.096c-0.691 0-1.306-0.281-1.818-0.743-0.486-0.487-0.742-1.101-0.742-1.817v-74.445c0-0.691 0.282-1.331 0.742-1.817 0.486-0.487 1.101-0.743 1.818-0.743h162.637c0.691 0 1.305 0.281 1.817 0.743 0.487 0.487 0.743 1.101 0.743 1.817v74.445c0 0.691-0.281 1.331-0.743 1.817-0.487 0.487-1.101 0.743-1.817 0.743h-34.893v-22.041c-0.025-7.065-5.734-12.774-12.8-12.8h-67.251c-7.066 0.025-12.775 5.734-12.8 12.8v22.041h-34.893z" opacity="1" visibility="false" fill="#000000"></path>
</svg>
