<?xml version="1.0" encoding="utf-8"?>
<!-- Generated by IcoMoon.io -->
<!DOCTYPE svg PUBLIC "-//W3C//DTD SVG 1.1//EN" "http://www.w3.org/Graphics/SVG/1.1/DTD/svg11.dtd">
<svg version="1.1" xmlns="http://www.w3.org/2000/svg" xmlns:xlink="http://www.w3.org/1999/xlink" width="512" height="512" viewBox="0 0 512 512">
<g id="icomoon-ignore">
	<line stroke-width="1" x1="" y1="" x2="" y2="" stroke="#449FDB" opacity=""></line>
</g>
	<path d="M256 207.36c-26.88 0-48.64 21.76-48.64 48.64s21.76 48.64 48.64 48.64c26.88 0 48.64-21.76 48.64-48.64s-21.76-48.64-48.64-48.64zM279.552 279.552c-6.041 6.041-14.336 9.728-23.552 9.728s-17.511-3.738-23.552-9.728c-6.042-6.041-9.728-14.336-9.728-23.552s3.738-17.511 9.728-23.552c6.042-6.042 14.336-9.728 23.552-9.728s17.51 3.738 23.552 9.728c6.041 6.042 9.728 14.336 9.728 23.552s-3.687 17.51-9.728 23.552z" opacity="1" visibility="false" fill="#000000"></path>
	<path d="M257.178 197.274c2.816 0 5.12-2.304 5.12-5.12v-15.513c0-2.816-2.304-5.12-5.12-5.12s-5.12 2.304-5.12 5.12v15.513c0 2.816 2.304 5.12 5.12 5.12z" opacity="1" visibility="false" fill="#000000"></path>
	<path d="M257.178 317.082c-2.816 0-5.12 2.304-5.12 5.12v13.159c0 2.816 2.304 5.12 5.12 5.12s5.12-2.304 5.12-5.12v-13.159c0-2.816-2.304-5.12-5.12-5.12z" opacity="1" visibility="false" fill="#000000"></path>
	<path d="M335.36 250.88h-15.514c-2.816 0-5.12 2.304-5.12 5.12s2.304 5.12 5.12 5.12h15.514c2.816 0 5.12-2.304 5.12-5.12s-2.304-5.12-5.12-5.12z" opacity="1" visibility="false" fill="#000000"></path>
	<path d="M189.798 250.88h-13.159c-2.816 0-5.12 2.304-5.12 5.12s2.304 5.12 5.12 5.12h13.159c2.816 0 5.12-2.304 5.12-5.12s-2.304-5.12-5.12-5.12z" opacity="1" visibility="false" fill="#000000"></path>
	<path d="M304.793 299.469c-1.997-1.997-5.274-1.997-7.219 0s-1.997 5.274 0 7.219l10.957 10.957c1.997 1.997 5.274 1.997 7.219 0v0c1.997-1.997 1.997-5.274 0-7.219l-10.957-10.957z" opacity="1" visibility="false" fill="#000000"></path>
	<path d="M205.568 214.733c1.997 1.997 5.274 1.997 7.219 0s1.997-5.274 0-7.219l-9.319-9.319c-1.997-1.997-5.274-1.997-7.219 0v0c-1.997 1.997-1.997 5.274 0 7.219l9.319 9.319z" opacity="1" visibility="false" fill="#000000"></path>
	<path d="M304.793 212.531l10.957-10.957c1.997-1.997 1.997-5.274 0-7.219v0c-1.997-1.997-5.274-1.997-7.219 0l-10.957 10.957c-1.997 1.997-1.997 5.274 0 7.219s5.223 1.997 7.219 0z" opacity="1" visibility="false" fill="#000000"></path>
	<path d="M205.568 297.267l-9.319 9.319c-1.997 1.997-1.997 5.274 0 7.219v0c1.997 1.997 5.274 1.997 7.219 0l9.319-9.319c1.997-1.997 1.997-5.274 0-7.219s-5.222-1.997-7.219 0z" opacity="1" visibility="false" fill="#000000"></path>
	<path d="M276.48 256c0 11.311-9.169 20.48-20.48 20.48s-20.48-9.169-20.48-20.48c0-11.311 9.169-20.48 20.48-20.48s20.48 9.169 20.48 20.48z" opacity="1" visibility="false" fill="#000000"></path>
</svg>
