<?xml version="1.0" encoding="utf-8"?>
<!-- Generated by IcoMoon.io -->
<!DOCTYPE svg PUBLIC "-//W3C//DTD SVG 1.1//EN" "http://www.w3.org/Graphics/SVG/1.1/DTD/svg11.dtd">
<svg version="1.1" xmlns="http://www.w3.org/2000/svg" xmlns:xlink="http://www.w3.org/1999/xlink" width="512" height="512" viewBox="0 0 512 512">
<g id="icomoon-ignore">
	<line stroke-width="1" x1="" y1="" x2="" y2="" stroke="#449FDB" opacity=""></line>
</g>
	<path d="M95.437 382.259c2.918 4.25 6.349 8.499 10.189 12.339v0c5.837 5.735 13.619 10.701 22.272 15.053 8.601 4.25 17.92 7.68 26.675 9.37v0c2.611 0.512 5.222 0.666 7.987 0.666 5.12 0 10.701-0.666 16.64-1.843 17.817-3.481 39.373-11.366 58.163-21.76l0.307-0.205-0.307 0.154c27.955-15.616 66.918-44.954 88.832-66.918 21.811-22.016 50.995-60.979 66.611-88.781v0c6.912-12.391 12.697-26.061 16.845-39.014 4.096-13.005 6.656-25.088 6.656-35.277 0-2.816-0.205-5.53-0.717-8.192v0c-1.741-8.704-5.171-17.92-9.472-26.471s-9.267-16.333-15.002-22.067v0c-5.12-5.12-10.957-9.575-16.64-12.954-2.867-1.689-5.683-3.123-8.499-4.249-2.867-1.075-5.632-1.945-9.216-1.997-2.151 0-3.84 0.409-5.478 0.871-2.816 0.819-5.427 2.048-8.192 3.533-8.141 4.505-17.51 11.776-26.010 20.224-6.451 6.451-12.185 13.465-16.538 20.019-2.202 3.277-3.993 6.4-5.427 9.472-0.717 1.536-1.331 3.072-1.792 4.71s-0.819 3.328-0.87 5.478c0.051 3.533 0.921 6.349 1.997 9.216 1.639 4.25 4.045 8.448 7.014 12.749 2.918 4.25 6.4 8.499 10.24 12.339v0c7.629 7.629 15.769 15.769 19.865 19.865-0.103 1.382-0.512 3.686-1.28 6.298-0.973 3.226-2.406 6.963-4.25 10.701v0c-1.127 2.253-3.226 5.734-5.99 9.677-8.346 12.032-22.425 28.826-35.328 41.728-8.601 8.601-19.558 18.381-30.106 26.983-10.496 8.601-20.787 16.179-27.443 20.122v0c-5.478 3.328-11.008 5.99-15.513 7.783-2.253 0.87-4.25 1.536-5.837 1.945-0.358 0.103-0.717 0.154-1.024 0.256-4.25-4.25-11.981-11.981-19.251-19.251-5.069-5.017-10.701-9.523-16.128-13.056-2.714-1.741-5.427-3.226-8.089-4.454-2.714-1.178-5.274-2.099-8.704-2.355v0l-0.922-0.051c-2.15 0-3.84 0.409-5.427 0.87-2.816 0.819-5.325 2.048-8.038 3.533-8.038 4.505-17.305 11.725-25.856 20.224v0c-6.605 6.605-12.544 13.773-17.101 20.377-2.253 3.328-4.198 6.502-5.683 9.575-0.768 1.536-1.382 3.072-1.894 4.659-0.512 1.639-0.921 3.328-1.024 5.427v-0.051 0.563c0.051 3.533 0.871 6.298 1.945 9.165 1.536 4.454 3.891 8.704 6.809 13.005zM207.155 336.589c0 0 0 0 0 0v0 0zM115.763 346.675c3.174-4.096 7.014-8.448 11.008-12.442v0c5.581-5.529 11.776-10.649 16.947-14.080 2.56-1.741 4.915-3.072 6.554-3.84 0.614-0.307 1.075-0.461 1.485-0.615 0.512 0.154 1.28 0.461 2.15 0.921 4.506 2.151 11.776 7.373 17.203 12.8 8.909 8.909 18.637 18.637 21.657 21.657v0c1.894 1.894 3.994 2.765 5.683 3.277 1.741 0.461 3.226 0.563 4.608 0.615 2.765 0 5.222-0.461 7.885-1.127 7.782-2.048 17.101-6.247 26.778-12.032v0c8.243-4.966 18.791-12.8 29.849-21.863 11.008-9.011 22.375-19.149 31.642-28.365v0c9.267-9.267 18.791-20.019 26.829-30.106 4.045-5.069 7.731-9.933 10.803-14.387 3.123-4.506 5.632-8.55 7.526-12.237v0c2.355-4.762 4.25-9.523 5.581-14.029 1.331-4.557 2.151-8.704 2.151-12.903 0-1.741-0.154-3.482-0.666-5.478-0.512-1.946-1.485-4.25-3.635-6.451-2.969-2.97-12.697-12.697-21.606-21.607v0c-3.789-3.789-7.475-8.55-9.933-12.647-1.229-2.048-2.202-3.942-2.714-5.376-0.256-0.717-0.461-1.28-0.512-1.587 0.205-0.666 0.768-2.15 1.792-3.891 3.072-5.734 9.625-14.336 16.793-21.504 5.427-5.478 11.673-10.547 16.896-13.977 2.611-1.741 4.966-3.072 6.656-3.84 0.819-0.359 1.433-0.615 1.792-0.717 0.461 0.103 1.382 0.409 2.457 0.871 4.557 1.945 11.93 6.912 17.255 12.288 3.226 3.174 7.577 9.574 11.111 16.742 3.584 7.117 6.451 15.104 7.68 21.299v0c0.205 0.922 0.358 2.406 0.307 4.198 0.051 6.605-1.997 17.459-5.735 29.082-3.687 11.623-9.011 24.218-15.207 35.226v0c-14.183 25.447-43.367 64.409-63.232 84.327v0c-19.763 19.968-58.675 49.305-84.224 63.437l-0.307 0.154 0.307-0.205c-11.111 6.195-23.808 11.52-35.584 15.257-5.888 1.843-11.52 3.328-16.537 4.301s-9.472 1.433-12.749 1.433c-1.741 0-3.174-0.154-4.096-0.307v0c-6.246-1.178-14.233-4.045-21.453-7.629-7.168-3.533-13.671-7.936-16.845-11.161v0c-3.789-3.789-7.373-8.448-9.779-12.544-1.229-2.048-2.15-3.942-2.662-5.325-0.256-0.717-0.461-1.28-0.512-1.639v0c0.205-0.563 0.615-1.69 1.331-3.021 1.485-2.969 4.096-6.861 7.27-10.957z" opacity="1" visibility="false" fill="#000000"></path>
	<path d="M326.195 329.165v0 0z" opacity="1" visibility="false" fill="#000000"></path>
</svg>
