<?xml version="1.0" encoding="utf-8"?>
<!-- Generated by IcoMoon.io -->
<!DOCTYPE svg PUBLIC "-//W3C//DTD SVG 1.1//EN" "http://www.w3.org/Graphics/SVG/1.1/DTD/svg11.dtd">
<svg version="1.1" xmlns="http://www.w3.org/2000/svg" xmlns:xlink="http://www.w3.org/1999/xlink" width="512" height="512" viewBox="0 0 512 512">
<g id="icomoon-ignore">
	<line stroke-width="1" x1="" y1="" x2="" y2="" stroke="#449FDB" opacity=""></line>
</g>
	<path d="M348.723 147.815h-299.776c-14.131 0.051-25.549 11.469-25.6 25.6v165.171c0.051 14.131 11.469 25.549 25.6 25.6h299.725c14.131-0.051 25.549-11.469 25.6-25.6v-165.171c0-14.131-11.418-25.549-25.549-25.6zM352.307 342.17c-0.973 0.973-2.202 1.485-3.635 1.536h-299.725c-1.383 0-2.611-0.563-3.635-1.536-0.973-0.973-1.485-2.202-1.485-3.584v-165.171c0-1.382 0.563-2.611 1.485-3.584 0.973-0.973 2.202-1.485 3.635-1.536h299.725c1.382 0 2.611 0.563 3.635 1.536 0.973 0.973 1.485 2.202 1.485 3.584v165.171c0 1.382-0.512 2.611-1.485 3.584z" opacity="1" visibility="false" fill="#000000"></path>
	<path d="M73.779 220.57c-3.533 2.048-9.831 3.533-18.841 4.403v9.575h23.296v70.144h13.261v-98.714h-9.831c-1.689 7.68-4.352 12.544-7.885 14.592z" opacity="1" visibility="false" fill="#000000"></path>
	<path d="M131.84 220.57c-3.533 2.048-9.831 3.533-18.841 4.403v9.575h23.296v70.144h13.261v-98.714h-9.779c-1.741 7.68-4.403 12.544-7.936 14.592z" opacity="1" visibility="false" fill="#000000"></path>
	<path d="M168.96 231.526h14.439v15.104h-14.439v-15.104z" opacity="1" visibility="false" fill="#000000"></path>
	<path d="M168.96 289.587h14.439v15.104h-14.439v-15.104z" opacity="1" visibility="false" fill="#000000"></path>
	<path d="M230.963 205.568c-14.233 0-24.115 7.526-29.542 22.579-2.918 8.089-4.352 17.715-4.352 28.979 0 14.541 2.406 26.112 7.27 34.765 5.786 10.342 14.695 15.514 26.573 15.514 13.209 0 22.681-6.298 28.518-18.944 3.993-8.807 5.99-19.968 5.99-33.434 0-14.183-2.202-25.395-6.656-33.536-5.734-10.649-15.001-15.923-27.802-15.923zM246.221 287.437c-3.84 5.735-9.011 8.601-15.463 8.601-8.038 0-13.721-4.659-17.049-14.029-2.15-6.144-3.277-14.233-3.277-24.371 0-13.415 1.69-23.603 5.12-30.464 3.379-6.912 8.755-10.343 16.128-10.343 7.987 0 13.363 3.635 16.128 10.905s4.147 16.537 4.147 27.802c0.051 15.513-1.894 26.163-5.734 31.898z" opacity="1" visibility="false" fill="#000000"></path>
	<path d="M309.76 205.568c-14.233 0-24.115 7.526-29.543 22.579-2.918 8.089-4.352 17.715-4.352 28.979 0 14.541 2.406 26.112 7.271 34.765 5.786 10.342 14.695 15.514 26.573 15.514 13.209 0 22.681-6.298 28.519-18.944 3.993-8.807 6.041-19.968 6.041-33.434 0-14.183-2.202-25.395-6.656-33.536-5.735-10.649-15.002-15.923-27.853-15.923zM325.069 287.437c-3.84 5.735-9.011 8.601-15.462 8.601-8.038 0-13.721-4.659-17.050-14.029-2.202-6.144-3.277-14.233-3.277-24.371 0-13.415 1.69-23.603 5.069-30.464 3.379-6.912 8.755-10.343 16.128-10.343 7.987 0 13.363 3.635 16.128 10.905s4.147 16.537 4.147 27.802c0.051 15.513-1.843 26.163-5.683 31.898z" opacity="1" visibility="false" fill="#000000"></path>
	<path d="M463.053 296.397h-53.453c-8.448 0-10.957 5.325-5.632 11.878l22.579 27.495c5.376 6.502 14.131 6.502 19.507 0l22.579-27.495c5.376-6.553 2.867-11.878-5.581-11.878z" opacity="1" visibility="false" fill="#000000"></path>
	<path d="M409.6 216.013h53.453c8.448 0 10.957-5.325 5.632-11.879l-22.579-27.494c-5.376-6.554-14.131-6.554-19.507 0l-22.579 27.494c-5.376 6.553-2.867 11.879 5.581 11.879z" opacity="1" visibility="false" fill="#000000"></path>
</svg>
