<?xml version="1.0" encoding="utf-8"?>
<!-- Generated by IcoMoon.io -->
<!DOCTYPE svg PUBLIC "-//W3C//DTD SVG 1.1//EN" "http://www.w3.org/Graphics/SVG/1.1/DTD/svg11.dtd">
<svg version="1.1" xmlns="http://www.w3.org/2000/svg" xmlns:xlink="http://www.w3.org/1999/xlink" width="256" height="256" viewBox="0 0 256 256">
<g id="icomoon-ignore">
	<line stroke-width="1" x1="" y1="" x2="" y2="" stroke="#449FDB" opacity=""></line>
</g>
	<path d="M49.383 238.695l43.853-9.933c0 0-4.429-10.393-11.751-8.73-6.451 1.459-12.8 2.893-14.285 3.226l14.643-19.712-8.218-6.093-14.643 19.712c-0.102-1.511-0.589-8.038-1.024-14.592-0.538-7.501-11.751-8.73-11.751-8.73l3.175 44.851z" opacity="1" visibility="false" fill="#000000"></path>
	<path d="M76.749 176.589c0 11.315 9.165 20.48 20.48 20.48s20.48-9.165 20.48-20.48c0-11.315-9.165-20.48-20.48-20.48s-20.48 9.165-20.48 20.48zM110.029 176.589c0 7.065-5.734 12.8-12.8 12.8s-12.8-5.734-12.8-12.8c0-7.065 5.734-12.8 12.8-12.8s12.8 5.734 12.8 12.8z" opacity="1" visibility="false" fill="#000000"></path>
	<path d="M40.602 110.106l7.347-7.117-17.075-17.613c1.536 0.128 8.013 0.717 14.567 1.357 7.475 0.691 10.521-10.189 10.521-10.189l-44.749-4.121 2.713 44.877c0 0 10.957-2.688 10.496-10.189-0.41-6.605-0.794-13.107-0.896-14.617l17.075 17.613z" opacity="1" visibility="false" fill="#000000"></path>
	<path d="M47.13 125.389c0 10.727 8.678 19.405 19.405 19.405s19.405-8.678 19.405-19.405c0-10.701-8.678-19.405-19.405-19.405s-19.405 8.678-19.405 19.405zM58.24 117.094c2.125-2.125 5.043-3.43 8.295-3.43s6.144 1.305 8.294 3.43c2.125 2.125 3.43 5.043 3.43 8.294s-1.305 6.144-3.43 8.294c-2.125 2.125-5.043 3.43-8.294 3.43s-6.144-1.305-8.294-3.43c-2.125-2.125-3.431-5.043-3.431-8.294s1.306-6.144 3.431-8.294z" opacity="1" visibility="false" fill="#000000"></path>
	<path d="M96.409 56.653c4.275-5.043 8.525-10.010 9.498-11.136l0.103 24.55 10.24-0.051-0.103-24.525c0.999 1.152 5.273 6.093 9.575 11.059 4.915 5.683 14.643-0.051 14.643-0.051l-29.465-33.997-29.133 34.227c0 0 9.754 5.657 14.643-0.077z" opacity="1" visibility="false" fill="#000000"></path>
	<path d="M126.925 98.995c0-10.701-8.678-19.405-19.405-19.405s-19.405 8.678-19.405 19.405c0 10.727 8.678 19.405 19.405 19.405 10.727-0.025 19.405-8.704 19.405-19.405zM115.814 107.264c-2.125 2.125-5.043 3.43-8.294 3.43s-6.144-1.305-8.294-3.43c-2.125-2.125-3.43-5.043-3.43-8.294s1.305-6.144 3.43-8.294c2.125-2.125 5.043-3.43 8.294-3.43s6.144 1.305 8.294 3.43c2.125 2.125 3.43 5.043 3.43 8.294s-1.305 6.169-3.43 8.294z" opacity="1" visibility="false" fill="#000000"></path>
	<path d="M203.187 107.853l7.296-44.365-44.953-0.486c0 0 1.894 11.136 9.421 11.213 6.605 0.051 13.133 0.128 14.643 0.153l-18.791 15.77 6.579 7.834 18.791-15.77c-0.256 1.51-1.305 7.936-2.381 14.439-1.229 7.424 9.395 11.213 9.395 11.213z" opacity="1" visibility="false" fill="#000000"></path>
	<path d="M131.2 112.435c0 10.727 8.678 19.405 19.405 19.405s19.405-8.678 19.405-19.405c0-10.701-8.678-19.405-19.405-19.405-10.726 0.025-19.405 8.704-19.405 19.405zM162.304 112.435c0 3.251-1.305 6.144-3.43 8.294-2.125 2.125-5.043 3.43-8.294 3.43s-6.144-1.305-8.294-3.43c-2.125-2.125-3.43-5.043-3.43-8.294s1.305-6.144 3.43-8.294c2.125-2.125 5.043-3.43 8.294-3.43s6.144 1.305 8.294 3.43c2.125 2.15 3.43 5.043 3.43 8.294z" opacity="1" visibility="false" fill="#000000"></path>
	<path d="M188.314 153.549c0-10.701-8.679-19.405-19.405-19.405s-19.405 8.678-19.405 19.405c0 10.726 8.679 19.405 19.405 19.405s19.405-8.678 19.405-19.405zM160.64 161.843c-2.125-2.125-3.43-5.043-3.43-8.294s1.305-6.144 3.43-8.294c2.125-2.125 5.043-3.43 8.294-3.43s6.144 1.305 8.294 3.43c2.125 2.125 3.43 5.043 3.43 8.294s-1.305 6.144-3.43 8.294c-2.125 2.125-5.043 3.43-8.294 3.43s-6.169-1.305-8.294-3.43z" opacity="1" visibility="false" fill="#000000"></path>
	<path d="M212.045 135.782c5.018 4.327 9.984 8.601 11.085 9.549l-24.55-0.051-0.025 10.24 24.525 0.051c-1.178 0.999-6.119 5.248-11.136 9.498-5.709 4.889-0.025 14.643-0.025 14.643l34.176-29.209-34.048-29.363c0.025 0-5.709 9.728 0 14.643z" opacity="1" visibility="false" fill="#000000"></path>
</svg>
