<?xml version="1.0" encoding="utf-8"?>
<!-- Generated by IcoMoon.io -->
<!DOCTYPE svg PUBLIC "-//W3C//DTD SVG 1.1//EN" "http://www.w3.org/Graphics/SVG/1.1/DTD/svg11.dtd">
<svg version="1.1" xmlns="http://www.w3.org/2000/svg" xmlns:xlink="http://www.w3.org/1999/xlink" width="512" height="512" viewBox="0 0 512 512">
<g id="icomoon-ignore">
	<line stroke-width="1" x1="" y1="" x2="" y2="" stroke="#449FDB" opacity=""></line>
</g>
	<path d="M445.031 299.827l-110.695-76.391c-3.328-2.304-7.014-3.482-10.701-3.482-4.915 0-9.575 2.15-12.749 5.837-3.379 3.942-4.762 9.216-3.891 14.848l20.992 132.864c1.485 9.267 9.113 15.974 18.176 15.974 3.584 0 7.168-1.075 10.342-3.021l22.887-14.387 14.387 22.887c3.789 5.99 10.24 9.575 17.357 9.575 3.84 0 7.629-1.075 10.906-3.123l7.424-4.659c4.608-2.918 7.834-7.475 9.063-12.8s0.307-10.803-2.611-15.462l-14.387-22.887 22.887-14.387c5.478-3.481 8.858-9.216 9.011-15.462 0.103-6.298-3.021-12.237-8.397-15.923zM436.224 318.106l-31.539 19.865c-2.406 1.485-3.123 4.659-1.587 7.065l19.865 31.539c1.485 2.406 0.768 5.581-1.587 7.065l-7.424 4.659c-0.921 0.563-1.843 0.819-2.816 0.819-1.69 0-3.379-0.87-4.352-2.406l-19.865-31.539c-0.973-1.536-2.663-2.406-4.352-2.406-0.921 0-1.894 0.256-2.714 0.768l-31.539 19.865c-0.717 0.461-1.485 0.666-2.151 0.666-1.485 0-2.714-1.075-2.969-3.021l-20.992-132.864c-0.307-1.894 0.307-2.918 1.433-2.918 0.563 0 1.229 0.256 1.997 0.768l110.695 76.442c2.304 1.587 2.253 4.147-0.103 5.632z" opacity="1" visibility="false" fill="#000000"></path>
	<path d="M97.075 303.36c-1.382 0-2.611-0.563-3.635-1.485-0.973-0.973-1.485-2.202-1.485-3.635v-151.706c0-1.434 0.563-2.662 1.485-3.635 0.973-0.973 2.201-1.485 3.635-1.485h274.432c1.382 0 2.611 0.563 3.635 1.485 0.973 0.973 1.485 2.202 1.485 3.635v87.808l20.48 14.029v-101.837c-0.051-14.131-11.469-25.549-25.6-25.6h-274.432c-14.131 0.051-25.549 11.469-25.6 25.6v151.705c0.051 14.131 11.469 25.549 25.6 25.6h208.026l-3.226-20.48h-204.8z" opacity="1" visibility="false" fill="#000000"></path>
</svg>
