<?xml version="1.0" encoding="utf-8"?>
<!-- Generated by IcoMoon.io -->
<!DOCTYPE svg PUBLIC "-//W3C//DTD SVG 1.1//EN" "http://www.w3.org/Graphics/SVG/1.1/DTD/svg11.dtd">
<svg version="1.1" xmlns="http://www.w3.org/2000/svg" xmlns:xlink="http://www.w3.org/1999/xlink" width="256" height="256" viewBox="0 0 256 256">
<g id="icomoon-ignore">
	<line stroke-width="1" x1="" y1="" x2="" y2="" stroke="#449FDB" opacity=""></line>
</g>
	<path d="M222.515 149.913l-55.347-38.195c-1.664-1.152-3.507-1.741-5.351-1.741-2.458 0-4.787 1.075-6.375 2.918-1.69 1.971-2.381 4.608-1.946 7.424l10.496 66.432c0.743 4.633 4.557 7.987 9.088 7.987 1.792 0 3.584-0.537 5.171-1.511l11.443-7.194 7.194 11.443c1.894 2.995 5.12 4.787 8.679 4.787 1.92 0 3.815-0.537 5.453-1.561l3.712-2.329c2.304-1.459 3.917-3.738 4.531-6.4s0.128-5.401-1.305-7.731l-7.194-11.443 11.443-7.194c2.765-1.741 4.429-4.608 4.506-7.731s-1.511-6.119-4.198-7.962zM218.112 159.053l-15.769 9.933c-1.203 0.743-1.561 2.329-0.793 3.533l9.933 15.769c0.743 1.203 0.384 2.791-0.793 3.533l-3.712 2.329c-0.461 0.281-0.922 0.41-1.408 0.41-0.845 0-1.69-0.435-2.176-1.203l-9.933-15.769c-0.487-0.768-1.331-1.203-2.176-1.203-0.461 0-0.947 0.128-1.357 0.384l-15.769 9.933c-0.358 0.231-0.743 0.333-1.075 0.333-0.743 0-1.357-0.537-1.485-1.511l-10.496-66.432c-0.154-0.947 0.154-1.459 0.717-1.459 0.281 0 0.614 0.128 0.999 0.384l55.347 38.221c1.152 0.793 1.126 2.073-0.051 2.816z" opacity="1" visibility="false" fill="#000000"></path>
	<path d="M48.538 151.68c-0.691 0-1.306-0.281-1.818-0.743-0.486-0.487-0.742-1.101-0.742-1.817v-75.853c0-0.717 0.282-1.331 0.742-1.817 0.486-0.487 1.101-0.743 1.818-0.743h137.216c0.691 0 1.305 0.281 1.817 0.743 0.487 0.487 0.743 1.101 0.743 1.817v43.904l10.24 7.014v-50.918c-0.025-7.066-5.734-12.775-12.8-12.8h-137.216c-7.066 0.026-12.775 5.734-12.8 12.8v75.853c0.026 7.065 5.734 12.774 12.8 12.8h104.013l-1.613-10.24h-102.4z" opacity="1" visibility="false" fill="#000000"></path>
</svg>
