<?xml version="1.0" encoding="utf-8"?>
<!-- Generated by IcoMoon.io -->
<!DOCTYPE svg PUBLIC "-//W3C//DTD SVG 1.1//EN" "http://www.w3.org/Graphics/SVG/1.1/DTD/svg11.dtd">
<svg version="1.1" xmlns="http://www.w3.org/2000/svg" xmlns:xlink="http://www.w3.org/1999/xlink" width="256" height="256" viewBox="0 0 256 256">
<g id="icomoon-ignore">
	<line stroke-width="1" x1="" y1="" x2="" y2="" stroke="#449FDB" opacity=""></line>
</g>
	<path d="M27.802 178.202c4.48 3.635 9.907 5.401 15.257 5.401 7.091 0 14.131-3.097 18.944-9.037 3.635-4.48 5.401-9.907 5.401-15.257 0-7.091-3.097-14.131-9.037-18.944-4.48-3.635-9.907-5.401-15.258-5.401-7.091 0-14.131 3.097-18.944 9.037-3.661 4.48-5.427 9.907-5.427 15.257 0 7.091 3.098 14.157 9.063 18.944zM30.105 148.839c3.303-4.071 8.090-6.195 12.953-6.195 3.687 0 7.347 1.203 10.445 3.686 4.071 3.303 6.195 8.089 6.195 12.953 0 3.686-1.203 7.347-3.687 10.445-3.303 4.071-8.090 6.195-12.953 6.195-3.687 0-7.347-1.203-10.445-3.686-4.070-3.303-6.195-8.089-6.195-12.953 0-3.686 1.203-7.373 3.686-10.445v0z" opacity="1" visibility="false" fill="#000000"></path>
	<path d="M20.659 182.656l-4.147 5.12c-0.896 1.101-0.717 2.714 0.384 3.609v0c1.101 0.896 2.713 0.717 3.61-0.384l4.147-5.12c0.896-1.101 0.717-2.714-0.384-3.609s-2.739-0.717-3.61 0.384z" opacity="1" visibility="false" fill="#000000"></path>
	<path d="M66.304 181.325l6.041 4.864c1.101 0.896 2.713 0.717 3.609-0.384s0.717-2.714-0.384-3.609l-6.041-4.864c-1.101-0.896-2.713-0.717-3.609 0.384s-0.717 2.714 0.384 3.609z" opacity="1" visibility="false" fill="#000000"></path>
	<path d="M15.719 140.493c1.101 0.896 2.714 0.717 3.609-0.384 0.87-1.101 0.717-2.714-0.384-3.609l-5.12-4.147c-1.101-0.896-2.713-0.717-3.61 0.384v0c-0.896 1.101-0.717 2.714 0.384 3.609l5.12 4.147z" opacity="1" visibility="false" fill="#000000"></path>
	<path d="M45.593 189.235v0c-1.408 0.154-2.432 1.408-2.279 2.816l0.819 7.706c0.154 1.408 1.408 2.432 2.816 2.279v0c1.408-0.154 2.432-1.408 2.279-2.816l-0.819-7.706c-0.154-1.408-1.434-2.432-2.816-2.279z" opacity="1" visibility="false" fill="#000000"></path>
	<path d="M39.219 129.664v0c1.408-0.154 2.432-1.408 2.279-2.816l-0.691-6.553c-0.154-1.408-1.408-2.432-2.816-2.278v0c-1.408 0.153-2.432 1.408-2.279 2.816l0.691 6.553c0.154 1.408 1.408 2.432 2.816 2.278z" opacity="1" visibility="false" fill="#000000"></path>
	<path d="M82.841 151.782l-7.706 0.819c-1.408 0.154-2.432 1.408-2.278 2.816s1.408 2.432 2.816 2.279l7.706-0.819c1.408-0.154 2.432-1.408 2.278-2.816v0c-0.128-1.408-1.408-2.432-2.816-2.279z" opacity="1" visibility="false" fill="#000000"></path>
	<path d="M13.312 161.767c-0.153-1.408-1.408-2.432-2.816-2.279l-6.553 0.691c-1.408 0.154-2.432 1.408-2.279 2.816v0c0.153 1.408 1.408 2.432 2.816 2.279l6.553-0.691c1.408-0.154 2.432-1.408 2.278-2.816z" opacity="1" visibility="false" fill="#000000"></path>
	<path d="M72.243 123.725v0c4.403 3.379 9.626 5.043 14.797 5.043 7.296 0 14.515-3.277 19.302-9.498v0c3.379-4.403 5.043-9.651 5.043-14.797 0-7.27-3.277-14.515-9.498-19.302v0c-4.403-3.379-9.651-5.043-14.797-5.043-7.27 0-14.515 3.277-19.302 9.498-3.379 4.403-5.043 9.651-5.043 14.797 0 7.27 3.277 14.515 9.498 19.302zM87.091 87.782c3.533 0 7.091 1.126 10.112 3.456v0c4.275 3.277 6.502 8.192 6.502 13.21 0 3.533-1.126 7.091-3.456 10.112v0c-3.277 4.275-8.192 6.502-13.21 6.502-3.558 0-7.091-1.126-10.112-3.456v0c-4.275-3.277-6.502-8.192-6.502-13.21 0-3.533 1.126-7.091 3.456-10.138 3.277-4.249 8.192-6.477 13.21-6.477z" opacity="1" visibility="false" fill="#000000"></path>
	<path d="M60.544 86.528c1.127 0.845 2.739 0.64 3.584-0.461v0c0.845-1.126 0.64-2.739-0.461-3.584l-6.144-4.736c-1.127-0.871-2.739-0.64-3.584 0.461-0.845 1.126-0.64 2.739 0.461 3.584l6.144 4.736z" opacity="1" visibility="false" fill="#000000"></path>
	<path d="M111.641 122.573c-0.845 1.127-0.64 2.739 0.461 3.584l5.222 4.019c1.126 0.87 2.739 0.64 3.584-0.461 0.845-1.126 0.64-2.739-0.461-3.584l-5.222-4.019c-1.101-0.871-2.713-0.665-3.584 0.461z" opacity="1" visibility="false" fill="#000000"></path>
	<path d="M108.544 80.665l4.736-6.144c0.845-1.127 0.64-2.739-0.461-3.584v0c-1.127-0.845-2.739-0.64-3.584 0.461l-4.71 6.144c-0.845 1.126-0.64 2.739 0.461 3.584s2.713 0.665 3.558-0.461z" opacity="1" visibility="false" fill="#000000"></path>
	<path d="M68.454 128.64c-1.126-0.845-2.739-0.64-3.584 0.461l-4.019 5.222c-0.845 1.126-0.64 2.739 0.461 3.584v0c1.127 0.845 2.739 0.64 3.584-0.461l4.019-5.222c0.871-1.101 0.665-2.739-0.461-3.584z" opacity="1" visibility="false" fill="#000000"></path>
	<path d="M48.819 112.717l6.528-0.845c1.383-0.179 2.381-1.485 2.202-2.867s-1.485-2.381-2.867-2.201l-6.528 0.845c-1.383 0.179-2.381 1.485-2.202 2.867v0c0.179 1.382 1.459 2.381 2.867 2.201z" opacity="1" visibility="false" fill="#000000"></path>
	<path d="M82.483 74.727v0c1.408-0.179 2.381-1.485 2.201-2.867l-0.999-7.68c-0.179-1.408-1.485-2.381-2.867-2.202v0c-1.382 0.179-2.381 1.485-2.201 2.867l0.999 7.68c0.179 1.382 1.485 2.381 2.867 2.201z" opacity="1" visibility="false" fill="#000000"></path>
	<path d="M91.802 145.715v0c1.408-0.179 2.381-1.485 2.201-2.867l-0.845-6.528c-0.179-1.408-1.485-2.381-2.867-2.202s-2.381 1.485-2.201 2.867l0.845 6.528c0.179 1.408 1.459 2.406 2.867 2.202z" opacity="1" visibility="false" fill="#000000"></path>
	<path d="M133.095 96.589c0 6.989 3.021 13.977 8.857 18.765v0c4.531 3.737 10.035 5.555 15.463 5.555 6.989 0 13.977-3.021 18.765-8.858v0c3.738-4.531 5.555-10.035 5.555-15.463 0-6.989-3.021-13.978-8.857-18.765v0c-4.531-3.737-10.035-5.555-15.463-5.555-6.989 0-13.977 3.021-18.765 8.858v0c-3.712 4.531-5.555 10.035-5.555 15.463zM157.44 79.975c3.738 0 7.475 1.229 10.573 3.814v0c3.994 3.302 6.042 8.038 6.042 12.851 0 3.737-1.229 7.475-3.815 10.573v0c-3.303 3.993-8.038 6.041-12.851 6.041-3.738 0-7.475-1.229-10.573-3.789v0c-3.994-3.302-6.042-8.038-6.042-12.851 0-3.737 1.229-7.475 3.815-10.573v0c3.303-4.019 8.038-6.067 12.851-6.067z" opacity="1" visibility="false" fill="#000000"></path>
	<path d="M132.327 75.162c1.075 0.896 2.714 0.743 3.609-0.333v0c0.896-1.075 0.743-2.713-0.333-3.609l-5.99-4.941c-1.075-0.896-2.713-0.743-3.609 0.359-0.896 1.075-0.743 2.713 0.359 3.609l5.965 4.915z" opacity="1" visibility="false" fill="#000000"></path>
	<path d="M179.712 73.6l4.941-5.99c0.896-1.075 0.743-2.713-0.333-3.609v0c-1.075-0.896-2.714-0.742-3.609 0.359l-4.941 5.99c-0.896 1.075-0.743 2.713 0.333 3.609s2.714 0.743 3.609-0.359z" opacity="1" visibility="false" fill="#000000"></path>
	<path d="M134.144 128.845l4.198-5.094c0.896-1.075 0.743-2.713-0.358-3.609s-2.714-0.743-3.609 0.359l-4.173 5.069c-0.896 1.075-0.743 2.714 0.333 3.609v0c1.101 0.922 2.714 0.768 3.609-0.333z" opacity="1" visibility="false" fill="#000000"></path>
	<path d="M190.183 96.717l7.731-0.743c1.408-0.128 2.432-1.382 2.304-2.79v0c-0.128-1.408-1.382-2.432-2.791-2.304l-7.731 0.743c-1.408 0.128-2.432 1.382-2.304 2.79 0.128 1.382 1.382 2.432 2.791 2.304z" opacity="1" visibility="false" fill="#000000"></path>
	<path d="M118.912 103.552l6.553-0.64c1.408-0.128 2.432-1.382 2.304-2.79v0c-0.128-1.408-1.382-2.432-2.79-2.304l-6.553 0.64c-1.408 0.128-2.432 1.382-2.304 2.79v0c0.128 1.408 1.382 2.457 2.79 2.304z" opacity="1" visibility="false" fill="#000000"></path>
	<path d="M153.881 66.765c1.408-0.128 2.432-1.382 2.304-2.791l-0.743-7.706c-0.128-1.408-1.382-2.432-2.791-2.304s-2.432 1.383-2.304 2.791l0.743 7.706c0.128 1.408 1.382 2.432 2.791 2.304z" opacity="1" visibility="false" fill="#000000"></path>
	<path d="M160.717 138.035c1.408-0.128 2.432-1.382 2.304-2.791l-0.64-6.554c-0.128-1.408-1.382-2.432-2.791-2.304v0c-1.408 0.128-2.432 1.382-2.304 2.791l0.64 6.554c0.128 1.408 1.382 2.458 2.791 2.304z" opacity="1" visibility="false" fill="#000000"></path>
	<path d="M211.2 120.243v0c-13.056 0.589-23.219 11.341-23.219 24.269 0 0.358 0 0.743 0.025 1.101v0c0.589 13.056 11.341 23.245 24.269 23.245 0.358 0 0.717 0 1.101-0.025v0c13.056-0.589 23.245-11.341 23.245-24.269 0-0.358 0-0.743-0.025-1.101-0.589-13.056-11.341-23.245-24.269-23.245-0.384 0-0.743 0-1.126 0.025zM228.915 143.795c0 0.256 0.025 0.512 0.025 0.768 0 8.832-6.989 16.205-15.898 16.614v0c-0.256 0-0.512 0.025-0.743 0.025-8.832 0-16.205-6.989-16.589-15.898v0c0-0.256-0.025-0.512-0.025-0.768 0-8.832 6.963-16.205 15.898-16.589v0c0.256 0 0.512-0.025 0.768-0.025 8.806-0.025 16.179 6.938 16.563 15.872z" opacity="1" visibility="false" fill="#000000"></path>
	<path d="M211.584 115.174c1.408-0.051 2.509-1.254 2.458-2.662l-0.333-7.757c-0.051-1.408-1.255-2.509-2.662-2.432v0c-1.408 0.051-2.509 1.254-2.458 2.662l0.333 7.757c0.051 1.382 1.255 2.483 2.662 2.432z" opacity="1" visibility="false" fill="#000000"></path>
	<path d="M214.246 175.027v0c-1.408 0.051-2.509 1.255-2.458 2.662l0.307 6.579c0.051 1.408 1.255 2.509 2.662 2.432s2.509-1.255 2.432-2.662l-0.281-6.579c-0.051-1.408-1.255-2.509-2.662-2.432z" opacity="1" visibility="false" fill="#000000"></path>
	<path d="M251.827 140.211l-7.757 0.358c-1.408 0.051-2.509 1.255-2.458 2.662s1.255 2.509 2.662 2.432l7.757-0.333c1.408-0.051 2.509-1.255 2.458-2.662s-1.255-2.509-2.662-2.458z" opacity="1" visibility="false" fill="#000000"></path>
	<path d="M172.544 143.744c-1.408 0.051-2.509 1.255-2.458 2.662v0c0.051 1.408 1.255 2.509 2.662 2.432l6.579-0.307c1.408-0.051 2.509-1.255 2.432-2.662s-1.255-2.509-2.662-2.432l-6.554 0.307z" opacity="1" visibility="false" fill="#000000"></path>
	<path d="M234.010 165.325c-0.947 1.049-0.87 2.662 0.154 3.609l5.734 5.248c1.049 0.947 2.662 0.87 3.609-0.154v0c0.947-1.049 0.87-2.662-0.154-3.609l-5.734-5.222c-1.049-0.999-2.662-0.922-3.609 0.128z" opacity="1" visibility="false" fill="#000000"></path>
	<path d="M189.798 124.877c0.947-1.049 0.87-2.662-0.154-3.609l-4.864-4.454c-1.049-0.947-2.662-0.871-3.609 0.153-0.947 1.049-0.87 2.662 0.154 3.609l4.864 4.454c1.049 0.973 2.662 0.896 3.609-0.153z" opacity="1" visibility="false" fill="#000000"></path>
	<path d="M235.673 121.754l5.248-5.734c0.947-1.049 0.87-2.662-0.154-3.609s-2.662-0.871-3.609 0.153l-5.222 5.709c-0.947 1.049-0.87 2.662 0.154 3.609s2.637 0.896 3.584-0.128z" opacity="1" visibility="false" fill="#000000"></path>
	<path d="M183.731 174.745c1.049 0.947 2.662 0.87 3.609-0.154l4.454-4.864c0.947-1.049 0.87-2.662-0.154-3.609v0c-1.049-0.947-2.662-0.87-3.609 0.154l-4.454 4.864c-0.947 1.024-0.87 2.662 0.154 3.609z" opacity="1" visibility="false" fill="#000000"></path>
</svg>
