<?xml version="1.0" encoding="utf-8"?>
<!-- Generated by IcoMoon.io -->
<!DOCTYPE svg PUBLIC "-//W3C//DTD SVG 1.1//EN" "http://www.w3.org/Graphics/SVG/1.1/DTD/svg11.dtd">
<svg version="1.1" xmlns="http://www.w3.org/2000/svg" xmlns:xlink="http://www.w3.org/1999/xlink" width="512" height="512" viewBox="0 0 512 512">
<g id="icomoon-ignore">
	<line stroke-width="1" x1="" y1="" x2="" y2="" stroke="#449FDB" opacity=""></line>
</g>
	<path d="M377.088 115.405h-251.597c-14.131 0.051-25.549 11.469-25.6 25.6v252.774c0.051 14.131 11.469 25.549 25.6 25.6h251.546c14.131-0.051 25.549-11.469 25.6-25.6v-252.774c0-14.131-11.418-25.549-25.549-25.6zM121.907 137.421c0.973-0.973 2.201-1.485 3.584-1.536h251.546c1.382 0 2.611 0.563 3.584 1.536s1.485 2.202 1.536 3.584v100.966l-18.279 20.173-23.040-33.843-21.76 39.936-23.347-68.557-22.016 80.845-22.835-100.659-22.631 108.032-21.76-87.911-23.45 60.262-21.913-40.192-23.399 34.355-17.305-12.697v-100.71c-0.051-1.382 0.512-2.611 1.485-3.584zM380.672 397.414c-0.973 0.973-2.202 1.485-3.584 1.536h-251.597c-1.382 0-2.611-0.563-3.584-1.536s-1.485-2.202-1.536-3.584v-126.72l22.272 16.333 16.487-24.166 26.931 49.459 16.025-41.113 27.802 112.179 21.76-103.936 20.275 89.241 26.010-95.488 16.845 49.408 28.007-51.456 18.791 27.648 20.582-22.681v121.293c0 1.382-0.512 2.611-1.485 3.584z" opacity="1" visibility="false" fill="#000000"></path>
</svg>
