<?xml version="1.0" encoding="utf-8"?>
<!-- Generated by IcoMoon.io -->
<!DOCTYPE svg PUBLIC "-//W3C//DTD SVG 1.1//EN" "http://www.w3.org/Graphics/SVG/1.1/DTD/svg11.dtd">
<svg version="1.1" xmlns="http://www.w3.org/2000/svg" xmlns:xlink="http://www.w3.org/1999/xlink" width="512" height="512" viewBox="0 0 512 512">
<g id="icomoon-ignore">
	<line stroke-width="1" x1="" y1="" x2="" y2="" stroke="#449FDB" opacity=""></line>
</g>
	<path d="M337.92 131.277c-20.992-20.582-50.022-33.331-81.92-33.331s-60.928 12.749-81.92 33.331c-20.992 20.531-34.099 49.101-34.099 80.537 0.051 30.208 12.032 51.865 12.441 52.736v0c4.198 7.629 11.111 19.61 15.667 27.034v0l47.719 77.875c4.403 7.219 11.623 18.995 16.025 26.214l7.373 12.032c1.741 2.867 3.994 5.376 6.861 7.271 2.816 1.894 6.349 3.072 9.933 3.021 3.584 0 7.065-1.127 9.882-3.021 2.867-1.894 5.12-4.403 6.861-7.219l7.424-12.032c4.454-7.219 11.673-18.944 16.128-26.163l47.923-77.773c4.813-7.834 11.161-19.968 14.797-28.365 0.103-0.205 3.226-7.475 6.451-17.408 1.587-4.966 3.226-10.599 4.454-16.435s2.151-11.827 2.151-17.715c-0.051-31.437-13.107-60.006-34.151-80.589zM349.849 225.331c-1.587 7.373-4.045 14.951-6.093 20.633-1.024 2.816-1.945 5.222-2.611 6.81-0.307 0.819-0.615 1.434-0.768 1.894l-0.205 0.461-0.051 0.102c-3.072 7.066-9.472 19.302-13.517 25.856v0l-47.872 77.671c-4.454 7.219-11.673 18.944-16.128 26.163l-6.707 10.906-6.707-10.906c-4.403-7.219-11.623-18.995-16.025-26.214l-47.719-77.875c-4.301-6.963-11.213-18.944-15.155-26.112v0c-0.358-0.563-9.984-19.149-9.933-42.905 0-25.702 10.649-48.947 27.955-65.945 17.305-16.947 41.165-27.443 67.584-27.443s50.279 10.496 67.584 27.443c17.305 16.947 27.955 40.243 27.955 65.945 0.103 3.84-0.512 8.601-1.587 13.517z" opacity="1" visibility="false" fill="#000000"></path>
	<path d="M344.371 291.379l-0.256 0.409-0.051 0.051z" opacity="1" visibility="false" fill="#000000"></path>
	<path d="M254.822 155.699c-14.439 0-27.648 5.734-37.171 15.001s-15.513 22.221-15.513 36.506c0 14.285 5.99 27.238 15.513 36.505s22.733 15.002 37.171 15.002c14.438 0 27.597-5.734 37.12-15.001s15.565-22.221 15.514-36.506c0-14.285-5.99-27.29-15.514-36.505-9.472-9.267-22.682-15.001-37.12-15.001zM277.709 229.069c-5.837 5.683-13.875 9.165-22.887 9.165s-17.049-3.533-22.887-9.165c-5.837-5.683-9.319-13.312-9.319-21.811s3.533-16.179 9.319-21.863c5.837-5.683 13.875-9.165 22.887-9.165s17.050 3.533 22.887 9.165c5.837 5.683 9.319 13.312 9.319 21.863 0 8.499-3.481 16.128-9.318 21.811z" opacity="1" visibility="false" fill="#000000"></path>
</svg>
