<?xml version="1.0" encoding="utf-8"?>
<!-- Generated by IcoMoon.io -->
<!DOCTYPE svg PUBLIC "-//W3C//DTD SVG 1.1//EN" "http://www.w3.org/Graphics/SVG/1.1/DTD/svg11.dtd">
<svg version="1.1" xmlns="http://www.w3.org/2000/svg" xmlns:xlink="http://www.w3.org/1999/xlink" width="512" height="512" viewBox="0 0 512 512">
<g id="icomoon-ignore">
	<line stroke-width="1" x1="" y1="" x2="" y2="" stroke="#449FDB" opacity=""></line>
</g>
	<path d="M144.231 332.237c-0.256 1.945-0.563 4.301-1.024 6.963-1.075 6.451-2.714 14.592-5.018 21.811-0.922 2.969-2.97 7.117-5.581 11.315-3.891 6.349-8.909 12.954-12.954 17.869-1.997 2.457-3.789 4.505-5.017 5.939-0.615 0.717-1.126 1.28-1.433 1.639l-0.359 0.409-0.103 0.103-19.2 20.787 28.058-3.635c0.256-0.051 11.776-1.536 26.368-5.017 7.321-1.741 15.36-3.993 23.245-6.861s15.565-6.349 22.221-10.854c15.36-10.496 25.6-24.32 31.437-33.587 9.575 1.178 19.353 1.843 29.338 1.843 49.817 0 95.13-15.514 128.41-41.113 16.64-12.8 30.259-28.16 39.731-45.466 9.523-17.305 14.848-36.557 14.848-56.73s-5.325-39.424-14.848-56.73c-14.285-25.959-37.735-47.565-66.867-62.669-29.133-15.155-63.949-23.859-101.325-23.859-49.817 0-95.13 15.513-128.41 41.114-16.64 12.8-30.259 28.16-39.731 45.466-9.523 17.305-14.848 36.557-14.848 56.73 0 24.781 8.038 48.128 21.913 68.199 12.647 18.329 30.208 34.048 51.149 46.336zM103.885 170.803c11.93-21.811 32.307-40.858 58.368-54.374 26.010-13.568 57.703-21.555 91.853-21.555 45.568 0 86.63 14.285 115.917 36.864 14.643 11.264 26.317 24.576 34.304 39.117s12.288 30.31 12.288 46.848c0 16.537-4.352 32.307-12.288 46.848-11.981 21.811-32.307 40.858-58.368 54.375-26.010 13.568-57.702 21.555-91.853 21.555-11.264 0-22.272-0.87-32.87-2.509l-6.4-0.973-5.376 7.885-0.205 0.307c-4.301 7.475-13.927 21.401-27.494 30.567-4.506 3.072-10.855 6.041-17.715 8.55-6.042 2.202-12.391 4.045-18.483 5.529 1.536-2.202 3.021-4.454 4.454-6.759 3.123-5.12 5.888-10.342 7.629-15.872 2.918-9.267 4.762-18.791 5.888-26.112s1.587-12.39 1.587-12.544l0.051-0.666-0.051-1.69-0.205-5.837-5.12-2.765c-20.992-11.366-38.195-26.317-49.971-43.418s-18.279-36.25-18.329-56.576c0.103-16.537 4.403-32.256 12.391-46.797z" opacity="1" visibility="false" fill="#000000"></path>
</svg>
