<?xml version="1.0" encoding="utf-8"?>
<!-- Generated by IcoMoon.io -->
<!DOCTYPE svg PUBLIC "-//W3C//DTD SVG 1.1//EN" "http://www.w3.org/Graphics/SVG/1.1/DTD/svg11.dtd">
<svg version="1.1" xmlns="http://www.w3.org/2000/svg" xmlns:xlink="http://www.w3.org/1999/xlink" width="512" height="512" viewBox="0 0 512 512">
<g id="icomoon-ignore">
	<line stroke-width="1" x1="" y1="" x2="" y2="" stroke="#449FDB" opacity=""></line>
</g>
	<path d="M246.528 406.425c86.272 0 156.16-69.888 156.16-156.16s-69.888-156.16-156.16-156.16c-86.272 0-156.16 69.888-156.16 156.16s69.888 156.16 156.16 156.16zM150.579 154.368c24.576-24.576 58.419-39.731 95.949-39.731 37.478 0 71.373 15.155 95.949 39.731s39.731 58.419 39.731 95.949c0 37.478-15.155 71.373-39.731 95.949s-58.419 39.731-95.949 39.731c-37.478 0-71.373-15.155-95.949-39.731s-39.731-58.419-39.731-95.949c0-37.529 15.155-71.373 39.731-95.949z" opacity="1" visibility="false" fill="#000000"></path>
	<path d="M175.719 313.805l7.27 7.219c1.997 1.997 5.274 1.997 7.219 0l56.32-56.32 56.32 56.32c1.997 1.997 5.274 1.997 7.219 0l7.219-7.271c1.997-1.997 1.997-5.274 0-7.219l-56.32-56.32 56.32-56.32c1.997-1.997 1.997-5.274 0-7.219l-7.219-7.219c-1.997-1.997-5.274-1.997-7.219 0l-56.32 56.32-56.32-56.32c-1.997-1.997-5.274-1.997-7.219 0l-7.219 7.219c-1.997 1.997-1.997 5.274 0 7.219l56.32 56.32-56.32 56.32c-2.048 2.048-2.048 5.325-0.051 7.271z" opacity="1" visibility="false" fill="#000000"></path>
</svg>
