<?xml version="1.0" encoding="utf-8"?>
<!-- Generated by IcoMoon.io -->
<!DOCTYPE svg PUBLIC "-//W3C//DTD SVG 1.1//EN" "http://www.w3.org/Graphics/SVG/1.1/DTD/svg11.dtd">
<svg version="1.1" xmlns="http://www.w3.org/2000/svg" xmlns:xlink="http://www.w3.org/1999/xlink" width="256" height="256" viewBox="0 0 256 256">
<g id="icomoon-ignore">
	<line stroke-width="1" x1="" y1="" x2="" y2="" stroke="#449FDB" opacity=""></line>
</g>
	<path d="M195.072 76.109c-4.531-3.072-10.087-4.429-15.667-4.429-5.683 0-11.367 1.357-15.975 4.557-4.608 3.174-8.013 8.32-8.909 15.13l5.069 0.691c0.768-5.529 3.251-9.139 6.758-11.623 3.507-2.457 8.166-3.661 13.056-3.635 4.736 0 9.319 1.177 12.8 3.558s5.939 5.811 6.758 10.88l5.069-0.793c-0.999-6.4-4.429-11.29-8.96-14.336z" opacity="1" visibility="false" fill="#000000"></path>
	<path d="M218.010 56.883c-2.918-4.096-7.091-8.832-13.389-12.441-6.272-3.635-14.592-6.041-25.421-6.041v0h-0.102c-3.584 0-6.758 0.461-9.6 1.306-5.043 1.459-8.883 4.224-11.75 7.194-2.15 2.227-3.84 4.557-5.325 6.707-2.227 3.225-4.121 5.939-6.144 7.629-1.024 0.845-2.048 1.511-3.303 1.971s-2.765 0.793-4.762 0.819l0.128 10.24c3.097-0.025 5.888-0.563 8.371-1.51 4.352-1.664 7.475-4.582 9.856-7.45 1.792-2.176 3.251-4.377 4.659-6.4 2.125-3.021 4.147-5.529 6.733-7.27 1.28-0.87 2.739-1.587 4.557-2.125 1.767-0.538 3.942-0.87 6.681-0.87v0 0c7.117 0 12.493 1.178 16.691 2.893 6.298 2.586 10.112 6.425 13.056 10.317 1.459 1.946 2.662 3.891 3.815 5.734 1.178 1.843 2.176 3.533 3.763 5.171l7.245-7.245c-0.205-0.179-0.717-0.819-1.305-1.767-1.075-1.639-2.509-4.121-4.454-6.861z" opacity="1" visibility="false" fill="#000000"></path>
	<path d="M186.829 88.499c0 4.001-3.244 7.245-7.245 7.245s-7.245-3.243-7.245-7.245c0-4.001 3.244-7.245 7.245-7.245s7.245 3.243 7.245 7.245z" opacity="1" visibility="false" fill="#000000"></path>
	<path d="M133.734 156.083c-1.561 0.691-3.635 1.101-5.734 1.101-2.79 0.025-5.529-0.743-7.142-1.869-0.819-0.537-1.357-1.126-1.715-1.715-0.333-0.589-0.537-1.229-0.537-2.176h-10.24c0 2.662 0.691 5.222 1.945 7.347 1.869 3.2 4.787 5.351 7.859 6.707 3.097 1.357 6.477 1.946 9.83 1.946 4.48-0.025 8.986-1.049 12.8-3.584 1.894-1.28 3.635-2.944 4.864-5.069 1.255-2.125 1.946-4.685 1.946-7.347h-10.24c0 0.973-0.205 1.587-0.537 2.176-0.512 0.896-1.511 1.792-3.097 2.483z" opacity="1" visibility="false" fill="#000000"></path>
	<path d="M76.8 74.24c17.587 0 30.72 0 40.96 0v-10.24c-10.24 0-23.373 0-40.96 0-4.48 0-8.858-0.102-13.056-0.102-6.605 0-12.851 0.205-18.713 1.587-2.919 0.691-5.76 1.689-8.422 3.123s-5.145 3.353-7.296 5.734l7.603 6.861c1.357-1.51 2.842-2.662 4.557-3.584 2.56-1.382 5.683-2.278 9.421-2.816s8.064-0.665 12.825-0.665c4.071 0 8.448 0.103 13.081 0.103z" opacity="1" visibility="false" fill="#000000"></path>
	<path d="M81.817 83.712c7.117 1.203 12.314 4.761 14.899 9.293l4.454-2.534c-4.301-7.501-13.287-12.339-24.576-12.339-11.008 0-19.84 4.608-24.269 11.827l4.377 2.662c2.586-4.275 7.552-7.603 14.259-8.832-1.101 1.28-1.792 2.918-1.792 4.736 0 3.993 3.251 7.245 7.245 7.245 4.019 0 7.245-3.251 7.245-7.245 0.025-1.869-0.691-3.533-1.843-4.813z" opacity="1" visibility="false" fill="#000000"></path>
	<path d="M168.038 183.143c-4.275 1.075-8.448 1.408-12.391 1.408-3.353 0-6.528-0.256-9.446-0.512-2.944-0.256-5.581-0.537-8.038-0.537-0.205 0-1.305-0.051-2.739-0.128-1.459-0.077-3.328-0.128-5.555-0.128-5.504 0-13.005 0.41-21.043 2.253-8.038 1.869-16.614 5.197-24.141 11.161-1.664 1.305-1.945 3.738-0.615 5.401 1.305 1.664 3.737 1.946 5.401 0.614 6.374-5.043 13.875-8.013 21.12-9.702s14.183-2.073 19.302-2.073c2.073 0 3.815 0.051 5.197 0.128 1.408 0.051 2.304 0.128 3.072 0.128 1.843 0 4.377 0.256 7.373 0.512 2.97 0.256 6.4 0.537 10.137 0.537 4.377 0 9.216-0.384 14.259-1.638 2.048-0.512 3.303-2.585 2.791-4.659-0.563-2.023-2.637-3.277-4.685-2.765z" opacity="1" visibility="false" fill="#000000"></path>
</svg>
