<?xml version="1.0" encoding="utf-8"?>
<!-- Generated by IcoMoon.io -->
<!DOCTYPE svg PUBLIC "-//W3C//DTD SVG 1.1//EN" "http://www.w3.org/Graphics/SVG/1.1/DTD/svg11.dtd">
<svg version="1.1" xmlns="http://www.w3.org/2000/svg" xmlns:xlink="http://www.w3.org/1999/xlink" width="512" height="512" viewBox="0 0 512 512">
<g id="icomoon-ignore">
	<line stroke-width="1" x1="" y1="" x2="" y2="" stroke="#449FDB" opacity=""></line>
</g>
	<path d="M190.31 260.711c-21.453 0-38.81 17.357-38.81 38.81s17.357 38.81 38.81 38.81c21.401 0 38.81-17.357 38.81-38.81-0.051-21.453-17.408-38.81-38.81-38.81zM206.848 316.109c-4.25 4.25-10.087 6.861-16.589 6.861s-12.288-2.611-16.589-6.861c-4.25-4.25-6.861-10.087-6.861-16.589s2.611-12.288 6.861-16.589c4.25-4.25 10.087-6.861 16.589-6.861s12.288 2.611 16.589 6.861c4.25 4.25 6.861 10.087 6.861 16.589s-2.611 12.288-6.861 16.589z" opacity="1" visibility="false" fill="#000000"></path>
	<path d="M314.522 194.253c21.401 0 38.81-17.357 38.81-38.81 0-21.401-17.357-38.809-38.81-38.809s-38.81 17.357-38.81 38.809c0 21.401 17.357 38.81 38.81 38.81zM297.933 138.855c4.25-4.25 10.087-6.861 16.589-6.861s12.288 2.611 16.589 6.861c4.25 4.25 6.861 10.087 6.861 16.589s-2.611 12.288-6.861 16.589c-4.25 4.25-10.087 6.861-16.589 6.861s-12.288-2.611-16.589-6.861c-4.25-4.25-6.861-10.087-6.861-16.589s2.611-12.288 6.861-16.589z" opacity="1" visibility="false" fill="#000000"></path>
	<path d="M170.087 248.167v-0.102c-0.307-1.178-3.226-13.927-3.226-29.952 0-15.463 2.765-33.792 12.288-48.025 4.762-7.168 11.111-13.415 19.917-18.279 8.243-4.506 18.739-7.782 32.205-8.96-1.997 1.587-9.421 7.577-16.947 13.619-8.755 7.066-0.717 21.965-0.717 21.965l52.583-42.24-49.715-45.568c0 0-9.011 14.336-0.717 21.965 7.424 6.758 14.695 13.466 16.231 14.848-16.128 1.178-29.491 5.018-40.294 10.957-16.64 9.063-26.931 22.887-32.717 37.325-5.837 14.439-7.475 29.542-7.475 42.445 0 19.047 3.584 33.382 3.686 33.741l14.899-3.738z" opacity="1" visibility="false" fill="#000000"></path>
	<path d="M357.939 201.779l-14.899 3.738v0.102c0.307 1.178 3.226 13.875 3.175 29.901 0 15.463-2.765 33.792-12.288 48.077-4.762 7.168-11.111 13.414-19.917 18.279-8.243 4.505-18.739 7.731-32.205 8.96 1.997-1.587 9.421-7.577 16.947-13.619 8.806-7.065 0.717-21.965 0.717-21.965l-52.531 42.189 49.664 45.568c0 0 9.011-14.336 0.717-21.965-7.424-6.759-14.695-13.466-16.231-14.848 16.179-1.178 29.543-5.017 40.346-10.957 16.64-9.063 26.931-22.938 32.717-37.376 5.837-14.49 7.475-29.594 7.475-42.445 0-18.944-3.584-33.28-3.687-33.638z" opacity="1" visibility="false" fill="#000000"></path>
</svg>
