<?xml version="1.0" encoding="utf-8"?>
<!-- Generated by IcoMoon.io -->
<!DOCTYPE svg PUBLIC "-//W3C//DTD SVG 1.1//EN" "http://www.w3.org/Graphics/SVG/1.1/DTD/svg11.dtd">
<svg version="1.1" xmlns="http://www.w3.org/2000/svg" xmlns:xlink="http://www.w3.org/1999/xlink" width="512" height="512" viewBox="0 0 512 512">
<g id="icomoon-ignore">
	<line stroke-width="1" x1="" y1="" x2="" y2="" stroke="#449FDB" opacity=""></line>
</g>
	<path d="M291.738 390.502c-8.601 10.087-17.152 19.968-19.046 22.221v-116.377h-20.48v116.327c-1.997-2.304-10.496-12.185-19.047-22.221-9.779-11.418-29.286 0-29.286 0l58.573 68.198 58.573-68.147c0 0-19.456-11.418-29.286 0z" opacity="1" visibility="false" fill="#000000"></path>
	<path d="M165.12 195.021c-10.701 0-20.48 4.608-27.341 11.879-6.912 7.27-11.162 17.255-11.162 28.211s4.199 20.941 11.162 28.211c6.912 7.271 16.64 11.878 27.341 11.878s20.48-4.608 27.341-11.878c6.912-7.271 11.161-17.305 11.161-28.211 0-10.957-4.198-20.941-11.161-28.211-6.861-7.27-16.589-11.879-27.341-11.879zM181.351 252.774c-4.25 4.454-9.933 7.117-16.231 7.117s-11.981-2.663-16.231-7.117c-4.25-4.454-6.912-10.649-6.912-17.664 0-6.963 2.662-13.159 6.912-17.613s9.933-7.117 16.231-7.117c6.298 0 11.981 2.662 16.231 7.117s6.912 10.649 6.912 17.613c0 6.963-2.662 13.209-6.912 17.664z" opacity="1" visibility="false" fill="#000000"></path>
	<path d="M262.451 275.251c10.701 0 20.48-4.608 27.341-11.878 6.912-7.271 11.111-17.305 11.111-28.211 0-10.957-4.199-20.941-11.111-28.211s-16.64-11.879-27.341-11.879c-10.701 0-20.48 4.608-27.341 11.879-6.912 7.27-11.161 17.255-11.161 28.211s4.25 20.941 11.161 28.211c6.861 7.271 16.64 11.878 27.341 11.878zM246.221 217.498c4.25-4.454 9.933-7.117 16.231-7.117s11.981 2.662 16.231 7.117c4.25 4.454 6.912 10.649 6.912 17.613s-2.663 13.159-6.912 17.664c-4.25 4.454-9.933 7.117-16.231 7.117s-11.981-2.663-16.231-7.117c-4.25-4.454-6.912-10.649-6.912-17.664 0-6.963 2.662-13.159 6.912-17.613z" opacity="1" visibility="false" fill="#000000"></path>
	<path d="M386.867 206.899c-6.912-7.27-16.64-11.879-27.341-11.879s-20.48 4.608-27.341 11.879c-6.912 7.27-11.161 17.255-11.161 28.211s4.199 20.941 11.161 28.211c6.912 7.271 16.64 11.878 27.341 11.878s20.48-4.608 27.341-11.878c6.912-7.271 11.111-17.305 11.111-28.211s-4.199-20.941-11.111-28.211zM375.705 252.774c-4.25 4.454-9.933 7.117-16.231 7.117s-11.981-2.663-16.231-7.117c-4.25-4.454-6.912-10.649-6.912-17.664 0-6.963 2.663-13.159 6.912-17.613s9.933-7.117 16.231-7.117c6.298 0 11.981 2.662 16.231 7.117s6.912 10.649 6.912 17.613c0 6.963-2.663 13.209-6.912 17.664z" opacity="1" visibility="false" fill="#000000"></path>
</svg>
