<?xml version="1.0" encoding="utf-8"?>
<!-- Generated by IcoMoon.io -->
<!DOCTYPE svg PUBLIC "-//W3C//DTD SVG 1.1//EN" "http://www.w3.org/Graphics/SVG/1.1/DTD/svg11.dtd">
<svg version="1.1" xmlns="http://www.w3.org/2000/svg" xmlns:xlink="http://www.w3.org/1999/xlink" width="512" height="512" viewBox="0 0 512 512">
<g id="icomoon-ignore">
	<line stroke-width="1" x1="" y1="" x2="" y2="" stroke="#449FDB" opacity=""></line>
</g>
	<path d="M255.437 88.064c-91.187 0-165.12 73.933-165.12 165.12s73.933 165.12 165.12 165.12c91.187 0 165.12-73.933 165.12-165.12s-73.933-165.12-165.12-165.12zM129.894 324.966c3.686-0.973 7.27-2.151 10.649-3.891 2.355-1.229 4.659-2.816 6.605-5.274 1.946-2.355 3.226-5.786 3.174-9.165 0-3.379-1.075-6.553-2.714-9.523-6.4-11.776-8.806-21.351-8.755-28.365 0.051-6.963 2.15-11.264 5.12-14.183 2.97-2.867 7.322-4.608 12.953-4.659 5.53 0 9.831 1.69 12.8 4.557s5.069 7.117 5.12 14.131c0 6.963-2.355 16.589-8.704 28.519-1.587 2.969-2.611 6.093-2.611 9.421 0 1.894 0.358 3.84 1.075 5.581 1.28 3.072 3.43 5.376 5.683 6.963 3.379 2.406 7.066 3.789 10.905 4.966s7.885 2.099 11.827 2.969c1.126 0.256 1.792 0.666 2.458 1.229-5.99 1.69-12.851 3.277-19.917 4.915v0c-7.014 1.587-13.107 4.966-17.767 9.472-3.021 2.918-5.478 6.195-7.475 9.728-7.885-8.192-14.745-17.408-20.429-27.392zM164.557 365.671l1.638 0.717c1.638-3.789 3.533-6.707 5.734-8.755 2.202-2.099 4.659-3.481 8.243-4.352v0c12.032-2.816 24.371-5.427 34.816-9.984 5.222-2.304 10.137-5.12 14.183-9.421 1.997-2.151 3.789-4.711 5.018-7.629s1.894-6.144 1.894-9.421c0-5.683-1.843-11.264-4.864-16.845v0c-13.312-24.474-18.535-44.749-18.483-60.16 0-7.629 1.229-14.080 3.328-19.456 3.174-8.089 8.141-13.875 14.643-17.92s14.643-6.298 24.064-6.298c12.339 0 22.579 3.84 29.799 10.752 3.635 3.482 6.553 7.782 8.653 13.159s3.328 11.827 3.379 19.507c0 15.36-5.12 35.738-18.279 60.519-2.918 5.529-4.711 11.059-4.711 16.691 0 3.226 0.615 6.451 1.843 9.318 2.099 5.12 5.735 9.011 9.728 11.878 6.041 4.352 13.005 7.014 20.531 9.319s15.616 4.147 23.706 5.99c3.584 0.819 5.99 2.253 8.192 4.301s4.096 4.915 5.735 8.601l0.615 1.433c-24.474 18.944-55.091 30.208-88.423 30.208-34.56 0-66.15-12.083-90.983-32.154zM359.731 353.331c-2.151-3.891-4.813-7.526-8.141-10.752-4.659-4.403-10.701-7.783-17.613-9.37-6.553-1.485-12.851-2.969-18.432-4.505 0.051-0.051 0.051-0.103 0.103-0.154 0.768-0.717 1.485-1.178 2.816-1.485v0c5.888-1.382 12.083-2.663 17.613-5.069 2.765-1.229 5.478-2.765 7.834-5.274 1.178-1.229 2.202-2.765 2.969-4.505 0.717-1.741 1.127-3.738 1.127-5.632 0-3.379-1.075-6.553-2.714-9.575v0c-6.4-11.725-8.806-21.351-8.755-28.365 0.051-6.963 2.151-11.264 5.12-14.183s7.322-4.608 12.954-4.659c5.529 0 9.831 1.69 12.8 4.557s5.069 7.117 5.12 14.182c0 6.963-2.355 16.589-8.704 28.519-1.587 2.969-2.611 6.093-2.611 9.421-0.051 3.328 1.229 6.707 3.123 9.063 2.867 3.635 6.451 5.427 10.087 6.912 2.202 0.87 4.454 1.536 6.759 2.202-6.041 10.547-13.209 20.122-21.453 28.672zM388.147 310.784c-4.352-1.075-8.141-2.253-10.087-3.379-0.921-0.461-1.331-0.87-1.485-1.024 0-0.205 0.154-0.819 0.768-2.048 7.168-13.517 10.445-25.395 10.496-35.738 0.051-10.291-3.533-19.251-9.831-25.242-6.247-5.99-14.745-8.857-23.45-8.857-8.858 0-17.357 2.918-23.654 8.96s-9.83 15.001-9.779 25.242c0 10.445 3.379 22.323 10.649 35.687v0.051c0.563 1.024 0.717 1.639 0.768 1.945-0.205 0.205-0.563 0.512-1.382 0.973-1.433 0.768-3.789 1.69-6.605 2.457-2.816 0.819-6.144 1.536-9.575 2.355v0c-3.891 0.87-7.322 2.816-9.984 5.325-1.843 1.792-3.328 3.789-4.454 5.888-2.56-1.331-4.352-2.611-5.223-3.635-0.563-0.615-0.87-1.127-1.024-1.536s-0.256-0.819-0.256-1.536c0-1.229 0.409-3.533 2.304-7.065 14.233-26.931 20.685-50.227 20.685-70.144 0-9.933-1.639-18.995-4.762-26.983-4.659-12.032-12.851-21.504-22.938-27.699-10.137-6.195-22.067-9.216-34.56-9.216-16.845 0-32.717 5.53-44.288 16.743-5.786 5.581-10.393 12.544-13.465 20.531-3.123 7.987-4.71 17.049-4.71 26.88 0 19.968 6.553 43.315 20.992 69.939v0c1.946 3.533 2.355 5.888 2.355 7.065 0 0.717-0.102 1.075-0.256 1.485-0.307 0.666-1.024 1.792-2.97 3.175-0.512 0.409-1.229 0.819-1.946 1.178-1.075-1.843-2.406-3.635-4.096-5.171-2.611-2.509-6.042-4.403-9.881-5.274-6.042-1.382-11.673-2.714-14.899-4.199-1.536-0.666-2.355-1.331-2.611-1.587 0-0.205 0.154-0.819 0.768-2.048 7.168-13.517 10.445-25.395 10.496-35.738 0.051-10.291-3.533-19.251-9.831-25.242-6.246-5.99-14.745-8.857-23.45-8.857-8.857 0-17.357 2.918-23.603 8.96-6.297 6.042-9.831 15.001-9.779 25.242 0 10.445 3.379 22.323 10.649 35.687 0.563 1.024 0.768 1.69 0.819 1.997-0.102 0.103-0.307 0.307-0.717 0.563-0.922 0.615-2.611 1.382-4.762 2.099-1.894 0.615-4.198 1.229-6.656 1.843-7.731-17.664-12.032-37.171-12.032-57.754 0-39.987 16.179-76.083 42.343-102.297 26.214-26.215 62.31-42.343 102.298-42.343s76.083 16.179 102.298 42.343c26.214 26.214 42.343 62.31 42.343 102.298-0.103 20.582-4.403 40.038-12.032 57.702z" opacity="1" visibility="false" fill="#000000"></path>
</svg>
