<?xml version="1.0" encoding="utf-8"?>
<!-- Generated by IcoMoon.io -->
<!DOCTYPE svg PUBLIC "-//W3C//DTD SVG 1.1//EN" "http://www.w3.org/Graphics/SVG/1.1/DTD/svg11.dtd">
<svg version="1.1" xmlns="http://www.w3.org/2000/svg" xmlns:xlink="http://www.w3.org/1999/xlink" width="512" height="512" viewBox="0 0 512 512">
<g id="icomoon-ignore">
	<line stroke-width="1" x1="" y1="" x2="" y2="" stroke="#449FDB" opacity=""></line>
</g>
	<path d="M156.57 193.331h191.642v20.48h-191.642v-20.48z" opacity="1" visibility="false" fill="#000000"></path>
	<path d="M156.57 324.352h191.642v20.48h-191.642v-20.48z" opacity="1" visibility="false" fill="#000000"></path>
	<path d="M156.57 237.005h164.301v20.48h-164.301v-20.48z" opacity="1" visibility="false" fill="#000000"></path>
	<path d="M156.57 280.678h181.401v20.48h-181.401v-20.48z" opacity="1" visibility="false" fill="#000000"></path>
	<path d="M436.582 59.443h-356.966c-14.131 0.051-25.549 11.469-25.6 25.6v308.634c0.051 14.131 11.469 25.549 25.6 25.6h356.966c14.131-0.051 25.549-11.469 25.6-25.6v-308.634c0-14.131-11.418-25.549-25.6-25.6zM76.032 81.459c0.973-0.973 2.201-1.485 3.584-1.536h356.966c1.382 0 2.611 0.563 3.584 1.536s1.485 2.201 1.536 3.584v27.085h-367.207v-27.085c0-1.382 0.563-2.611 1.536-3.584zM440.217 397.261c-0.973 0.973-2.202 1.485-3.584 1.536h-357.017c-1.382 0-2.611-0.563-3.584-1.536s-1.485-2.202-1.536-3.584v-261.069h367.207v261.069c0 1.382-0.512 2.611-1.485 3.584z" opacity="1" visibility="false" fill="#000000"></path>
	<path d="M105.011 96.563c0 5.656-4.585 10.24-10.24 10.24s-10.24-4.585-10.24-10.24c0-5.656 4.585-10.24 10.24-10.24s10.24 4.585 10.24 10.24z" opacity="1" visibility="false" fill="#000000"></path>
	<path d="M135.475 96.563c0 5.656-4.584 10.24-10.24 10.24s-10.24-4.585-10.24-10.24c0-5.656 4.585-10.24 10.24-10.24s10.24 4.585 10.24 10.24z" opacity="1" visibility="false" fill="#000000"></path>
	<path d="M165.939 96.563c0 5.656-4.584 10.24-10.24 10.24s-10.24-4.585-10.24-10.24c0-5.656 4.584-10.24 10.24-10.24s10.24 4.585 10.24 10.24z" opacity="1" visibility="false" fill="#000000"></path>
</svg>
