<?xml version="1.0" encoding="utf-8"?>
<!-- Generated by IcoMoon.io -->
<!DOCTYPE svg PUBLIC "-//W3C//DTD SVG 1.1//EN" "http://www.w3.org/Graphics/SVG/1.1/DTD/svg11.dtd">
<svg version="1.1" xmlns="http://www.w3.org/2000/svg" xmlns:xlink="http://www.w3.org/1999/xlink" width="256" height="256" viewBox="0 0 256 256">
<g id="icomoon-ignore">
	<line stroke-width="1" x1="" y1="" x2="" y2="" stroke="#449FDB" opacity=""></line>
</g>
	<path d="M46.080 195.789c0.026 7.065 5.734 12.774 12.8 12.8h138.24c7.065-0.025 12.774-5.734 12.8-12.8v-71.142h-10.24v71.142c0 0.691-0.281 1.305-0.768 1.817-0.487 0.487-1.101 0.743-1.792 0.743h-138.24c-0.691 0-1.306-0.281-1.792-0.743-0.486-0.487-0.768-1.101-0.768-1.817v-71.424h-10.24v71.424z" opacity="1" visibility="false" fill="#000000"></path>
	<path d="M133.12 175.411v-105.037c8.627 8.602 25.344 25.293 29.671 29.619 5.939 5.939 17.767 0 17.767 0l-52.659-52.583-52.429 52.429c0 0 11.827 5.913 17.767 0 4.377-4.377 21.145-21.145 29.645-29.645v105.216h10.24z" opacity="1" visibility="false" fill="#000000"></path>
</svg>
