<?xml version="1.0" encoding="utf-8"?>
<!-- Generated by IcoMoon.io -->
<!DOCTYPE svg PUBLIC "-//W3C//DTD SVG 1.1//EN" "http://www.w3.org/Graphics/SVG/1.1/DTD/svg11.dtd">
<svg version="1.1" xmlns="http://www.w3.org/2000/svg" xmlns:xlink="http://www.w3.org/1999/xlink" width="512" height="512" viewBox="0 0 512 512">
<g id="icomoon-ignore">
	<line stroke-width="1" x1="" y1="" x2="" y2="" stroke="#449FDB" opacity=""></line>
</g>
	<path d="M409.856 90.266c-1.69-1.997-3.891-3.635-6.298-4.71s-5.017-1.587-7.577-1.587c-3.43 0-6.707 0.871-9.728 2.304l-76.595 35.84c-1.894 0.921-5.735 1.741-9.575 1.741-3.84 0.051-7.68-0.768-9.575-1.741l-76.595-35.891c-5.786-2.662-12.032-3.635-18.329-3.686-6.246 0.051-12.441 0.973-18.176 3.584l-76.698 35.584c-6.093 2.867-10.752 7.526-14.183 12.851-3.379 5.376-5.632 11.52-5.683 18.279v254.874c0 5.017 1.433 10.137 4.915 14.183 1.689 1.997 3.891 3.635 6.297 4.711s5.017 1.587 7.578 1.587c3.379 0 6.656-0.819 9.677-2.253l76.749-35.533c1.894-0.921 5.734-1.741 9.523-1.69 3.84-0.051 7.782 0.819 9.677 1.741l76.749 35.993c5.735 2.663 11.981 3.635 18.227 3.635 6.298-0.051 12.493-1.024 18.279-3.687v0l76.442-35.993c6.093-2.918 10.701-7.577 14.080-12.902 3.379-5.376 5.632-11.52 5.683-18.279v-254.822c0-5.017-1.433-10.138-4.864-14.131zM341.146 240.384v0 0 0zM342.221 237.056c-0.307 1.178-0.615 2.099-0.819 2.714l-0.205 0.614v0.051c-3.072 7.065-9.421 19.303-13.517 25.805l-16.179 26.265c-3.379 5.478-7.834 12.697-11.213 18.176-3.379-5.478-7.783-12.697-11.161-18.176l-16.128-26.317c-4.147-6.81-10.854-18.279-14.797-25.549-0.256-0.973-1.075-4.762-1.075-13.159 0-11.571 4.762-21.965 12.595-29.645s18.586-12.391 30.567-12.391c11.981 0 22.733 4.762 30.567 12.391 7.834 7.68 12.595 18.125 12.595 29.645 0 3.789-0.615 7.219-1.229 9.575zM297.37 315.341v0 0 0zM101.273 407.091v-254.208c-0.051-1.69 0.819-4.659 2.509-7.219 1.638-2.611 3.993-4.608 5.529-5.274l76.595-35.533v264.295c-2.918 0.563-5.734 1.433-8.448 2.663l-76.186 35.277zM213.913 371.917c-2.458-1.127-4.966-1.894-7.526-2.457v-264.141l75.418 35.328c2.355 1.075 4.864 1.843 7.322 2.406v22.835c-13.056 2.304-24.781 8.397-33.792 17.255-11.52 11.264-18.739 26.983-18.739 44.288 0.051 14.797 1.946 19.917 3.226 22.375 4.198 7.629 11.111 19.558 15.667 26.983l16.128 26.317c4.403 7.219 10.701 17.459 13.926 22.733 0.973 1.536 2.202 2.918 3.533 4.25v77.005l-75.161-35.175zM391.783 366.541c-1.639 2.611-3.993 4.659-5.529 5.325l-76.493 35.993c-0.051 0-0.103 0.051-0.154 0.051v-76.288c2.151-1.587 3.942-3.481 5.274-5.683 3.277-5.325 9.575-15.514 13.978-22.682l16.179-26.265c4.813-7.834 11.161-20.019 14.848-28.416v0c0.307-0.768 3.942-9.113 3.993-21.095 0-17.305-7.219-33.024-18.739-44.288-9.421-9.216-21.811-15.513-35.533-17.511v-22.272c2.969-0.563 5.888-1.434 8.704-2.765l75.93-35.481v254.106c0.051 1.69-0.819 4.659-2.457 7.271z" opacity="1" visibility="false" fill="#000000"></path>
	<path d="M299.673 194.099c-8.653 0-16.538 3.43-22.272 9.011s-9.37 13.415-9.37 22.067c0 8.653 3.635 16.487 9.37 22.067s13.671 9.011 22.272 9.011c8.653 0 16.538-3.43 22.272-9.011s9.37-13.415 9.37-22.067c0-8.653-3.635-16.487-9.37-22.067-5.683-5.632-13.619-9.011-22.272-9.011zM307.712 232.55c-2.048 1.946-4.813 3.174-7.987 3.226-3.226 0-5.99-1.229-7.987-3.226s-3.175-4.506-3.175-7.373c0-2.867 1.178-5.427 3.175-7.373 2.048-1.946 4.813-3.174 7.987-3.226 3.175 0 5.99 1.229 7.987 3.226s3.175 4.506 3.175 7.373c0 2.816-1.178 5.376-3.175 7.373z" opacity="1" visibility="false" fill="#000000"></path>
</svg>
