<?xml version="1.0" encoding="utf-8"?>
<!-- Generated by IcoMoon.io -->
<!DOCTYPE svg PUBLIC "-//W3C//DTD SVG 1.1//EN" "http://www.w3.org/Graphics/SVG/1.1/DTD/svg11.dtd">
<svg version="1.1" xmlns="http://www.w3.org/2000/svg" xmlns:xlink="http://www.w3.org/1999/xlink" width="256" height="256" viewBox="0 0 256 256">
<g id="icomoon-ignore">
	<line stroke-width="1" x1="" y1="" x2="" y2="" stroke="#449FDB" opacity=""></line>
</g>
	<path d="M127.923 153.063c18.56 0 33.613-15.053 33.613-33.613v-64.128c0-18.56-15.053-33.613-33.613-33.613s-33.613 15.053-33.613 33.613v64.103c0 18.585 15.053 33.613 33.613 33.638zM104.55 55.322c0-6.477 2.611-12.288 6.835-16.512 4.249-4.249 10.061-6.835 16.537-6.835s12.288 2.611 16.537 6.835c4.25 4.249 6.835 10.061 6.835 16.512v64.103c0 6.477-2.611 12.288-6.835 16.537-4.25 4.25-10.061 6.835-16.537 6.835s-12.288-2.611-16.537-6.835c-4.249-4.25-6.835-10.061-6.835-16.537v-64.103z" opacity="1" visibility="false" fill="#000000"></path>
	<path d="M74.368 134.375c0.333 4.275 1.689 8.832 4.070 13.363 3.558 6.784 9.421 13.491 17.766 18.535 7.117 4.301 16 7.296 26.624 8.089v23.655h-46.336v10.24h102.835v-10.24h-46.285v-23.552c7.194-0.333 16.717-1.536 25.703-5.965 5.53-2.739 10.829-6.758 14.899-12.518s6.835-13.184 7.603-22.349c0.358-4.173 0.537-10.189 0.666-16.793 0.128-6.579 0.154-13.696 0.154-19.865 0-9.114-0.077-16.128-0.077-16.128l-10.24 0.103c0 0 0.025 1.741 0.025 4.608 0.025 2.867 0.051 6.886 0.051 11.418 0 6.118-0.025 13.184-0.154 19.686-0.128 6.477-0.333 12.416-0.64 16.103-0.64 7.629-2.816 13.107-5.76 17.28-2.227 3.149-4.915 5.555-7.962 7.501-4.557 2.893-9.881 4.633-15.027 5.607-5.171 0.973-10.112 1.178-13.85 1.178-15.257-0.025-25.882-4.966-32.973-11.264-3.533-3.149-6.195-6.681-7.987-10.112s-2.739-6.758-2.918-9.395c-0.231-2.867-0.384-8.038-0.461-13.952s-0.103-12.595-0.103-18.739c0-5.376 0.025-10.343 0.051-13.952s0.051-5.837 0.051-5.837l-10.24-0.103c0 0-0.077 9.063-0.077 19.891 0 6.144 0.025 12.877 0.128 18.867 0.051 6.067 0.205 11.289 0.461 14.643z" opacity="1" visibility="false" fill="#000000"></path>
</svg>
