<?xml version="1.0" encoding="utf-8"?>
<!-- Generated by IcoMoon.io -->
<!DOCTYPE svg PUBLIC "-//W3C//DTD SVG 1.1//EN" "http://www.w3.org/Graphics/SVG/1.1/DTD/svg11.dtd">
<svg version="1.1" xmlns="http://www.w3.org/2000/svg" xmlns:xlink="http://www.w3.org/1999/xlink" width="512" height="512" viewBox="0 0 512 512">
<g id="icomoon-ignore">
	<line stroke-width="1" x1="" y1="" x2="" y2="" stroke="#449FDB" opacity=""></line>
</g>
	<path d="M116.685 280.678c-8.96-7.271-19.814-10.803-30.515-10.803-14.183 0-28.263 6.195-37.888 18.074-7.27 9.011-10.803 19.865-10.803 30.567 0 14.183 6.195 28.262 18.073 37.888 8.96 7.271 19.814 10.803 30.515 10.803 14.183 0 28.263-6.195 37.888-18.074 7.27-8.96 10.803-19.815 10.803-30.515 0.051-14.233-6.195-28.313-18.073-37.939zM112.025 339.456c-6.605 8.141-16.179 12.39-25.907 12.39-7.373 0-14.695-2.406-20.889-7.373-8.141-6.605-12.391-16.179-12.391-25.907 0-7.373 2.407-14.695 7.373-20.889v0c6.605-8.141 16.179-12.39 25.907-12.39 7.373 0 14.695 2.406 20.889 7.373 8.141 6.605 12.391 16.179 12.391 25.907 0 7.373-2.406 14.695-7.373 20.889z" opacity="1" visibility="false" fill="#000000"></path>
	<path d="M41.319 365.312l-8.294 10.24c-1.792 2.202-1.433 5.427 0.768 7.219v0c2.202 1.792 5.427 1.433 7.219-0.768l8.294-10.24c1.792-2.202 1.434-5.427-0.768-7.219s-5.479-1.433-7.219 0.768z" opacity="1" visibility="false" fill="#000000"></path>
	<path d="M139.059 354.663c-2.202-1.792-5.427-1.433-7.219 0.768s-1.434 5.427 0.768 7.219l12.083 9.728c2.202 1.792 5.427 1.433 7.219-0.768s1.434-5.427-0.768-7.219l-12.083-9.728z" opacity="1" visibility="false" fill="#000000"></path>
	<path d="M38.605 280.217c1.741-2.202 1.434-5.427-0.768-7.219l-10.24-8.295c-2.201-1.792-5.427-1.433-7.219 0.768v0c-1.792 2.202-1.433 5.427 0.768 7.219l10.24 8.294c2.202 1.741 5.478 1.382 7.219-0.768z" opacity="1" visibility="false" fill="#000000"></path>
	<path d="M91.187 378.471v0c-2.816 0.307-4.864 2.816-4.557 5.632l1.638 15.411c0.307 2.816 2.816 4.864 5.632 4.557v0c2.816-0.307 4.864-2.816 4.557-5.632l-1.638-15.411c-0.307-2.816-2.867-4.864-5.632-4.557z" opacity="1" visibility="false" fill="#000000"></path>
	<path d="M78.439 259.328v0c2.816-0.307 4.864-2.816 4.557-5.632l-1.382-13.107c-0.307-2.816-2.816-4.864-5.632-4.557v0c-2.816 0.307-4.864 2.816-4.557 5.632l1.382 13.107c0.307 2.816 2.816 4.864 5.632 4.557z" opacity="1" visibility="false" fill="#000000"></path>
	<path d="M165.683 303.565l-15.411 1.639c-2.816 0.307-4.864 2.816-4.557 5.632s2.816 4.864 5.632 4.557l15.411-1.639c2.816-0.307 4.864-2.816 4.557-5.632v0c-0.256-2.816-2.816-4.864-5.632-4.557z" opacity="1" visibility="false" fill="#000000"></path>
	<path d="M20.992 318.976l-13.107 1.382c-2.816 0.307-4.864 2.816-4.557 5.632v0c0.307 2.816 2.816 4.864 5.632 4.557l13.107-1.382c2.816-0.307 4.864-2.816 4.557-5.632-0.307-2.765-2.867-4.813-5.632-4.557z" opacity="1" visibility="false" fill="#000000"></path>
	<path d="M222.771 208.896c0-14.541-6.554-29.030-18.995-38.605v0c-8.806-6.758-19.303-10.087-29.594-10.087-14.541 0-29.030 6.553-38.605 18.995-6.758 8.806-10.087 19.303-10.087 29.594 0 14.541 6.553 29.030 18.995 38.605v0c8.806 6.758 19.251 10.086 29.594 10.086 14.592 0 29.030-6.553 38.605-18.995v0c6.809-8.806 10.087-19.303 10.087-29.594zM200.55 229.12v0c-6.553 8.55-16.384 13.005-26.419 13.005-7.117 0-14.183-2.253-20.224-6.912v0c-8.55-6.554-13.005-16.384-13.005-26.419 0-7.065 2.253-14.183 6.912-20.275 6.553-8.55 16.384-13.005 26.419-13.005 7.066 0 14.183 2.253 20.224 6.912v0c8.55 6.553 13.005 16.384 13.005 26.419-0.051 7.117-2.253 14.233-6.912 20.275z" opacity="1" visibility="false" fill="#000000"></path>
	<path d="M121.088 173.056c2.253 1.69 5.478 1.28 7.168-0.922v0c1.69-2.253 1.28-5.478-0.921-7.168l-12.288-9.472c-2.253-1.741-5.478-1.28-7.168 0.922-1.689 2.253-1.28 5.478 0.921 7.168l12.288 9.472z" opacity="1" visibility="false" fill="#000000"></path>
	<path d="M230.451 244.173c-2.253-1.69-5.478-1.28-7.168 0.922s-1.28 5.478 0.922 7.168l10.445 8.039c2.253 1.741 5.478 1.28 7.168-0.921 1.69-2.253 1.28-5.478-0.922-7.168l-10.445-8.038z" opacity="1" visibility="false" fill="#000000"></path>
	<path d="M217.088 161.331l9.472-12.288c1.69-2.253 1.28-5.478-0.922-7.168v0c-2.253-1.69-5.478-1.28-7.168 0.922l-9.421 12.288c-1.69 2.253-1.28 5.478 0.922 7.168s5.427 1.331 7.117-0.922z" opacity="1" visibility="false" fill="#000000"></path>
	<path d="M122.675 275.865v0c2.253 1.741 5.479 1.28 7.168-0.921l8.038-10.445c1.69-2.253 1.28-5.478-0.922-7.168s-5.478-1.28-7.168 0.921l-8.038 10.445c-1.741 2.202-1.331 5.427 0.921 7.168z" opacity="1" visibility="false" fill="#000000"></path>
	<path d="M97.638 225.434l13.056-1.69c2.765-0.358 4.761-2.97 4.403-5.734s-2.969-4.762-5.734-4.403l-13.056 1.69c-2.765 0.358-4.761 2.97-4.403 5.734v0c0.359 2.765 2.918 4.762 5.734 4.403z" opacity="1" visibility="false" fill="#000000"></path>
	<path d="M164.966 149.453v0c2.816-0.358 4.762-2.97 4.403-5.734l-1.997-15.36c-0.358-2.816-2.97-4.761-5.734-4.403v0c-2.765 0.359-4.762 2.969-4.403 5.735l1.997 15.36c0.358 2.765 2.97 4.762 5.734 4.403z" opacity="1" visibility="false" fill="#000000"></path>
	<path d="M180.531 268.237c-2.765 0.358-4.762 2.969-4.403 5.735l1.69 13.056c0.358 2.816 2.97 4.762 5.734 4.403v0c2.765-0.358 4.762-2.969 4.403-5.735l-1.69-13.056c-0.358-2.765-2.918-4.762-5.734-4.403z" opacity="1" visibility="false" fill="#000000"></path>
	<path d="M314.829 241.869c13.978 0 27.955-6.042 37.529-17.715v0c7.475-9.063 11.111-20.071 11.111-30.925 0-13.977-6.041-27.955-17.715-37.529v0c-9.063-7.475-20.070-11.111-30.925-11.111-13.978 0-27.955 6.042-37.529 17.715v0c-7.475 9.063-11.111 20.071-11.111 30.925 0 13.977 6.041 27.955 17.715 37.53v0c9.011 7.424 20.019 11.111 30.925 11.111zM281.549 193.178c0-7.475 2.457-14.951 7.629-21.145v0c6.605-7.987 16.077-12.083 25.702-12.135 7.475 0 14.95 2.458 21.145 7.629v0c7.987 6.605 12.083 16.077 12.083 25.702 0 7.475-2.457 14.951-7.629 21.145v0c-6.605 7.987-16.077 12.083-25.702 12.083-7.475 0-14.95-2.458-21.146-7.577v0c-7.936-6.605-12.032-16.077-12.083-25.702z" opacity="1" visibility="false" fill="#000000"></path>
	<path d="M264.653 150.323c2.151 1.792 5.427 1.485 7.219-0.666v0c1.792-2.15 1.485-5.427-0.666-7.219l-11.981-9.881c-2.151-1.792-5.427-1.485-7.219 0.717-1.792 2.15-1.485 5.427 0.717 7.219l11.929 9.831z" opacity="1" visibility="false" fill="#000000"></path>
	<path d="M359.424 147.2l9.882-11.981c1.792-2.15 1.485-5.427-0.666-7.219v0c-2.151-1.792-5.427-1.485-7.219 0.717l-9.882 11.981c-1.792 2.15-1.485 5.427 0.666 7.219s5.427 1.485 7.219-0.717z" opacity="1" visibility="false" fill="#000000"></path>
	<path d="M268.8 240.999l-8.346 10.137c-1.792 2.15-1.485 5.427 0.666 7.219v0c2.151 1.792 5.427 1.485 7.219-0.666l8.397-10.189c1.792-2.15 1.485-5.427-0.717-7.219s-5.427-1.434-7.219 0.717z" opacity="1" visibility="false" fill="#000000"></path>
	<path d="M380.365 193.434l15.462-1.485c2.816-0.256 4.864-2.765 4.608-5.581v0c-0.256-2.816-2.765-4.864-5.581-4.608l-15.462 1.485c-2.816 0.256-4.864 2.765-4.608 5.581 0.256 2.765 2.765 4.864 5.581 4.608z" opacity="1" visibility="false" fill="#000000"></path>
	<path d="M249.958 195.635l-13.107 1.28c-2.816 0.256-4.864 2.765-4.608 5.581v0c0.256 2.816 2.765 4.864 5.581 4.608l13.107-1.28c2.816-0.256 4.864-2.765 4.608-5.581v0c-0.256-2.765-2.816-4.864-5.581-4.608z" opacity="1" visibility="false" fill="#000000"></path>
	<path d="M307.763 133.53c2.816-0.256 4.864-2.765 4.608-5.581l-1.485-15.411c-0.256-2.816-2.765-4.864-5.581-4.608s-4.864 2.765-4.608 5.581l1.485 15.411c0.256 2.816 2.765 4.864 5.581 4.608z" opacity="1" visibility="false" fill="#000000"></path>
	<path d="M319.232 252.774v0c-2.816 0.256-4.915 2.765-4.608 5.581l1.28 13.107c0.256 2.816 2.765 4.864 5.581 4.608s4.864-2.765 4.608-5.581l-1.28-13.107c-0.307-2.816-2.816-4.864-5.581-4.608z" opacity="1" visibility="false" fill="#000000"></path>
	<path d="M473.19 286.925c-1.178-26.112-22.681-46.489-48.538-46.489-0.717 0-1.485 0-2.202 0.051v0c-26.112 1.178-46.438 22.681-46.49 48.537 0 0.717 0 1.485 0.051 2.202v0c1.178 26.112 22.682 46.49 48.538 46.49 0.717 0 1.433 0 2.202-0.051v0c26.112-1.178 46.49-22.681 46.49-48.538 0-0.768-0.051-1.485-0.051-2.202zM426.035 322.304v0c-0.512 0-1.024 0.051-1.485 0.051-17.664 0-32.409-13.978-33.178-31.795v0c0-0.512-0.051-1.024-0.051-1.536 0-17.664 13.926-32.409 31.795-33.178v0c0.512 0 1.024-0.051 1.536-0.051 17.664 0 32.409 13.926 33.229 31.795 0 0.512 0.051 1.024 0.051 1.536-0.051 17.664-14.029 32.409-31.897 33.178z" opacity="1" visibility="false" fill="#000000"></path>
	<path d="M423.168 230.349c2.816-0.102 5.017-2.509 4.915-5.325l-0.666-15.513c-0.103-2.816-2.509-5.018-5.325-4.864v0c-2.816 0.102-5.017 2.509-4.915 5.325l0.666 15.513c0.103 2.765 2.509 4.966 5.325 4.864z" opacity="1" visibility="false" fill="#000000"></path>
	<path d="M428.493 350.055v0c-2.816 0.103-5.017 2.509-4.915 5.325l0.615 13.159c0.103 2.816 2.509 5.017 5.325 4.864s5.017-2.509 4.864-5.325l-0.563-13.159c-0.103-2.816-2.509-5.017-5.325-4.864z" opacity="1" visibility="false" fill="#000000"></path>
	<path d="M503.654 280.423l-15.514 0.717c-2.816 0.103-5.017 2.509-4.915 5.325s2.509 5.017 5.325 4.864l15.514-0.666c2.816-0.103 5.017-2.509 4.915-5.325s-2.509-5.017-5.325-4.915z" opacity="1" visibility="false" fill="#000000"></path>
	<path d="M358.247 286.925l-13.159 0.563c-2.816 0.103-5.017 2.509-4.915 5.325v0c0.103 2.816 2.509 5.017 5.325 4.864l13.159-0.615c2.816-0.103 5.017-2.509 4.864-5.325s-2.457-4.966-5.274-4.813z" opacity="1" visibility="false" fill="#000000"></path>
	<path d="M475.238 330.291c-2.099-1.894-5.325-1.741-7.219 0.307s-1.741 5.325 0.307 7.219l11.469 10.496c2.099 1.894 5.325 1.741 7.219-0.307v0c1.894-2.099 1.741-5.325-0.307-7.219l-11.469-10.496z" opacity="1" visibility="false" fill="#000000"></path>
	<path d="M369.562 233.625c-2.099-1.894-5.325-1.741-7.219 0.307-1.894 2.099-1.741 5.325 0.307 7.219l9.728 8.909c2.099 1.894 5.325 1.741 7.219-0.307s1.741-5.325-0.307-7.219l-9.728-8.909z" opacity="1" visibility="false" fill="#000000"></path>
	<path d="M471.347 243.507l10.496-11.469c1.894-2.099 1.741-5.325-0.307-7.219s-5.325-1.741-7.219 0.307l-10.445 11.417c-1.894 2.099-1.741 5.325 0.307 7.219s5.274 1.792 7.168-0.256z" opacity="1" visibility="false" fill="#000000"></path>
	<path d="M383.283 332.237c-2.099-1.894-5.325-1.741-7.219 0.307l-8.909 9.728c-1.894 2.099-1.741 5.325 0.307 7.219 2.099 1.894 5.325 1.741 7.219-0.307l8.909-9.728c1.945-2.099 1.792-5.325-0.307-7.219v0z" opacity="1" visibility="false" fill="#000000"></path>
</svg>
