<?xml version="1.0" encoding="utf-8"?>
<!-- Generated by IcoMoon.io -->
<!DOCTYPE svg PUBLIC "-//W3C//DTD SVG 1.1//EN" "http://www.w3.org/Graphics/SVG/1.1/DTD/svg11.dtd">
<svg version="1.1" xmlns="http://www.w3.org/2000/svg" xmlns:xlink="http://www.w3.org/1999/xlink" width="512" height="512" viewBox="0 0 512 512">
<g id="icomoon-ignore">
	<line stroke-width="1" x1="" y1="" x2="" y2="" stroke="#449FDB" opacity=""></line>
</g>
	<path d="M129.28 102.553h253.44v20.48h-253.44v-20.48z" opacity="1" visibility="false" fill="#000000"></path>
	<path d="M230.81 73.523h50.329v20.48h-50.329v-20.48z" opacity="1" visibility="false" fill="#000000"></path>
	<path d="M167.27 396.237c-1.126-1.075-1.741-2.457-1.792-3.891l-10.24-248.781h-20.48l10.291 249.651c0.307 7.065 3.43 13.312 8.089 17.817s11.059 7.373 18.125 7.373h169.574c7.065 0 13.466-2.867 18.125-7.373s7.834-10.752 8.089-17.817l10.291-249.651h-20.48l-10.24 248.781c-0.051 1.382-0.717 2.765-1.792 3.891-1.127 1.075-2.56 1.639-3.942 1.639h-33.485l9.625-254.31h-20.48l-9.625 254.31h-60.672l-9.625-254.31h-20.48l9.625 254.31h-34.56c-1.382 0-2.816-0.563-3.942-1.639z" opacity="1" visibility="false" fill="#000000"></path>
</svg>
