<?xml version="1.0" encoding="utf-8"?>
<!-- Generated by IcoMoon.io -->
<!DOCTYPE svg PUBLIC "-//W3C//DTD SVG 1.1//EN" "http://www.w3.org/Graphics/SVG/1.1/DTD/svg11.dtd">
<svg version="1.1" xmlns="http://www.w3.org/2000/svg" xmlns:xlink="http://www.w3.org/1999/xlink" width="256" height="256" viewBox="0 0 256 256">
<g id="icomoon-ignore">
	<line stroke-width="1" x1="" y1="" x2="" y2="" stroke="#449FDB" opacity=""></line>
</g>
	<path d="M163.097 164.583v0 0z" opacity="1" visibility="false" fill="#000000"></path>
	<path d="M47.718 191.13c1.459 2.125 3.175 4.25 5.095 6.169v0c2.919 2.867 6.809 5.351 11.136 7.526 4.301 2.125 8.96 3.84 13.338 4.685v0c1.305 0.256 2.611 0.333 3.993 0.333 2.56 0 5.35-0.333 8.32-0.922 8.909-1.741 19.686-5.683 29.082-10.88 14.003-7.808 33.459-22.477 44.416-33.459 10.905-11.008 25.498-30.489 33.305-44.391 3.456-6.195 6.349-13.031 8.422-19.507 2.048-6.502 3.328-12.544 3.328-17.638 0-1.408-0.102-2.765-0.358-4.096-0.87-4.352-2.585-8.96-4.736-13.235s-4.633-8.166-7.501-11.034v0c-2.56-2.56-5.478-4.787-8.32-6.477-1.434-0.845-2.841-1.562-4.25-2.125-1.434-0.538-2.816-0.973-4.608-0.998-1.075 0-1.92 0.205-2.739 0.435-1.408 0.41-2.714 1.024-4.096 1.767-4.071 2.253-8.755 5.888-13.005 10.112-3.226 3.225-6.093 6.733-8.269 10.010-1.101 1.638-1.997 3.2-2.714 4.736-0.358 0.768-0.666 1.536-0.896 2.355s-0.41 1.664-0.435 2.739c0.025 1.766 0.461 3.174 0.999 4.608 0.819 2.125 2.023 4.224 3.507 6.374 1.459 2.125 3.2 4.249 5.12 6.169 3.815 3.814 7.885 7.885 9.933 9.933-0.051 0.691-0.256 1.843-0.64 3.149-0.487 1.613-1.203 3.481-2.125 5.35v0c-0.563 1.126-1.613 2.867-2.995 4.864-4.173 6.016-11.213 14.439-17.664 20.864-4.301 4.301-9.779 9.19-15.053 13.491-5.248 4.301-10.394 8.089-13.722 10.061v0c-2.739 1.664-5.504 2.995-7.757 3.891-1.126 0.435-2.125 0.768-2.918 0.973-0.179 0.051-0.359 0.077-0.512 0.128-2.125-2.125-5.99-5.99-9.626-9.625-2.534-2.509-5.35-4.762-8.064-6.528-1.357-0.87-2.713-1.613-4.045-2.227-1.357-0.589-2.637-1.049-4.352-1.178v0l-0.487-0.025c-1.075 0-1.92 0.205-2.713 0.435-1.408 0.41-2.662 1.024-4.019 1.767-4.019 2.253-8.653 5.863-12.928 10.112v0c-3.303 3.303-6.272 6.887-8.55 10.189-1.127 1.664-2.099 3.251-2.841 4.787-0.384 0.768-0.691 1.536-0.947 2.329-0.256 0.819-0.461 1.664-0.512 2.714v-0.025 0.281c0.026 1.767 0.435 3.149 0.973 4.583 0.794 2.176 1.971 4.301 3.431 6.451zM103.578 168.294c0 0 0 0 0 0v0 0zM57.882 173.338c1.587-2.048 3.507-4.224 5.504-6.221v0c2.791-2.765 5.888-5.325 8.473-7.040 1.28-0.87 2.457-1.536 3.277-1.92 0.307-0.154 0.537-0.231 0.743-0.307 0.256 0.077 0.64 0.231 1.075 0.461 2.253 1.075 5.888 3.686 8.602 6.4 4.454 4.454 9.319 9.319 10.829 10.829v0c0.947 0.947 1.997 1.382 2.841 1.638 0.871 0.231 1.613 0.281 2.304 0.307 1.382 0 2.611-0.231 3.942-0.563 3.891-1.024 8.55-3.123 13.389-6.016v0c4.121-2.483 9.395-6.4 14.925-10.931 5.504-4.506 11.187-9.575 15.821-14.183 4.633-4.633 9.395-10.010 13.44-15.053 2.023-2.535 3.865-4.966 5.401-7.194 1.561-2.253 2.816-4.275 3.763-6.118v0c1.178-2.381 2.125-4.761 2.791-7.014 0.666-2.278 1.075-4.352 1.075-6.451 0-0.871-0.077-1.741-0.333-2.739-0.256-0.973-0.743-2.125-1.817-3.225-1.485-1.485-6.349-6.349-10.803-10.803-1.894-1.894-3.738-4.275-4.966-6.323-0.614-1.024-1.101-1.971-1.357-2.688-0.128-0.359-0.231-0.64-0.256-0.793 0.102-0.333 0.384-1.075 0.896-1.945 1.536-2.867 4.813-7.168 8.397-10.752 2.714-2.739 5.837-5.273 8.448-6.989 1.305-0.87 2.483-1.536 3.328-1.92 0.41-0.179 0.717-0.307 0.896-0.358 0.231 0.051 0.691 0.205 1.229 0.435 2.279 0.973 5.965 3.456 8.627 6.144 1.613 1.587 3.789 4.787 5.555 8.371 1.792 3.558 3.226 7.552 3.84 10.65 0.102 0.461 0.179 1.203 0.154 2.099 0.025 3.302-0.999 8.73-2.867 14.541-1.843 5.811-4.506 12.109-7.603 17.613-7.091 12.723-21.683 32.205-31.616 42.163v0c-9.881 9.984-29.338 24.653-42.112 31.719-5.555 3.097-11.904 5.76-17.792 7.629-2.944 0.922-5.76 1.664-8.269 2.15s-4.736 0.717-6.374 0.717c-0.871 0-1.587-0.077-2.048-0.154h-0.025c-3.123-0.589-7.117-2.023-10.727-3.815-3.584-1.767-6.835-3.968-8.422-5.581v0c-1.895-1.894-3.687-4.224-4.889-6.272-0.614-1.024-1.075-1.971-1.331-2.662-0.128-0.358-0.23-0.64-0.256-0.819v0c0.102-0.281 0.307-0.845 0.666-1.511 0.742-1.511 2.048-3.456 3.635-5.504z" opacity="1" visibility="false" fill="#000000"></path>
</svg>
