<?xml version="1.0" encoding="utf-8"?>
<!-- Generated by IcoMoon.io -->
<!DOCTYPE svg PUBLIC "-//W3C//DTD SVG 1.1//EN" "http://www.w3.org/Graphics/SVG/1.1/DTD/svg11.dtd">
<svg version="1.1" xmlns="http://www.w3.org/2000/svg" xmlns:xlink="http://www.w3.org/1999/xlink" width="256" height="256" viewBox="0 0 256 256">
<g id="icomoon-ignore">
	<line stroke-width="1" x1="" y1="" x2="" y2="" stroke="#449FDB" opacity=""></line>
</g>
	<path d="M132.48 20.48c-59.392 0-107.52 48.128-107.52 107.52 0 31.923 13.952 60.595 36.045 80.281l-47.232 27.238h118.707c23.501 0 45.261-7.577 62.951-20.377h35.942l-21.555-12.441c18.688-19.328 30.208-45.696 30.208-74.701-0.025-59.392-48.179-107.52-107.546-107.52zM179.456 188.877l-6.042 4.659 19.661 11.341h-60.595c-21.248 0-40.448-8.601-54.374-22.528s-22.528-33.126-22.528-54.374c0-21.248 8.601-40.448 22.528-54.374s33.127-22.528 54.374-22.528c21.248 0 40.448 8.602 54.374 22.528s22.528 33.126 22.528 54.374c0 24.806-11.725 46.823-29.927 60.902zM191.437 192.128c17.305-15.923 28.185-38.758 28.185-64.128 0-48.128-39.014-87.142-87.143-87.142s-87.142 39.014-87.142 87.142c0 48.128 39.014 87.142 87.142 87.142h43.238c-13.030 6.477-27.699 10.137-43.238 10.137h-80.435l27.034-15.59-6.041-4.685c-23.040-17.817-37.837-45.671-37.837-77.005 0-26.88 10.88-51.174 28.493-68.787s41.907-28.493 68.787-28.493c26.88 0 51.174 10.88 68.787 28.493s28.493 41.907 28.493 68.787c0 27.213-11.161 51.737-29.159 69.401l-9.165-5.274z" opacity="1" visibility="false" fill="#000000"></path>
</svg>
