<?xml version="1.0" encoding="utf-8"?>
<!-- Generated by IcoMoon.io -->
<!DOCTYPE svg PUBLIC "-//W3C//DTD SVG 1.1//EN" "http://www.w3.org/Graphics/SVG/1.1/DTD/svg11.dtd">
<svg version="1.1" xmlns="http://www.w3.org/2000/svg" xmlns:xlink="http://www.w3.org/1999/xlink" width="256" height="256" viewBox="0 0 256 256">
<g id="icomoon-ignore">
	<line stroke-width="1" x1="" y1="" x2="" y2="" stroke="#449FDB" opacity=""></line>
</g>
	<path d="M179.84 200.192v-133.12c-0.025-8.474-6.887-15.334-15.36-15.36h-61.44c-8.474 0.026-15.335 6.886-15.36 15.36v133.12c0.025 8.474 6.886 15.334 15.36 15.36h61.44c8.474-0.025 15.334-6.887 15.36-15.36zM99.405 203.802c-0.947-0.947-1.51-2.202-1.51-3.609v-133.12c0-1.408 0.563-2.662 1.51-3.609s2.201-1.511 3.609-1.511h61.44c1.408 0 2.662 0.563 3.609 1.511s1.511 2.201 1.511 3.609v133.12c0 1.408-0.563 2.662-1.511 3.609s-2.202 1.511-3.609 1.511h-61.44c-1.382 0-2.637-0.563-3.609-1.511z" opacity="1" visibility="false" fill="#000000"></path>
	<path d="M103.040 72.192h61.44v112.64h-61.44v-112.64z" opacity="1" visibility="false" fill="#000000"></path>
	<path d="M138.88 195.072c0 2.828-2.292 5.12-5.12 5.12s-5.12-2.292-5.12-5.12c0-2.828 2.292-5.12 5.12-5.12s5.12 2.292 5.12 5.12z" opacity="1" visibility="false" fill="#000000"></path>
	<path d="M136.806 46.694v-7.68h-39.27c-12.826 0.026-23.219 10.419-23.245 23.245v78.643h7.68v-78.618c0.025-8.602 6.963-15.565 15.591-15.59h39.245z" opacity="1" visibility="false" fill="#000000"></path>
	<path d="M92.237 34.355h27.418v-7.68h-27.418c-16.845 0.026-30.489 13.67-30.515 30.515v68.301h7.68v-68.275c0-12.621 10.215-22.835 22.835-22.861z" opacity="1" visibility="false" fill="#000000"></path>
	<path d="M170.649 229.632c12.826-0.025 23.219-10.419 23.245-23.245v-78.669h-7.68v78.618c-0.025 8.601-6.963 15.565-15.59 15.59h-39.219v7.68l39.245 0.025z" opacity="1" visibility="false" fill="#000000"></path>
	<path d="M198.81 211.405c-0.025 12.621-10.24 22.835-22.861 22.861h-27.392v7.68h27.417c16.845-0.025 30.489-13.671 30.515-30.515v0-68.301h-7.68v68.275z" opacity="1" visibility="false" fill="#000000"></path>
</svg>
