<?xml version="1.0" encoding="utf-8"?>
<!-- Generated by IcoMoon.io -->
<!DOCTYPE svg PUBLIC "-//W3C//DTD SVG 1.1//EN" "http://www.w3.org/Graphics/SVG/1.1/DTD/svg11.dtd">
<svg version="1.1" xmlns="http://www.w3.org/2000/svg" xmlns:xlink="http://www.w3.org/1999/xlink" width="512" height="512" viewBox="0 0 512 512">
<g id="icomoon-ignore">
	<line stroke-width="1" x1="" y1="" x2="" y2="" stroke="#449FDB" opacity=""></line>
</g>
	<path d="M431.36 123.29h-10.496v-13.056c-0.051-14.131-11.469-25.549-25.6-25.6h-10.803v-10.65c-0.051-14.131-11.469-25.549-25.6-25.6h-284.877c-14.131 0.051-25.549 11.469-25.6 25.6v285.747c0.051 14.131 11.469 25.549 25.6 25.6h10.803v10.649c0.051 14.131 11.469 25.549 25.6 25.6h10.496v13.056c0.051 14.131 11.469 25.549 25.6 25.6h284.877c14.131-0.051 25.549-11.469 25.6-25.6v-285.747c-0.051-14.131-11.469-25.549-25.6-25.6zM70.349 363.366c-0.973-0.973-1.485-2.202-1.536-3.584v-285.747c0-1.382 0.563-2.611 1.536-3.584s2.201-1.485 3.584-1.536h284.877c1.382 0 2.611 0.563 3.584 1.536s1.485 2.201 1.536 3.584v285.747c0 1.382-0.563 2.611-1.536 3.584s-2.202 1.485-3.584 1.536h-284.825c-1.382 0-2.611-0.563-3.635-1.536zM106.752 399.667c-0.973-0.973-1.485-2.202-1.536-3.584v-10.649h253.645c14.131-0.051 25.549-11.469 25.6-25.6v-254.669h10.803c1.382 0 2.611 0.563 3.584 1.536s1.485 2.201 1.536 3.584v285.747c0 1.382-0.563 2.611-1.536 3.584s-2.202 1.485-3.584 1.536h-284.877c-1.433 0-2.662-0.563-3.635-1.485zM436.48 434.688c0 1.382-0.563 2.611-1.536 3.584s-2.202 1.485-3.584 1.536h-284.877c-1.382 0-2.611-0.563-3.584-1.536s-1.485-2.202-1.536-3.584v-13.056h253.901c14.131-0.051 25.549-11.469 25.6-25.6v-252.262h10.496c1.382 0 2.611 0.563 3.584 1.536s1.485 2.202 1.536 3.584v285.798z" opacity="1" visibility="false" fill="#000000"></path>
</svg>
