<?xml version="1.0" encoding="utf-8"?>
<!-- Generated by IcoMoon.io -->
<!DOCTYPE svg PUBLIC "-//W3C//DTD SVG 1.1//EN" "http://www.w3.org/Graphics/SVG/1.1/DTD/svg11.dtd">
<svg version="1.1" xmlns="http://www.w3.org/2000/svg" xmlns:xlink="http://www.w3.org/1999/xlink" width="512" height="512" viewBox="0 0 512 512">
<g id="icomoon-ignore">
	<line stroke-width="1" x1="" y1="" x2="" y2="" stroke="#449FDB" opacity=""></line>
</g>
	<path d="M256.307 399.667c-50.995 0-100.557-26.317-128.051-73.575-11.367-19.558-17.767-40.601-19.609-61.696l-20.429 1.741c2.048 24.064 9.37 48.026 22.272 70.246 31.283 53.76 87.757 83.763 145.767 83.712 28.774 0 58.010-7.373 84.633-22.887v0c21.197-12.339 38.656-28.672 52.121-47.411 0.154 3.687 0.563 16.179 0.973 28.774 0.512 15.002 22.835 18.329 22.835 18.329l-3.021-89.856-88.371 16.589c0 0 8.089 21.094 22.835 18.279 13.721-2.611 27.238-5.12 29.133-5.478-11.93 17.050-27.648 31.846-46.848 43.059v0c-23.347 13.721-48.947 20.173-74.24 20.173z" opacity="1" visibility="false" fill="#000000"></path>
	<path d="M180.736 182.067c0 0-12.185-18.995-26.112-13.261s-27.648 11.367-27.648 11.367l-0.307-0.154c12.493-22.631 30.976-42.291 54.989-56.32 23.45-13.671 49.049-20.121 74.343-20.121 50.995 0 100.557 26.317 128.051 73.575 13.671 23.45 20.122 49.049 20.122 74.343 0 1.69-0.051 3.328-0.103 4.966l20.48 0.666c0.051-1.894 0.103-3.789 0.103-5.683 0-28.774-7.373-58.010-22.938-84.633-31.232-53.709-87.757-83.712-145.715-83.712-28.774 0-58.010 7.373-84.633 22.886-27.085 15.769-48.077 37.99-62.31 63.539-1.024-4.25-3.84-15.719-6.605-27.392-3.584-14.592-26.112-13.261-26.112-13.261l21.248 87.398 83.149-34.202z" opacity="1" visibility="false" fill="#000000"></path>
</svg>
