<?xml version="1.0" encoding="utf-8"?>
<!-- Generated by IcoMoon.io -->
<!DOCTYPE svg PUBLIC "-//W3C//DTD SVG 1.1//EN" "http://www.w3.org/Graphics/SVG/1.1/DTD/svg11.dtd">
<svg version="1.1" xmlns="http://www.w3.org/2000/svg" xmlns:xlink="http://www.w3.org/1999/xlink" width="512" height="512" viewBox="0 0 512 512">
<g id="icomoon-ignore">
	<line stroke-width="1" x1="" y1="" x2="" y2="" stroke="#449FDB" opacity=""></line>
</g>
	<path d="M90.368 250.47c0.103 86.169 69.99 155.955 156.16 155.955 86.272 0 156.16-69.888 156.16-156.16v0-0.614c-0.409-85.811-69.939-155.29-155.75-155.494h-0.41c0 0 0 0 0 0v0 0c-86.119 0-155.955 69.734-156.16 155.853 0 0 0 0.051 0 0.051v0.154c0 0.051 0 0.051 0 0.102 0 0 0 0 0 0v0 0.154zM150.579 154.368c24.576-24.576 58.419-39.731 95.949-39.731v0c37.478 0 71.373 15.155 95.949 39.731s39.731 58.419 39.731 95.949v0 0 0c0 37.478-15.155 71.373-39.731 95.949s-58.419 39.731-95.949 39.731c-37.478 0-71.373-15.155-95.949-39.731-24.218-24.269-39.27-57.498-39.68-94.413l0.103-0.41-0.153-1.587c0.103-37.325 15.257-71.014 39.731-95.488z" opacity="1" visibility="false" fill="#000000"></path>
	<path d="M156.672 260.505h79.616v79.616c0 2.816 2.304 5.12 5.12 5.12h10.24c2.816 0 5.12-2.304 5.12-5.12v-79.616h79.616c2.816 0 5.12-2.304 5.12-5.12v-10.24c0-2.816-2.304-5.12-5.12-5.12h-79.616v-79.616c0-2.816-2.304-5.12-5.12-5.12h-10.24c-2.816 0-5.12 2.304-5.12 5.12v79.616h-79.616c-2.816 0-5.12 2.304-5.12 5.12v10.24c0 2.816 2.304 5.12 5.12 5.12z" opacity="1" visibility="false" fill="#000000"></path>
</svg>
