<?xml version="1.0" encoding="utf-8"?>
<!-- Generated by IcoMoon.io -->
<!DOCTYPE svg PUBLIC "-//W3C//DTD SVG 1.1//EN" "http://www.w3.org/Graphics/SVG/1.1/DTD/svg11.dtd">
<svg version="1.1" xmlns="http://www.w3.org/2000/svg" xmlns:xlink="http://www.w3.org/1999/xlink" width="256" height="256" viewBox="0 0 256 256">
<g id="icomoon-ignore">
	<line stroke-width="1" x1="" y1="" x2="" y2="" stroke="#449FDB" opacity=""></line>
</g>
	<path d="M64.64 51.277h126.72v10.24h-126.72v-10.24z" opacity="1" visibility="false" fill="#000000"></path>
	<path d="M115.405 36.761h25.165v10.24h-25.165v-10.24z" opacity="1" visibility="false" fill="#000000"></path>
	<path d="M83.635 198.119c-0.563-0.537-0.871-1.229-0.896-1.946l-5.12-124.391h-10.24l5.145 124.826c0.153 3.533 1.715 6.656 4.045 8.909s5.529 3.686 9.063 3.686h84.787c3.533 0 6.733-1.434 9.063-3.686s3.917-5.376 4.045-8.909l5.145-124.826h-10.24l-5.12 124.391c-0.025 0.691-0.358 1.382-0.896 1.946-0.563 0.537-1.28 0.819-1.971 0.819h-16.743l4.813-127.155h-10.24l-4.813 127.155h-30.336l-4.813-127.155h-10.24l4.813 127.155h-17.28c-0.691 0-1.408-0.281-1.971-0.819z" opacity="1" visibility="false" fill="#000000"></path>
</svg>
