<?xml version="1.0" encoding="utf-8"?>
<!-- Generated by IcoMoon.io -->
<!DOCTYPE svg PUBLIC "-//W3C//DTD SVG 1.1//EN" "http://www.w3.org/Graphics/SVG/1.1/DTD/svg11.dtd">
<svg version="1.1" xmlns="http://www.w3.org/2000/svg" xmlns:xlink="http://www.w3.org/1999/xlink" width="256" height="256" viewBox="0 0 256 256">
<g id="icomoon-ignore">
	<line stroke-width="1" x1="" y1="" x2="" y2="" stroke="#449FDB" opacity=""></line>
</g>
	<path d="M212.531 58.368c-0.025-7.066-5.734-12.774-12.8-12.8h-71.142v10.24h71.142c0.691 0 1.305 0.282 1.792 0.768s0.743 1.101 0.768 1.792v138.24c0 0.691-0.281 1.305-0.768 1.792s-1.101 0.743-1.792 0.768h-71.424v10.24h71.424c7.065-0.025 12.774-5.734 12.8-12.8v-138.24z" opacity="1" visibility="false" fill="#000000"></path>
	<path d="M103.936 74.931l-52.608 52.659 52.429 52.429c0 0 5.913-11.827 0-17.767-4.377-4.377-21.145-21.145-29.671-29.645h105.216v-10.24h-104.986c8.602-8.627 25.293-25.344 29.619-29.671 5.939-5.939 0-17.766 0-17.766z" opacity="1" visibility="false" fill="#000000"></path>
</svg>
