<?xml version="1.0" encoding="utf-8"?>
<!-- Generated by IcoMoon.io -->
<!DOCTYPE svg PUBLIC "-//W3C//DTD SVG 1.1//EN" "http://www.w3.org/Graphics/SVG/1.1/DTD/svg11.dtd">
<svg version="1.1" xmlns="http://www.w3.org/2000/svg" xmlns:xlink="http://www.w3.org/1999/xlink" width="512" height="512" viewBox="0 0 512 512">
<g id="icomoon-ignore">
	<line stroke-width="1" x1="" y1="" x2="" y2="" stroke="#449FDB" opacity=""></line>
</g>
	<path d="M114.381 354.611h167.117c14.131-0.051 25.549-11.469 25.6-25.6v-146.023c-0.051-14.131-11.469-25.549-25.6-25.6h-167.117c-14.131 0.051-25.549 11.469-25.6 25.6v146.023c0.051 14.131 11.469 25.549 25.6 25.6zM109.261 182.989c0-1.382 0.563-2.611 1.536-3.584s2.201-1.485 3.584-1.536h167.117c1.382 0 2.611 0.563 3.584 1.536s1.485 2.202 1.536 3.584v146.023c0 1.382-0.563 2.611-1.536 3.584s-2.202 1.485-3.584 1.536h-167.117c-1.382 0-2.611-0.563-3.584-1.536s-1.485-2.202-1.536-3.584v-146.023z" opacity="1" visibility="false" fill="#000000"></path>
	<path d="M346.675 202.393c-5.99 3.072-10.445 7.833-13.773 13.209-3.277 5.427-5.478 11.52-5.529 18.227v48.384c0.051 6.81 2.406 12.954 5.888 18.279 3.533 5.274 8.294 9.83 14.541 12.493l57.395 24.115c2.867 1.229 5.939 1.894 9.063 1.894 5.223 0.051 10.649-2.202 14.183-6.247 3.584-4.045 5.12-9.267 5.12-14.49v-127.949c0-4.915-1.331-9.881-4.659-13.875-1.639-1.997-3.789-3.635-6.195-4.71s-4.966-1.587-7.475-1.587c-3.635 0-7.065 0.973-10.24 2.611l-58.317 29.645zM355.789 294.093c-1.536-0.615-3.84-2.457-5.427-4.966-1.639-2.406-2.509-5.274-2.457-6.912v-48.384c-0.051-1.741 0.819-4.864 2.509-7.526 1.639-2.714 3.993-4.915 5.581-5.632l57.139-29.030v126.566l-57.344-24.115z" opacity="1" visibility="false" fill="#000000"></path>
</svg>
