<?xml version="1.0" encoding="utf-8"?>
<!-- Generated by IcoMoon.io -->
<!DOCTYPE svg PUBLIC "-//W3C//DTD SVG 1.1//EN" "http://www.w3.org/Graphics/SVG/1.1/DTD/svg11.dtd">
<svg version="1.1" xmlns="http://www.w3.org/2000/svg" xmlns:xlink="http://www.w3.org/1999/xlink" width="512" height="512" viewBox="0 0 512 512">
<g id="icomoon-ignore">
	<line stroke-width="1" x1="" y1="" x2="" y2="" stroke="#449FDB" opacity=""></line>
</g>
	<path d="M112.281 112.128c0.973-0.973 2.201-1.485 3.584-1.536h99.891v-20.48h-99.84c-14.131 0.051-25.549 11.469-25.6 25.6v276.48c0.051 14.131 11.469 25.549 25.6 25.6h282.471c14.131-0.051 25.549-11.469 25.6-25.6v-100.557h-20.48v100.557c0 1.382-0.563 2.611-1.536 3.635-0.973 0.973-2.202 1.485-3.584 1.485h-282.471c-1.382 0-2.611-0.563-3.584-1.485-0.973-0.973-1.485-2.202-1.536-3.635v-276.48c0-1.382 0.512-2.611 1.485-3.584z" opacity="1" visibility="false" fill="#000000"></path>
	<path d="M322.151 91.648c0 0-10.445 24.32 2.048 35.481 8.704 7.731 40.704 36.301 59.392 52.941-49.408 1.024-87.706 10.957-117.248 25.907-23.45 11.827-41.267 26.778-54.63 42.599-20.071 23.706-30.208 49.101-35.277 68.864-5.12 19.763-5.222 33.945-5.222 35.738v0.103l0.102 10.24 20.48-0.205-0.102-10.24c0-0.461 0.051-10.445 3.226-24.935 2.406-10.906 6.553-24.32 13.721-38.298 10.752-20.941 28.16-43.008 56.935-60.109 28.416-16.845 68.301-28.928 124.672-29.235-15.155 17.049-49.767 55.911-58.368 65.587-11.161 12.544 2.048 35.481 2.048 35.481l99.021-111.207-110.797-98.713z" opacity="1" visibility="false" fill="#000000"></path>
</svg>
