<?xml version="1.0" encoding="utf-8"?>
<!-- Generated by IcoMoon.io -->
<!DOCTYPE svg PUBLIC "-//W3C//DTD SVG 1.1//EN" "http://www.w3.org/Graphics/SVG/1.1/DTD/svg11.dtd">
<svg version="1.1" xmlns="http://www.w3.org/2000/svg" xmlns:xlink="http://www.w3.org/1999/xlink" width="512" height="512" viewBox="0 0 512 512">
<g id="icomoon-ignore">
	<line stroke-width="1" x1="" y1="" x2="" y2="" stroke="#449FDB" opacity=""></line>
</g>
	<path d="M432.691 301.005c7.065-11.878 13.312-27.75 13.312-46.848 0-33.075-15.155-54.528-28.109-66.816 3.481-8.345 5.325-17.357 5.325-26.573 0-37.939-30.873-68.813-68.813-68.813-2.816 0-5.683 0.153-8.448 0.512-13.312-14.797-40.858-38.093-82.637-38.861-0.615 0-1.28 0-1.894 0-32.154 0-60.928 15.514-82.022 43.981-56.32 5.785-100.454 54.784-100.454 114.176 0 16.435 3.379 32.41 9.882 47.104-16.179 12.8-37.273 36.096-37.273 70.553 0 48.998 39.885 88.883 88.883 88.883h257.843c34.048 0 61.747-29.389 61.747-65.536 0-22.221-9.677-40.141-27.341-51.763zM398.285 397.824h-257.792c-37.785 0-68.403-30.618-68.403-68.403 0-42.547 43.827-63.949 43.827-63.949-10.394-15.207-16.486-33.741-16.486-53.76 0-51.559 41.216-94.259 91.187-94.259 15.872-25.242 39.782-43.418 70.861-43.418 0.512 0 1.024 0 1.485 0 49.664 0.921 75.008 41.216 75.008 41.216 5.12-1.843 10.701-2.867 16.486-2.867 26.675 0 48.333 21.657 48.333 48.333 0 12.185-4.505 23.296-11.93 31.795 0 0 34.714 17.255 34.714 61.594 0 33.945-25.702 55.193-25.702 55.193 23.757 5.478 39.731 19.456 39.731 43.418-0.051 24.013-17.357 45.107-41.318 45.107z" opacity="1" visibility="false" fill="#000000"></path>
</svg>
