<?xml version="1.0" encoding="utf-8"?>
<!-- Generated by IcoMoon.io -->
<!DOCTYPE svg PUBLIC "-//W3C//DTD SVG 1.1//EN" "http://www.w3.org/Graphics/SVG/1.1/DTD/svg11.dtd">
<svg version="1.1" xmlns="http://www.w3.org/2000/svg" xmlns:xlink="http://www.w3.org/1999/xlink" width="512" height="512" viewBox="0 0 512 512">
<g id="icomoon-ignore">
	<line stroke-width="1" x1="" y1="" x2="" y2="" stroke="#449FDB" opacity=""></line>
</g>
	<path d="M112.793 418.816h142.285v-20.48h-142.285c-1.382 0-2.611-0.563-3.584-1.485-0.973-0.973-1.485-2.202-1.536-3.635v-276.48c0-1.382 0.563-2.611 1.536-3.584s2.201-1.485 3.584-1.536h142.848v-20.48h-142.848c-14.131 0.051-25.549 11.469-25.6 25.6v276.48c0.051 14.131 11.469 25.549 25.6 25.6z" opacity="1" visibility="false" fill="#000000"></path>
	<path d="M153.6 265.216h210.073c-17.203 17.255-50.586 50.688-59.238 59.341-11.878 11.878 0 35.533 0 35.533l105.165-105.319-104.858-104.909c0 0-11.827 23.654 0 35.533 8.755 8.755 42.291 42.291 59.341 59.29h-210.483v20.531z" opacity="1" visibility="false" fill="#000000"></path>
</svg>
