<?xml version="1.0" encoding="utf-8"?>
<!-- Generated by IcoMoon.io -->
<!DOCTYPE svg PUBLIC "-//W3C//DTD SVG 1.1//EN" "http://www.w3.org/Graphics/SVG/1.1/DTD/svg11.dtd">
<svg version="1.1" xmlns="http://www.w3.org/2000/svg" xmlns:xlink="http://www.w3.org/1999/xlink" width="256" height="256" viewBox="0 0 256 256">
<g id="icomoon-ignore">
	<line stroke-width="1" x1="" y1="" x2="" y2="" stroke="#449FDB" opacity=""></line>
</g>
	<path d="M197.145 113.485c5.018 4.301 9.984 8.576 11.111 9.523h-74.393v-74.829c0.999 1.152 5.248 6.093 9.523 11.111 4.889 5.709 14.643 0 14.643 0l-29.286-34.125-29.287 34.125c0 0 9.728 5.709 14.643 0 4.301-5.043 8.576-9.984 9.523-11.111v74.855h-75.443c1.127-0.973 6.067-5.222 11.111-9.523 5.709-4.889 0-14.643 0-14.643l-34.125 29.261 34.099 29.286c0 0 5.709-9.728 0-14.643-4.992-4.275-9.933-8.525-11.111-9.523h75.443v74.547c-0.973-1.126-5.222-6.067-9.523-11.111-4.889-5.709-14.643 0-14.643 0l29.287 34.099 29.286-34.099c0 0-9.728-5.709-14.643 0-4.275 4.992-8.525 9.933-9.523 11.111v-74.547h74.393c-1.152 0.999-6.093 5.248-11.111 9.523-5.709 4.889 0 14.643 0 14.643l34.099-29.286-34.073-29.287c0 0-5.709 9.728 0 14.643z" opacity="1" visibility="false" fill="#000000"></path>
</svg>
