<?xml version="1.0" encoding="utf-8"?>
<!-- Generated by IcoMoon.io -->
<!DOCTYPE svg PUBLIC "-//W3C//DTD SVG 1.1//EN" "http://www.w3.org/Graphics/SVG/1.1/DTD/svg11.dtd">
<svg version="1.1" xmlns="http://www.w3.org/2000/svg" xmlns:xlink="http://www.w3.org/1999/xlink" width="512" height="512" viewBox="0 0 512 512">
<g id="icomoon-ignore">
	<line stroke-width="1" x1="" y1="" x2="" y2="" stroke="#449FDB" opacity=""></line>
</g>
	<path d="M440.423 259.328v0c-3.175-4.608-7.373-8.55-12.493-12.493-7.629-5.888-17.357-11.571-28.058-16.743-10.752-5.171-22.477-9.728-34.151-13.107-14.49-4.147-32.717-7.731-51.303-10.496l-10.24 19.251c1.382 0.205 2.765 0.358 4.147 0.563 18.944 2.662 37.837 6.4 51.763 10.393 13.875 3.942 28.416 10.137 40.243 16.64 5.888 3.277 11.111 6.605 15.155 9.728 4.045 3.072 6.912 6.041 8.038 7.731v0c3.584 5.223 7.219 12.954 9.779 20.531 2.611 7.577 4.096 15.257 4.045 19.815 0 5.427-0.819 11.366-1.997 15.974-0.615 2.304-1.28 4.301-1.894 5.632-0.307 0.615-0.563 1.127-0.717 1.382-0.666 0.358-2.202 0.973-4.25 1.485-6.451 1.792-17.459 3.226-27.955 3.226h-0.256c-7.987 0-16.128-0.819-22.272-2.048-3.072-0.615-5.632-1.331-7.271-1.945-0.512-0.205-0.921-0.358-1.178-0.512-0.256-0.461-0.563-1.229-0.87-2.151-0.819-2.304-1.639-5.735-2.202-9.472s-0.921-7.885-0.921-11.725c0-12.647 0-26.368 0-30.618v-0.051c0-1.639-0.358-3.123-0.819-4.352-0.87-2.304-2.048-3.789-3.175-5.017-1.997-2.151-4.096-3.584-6.451-5.069-3.533-2.151-7.68-4.045-12.39-5.888-4.711-1.792-9.984-3.481-15.565-4.864-9.113-2.253-21.811-4.147-35.687-5.581l-10.445 19.61c2.509 0.205 5.069 0.409 7.526 0.666 13.517 1.331 26.112 3.277 33.639 5.171v0c7.783 1.945 14.848 4.557 19.507 6.861 1.382 0.666 2.509 1.331 3.328 1.894 0 6.041 0 16.947 0 27.187v0c0 7.117 0.819 14.285 2.202 20.634 0.717 3.175 1.536 6.093 2.56 8.858 1.075 2.714 2.253 5.223 4.505 7.834v0c1.536 1.741 3.072 2.765 4.557 3.635 2.611 1.485 5.274 2.457 8.294 3.379 4.505 1.331 9.625 2.304 15.257 3.021s11.673 1.127 17.817 1.127v0h0.256c9.319 0 18.534-0.87 26.368-2.355 3.942-0.717 7.475-1.639 10.701-2.765 1.587-0.563 3.123-1.178 4.608-1.945s2.969-1.69 4.505-3.123c2.611-2.509 4.045-5.12 5.376-7.936 1.894-4.199 3.226-8.909 4.25-14.029 0.973-5.12 1.536-10.599 1.536-16.128v0c-0.051-8.192-2.048-17.203-5.12-26.368-3.175-9.063-7.271-18.074-12.288-25.447z" opacity="1" visibility="false" fill="#000000"></path>
	<path d="M59.853 340.889c1.28 2.765 2.611 5.376 5.12 7.885 1.536 1.485 2.969 2.457 4.505 3.277 2.611 1.433 5.273 2.406 8.294 3.277 8.96 2.56 20.736 4.045 32.717 4.096 9.114 0 18.176-0.921 25.856-2.457 3.891-0.768 7.373-1.69 10.547-2.867 1.587-0.615 3.123-1.229 4.608-2.048s2.97-1.792 4.506-3.277c2.458-2.56 3.84-5.12 5.12-7.885 1.792-4.147 3.123-8.858 4.045-13.978s1.485-10.547 1.485-15.974c0-8.397 0-17.357 0-23.603 0-1.741 0-3.226 0-4.505l0.614-0.512c1.382-1.075 3.635-2.509 6.298-3.84s5.786-2.663 9.063-3.738c2.355-0.819 6.349-1.741 11.111-2.611 5.274-0.973 11.52-1.792 18.227-2.509l11.469-21.555c-5.274 0.358-10.547 0.819-15.513 1.382-6.451 0.717-12.493 1.587-17.869 2.56s-10.035 2.048-13.927 3.328c-7.117 2.407-13.517 5.427-18.637 8.857-2.56 1.741-4.864 3.533-6.861 5.786-1.024 1.127-1.997 2.406-2.816 4.045s-1.587 3.738-1.587 6.349v0c0 1.382 0 3.84 0 6.963 0 6.247 0 15.207 0 23.603 0 5.376-0.768 11.315-1.946 15.974-0.563 2.304-1.28 4.352-1.894 5.735-0.307 0.666-0.563 1.178-0.768 1.485-0.512 0.256-1.741 0.819-3.43 1.331-3.021 0.921-7.373 1.843-12.186 2.509-4.864 0.615-10.24 1.024-15.463 1.024-7.731 0-15.719-0.819-21.862-2.048-3.072-0.615-5.683-1.331-7.475-1.997-0.819-0.307-1.433-0.563-1.792-0.768-0.205-0.358-0.615-1.127-1.024-2.151-0.921-2.253-1.894-5.632-2.509-9.37-0.665-3.738-1.075-7.885-1.075-11.725v-0.051c-0.051-4.505 1.433-12.135 3.993-19.661 2.509-7.577 6.093-15.207 9.626-20.48 1.075-1.69 3.891-4.608 7.885-7.68 5.99-4.659 14.643-9.831 24.269-14.439 9.677-4.659 20.429-8.806 30.771-11.725 14.029-3.942 33.075-7.731 52.121-10.445 11.52-1.638 23.040-2.918 33.485-3.686l11.264-21.095c-14.183 0.461-30.874 2.15-47.616 4.506-19.763 2.816-39.475 6.656-54.835 11.008-15.565 4.403-31.181 11.008-44.339 18.279-6.605 3.635-12.595 7.475-17.664 11.417s-9.267 7.885-12.442 12.544c-4.915 7.373-8.96 16.281-12.032 25.344-3.021 9.063-4.966 18.074-5.017 26.163v0.103c0 7.271 0.973 14.49 2.611 20.941 0.768 3.123 1.741 6.144 2.97 8.909z" opacity="1" visibility="false" fill="#000000"></path>
	<path d="M207.853 321.355l86.615-174.496 22.93 11.382-86.615 174.496-22.93-11.382z" opacity="1" visibility="false" fill="#000000"></path>
</svg>
