<?xml version="1.0" encoding="utf-8"?>
<!-- Generated by IcoMoon.io -->
<!DOCTYPE svg PUBLIC "-//W3C//DTD SVG 1.1//EN" "http://www.w3.org/Graphics/SVG/1.1/DTD/svg11.dtd">
<svg version="1.1" xmlns="http://www.w3.org/2000/svg" xmlns:xlink="http://www.w3.org/1999/xlink" width="512" height="512" viewBox="0 0 512 512">
<g id="icomoon-ignore">
	<line stroke-width="1" x1="" y1="" x2="" y2="" stroke="#449FDB" opacity=""></line>
</g>
	<path d="M430.336 117.094h-348.672c-14.131 0.051-25.549 11.469-25.6 25.6v226.662c0.051 14.131 11.469 25.549 25.6 25.6h348.672c14.131-0.051 25.549-11.469 25.6-25.6v-226.662c-0.051-14.183-11.469-25.6-25.6-25.6zM433.92 372.941c-0.973 0.973-2.202 1.485-3.635 1.536h-348.672c-1.382 0-2.611-0.563-3.635-1.536-0.973-0.973-1.485-2.202-1.485-3.584v-226.662c0-1.382 0.563-2.611 1.485-3.584 0.973-0.973 2.201-1.485 3.635-1.536h348.672c1.382 0 2.611 0.563 3.635 1.536 0.973 0.973 1.485 2.202 1.485 3.584v226.662c0.051 1.382-0.512 2.611-1.485 3.584z" opacity="1" visibility="false" fill="#000000"></path>
	<path d="M221.85 175.309c-4.506-4.096-10.445-6.656-17.049-6.656h-17.049v17.049h17.049c4.608 0 8.55 3.891 8.55 8.55v119.45c0 4.608-3.891 8.55-8.55 8.55h-17.049v17.050h17.049c6.605 0 12.544-2.56 17.049-6.656 4.557 4.096 10.496 6.656 17.049 6.656h17.101v-17.050h-17.049c-4.608 0-8.55-3.891-8.55-8.55v-119.45c0-4.608 3.891-8.55 8.55-8.55h17.049v-17.049h-17.049c-6.605 0-12.544 2.56-17.101 6.656z" opacity="1" visibility="false" fill="#000000"></path>
	<path d="M143.769 177.561h-18.944v31.13h-15.104v15.309h15.104v73.882c0 7.168 1.536 12.954 4.711 17.459 3.123 4.505 9.063 6.707 17.817 6.707 2.714 0 5.222-0.154 7.577-0.409 2.304-0.256 4.557-0.717 6.707-1.331v-14.899c-1.382 0.205-2.611 0.307-3.635 0.358s-1.997 0.051-2.918 0.051c-3.379 0-5.837-0.409-7.27-1.127-2.662-1.331-3.942-3.942-3.942-7.834v-72.858h17.817v-15.309h-17.817v-31.13z" opacity="1" visibility="false" fill="#000000"></path>
</svg>
