<?xml version="1.0" encoding="utf-8"?>
<!-- Generated by IcoMoon.io -->
<!DOCTYPE svg PUBLIC "-//W3C//DTD SVG 1.1//EN" "http://www.w3.org/Graphics/SVG/1.1/DTD/svg11.dtd">
<svg version="1.1" xmlns="http://www.w3.org/2000/svg" xmlns:xlink="http://www.w3.org/1999/xlink" width="512" height="512" viewBox="0 0 512 512">
<g id="icomoon-ignore">
	<line stroke-width="1" x1="" y1="" x2="" y2="" stroke="#449FDB" opacity=""></line>
</g>
	<path d="M246.528 406.425c86.272 0 156.16-69.888 156.16-156.16s-69.888-156.16-156.16-156.16c-86.272 0-156.16 69.888-156.16 156.16s69.888 156.16 156.16 156.16zM150.579 154.368c24.576-24.576 58.419-39.731 95.949-39.731 37.478 0 71.373 15.155 95.949 39.731s39.731 58.419 39.731 95.949c0 37.478-15.155 71.373-39.731 95.949s-58.419 39.731-95.949 39.731c-37.478 0-71.373-15.155-95.949-39.731s-39.731-58.419-39.731-95.949c0-37.529 15.155-71.373 39.731-95.949z" opacity="1" visibility="false" fill="#000000"></path>
	<path d="M235.315 304.743h20.224v21.146h-20.224v-21.145z" opacity="1" visibility="false" fill="#000000"></path>
	<path d="M223.027 203.161c4.454-8.397 12.391-12.595 23.962-12.595 9.319 0 16.026 2.458 20.070 7.321s6.093 10.649 6.093 17.255c0 4.762-1.382 9.319-4.199 13.721-1.536 2.509-3.584 4.915-6.041 7.219l-8.294 8.038c-7.936 7.68-13.056 14.438-15.36 20.377s-3.43 13.721-3.43 23.399h18.073c0-8.55 1.024-15.002 3.021-19.353s6.298-9.728 12.954-16.025c9.113-8.653 15.155-15.257 18.125-19.712s4.403-10.291 4.403-17.459c0-11.879-4.045-21.607-12.185-29.235s-18.944-11.417-32.461-11.417c-14.592 0-26.112 4.454-34.458 13.363s-12.544 20.685-12.544 35.328h18.073c0.307-8.806 1.69-15.565 4.198-20.224z" opacity="1" visibility="false" fill="#000000"></path>
</svg>
