<?xml version="1.0" encoding="utf-8"?>
<!-- Generated by IcoMoon.io -->
<!DOCTYPE svg PUBLIC "-//W3C//DTD SVG 1.1//EN" "http://www.w3.org/Graphics/SVG/1.1/DTD/svg11.dtd">
<svg version="1.1" xmlns="http://www.w3.org/2000/svg" xmlns:xlink="http://www.w3.org/1999/xlink" width="32" height="32" viewBox="0 0 32 32">
<g>
	<line stroke-width="1" x1="" y1="" x2="" y2="" stroke="#449FDB" opacity=""></line>
</g>
	<path d="M1.28 11.36h0.32c0.266 0 0.48-0.214 0.48-0.48s-0.214-0.48-0.48-0.48h-0.32c-0.266 0-0.48 0.214-0.48 0.48s0.214 0.48 0.48 0.48z" fill="#000000"></path>
	<path d="M7.36 11.36c0.266 0 0.48-0.214 0.48-0.48s-0.214-0.48-0.48-0.48h-0.32c-0.266 0-0.48 0.214-0.48 0.48s0.214 0.48 0.48 0.48h0.32z" fill="#000000"></path>
	<path d="M10.24 11.36c0.266 0 0.48-0.214 0.48-0.48s-0.214-0.48-0.48-0.48h-0.32c-0.266 0-0.48 0.214-0.48 0.48s0.214 0.48 0.48 0.48h0.32z" fill="#000000"></path>
	<path d="M4.48 11.36c0.266 0 0.48-0.214 0.48-0.48s-0.214-0.48-0.48-0.48h-0.32c-0.266 0-0.48 0.214-0.48 0.48s0.214 0.48 0.48 0.48h0.32z" fill="#000000"></path>
	<path d="M14.080 11.36h0.32c0.266 0 0.48-0.214 0.48-0.48s-0.214-0.48-0.48-0.48h-0.32c-0.266 0-0.48 0.214-0.48 0.48s0.214 0.48 0.48 0.48z" fill="#000000"></path>
	<path d="M16.96 11.36h0.32c0.266 0 0.48-0.214 0.48-0.48s-0.214-0.48-0.48-0.48h-0.32c-0.266 0-0.48 0.214-0.48 0.48s0.214 0.48 0.48 0.48z" fill="#000000"></path>
	<path d="M25.44 10.88c0-0.266-0.214-0.48-0.48-0.48h-0.32c-0.266 0-0.48 0.214-0.48 0.48s0.214 0.48 0.48 0.48h0.32c0.266 0 0.48-0.214 0.48-0.48z" fill="#000000"></path>
	<path d="M21.76 10.4c-0.266 0-0.48 0.214-0.48 0.48s0.214 0.48 0.48 0.48h0.32c0.266 0 0.48-0.214 0.48-0.48s-0.214-0.48-0.48-0.48h-0.32z" fill="#000000"></path>
	<path d="M28.8 11.36h0.32c0.266 0 0.48-0.214 0.48-0.48s-0.214-0.48-0.48-0.48h-0.32c-0.266 0-0.48 0.214-0.48 0.48s0.214 0.48 0.48 0.48z" fill="#000000"></path>
	<path d="M30.72 21.12h-17.92v-2.003c0.899-0.23 1.603-0.938 1.837-1.837h2.643c1.763-0.003 3.197-1.437 3.2-3.2v-5.843c0.899-0.23 1.603-0.938 1.837-1.837h2.003c0.528 0 1.005 0.214 1.357 0.563 0.349 0.352 0.563 0.829 0.563 1.357v5.843c-1.104 0.285-1.92 1.283-1.92 2.477 0 1.414 1.146 2.56 2.56 2.56s2.56-1.146 2.56-2.56c0-1.194-0.816-2.192-1.92-2.477v-5.843c-0.003-1.763-1.437-3.197-3.2-3.2h-2.003c-0.285-1.104-1.283-1.92-2.477-1.92-1.414 0-2.56 1.146-2.56 2.56 0 1.194 0.816 2.192 1.92 2.477v5.843c0 0.528-0.214 1.005-0.563 1.357-0.352 0.349-0.829 0.563-1.357 0.563h-2.643c-0.23-0.899-0.938-1.603-1.837-1.837v-5.843c0-0.858-0.304-1.645-0.816-2.23-0.509-0.582-1.245-0.97-2.064-0.97-0.618 0-1.178 0-1.581 0-0.035 0-0.067 0-0.102 0-0.285-1.104-1.283-1.92-2.477-1.92-1.414 0-2.56 1.146-2.56 2.56s1.146 2.56 2.56 2.56c1.194 0 2.192-0.816 2.477-1.92 0.032 0 0.067 0 0.102 0 0.406 0 0.966 0 1.581 0 0.413 0 0.797 0.189 1.101 0.534 0.301 0.342 0.499 0.835 0.499 1.386v5.843c-1.104 0.285-1.92 1.283-1.92 2.477s0.816 2.192 1.92 2.477v2.003h-10.24c-0.352 0-0.64 0.288-0.64 0.64s0.288 0.64 0.64 0.64h10.24v2.643c-1.104 0.285-1.92 1.283-1.92 2.477 0 1.414 1.146 2.56 2.56 2.56s2.56-1.146 2.56-2.56c0-1.194-0.816-2.192-1.92-2.477v-2.643h17.92c0.352 0 0.64-0.288 0.64-0.64s-0.288-0.64-0.64-0.64zM28.16 16.64c0 0.355-0.141 0.672-0.374 0.906s-0.55 0.374-0.906 0.374c-0.355 0-0.672-0.141-0.906-0.374s-0.374-0.55-0.374-0.906c0-0.355 0.141-0.672 0.374-0.906s0.55-0.374 0.906-0.374c0.355 0 0.672 0.141 0.906 0.374s0.374 0.55 0.374 0.906zM18.56 5.76c0-0.355 0.141-0.672 0.374-0.906s0.55-0.374 0.906-0.374c0.355 0 0.672 0.141 0.906 0.374s0.374 0.55 0.374 0.906c0 0.355-0.141 0.672-0.374 0.906s-0.55 0.374-0.906 0.374c-0.355 0-0.672-0.141-0.906-0.374s-0.374-0.55-0.374-0.906zM6.666 6.666c-0.234 0.234-0.55 0.374-0.906 0.374s-0.672-0.141-0.906-0.374c-0.234-0.234-0.374-0.55-0.374-0.906s0.141-0.672 0.374-0.906c0.234-0.234 0.55-0.374 0.906-0.374s0.672 0.141 0.906 0.374c0.234 0.234 0.374 0.55 0.374 0.906s-0.141 0.672-0.374 0.906zM10.88 16.64c0-0.355 0.141-0.672 0.374-0.906s0.55-0.374 0.906-0.374c0.355 0 0.672 0.141 0.906 0.374s0.374 0.55 0.374 0.906c0 0.355-0.141 0.672-0.374 0.906s-0.55 0.374-0.906 0.374c-0.355 0-0.672-0.141-0.906-0.374s-0.374-0.55-0.374-0.906zM13.44 27.52c0 0.355-0.141 0.672-0.374 0.906s-0.55 0.374-0.906 0.374c-0.355 0-0.672-0.141-0.906-0.374s-0.374-0.55-0.374-0.906c0-0.355 0.141-0.672 0.374-0.906s0.55-0.374 0.906-0.374c0.355 0 0.672 0.141 0.906 0.374s0.374 0.55 0.374 0.906z" fill="#000000"></path>
</svg>
