<?xml version="1.0" encoding="utf-8"?>
<!-- Generated by IcoMoon.io -->
<!DOCTYPE svg PUBLIC "-//W3C//DTD SVG 1.1//EN" "http://www.w3.org/Graphics/SVG/1.1/DTD/svg11.dtd">
<svg version="1.1" xmlns="http://www.w3.org/2000/svg" xmlns:xlink="http://www.w3.org/1999/xlink" width="32" height="32" viewBox="0 0 32 32">
<g id="icomoon-ignore">
	<line stroke-width="1" x1="" y1="" x2="" y2="" stroke="#449FDB" opacity=""></line>
</g>
	<path d="M16 9.6c-3.536 0-6.4 2.864-6.4 6.4s2.864 6.4 6.4 6.4 6.4-2.864 6.4-6.4-2.864-6.4-6.4-6.4zM19.52 16.32c0 0.352-0.288 0.64-0.64 0.64h-1.92v1.92c0 0.352-0.288 0.64-0.64 0.64h-0.64c-0.352 0-0.64-0.288-0.64-0.64v-1.92h-1.92c-0.352 0-0.64-0.288-0.64-0.64v-0.64c0-0.352 0.288-0.64 0.64-0.64h1.92v-1.92c0-0.352 0.288-0.64 0.64-0.64h0.64c0.352 0 0.64 0.288 0.64 0.64v1.92h1.92c0.352 0 0.64 0.288 0.64 0.64v0.64z" fill="#000000"></path>
</svg>
