<?xml version="1.0" encoding="utf-8"?>
<!-- Generated by IcoMoon.io -->
<!DOCTYPE svg PUBLIC "-//W3C//DTD SVG 1.1//EN" "http://www.w3.org/Graphics/SVG/1.1/DTD/svg11.dtd">
<svg version="1.1" xmlns="http://www.w3.org/2000/svg" xmlns:xlink="http://www.w3.org/1999/xlink" width="256" height="256" viewBox="0 0 256 256">
<g id="icomoon-ignore">
	<line stroke-width="1" x1="" y1="" x2="" y2="" stroke="#449FDB" opacity=""></line>
</g>
	<path d="M128 150.707c12.518 0 22.707-10.189 22.707-22.707s-10.189-22.707-22.707-22.707-22.707 10.189-22.707 22.707 10.189 22.707 22.707 22.707zM128 115.533c6.887 0 12.467 5.581 12.467 12.467s-5.581 12.467-12.467 12.467-12.467-5.581-12.467-12.467 5.581-12.467 12.467-12.467z" fill="#000000"></path>
	<path d="M65.638 117.555l-14.285 1.894 0.077 16.87 14.285 1.767v-0.281c0.64 4.045 1.638 7.936 3.021 11.699l-11.443 8.499 8.243 14.72 13.261-5.351c2.841 3.533 6.041 6.758 9.549 9.625l-1.177-0.691-5.581 13.286 14.567 8.474 8.73-11.392c3.737 1.485 7.654 2.611 11.699 3.353l1.382 14.003 16.845 0.487 2.202-14.054c4.915-0.691 9.625-1.946 14.106-3.686l-1.613 0.922 8.704 11.469 14.618-8.397-5.53-13.312-0.051 0.025c3.353-2.637 6.4-5.607 9.165-8.857l13.184 5.734 8.627-14.489-11.315-8.857c1.613-4.096 2.816-8.422 3.559-12.903l14.054-1.69 0.128-16.845-14.208-1.92c-0.743-4.454-1.92-8.781-3.533-12.877l11.238-8.883-8.678-14.464-13.082 5.734c-2.791-3.302-5.913-6.297-9.319-8.986l5.427-12.749-14.541-8.525-8.806 11.392 0.077 0.051c-3.942-1.408-8.038-2.406-12.288-3.021l-1.767-13.799h-16.87l-1.817 14.233c-4.173 0.768-8.192 1.945-12.032 3.507l0.205-0.128-8.96-11.29-14.439 8.73 5.837 13.184 0.103-0.077c-3.097 2.611-5.913 5.529-8.448 8.704l-13.261-5.453-8.346 14.669 11.52 8.653c-1.433 3.917-2.457 7.987-3.097 12.211l0.077-0.921zM90.675 90.445c9.6-9.6 22.809-15.513 37.427-15.513 14.643 0 27.827 5.913 37.427 15.513s15.513 22.809 15.513 37.427c0 14.643-5.913 27.827-15.513 37.427s-22.81 15.513-37.427 15.513c-14.643 0-27.827-5.913-37.427-15.513s-15.514-22.784-15.514-37.427c0.025-14.643 5.939-27.827 15.513-37.427z" fill="#000000"></path>
</svg>
