<?xml version="1.0" encoding="utf-8"?>
<!-- Generated by IcoMoon.io -->
<!DOCTYPE svg PUBLIC "-//W3C//DTD SVG 1.1//EN" "http://www.w3.org/Graphics/SVG/1.1/DTD/svg11.dtd">
<svg version="1.1" xmlns="http://www.w3.org/2000/svg" xmlns:xlink="http://www.w3.org/1999/xlink" width="256" height="256" viewBox="0 0 256 256">
<g id="icomoon-ignore">
	<line stroke-width="1" x1="" y1="" x2="" y2="" stroke="#449FDB" opacity=""></line>
</g>
	<path d="M217.369 93.927h-178.739c-7.066 0.025-12.774 5.734-12.8 12.8v42.701c0.026 7.065 5.735 12.774 12.8 12.8h178.739c7.066-0.025 12.774-5.734 12.8-12.8v-42.701c-0.025-7.066-5.734-12.775-12.8-12.8zM36.813 151.219c-0.486-0.487-0.742-1.101-0.742-1.792v-10.393l34.867-34.867h14.567l-47.642 47.641c-0.384-0.102-0.742-0.307-1.050-0.589zM99.993 104.166h14.49l-47.821 47.821h-14.489l47.821-47.821zM128.947 104.166h14.489l-47.821 47.821h-14.489l47.821-47.821zM157.773 104.294v14.285l-33.382 33.408h-14.285l47.667-47.693zM157.773 133.069v18.918h-18.918l18.918-18.918zM36.813 104.934c0.486-0.487 1.101-0.743 1.818-0.768h17.817l-20.377 20.377v-17.817c0-0.691 0.282-1.305 0.742-1.792zM219.187 151.219c-0.487 0.487-1.101 0.743-1.792 0.768h-49.382v-47.821h49.357c0.691 0 1.305 0.281 1.792 0.768s0.743 1.101 0.768 1.792v42.701c0 0.691-0.281 1.305-0.743 1.792z" fill="#000000"></path>
</svg>
