<?xml version="1.0" encoding="utf-8"?>
<!-- Generated by IcoMoon.io -->
<!DOCTYPE svg PUBLIC "-//W3C//DTD SVG 1.1//EN" "http://www.w3.org/Graphics/SVG/1.1/DTD/svg11.dtd">
<svg version="1.1" xmlns="http://www.w3.org/2000/svg" xmlns:xlink="http://www.w3.org/1999/xlink" width="6" height="28" viewBox="0 0 6 28">
<g id="icomoon-ignore">
	<line stroke-width="1" x1="" y1="" x2="" y2="" stroke="#449FDB" opacity=""></line>
</g>
	<path d="M5.426 10.856v7.974h-1.047v-2.901c-0.252 0.291-0.538 0.524-0.857 0.7s-0.686 0.266-1.098 0.266c-0.342 0-0.65-0.064-0.93-0.196s-0.515-0.325-0.711-0.58-0.347-0.571-0.454-0.952c-0.106-0.381-0.16-0.818-0.16-1.31 0-0.44 0.059-0.848 0.176-1.226s0.288-0.706 0.51-0.986c0.221-0.277 0.49-0.496 0.809-0.655 0.316-0.16 0.678-0.238 1.081-0.238 0.384 0 0.711 0.070 0.98 0.207s0.51 0.33 0.72 0.582l0.070-0.465c0.039-0.146 0.132-0.218 0.283-0.218h0.627zM2.775 16.047c0.342 0 0.641-0.078 0.896-0.235 0.258-0.157 0.493-0.378 0.708-0.664v-2.881c-0.188-0.252-0.398-0.431-0.63-0.538s-0.487-0.162-0.764-0.162c-0.557 0-0.983 0.199-1.282 0.594-0.297 0.395-0.448 0.96-0.448 1.694 0 0.389 0.034 0.72 0.101 0.997s0.165 0.504 0.294 0.683c0.129 0.179 0.288 0.308 0.476 0.392 0.19 0.081 0.406 0.12 0.65 0.12z" opacity="1" visibility="false" fill="#000000"></path>
</svg>
