<?xml version="1.0" encoding="utf-8"?>
<!-- Generator: Adobe Illustrator 16.0.0, SVG Export Plug-In . SVG Version: 6.00 Build 0)  -->
<!DOCTYPE svg PUBLIC "-//W3C//DTD SVG 1.1//EN" "http://www.w3.org/Graphics/SVG/1.1/DTD/svg11.dtd">
<svg version="1.1" id="Capa_1" xmlns="http://www.w3.org/2000/svg" xmlns:xlink="http://www.w3.org/1999/xlink" x="0px" y="0px"
	 width="6.75px" height="28px" viewBox="0 0 6.75 28" enable-background="new 0 0 6.75 28" xml:space="preserve">
<g id="icomoon-ignore">
	<line fill="none" stroke="#449FDB" x1="3.375" y1="0" x2="3.375" y2="0"/>
</g>
<path d="M6.004,10.856v7.974H4.957v-2.9c-0.252,0.29-0.539,0.523-0.857,0.699s-0.686,0.266-1.098,0.266
	c-0.342,0-0.65-0.063-0.93-0.195c-0.28-0.133-0.515-0.325-0.711-0.58c-0.196-0.255-0.347-0.571-0.454-0.952
	c-0.106-0.381-0.16-0.818-0.16-1.31c0-0.44,0.059-0.848,0.176-1.226c0.117-0.378,0.288-0.706,0.51-0.986
	c0.221-0.277,0.49-0.496,0.809-0.655c0.316-0.16,0.678-0.238,1.081-0.238c0.384,0,0.71,0.07,0.98,0.207
	c0.27,0.137,0.51,0.33,0.721,0.582l0.07-0.465c0.039-0.146,0.131-0.218,0.281-0.218h0.627L6.004,10.856z M3.353,16.047
	c0.343,0,0.642-0.078,0.896-0.234c0.26-0.157,0.494-0.379,0.709-0.664v-2.881c-0.188-0.252-0.398-0.431-0.631-0.538
	c-0.23-0.107-0.486-0.162-0.764-0.162c-0.557,0-0.983,0.199-1.282,0.594c-0.297,0.395-0.448,0.96-0.448,1.694
	c0,0.389,0.034,0.72,0.101,0.997C2,15.129,2.099,15.355,2.228,15.535c0.129,0.179,0.288,0.308,0.476,0.392
	C2.894,16.008,3.11,16.047,3.353,16.047L3.353,16.047z"/>
</svg>
