<?xml version="1.0" encoding="utf-8"?>
<!-- Generated by IcoMoon.io -->
<!DOCTYPE svg PUBLIC "-//W3C//DTD SVG 1.1//EN" "http://www.w3.org/Graphics/SVG/1.1/DTD/svg11.dtd">
<svg version="1.1" xmlns="http://www.w3.org/2000/svg" xmlns:xlink="http://www.w3.org/1999/xlink" width="32" height="32" viewBox="0 0 32 32">
<g id="icomoon-ignore">
	<line stroke-width="1" x1="" y1="" x2="" y2="" stroke="#449FDB" opacity=""></line>
</g>
	<path d="M16 9.6c-3.536 0-6.4 2.864-6.4 6.4s2.864 6.4 6.4 6.4 6.4-2.864 6.4-6.4-2.864-6.4-6.4-6.4zM16.877 20.448h-1.91v-1.875h1.91v1.875zM18.842 14.864c-0.102 0.253-0.227 0.467-0.378 0.646s-0.317 0.33-0.499 0.458c-0.182 0.125-0.355 0.253-0.518 0.378s-0.307 0.269-0.432 0.432c-0.125 0.163-0.205 0.365-0.237 0.608v0.461h-1.642v-0.547c0.026-0.349 0.093-0.64 0.202-0.877s0.237-0.435 0.384-0.602c0.147-0.166 0.301-0.31 0.464-0.432 0.16-0.122 0.31-0.243 0.451-0.365 0.138-0.122 0.25-0.256 0.336-0.403 0.086-0.144 0.125-0.33 0.115-0.547 0-0.374-0.093-0.65-0.275-0.826-0.182-0.179-0.435-0.269-0.762-0.269-0.218 0-0.406 0.042-0.566 0.128s-0.288 0.198-0.39 0.339c-0.102 0.144-0.176 0.31-0.224 0.499-0.048 0.192-0.074 0.394-0.074 0.614h-1.789c0.010-0.438 0.083-0.838 0.227-1.206 0.141-0.365 0.339-0.682 0.595-0.95s0.563-0.477 0.925-0.627c0.362-0.15 0.765-0.227 1.21-0.227 0.576 0 1.056 0.080 1.443 0.237 0.384 0.157 0.694 0.355 0.931 0.589 0.237 0.237 0.403 0.49 0.506 0.762s0.15 0.525 0.15 0.762c0 0.394-0.051 0.714-0.154 0.966z" fill="#000000"></path>
</svg>
