<?xml version="1.0" encoding="utf-8"?>
<!-- Generator: Adobe Illustrator 16.0.0, SVG Export Plug-In . SVG Version: 6.00 Build 0)  -->
<!DOCTYPE svg PUBLIC "-//W3C//DTD SVG 1.1//EN" "http://www.w3.org/Graphics/SVG/1.1/DTD/svg11.dtd">
<svg version="1.1" id="Capa_1" xmlns="http://www.w3.org/2000/svg" xmlns:xlink="http://www.w3.org/1999/xlink" x="0px" y="0px"
	 width="4.625px" height="28px" viewBox="0 0 4.625 28" enable-background="new 0 0 4.625 28" xml:space="preserve">
<g id="icomoon-ignore">
	<line fill="none" stroke="#449FDB" x1="2.312" y1="0" x2="2.312" y2="0"/>
</g>
<path d="M0.5,16.8v-5.956h0.599c0.115,0,0.193,0.022,0.235,0.064s0.073,0.118,0.09,0.224l0.07,0.93
	c0.204-0.414,0.456-0.739,0.756-0.974c0.3-0.235,0.652-0.35,1.056-0.35c0.164,0,0.312,0.02,0.447,0.056s0.258,0.09,0.371,0.157
	L3.99,11.732c-0.027,0.098-0.088,0.146-0.182,0.146c-0.057,0-0.141-0.02-0.252-0.056c-0.113-0.036-0.273-0.056-0.477-0.056
	c-0.363,0-0.669,0.106-0.916,0.316c-0.247,0.21-0.451,0.521-0.613,0.924V16.8H0.5L0.5,16.8z"/>
</svg>
