<?xml version="1.0" encoding="utf-8"?>
<!-- Generated by IcoMoon.io -->
<!DOCTYPE svg PUBLIC "-//W3C//DTD SVG 1.1//EN" "http://www.w3.org/Graphics/SVG/1.1/DTD/svg11.dtd">
<svg version="1.1" xmlns="http://www.w3.org/2000/svg" xmlns:xlink="http://www.w3.org/1999/xlink" width="4" height="28" viewBox="0 0 4 28">
<g id="icomoon-ignore">
	<line stroke-width="1" x1="" y1="" x2="" y2="" stroke="#449FDB" opacity=""></line>
</g>
	<path d="M0.199 16.8v-5.956h0.599c0.115 0 0.193 0.022 0.235 0.064s0.073 0.118 0.090 0.224l0.070 0.93c0.204-0.414 0.456-0.739 0.756-0.974s0.652-0.35 1.056-0.35c0.165 0 0.314 0.020 0.448 0.056s0.258 0.090 0.37 0.157l-0.134 0.781c-0.028 0.098-0.087 0.146-0.182 0.146-0.056 0-0.14-0.020-0.252-0.056s-0.272-0.056-0.476-0.056c-0.364 0-0.669 0.106-0.916 0.316s-0.451 0.521-0.613 0.924v3.794h-1.050z" opacity="1" visibility="false" fill="#000000"></path>
</svg>
