<?xml version="1.0" encoding="utf-8"?>
<!-- Generated by IcoMoon.io -->
<!DOCTYPE svg PUBLIC "-//W3C//DTD SVG 1.1//EN" "http://www.w3.org/Graphics/SVG/1.1/DTD/svg11.dtd">
<svg version="1.1" xmlns="http://www.w3.org/2000/svg" xmlns:xlink="http://www.w3.org/1999/xlink" width="32" height="32" viewBox="0 0 32 32">
<g>
	<line stroke-width="1" x1="" y1="" x2="" y2="" stroke="#449FDB" opacity=""></line>
</g>
	<path d="M16 12c-2.208 0-4 1.792-4 4s1.792 4 4 4c2.208 0 4-1.792 4-4s-1.792-4-4-4zM18.15 18.15c-0.55 0.55-1.309 0.89-2.15 0.89s-1.597-0.339-2.15-0.89c-0.55-0.55-0.89-1.309-0.89-2.15s0.339-1.597 0.89-2.15c0.55-0.55 1.309-0.89 2.15-0.89s1.597 0.339 2.15 0.89c0.55 0.55 0.89 1.309 0.89 2.15s-0.339 1.597-0.89 2.15z" fill="#000000"></path>
	<path d="M18.24 16c0 1.237-1.003 2.24-2.24 2.24s-2.24-1.003-2.24-2.24c0-1.237 1.003-2.24 2.24-2.24s2.24 1.003 2.24 2.24z" fill="#000000"></path>
</svg>
