<?xml version="1.0" encoding="utf-8"?>
<!-- Generated by IcoMoon.io -->
<!DOCTYPE svg PUBLIC "-//W3C//DTD SVG 1.1//EN" "http://www.w3.org/Graphics/SVG/1.1/DTD/svg11.dtd">
<svg version="1.1" xmlns="http://www.w3.org/2000/svg" xmlns:xlink="http://www.w3.org/1999/xlink" width="32" height="32" viewBox="0 0 32 32">
<g>
	<line stroke-width="1" x1="" y1="" x2="" y2="" stroke="#449FDB" opacity=""></line>
</g>
	<path d="M16.64 16c0 0.353-0.287 0.64-0.64 0.64s-0.64-0.287-0.64-0.64c0-0.353 0.287-0.64 0.64-0.64s0.64 0.287 0.64 0.64z" fill="#000000"></path>
	<path d="M22.080 16c0 0.353-0.287 0.64-0.64 0.64s-0.64-0.287-0.64-0.64c0-0.353 0.287-0.64 0.64-0.64s0.64 0.287 0.64 0.64z" fill="#000000"></path>
	<path d="M23.36 13.28h-14.72c-0.794 0.003-1.437 0.643-1.44 1.44v2.56c0.003 0.797 0.646 1.437 1.44 1.44h14.72c0.794-0.003 1.437-0.643 1.44-1.44v-2.56c-0.003-0.797-0.646-1.437-1.44-1.44zM10.56 16.64c-0.352 0-0.64-0.288-0.64-0.64s0.288-0.64 0.64-0.64 0.64 0.288 0.64 0.64-0.288 0.64-0.64 0.64zM18.56 17.76h-5.12v-3.52h5.12v3.52zM23.84 17.28c0 0.131-0.054 0.25-0.141 0.339-0.090 0.090-0.208 0.141-0.339 0.141h-4.16v-3.52h4.16c0.131 0 0.25 0.054 0.339 0.141 0.090 0.090 0.141 0.208 0.141 0.339v2.56z" fill="#000000"></path>
</svg>
