<?xml version="1.0" encoding="utf-8"?>
<!-- Generated by IcoMoon.io -->
<!DOCTYPE svg PUBLIC "-//W3C//DTD SVG 1.1//EN" "http://www.w3.org/Graphics/SVG/1.1/DTD/svg11.dtd">
<svg version="1.1" xmlns="http://www.w3.org/2000/svg" xmlns:xlink="http://www.w3.org/1999/xlink" width="32" height="32" viewBox="0 0 32 32">
<g>
	<line stroke-width="1" x1="" y1="" x2="" y2="" stroke="#449FDB" opacity=""></line>
</g>
	<path d="M21.76 13.76c-0.48 0-0.918 0.176-1.254 0.467-0.525-0.672-1.344-1.107-2.266-1.107s-1.741 0.435-2.266 1.107c-0.336-0.291-0.774-0.467-1.254-0.467s-0.918 0.176-1.254 0.467c-0.525-0.672-1.344-1.107-2.266-1.107-1.59 0-2.88 1.29-2.88 2.88s1.29 2.88 2.88 2.88c1.59 0 2.88-1.29 2.88-2.88 0-0.109-0.006-0.214-0.019-0.32h0.019c0-0.179 0.070-0.336 0.189-0.451 0.115-0.118 0.272-0.189 0.451-0.189s0.336 0.070 0.451 0.189c0.118 0.115 0.189 0.272 0.189 0.451h0.019c-0.013 0.106-0.019 0.211-0.019 0.32 0 1.59 1.29 2.88 2.88 2.88s2.88-1.29 2.88-2.88c0-0.070-0.006-0.144-0.010-0.214 0.003-0.035 0.010-0.067 0.010-0.106 0-0.179 0.070-0.336 0.189-0.451 0.115-0.118 0.272-0.189 0.451-0.189s0.336 0.070 0.451 0.189c0.118 0.115 0.189 0.272 0.189 0.451 0 0.352 0.288 0.64 0.64 0.64s0.64-0.288 0.64-0.64c0-1.059-0.861-1.92-1.92-1.92zM12.333 17.133c-0.294 0.288-0.688 0.467-1.133 0.467s-0.838-0.179-1.133-0.467c-0.288-0.294-0.467-0.688-0.467-1.133s0.179-0.838 0.467-1.133c0.294-0.288 0.688-0.467 1.133-0.467s0.838 0.179 1.133 0.467c0.288 0.294 0.467 0.688 0.467 1.133s-0.179 0.838-0.467 1.133zM19.373 17.133c-0.294 0.288-0.688 0.467-1.133 0.467s-0.838-0.179-1.133-0.467c-0.288-0.294-0.467-0.688-0.467-1.133s0.179-0.838 0.467-1.133c0.294-0.288 0.688-0.467 1.133-0.467s0.838 0.179 1.133 0.467c0.288 0.294 0.467 0.688 0.467 1.133s-0.179 0.838-0.467 1.133z" fill="#000000"></path>
</svg>
