<?xml version="1.0" encoding="utf-8"?>
<!-- Generated by IcoMoon.io -->
<!DOCTYPE svg PUBLIC "-//W3C//DTD SVG 1.1//EN" "http://www.w3.org/Graphics/SVG/1.1/DTD/svg11.dtd">
<svg version="1.1" xmlns="http://www.w3.org/2000/svg" xmlns:xlink="http://www.w3.org/1999/xlink" width="32" height="32" viewBox="0 0 32 32">
<g>
	<line stroke-width="1" x1="" y1="" x2="" y2="" stroke="#449FDB" opacity=""></line>
</g>
	<path d="M6.304 17.008c-0.691 0-1.382-0.56-1.872-1.075 0 0.026-0.003 0.048-0.003 0.074 0 2.483 0.806 4.874 2.237 6.832s3.485 3.482 5.987 4.24c1.117 0.336 2.243 0.499 3.35 0.499 4.141 0 8.029-2.25 10.077-5.894l1.254 0.707c-2.307 4.106-6.669 6.627-11.334 6.63-1.248 0-2.515-0.182-3.77-0.56-2.81-0.848-5.123-2.566-6.733-4.768s-2.515-4.886-2.515-7.68c0 0 0-0.003 0-0.003-0.483 0.496-1.146 1.008-1.805 1.008-1.184 0-1.091-0.451-1.091-0.451l3.658-3.661 3.651 3.651c0 0-0.243 0.451-1.091 0.451z" fill="#000000"></path>
	<path d="M31.907 15.482l-3.654 3.651-3.651-3.651c0 0 0.243-0.451 1.091-0.451 0.691 0 1.382 0.56 1.872 1.078 0-0.038 0.003-0.074 0.003-0.112 0-2.483-0.806-4.874-2.237-6.832s-3.485-3.482-5.987-4.24c-1.117-0.336-2.243-0.499-3.35-0.499-4.154 0-8.051 2.262-10.096 5.926l-1.258-0.701c2.304-4.125 6.675-6.662 11.354-6.666 1.248 0 2.515 0.182 3.77 0.56 2.81 0.848 5.123 2.566 6.733 4.768s2.515 4.886 2.515 7.68c0 0.013 0 0.026 0 0.038 0.483-0.493 1.142-1.005 1.805-1.005 1.181 0.003 1.091 0.454 1.091 0.454z" fill="#000000"></path>
</svg>
