<?xml version="1.0" encoding="utf-8"?>
<!-- Generated by IcoMoon.io -->
<!DOCTYPE svg PUBLIC "-//W3C//DTD SVG 1.1//EN" "http://www.w3.org/Graphics/SVG/1.1/DTD/svg11.dtd">
<svg version="1.1" xmlns="http://www.w3.org/2000/svg" xmlns:xlink="http://www.w3.org/1999/xlink" width="32" height="32" viewBox="0 0 32 32">
<g>
	<line stroke-width="1" x1="" y1="" x2="" y2="" stroke="#449FDB" opacity=""></line>
</g>
	<path d="M28.512 19.952c-1.011 3.232-3.28 5.984-6.256 7.594-3.306 1.789-7.29 2.058-10.81 0.739-5.091-1.901-8.522-6.922-8.48-12.352-0.63 0.643-1.36 1.114-2.291 0.966-0.208-0.032-0.624-0.131-0.602-0.419l3.651-3.651 3.658 3.651c-0.198 0.32-0.634 0.432-0.986 0.451-0.794 0.038-1.475-0.541-1.987-1.082-0.064 3.533 1.536 6.982 4.272 9.216 2.845 2.323 6.73 3.171 10.285 2.243 3.331-0.87 6.166-3.222 7.616-6.346 1.587-3.421 1.411-7.475-0.477-10.739-1.75-3.024-4.826-5.126-8.275-5.67-3.318-0.522-6.765 0.461-9.322 2.634-0.765 0.65-1.443 1.398-2.016 2.221 0.496 1.149-0.858 2.262-1.891 1.565-1.005-0.678-0.538-2.298 0.675-2.336 1.827-2.656 4.637-4.576 7.776-5.318 3.472-0.819 7.216-0.147 10.192 1.818 4.803 3.174 6.986 9.322 5.267 14.816-0.874 2.794 0.406-1.296 0 0z" fill="#000000"></path>
</svg>
