<?xml version="1.0" encoding="utf-8"?>
<!-- Generated by IcoMoon.io -->
<!DOCTYPE svg PUBLIC "-//W3C//DTD SVG 1.1//EN" "http://www.w3.org/Graphics/SVG/1.1/DTD/svg11.dtd">
<svg version="1.1" xmlns="http://www.w3.org/2000/svg" xmlns:xlink="http://www.w3.org/1999/xlink" width="32" height="32" viewBox="0 0 32 32">
<g id="icomoon-ignore">
	<line stroke-width="1" x1="" y1="" x2="" y2="" stroke="#449FDB" opacity=""></line>
</g>
	<path d="M10.88 11.2h10.24c0.704 0 1.28 0.576 1.28 1.28v7.040c0 0.704-0.576 1.28-1.28 1.28h-10.24c-0.704 0-1.28-0.576-1.28-1.28v-7.040c0-0.704 0.576-1.28 1.28-1.28zM11.418 16.346l3.901 2.509c0.298 0.192 0.538 0.058 0.538-0.294v-1.92l3.443 2.214c0.298 0.189 0.541 0.058 0.541-0.294v-5.12c0-0.352-0.243-0.483-0.538-0.294l-3.443 2.214v-1.92c0-0.352-0.243-0.483-0.538-0.294l-3.901 2.509c-0.298 0.189-0.298 0.502-0.003 0.691z" fill="#000000"></path>
</svg>
