<?xml version="1.0" encoding="utf-8"?>
<!-- Generated by IcoMoon.io -->
<!DOCTYPE svg PUBLIC "-//W3C//DTD SVG 1.1//EN" "http://www.w3.org/Graphics/SVG/1.1/DTD/svg11.dtd">
<svg version="1.1" xmlns="http://www.w3.org/2000/svg" xmlns:xlink="http://www.w3.org/1999/xlink" width="32" height="32" viewBox="0 0 32 32">
<g>
	<line stroke-width="1" x1="" y1="" x2="" y2="" stroke="#449FDB" opacity=""></line>
</g>
	<path d="M10.88 11.2c0 0.707-0.573 1.28-1.28 1.28s-1.28-0.573-1.28-1.28c0-0.707 0.573-1.28 1.28-1.28s1.28 0.573 1.28 1.28z" fill="#000000"></path>
	<path d="M22.4 6.72h-12.8c-2.474 0-4.48 2.006-4.48 4.48s2.006 4.48 4.48 4.48h12.8c2.474 0 4.48-2.006 4.48-4.48s-2.006-4.48-4.48-4.48zM9.6 14.4c-1.766 0-3.2-1.434-3.2-3.2s1.434-3.2 3.2-3.2 3.2 1.434 3.2 3.2-1.434 3.2-3.2 3.2zM22.4 14.4c-1.766 0-3.2-1.434-3.2-3.2s1.434-3.2 3.2-3.2 3.2 1.434 3.2 3.2-1.434 3.2-3.2 3.2z" fill="#000000"></path>
	<path d="M23.68 11.2c0 0.707-0.573 1.28-1.28 1.28s-1.28-0.573-1.28-1.28c0-0.707 0.573-1.28 1.28-1.28s1.28 0.573 1.28 1.28z" fill="#000000"></path>
	<path d="M21.76 21.12h-11.52c-1.587 0-2.88 1.293-2.88 2.88s1.293 2.88 2.88 2.88h11.52c1.587 0 2.88-1.293 2.88-2.88s-1.293-2.88-2.88-2.88zM9.28 25.661c-0.486-0.282-0.835-0.768-0.931-1.341h0.931v1.341zM9.28 23.68h-0.931c0.096-0.573 0.445-1.059 0.931-1.341v1.341zM11.84 25.92h-1.6c-0.109 0-0.214-0.013-0.32-0.029v-1.571h1.92v1.6zM11.84 23.68h-1.92v-1.571c0.106-0.016 0.211-0.029 0.32-0.029h1.6v1.6zM14.4 25.92h-1.92v-1.6h1.92v1.6zM14.4 23.68h-1.92v-1.6h1.92v1.6zM16.96 25.92h-1.92v-1.6h1.92v1.6zM16.96 23.68h-1.92v-1.6h1.92v1.6zM19.52 25.92h-1.92v-1.6h1.92v1.6zM19.52 23.68h-1.92v-1.6h1.92v1.6zM22.080 25.891c-0.106 0.016-0.211 0.029-0.32 0.029h-1.6v-1.6h1.92v1.571zM22.080 23.68h-1.92v-1.6h1.6c0.109 0 0.214 0.013 0.32 0.029v1.571zM22.72 25.661v-1.341h0.931c-0.096 0.573-0.445 1.059-0.931 1.341zM22.72 23.68v-1.341c0.486 0.282 0.835 0.768 0.931 1.341h-0.931z" fill="#000000"></path>
</svg>
