<?xml version="1.0" encoding="utf-8"?>
<!-- Generator: Adobe Illustrator 16.0.0, SVG Export Plug-In . SVG Version: 6.00 Build 0)  -->
<!DOCTYPE svg PUBLIC "-//W3C//DTD SVG 1.1//EN" "http://www.w3.org/Graphics/SVG/1.1/DTD/svg11.dtd">
<svg version="1.1" id="Capa_1" xmlns="http://www.w3.org/2000/svg" xmlns:xlink="http://www.w3.org/1999/xlink" x="0px" y="0px"
	 width="5.375px" height="28px" viewBox="0 0 5.375 28" enable-background="new 0 0 5.375 28" xml:space="preserve">
<g id="icomoon-ignore">
	<line fill="none" stroke="#449FDB" x1="2.688" y1="0" x2="2.688" y2="0"/>
</g>
<path d="M4.469,11.824c-0.048,0.087-0.119,0.129-0.218,0.129c-0.06,0-0.126-0.022-0.199-0.064c-0.075-0.042-0.165-0.092-0.274-0.143
	c-0.105-0.053-0.234-0.101-0.385-0.146c-0.151-0.045-0.325-0.067-0.529-0.067c-0.176,0-0.336,0.022-0.477,0.067
	c-0.14,0.045-0.26,0.106-0.36,0.185c-0.102,0.079-0.176,0.171-0.23,0.274c-0.054,0.103-0.078,0.216-0.078,0.339
	c0,0.154,0.045,0.28,0.133,0.381c0.087,0.101,0.203,0.19,0.35,0.266c0.146,0.076,0.311,0.14,0.496,0.196
	c0.185,0.056,0.372,0.118,0.568,0.182c0.192,0.064,0.384,0.137,0.567,0.216c0.184,0.079,0.35,0.176,0.492,0.294
	c0.144,0.118,0.261,0.26,0.351,0.431c0.087,0.171,0.132,0.375,0.132,0.612c0,0.274-0.05,0.529-0.147,0.763
	c-0.099,0.233-0.244,0.434-0.435,0.604c-0.193,0.172-0.428,0.305-0.705,0.403c-0.278,0.098-0.6,0.147-0.963,0.147
	c-0.414,0-0.792-0.066-1.129-0.201c-0.336-0.135-0.624-0.309-0.859-0.521l0.246-0.4c0.03-0.049,0.066-0.09,0.111-0.117
	c0.045-0.028,0.102-0.043,0.172-0.043c0.069,0,0.146,0.029,0.224,0.082c0.078,0.056,0.174,0.115,0.286,0.182
	c0.111,0.066,0.246,0.129,0.405,0.182c0.16,0.057,0.358,0.082,0.597,0.082c0.204,0,0.384-0.025,0.535-0.078
	c0.15-0.054,0.279-0.123,0.383-0.217c0.102-0.09,0.177-0.193,0.228-0.311c0.048-0.118,0.073-0.244,0.073-0.375
	c0-0.165-0.045-0.301-0.133-0.409c-0.086-0.108-0.203-0.199-0.35-0.277c-0.146-0.076-0.311-0.143-0.495-0.199
	c-0.188-0.056-0.375-0.118-0.571-0.179c-0.193-0.062-0.384-0.134-0.571-0.216c-0.187-0.082-0.353-0.182-0.498-0.302
	c-0.145-0.12-0.26-0.272-0.35-0.451s-0.132-0.395-0.132-0.65c0-0.227,0.048-0.445,0.14-0.655c0.092-0.21,0.232-0.395,0.412-0.552
	c0.179-0.16,0.403-0.286,0.664-0.378c0.263-0.095,0.562-0.14,0.898-0.14c0.393,0,0.745,0.062,1.056,0.185
	c0.312,0.123,0.582,0.294,0.81,0.51l-0.235,0.378L4.469,11.824z"/>
</svg>
