<?xml version="1.0" encoding="utf-8"?>
<!-- Generated by IcoMoon.io -->
<!DOCTYPE svg PUBLIC "-//W3C//DTD SVG 1.1//EN" "http://www.w3.org/Graphics/SVG/1.1/DTD/svg11.dtd">
<svg version="1.1" xmlns="http://www.w3.org/2000/svg" xmlns:xlink="http://www.w3.org/1999/xlink" width="5" height="28" viewBox="0 0 5 28">
<g id="icomoon-ignore">
	<line stroke-width="1" x1="" y1="" x2="" y2="" stroke="#449FDB" opacity=""></line>
</g>
	<path d="M4.133 11.824c-0.048 0.087-0.12 0.129-0.218 0.129-0.059 0-0.126-0.022-0.199-0.064-0.076-0.042-0.165-0.092-0.274-0.143-0.106-0.053-0.235-0.101-0.386-0.146s-0.325-0.067-0.529-0.067c-0.176 0-0.336 0.022-0.476 0.067s-0.26 0.106-0.361 0.185-0.176 0.171-0.23 0.274-0.078 0.216-0.078 0.339c0 0.154 0.045 0.28 0.132 0.381s0.204 0.19 0.35 0.266c0.146 0.076 0.311 0.14 0.496 0.196s0.372 0.118 0.568 0.182c0.193 0.064 0.384 0.137 0.568 0.216s0.35 0.176 0.493 0.294 0.26 0.26 0.35 0.431c0.087 0.171 0.132 0.375 0.132 0.613 0 0.274-0.050 0.529-0.148 0.762s-0.244 0.434-0.434 0.605c-0.193 0.171-0.428 0.305-0.706 0.403s-0.599 0.148-0.963 0.148c-0.414 0-0.792-0.067-1.128-0.202s-0.624-0.308-0.86-0.521l0.246-0.4c0.031-0.050 0.067-0.090 0.112-0.118s0.101-0.042 0.171-0.042 0.146 0.028 0.224 0.081c0.078 0.056 0.174 0.115 0.286 0.182s0.246 0.129 0.406 0.182c0.16 0.056 0.358 0.081 0.596 0.081 0.204 0 0.384-0.025 0.535-0.078s0.28-0.123 0.384-0.216c0.101-0.090 0.176-0.193 0.227-0.311 0.048-0.118 0.073-0.244 0.073-0.375 0-0.165-0.045-0.3-0.132-0.409s-0.204-0.199-0.35-0.277c-0.146-0.076-0.311-0.143-0.496-0.199-0.188-0.056-0.375-0.118-0.571-0.179-0.193-0.062-0.384-0.134-0.571-0.216s-0.353-0.182-0.498-0.302-0.26-0.272-0.35-0.451c-0.090-0.179-0.132-0.395-0.132-0.65 0-0.227 0.048-0.445 0.14-0.655s0.232-0.395 0.412-0.552c0.179-0.16 0.403-0.286 0.664-0.378 0.263-0.095 0.563-0.14 0.899-0.14 0.392 0 0.745 0.062 1.056 0.185s0.582 0.294 0.809 0.51l-0.235 0.378z" opacity="1" visibility="false" fill="#000000"></path>
</svg>
