<?xml version="1.0" encoding="utf-8"?>
<!-- Generated by IcoMoon.io -->
<!DOCTYPE svg PUBLIC "-//W3C//DTD SVG 1.1//EN" "http://www.w3.org/Graphics/SVG/1.1/DTD/svg11.dtd">
<svg version="1.1" xmlns="http://www.w3.org/2000/svg" xmlns:xlink="http://www.w3.org/1999/xlink" width="32" height="32" viewBox="0 0 32 32">
<g id="icomoon-ignore">
	<line stroke-width="1" x1="" y1="" x2="" y2="" stroke="#449FDB" opacity=""></line>
</g>
	<path d="M16 1.28c-5.779 0-11.149 3.504-13.478 8.797-1.232 2.8-1.555 5.968-0.928 8.96 0.672 3.19 2.429 6.106 4.918 8.208 0.026 0.019 0.048 0.042 0.074 0.061l-6.688 3.414h16.102c5.779 0 11.149-3.504 13.478-8.797 2.358-5.36 1.238-11.782-2.778-16.032-2.765-2.925-6.675-4.611-10.701-4.611-8.131 0 8.131 0 0 0zM25.504 25.504c-2.435 2.432-5.792 3.936-9.504 3.936h-10.778l3.773-1.926-0.848-0.614c-2.586-1.869-4.464-4.64-5.21-7.744-0.797-3.283-0.307-6.822 1.357-9.766 1.629-2.877 4.317-5.098 7.456-6.144 3.254-1.082 6.88-0.87 9.981 0.595 2.986 1.411 5.395 3.926 6.672 6.976 1.325 3.162 1.376 6.8 0.147 10-0.672 1.754-1.718 3.36-3.046 4.688-2.435 2.432 2.432-2.435 0 0z" fill="#000000"></path>
</svg>
