<?xml version="1.0" encoding="utf-8"?>
<!-- Generated by IcoMoon.io -->
<!DOCTYPE svg PUBLIC "-//W3C//DTD SVG 1.1//EN" "http://www.w3.org/Graphics/SVG/1.1/DTD/svg11.dtd">
<svg version="1.1" xmlns="http://www.w3.org/2000/svg" xmlns:xlink="http://www.w3.org/1999/xlink" width="32" height="32" viewBox="0 0 32 32">
<g id="icomoon-ignore">
	<line stroke-width="1" x1="" y1="" x2="" y2="" stroke="#449FDB" opacity=""></line>
</g>
	<path d="M21.44 13.92h-10.88c-0.794 0.003-1.437 0.643-1.44 1.44v2.56c0.003 0.797 0.646 1.437 1.44 1.44h10.88c0.794-0.003 1.437-0.643 1.44-1.44v-2.56c-0.003-0.797-0.646-1.437-1.44-1.44zM21.779 18.259c-0.090 0.090-0.208 0.141-0.339 0.141h-10.88c-0.131 0-0.25-0.054-0.339-0.141-0.090-0.090-0.141-0.208-0.141-0.339v-2.56c0-0.131 0.054-0.25 0.141-0.339 0.090-0.090 0.208-0.141 0.339-0.141h10.88c0.131 0 0.25 0.054 0.339 0.141 0.090 0.090 0.141 0.208 0.141 0.339v2.56c0 0.131-0.054 0.25-0.141 0.339z" fill="#000000"></path>
	<path d="M14.506 13.12h2.986c0.352 0 0.454-0.221 0.23-0.493l-1.315-1.578c-0.224-0.269-0.595-0.269-0.819 0l-1.315 1.578c-0.221 0.272-0.118 0.493 0.234 0.493z" fill="#000000"></path>
	<path d="M17.494 20.16h-2.986c-0.352 0-0.454 0.221-0.23 0.493l1.315 1.578c0.224 0.269 0.595 0.269 0.819 0l1.315-1.578c0.221-0.272 0.118-0.493-0.234-0.493z" fill="#000000"></path>
</svg>
