<?xml version="1.0" encoding="utf-8"?>
<!-- Generated by IcoMoon.io -->
<!DOCTYPE svg PUBLIC "-//W3C//DTD SVG 1.1//EN" "http://www.w3.org/Graphics/SVG/1.1/DTD/svg11.dtd">
<svg version="1.1" xmlns="http://www.w3.org/2000/svg" xmlns:xlink="http://www.w3.org/1999/xlink" width="256" height="256" viewBox="0 0 256 256">
<g id="icomoon-ignore">
	<line stroke-width="1" x1="" y1="" x2="" y2="" stroke="#449FDB" opacity=""></line>
</g>
	<path d="M192.281 97.357h-128.231c-7.066 0.025-12.775 5.734-12.8 12.8v35.712c0.026 7.066 5.734 12.774 12.8 12.8h128.231c7.065-0.025 12.774-5.734 12.8-12.8v-35.712c0-7.091-5.709-12.8-12.8-12.8zM194.099 147.661c-0.487 0.487-1.101 0.743-1.792 0.743h-128.256c-0.691 0-1.306-0.281-1.792-0.743-0.486-0.487-0.742-1.101-0.768-1.817v-35.686c0-0.691 0.282-1.305 0.768-1.817 0.486-0.487 1.101-0.743 1.792-0.743h128.231c0.691 0 1.305 0.281 1.792 0.743 0.487 0.487 0.743 1.101 0.768 1.817v35.712c0 0.691-0.256 1.305-0.743 1.792z" fill="#000000"></path>
	<path d="M133.222 192.333l14.489-17.638c2.688-3.277 1.408-5.939-2.816-5.939h-33.126c-4.224 0-5.478 2.662-2.816 5.939l14.489 17.638c2.713 3.277 7.091 3.277 9.779 0z" fill="#000000"></path>
	<path d="M144.563 86.886c4.224 0 5.478-2.662 2.816-5.939l-14.489-17.639c-2.688-3.277-7.066-3.277-9.754 0l-14.489 17.639c-2.688 3.277-1.408 5.939 2.816 5.939h33.101z" fill="#000000"></path>
</svg>
