<?xml version="1.0" encoding="utf-8"?>
<!-- Generated by IcoMoon.io -->
<!DOCTYPE svg PUBLIC "-//W3C//DTD SVG 1.1//EN" "http://www.w3.org/Graphics/SVG/1.1/DTD/svg11.dtd">
<svg version="1.1" xmlns="http://www.w3.org/2000/svg" xmlns:xlink="http://www.w3.org/1999/xlink" width="256" height="256" viewBox="0 0 256 256">
<g id="icomoon-ignore">
	<line stroke-width="1" x1="" y1="" x2="" y2="" stroke="#449FDB" opacity=""></line>
</g>
	<path d="M201.933 106.983l-0.256-0.435-0.307 0.179c-1.459-0.589-3.047-0.921-4.71-0.921h-19.917v10.24h9.344l-55.219 33.587c-0.717 0.461-2.227 0.896-3.789 0.87-1.587 0.025-3.174-0.435-3.891-0.922l-0.359-0.231-53.299-33.305h7.706v-10.24h-17.869c-1.664 0-3.251 0.359-4.711 0.921l-0.256-0.153-0.205 0.333c-4.48 1.997-7.603 6.451-7.629 11.674v78.541c0.026 7.065 5.734 12.774 12.8 12.8h137.293c7.066-0.025 12.774-5.734 12.8-12.8v-78.515c-0.025-5.171-3.097-9.6-7.526-11.623zM198.451 198.912c-0.487 0.487-1.101 0.743-1.792 0.768h-137.319c-0.691 0-1.306-0.281-1.792-0.768s-0.742-1.101-0.768-1.792v-76.954l60.979 38.093c2.893 1.792 6.118 2.458 9.319 2.483 3.123-0.025 6.272-0.666 9.113-2.381l63.001-38.349v77.107c0 0.691-0.256 1.305-0.743 1.792z" fill="#000000"></path>
	<path d="M132.633 121.6v-74.317c8.627 8.602 25.344 25.293 29.671 29.619 5.939 5.939 17.767 0 17.767 0l-52.659-52.583-52.429 52.429c0 0 11.827 5.913 17.767 0 4.377-4.377 21.145-21.145 29.645-29.671v74.496h10.24z" fill="#000000"></path>
</svg>
