<?xml version="1.0" encoding="utf-8"?>
<!-- Generated by IcoMoon.io -->
<!DOCTYPE svg PUBLIC "-//W3C//DTD SVG 1.1//EN" "http://www.w3.org/Graphics/SVG/1.1/DTD/svg11.dtd">
<svg version="1.1" xmlns="http://www.w3.org/2000/svg" xmlns:xlink="http://www.w3.org/1999/xlink" width="32" height="32" viewBox="0 0 32 32">
<g id="icomoon-ignore">
	<line stroke-width="1" x1="" y1="" x2="" y2="" stroke="#449FDB" opacity=""></line>
</g>
	<path d="M24 15.52h-2.928c-0.224-1.184-1.261-2.080-2.512-2.080-1.133 0-2.093 0.739-2.432 1.76h-8.448c-0.442 0-0.8 0.358-0.8 0.8s0.358 0.8 0.8 0.8h8.448c0.336 1.021 1.296 1.76 2.432 1.76 1.251 0 2.288-0.896 2.512-2.080h2.928c0.266 0 0.48-0.214 0.48-0.48s-0.214-0.48-0.48-0.48zM19.466 16.906c-0.234 0.234-0.55 0.374-0.906 0.374s-0.672-0.141-0.906-0.374c-0.234-0.234-0.374-0.55-0.374-0.906s0.141-0.672 0.374-0.906c0.234-0.234 0.55-0.374 0.906-0.374s0.672 0.141 0.906 0.374c0.234 0.234 0.374 0.55 0.374 0.906s-0.141 0.672-0.374 0.906z" fill="#000000"></path>
</svg>
