<?xml version="1.0" encoding="utf-8"?>
<!-- Generated by IcoMoon.io -->
<!DOCTYPE svg PUBLIC "-//W3C//DTD SVG 1.1//EN" "http://www.w3.org/Graphics/SVG/1.1/DTD/svg11.dtd">
<svg version="1.1" xmlns="http://www.w3.org/2000/svg" xmlns:xlink="http://www.w3.org/1999/xlink" width="32" height="32" viewBox="0 0 32 32">
<g>
	<line stroke-width="1" x1="" y1="" x2="" y2="" stroke="#449FDB" opacity=""></line>
</g>
	<path d="M1.92 3.84v-1.92h1.28v-1.28h-1.6c-0.528 0-0.96 0.432-0.96 0.96v2.24h1.28z" fill="#000000"></path>
	<path d="M28.16 1.92h1.92v1.28h1.28v-1.6c0-0.528-0.432-0.96-0.96-0.96h-2.24v1.28z" fill="#000000"></path>
	<path d="M5.12 0.64h1.92v1.28h-1.92v-1.28z" fill="#000000"></path>
	<path d="M8.96 0.64h1.92v1.28h-1.92v-1.28z" fill="#000000"></path>
	<path d="M12.8 0.64h1.92v1.28h-1.92v-1.28z" fill="#000000"></path>
	<path d="M16.64 0.64h1.92v1.28h-1.92v-1.28z" fill="#000000"></path>
	<path d="M20.48 0.64h1.92v1.28h-1.92v-1.28z" fill="#000000"></path>
	<path d="M24.32 0.64h1.92v1.28h-1.92v-1.28z" fill="#000000"></path>
	<path d="M30.080 5.12h1.28v1.92h-1.28v-1.92z" fill="#000000"></path>
	<path d="M30.080 8.96h1.28v1.92h-1.28v-1.92z" fill="#000000"></path>
	<path d="M30.080 12.8h1.28v1.92h-1.28v-1.92z" fill="#000000"></path>
	<path d="M30.080 16.64h1.28v1.92h-1.28v-1.92z" fill="#000000"></path>
	<path d="M30.080 20.48h1.28v1.92h-1.28v-1.92z" fill="#000000"></path>
	<path d="M30.080 24.32h1.28v1.92h-1.28v-1.92z" fill="#000000"></path>
	<path d="M0.64 24.96h1.28v1.92h-1.28v-1.92z" fill="#000000"></path>
	<path d="M0.64 21.12h1.28v1.92h-1.28v-1.92z" fill="#000000"></path>
	<path d="M0.64 17.28h1.28v1.92h-1.28v-1.92z" fill="#000000"></path>
	<path d="M0.64 13.44h1.28v1.92h-1.28v-1.92z" fill="#000000"></path>
	<path d="M0.64 9.6h1.28v1.92h-1.28v-1.92z" fill="#000000"></path>
	<path d="M0.64 5.76h1.28v1.92h-1.28v-1.92z" fill="#000000"></path>
	<path d="M30.080 28.16v1.92h-1.28v1.28h1.6c0.528 0 0.96-0.432 0.96-0.96v-2.24h-1.28z" fill="#000000"></path>
	<path d="M3.84 30.080h-1.92v-1.28h-1.28v1.6c0 0.528 0.432 0.96 0.96 0.96h2.24v-1.28z" fill="#000000"></path>
	<path d="M24.96 30.080h1.92v1.28h-1.92v-1.28z" fill="#000000"></path>
	<path d="M21.12 30.080h1.92v1.28h-1.92v-1.28z" fill="#000000"></path>
	<path d="M17.28 30.080h1.92v1.28h-1.92v-1.28z" fill="#000000"></path>
	<path d="M13.44 30.080h1.92v1.28h-1.92v-1.28z" fill="#000000"></path>
	<path d="M9.6 30.080h1.92v1.28h-1.92v-1.28z" fill="#000000"></path>
	<path d="M5.76 30.080h1.92v1.28h-1.92v-1.28z" fill="#000000"></path>
</svg>
