<?xml version="1.0" encoding="utf-8"?>
<!-- Generated by IcoMoon.io -->
<!DOCTYPE svg PUBLIC "-//W3C//DTD SVG 1.1//EN" "http://www.w3.org/Graphics/SVG/1.1/DTD/svg11.dtd">
<svg version="1.1" xmlns="http://www.w3.org/2000/svg" xmlns:xlink="http://www.w3.org/1999/xlink" width="32" height="32" viewBox="0 0 32 32">
<g id="icomoon-ignore">
	<line stroke-width="1" x1="" y1="" x2="" y2="" stroke="#449FDB" opacity=""></line>
</g>
	<path d="M30.72 7.36h-0.96v-0.96c0-0.528-0.432-0.96-0.96-0.96h-0.96v-0.96c0-0.528-0.432-0.96-0.96-0.96h-21.76c-0.528 0-0.96 0.432-0.96 0.96v21.76c0 0.528 0.432 0.96 0.96 0.96h0.96v0.96c0 0.528 0.432 0.96 0.96 0.96h0.96v0.96c0 0.528 0.432 0.96 0.96 0.96h21.76c0.528 0 0.96-0.432 0.96-0.96v-21.76c0-0.528-0.432-0.96-0.96-0.96zM5.44 4.8h21.12v21.12h-21.12v-21.12zM7.36 27.2h19.52c0.528 0 0.96-0.432 0.96-0.96v-19.52h0.64v21.12h-21.12v-0.64zM30.4 29.76h-21.12v-0.64h19.52c0.528 0 0.96-0.432 0.96-0.96v-19.52h0.64v21.12z" fill="#000000"></path>
</svg>
