<?xml version="1.0" encoding="utf-8"?>
<!-- Generated by IcoMoon.io -->
<!DOCTYPE svg PUBLIC "-//W3C//DTD SVG 1.1//EN" "http://www.w3.org/Graphics/SVG/1.1/DTD/svg11.dtd">
<svg version="1.1" xmlns="http://www.w3.org/2000/svg" xmlns:xlink="http://www.w3.org/1999/xlink" width="32" height="32" viewBox="0 0 32 32">
<g id="icomoon-ignore">
	<line stroke-width="1" x1="" y1="" x2="" y2="" stroke="#449FDB" opacity=""></line>
</g>
	<path d="M20.8 12.8h-9.6c-0.883 0.003-1.597 0.717-1.6 1.6v3.84c0.003 0.883 0.717 1.597 1.6 1.6h9.6c0.883-0.003 1.597-0.717 1.6-1.6v-3.84c-0.003-0.883-0.717-1.597-1.6-1.6zM16.64 18.16c0 0.528-0.432 0.96-0.96 0.96h-4.48c-0.528 0-0.96-0.432-0.96-0.96v-3.68c0-0.528 0.432-0.96 0.96-0.96h4.48c0.528 0 0.96 0.432 0.96 0.96v3.68z" fill="#000000"></path>
</svg>
