<?xml version="1.0" encoding="utf-8"?>
<!-- Generated by IcoMoon.io -->
<!DOCTYPE svg PUBLIC "-//W3C//DTD SVG 1.1//EN" "http://www.w3.org/Graphics/SVG/1.1/DTD/svg11.dtd">
<svg version="1.1" xmlns="http://www.w3.org/2000/svg" xmlns:xlink="http://www.w3.org/1999/xlink" width="4" height="28" viewBox="0 0 4 28">
<g id="icomoon-ignore">
	<line stroke-width="1" x1="" y1="" x2="" y2="" stroke="#449FDB" opacity=""></line>
</g>
	<path d="M2.562 16.895c-0.47 0-0.832-0.132-1.084-0.395s-0.381-0.641-0.381-1.134v-3.646h-0.717c-0.062 0-0.115-0.020-0.16-0.056-0.042-0.036-0.064-0.095-0.064-0.174v-0.417l0.977-0.123 0.241-1.84c0.008-0.059 0.034-0.106 0.076-0.143s0.098-0.056 0.165-0.056h0.529v2.052h1.705v0.759h-1.705v3.576c0 0.252 0.062 0.437 0.182 0.56s0.277 0.182 0.47 0.182c0.109 0 0.204-0.014 0.286-0.045 0.081-0.028 0.151-0.062 0.21-0.098s0.109-0.067 0.151-0.098c0.042-0.031 0.078-0.045 0.109-0.045 0.056 0 0.104 0.034 0.148 0.101l0.305 0.501c-0.179 0.168-0.398 0.3-0.652 0.398-0.258 0.090-0.521 0.14-0.792 0.14z" opacity="1" visibility="false" fill="#000000"></path>
</svg>
