<?xml version="1.0" encoding="utf-8"?>
<!-- Generator: Adobe Illustrator 16.0.0, SVG Export Plug-In . SVG Version: 6.00 Build 0)  -->
<!DOCTYPE svg PUBLIC "-//W3C//DTD SVG 1.1//EN" "http://www.w3.org/Graphics/SVG/1.1/DTD/svg11.dtd">
<svg version="1.1" id="Capa_1" xmlns="http://www.w3.org/2000/svg" xmlns:xlink="http://www.w3.org/1999/xlink" x="0px" y="0px"
	 width="4.583px" height="28px" viewBox="0 0 4.583 28" enable-background="new 0 0 4.583 28" xml:space="preserve">
<g id="icomoon-ignore">
	<line fill="none" stroke="#449FDB" x1="2.292" y1="0" x2="2.292" y2="0"/>
</g>
<path d="M2.773,16.895c-0.471,0-0.832-0.131-1.084-0.395s-0.381-0.641-0.381-1.134V11.72H0.591c-0.062,0-0.114-0.02-0.159-0.056
	c-0.042-0.036-0.064-0.095-0.064-0.174v-0.417l0.977-0.123l0.241-1.84c0.008-0.059,0.034-0.106,0.076-0.143
	C1.703,8.93,1.759,8.911,1.826,8.911h0.529v2.052h1.705v0.759H2.355v3.576c0,0.252,0.062,0.437,0.182,0.56s0.277,0.183,0.47,0.183
	c0.108,0,0.204-0.015,0.286-0.045c0.081-0.028,0.15-0.062,0.21-0.099c0.06-0.035,0.108-0.066,0.151-0.098
	c0.041-0.031,0.078-0.045,0.108-0.045c0.056,0,0.104,0.034,0.148,0.102l0.305,0.5c-0.179,0.168-0.397,0.301-0.651,0.398
	c-0.258,0.09-0.521,0.141-0.793,0.141H2.773z"/>
</svg>
