<?xml version="1.0" encoding="utf-8"?>
<!-- Generated by IcoMoon.io -->
<!DOCTYPE svg PUBLIC "-//W3C//DTD SVG 1.1//EN" "http://www.w3.org/Graphics/SVG/1.1/DTD/svg11.dtd">
<svg version="1.1" xmlns="http://www.w3.org/2000/svg" xmlns:xlink="http://www.w3.org/1999/xlink" width="32" height="32" viewBox="0 0 32 32">
<g id="icomoon-ignore">
	<line stroke-width="1" x1="" y1="" x2="" y2="" stroke="#449FDB" opacity=""></line>
</g>
	<path d="M24.32 2.88h-16.64c-1.059 0.003-1.917 0.861-1.92 1.92v22.4c0.003 1.059 0.861 1.917 1.92 1.92h16.64c1.059-0.003 1.917-0.861 1.92-1.92v-22.4c-0.003-1.059-0.861-1.917-1.92-1.92zM24.771 27.651c-0.118 0.118-0.275 0.189-0.451 0.189h-16.64c-0.176 0-0.333-0.070-0.451-0.189s-0.189-0.275-0.189-0.451v-22.4c0-0.176 0.070-0.333 0.189-0.451s0.275-0.189 0.451-0.189h16.64c0.176 0 0.333 0.070 0.451 0.189s0.189 0.275 0.189 0.451v22.4c0 0.176-0.070 0.333-0.189 0.451z" fill="#000000"></path>
	<path d="M7.68 5.44h16.64v19.84h-16.64v-19.84z" fill="#000000"></path>
	<path d="M16.64 26.56c0 0.353-0.287 0.64-0.64 0.64s-0.64-0.287-0.64-0.64c0-0.353 0.287-0.64 0.64-0.64s0.64 0.287 0.64 0.64z" fill="#000000"></path>
</svg>
