<?xml version="1.0" encoding="utf-8"?>
<!-- Generated by IcoMoon.io -->
<!DOCTYPE svg PUBLIC "-//W3C//DTD SVG 1.1//EN" "http://www.w3.org/Graphics/SVG/1.1/DTD/svg11.dtd">
<svg version="1.1" xmlns="http://www.w3.org/2000/svg" xmlns:xlink="http://www.w3.org/1999/xlink" width="32" height="32" viewBox="0 0 32 32">
<g id="icomoon-ignore">
	<line stroke-width="1" x1="" y1="" x2="" y2="" stroke="#449FDB" opacity=""></line>
</g>
	<path d="M22.051 14.25l0.080-2.451c0.013-0.387-0.202-0.928-0.477-1.203l-0.25-0.25c-0.275-0.275-0.816-0.486-1.2-0.477l-2.451 0.080c-0.387 0.013-0.928 0.246-1.203 0.522l-6.474 6.474c-0.275 0.275-0.275 0.723 0 0.995l3.984 3.984c0.275 0.275 0.723 0.275 0.995 0l6.474-6.474c0.275-0.272 0.509-0.813 0.522-1.2zM18.95 13.050c-0.461-0.461-0.461-1.21 0-1.67 0.464-0.461 1.213-0.464 1.674 0 0.464 0.461 0.464 1.21 0 1.667-0.464 0.464-1.21 0.464-1.674 0.003z" fill="#000000"></path>
</svg>
