<?xml version="1.0" encoding="utf-8"?>
<!-- Generated by IcoMoon.io -->
<!DOCTYPE svg PUBLIC "-//W3C//DTD SVG 1.1//EN" "http://www.w3.org/Graphics/SVG/1.1/DTD/svg11.dtd">
<svg version="1.1" xmlns="http://www.w3.org/2000/svg" xmlns:xlink="http://www.w3.org/1999/xlink" width="32" height="32" viewBox="0 0 32 32">
<g id="icomoon-ignore">
	<line stroke-width="1" x1="" y1="" x2="" y2="" stroke="#449FDB" opacity=""></line>
</g>
	<path d="M5.209 19.585l-0.636-1.062 0.275-0.164 0.636 1.062-0.275 0.164z" opacity="1" visibility="false" fill="#000000"></path>
	<path d="M9.186 26.224l-0.667-1.115 0.275-0.164 0.667 1.115-0.275 0.164z" opacity="1" visibility="false" fill="#000000"></path>
	<path d="M10.78 19.84l0.164 0.274-1.106 0.663-0.164-0.274 1.106-0.663z" opacity="1" visibility="false" fill="#000000"></path>
	<path d="M3.084 24.448l1.098-0.658 0.164 0.275-1.098 0.658-0.164-0.275z" opacity="1" visibility="false" fill="#000000"></path>
	<path d="M9.571 22.282c0 1.414-1.146 2.56-2.56 2.56s-2.56-1.146-2.56-2.56c0-1.414 1.146-2.56 2.56-2.56s2.56 1.146 2.56 2.56z" opacity="1" visibility="false" fill="#000000"></path>
	<path d="M6.076 26.68l-0.31-0.078 0.317-1.26 0.31 0.078-0.317 1.26z" opacity="1" visibility="false" fill="#000000"></path>
	<path d="M11.331 23.528l-1.251-0.314 0.078-0.31 1.251 0.314-0.078 0.31z" opacity="1" visibility="false" fill="#000000"></path>
	<path d="M2.711 21.033l1.241 0.312-0.078 0.31-1.241-0.312 0.078-0.31z" opacity="1" visibility="false" fill="#000000"></path>
	<path d="M7.52 26.756l-0.192-1.285 0.316-0.047 0.192 1.285-0.316 0.047z" opacity="1" visibility="false" fill="#000000"></path>
	<path d="M10.202 21.965l-0.048-0.316 1.275-0.192 0.048 0.316-1.275 0.192z" opacity="1" visibility="false" fill="#000000"></path>
	<path d="M2.56 22.785l1.266-0.19 0.047 0.316-1.266 0.19-0.047-0.316z" opacity="1" visibility="false" fill="#000000"></path>
	<path d="M9.053 19.75l0.73-1.005-0.134-1.213-0.317 0.045 0.122 1.072-0.659 0.912z" opacity="1" visibility="false" fill="#000000"></path>
	<path d="M4.509 26.014l-0.259-0.187 0.761-1.053 0.259 0.187-0.761 1.053z" opacity="1" visibility="false" fill="#000000"></path>
	<path d="M10.563 25.044l-1.044-0.757 0.188-0.259 1.044 0.757-0.188 0.259z" opacity="1" visibility="false" fill="#000000"></path>
	<path d="M3.489 19.518l1.036 0.751-0.188 0.259-1.036-0.751 0.188-0.259z" opacity="1" visibility="false" fill="#000000"></path>
	<path d="M6.849 10.468l0.636 1.063-0.275 0.164-0.636-1.063 0.275-0.164z" opacity="1" visibility="false" fill="#000000"></path>
	<path d="M10.793 17.056l0.667 1.115-0.275 0.164-0.667-1.115 0.275-0.164z" opacity="1" visibility="false" fill="#000000"></path>
	<path d="M5.086 16.556l1.098-0.658 0.164 0.275-1.098 0.658-0.164-0.275z" opacity="1" visibility="false" fill="#000000"></path>
	<path d="M11.571 14.394c0 1.414-1.146 2.56-2.56 2.56s-2.56-1.146-2.56-2.56c0-1.414 1.146-2.56 2.56-2.56s2.56 1.146 2.56 2.56z" opacity="1" visibility="false" fill="#000000"></path>
	<path d="M9.953 10.005l0.31 0.078-0.302 1.204-0.31-0.078 0.302-1.204z" opacity="1" visibility="false" fill="#000000"></path>
	<path d="M8.397 17.533l-0.314-0.080-0.429 1.635 0.304 0.096z" opacity="1" visibility="false" fill="#000000"></path>
	<path d="M13.335 15.639l-1.251-0.314 0.078-0.31 1.251 0.314-0.078 0.31z" opacity="1" visibility="false" fill="#000000"></path>
	<path d="M4.715 13.143l1.241 0.312-0.078 0.31-1.241-0.312 0.078-0.31z" opacity="1" visibility="false" fill="#000000"></path>
	<path d="M8.511 9.936l0.184 1.228-0.316 0.047-0.184-1.228 0.316-0.047z" opacity="1" visibility="false" fill="#000000"></path>
	<path d="M5.826 14.704l0.048 0.316-1.266 0.19-0.048-0.316 1.266-0.19z" opacity="1" visibility="false" fill="#000000"></path>
	<path d="M11.792 10.938l1.203-0.179-0.048-0.317-1.331 0.205-0.816 1.021 0.25 0.198z" opacity="1" visibility="false" fill="#000000"></path>
	<path d="M7.027 16.87l-0.835 0.931 0.182 1.296 0.317-0.048-0.173-1.149 0.746-0.813z" opacity="1" visibility="false" fill="#000000"></path>
	<path d="M12.565 17.154l-1.044-0.757 0.188-0.259 1.044 0.757-0.188 0.259z" opacity="1" visibility="false" fill="#000000"></path>
	<path d="M5.49 11.628l1.036 0.752-0.188 0.259-1.036-0.752 0.188-0.259z" opacity="1" visibility="false" fill="#000000"></path>
	<path d="M13.968 6.204l0.638 1.065-0.275 0.164-0.638-1.065 0.275-0.164z" opacity="1" visibility="false" fill="#000000"></path>
	<path d="M18.307 14.073l-0.667-1.115 0.275-0.164 0.667 1.115-0.275 0.164z" opacity="1" visibility="false" fill="#000000"></path>
	<path d="M18.797 8.349l0.163 0.275 1.053-0.63 1.21 0.291 0.074-0.31-1.331-0.307z" opacity="1" visibility="false" fill="#000000"></path>
	<path d="M11.84 12.887l-0.164-0.275 1.631-0.976 0.164 0.275-1.631 0.976z" opacity="1" visibility="false" fill="#000000"></path>
	<path d="M18.694 10.131c0 1.414-1.146 2.56-2.56 2.56s-2.56-1.146-2.56-2.56c0-1.414 1.146-2.56 2.56-2.56s2.56 1.146 2.56 2.56z" opacity="1" visibility="false" fill="#000000"></path>
	<path d="M17.077 5.743l0.31 0.078-0.303 1.204-0.31-0.078 0.303-1.204z" opacity="1" visibility="false" fill="#000000"></path>
	<path d="M15.2 14.529l-0.31-0.078 0.316-1.26 0.31 0.078-0.316 1.26z" opacity="1" visibility="false" fill="#000000"></path>
	<path d="M11.835 8.88l1.241 0.312-0.078 0.31-1.241-0.312 0.078-0.31z" opacity="1" visibility="false" fill="#000000"></path>
	<path d="M15.631 5.671l0.184 1.228-0.316 0.047-0.184-1.228 0.316-0.047z" opacity="1" visibility="false" fill="#000000"></path>
	<path d="M16.646 14.601l-0.192-1.285 0.316-0.047 0.192 1.285-0.316 0.047z" opacity="1" visibility="false" fill="#000000"></path>
	<path d="M19.277 9.494l0.048 0.317 1.891-0.269-0.042-0.317z" opacity="1" visibility="false" fill="#000000"></path>
	<path d="M18.644 6.405l0.259 0.188-0.728 1.006-0.259-0.188 0.728-1.006z" opacity="1" visibility="false" fill="#000000"></path>
	<path d="M13.37 13.578l-1.213 0.182 0.048 0.317 1.37-0.218 0.816-1.043-0.25-0.202z" opacity="1" visibility="false" fill="#000000"></path>
	<path d="M19.687 12.889l-1.044-0.757 0.188-0.259 1.044 0.757-0.188 0.259z" opacity="1" visibility="false" fill="#000000"></path>
	<path d="M12.611 7.368l1.036 0.751-0.188 0.259-1.036-0.751 0.188-0.259z" opacity="1" visibility="false" fill="#000000"></path>
	<path d="M22.191 4.988l0.636 1.063-0.275 0.164-0.636-1.063 0.275-0.164z" opacity="1" visibility="false" fill="#000000"></path>
	<path d="M26.53 12.857l-0.668-1.115 0.275-0.164 0.668 1.115-0.275 0.164z" opacity="1" visibility="false" fill="#000000"></path>
	<path d="M28.291 6.747l-1.106 0.663-0.164-0.275 1.106-0.663 0.164 0.275z" opacity="1" visibility="false" fill="#000000"></path>
	<path d="M21.693 10.694l-0.163-0.275-1.043 0.624-1.203-0.294-0.077 0.31 1.328 0.31z" opacity="1" visibility="false" fill="#000000"></path>
	<path d="M26.915 8.915c0 1.414-1.146 2.56-2.56 2.56s-2.56-1.146-2.56-2.56c0-1.414 1.146-2.56 2.56-2.56s2.56 1.146 2.56 2.56z" opacity="1" visibility="false" fill="#000000"></path>
	<path d="M25.297 4.524l0.31 0.078-0.301 1.201-0.31-0.078 0.301-1.201z" opacity="1" visibility="false" fill="#000000"></path>
	<path d="M23.423 13.312l-0.31-0.078 0.316-1.26 0.31 0.078-0.316 1.26z" opacity="1" visibility="false" fill="#000000"></path>
	<path d="M28.681 10.158l-1.251-0.314 0.078-0.31 1.251 0.314-0.078 0.31z" opacity="1" visibility="false" fill="#000000"></path>
	<path d="M23.854 4.457l0.184 1.228-0.316 0.047-0.184-1.228 0.316-0.047z" opacity="1" visibility="false" fill="#000000"></path>
	<path d="M24.869 13.386l-0.192-1.285 0.316-0.047 0.192 1.285-0.316 0.047z" opacity="1" visibility="false" fill="#000000"></path>
	<path d="M28.824 8.404l-1.275 0.191-0.047-0.316 1.275-0.191 0.047 0.316z" opacity="1" visibility="false" fill="#000000"></path>
	<path d="M26.868 5.188l0.259 0.188-0.729 1.005-0.259-0.188 0.729-1.005z" opacity="1" visibility="false" fill="#000000"></path>
	<path d="M21.854 12.644l-0.259-0.188 0.762-1.052 0.259 0.188-0.762 1.052z" opacity="1" visibility="false" fill="#000000"></path>
	<path d="M27.908 11.676l-1.044-0.757 0.188-0.259 1.044 0.757-0.188 0.259z" opacity="1" visibility="false" fill="#000000"></path>
	<path d="M20.834 6.149l1.036 0.751-0.188 0.259-1.036-0.751 0.188-0.259z" opacity="1" visibility="false" fill="#000000"></path>
</svg>
