<?xml version="1.0" encoding="utf-8"?>
<!-- Generated by IcoMoon.io -->
<!DOCTYPE svg PUBLIC "-//W3C//DTD SVG 1.1//EN" "http://www.w3.org/Graphics/SVG/1.1/DTD/svg11.dtd">
<svg version="1.1" xmlns="http://www.w3.org/2000/svg" xmlns:xlink="http://www.w3.org/1999/xlink" width="32" height="32" viewBox="0 0 32 32">
<g id="icomoon-ignore">
	<line stroke-width="1" x1="" y1="" x2="" y2="" stroke="#449FDB" opacity=""></line>
</g>
	<path d="M8.311 15.178l0.197 1.223-0.316 0.051-0.197-1.223 0.316-0.051z" opacity="1" visibility="false" fill="#000000"></path>
	<path d="M9.425 24.093l-0.207-1.283 0.316-0.051 0.207 1.283-0.316 0.051z" opacity="1" visibility="false" fill="#000000"></path>
	<path d="M12.051 19.272l-0.051-0.316 1.273-0.207 0.051 0.316-1.273 0.207z" opacity="1" visibility="false" fill="#000000"></path>
	<path d="M4.417 20.181l1.264-0.204 0.051 0.316-1.264 0.204-0.051-0.316z" opacity="1" visibility="false" fill="#000000"></path>
	<path d="M11.427 19.626c0 1.414-1.146 2.56-2.56 2.56s-2.56-1.146-2.56-2.56c0-1.414 1.146-2.56 2.56-2.56s2.56 1.146 2.56 2.56z" opacity="1" visibility="false" fill="#000000"></path>
	<path d="M10.64 16.902l0.259 0.189 1.008-1.36-0.25-0.198z" opacity="1" visibility="false" fill="#000000"></path>
	<path d="M6.368 23.365l-0.259-0.187 0.761-1.053 0.259 0.187-0.761 1.053z" opacity="1" visibility="false" fill="#000000"></path>
	<path d="M12.42 22.381l-1.045-0.755 0.187-0.259 1.045 0.755-0.187 0.259z" opacity="1" visibility="false" fill="#000000"></path>
	<path d="M5.335 16.872l1.038 0.749-0.187 0.259-1.038-0.749 0.187-0.259z" opacity="1" visibility="false" fill="#000000"></path>
	<path d="M7.996 24.042l-0.312-0.073 0.297-1.265 0.312 0.073-0.297 1.265z" opacity="1" visibility="false" fill="#000000"></path>
	<path d="M13.203 20.806l-1.255-0.295 0.073-0.312 1.255 0.295-0.073 0.312z" opacity="1" visibility="false" fill="#000000"></path>
	<path d="M4.546 18.444l1.246 0.293-0.073 0.312-1.246-0.293 0.073-0.312z" opacity="1" visibility="false" fill="#000000"></path>
	<path d="M4.989 21.895l1.098-0.695 0.171 0.27-1.098 0.695-0.171-0.27z" opacity="1" visibility="false" fill="#000000"></path>
	<path d="M11.144 23.506l-0.689-1.090 0.27-0.171 0.689 1.090-0.27 0.171z" opacity="1" visibility="false" fill="#000000"></path>
	<path d="M6.617 15.755l0.684 1.082-0.27 0.171-0.684-1.082 0.27-0.171z" opacity="1" visibility="false" fill="#000000"></path>
	<path d="M13.092 8.591l0.198 1.226-0.316 0.051-0.198-1.226 0.316-0.051z" opacity="1" visibility="false" fill="#000000"></path>
	<path d="M14.204 17.508l-0.207-1.283 0.316-0.051 0.207 1.283-0.316 0.051z" opacity="1" visibility="false" fill="#000000"></path>
	<path d="M10.462 13.39l0.051 0.316-1.264 0.205-0.051-0.316 1.264-0.205z" opacity="1" visibility="false" fill="#000000"></path>
	<path d="M16.208 13.040c0 1.414-1.146 2.56-2.56 2.56s-2.56-1.146-2.56-2.56c0-1.414 1.146-2.56 2.56-2.56s2.56 1.146 2.56 2.56z" opacity="1" visibility="false" fill="#000000"></path>
	<path d="M16.151 9.311l0.259 0.187-0.727 1.007-0.259-0.187 0.727-1.007z" opacity="1" visibility="false" fill="#000000"></path>
	<path d="M17.203 15.793l-1.046-0.755 0.187-0.259 1.046 0.755-0.187 0.259z" opacity="1" visibility="false" fill="#000000"></path>
	<path d="M10.116 10.285l1.038 0.749-0.187 0.259-1.038-0.749 0.187-0.259z" opacity="1" visibility="false" fill="#000000"></path>
	<path d="M14.522 8.639l0.311 0.073-0.285 1.208-0.311-0.073 0.285-1.208z" opacity="1" visibility="false" fill="#000000"></path>
	<path d="M13.075 16.189l-0.31-0.074-0.294 1.046-0.941 0.595 0.173 0.272 1.046-0.662z" opacity="1" visibility="false" fill="#000000"></path>
	<path d="M9.327 11.858l1.246 0.293-0.073 0.312-1.246-0.293 0.073-0.312z" opacity="1" visibility="false" fill="#000000"></path>
	<path d="M16.32 11.168l0.157 0.278 1.030-0.586 1.187 0.278 0.074-0.314-1.293-0.32z" opacity="1" visibility="false" fill="#000000"></path>
	<path d="M9.741 15.226l-0.285 1.206 0.31 0.074 0.25-1.059 1.008-0.554-0.138-0.288z" opacity="1" visibility="false" fill="#000000"></path>
	<path d="M15.926 16.92l-0.689-1.090 0.27-0.171 0.689 1.090-0.27 0.171z" opacity="1" visibility="false" fill="#000000"></path>
	<path d="M11.401 9.166l0.684 1.082-0.27 0.171-0.684-1.082 0.27-0.171z" opacity="1" visibility="false" fill="#000000"></path>
	<path d="M21.283 7.267l0.198 1.226-0.316 0.051-0.198-1.226 0.316-0.051z" opacity="1" visibility="false" fill="#000000"></path>
	<path d="M22.399 16.185l-0.207-1.283 0.316-0.051 0.207 1.283-0.316 0.051z" opacity="1" visibility="false" fill="#000000"></path>
	<path d="M26.3 11.159l-1.273 0.206-0.051-0.316 1.273-0.206 0.051 0.316z" opacity="1" visibility="false" fill="#000000"></path>
	<path d="M18.054 12.166l-1.274 0.205 0.051 0.317 1.274-0.208 0.602-0.096-0.051-0.317z" opacity="1" visibility="false" fill="#000000"></path>
	<path d="M24.4 11.715c0 1.414-1.146 2.56-2.56 2.56s-2.56-1.146-2.56-2.56c0-1.414 1.146-2.56 2.56-2.56s2.56 1.146 2.56 2.56z" opacity="1" visibility="false" fill="#000000"></path>
	<path d="M24.342 7.988l0.259 0.187-0.727 1.007-0.259-0.187 0.727-1.007z" opacity="1" visibility="false" fill="#000000"></path>
	<path d="M19.344 15.456l-0.259-0.187 0.76-1.054 0.259 0.187-0.76 1.054z" opacity="1" visibility="false" fill="#000000"></path>
	<path d="M25.395 14.472l-1.045-0.755 0.187-0.259 1.045 0.755-0.187 0.259z" opacity="1" visibility="false" fill="#000000"></path>
	<path d="M18.311 8.961l1.038 0.749-0.187 0.259-1.038-0.749 0.187-0.259z" opacity="1" visibility="false" fill="#000000"></path>
	<path d="M22.716 7.317l0.312 0.073-0.283 1.206-0.312-0.073 0.283-1.206z" opacity="1" visibility="false" fill="#000000"></path>
	<path d="M20.971 16.132l-0.311-0.073 0.298-1.264 0.311 0.073-0.298 1.264z" opacity="1" visibility="false" fill="#000000"></path>
	<path d="M26.179 12.896l-1.255-0.295 0.073-0.312 1.255 0.295-0.073 0.312z" opacity="1" visibility="false" fill="#000000"></path>
	<path d="M25.727 9.457l-1.049 0.664-0.171-0.27 1.049-0.664 0.171 0.27z" opacity="1" visibility="false" fill="#000000"></path>
	<path d="M19.235 13.562l-0.173-0.269-1.037 0.656-1.216-0.333-0.086 0.307 1.347 0.355z" opacity="1" visibility="false" fill="#000000"></path>
	<path d="M24.12 15.595l-0.689-1.090 0.27-0.171 0.689 1.090-0.27 0.171z" opacity="1" visibility="false" fill="#000000"></path>
	<path d="M19.595 7.845l0.684 1.082-0.27 0.171-0.684-1.082 0.27-0.171z" opacity="1" visibility="false" fill="#000000"></path>
</svg>
