<?xml version="1.0" encoding="utf-8"?>
<!-- Generated by IcoMoon.io -->
<!DOCTYPE svg PUBLIC "-//W3C//DTD SVG 1.1//EN" "http://www.w3.org/Graphics/SVG/1.1/DTD/svg11.dtd">
<svg version="1.1" xmlns="http://www.w3.org/2000/svg" xmlns:xlink="http://www.w3.org/1999/xlink" width="32" height="32" viewBox="0 0 32 32">
<g id="icomoon-ignore">
	<line stroke-width="1" x1="" y1="" x2="" y2="" stroke="#449FDB" opacity=""></line>
</g>
	<path d="M12.621 14.061h0.32v1.242h-0.32v-1.242z" opacity="1" visibility="false" fill="#000000"></path>
	<path d="M12.621 21.741h0.32v1.299h-0.32v-1.299z" opacity="1" visibility="false" fill="#000000"></path>
	<path d="M15.981 18.381h1.29v0.32h-1.29v-0.32z" opacity="1" visibility="false" fill="#000000"></path>
	<path d="M8.301 18.381h1.28v0.32h-1.28v-0.32z" opacity="1" visibility="false" fill="#000000"></path>
	<path d="M15.341 18.541c0 1.414-1.146 2.56-2.56 2.56s-2.56-1.146-2.56-2.56c0-1.414 1.146-2.56 2.56-2.56s2.56 1.146 2.56 2.56z" opacity="1" visibility="false" fill="#000000"></path>
	<path d="M9.719 21.834l-0.226-0.226 0.919-0.919 0.226 0.226-0.919 0.919z" opacity="1" visibility="false" fill="#000000"></path>
	<path d="M15.851 21.829l-0.912-0.912 0.226-0.226 0.912 0.912-0.226 0.226z" opacity="1" visibility="false" fill="#000000"></path>
	<path d="M9.734 15.258l0.905 0.905-0.226 0.226-0.905-0.905 0.226-0.226z" opacity="1" visibility="false" fill="#000000"></path>
	<path d="M14.592 14.573l1.075-0.362-0.093-0.304-1.232 0.429-0.47 1.146 0.294 0.122z" opacity="1" visibility="false" fill="#000000"></path>
	<path d="M11.216 22.758l-0.296-0.122 0.495-1.201 0.296 0.122-0.495 1.201z" opacity="1" visibility="false" fill="#000000"></path>
	<path d="M16.875 20.398l-1.192-0.491 0.122-0.296 1.192 0.491-0.122 0.296z" opacity="1" visibility="false" fill="#000000"></path>
	<path d="M8.704 16.684l1.184 0.488-0.122 0.296-1.184-0.488 0.122-0.296z" opacity="1" visibility="false" fill="#000000"></path>
	<path d="M8.592 20.162l1.194-0.511 0.126 0.294-1.194 0.511-0.126-0.294z" opacity="1" visibility="false" fill="#000000"></path>
	<path d="M14.409 22.735l-0.507-1.186 0.294-0.126 0.507 1.186-0.294 0.126z" opacity="1" visibility="false" fill="#000000"></path>
	<path d="M11.178 14.359l0.503 1.177-0.294 0.126-0.503-1.177 0.294-0.126z" opacity="1" visibility="false" fill="#000000"></path>
	<path d="M18.39 8.32h0.32v1.242h-0.32v-1.242z" opacity="1" visibility="false" fill="#000000"></path>
	<path d="M18.39 16h0.32v1.299h-0.32v-1.299z" opacity="1" visibility="false" fill="#000000"></path>
	<path d="M21.75 12.64h1.29v0.32h-1.29v-0.32z" opacity="1" visibility="false" fill="#000000"></path>
	<path d="M14.070 12.64h1.28v0.32h-1.28v-0.32z" opacity="1" visibility="false" fill="#000000"></path>
	<path d="M21.11 12.8c0 1.414-1.146 2.56-2.56 2.56s-2.56-1.146-2.56-2.56c0-1.414 1.146-2.56 2.56-2.56s2.56 1.146 2.56 2.56z" opacity="1" visibility="false" fill="#000000"></path>
	<path d="M21.612 9.517l0.226 0.226-0.878 0.878-0.226-0.226 0.878-0.878z" opacity="1" visibility="false" fill="#000000"></path>
	<path d="M16.403 15.181l-0.214-0.237-1.222 1.19 0.227 0.227z" opacity="1" visibility="false" fill="#000000"></path>
	<path d="M21.618 16.088l-0.912-0.912 0.226-0.226 0.912 0.912-0.226 0.226z" opacity="1" visibility="false" fill="#000000"></path>
	<path d="M15.503 9.518l0.905 0.905-0.226 0.226-0.905-0.905 0.226-0.226z" opacity="1" visibility="false" fill="#000000"></path>
	<path d="M20.114 8.596l0.296 0.122-0.472 1.145-0.296-0.122 0.472-1.145z" opacity="1" visibility="false" fill="#000000"></path>
	<path d="M16.733 16.685l-1.024 0.435 0.125 0.294 1.142-0.486 0.506-1.11-0.294-0.122z" opacity="1" visibility="false" fill="#000000"></path>
	<path d="M22.642 14.658l-1.192-0.491 0.122-0.296 1.192 0.491-0.122 0.296z" opacity="1" visibility="false" fill="#000000"></path>
	<path d="M14.474 10.943l1.184 0.488-0.122 0.296-1.184-0.488 0.122-0.296z" opacity="1" visibility="false" fill="#000000"></path>
	<path d="M22.746 11.189l-1.142 0.488-0.126-0.294 1.142-0.488 0.126 0.294z" opacity="1" visibility="false" fill="#000000"></path>
	<path d="M20.179 16.995l-0.507-1.186 0.294-0.126 0.507 1.186-0.294 0.126z" opacity="1" visibility="false" fill="#000000"></path>
	<path d="M16.948 8.618l0.503 1.177-0.294 0.126-0.503-1.177 0.294-0.126z" opacity="1" visibility="false" fill="#000000"></path>
</svg>
