<?xml version="1.0" encoding="utf-8"?>
<!-- Generated by IcoMoon.io -->
<!DOCTYPE svg PUBLIC "-//W3C//DTD SVG 1.1//EN" "http://www.w3.org/Graphics/SVG/1.1/DTD/svg11.dtd">
<svg version="1.1" xmlns="http://www.w3.org/2000/svg" xmlns:xlink="http://www.w3.org/1999/xlink" width="32" height="32" viewBox="0 0 32 32">
<g id="icomoon-ignore">
	<line stroke-width="1" x1="" y1="" x2="" y2="" stroke="#449FDB" opacity=""></line>
</g>
	<path d="M15.84 11.52h0.32v1.242h-0.32v-1.242z" opacity="1" visibility="false" fill="#000000"></path>
	<path d="M15.84 19.2h0.32v1.299h-0.32v-1.299z" opacity="1" visibility="false" fill="#000000"></path>
	<path d="M19.2 15.84h1.29v0.32h-1.29v-0.32z" opacity="1" visibility="false" fill="#000000"></path>
	<path d="M11.52 15.84h1.28v0.32h-1.28v-0.32z" opacity="1" visibility="false" fill="#000000"></path>
	<path d="M18.56 16c0 1.414-1.146 2.56-2.56 2.56s-2.56-1.146-2.56-2.56c0-1.414 1.146-2.56 2.56-2.56s2.56 1.146 2.56 2.56z" opacity="1" visibility="false" fill="#000000"></path>
	<path d="M19.064 12.719l0.226 0.226-0.878 0.878-0.226-0.226 0.878-0.878z" opacity="1" visibility="false" fill="#000000"></path>
	<path d="M12.939 19.295l-0.226-0.226 0.919-0.919 0.226 0.226-0.919 0.919z" opacity="1" visibility="false" fill="#000000"></path>
	<path d="M19.069 19.288l-0.912-0.912 0.226-0.226 0.912 0.912-0.226 0.226z" opacity="1" visibility="false" fill="#000000"></path>
	<path d="M12.954 12.717l0.905 0.905-0.226 0.226-0.905-0.905 0.226-0.226z" opacity="1" visibility="false" fill="#000000"></path>
	<path d="M17.564 11.797l0.296 0.122-0.472 1.145-0.296-0.122 0.472-1.145z" opacity="1" visibility="false" fill="#000000"></path>
	<path d="M14.437 20.219l-0.296-0.122 0.495-1.201 0.296 0.122-0.495 1.201z" opacity="1" visibility="false" fill="#000000"></path>
	<path d="M20.094 17.854l-1.192-0.491 0.122-0.296 1.192 0.491-0.122 0.296z" opacity="1" visibility="false" fill="#000000"></path>
	<path d="M11.924 14.142l1.183 0.488-0.122 0.296-1.183-0.488 0.122-0.296z" opacity="1" visibility="false" fill="#000000"></path>
	<path d="M20.196 14.389l-1.142 0.488-0.126-0.294 1.142-0.488 0.126 0.294z" opacity="1" visibility="false" fill="#000000"></path>
	<path d="M11.81 17.622l1.194-0.511 0.126 0.294-1.194 0.511-0.126-0.294z" opacity="1" visibility="false" fill="#000000"></path>
	<path d="M17.629 20.192l-0.507-1.186 0.294-0.126 0.507 1.186-0.294 0.126z" opacity="1" visibility="false" fill="#000000"></path>
	<path d="M14.398 11.818l0.503 1.177-0.294 0.126-0.503-1.177 0.294-0.126z" opacity="1" visibility="false" fill="#000000"></path>
</svg>
