<?xml version="1.0" encoding="utf-8"?>
<!-- Generated by IcoMoon.io -->
<!DOCTYPE svg PUBLIC "-//W3C//DTD SVG 1.1//EN" "http://www.w3.org/Graphics/SVG/1.1/DTD/svg11.dtd">
<svg version="1.1" xmlns="http://www.w3.org/2000/svg" xmlns:xlink="http://www.w3.org/1999/xlink" width="32" height="32" viewBox="0 0 32 32">
<g>
	<line stroke-width="1" x1="" y1="" x2="" y2="" stroke="#449FDB" opacity=""></line>
</g>
	<path d="M30.080 10.56c0.003-1.661-1.818-2.406-3.213-1.821 0-0.925-0.003-1.85-0.003-2.774 0-0.547-0.003-1.085-0.317-1.562-0.614-0.938-1.91-1.082-2.867-0.634 0-1.229-0.906-2.118-2.131-2.17-1.174-0.048-2.272 0.726-2.342 1.949-1.408-0.579-3.21 0.25-3.206 1.891 0 0.698 0 1.398 0 2.096 0 2.822 0 5.642 0 8.464h-2.336l-2.854 6.422 4.163 7.978c2.464 0 4.928 0 7.389 0 1.13 0 2.256 0 3.386 0 0.512 0 1.030 0.019 1.52-0.163 0.89-0.33 1.277-1.184 1.472-2.048 0.368-1.632 0.541-3.322 0.752-4.979 0.23-1.818 0.48-3.648 0.576-5.482 0.074-1.376 0.013-2.768 0.013-4.144 0-1.008 0-2.016 0-3.024v0zM28.8 16.838c0 0.182 0 0.365 0 0.547v0c-0.038 1.706-0.298 3.421-0.509 5.11-0.214 1.741-0.416 3.494-0.758 5.216v0c-0.070 0.355-0.15 0.755-0.365 1.056-0.218 0.301-0.582 0.352-0.928 0.352-0.275 0-0.547 0-0.822 0-1.040 0-2.080 0-3.117 0-2.154 0-4.304 0-6.458 0-0.032 0-0.064 0-0.096 0l-3.517-6.742 2.266-5.098h1.504c0 1.706 0 3.414 0 5.12h1.28c0-2.947 0-5.898 0-8.845 0-2 0-4 0-6 0-0.595 0-1.187 0-1.782 0-0.253-0.029-0.538 0.118-0.758 0.442-0.662 1.798-0.442 1.802 0.426 0 3.626 0 7.254 0 10.88h1.28c0-3.389 0-6.781 0-10.17 0-0.237 0-0.474 0-0.71 0-0.416 0-0.832 0-1.248 0-0.272-0.048-0.611 0.074-0.861 0.342-0.701 1.754-0.586 1.84 0.243 0.074 0.698 0.006 1.437 0.006 2.134 0 1.632 0 9.203 0 11.354h1.28c0-1.731 0-7.99 0-9.392 0-0.611 0-1.222 0-1.83 0-0.39 0.122-0.694 0.48-0.886 0.346-0.186 0.89-0.243 1.21 0.032 0.304 0.259 0.214 0.877 0.218 1.242 0 0.746 0.003 1.491 0.003 2.234 0 2.042 0.010 8.218 0.010 9.264h1.28c0-1.53 0-6.154 0-6.934 0-0.275-0.003-0.538 0.237-0.733 0.534-0.438 1.683-0.317 1.683 0.522 0 2.083 0.003 4.173 0 6.259 0 0.166 0-0.326 0 0z" fill="#000000"></path>
</svg>
