<?xml version="1.0" encoding="utf-8"?>
<!-- Generated by IcoMoon.io -->
<!DOCTYPE svg PUBLIC "-//W3C//DTD SVG 1.1//EN" "http://www.w3.org/Graphics/SVG/1.1/DTD/svg11.dtd">
<svg version="1.1" xmlns="http://www.w3.org/2000/svg" xmlns:xlink="http://www.w3.org/1999/xlink" width="32" height="32" viewBox="0 0 32 32">
<g id="icomoon-ignore">
	<line stroke-width="1" x1="" y1="" x2="" y2="" stroke="#449FDB" opacity=""></line>
</g>
	<path d="M15.36 30.4c2.608 0 5.216 0 7.824 0 0.976 0 1.952 0 2.928 0 0.755 0 1.501-0.154 2.006-0.765 0.509-0.618 0.64-1.459 0.771-2.227 0.429-2.496 0.73-5.024 0.989-7.542 0.064-0.624 0.125-1.248 0.166-1.872 0.032-0.48 0.086-0.976-0.096-1.437-0.467-1.178-1.987-1.494-3.075-1.069-0.003-3.126-0.010-6.25-0.013-9.373 0-0.304 0.019-0.627-0.026-0.928-0.221-1.494-1.907-2.003-3.158-1.418 0-1.229-0.906-2.118-2.131-2.17-1.174-0.048-2.272 0.726-2.342 1.949-1.405-0.579-3.206 0.25-3.203 1.891 0 0.698 0 1.398 0 2.096 0 2.822 0 5.642 0 8.464h-2.336l-2.854 6.422 4.163 7.978h0.387zM14.496 17.28h1.504c0 1.706 0 3.414 0 5.12h1.28c0-2.947 0-12.845 0-14.845 0-0.595 0-1.187 0-1.782 0-0.253-0.029-0.538 0.118-0.758 0.442-0.662 1.798-0.442 1.802 0.426 0 3.626 0 7.254 0 10.88h1.28c0-3.389 0-6.781 0-10.17 0-0.237 0-0.474 0-0.71 0-0.416 0-0.832 0-1.248 0-0.272-0.048-0.611 0.074-0.861 0.342-0.701 1.754-0.586 1.84 0.243 0.074 0.698 0.006 1.437 0.006 2.134 0 1.632 0 9.203 0 11.354h1.28c0-1.731 0-10.611 0-11.222 0-0.39 0.122-0.694 0.48-0.886 0.346-0.186 0.89-0.243 1.21 0.032 0.304 0.259 0.214 0.877 0.218 1.242 0 0.746 0.003 1.491 0.003 2.234 0 2.042 0.010 8.218 0.010 9.264h1.28c0-0.282-0.058-0.63 0.157-0.854 0.374-0.387 1.216-0.394 1.603-0.019 0.307 0.298 0.138 0.986 0.109 1.36-0.051 0.653-0.115 1.306-0.186 1.958-0.269 2.515-0.534 5.066-1.027 7.549v0c-0.070 0.355-0.15 0.755-0.365 1.056-0.221 0.294-0.586 0.346-0.931 0.346-0.275 0-0.547 0-0.822 0-1.040 0-2.080 0-3.117 0-2.154 0-4.304 0-6.458 0-0.032 0-0.064 0-0.096 0l-3.517-6.742 2.266-5.098z" fill="#000000"></path>
</svg>
