<?xml version="1.0" encoding="utf-8"?>
<!-- Generated by IcoMoon.io -->
<!DOCTYPE svg PUBLIC "-//W3C//DTD SVG 1.1//EN" "http://www.w3.org/Graphics/SVG/1.1/DTD/svg11.dtd">
<svg version="1.1" xmlns="http://www.w3.org/2000/svg" xmlns:xlink="http://www.w3.org/1999/xlink" width="32" height="32" viewBox="0 0 32 32">
<g id="icomoon-ignore">
	<line stroke-width="1" x1="" y1="" x2="" y2="" stroke="#449FDB" opacity=""></line>
</g>
	<path d="M6.72 9.28c0 1.414-1.146 2.56-2.56 2.56s-2.56-1.146-2.56-2.56c0-1.414 1.146-2.56 2.56-2.56s2.56 1.146 2.56 2.56z" opacity="1" visibility="false" fill="#000000"></path>
	<path d="M16.32 4.16c0 1.414-1.146 2.56-2.56 2.56s-2.56-1.146-2.56-2.56c0-1.414 1.146-2.56 2.56-2.56s2.56 1.146 2.56 2.56z" opacity="1" visibility="false" fill="#000000"></path>
	<path d="M26.56 8c0 1.414-1.146 2.56-2.56 2.56s-2.56-1.146-2.56-2.56c0-1.414 1.146-2.56 2.56-2.56s2.56 1.146 2.56 2.56z" opacity="1" visibility="false" fill="#000000"></path>
	<path d="M30.4 15.68c0 1.414-1.146 2.56-2.56 2.56s-2.56-1.146-2.56-2.56c0-1.414 1.146-2.56 2.56-2.56s2.56 1.146 2.56 2.56z" opacity="1" visibility="false" fill="#000000"></path>
	<path d="M11.2 27.84c0 1.414-1.146 2.56-2.56 2.56s-2.56-1.146-2.56-2.56c0-1.414 1.146-2.56 2.56-2.56s2.56 1.146 2.56 2.56z" opacity="1" visibility="false" fill="#000000"></path>
	<path d="M15.53 10.298c-0.208 0.253-0.525 0.63-0.784 0.941l-0.282-3.958c-0.227 0.051-0.461 0.080-0.704 0.080-0.086 0-0.17-0.006-0.253-0.013l0.285 3.997c-0.314-0.262-0.704-0.586-0.96-0.797-0.493-0.406-1.347 0.125-1.347 0.125l2.944 2.448 2.445-2.944c0.003-0.003-0.938-0.368-1.344 0.122z" opacity="1" visibility="false" fill="#000000"></path>
	<path d="M21.69 12.675c-0.333 0.013-0.838 0.032-1.245 0.048l1.814-2.042c-0.269-0.176-0.512-0.39-0.717-0.637l-1.789 2.013c-0.016-0.403-0.035-0.896-0.048-1.222-0.026-0.637-0.992-0.918-0.992-0.918l0.144 3.824 3.827-0.147c-0.003 0-0.355-0.944-0.995-0.918z" opacity="1" visibility="false" fill="#000000"></path>
	<path d="M8.774 22.307c0 0 0.525 0.861 1.146 0.72 0.323-0.074 0.816-0.186 1.216-0.278l-1.28 2.131c0.301 0.125 0.576 0.291 0.822 0.493l1.261-2.102c0.090 0.394 0.198 0.877 0.272 1.194 0.141 0.621 1.146 0.72 1.146 0.72l-0.851-3.731-3.731 0.854z" opacity="1" visibility="false" fill="#000000"></path>
	<path d="M24.675 16.128l-1.6 0.48c0.198-0.352 0.442-0.781 0.602-1.066 0.314-0.557-0.362-1.302-0.362-1.302l-1.885 3.331 3.334 1.885c0 0 0.192-0.989-0.362-1.302-0.288-0.163-0.73-0.413-1.085-0.614l1.635-0.49c-0.138-0.288-0.234-0.595-0.278-0.922z" opacity="1" visibility="false" fill="#000000"></path>
	<path d="M6.205 11.741l2.038 1.814c-0.406 0.032-0.912 0.074-1.242 0.099-0.637 0.051-0.877 1.030-0.877 1.030l3.818-0.304-0.304-3.814c0 0-0.928 0.394-0.877 1.030 0.026 0.326 0.064 0.816 0.096 1.219l-2.013-1.789c-0.179 0.266-0.394 0.506-0.64 0.714z" opacity="1" visibility="false" fill="#000000"></path>
</svg>
