<?xml version="1.0" encoding="utf-8"?>
<!-- Generated by IcoMoon.io -->
<!DOCTYPE svg PUBLIC "-//W3C//DTD SVG 1.1//EN" "http://www.w3.org/Graphics/SVG/1.1/DTD/svg11.dtd">
<svg version="1.1" xmlns="http://www.w3.org/2000/svg" xmlns:xlink="http://www.w3.org/1999/xlink" width="32" height="32" viewBox="0 0 32 32">
<g id="icomoon-ignore">
	<line stroke-width="1" x1="" y1="" x2="" y2="" stroke="#449FDB" opacity=""></line>
</g>
	<path d="M30.077 17.197c-0.010-0.291-0.074-0.566-0.192-0.81-0.192-0.4-0.515-0.694-0.87-0.874-0.355-0.182-0.742-0.262-1.13-0.262-0.365 0-0.73 0.077-1.066 0.227-0.032-0.138-0.077-0.269-0.138-0.39-0.195-0.406-0.518-0.71-0.877-0.899-0.362-0.189-0.755-0.275-1.152-0.275-0.358 0-0.72 0.074-1.053 0.227-0.032-0.115-0.070-0.227-0.122-0.333-0.198-0.406-0.525-0.707-0.883-0.896-0.362-0.189-0.758-0.275-1.155-0.275-0.326 0-0.653 0.061-0.96 0.186 0-2.883 0-6.621 0-7.386 0-0.33-0.070-0.64-0.202-0.909-0.198-0.406-0.525-0.707-0.883-0.896-0.362-0.189-0.758-0.275-1.155-0.275-0.525 0-1.062 0.154-1.501 0.499-0.218 0.173-0.406 0.4-0.538 0.669-0.131 0.275-0.202 0.586-0.202 0.915 0 1.21 0 15.082 0 15.36 0 0.195-0.083 0.368-0.259 0.518-0.173 0.15-0.432 0.253-0.717 0.253-0.346-0.003-0.726-0.134-1.104-0.557-0.125-0.141-0.285-0.307-0.474-0.499-0.57-0.579-1.411-1.386-2.112-2.090-0.227-0.227-0.493-0.39-0.768-0.49s-0.557-0.138-0.826-0.138c-0.406 0-0.794 0.083-1.152 0.198-0.534 0.173-1.008 0.422-1.354 0.627s-0.566 0.371-0.579 0.381l-0.531 0.4 8.931 10.995h0.304c0 0 0.602 0 1.52 0 2.762 0 8.4 0 9.36 0 0.374 0 0.717-0.048 1.027-0.163 0.234-0.086 0.448-0.214 0.627-0.371 0.272-0.24 0.461-0.541 0.595-0.858 0.134-0.32 0.224-0.666 0.298-1.043v0c0.106-0.528 0.234-1.331 0.371-2.278 0.205-1.418 0.426-3.152 0.602-4.694 0.086-0.771 0.163-1.494 0.221-2.109 0.054-0.614 0.093-1.117 0.099-1.466v0c0-0.054 0.003-0.090 0.003-0.115v-0.048c-0.003-0.013-0.003-0.026-0.006-0.058zM28.8 17.389v0c-0.010 0.387-0.067 1.12-0.157 2.013-0.134 1.341-0.339 3.050-0.547 4.611-0.208 1.558-0.419 2.976-0.566 3.702-0.058 0.294-0.122 0.538-0.195 0.723-0.054 0.141-0.112 0.25-0.17 0.33-0.090 0.122-0.17 0.186-0.301 0.246-0.128 0.061-0.326 0.106-0.624 0.106-1.146 0-8.944 0-10.576 0l-7.677-9.45c0.077-0.045 0.16-0.090 0.246-0.134 0.234-0.122 0.499-0.24 0.762-0.323s0.525-0.134 0.742-0.134c0.15 0 0.278 0.022 0.387 0.061 0.112 0.042 0.205 0.096 0.298 0.192 0.477 0.477 1.008 0.995 1.475 1.453 0.234 0.23 0.448 0.445 0.63 0.627 0.182 0.186 0.333 0.342 0.426 0.448 0.589 0.672 1.354 0.992 2.064 0.989 0.586 0 1.133-0.205 1.552-0.563 0.422-0.349 0.71-0.883 0.71-1.485 0-0.278 0-14.15 0-15.36 0-0.15 0.029-0.259 0.074-0.349 0.064-0.134 0.17-0.237 0.326-0.32 0.154-0.080 0.355-0.131 0.56-0.128 0.275 0 0.538 0.086 0.701 0.221 0.083 0.067 0.144 0.141 0.186 0.23 0.045 0.086 0.074 0.195 0.074 0.346 0 0.95 0 6.493 0 9.28 0 1.114 0 0.861 0 1.6h1.28c0 0 0-0.637 0-1.6 0-0.15 0.029-0.259 0.074-0.349 0.064-0.134 0.17-0.237 0.326-0.32 0.154-0.080 0.355-0.131 0.56-0.128 0.275 0 0.538 0.086 0.701 0.221 0.083 0.067 0.144 0.141 0.186 0.23 0.045 0.086 0.074 0.195 0.074 0.346 0 0.47 0 0.909 0 1.28v1.062h1.28c0 0 0-0.426 0-1.062 0-0.15 0.029-0.256 0.074-0.349 0.067-0.134 0.173-0.24 0.333-0.326 0.157-0.083 0.362-0.131 0.566-0.131 0.272 0 0.531 0.086 0.691 0.218 0.080 0.067 0.141 0.138 0.186 0.23 0.042 0.093 0.070 0.205 0.070 0.358v1.722h1.28v-0.442c0-0.131 0.026-0.221 0.070-0.304 0.064-0.122 0.176-0.23 0.342-0.314s0.381-0.134 0.592-0.131c0.272 0 0.528 0.083 0.675 0.205 0.077 0.061 0.131 0.128 0.173 0.211 0.038 0.083 0.074 0.198 0.074 0.346 0-0.003-0.006 0.045-0.006 0.096z" fill="#000000"></path>
</svg>
