<?xml version="1.0" encoding="utf-8"?>
<!-- Generated by IcoMoon.io -->
<!DOCTYPE svg PUBLIC "-//W3C//DTD SVG 1.1//EN" "http://www.w3.org/Graphics/SVG/1.1/DTD/svg11.dtd">
<svg version="1.1" xmlns="http://www.w3.org/2000/svg" xmlns:xlink="http://www.w3.org/1999/xlink" width="32" height="32" viewBox="0 0 32 32">
<g id="icomoon-ignore">
	<line stroke-width="1" x1="" y1="" x2="" y2="" stroke="#449FDB" opacity=""></line>
</g>
	<path d="M10.874 15.674c0 1.414-1.146 2.56-2.56 2.56s-2.56-1.146-2.56-2.56c0-1.414 1.146-2.56 2.56-2.56s2.56 1.146 2.56 2.56z" opacity="1" visibility="false" fill="#000000"></path>
	<path d="M15.994 12.474c0 1.414-1.146 2.56-2.56 2.56s-2.56-1.146-2.56-2.56c0-1.414 1.146-2.56 2.56-2.56s2.56 1.146 2.56 2.56z" opacity="1" visibility="false" fill="#000000"></path>
	<path d="M21.754 13.114c0 1.414-1.146 2.56-2.56 2.56s-2.56-1.146-2.56-2.56c0-1.414 1.146-2.56 2.56-2.56s2.56 1.146 2.56 2.56z" opacity="1" visibility="false" fill="#000000"></path>
	<path d="M25.594 18.234c0 1.414-1.146 2.56-2.56 2.56s-2.56-1.146-2.56-2.56c0-1.414 1.146-2.56 2.56-2.56s2.56 1.146 2.56 2.56z" opacity="1" visibility="false" fill="#000000"></path>
	<path d="M14.714 22.074c0 1.414-1.146 2.56-2.56 2.56s-2.56-1.146-2.56-2.56c0-1.414 1.146-2.56 2.56-2.56s2.56 1.146 2.56 2.56z" opacity="1" visibility="false" fill="#000000"></path>
	<path d="M11.61 6.285c0.224-0.246 0.56-0.624 0.835-0.925l0.285 3.997c0.227-0.051 0.461-0.080 0.704-0.080 0.086 0 0.17 0.006 0.253 0.013l-0.282-3.962c0.301 0.272 0.666 0.602 0.909 0.819 0.474 0.429 1.35-0.067 1.35-0.067l-2.838-2.566-2.566 2.842c0-0.003 0.922 0.4 1.35-0.070z" opacity="1" visibility="false" fill="#000000"></path>
	<path d="M21.504 8.515c0.326-0.026 0.816-0.064 1.219-0.096l-1.789 2.013c0.269 0.176 0.512 0.39 0.717 0.637l1.814-2.038c0.032 0.406 0.074 0.912 0.099 1.242 0.051 0.637 1.030 0.877 1.030 0.877l-0.304-3.818-3.814 0.304c0 0.003 0.394 0.931 1.027 0.88z" opacity="1" visibility="false" fill="#000000"></path>
	<path d="M26.019 14.541c0 0-0.154 0.995 0.416 1.286 0.291 0.147 0.73 0.374 1.091 0.557l-1.6 0.48c0.138 0.285 0.23 0.595 0.275 0.918l1.635-0.49c-0.186 0.365-0.416 0.813-0.57 1.11-0.288 0.57 0.416 1.286 0.416 1.286l1.747-3.408-3.411-1.741z" opacity="1" visibility="false" fill="#000000"></path>
	<path d="M10.861 26.813c-0.314 0.086-0.79 0.214-1.181 0.32l1.261-2.102c-0.301-0.125-0.576-0.291-0.822-0.493l-1.28 2.131c-0.106-0.394-0.24-0.883-0.326-1.203-0.17-0.614-1.174-0.672-1.174-0.672l1.005 3.693 3.693-1.005c-0.003 0-0.56-0.838-1.174-0.669z" opacity="1" visibility="false" fill="#000000"></path>
	<path d="M6.269 13.213l-2.013-1.789c0.403-0.016 0.896-0.035 1.222-0.048 0.637-0.026 0.918-0.992 0.918-0.992l-3.824 0.147 0.147 3.824c0 0 0.944-0.355 0.918-0.992-0.013-0.333-0.032-0.838-0.048-1.245l2.042 1.814c0.176-0.272 0.39-0.512 0.637-0.72z" opacity="1" visibility="false" fill="#000000"></path>
</svg>
