<?xml version="1.0" encoding="utf-8"?>
<!-- Generated by IcoMoon.io -->
<!DOCTYPE svg PUBLIC "-//W3C//DTD SVG 1.1//EN" "http://www.w3.org/Graphics/SVG/1.1/DTD/svg11.dtd">
<svg version="1.1" xmlns="http://www.w3.org/2000/svg" xmlns:xlink="http://www.w3.org/1999/xlink" width="32" height="32" viewBox="0 0 32 32">
<g>
	<line stroke-width="1" x1="" y1="" x2="" y2="" stroke="#449FDB" opacity=""></line>
</g>
	<path d="M30.080 10.56v0c0.003-1.661-1.818-2.406-3.213-1.821 0-0.925-0.003-1.85-0.003-2.774 0-0.547-0.003-1.085-0.317-1.562-0.614-0.938-1.91-1.082-2.867-0.634 0-1.229-0.906-2.118-2.131-2.17-1.174-0.048-2.272 0.726-2.342 1.949-0.826-0.342-1.856-0.23-2.538 0.368-0.486 0.432-0.669 1.021-0.669 1.651 0 0.579 0 12.093 0 14.083 0 0.525 0.157 1.382-0.326 1.725-0.726 0.515-1.434-0.026-1.933-0.55-0.602-0.637-1.238-1.238-1.862-1.853-0.467-0.461-0.886-0.941-1.549-1.101-0.694-0.166-1.424-0.003-2.074 0.253-0.787 0.314-1.459 0.784-2.131 1.286l8.931 10.989c2.493 0 4.982 0 7.475 0 1.101 0 2.202 0 3.302 0 0.557 0 1.117 0.006 1.632-0.246 0.845-0.416 1.152-1.325 1.325-2.189 0.333-1.645 0.525-3.328 0.736-4.992 0.221-1.766 0.467-3.549 0.55-5.328 0.061-1.382 0.003-6.109 0.003-7.085zM28.8 16.838c-0.003 1.734-0.243 3.472-0.451 5.19-0.23 1.894-0.445 3.811-0.816 5.683v0c-0.070 0.355-0.15 0.755-0.365 1.056-0.218 0.301-0.582 0.352-0.928 0.352-0.269 0-0.541 0-0.81 0-1.024 0-9.683 0-9.766 0l-7.677-9.45c0.448-0.256 0.938-0.483 1.45-0.566 0.608-0.096 0.906 0.144 1.315 0.55 0.736 0.73 1.52 1.43 2.208 2.208v0c1.075 1.229 3.315 1.427 4.125-0.224 0.285-0.579 0.195-1.318 0.195-1.949 0-1.978 0-10.198 0-12.333 0-0.592 0-1.181 0-1.77 0-0.627 0.419-0.992 1.062-0.941 0.365 0.029 0.752 0.214 0.838 0.598 0.064 0.291 0.019 0.637 0.019 0.934 0 3.382 0 6.762 0 10.144h1.28c0-3.389 0-6.781 0-10.17 0-0.237 0-0.474 0-0.71 0-0.416 0-0.832 0-1.248 0-0.272-0.048-0.611 0.074-0.861 0.342-0.701 1.754-0.586 1.84 0.243 0.074 0.698 0.006 1.437 0.006 2.134 0 1.632 0 9.203 0 11.354h1.28c0-1.731 0-7.99 0-9.392 0-0.611 0-1.222 0-1.83 0-0.39 0.122-0.694 0.48-0.886 0.346-0.186 0.89-0.243 1.21 0.032 0.304 0.259 0.214 0.877 0.218 1.242 0 0.746 0.003 1.491 0.003 2.234 0 2.038 0.010 8.214 0.010 9.261h1.28c0-1.53 0-3.062 0-4.592 0-0.781 0-1.562 0-2.342 0-0.275-0.003-0.538 0.237-0.733 0.534-0.438 1.683-0.317 1.683 0.522 0 2.083 0.003 4.173 0 6.259 0 0.166 0-0.326 0 0z" fill="#000000"></path>
</svg>
