<?xml version="1.0" encoding="utf-8"?>
<!-- Generated by IcoMoon.io -->
<!DOCTYPE svg PUBLIC "-//W3C//DTD SVG 1.1//EN" "http://www.w3.org/Graphics/SVG/1.1/DTD/svg11.dtd">
<svg version="1.1" xmlns="http://www.w3.org/2000/svg" xmlns:xlink="http://www.w3.org/1999/xlink" width="32" height="32" viewBox="0 0 32 32">
<g>
	<line stroke-width="1" x1="" y1="" x2="" y2="" stroke="#449FDB" opacity=""></line>
</g>
	<path d="M15.36 30.4c0 0 0.602 0 1.52 0 2.762 0 8.4 0 9.36 0 0.374 0 0.717-0.048 1.027-0.163 0.234-0.086 0.448-0.214 0.627-0.371 0.272-0.24 0.461-0.541 0.595-0.858 0.134-0.32 0.224-0.666 0.298-1.043v0c0.106-0.528 0.234-1.331 0.371-2.278 0.205-1.418 0.426-3.152 0.602-4.694 0.086-0.771 0.163-1.494 0.221-2.109 0.054-0.614 0.093-1.117 0.099-1.466v0c0-0.054 0.003-0.090 0.003-0.115v-0.048c0-0.013 0-0.022-0.006-0.058-0.010-0.291-0.074-0.566-0.192-0.81-0.192-0.4-0.515-0.694-0.87-0.874-0.355-0.182-0.742-0.262-1.13-0.262-0.365 0-0.73 0.077-1.069 0.23-0.032-0.134-0.077-0.266-0.138-0.384-0.195-0.406-0.522-0.704-0.88-0.89s-0.755-0.272-1.146-0.272c-0.33 0-0.662 0.067-0.973 0.198 0-3.667 0-9.578 0-10.451 0-0.33-0.070-0.64-0.202-0.909-0.198-0.406-0.525-0.707-0.883-0.896-0.362-0.192-0.758-0.278-1.155-0.278-0.525 0-1.062 0.154-1.501 0.499-0.218 0.173-0.406 0.4-0.538 0.669-0.115 0.234-0.179 0.502-0.195 0.781-0.31-0.128-0.637-0.192-0.966-0.192-0.525 0-1.062 0.154-1.501 0.499-0.218 0.173-0.406 0.4-0.538 0.669-0.131 0.275-0.202 0.586-0.202 0.915 0 0.704 0 6.15 0 10.56h-2.336l-2.854 6.422 4.163 7.978h0.387zM14.496 17.28h1.504c0 2.544 0 4.48 0 4.48v0.64h1.28v-0.64c0 0 0-15.11 0-16.32 0-0.15 0.029-0.259 0.074-0.349 0.064-0.134 0.17-0.237 0.326-0.32 0.154-0.080 0.355-0.131 0.56-0.128 0.275 0 0.538 0.086 0.701 0.221 0.083 0.067 0.144 0.141 0.186 0.23 0.045 0.086 0.074 0.195 0.074 0.346 0 3.389 0 10.294 0 10.88h1.28c0 0 0-9.6 0-10.88 0-0.883 0-1.53 0-1.76 0-0.15 0.029-0.259 0.074-0.349 0.064-0.134 0.17-0.237 0.326-0.32 0.154-0.083 0.355-0.131 0.56-0.131 0.275 0 0.538 0.086 0.701 0.221 0.083 0.067 0.144 0.141 0.186 0.23 0.045 0.090 0.074 0.198 0.074 0.349 0 1.046 0 9.344 0 12.32v1.062h1.28c0 0 0-0.403 0-1.062 0-0.144 0.029-0.25 0.074-0.336 0.064-0.128 0.173-0.234 0.33-0.317s0.365-0.131 0.57-0.131c0.275 0 0.534 0.086 0.694 0.214 0.080 0.064 0.141 0.138 0.182 0.224s0.070 0.195 0.070 0.346v1.722h1.28v-0.442c0-0.131 0.026-0.221 0.070-0.304 0.064-0.122 0.176-0.23 0.342-0.314s0.381-0.134 0.592-0.131c0.272 0 0.528 0.083 0.675 0.205 0.077 0.061 0.131 0.128 0.173 0.211 0.038 0.080 0.067 0.186 0.067 0.333v0.016c0 0 0 0.038 0 0.090v0c-0.010 0.387-0.067 1.123-0.157 2.013-0.134 1.341-0.339 3.050-0.547 4.611-0.208 1.558-0.419 2.976-0.566 3.702v0c-0.058 0.294-0.122 0.538-0.195 0.726-0.054 0.141-0.112 0.25-0.17 0.33-0.090 0.122-0.17 0.186-0.301 0.246-0.128 0.061-0.326 0.106-0.624 0.106-1.126 0-8.688 0-10.493 0l-3.517-6.742 2.266-5.098z" fill="#000000"></path>
</svg>
