<?xml version="1.0" encoding="utf-8"?>
<!-- Generated by IcoMoon.io -->
<!DOCTYPE svg PUBLIC "-//W3C//DTD SVG 1.1//EN" "http://www.w3.org/Graphics/SVG/1.1/DTD/svg11.dtd">
<svg version="1.1" xmlns="http://www.w3.org/2000/svg" xmlns:xlink="http://www.w3.org/1999/xlink" width="32" height="32" viewBox="0 0 32 32">
<g id="icomoon-ignore">
	<line stroke-width="1" x1="" y1="" x2="" y2="" stroke="#449FDB" opacity=""></line>
</g>
	<path d="M30.077 17.197c-0.058-1.616-1.917-2.317-3.261-1.715-0.339-1.37-2.013-1.859-3.21-1.315-0.349-1.315-1.946-1.824-3.126-1.338 0-2.086 0-4.17 0-6.256 0-0.838 0.109-1.786-0.486-2.467-0.371-0.426-0.909-0.666-1.466-0.723-1.136-0.115-2.339 0.547-2.509 1.747-0.064 0.458-0.022 0.934-0.022 1.395 0 0.544 0 1.085 0 1.629 0 1.056 0 2.112 0 3.165 0 0.97 0 1.942 0 2.912 0 0.464 0 0.928 0 1.392 0 0.275 0.093 0.381-0.166 0.381-0.723 0-1.446 0-2.17 0l-2.854 6.422 4.166 7.974c2.125 0 4.246 0 6.371 0 1.050 0 2.102 0 3.152 0 0.496 0 0.995 0 1.491 0 0.493 0 1.002-0.019 1.456-0.237 0.678-0.326 1.043-1.018 1.238-1.718 0.262-0.947 0.397-1.939 0.528-2.912 0.282-2.048 0.525-4.109 0.726-6.166 0.074-0.755 0.189-1.533 0.138-2.291 0 0.042-0.003 0.083 0.003 0.122-0.061-1.642 0.003 0.032 0 0zM28.8 17.299c0 0.010 0 0.038 0 0.090v0c-0.038 1.757-0.31 3.494-0.525 5.235-0.211 1.702-0.41 3.408-0.746 5.091-0.077 0.381-0.15 0.838-0.429 1.133-0.307 0.323-0.806 0.272-1.213 0.272-1.030 0-2.058 0-3.088 0-2.106 0-4.214 0-6.323 0-0.112 0-0.694 0.067-0.739-0.022-0.032-0.064-0.067-0.125-0.099-0.189-0.141-0.269-0.282-0.541-0.422-0.81-0.451-0.867-0.906-1.734-1.357-2.602-0.541-1.040-1.085-2.077-1.626-3.117l2.262-5.101h1.504c0 1.456 0 2.915 0 4.371 0 0.106-0.038 0.749 0.035 0.749 0.138 0 0.275 0 0.416 0 0.275 0 0.554 0 0.829 0 0-4.224 0-8.451 0-12.675 0-1.062 0-2.125 0-3.19 0-0.682-0.202-1.69 0.675-1.882 0.483-0.106 1.136 0.106 1.232 0.653 0.077 0.442 0.013 0.947 0.013 1.395 0 0.547 0 1.098 0 1.645 0 1.939 0 3.878 0 5.821 0 0.464 0 0.928 0 1.392 0 0.253 0 0.506 0 0.758 0.019 0.016 0.112 0 0.134 0 0.381 0 0.765 0 1.146 0 0-0.493 0-0.986 0-1.475 0-0.323 0.096-0.634 0.4-0.794 0.336-0.176 0.778-0.179 1.114-0.006 0.339 0.176 0.406 0.499 0.41 0.851 0 0.451 0 0.906 0 1.357 0 0.23 0 0.464 0 0.694 0 0.144-0.016 0.115 0.096 0.115 0.397 0 0.79 0 1.184 0 0-0.621-0.202-1.51 0.534-1.776 0.458-0.166 1.174-0.080 1.347 0.451 0.128 0.397 0.038 0.861 0.038 1.27 0 0.237 0 0.477 0 0.714 0.019 0.013 0.112 0 0.134 0 0.381 0 0.765 0 1.146 0 0-0.282-0.029-0.605 0.147-0.842 0.16-0.221 0.454-0.317 0.717-0.342 0.506-0.048 1.043 0.192 1.053 0.765v0z" fill="#000000"></path>
</svg>
