<?xml version="1.0" encoding="utf-8"?>
<!-- Generated by IcoMoon.io -->
<!DOCTYPE svg PUBLIC "-//W3C//DTD SVG 1.1//EN" "http://www.w3.org/Graphics/SVG/1.1/DTD/svg11.dtd">
<svg version="1.1" xmlns="http://www.w3.org/2000/svg" xmlns:xlink="http://www.w3.org/1999/xlink" width="32" height="32" viewBox="0 0 32 32">
<g id="icomoon-ignore">
	<line stroke-width="1" x1="" y1="" x2="" y2="" stroke="#449FDB" opacity=""></line>
</g>
	<path d="M21.76 20.8h-11.52c-0.352 0-0.64 0.288-0.64 0.64v8.32c0 0.352 0.288 0.64 0.64 0.64h11.52c0.352 0 0.64-0.288 0.64-0.64v-8.32c0-0.352-0.288-0.64-0.64-0.64z" fill="#000000"></path>
	<path d="M7.008 18.518c0 0.262-0.218 0.48-0.48 0.48h-3.328c-0.262 0-0.48-0.218-0.48-0.48h-0.32v0.362c0 0.442 0.358 0.8 0.8 0.8h3.328c0.442 0 0.8-0.358 0.8-0.8v-0.362h-0.32z" fill="#000000"></path>
	<path d="M29.28 18.518c0 0.262-0.218 0.48-0.48 0.48h-3.328c-0.262 0-0.48-0.218-0.48-0.48h-0.32v0.362c0 0.442 0.358 0.8 0.8 0.8h3.328c0.442 0 0.8-0.358 0.8-0.8v-0.362h-0.32z" fill="#000000"></path>
	<path d="M23.904 18.518c0 0.262-0.218 0.48-0.48 0.48h-14.848c-0.262 0-0.48-0.218-0.48-0.48h-0.32v0.362c0 0.442 0.358 0.8 0.8 0.8h14.848c0.442 0 0.8-0.358 0.8-0.8v-0.362h-0.32z" fill="#000000"></path>
	<path d="M3.2 16.778h1.024c0.442 0 0.8-0.358 0.8-0.8v-0.362h-0.32c0 0.262-0.218 0.48-0.48 0.48h-1.024c-0.262 0-0.48-0.218-0.48-0.48h-0.32v0.362c0 0.442 0.358 0.8 0.8 0.8z" fill="#000000"></path>
	<path d="M7.296 16.096h-1.024c-0.262 0-0.48-0.218-0.48-0.48h-0.32v0.362c0 0.442 0.358 0.8 0.8 0.8h1.024c0.442 0 0.8-0.358 0.8-0.8v-0.362h-0.32c0 0.262-0.218 0.48-0.48 0.48z" fill="#000000"></path>
	<path d="M9.344 16.778h1.024c0.442 0 0.8-0.358 0.8-0.8v-0.362h-0.32c0 0.262-0.218 0.48-0.48 0.48h-1.024c-0.262 0-0.48-0.218-0.48-0.48h-0.32v0.362c0 0.442 0.358 0.8 0.8 0.8z" fill="#000000"></path>
	<path d="M12.416 16.778h1.024c0.442 0 0.8-0.358 0.8-0.8v-0.362h-0.32c0 0.262-0.218 0.48-0.48 0.48h-1.024c-0.262 0-0.48-0.218-0.48-0.48h-0.32v0.362c0 0.442 0.358 0.8 0.8 0.8z" fill="#000000"></path>
	<path d="M15.488 16.778h1.024c0.442 0 0.8-0.358 0.8-0.8v-0.362h-0.32c0 0.262-0.218 0.48-0.48 0.48h-1.024c-0.262 0-0.48-0.218-0.48-0.48h-0.32v0.362c0 0.442 0.358 0.8 0.8 0.8z" fill="#000000"></path>
	<path d="M18.56 16.778h1.024c0.442 0 0.8-0.358 0.8-0.8v-0.362h-0.32c0 0.262-0.218 0.48-0.48 0.48h-1.024c-0.262 0-0.48-0.218-0.48-0.48h-0.32v0.362c0 0.442 0.358 0.8 0.8 0.8z" fill="#000000"></path>
	<path d="M21.632 16.778h1.024c0.442 0 0.8-0.358 0.8-0.8v-0.362h-0.32c0 0.262-0.218 0.48-0.48 0.48h-1.024c-0.262 0-0.48-0.218-0.48-0.48h-0.32v0.362c0 0.442 0.358 0.8 0.8 0.8z" fill="#000000"></path>
	<path d="M24.224 15.616h-0.32v0.362c0 0.442 0.358 0.8 0.8 0.8h1.024c0.442 0 0.8-0.358 0.8-0.8v-0.362h-0.32c0 0.262-0.218 0.48-0.48 0.48h-1.024c-0.262 0-0.48-0.218-0.48-0.48z" fill="#000000"></path>
	<path d="M29.28 15.616c0 0.262-0.218 0.48-0.48 0.48h-1.024c-0.262 0-0.48-0.218-0.48-0.48h-0.32v0.362c0 0.442 0.358 0.8 0.8 0.8h1.024c0.442 0 0.8-0.358 0.8-0.8v-0.362h-0.32z" fill="#000000"></path>
	<path d="M3.2 10.976h1.024c0.442 0 0.8-0.358 0.8-0.8v-0.362h-0.32c0 0.262-0.218 0.48-0.48 0.48h-1.024c-0.262 0-0.48-0.218-0.48-0.48h-0.32v0.362c0 0.442 0.358 0.8 0.8 0.8z" fill="#000000"></path>
	<path d="M6.272 10.976h1.024c0.442 0 0.8-0.358 0.8-0.8v-0.362h-0.32c0 0.262-0.218 0.48-0.48 0.48h-1.024c-0.262 0-0.48-0.218-0.48-0.48h-0.32v0.362c0 0.442 0.358 0.8 0.8 0.8z" fill="#000000"></path>
	<path d="M9.344 10.976h1.024c0.442 0 0.8-0.358 0.8-0.8v-0.362h-0.32c0 0.262-0.218 0.48-0.48 0.48h-1.024c-0.262 0-0.48-0.218-0.48-0.48h-0.32v0.362c0 0.442 0.358 0.8 0.8 0.8z" fill="#000000"></path>
	<path d="M12.416 10.976h1.024c0.442 0 0.8-0.358 0.8-0.8v-0.362h-0.32c0 0.262-0.218 0.48-0.48 0.48h-1.024c-0.262 0-0.48-0.218-0.48-0.48h-0.32v0.362c0 0.442 0.358 0.8 0.8 0.8z" fill="#000000"></path>
	<path d="M15.488 10.976h1.024c0.442 0 0.8-0.358 0.8-0.8v-0.362h-0.32c0 0.262-0.218 0.48-0.48 0.48h-1.024c-0.262 0-0.48-0.218-0.48-0.48h-0.32v0.362c0 0.442 0.358 0.8 0.8 0.8z" fill="#000000"></path>
	<path d="M18.56 10.976h1.024c0.442 0 0.8-0.358 0.8-0.8v-0.362h-0.32c0 0.262-0.218 0.48-0.48 0.48h-1.024c-0.262 0-0.48-0.218-0.48-0.48h-0.32v0.362c0 0.442 0.358 0.8 0.8 0.8z" fill="#000000"></path>
	<path d="M21.632 10.976h1.024c0.442 0 0.8-0.358 0.8-0.8v-0.362h-0.32c0 0.262-0.218 0.48-0.48 0.48h-1.024c-0.262 0-0.48-0.218-0.48-0.48h-0.32v0.362c0 0.442 0.358 0.8 0.8 0.8z" fill="#000000"></path>
	<path d="M24.704 10.976h1.024c0.442 0 0.8-0.358 0.8-0.8v-0.362h-0.32c0 0.262-0.218 0.48-0.48 0.48h-1.024c-0.262 0-0.48-0.218-0.48-0.48h-0.32v0.362c0 0.442 0.358 0.8 0.8 0.8z" fill="#000000"></path>
	<path d="M29.28 9.814c0 0.262-0.218 0.48-0.48 0.48h-1.024c-0.262 0-0.48-0.218-0.48-0.48h-0.32v0.362c0 0.442 0.358 0.8 0.8 0.8h1.024c0.442 0 0.8-0.358 0.8-0.8v-0.362h-0.32z" fill="#000000"></path>
	<path d="M3.2 13.878h2.56c0.442 0 0.8-0.358 0.8-0.8v-0.362h-0.32c0 0.262-0.218 0.48-0.48 0.48h-2.56c-0.262 0-0.48-0.218-0.48-0.48h-0.32v0.362c0 0.442 0.358 0.8 0.8 0.8z" fill="#000000"></path>
	<path d="M9.632 13.078v-0.362h-0.32c0 0.262-0.218 0.48-0.48 0.48h-1.024c-0.262 0-0.48-0.218-0.48-0.48h-0.32v0.362c0 0.442 0.358 0.8 0.8 0.8h1.024c0.442 0 0.8-0.358 0.8-0.8z" fill="#000000"></path>
	<path d="M12.704 13.078v-0.362h-0.32c0 0.262-0.218 0.48-0.48 0.48h-1.024c-0.262 0-0.48-0.218-0.48-0.48h-0.32v0.362c0 0.442 0.358 0.8 0.8 0.8h1.024c0.442 0 0.8-0.358 0.8-0.8z" fill="#000000"></path>
	<path d="M15.776 13.078v-0.362h-0.32c0 0.262-0.218 0.48-0.48 0.48h-1.024c-0.262 0-0.48-0.218-0.48-0.48h-0.32v0.362c0 0.442 0.358 0.8 0.8 0.8h1.024c0.442 0 0.8-0.358 0.8-0.8z" fill="#000000"></path>
	<path d="M18.848 13.078v-0.362h-0.32c0 0.262-0.218 0.48-0.48 0.48h-1.024c-0.262 0-0.48-0.218-0.48-0.48h-0.32v0.362c0 0.442 0.358 0.8 0.8 0.8h1.024c0.442 0 0.8-0.358 0.8-0.8z" fill="#000000"></path>
	<path d="M21.92 13.078v-0.362h-0.32c0 0.262-0.218 0.48-0.48 0.48h-1.024c-0.262 0-0.48-0.218-0.48-0.48h-0.32v0.362c0 0.442 0.358 0.8 0.8 0.8h1.024c0.442 0 0.8-0.358 0.8-0.8z" fill="#000000"></path>
	<path d="M24.672 12.714c0 0.262-0.218 0.48-0.48 0.48h-1.024c-0.262 0-0.48-0.218-0.48-0.48h-0.32v0.362c0 0.442 0.358 0.8 0.8 0.8h1.024c0.442 0 0.8-0.358 0.8-0.8v-0.362h-0.32z" fill="#000000"></path>
	<path d="M29.28 12.714c0 0.262-0.218 0.48-0.48 0.48h-2.56c-0.262 0-0.48-0.218-0.48-0.48h-0.32v0.362c0 0.442 0.358 0.8 0.8 0.8h2.56c0.442 0 0.8-0.358 0.8-0.8v-0.362h-0.32z" fill="#000000"></path>
</svg>
