<?xml version="1.0" encoding="utf-8"?>
<!-- Generated by IcoMoon.io -->
<!DOCTYPE svg PUBLIC "-//W3C//DTD SVG 1.1//EN" "http://www.w3.org/Graphics/SVG/1.1/DTD/svg11.dtd">
<svg version="1.1" xmlns="http://www.w3.org/2000/svg" xmlns:xlink="http://www.w3.org/1999/xlink" width="256" height="256" viewBox="0 0 256 256">
<g id="icomoon-ignore">
	<line stroke-width="1" x1="" y1="" x2="" y2="" stroke="#449FDB" opacity=""></line>
</g>
	<path d="M230.4 178.893v-144h-204.8v112.947c0.794-0.154 1.613-0.256 2.457-0.256h33.28c7.066 0.025 12.775 5.734 12.8 12.8v18.509h156.262z" fill="#000000"></path>
	<path d="M235.52 13.722h-215.040c-8.473 0.025-15.335 6.886-15.36 15.36v155.341c0 3.865 1.152 7.45 3.277 10.317 1.075 1.434 2.406 2.662 4.019 3.584 0.896 0.512 1.895 0.896 2.944 1.152v-170.393c0-1.408 0.563-2.663 1.511-3.61s2.201-1.511 3.61-1.511h215.040c1.408 0 2.662 0.563 3.609 1.511s1.511 2.201 1.511 3.61v155.341c0 1.408-0.563 2.662-1.511 3.609s-2.202 1.511-3.609 1.511h-161.28v10.24h48.793v20.787h-46.285v10.24h102.835v-10.24h-46.31v-20.787h102.246c8.474-0.025 15.334-6.887 15.36-15.36v-155.341c-0.025-8.474-6.887-15.335-15.36-15.36z" fill="#000000"></path>
	<path d="M47.872 204.518c0 2.008-1.627 3.635-3.635 3.635s-3.635-1.627-3.635-3.635c0-2.008 1.627-3.635 3.635-3.635s3.635 1.627 3.635 3.635z" fill="#000000"></path>
	<path d="M47.872 176.666c0 2.008-1.627 3.635-3.635 3.635s-3.635-1.627-3.635-3.635c0-2.008 1.627-3.635 3.635-3.635s3.635 1.627 3.635 3.635z" fill="#000000"></path>
	<path d="M47.872 190.336c0 2.008-1.627 3.635-3.635 3.635s-3.635-1.627-3.635-3.635c0-2.008 1.627-3.635 3.635-3.635s3.635 1.627 3.635 3.635z" fill="#000000"></path>
	<path d="M60.391 157.798h-30.617c-1.050 0-1.997 0.435-2.713 1.126-0.717 0.717-1.127 1.664-1.127 2.714v74.24c0.026 3.533 2.841 6.375 6.4 6.4h25.497c3.559-0.025 6.374-2.867 6.4-6.4v-74.24c0-1.049-0.41-1.997-1.127-2.714s-1.639-1.126-2.714-1.126zM56.55 174.745v59.853h-22.938v-68.966h22.938v9.113z" fill="#000000"></path>
</svg>
