<?xml version="1.0" encoding="utf-8"?>
<!-- Generated by IcoMoon.io -->
<!DOCTYPE svg PUBLIC "-//W3C//DTD SVG 1.1//EN" "http://www.w3.org/Graphics/SVG/1.1/DTD/svg11.dtd">
<svg version="1.1" xmlns="http://www.w3.org/2000/svg" xmlns:xlink="http://www.w3.org/1999/xlink" width="32" height="32" viewBox="0 0 32 32">
<g>
	<line stroke-width="1" x1="" y1="" x2="" y2="" stroke="#449FDB" opacity=""></line>
</g>
	<path d="M22.72 10.24h-13.44c-0.528 0-0.96 0.432-0.96 0.96v9.6c0 0.528 0.432 0.96 0.96 0.96h13.44c0.528 0 0.96-0.432 0.96-0.96v-9.6c0-0.528-0.432-0.96-0.96-0.96zM22.4 20.48h-12.8v-8.96h12.8v8.96z" fill="#000000"></path>
	<path d="M15.040 18.95c0.17 0.154 0.394 0.25 0.64 0.25h0.64v-0.64h-0.64c-0.173 0-0.32-0.147-0.32-0.32v-4.48c0-0.173 0.147-0.32 0.32-0.32h0.64v-0.64h-0.64c-0.246 0-0.47 0.096-0.64 0.25-0.17-0.154-0.394-0.25-0.64-0.25h-0.64v0.64h0.64c0.173 0 0.32 0.147 0.32 0.32v4.48c0 0.173-0.147 0.32-0.32 0.32h-0.64v0.64h0.64c0.246 0 0.47-0.096 0.64-0.25v0z" fill="#000000"></path>
	<path d="M11.36 16.96c0.003 0.621 0.502 1.117 1.12 1.12h0.64v-0.96h-0.64c-0.086 0-0.16-0.074-0.16-0.16v-2.080h0.8v-0.96h-0.8v-0.8h-0.96v0.8h-0.8v0.96h0.8v2.080z" fill="#000000"></path>
</svg>
