<?xml version="1.0" encoding="utf-8"?>
<!-- Generated by IcoMoon.io -->
<!DOCTYPE svg PUBLIC "-//W3C//DTD SVG 1.1//EN" "http://www.w3.org/Graphics/SVG/1.1/DTD/svg11.dtd">
<svg version="1.1" xmlns="http://www.w3.org/2000/svg" xmlns:xlink="http://www.w3.org/1999/xlink" width="6" height="28" viewBox="0 0 6 28">
<g id="icomoon-ignore">
	<line stroke-width="1" x1="" y1="" x2="" y2="" stroke="#449FDB" opacity=""></line>
</g>
	<path d="M1.369 10.844v3.8c0 0.451 0.104 0.801 0.311 1.047s0.521 0.37 0.941 0.37c0.305 0 0.594-0.073 0.865-0.218s0.521-0.347 0.748-0.605v-4.393h1.047v5.956h-0.622c-0.148 0-0.244-0.073-0.283-0.218l-0.081-0.641c-0.258 0.286-0.549 0.515-0.871 0.692-0.322 0.174-0.689 0.263-1.106 0.263-0.325 0-0.613-0.053-0.862-0.162s-0.456-0.26-0.627-0.456c-0.168-0.196-0.294-0.434-0.378-0.711s-0.126-0.585-0.126-0.924v-3.797h1.044z" opacity="1" visibility="false" fill="#000000"></path>
</svg>
