<?xml version="1.0" encoding="utf-8"?>
<!-- Generator: Adobe Illustrator 16.0.0, SVG Export Plug-In . SVG Version: 6.00 Build 0)  -->
<!DOCTYPE svg PUBLIC "-//W3C//DTD SVG 1.1//EN" "http://www.w3.org/Graphics/SVG/1.1/DTD/svg11.dtd">
<svg version="1.1" id="Capa_1" xmlns="http://www.w3.org/2000/svg" xmlns:xlink="http://www.w3.org/1999/xlink" x="0px" y="0px"
	 width="6.375px" height="28px" viewBox="0 0 6.375 28" enable-background="new 0 0 6.375 28" xml:space="preserve">
<g id="icomoon-ignore">
	<line fill="none" stroke="#449FDB" x1="3.188" y1="0" x2="3.188" y2="0"/>
</g>
<path d="M1.753,10.844v3.801c0,0.45,0.104,0.801,0.311,1.047s0.521,0.369,0.941,0.369c0.305,0,0.594-0.072,0.865-0.218
	c0.271-0.145,0.521-0.347,0.749-0.604v-4.394h1.047v5.956H5.043c-0.146,0-0.244-0.072-0.283-0.218l-0.08-0.642
	c-0.258,0.287-0.549,0.516-0.871,0.692c-0.322,0.175-0.689,0.263-1.106,0.263c-0.325,0-0.613-0.053-0.862-0.162
	c-0.249-0.108-0.456-0.26-0.627-0.455c-0.168-0.196-0.294-0.435-0.378-0.711c-0.084-0.277-0.126-0.586-0.126-0.924v-3.797h1.044
	V10.844z"/>
</svg>
