<?xml version="1.0" encoding="utf-8"?>
<!-- Generator: Adobe Illustrator 16.0.0, SVG Export Plug-In . SVG Version: 6.00 Build 0)  -->
<!DOCTYPE svg PUBLIC "-//W3C//DTD SVG 1.1//EN" "http://www.w3.org/Graphics/SVG/1.1/DTD/svg11.dtd">
<svg version="1.1" id="Capa_1" xmlns="http://www.w3.org/2000/svg" xmlns:xlink="http://www.w3.org/1999/xlink" x="0px" y="0px"
	 width="6.5px" height="28px" viewBox="0 0 6.5 28" enable-background="new 0 0 6.5 28" xml:space="preserve">
<g id="icomoon-ignore">
	<line fill="none" stroke="#449FDB" x1="3.25" y1="0" x2="3.25" y2="0"/>
</g>
<path d="M0.347,10.844h0.86c0.081,0,0.151,0.022,0.204,0.064c0.056,0.042,0.095,0.095,0.118,0.154l1.512,3.833
	c0.056,0.141,0.098,0.283,0.129,0.424c0.031,0.14,0.062,0.279,0.09,0.416c0.031-0.137,0.064-0.276,0.101-0.416
	c0.037-0.141,0.081-0.283,0.134-0.424l1.529-3.835c0.022-0.062,0.062-0.115,0.115-0.157s0.118-0.062,0.196-0.062h0.818l-2.431,5.958
	H2.777l-2.428-5.956L0.347,10.844z"/>
</svg>
