<?xml version="1.0" encoding="utf-8"?>
<!-- Generated by IcoMoon.io -->
<!DOCTYPE svg PUBLIC "-//W3C//DTD SVG 1.1//EN" "http://www.w3.org/Graphics/SVG/1.1/DTD/svg11.dtd">
<svg version="1.1" xmlns="http://www.w3.org/2000/svg" xmlns:xlink="http://www.w3.org/1999/xlink" width="32" height="32" viewBox="0 0 32 32">
<g>
	<line stroke-width="1" x1="" y1="" x2="" y2="" stroke="#449FDB" opacity=""></line>
</g>
	<path d="M23.040 8.96h-14.080c-0.352 0-0.64 0.288-0.64 0.64v12.8c0 0.352 0.288 0.64 0.64 0.64h14.080c0.352 0 0.64-0.288 0.64-0.64v-12.8c0-0.352-0.288-0.64-0.64-0.64zM10.88 22.080c0 0.176-0.144 0.32-0.32 0.32h-1.28c-0.176 0-0.32-0.144-0.32-0.32v-0.64c0-0.176 0.144-0.32 0.32-0.32h1.28c0.176 0 0.32 0.144 0.32 0.32v0.64zM10.88 20.16c0 0.176-0.144 0.32-0.32 0.32h-1.28c-0.176 0-0.32-0.144-0.32-0.32v-0.64c0-0.176 0.144-0.32 0.32-0.32h1.28c0.176 0 0.32 0.144 0.32 0.32v0.64zM10.88 18.24c0 0.176-0.144 0.32-0.32 0.32h-1.28c-0.176 0-0.32-0.144-0.32-0.32v-0.64c0-0.176 0.144-0.32 0.32-0.32h1.28c0.176 0 0.32 0.144 0.32 0.32v0.64zM10.88 16.32c0 0.176-0.144 0.32-0.32 0.32h-1.28c-0.176 0-0.32-0.144-0.32-0.32v-0.64c0-0.176 0.144-0.32 0.32-0.32h1.28c0.176 0 0.32 0.144 0.32 0.32v0.64zM10.88 14.4c0 0.176-0.144 0.32-0.32 0.32h-1.28c-0.176 0-0.32-0.144-0.32-0.32v-0.64c0-0.176 0.144-0.32 0.32-0.32h1.28c0.176 0 0.32 0.144 0.32 0.32v0.64zM10.88 12.48c0 0.176-0.144 0.32-0.32 0.32h-1.28c-0.176 0-0.32-0.144-0.32-0.32v-0.64c0-0.176 0.144-0.32 0.32-0.32h1.28c0.176 0 0.32 0.144 0.32 0.32v0.64zM10.88 10.56c0 0.176-0.144 0.32-0.32 0.32h-1.28c-0.176 0-0.32-0.144-0.32-0.32v-0.64c0-0.176 0.144-0.32 0.32-0.32h1.28c0.176 0 0.32 0.144 0.32 0.32v0.64zM18.938 16.582l-5.232 2.355c-0.323 0.144-0.586-0.026-0.586-0.378v-4.48c0-0.352 0.262-0.522 0.582-0.378l5.232 2.355c0.323 0.144 0.323 0.381 0.003 0.525zM23.040 22.080c0 0.176-0.144 0.32-0.32 0.32h-1.28c-0.176 0-0.32-0.144-0.32-0.32v-0.64c0-0.176 0.144-0.32 0.32-0.32h1.28c0.176 0 0.32 0.144 0.32 0.32v0.64zM23.040 20.16c0 0.176-0.144 0.32-0.32 0.32h-1.28c-0.176 0-0.32-0.144-0.32-0.32v-0.64c0-0.176 0.144-0.32 0.32-0.32h1.28c0.176 0 0.32 0.144 0.32 0.32v0.64zM23.040 18.24c0 0.176-0.144 0.32-0.32 0.32h-1.28c-0.176 0-0.32-0.144-0.32-0.32v-0.64c0-0.176 0.144-0.32 0.32-0.32h1.28c0.176 0 0.32 0.144 0.32 0.32v0.64zM23.040 16.32c0 0.176-0.144 0.32-0.32 0.32h-1.28c-0.176 0-0.32-0.144-0.32-0.32v-0.64c0-0.176 0.144-0.32 0.32-0.32h1.28c0.176 0 0.32 0.144 0.32 0.32v0.64zM23.040 14.4c0 0.176-0.144 0.32-0.32 0.32h-1.28c-0.176 0-0.32-0.144-0.32-0.32v-0.64c0-0.176 0.144-0.32 0.32-0.32h1.28c0.176 0 0.32 0.144 0.32 0.32v0.64zM23.040 12.48c0 0.176-0.144 0.32-0.32 0.32h-1.28c-0.176 0-0.32-0.144-0.32-0.32v-0.64c0-0.176 0.144-0.32 0.32-0.32h1.28c0.176 0 0.32 0.144 0.32 0.32v0.64zM23.040 10.56c0 0.176-0.144 0.32-0.32 0.32h-1.28c-0.176 0-0.32-0.144-0.32-0.32v-0.64c0-0.176 0.144-0.32 0.32-0.32h1.28c0.176 0 0.32 0.144 0.32 0.32v0.64z" fill="#000000"></path>
</svg>
