<?xml version="1.0" encoding="utf-8"?>
<!-- Generated by IcoMoon.io -->
<!DOCTYPE svg PUBLIC "-//W3C//DTD SVG 1.1//EN" "http://www.w3.org/Graphics/SVG/1.1/DTD/svg11.dtd">
<svg version="1.1" xmlns="http://www.w3.org/2000/svg" xmlns:xlink="http://www.w3.org/1999/xlink" width="9" height="28" viewBox="0 0 9 28">
<g id="icomoon-ignore">
	<line stroke-width="1" x1="" y1="" x2="" y2="" stroke="#449FDB" opacity=""></line>
</g>
	<path d="M0 10.85h0.823c0.087 0 0.157 0.022 0.213 0.064s0.092 0.095 0.112 0.154l1.14 3.833c0.031 0.14 0.062 0.277 0.087 0.409 0.028 0.132 0.050 0.263 0.070 0.398 0.031-0.132 0.067-0.266 0.106-0.398s0.081-0.269 0.123-0.409l1.257-3.858c0.020-0.059 0.053-0.106 0.104-0.148 0.048-0.039 0.109-0.059 0.185-0.059h0.454c0.078 0 0.143 0.020 0.193 0.059s0.087 0.090 0.106 0.148l1.229 3.858c0.042 0.137 0.081 0.272 0.115 0.406s0.064 0.266 0.098 0.395c0.020-0.129 0.045-0.263 0.076-0.406 0.031-0.14 0.064-0.272 0.101-0.395l1.165-3.833c0.020-0.062 0.056-0.115 0.112-0.157s0.12-0.062 0.193-0.062h0.787l-1.929 5.956h-0.829c-0.101 0-0.174-0.067-0.213-0.199l-1.316-4.040c-0.031-0.090-0.056-0.182-0.076-0.274s-0.039-0.182-0.059-0.274c-0.020 0.090-0.039 0.182-0.059 0.277s-0.045 0.188-0.076 0.277l-1.336 4.035c-0.042 0.134-0.123 0.199-0.241 0.199h-0.787l-1.929-5.956z" opacity="1" visibility="false" fill="#000000"></path>
</svg>
