<?xml version="1.0" encoding="utf-8"?>
<!-- Generated by IcoMoon.io -->
<!DOCTYPE svg PUBLIC "-//W3C//DTD SVG 1.1//EN" "http://www.w3.org/Graphics/SVG/1.1/DTD/svg11.dtd">
<svg version="1.1" xmlns="http://www.w3.org/2000/svg" xmlns:xlink="http://www.w3.org/1999/xlink" width="10" height="32" viewBox="0 0 10 32">
<g id="icomoon-ignore">
	<line stroke-width="1" x1="" y1="" x2="" y2="" stroke="#449FDB" opacity=""></line>
</g>
	<path d="M0 12.4h0.941c0.099 0 0.179 0.026 0.243 0.074s0.106 0.109 0.128 0.176l1.302 4.381c0.035 0.16 0.070 0.317 0.099 0.467 0.032 0.15 0.058 0.301 0.080 0.454 0.035-0.15 0.077-0.304 0.122-0.454s0.093-0.307 0.141-0.467l1.437-4.41c0.022-0.067 0.061-0.122 0.118-0.17 0.054-0.045 0.125-0.067 0.211-0.067h0.518c0.090 0 0.163 0.022 0.221 0.067s0.099 0.102 0.122 0.17l1.405 4.41c0.048 0.157 0.093 0.31 0.131 0.464s0.074 0.304 0.112 0.451c0.022-0.147 0.051-0.301 0.086-0.464 0.035-0.16 0.074-0.31 0.115-0.451l1.331-4.381c0.022-0.070 0.064-0.131 0.128-0.179s0.138-0.070 0.221-0.070h0.899l-2.205 6.806h-0.947c-0.115 0-0.198-0.077-0.243-0.227l-1.504-4.618c-0.035-0.102-0.064-0.208-0.086-0.314s-0.045-0.208-0.067-0.314c-0.022 0.102-0.045 0.208-0.067 0.317s-0.051 0.214-0.086 0.317l-1.526 4.611c-0.048 0.154-0.141 0.227-0.275 0.227h-0.899l-2.205-6.806z" fill="#000000"></path>
</svg>
