<?xml version="1.0" encoding="utf-8"?>
<!-- Generator: Adobe Illustrator 16.0.0, SVG Export Plug-In . SVG Version: 6.00 Build 0)  -->
<!DOCTYPE svg PUBLIC "-//W3C//DTD SVG 1.1//EN" "http://www.w3.org/Graphics/SVG/1.1/DTD/svg11.dtd">
<svg version="1.1" id="Capa_1" xmlns="http://www.w3.org/2000/svg" xmlns:xlink="http://www.w3.org/1999/xlink" x="0px" y="0px"
	 width="9.625px" height="28px" viewBox="0 0 9.625 28" enable-background="new 0 0 9.625 28" xml:space="preserve">
<g id="icomoon-ignore">
	<line fill="none" stroke="#449FDB" x1="4.812" y1="0" x2="4.812" y2="0"/>
</g>
<path d="M0.388,10.85h0.823c0.087,0,0.157,0.022,0.213,0.064c0.056,0.042,0.092,0.095,0.112,0.154l1.14,3.833
	c0.031,0.141,0.062,0.277,0.087,0.41c0.028,0.131,0.05,0.263,0.07,0.397c0.031-0.132,0.067-0.267,0.106-0.397
	c0.039-0.133,0.081-0.27,0.123-0.41l1.257-3.857c0.02-0.059,0.053-0.106,0.104-0.148c0.048-0.039,0.109-0.059,0.185-0.059h0.454
	c0.078,0,0.143,0.02,0.193,0.059c0.049,0.039,0.086,0.09,0.105,0.148L6.59,14.9c0.043,0.138,0.082,0.272,0.115,0.406
	c0.035,0.135,0.064,0.267,0.098,0.396c0.021-0.129,0.045-0.263,0.076-0.406c0.031-0.14,0.064-0.272,0.102-0.396l1.164-3.833
	c0.021-0.062,0.057-0.115,0.113-0.157c0.055-0.042,0.119-0.062,0.193-0.062h0.787l-1.93,5.956h-0.83c-0.1,0-0.174-0.066-0.213-0.199
	l-1.315-4.04c-0.031-0.09-0.056-0.182-0.076-0.274s-0.039-0.182-0.059-0.274c-0.02,0.09-0.039,0.182-0.059,0.277
	c-0.02,0.095-0.045,0.188-0.076,0.277l-1.336,4.035c-0.042,0.134-0.123,0.199-0.241,0.199H2.316L0.388,10.85L0.388,10.85z"/>
</svg>
