<?xml version="1.0" encoding="utf-8"?>
<!-- Generated by IcoMoon.io -->
<!DOCTYPE svg PUBLIC "-//W3C//DTD SVG 1.1//EN" "http://www.w3.org/Graphics/SVG/1.1/DTD/svg11.dtd">
<svg version="1.1" xmlns="http://www.w3.org/2000/svg" xmlns:xlink="http://www.w3.org/1999/xlink" width="32" height="32" viewBox="0 0 32 32">
<g id="icomoon-ignore">
	<line stroke-width="1" x1="" y1="" x2="" y2="" stroke="#449FDB" opacity=""></line>
</g>
	<path d="M30.080 1.28h-28.16c-0.704 0-1.28 0.576-1.28 1.28v24.32c0 0.704 0.576 1.28 1.28 1.28h28.16c0.704 0 1.28-0.576 1.28-1.28v-24.32c0-0.704-0.576-1.28-1.28-1.28zM30.080 26.88h-28.16v-20.48h28.16v20.48zM30.080 5.12h-28.16v-2.56h28.16v2.56z" fill="#000000"></path>
	<path d="M7.68 3.84c0 0.353-0.287 0.64-0.64 0.64s-0.64-0.287-0.64-0.64c0-0.353 0.287-0.64 0.64-0.64s0.64 0.287 0.64 0.64z" fill="#000000"></path>
	<path d="M5.76 3.84c0 0.353-0.287 0.64-0.64 0.64s-0.64-0.287-0.64-0.64c0-0.353 0.287-0.64 0.64-0.64s0.64 0.287 0.64 0.64z" fill="#000000"></path>
	<path d="M3.84 3.84c0 0.353-0.287 0.64-0.64 0.64s-0.64-0.287-0.64-0.64c0-0.353 0.287-0.64 0.64-0.64s0.64 0.287 0.64 0.64z" fill="#000000"></path>
</svg>
