<?xml version="1.0" encoding="utf-8"?>
<!-- Generated by IcoMoon.io -->
<!DOCTYPE svg PUBLIC "-//W3C//DTD SVG 1.1//EN" "http://www.w3.org/Graphics/SVG/1.1/DTD/svg11.dtd">
<svg version="1.1" xmlns="http://www.w3.org/2000/svg" xmlns:xlink="http://www.w3.org/1999/xlink" width="32" height="32" viewBox="0 0 32 32">
<g>
	<line stroke-width="1" x1="" y1="" x2="" y2="" stroke="#449FDB" opacity=""></line>
</g>
	<path d="M22.362 9.558h-12.723c-0.528 0-0.96 0.432-0.96 0.96v10.963c0 0.528 0.432 0.96 0.96 0.96h12.72c0.528 0 0.96-0.432 0.96-0.96v-10.963c0.003-0.528-0.429-0.96-0.957-0.96zM12.931 10.57c0.25 0 0.454 0.202 0.454 0.454s-0.202 0.451-0.454 0.451-0.451-0.202-0.451-0.451 0.202-0.454 0.451-0.454zM11.539 10.57c0.25 0 0.454 0.202 0.454 0.454 0 0.25-0.202 0.451-0.454 0.451s-0.451-0.202-0.451-0.451c-0.003-0.253 0.198-0.454 0.451-0.454zM9.693 11.024c0-0.25 0.202-0.454 0.454-0.454s0.451 0.202 0.451 0.454c0 0.25-0.202 0.451-0.451 0.451s-0.454-0.202-0.454-0.451zM22.042 21.162h-12.083v-8.432h12.080v8.432z" fill="#000000"></path>
</svg>
