<?xml version="1.0" encoding="utf-8"?>
<!-- Generated by IcoMoon.io -->
<!DOCTYPE svg PUBLIC "-//W3C//DTD SVG 1.1//EN" "http://www.w3.org/Graphics/SVG/1.1/DTD/svg11.dtd">
<svg version="1.1" xmlns="http://www.w3.org/2000/svg" xmlns:xlink="http://www.w3.org/1999/xlink" width="32" height="32" viewBox="0 0 32 32">
<g>
	<line stroke-width="1" x1="" y1="" x2="" y2="" stroke="#449FDB" opacity=""></line>
</g>
	<path d="M22.362 9.558h-12.723c-0.528 0-0.96 0.432-0.96 0.96v10.963c0 0.528 0.432 0.96 0.96 0.96h12.72c0.528 0 0.96-0.432 0.96-0.96v-10.963c0.003-0.528-0.429-0.96-0.957-0.96zM12.931 10.57c0.25 0 0.454 0.202 0.454 0.454s-0.202 0.451-0.454 0.451-0.451-0.202-0.451-0.451 0.202-0.454 0.451-0.454zM11.539 10.57c0.25 0 0.454 0.202 0.454 0.454 0 0.25-0.202 0.451-0.454 0.451s-0.451-0.202-0.451-0.451c-0.003-0.253 0.198-0.454 0.451-0.454zM9.693 11.024c0-0.25 0.202-0.454 0.454-0.454s0.451 0.202 0.451 0.454c0 0.25-0.202 0.451-0.451 0.451s-0.454-0.202-0.454-0.451zM9.958 12.73h3.802v8.435h-3.802v-8.435zM17.28 21.162h-1.28v-0.739h1.28v0.739zM20.48 21.162h-1.28v-0.739h1.28v0.739zM22.042 21.162h-0.922v-1.379h-2.56v1.379h-0.64v-1.379h-2.56v1.379h-0.96v-8.432h7.642v8.432z" fill="#000000"></path>
	<path d="M17.92 13.44h-2.56v2.618h2.56v-2.618zM17.28 15.418h-1.28v-1.338h1.28v1.338z" fill="#000000"></path>
	<path d="M21.12 13.44h-2.56v2.618h2.56v-2.618zM20.48 15.418h-1.28v-1.338h1.28v1.338z" fill="#000000"></path>
	<path d="M17.92 16.582h-2.56v2.618h2.56v-2.618zM17.28 18.56h-1.28v-1.338h1.28v1.338z" fill="#000000"></path>
	<path d="M21.12 16.582h-2.56v2.618h2.56v-2.618zM20.48 18.56h-1.28v-1.338h1.28v1.338z" fill="#000000"></path>
	<path d="M10.88 14.24h1.645v0.96h-1.645v-0.96z" fill="#000000"></path>
	<path d="M10.88 16.16h1.92v0.96h-1.92v-0.96z" fill="#000000"></path>
	<path d="M10.88 18.080h1.645v0.96h-1.645v-0.96z" fill="#000000"></path>
</svg>
