<?xml version="1.0" encoding="utf-8"?>
<!-- Generated by IcoMoon.io -->
<!DOCTYPE svg PUBLIC "-//W3C//DTD SVG 1.1//EN" "http://www.w3.org/Graphics/SVG/1.1/DTD/svg11.dtd">
<svg version="1.1" xmlns="http://www.w3.org/2000/svg" xmlns:xlink="http://www.w3.org/1999/xlink" width="6" height="28" viewBox="0 0 6 28">
<g id="icomoon-ignore">
	<line stroke-width="1" x1="" y1="" x2="" y2="" stroke="#449FDB" opacity=""></line>
</g>
	<path d="M2.094 13.748l-2.005-2.904h1.005c0.087 0 0.148 0.014 0.188 0.042s0.076 0.067 0.106 0.118l1.459 2.234c0.036-0.109 0.087-0.218 0.154-0.33l1.282-1.882c0.039-0.056 0.078-0.098 0.118-0.132s0.087-0.050 0.146-0.050h0.966l-2.005 2.845 2.083 3.111h-1.005c-0.087 0-0.154-0.022-0.202-0.067-0.050-0.045-0.090-0.095-0.12-0.151l-1.501-2.335c-0.028 0.115-0.067 0.216-0.123 0.305l-1.389 2.027c-0.039 0.056-0.081 0.106-0.126 0.151-0.042 0.048-0.106 0.070-0.185 0.070h-0.932l2.086-3.052z" opacity="1" visibility="false" fill="#000000"></path>
</svg>
