<?xml version="1.0" encoding="utf-8"?>
<!-- Generator: Adobe Illustrator 16.0.0, SVG Export Plug-In . SVG Version: 6.00 Build 0)  -->
<!DOCTYPE svg PUBLIC "-//W3C//DTD SVG 1.1//EN" "http://www.w3.org/Graphics/SVG/1.1/DTD/svg11.dtd">
<svg version="1.1" id="Capa_1" xmlns="http://www.w3.org/2000/svg" xmlns:xlink="http://www.w3.org/1999/xlink" x="0px" y="0px"
	 width="6.5px" height="28px" viewBox="0 0 6.5 28" enable-background="new 0 0 6.5 28" xml:space="preserve">
<g id="icomoon-ignore">
	<line fill="none" stroke="#449FDB" x1="3.25" y1="0" x2="3.25" y2="0"/>
</g>
<path d="M2.545,13.748L0.54,10.844h1.005c0.087,0,0.148,0.014,0.188,0.042c0.04,0.028,0.076,0.067,0.106,0.118l1.459,2.234
	c0.036-0.109,0.087-0.218,0.154-0.33l1.283-1.882c0.039-0.056,0.078-0.098,0.117-0.132c0.041-0.034,0.088-0.05,0.146-0.05h0.967
	l-2.006,2.845L6.041,16.8H5.037c-0.088,0-0.154-0.022-0.203-0.067s-0.09-0.094-0.119-0.15l-1.501-2.335
	c-0.028,0.115-0.067,0.216-0.123,0.305l-1.389,2.027c-0.039,0.056-0.081,0.106-0.126,0.151C1.534,16.777,1.47,16.8,1.391,16.8H0.458
	L2.545,13.748z"/>
</svg>
