<?xml version="1.0" encoding="utf-8"?>
<!-- Generator: Adobe Illustrator 16.0.0, SVG Export Plug-In . SVG Version: 6.00 Build 0)  -->
<!DOCTYPE svg PUBLIC "-//W3C//DTD SVG 1.1//EN" "http://www.w3.org/Graphics/SVG/1.1/DTD/svg11.dtd">
<svg version="1.1" id="Capa_1" xmlns="http://www.w3.org/2000/svg" xmlns:xlink="http://www.w3.org/1999/xlink" x="0px" y="0px"
	 width="6.812px" height="28px" viewBox="0 0 6.812 28" enable-background="new 0 0 6.812 28" xml:space="preserve">
<g id="icomoon-ignore">
	<line fill="none" stroke="#449FDB" x1="3.406" y1="0" x2="3.406" y2="0"/>
</g>
<path d="M3.008,18.559c-0.036,0.077-0.078,0.14-0.132,0.188c-0.054,0.048-0.134,0.07-0.244,0.07H1.854l1.089-2.363l-2.458-5.608
	h0.904c0.09,0,0.16,0.022,0.213,0.067c0.053,0.045,0.087,0.095,0.112,0.151l1.593,3.751c0.036,0.088,0.064,0.175,0.092,0.259
	c0.025,0.087,0.048,0.174,0.067,0.266c0.028-0.09,0.056-0.179,0.081-0.266c0.028-0.087,0.06-0.175,0.096-0.267l1.546-3.746
	c0.021-0.062,0.064-0.115,0.12-0.157s0.118-0.062,0.185-0.062h0.834l-3.321,7.717H3.008z"/>
</svg>
