<?xml version="1.0" encoding="utf-8"?>
<!-- Generated by IcoMoon.io -->
<!DOCTYPE svg PUBLIC "-//W3C//DTD SVG 1.1//EN" "http://www.w3.org/Graphics/SVG/1.1/DTD/svg11.dtd">
<svg version="1.1" xmlns="http://www.w3.org/2000/svg" xmlns:xlink="http://www.w3.org/1999/xlink" width="6" height="28" viewBox="0 0 6 28">
<g id="icomoon-ignore">
	<line stroke-width="1" x1="" y1="" x2="" y2="" stroke="#449FDB" opacity=""></line>
</g>
	<path d="M2.523 18.558c-0.036 0.078-0.078 0.14-0.132 0.188s-0.134 0.070-0.244 0.070h-0.778l1.089-2.363-2.458-5.608h0.904c0.090 0 0.16 0.022 0.213 0.067s0.087 0.095 0.112 0.151l1.593 3.752c0.036 0.087 0.064 0.174 0.092 0.258 0.025 0.087 0.048 0.174 0.067 0.266 0.028-0.090 0.056-0.179 0.081-0.266 0.028-0.087 0.059-0.174 0.095-0.266l1.546-3.746c0.022-0.062 0.064-0.115 0.12-0.157s0.118-0.062 0.185-0.062h0.834l-3.321 7.717z" opacity="1" visibility="false" fill="#000000"></path>
</svg>
