<?xml version="1.0" encoding="utf-8"?>
<!-- Generated by IcoMoon.io -->
<!DOCTYPE svg PUBLIC "-//W3C//DTD SVG 1.1//EN" "http://www.w3.org/Graphics/SVG/1.1/DTD/svg11.dtd">
<svg version="1.1" xmlns="http://www.w3.org/2000/svg" xmlns:xlink="http://www.w3.org/1999/xlink" width="256" height="256" viewBox="0 0 256 256">
<g id="icomoon-ignore">
	<line stroke-width="1" x1="" y1="" x2="" y2="" stroke="#449FDB" opacity=""></line>
</g>
	<path d="M123.264 203.213c43.136 0 78.080-34.944 78.080-78.080s-34.944-78.080-78.080-78.080c-43.136 0-78.080 34.944-78.080 78.080s34.944 78.080 78.080 78.080zM75.29 77.184c12.288-12.288 29.209-19.865 47.975-19.865 18.739 0 35.686 7.578 47.975 19.865s19.865 29.209 19.865 47.975c0 18.739-7.577 35.686-19.865 47.975s-29.209 19.865-47.975 19.865c-18.739 0-35.686-7.577-47.975-19.865s-19.865-29.209-19.865-47.975c0-18.765 7.578-35.686 19.865-47.975z" fill="#000000"></path>
	<path d="M117.965 152.576h10.368v10.829h-10.368v-10.829z" fill="#000000"></path>
	<path d="M117.965 86.886h10.573v58.291h-10.573v-58.291z" fill="#000000"></path>
</svg>
