<?xml version="1.0" encoding="utf-8"?>
<!-- Generated by IcoMoon.io -->
<!DOCTYPE svg PUBLIC "-//W3C//DTD SVG 1.1//EN" "http://www.w3.org/Graphics/SVG/1.1/DTD/svg11.dtd">
<svg version="1.1" xmlns="http://www.w3.org/2000/svg" xmlns:xlink="http://www.w3.org/1999/xlink" width="256" height="256" viewBox="0 0 256 256">
<g id="icomoon-ignore">
	<line stroke-width="1" x1="" y1="" x2="" y2="" stroke="#449FDB" opacity=""></line>
</g>
	<path d="M179.815 91.751c0 0-5.939 5.939-11.827 11.827-5.939 5.939 0 17.767 0 17.767l35.533-35.507-35.533-35.559c0 0-5.913 11.827 0 17.767 5.913 5.913 11.827 11.827 11.827 11.827l0.819 0.819h-128.154v10.24h128.154l-0.819 0.819z" fill="#000000"></path>
	<path d="M76.186 164.25c0 0 5.939-5.939 11.827-11.827 5.939-5.939 0-17.767 0-17.767l-35.533 35.507 35.533 35.533c0 0 5.913-11.827 0-17.767-5.913-5.913-11.827-11.827-11.827-11.827l-0.819-0.819h128.154v-10.24h-128.154l0.819-0.793z" fill="#000000"></path>
</svg>
