<?xml version="1.0" encoding="utf-8"?>
<!-- Generated by IcoMoon.io -->
<!DOCTYPE svg PUBLIC "-//W3C//DTD SVG 1.1//EN" "http://www.w3.org/Graphics/SVG/1.1/DTD/svg11.dtd">
<svg version="1.1" xmlns="http://www.w3.org/2000/svg" xmlns:xlink="http://www.w3.org/1999/xlink" width="256" height="256" viewBox="0 0 256 256">
<g id="icomoon-ignore">
	<line stroke-width="1" x1="" y1="" x2="" y2="" stroke="#449FDB" opacity=""></line>
</g>
	<path d="M211.149 63.309h-75.111c2.97-1.203 5.657-3.021 7.833-5.273 4.173-4.275 6.758-10.215 6.758-16.691s-2.56-12.416-6.758-16.691c-4.173-4.301-10.010-6.989-16.461-6.989-6.425 0-12.288 2.688-16.461 6.989-4.173 4.275-6.758 10.214-6.758 16.691s2.56 12.416 6.758 16.691c2.201 2.253 4.864 4.071 7.834 5.273h-73.984c-4.249 0.026-7.654 3.43-7.68 7.68v7.168c0 2.099 0.794 3.865 1.946 5.222s2.739 2.432 4.813 2.816h0.026l52.455 9.421-14.413 134.528c-0.025 0.256-0.051 0.537-0.051 0.819 0 1.971 0.793 3.891 2.176 5.248 1.357 1.357 3.302 2.15 5.248 2.15h5.069c2.022-0.025 3.635-0.691 5.017-1.638 1.357-0.973 2.534-2.279 3.225-4.173v0l25.293-71.501 25.293 71.501c0.691 1.894 1.869 3.2 3.226 4.173 1.357 0.947 2.995 1.638 5.018 1.638h5.069c1.946 0 3.891-0.768 5.248-2.15 1.382-1.357 2.176-3.277 2.15-5.222 0-0.307-0.025-0.614-0.051-0.922l-0.051-0.358-16.051-133.863 54.323-9.626c2.073-0.384 3.661-1.459 4.813-2.816s1.92-3.123 1.946-5.222v-7.168c-0.051-4.301-3.43-7.68-7.706-7.706zM118.323 50.893c-2.355-2.432-3.84-5.785-3.84-9.549s1.485-7.117 3.84-9.549c2.381-2.432 5.555-3.891 9.114-3.891s6.733 1.459 9.114 3.891c2.355 2.432 3.84 5.785 3.84 9.549s-1.485 7.117-3.84 9.549c-2.381 2.432-5.555 3.891-9.114 3.891-3.558-0.026-6.733-1.485-9.114-3.891zM208.589 76.416l-54.861 9.728c-1.92 0.333-3.533 1.382-4.659 2.713-1.101 1.357-1.817 3.072-1.817 4.992 0 0.307 0.025 0.615 0.051 0.921l15.975 133.299h-0.793l-28.877-81.69c-0.281-0.743-0.614-1.536-1.382-2.406-0.384-0.435-0.896-0.922-1.638-1.305-0.717-0.41-1.69-0.691-2.688-0.691s-1.971 0.281-2.662 0.691c-1.101 0.614-1.689 1.331-2.125 1.946-0.435 0.64-0.665 1.203-0.871 1.767l-28.928 81.715h-0.871l14.361-133.581c0.025-0.281 0.051-0.537 0.051-0.819 0-1.945-0.717-3.661-1.817-5.017-1.127-1.357-2.713-2.381-4.659-2.739v0l-52.967-9.498v-2.893h161.178v2.867z" fill="#000000"></path>
</svg>
