<?xml version="1.0" encoding="utf-8"?>
<!-- Generated by IcoMoon.io -->
<!DOCTYPE svg PUBLIC "-//W3C//DTD SVG 1.1//EN" "http://www.w3.org/Graphics/SVG/1.1/DTD/svg11.dtd">
<svg version="1.1" xmlns="http://www.w3.org/2000/svg" xmlns:xlink="http://www.w3.org/1999/xlink" width="256" height="256" viewBox="0 0 256 256">
<g id="icomoon-ignore">
	<line stroke-width="1" x1="" y1="" x2="" y2="" stroke="#449FDB" opacity=""></line>
</g>
	<path d="M128.896 42.599c-45.594 0-82.56 36.966-82.56 82.56s36.966 82.56 82.56 82.56c45.594 0 82.56-36.966 82.56-82.56s-36.966-82.534-82.56-82.56zM180.045 176.307c-13.107 13.107-31.155 21.171-51.123 21.171-19.993 0-38.041-8.089-51.149-21.171-13.107-13.107-21.171-31.155-21.197-51.149 0-19.993 8.089-38.041 21.197-51.149s31.155-21.171 51.149-21.171c19.994 0 38.016 8.090 51.123 21.171 13.107 13.107 21.171 31.155 21.171 51.149s-8.089 38.041-21.171 51.149z" fill="#000000"></path>
	<path d="M134.016 83.763h-10.24v46.515h56.013v-10.24h-45.773z" fill="#000000"></path>
</svg>
