<?xml version="1.0" encoding="utf-8"?>
<!-- Generated by IcoMoon.io -->
<!DOCTYPE svg PUBLIC "-//W3C//DTD SVG 1.1//EN" "http://www.w3.org/Graphics/SVG/1.1/DTD/svg11.dtd">
<svg version="1.1" xmlns="http://www.w3.org/2000/svg" xmlns:xlink="http://www.w3.org/1999/xlink" width="256" height="256" viewBox="0 0 256 256">
<g id="icomoon-ignore">
	<line stroke-width="1" x1="" y1="" x2="" y2="" stroke="#449FDB" opacity=""></line>
</g>
	<path d="M85.325 82.841c0 0-10.957 2.688-10.496 10.189 0.409 6.605 0.793 13.107 0.896 14.618l-17.075-17.638-7.347 7.117 17.075 17.613c-1.536-0.128-8.013-0.717-14.566-1.357-7.475-0.691-10.521 10.189-10.521 10.189l44.775 4.121-2.739-44.851z" fill="#000000"></path>
	<path d="M106.343 183.731c0.563 7.501 11.776 8.704 11.776 8.704l-3.277-44.826-43.827 10.035c0 0 4.454 10.368 11.776 8.704 6.425-1.485 12.8-2.944 14.259-3.277l-14.592 19.738 8.243 6.093 14.592-19.738c0.103 1.485 0.589 7.987 1.049 14.566z" fill="#000000"></path>
	<path d="M147.226 71.296c0 0-9.754-5.657-14.643 0.077-4.275 5.043-8.525 10.010-9.498 11.136l-0.103-24.55-10.24 0.051 0.103 24.525c-0.999-1.152-5.273-6.093-9.575-11.059-4.915-5.683-14.643 0.051-14.643 0.051l29.415 33.997 29.184-34.227z" fill="#000000"></path>
	<path d="M145.613 116.249l44.953 0.487c0 0-1.894-11.136-9.421-11.213-6.605-0.051-13.133-0.128-14.643-0.153l18.816-15.769-6.579-7.834-18.791 15.77c0.256-1.51 1.305-7.936 2.381-14.439 1.203-7.424-9.421-11.213-9.421-11.213l-7.296 44.365z" fill="#000000"></path>
	<path d="M193.69 147.072l-24.525-0.051c1.152-0.999 6.119-5.248 11.136-9.498 5.709-4.889 0.025-14.643 0.025-14.643l-34.202 29.209 34.048 29.363c0 0 5.734-9.728 0.025-14.643-5.018-4.301-9.959-8.576-11.085-9.549l24.55 0.051 0.025-10.24z" fill="#000000"></path>
	<path d="M98.253 28.16c0 10.726 8.678 19.405 19.405 19.405 10.701 0 19.405-8.678 19.405-19.405 0-10.701-8.678-19.405-19.405-19.405s-19.405 8.678-19.405 19.405zM109.363 19.866c2.125-2.125 5.043-3.43 8.294-3.43s6.144 1.305 8.294 3.43c2.125 2.125 3.43 5.043 3.43 8.294s-1.305 6.144-3.43 8.294c-2.125 2.125-5.043 3.431-8.294 3.431s-6.144-1.306-8.294-3.431c-2.125-2.125-3.43-5.043-3.43-8.294s1.305-6.144 3.43-8.294z" fill="#000000"></path>
	<path d="M222.771 65.664c0-10.701-8.678-19.405-19.405-19.405s-19.405 8.678-19.405 19.405c0 10.727 8.678 19.405 19.405 19.405s19.405-8.678 19.405-19.405zM195.097 73.959c-2.125-2.125-3.43-5.043-3.43-8.294s1.305-6.144 3.43-8.294c2.125-2.125 5.043-3.431 8.294-3.431s6.144 1.306 8.294 3.431c2.125 2.125 3.43 5.043 3.43 8.294s-1.305 6.144-3.43 8.294c-2.125 2.125-5.043 3.43-8.294 3.43-3.277 0-6.169-1.305-8.294-3.43z" fill="#000000"></path>
	<path d="M222.72 131.559c-10.726 0-19.405 8.679-19.405 19.405s8.678 19.405 19.405 19.405c10.701 0 19.405-8.679 19.405-19.405s-8.678-19.405-19.405-19.405zM231.014 159.232c-2.125 2.125-5.043 3.43-8.294 3.43s-6.144-1.305-8.294-3.43c-2.125-2.125-3.43-5.043-3.43-8.294s1.305-6.144 3.43-8.294c2.125-2.125 5.043-3.43 8.294-3.43s6.144 1.305 8.294 3.43c2.125 2.125 3.43 5.043 3.43 8.294 0 3.277-1.305 6.169-3.43 8.294z" fill="#000000"></path>
	<path d="M88.525 209.92c0-10.701-8.678-19.405-19.405-19.405s-19.405 8.678-19.405 19.405c0 10.726 8.678 19.405 19.405 19.405s19.405-8.678 19.405-19.405zM60.825 218.214c-2.125-2.125-3.431-5.043-3.431-8.294s1.306-6.144 3.431-8.294c2.125-2.125 5.043-3.43 8.295-3.43s6.144 1.305 8.294 3.43c2.125 2.125 3.43 5.043 3.43 8.294s-1.305 6.144-3.43 8.294c-2.125 2.125-5.043 3.43-8.294 3.43s-6.144-1.305-8.294-3.43z" fill="#000000"></path>
	<path d="M52.199 73.907c0-10.701-8.678-19.405-19.405-19.405s-19.405 8.678-19.405 19.405c0 10.727 8.678 19.405 19.405 19.405 10.701 0 19.379-8.678 19.405-19.405zM41.063 82.201c-2.125 2.125-5.043 3.43-8.294 3.43s-6.144-1.305-8.294-3.43c-2.125-2.125-3.43-5.043-3.43-8.294s1.305-6.144 3.43-8.294c2.125-2.125 5.043-3.431 8.294-3.431s6.144 1.306 8.294 3.431c2.125 2.125 3.431 5.043 3.431 8.294s-1.28 6.169-3.431 8.294z" fill="#000000"></path>
</svg>
