<?xml version="1.0" encoding="utf-8"?>
<!-- Generated by IcoMoon.io -->
<!DOCTYPE svg PUBLIC "-//W3C//DTD SVG 1.1//EN" "http://www.w3.org/Graphics/SVG/1.1/DTD/svg11.dtd">
<svg version="1.1" xmlns="http://www.w3.org/2000/svg" xmlns:xlink="http://www.w3.org/1999/xlink" width="256" height="256" viewBox="0 0 256 256">
<g id="icomoon-ignore">
	<line stroke-width="1" x1="" y1="" x2="" y2="" stroke="#449FDB" opacity=""></line>
</g>
	<path d="M132.147 105.856c4.736-14.387 1.408-30.874-10.010-42.291-11.111-11.111-27.008-14.515-41.114-10.317 0 0-5.709 1.818-9.242 5.223l24.064 24.064-1.126 11.725-11.725 1.101-24.064-24.064c-3.353 3.353-5.479 9.011-5.479 9.011-4.505 14.259-1.178 30.49 10.112 41.779 11.417 11.417 27.853 14.745 42.24 10.035l68.608 68.608c2.483 2.483 5.786 3.738 9.063 3.738 3.251 0 6.553-1.255 9.063-3.738l8.192-8.192c2.483-2.483 3.738-5.786 3.738-9.063 0-3.251-1.255-6.553-3.738-9.063l-68.582-68.557zM193.485 185.319l-8.192 8.192c-0.487 0.487-1.126 0.743-1.817 0.743s-1.305-0.256-1.817-0.743l-73.523-73.549c-11.879 6.681-27.187 5.017-37.299-5.094-7.117-7.117-10.035-16.768-8.832-26.035l17.178 17.177 24.934-2.355 2.355-24.96-16.819-16.819c9.011-0.947 18.329 2.023 25.242 8.934 10.112 10.112 11.776 25.421 5.094 37.299l0.025 0.025-0.051 0.051 73.523 73.523c0.487 0.487 0.743 1.126 0.743 1.817 0 0.666-0.256 1.28-0.743 1.792z" fill="#000000"></path>
</svg>
