<?xml version="1.0" encoding="utf-8"?>
<!-- Generated by IcoMoon.io -->
<!DOCTYPE svg PUBLIC "-//W3C//DTD SVG 1.1//EN" "http://www.w3.org/Graphics/SVG/1.1/DTD/svg11.dtd">
<svg version="1.1" xmlns="http://www.w3.org/2000/svg" xmlns:xlink="http://www.w3.org/1999/xlink" width="256" height="256" viewBox="0 0 256 256">
<g id="icomoon-ignore">
	<line stroke-width="1" x1="" y1="" x2="" y2="" stroke="#449FDB" opacity=""></line>
</g>
	<path d="M223.488 84.403l-4.685-4.71c-0.128-0.128-2.97-2.995-7.168-5.939-2.125-1.485-4.583-2.995-7.322-4.173s-5.786-2.099-9.113-2.099h-0.128c-5.478 0.051-11.392 1.741-17.817 4.352-9.625 3.942-20.454 10.087-31.411 17.126-9.959 6.4-19.968 13.543-29.133 20.377l-17.152-9.907c0.845-2.867 1.331-5.888 1.331-9.011 0-17.997-14.592-32.589-32.589-32.589s-32.589 14.592-32.589 32.589c0 17.997 14.592 32.589 32.589 32.589 5.325 0 10.368-1.305 14.823-3.584 2.355 1.997 5.785 4.838 10.010 8.243-2.739 2.227-5.197 4.224-7.194 5.888-1.305 1.101-2.381 1.997-3.328 2.791-4.326-2.125-9.191-3.353-14.311-3.353-17.997 0-32.589 14.592-32.589 32.589s14.592 32.589 32.589 32.589c17.997 0 32.589-14.592 32.589-32.589 0-3.353-0.563-6.554-1.51-9.575l17.331-10.010c12.518 9.344 26.649 19.226 40.013 27.059 7.168 4.198 14.106 7.808 20.531 10.445 6.451 2.611 12.339 4.301 17.817 4.352h0.102c3.328 0 6.375-0.922 9.113-2.099 4.121-1.792 7.629-4.301 10.214-6.349s4.198-3.686 4.301-3.789l4.685-4.71-74.982-43.264 74.983-43.239zM211.533 168.448v0 0 0zM206.285 172.826c-0.231 0.154-0.435 0.333-0.691 0.487-1.69 1.178-3.609 2.304-5.453 3.097s-3.609 1.229-4.941 1.203h-0.051c-3.303 0-8.269-1.229-14.029-3.584-8.653-3.533-19.097-9.421-29.747-16.256s-21.504-14.643-31.232-21.965l-2.713-2.048-31.053 17.92 2.048 4.275c1.408 2.944 2.201 6.195 2.201 9.625 0 6.195-2.483 11.75-6.553 15.795-4.045 4.045-9.6 6.554-15.795 6.554s-11.725-2.483-15.795-6.553c-4.045-4.071-6.528-9.6-6.553-15.795 0-6.195 2.483-11.75 6.553-15.795 4.045-4.045 9.6-6.553 15.795-6.553 4.48 0 8.627 1.331 12.16 3.609l3.277 2.125 2.918-2.611c0.691-0.614 2.765-2.406 5.837-4.966s7.168-5.913 12.007-9.754l5.017-3.993-5.017-3.993c-8.858-7.040-15.309-12.519-17.433-14.362l-2.969-2.585-3.277 2.201c-3.584 2.432-7.859 3.84-12.519 3.84-6.195 0-11.725-2.483-15.795-6.553-4.045-4.070-6.553-9.626-6.553-15.795 0-6.195 2.483-11.751 6.553-15.795s9.6-6.553 15.795-6.553c6.195 0 11.751 2.483 15.795 6.553s6.553 9.6 6.553 15.795c0 3.277-0.717 6.374-1.997 9.216l-1.92 4.224 30.72 17.715 2.713-2.048c12.953-9.779 27.955-20.377 41.754-28.442 6.887-4.045 13.465-7.45 19.226-9.779 5.76-2.355 10.726-3.609 14.029-3.584v0 0 0h0.025c1.357 0 3.149 0.435 5.043 1.254 2.073 0.896 4.224 2.227 6.067 3.558l-78.285 45.158 78.285 45.159z" fill="#000000"></path>
</svg>
