<?xml version="1.0" encoding="utf-8"?>
<!-- Generated by IcoMoon.io -->
<!DOCTYPE svg PUBLIC "-//W3C//DTD SVG 1.1//EN" "http://www.w3.org/Graphics/SVG/1.1/DTD/svg11.dtd">
<svg version="1.1" xmlns="http://www.w3.org/2000/svg" xmlns:xlink="http://www.w3.org/1999/xlink" width="256" height="256" viewBox="0 0 256 256">
<g id="icomoon-ignore">
	<line stroke-width="1" x1="" y1="" x2="" y2="" stroke="#449FDB" opacity=""></line>
</g>
	<path d="M235.52 3.635h-215.040c-8.473 0.026-15.335 6.887-15.36 15.36v179.2c0.026 8.474 6.886 15.334 15.36 15.36h65.971v28.57h-14.771v10.24h112.64v-10.24h-14.771v-28.57h65.971c8.474-0.025 15.334-6.887 15.36-15.36v-179.2c-0.025-8.499-6.887-15.335-15.36-15.36zM159.309 242.125h-62.618v-28.57h62.643v28.57zM240.64 198.195c0 1.408-0.563 2.662-1.511 3.609s-2.202 1.511-3.609 1.511h-215.040c-1.408 0-2.663-0.563-3.61-1.511s-1.511-2.202-1.511-3.609v-179.2c0-1.408 0.563-2.663 1.511-3.61s2.201-1.511 3.61-1.511h215.040c1.408 0 2.662 0.563 3.609 1.511s1.511 2.201 1.511 3.61v179.2z" fill="#000000"></path>
	<path d="M25.6 24.32h204.8v154.035h-204.8v-154.035z" fill="#000000"></path>
</svg>
