<?xml version="1.0" encoding="utf-8"?>
<!-- Generated by IcoMoon.io -->
<!DOCTYPE svg PUBLIC "-//W3C//DTD SVG 1.1//EN" "http://www.w3.org/Graphics/SVG/1.1/DTD/svg11.dtd">
<svg version="1.1" xmlns="http://www.w3.org/2000/svg" xmlns:xlink="http://www.w3.org/1999/xlink" width="256" height="256" viewBox="0 0 256 256">
<g id="icomoon-ignore">
	<line stroke-width="1" x1="" y1="" x2="" y2="" stroke="#449FDB" opacity=""></line>
</g>
	<path d="M209.049 156.518c0-5.222-2.535-9.881-6.246-13.005-1.152-0.973-2.406-1.792-3.763-2.483 2.099-2.944 3.353-6.528 3.353-10.445 0-3.353-0.922-6.477-2.535-9.139l8.576-74.035c0.87-8.448-6.4-16-16.256-16.922l-4.736-0.435c7.655 2.099 13.082 8.397 12.723 15.539l-3.738 71.655c-1.69-1.51-3.661-2.713-5.811-3.507l3.507-64.743c0.358-8.474-6.169-15.642-14.643-16.051l-4.045-0.179c6.631 1.69 11.546 7.68 11.571 14.873v65.203c-0.845-0.128-1.715-0.205-2.585-0.205h-2.918v-61.389c-0.025-8.474-6.887-15.334-15.36-15.36h-61.44c-8.474 0.026-15.335 6.886-15.36 15.36v19.993l-5.888 6.451v-30.080c0.025-7.168 4.915-13.159 11.571-14.873l-4.045 0.179c-8.474 0.41-15.001 7.578-14.643 16.051l1.869 34.483-5.555 6.093-2.355-43.955c-0.359-7.168 5.069-13.44 12.723-15.539l-4.71 0.435c-9.882 0.922-17.127 8.474-16.256 16.922l5.504 47.744-20.557 22.502v107.597l107.623 0.435c0.845 0.154 1.741 0.256 2.637 0.256h22.119c4.71 0 8.883-2.253 11.699-5.555 2.841-3.303 4.48-7.68 4.48-12.416 0-3.353-0.845-6.502-2.304-9.242 6.246-2.816 10.599-9.088 10.599-16.384 0-4.096-1.382-7.859-3.712-10.88 0.973-0.563 1.894-1.203 2.739-1.92 3.635-3.149 6.169-7.808 6.169-13.030zM189.901 125.133c1.408 1.408 2.253 3.328 2.253 5.479s-0.87 4.045-2.253 5.478c-1.408 1.408-3.328 2.253-5.478 2.253h-25.703c-2.15 0-4.045-0.87-5.478-2.253-1.408-1.408-2.253-3.328-2.253-5.478s0.845-4.045 2.253-5.478c1.408-1.408 3.328-2.253 5.478-2.253h25.702c2.15-0.025 4.071 0.845 5.478 2.253zM144.384 169.523c0.589 0.487 1.203 0.947 1.843 1.357-2.585 3.097-4.121 7.091-4.121 11.469 0 2.56 0.563 4.966 1.511 7.143h-38.912c-1.408 0-2.662-0.563-3.609-1.511s-1.51-2.202-1.51-3.609v-38.374c0.179-3.584 0.435-6.631 0.845-9.293 0.768-4.864 1.945-8.474 4.275-12.672v44.979h39.142c0.179 0.154 0.358 0.358 0.537 0.512zM169.779 47.642c0.947 0.947 1.511 2.202 1.511 3.609v61.363h-5.12v-56.243h-45.209c-2.125-3.815-3.891-6.195-3.968-6.349l-2.893-3.891h52.045c1.408 0 2.662 0.563 3.635 1.511zM99.584 51.251c0-1.408 0.563-2.663 1.51-3.609s2.201-1.511 3.609-1.511h7.578l-12.698 13.901v-8.781zM57.191 121.651l54.912-60.109c0.512 0.922 1.049 1.92 1.587 3.021 2.432 4.966 4.685 11.546 4.659 17.664 0 2.432-0.333 4.813-1.101 7.066s-1.945 4.429-3.763 6.553c-5.017 5.811-8.986 10.547-12.16 14.823-4.761 6.374-7.68 11.93-9.626 18.099-1.433 4.608-2.048 7.040-2.253 11.315-0.025 0.077-0.051 0.128-0.077 0.205v1.869c-0.051 2.048-0.051 4.531 0 7.757v34.535c0.025 8.474 6.886 15.334 15.36 15.36h38.093c-1.152 2.483-1.792 5.299-1.792 8.243 0 2.637 0.512 5.145 1.459 7.424l-85.299-0.358v-93.466zM183.655 213.709c-1.382 1.357-2.97 1.971-4.608 1.997h-22.4c-1.587 0-3.123-0.614-4.48-1.997-1.331-1.357-2.279-3.405-2.279-5.76s0.947-4.403 2.279-5.76c1.357-1.357 2.867-1.971 4.48-1.971l23.219 0.077c1.357 0.179 2.637 0.768 3.815 1.894 1.382 1.357 2.355 3.405 2.355 5.76-0.025 2.381-0.999 4.429-2.381 5.76zM191.257 187.802c-1.408 1.408-3.303 2.253-5.453 2.253l-26.496-0.077c-1.817-0.179-3.43-0.947-4.685-2.176-1.408-1.408-2.253-3.328-2.253-5.478s0.845-4.045 2.253-5.478c1.408-1.408 3.328-2.253 5.478-2.253h25.702c2.15 0 4.045 0.845 5.453 2.253s2.253 3.328 2.253 5.478c0.025 2.176-0.845 4.071-2.253 5.478zM196.839 161.664c-1.331 1.511-3.328 2.56-5.607 2.56l-35.712 0.025c-2.15 0-4.019-1.049-5.274-2.56-1.255-1.536-1.869-3.303-1.869-5.171s0.614-3.661 1.869-5.171c1.255-1.511 3.123-2.56 5.274-2.56l35.712-0.025c2.279 0 4.275 1.049 5.607 2.535 1.331 1.536 1.997 3.303 1.997 5.171-0.025 1.894-0.666 3.686-1.997 5.197z" fill="#000000"></path>
	<path d="M140.544 179.251c0 2.828-2.292 5.12-5.12 5.12s-5.12-2.292-5.12-5.12c0-2.828 2.292-5.12 5.12-5.12s5.12 2.292 5.12 5.12z" fill="#000000"></path>
</svg>
