<?xml version="1.0" encoding="utf-8"?>
<!-- Generated by IcoMoon.io -->
<!DOCTYPE svg PUBLIC "-//W3C//DTD SVG 1.1//EN" "http://www.w3.org/Graphics/SVG/1.1/DTD/svg11.dtd">
<svg version="1.1" xmlns="http://www.w3.org/2000/svg" xmlns:xlink="http://www.w3.org/1999/xlink" width="256" height="256" viewBox="0 0 256 256">
<g id="icomoon-ignore">
	<line stroke-width="1" x1="" y1="" x2="" y2="" stroke="#449FDB" opacity=""></line>
</g>
	<path d="M56.397 209.408h71.142v-10.24h-71.142c-0.691 0-1.306-0.281-1.792-0.768s-0.742-1.101-0.768-1.792v-138.24c0-0.691 0.282-1.306 0.768-1.792s1.101-0.742 1.792-0.768h71.424v-10.24h-71.424c-7.066 0.026-12.775 5.734-12.8 12.8v138.24c0.026 7.066 5.734 12.774 12.8 12.8z" fill="#000000"></path>
	<path d="M76.8 132.608h105.037c-8.601 8.627-25.293 25.344-29.619 29.671-5.939 5.939 0 17.767 0 17.767l52.583-52.659-52.429-52.455c0 0-5.913 11.827 0 17.767 4.377 4.377 21.145 21.145 29.671 29.645h-105.242v10.265z" fill="#000000"></path>
</svg>
