<?xml version="1.0" encoding="utf-8"?>
<!-- Generated by IcoMoon.io -->
<!DOCTYPE svg PUBLIC "-//W3C//DTD SVG 1.1//EN" "http://www.w3.org/Graphics/SVG/1.1/DTD/svg11.dtd">
<svg version="1.1" xmlns="http://www.w3.org/2000/svg" xmlns:xlink="http://www.w3.org/1999/xlink" width="256" height="256" viewBox="0 0 256 256">
<g id="icomoon-ignore">
	<line stroke-width="1" x1="" y1="" x2="" y2="" stroke="#449FDB" opacity=""></line>
</g>
	<path d="M57.191 177.305h83.558c7.066-0.025 12.774-5.734 12.8-12.8v-73.011c-0.025-7.066-5.734-12.775-12.8-12.8h-83.558c-7.066 0.025-12.775 5.734-12.8 12.8v73.011c0.026 7.065 5.734 12.774 12.8 12.8zM54.63 91.495c0-0.691 0.282-1.305 0.768-1.792s1.101-0.743 1.792-0.768h83.558c0.691 0 1.305 0.281 1.792 0.768s0.743 1.101 0.768 1.792v73.011c0 0.691-0.281 1.305-0.768 1.792s-1.101 0.743-1.792 0.768h-83.558c-0.691 0-1.306-0.281-1.792-0.768s-0.742-1.101-0.768-1.792v-73.011z" fill="#000000"></path>
	<path d="M173.338 101.197c-2.995 1.536-5.222 3.917-6.887 6.605-1.638 2.713-2.739 5.76-2.765 9.114v24.192c0.025 3.405 1.203 6.477 2.944 9.139 1.767 2.637 4.147 4.915 7.27 6.246l28.697 12.058c1.434 0.614 2.97 0.947 4.531 0.947 2.611 0.025 5.325-1.101 7.091-3.123 1.792-2.023 2.56-4.633 2.56-7.245v-63.975c0-2.457-0.666-4.941-2.329-6.938-0.819-0.999-1.894-1.817-3.097-2.355s-2.483-0.793-3.738-0.793c-1.817 0-3.533 0.487-5.12 1.305l-29.159 14.823zM177.894 147.047c-0.768-0.307-1.92-1.229-2.714-2.483-0.819-1.203-1.255-2.637-1.229-3.456v-24.192c-0.025-0.871 0.41-2.432 1.255-3.763 0.819-1.357 1.997-2.457 2.791-2.816l28.57-14.515v63.283l-28.672-12.058z" fill="#000000"></path>
</svg>
