<?xml version="1.0" encoding="utf-8"?>
<!-- Generated by IcoMoon.io -->
<!DOCTYPE svg PUBLIC "-//W3C//DTD SVG 1.1//EN" "http://www.w3.org/Graphics/SVG/1.1/DTD/svg11.dtd">
<svg version="1.1" xmlns="http://www.w3.org/2000/svg" xmlns:xlink="http://www.w3.org/1999/xlink" width="256" height="256" viewBox="0 0 256 256">
<g id="icomoon-ignore">
	<line stroke-width="1" x1="" y1="" x2="" y2="" stroke="#449FDB" opacity=""></line>
</g>
	<path d="M29.952 67.661l6.349 8.038c5.223-4.121 9.882-6.477 15.053-7.91s10.983-1.945 18.227-1.945c2.099 0 4.326 0.051 6.681 0.103 7.347 0.231 13.031 2.457 18.15 5.504s9.523 6.963 14.003 10.445l6.246-8.115c-4.045-3.097-8.858-7.424-15.002-11.111s-13.747-6.681-23.091-6.938c-2.432-0.077-4.736-0.102-6.963-0.102-7.706 0-14.489 0.512-20.992 2.304-6.502 1.767-12.569 4.915-18.663 9.728z" fill="#000000"></path>
	<path d="M199.526 91.981l4.096-3.072c-4.506-5.99-12.749-9.575-22.887-9.6-0.563 0-1.126 0-1.69 0.025-11.187 0.435-19.917 4.992-24.064 11.904l4.403 2.611c2.253-3.865 7.014-7.142 13.696-8.602-0.537 1.049-0.845 2.253-0.793 3.507 0.077 1.894 0.896 3.584 2.15 4.838-2.791 0.307-5.376 0.871-7.782 1.664l1.638 4.864c2.714-0.896 5.811-1.485 9.267-1.613 0.512-0.025 0.999-0.025 1.485-0.025 4.941 0 9.191 0.973 12.544 2.585l2.227-4.608c-2.739-1.331-5.913-2.201-9.344-2.688 1.485-1.382 2.406-3.379 2.329-5.581-0.051-1.229-0.435-2.355-0.999-3.353 6.4 0.973 11.187 3.686 13.721 7.142z" fill="#000000"></path>
	<path d="M186.393 55.603c-2.227 0-4.557 0.051-6.963 0.102-9.421 0.256-17.101 3.303-23.27 7.040s-10.982 8.090-15.053 11.187l6.221 8.141c4.531-3.481 8.96-7.45 14.106-10.547s10.855-5.35 18.279-5.581c2.355-0.077 4.583-0.103 6.681-0.103 7.27 0 13.056 0.487 18.227 1.945s9.831 3.789 15.053 7.91l6.349-8.038c-6.093-4.813-12.185-7.962-18.662-9.754s-13.261-2.304-20.966-2.304z" fill="#000000"></path>
	<path d="M137.933 154.266c-0.666 1.178-1.92 2.227-3.712 2.995-1.767 0.768-3.994 1.203-6.246 1.203-2.995 0.025-5.965-0.793-7.834-2.073-0.947-0.64-1.638-1.357-2.099-2.15s-0.717-1.664-0.717-2.816h-7.68c0 2.458 0.64 4.762 1.766 6.707 1.715 2.918 4.377 4.915 7.27 6.169 2.918 1.255 6.118 1.843 9.318 1.843 4.25-0.025 8.55-1.024 12.109-3.353 1.767-1.178 3.353-2.714 4.48-4.659 1.126-1.92 1.767-4.25 1.767-6.707h-7.68c-0.025 1.178-0.281 2.048-0.743 2.841z" fill="#000000"></path>
	<path d="M128 185.6c-6.784 0-12.365 0.743-17.049 1.997-7.040 1.869-12.083 4.992-16.051 8.141-3.968 3.174-6.938 6.272-10.087 8.499-1.741 1.229-2.15 3.635-0.921 5.351s3.635 2.15 5.35 0.922c2.637-1.869 4.838-3.942 7.066-5.888 3.328-2.944 6.605-5.657 11.315-7.757 4.71-2.073 11.008-3.559 20.378-3.584 6.221 0 11.085 0.717 15.001 1.792 5.888 1.664 9.728 4.147 13.235 6.938 3.482 2.765 6.553 5.965 10.675 8.601 1.792 1.126 4.173 0.589 5.299-1.203s0.589-4.173-1.203-5.299c-2.073-1.305-4.071-3.047-6.323-5.018-3.405-2.944-7.424-6.425-13.209-9.088-5.811-2.637-13.286-4.403-23.475-4.403z" fill="#000000"></path>
	<path d="M143.309 210.406c0.947-1.049 0.845-2.662-0.205-3.609-1.715-1.511-3.917-2.611-6.502-3.379-2.56-0.768-5.478-1.178-8.601-1.178-3.225 0-6.221 0.461-8.858 1.28s-4.889 1.997-6.579 3.609c-1.024 0.973-1.049 2.611-0.051 3.609 0.973 1.024 2.611 1.049 3.609 0.077 0.871-0.845 2.457-1.767 4.531-2.406 2.073-0.666 4.608-1.049 7.347-1.049 2.637 0 5.095 0.358 7.143 0.973 2.023 0.614 3.635 1.459 4.557 2.304 1.049 0.922 2.662 0.845 3.609-0.231z" fill="#000000"></path>
	<path d="M112.845 86.605c-0.819 1.152-0.563 2.739 0.589 3.584 1.152 0.819 2.739 0.563 3.584-0.589v0l6.938-9.703c1.075-1.561 1.485-3.302 1.51-5.069 0-0.512-0.051-1.024-0.153-1.536l-4.48-20.275c-0.307-1.383-1.664-2.253-3.046-1.946s-2.253 1.664-1.945 3.047l4.48 20.249 0.051 0.435c0.025 0.717-0.333 1.869-0.563 2.099l-6.963 9.703z" fill="#000000"></path>
	<path d="M136.576 74.368l4.48-20.275c0.307-1.383-0.563-2.739-1.946-3.047s-2.739 0.563-3.047 1.946l-4.48 20.275c-0.102 0.537-0.154 1.049-0.154 1.536 0.025 1.792 0.461 3.533 1.511 5.069l6.938 9.728c0.819 1.152 2.432 1.408 3.584 0.589s1.408-2.432 0.589-3.584l-6.963-9.754 0.025 0.051c-0.205-0.231-0.589-1.382-0.563-2.099l0.025-0.435z" fill="#000000"></path>
	<path d="M64.025 101.069c3.353-1.613 7.603-2.585 12.544-2.585 0.487 0 0.973 0 1.485 0.025 3.456 0.128 6.553 0.717 9.267 1.613l1.638-4.864c-2.304-0.768-4.813-1.305-7.475-1.613 1.28-1.254 2.099-2.969 2.176-4.889 0.051-1.254-0.256-2.457-0.793-3.507 6.681 1.459 11.469 4.761 13.696 8.602l4.403-2.611c-4.121-6.938-12.877-11.469-24.064-11.904-0.563-0.025-1.126-0.025-1.689-0.025-10.138 0-18.381 3.609-22.886 9.6l4.096 3.072c2.56-3.456 7.322-6.169 13.696-7.142-0.589 0.999-0.973 2.125-0.999 3.353-0.077 2.176 0.819 4.147 2.278 5.529-3.558 0.461-6.809 1.382-9.626 2.739l2.253 4.608z" fill="#000000"></path>
</svg>
