<?xml version="1.0" encoding="utf-8"?>
<!-- Generated by IcoMoon.io -->
<!DOCTYPE svg PUBLIC "-//W3C//DTD SVG 1.1//EN" "http://www.w3.org/Graphics/SVG/1.1/DTD/svg11.dtd">
<svg version="1.1" xmlns="http://www.w3.org/2000/svg" xmlns:xlink="http://www.w3.org/1999/xlink" width="256" height="256" viewBox="0 0 256 256">
<g id="icomoon-ignore">
	<line stroke-width="1" x1="" y1="" x2="" y2="" stroke="#449FDB" opacity=""></line>
</g>
	<path d="M200.755 110.874c0 3.959-3.209 7.168-7.168 7.168s-7.168-3.209-7.168-7.168c0-3.959 3.209-7.168 7.168-7.168s7.168 3.209 7.168 7.168z" fill="#000000"></path>
	<path d="M172.621 110.874c0 3.959-3.209 7.168-7.168 7.168s-7.168-3.209-7.168-7.168c0-3.959 3.209-7.168 7.168-7.168s7.168 3.209 7.168 7.168z" fill="#000000"></path>
	<path d="M186.982 123.879c0 3.959-3.209 7.168-7.168 7.168s-7.168-3.209-7.168-7.168c0-3.959 3.209-7.168 7.168-7.168s7.168 3.209 7.168 7.168z" fill="#000000"></path>
	<path d="M186.982 97.689c0 3.959-3.209 7.168-7.168 7.168s-7.168-3.209-7.168-7.168c0-3.959 3.209-7.168 7.168-7.168s7.168 3.209 7.168 7.168z" fill="#000000"></path>
	<path d="M224.102 124.903c-1.255-15.053-2.381-20.608-3.174-26.547-1.357-9.984-5.095-18.611-11.187-24.832-6.067-6.246-14.515-9.805-24.064-9.779-10.087 0-19.2 4.301-25.625 11.085h-64.103c-6.425-6.809-15.539-11.085-25.626-11.085-9.549-0.026-17.997 3.533-24.064 9.779-6.093 6.221-9.831 14.848-11.187 24.832-0.819 5.939-1.946 11.495-3.175 26.547-0.845 10.189-1.664 19.789-1.664 28.493 0 4.839 0.256 9.369 0.947 13.619 1.024 6.323 3.046 12.109 7.015 16.691 1.971 2.279 4.403 4.173 7.245 5.581s6.041 2.329 9.575 2.765c1.101 0.128 2.176 0.205 3.251 0.205 4.787 0.025 9.267-1.459 13.005-4.019 5.657-3.84 9.805-9.702 13.363-16.717 3.046-6.067 5.632-13.107 8.064-20.71h70.605c3.353 10.573 7.040 19.968 11.853 27.315 2.688 4.096 5.811 7.577 9.575 10.112 3.738 2.535 8.218 4.019 13.005 4.019 1.075 0 2.15-0.077 3.251-0.205 4.71-0.589 8.857-2.023 12.288-4.352 2.56-1.715 4.71-3.917 6.375-6.4 2.509-3.738 4.019-8.064 4.915-12.749s1.229-9.754 1.229-15.207c-0.025-8.653-0.845-18.279-1.69-28.442zM214.707 165.351c-0.845 5.248-2.406 9.088-4.633 11.623-1.126 1.28-2.406 2.304-4.071 3.149-1.664 0.819-3.712 1.459-6.298 1.792-0.691 0.077-1.331 0.128-1.946 0.128-2.765-0.025-5.018-0.743-7.296-2.279-3.405-2.253-6.835-6.656-9.933-12.826-3.097-6.144-5.913-13.977-8.55-22.733l-1.101-3.635h-85.734l-1.101 3.635c-3.533 11.673-7.373 21.683-11.751 28.288-2.176 3.303-4.454 5.734-6.733 7.27-2.304 1.511-4.531 2.253-7.296 2.279-0.614 0-1.28-0.051-1.946-0.128-3.456-0.435-5.939-1.408-7.859-2.688-1.434-0.973-2.586-2.15-3.584-3.635-1.485-2.227-2.637-5.197-3.353-8.96s-1.050-8.243-1.024-13.261c0-8.038 0.794-17.459 1.639-27.648 1.229-14.823 2.253-19.635 3.123-26.010 1.127-8.32 4.147-14.771 8.371-19.072 4.224-4.275 9.626-6.656 16.742-6.681 7.834 0 14.797 3.584 19.405 9.216l1.536 1.869h73.446l1.536-1.869c4.608-5.632 11.571-9.216 19.405-9.216 7.117 0.025 12.518 2.406 16.743 6.681 4.198 4.301 7.219 10.752 8.371 19.072 0.87 6.374 1.894 11.187 3.123 26.010 0.845 10.189 1.638 19.584 1.638 27.648-0.051 4.48-0.281 8.499-0.87 11.981z" fill="#000000"></path>
	<path d="M59.673 95.667c-3.021 3.558-4.839 8.141-4.839 13.159 0 5.35 2.074 10.189 5.453 13.824l13.184-13.184-13.799-13.799z" fill="#000000"></path>
	<path d="M62.694 124.851c3.456 2.688 7.757 4.301 12.467 4.301 5.017 0 9.6-1.817 13.159-4.838l-12.544-12.544-13.081 13.082z" fill="#000000"></path>
	<path d="M88.986 93.927c-3.635-3.379-8.474-5.453-13.824-5.453-5.017 0-9.6 1.817-13.159 4.838l13.773 13.799 13.21-13.184z" fill="#000000"></path>
	<path d="M78.106 109.44l12.544 12.544c3.021-3.558 4.838-8.141 4.838-13.159 0-4.71-1.613-9.011-4.301-12.467l-13.082 13.082z" fill="#000000"></path>
</svg>
