<?xml version="1.0" encoding="utf-8"?>
<!-- Generated by IcoMoon.io -->
<!DOCTYPE svg PUBLIC "-//W3C//DTD SVG 1.1//EN" "http://www.w3.org/Graphics/SVG/1.1/DTD/svg11.dtd">
<svg version="1.1" xmlns="http://www.w3.org/2000/svg" xmlns:xlink="http://www.w3.org/1999/xlink" width="256" height="256" viewBox="0 0 256 256">
<g id="icomoon-ignore">
	<line stroke-width="1" x1="" y1="" x2="" y2="" stroke="#449FDB" opacity=""></line>
</g>
	<path d="M205.056 130.509c-0.077-2.329-0.589-4.531-1.536-6.477-1.536-3.2-4.121-5.555-6.963-6.989-2.841-1.459-5.939-2.073-9.037-2.099-2.918 0-5.837 0.615-8.55 1.843-0.256-1.075-0.614-2.125-1.101-3.072-1.561-3.251-4.173-5.632-7.040-7.117s-6.042-2.176-9.165-2.176c-2.841 0-5.709 0.615-8.371 1.817-0.256-0.973-0.589-1.945-1.024-2.816-1.587-3.251-4.198-5.657-7.065-7.142-2.893-1.51-6.067-2.201-9.242-2.201-2.585 0-5.222 0.487-7.68 1.485 0-23.066 0-52.967 0-59.085 0-2.637-0.563-5.12-1.613-7.27-1.587-3.251-4.198-5.657-7.066-7.168-2.893-1.511-6.067-2.201-9.242-2.201-4.198 0-8.499 1.229-12.007 3.994-1.741 1.383-3.251 3.2-4.301 5.351s-1.613 4.659-1.613 7.271c0 5.632 0 49.203 0 84.48h-18.688l-22.835 51.379 33.306 63.846h3.097c0 0 4.813 0 12.16 0 22.067 0 67.2 0 74.88 0 2.995 0 5.734-0.384 8.218-1.305 1.869-0.691 3.584-1.69 5.018-2.97 2.176-1.92 3.686-4.327 4.762-6.861 1.075-2.56 1.792-5.325 2.406-8.345v0c0.845-4.224 1.869-10.649 2.97-18.227 1.638-11.341 3.405-25.216 4.813-37.555 0.691-6.169 1.305-11.955 1.767-16.87 0.435-4.915 0.743-8.934 0.793-11.725v0c-0.025-0.461-0.025-1.511-0.051-1.792zM194.841 131.353v0.717c-0.077 3.097-0.537 8.986-1.255 16.102-1.075 10.726-2.714 24.397-4.377 36.889-1.664 12.467-3.353 23.808-4.531 29.619v0c-0.461 2.355-0.973 4.301-1.561 5.811-0.435 1.126-0.896 1.997-1.357 2.637-0.717 0.973-1.357 1.485-2.381 1.971-1.049 0.461-2.637 0.819-5.018 0.819-9.011 0-69.504 0-83.942 0l-28.135-53.939 18.125-40.781h12.032c0 20.352 0 35.84 0 35.84v5.12h10.24v-5.12c0 0 0-120.883 0-130.56 0-1.203 0.231-2.074 0.589-2.791 0.512-1.075 1.357-1.895 2.611-2.56 1.229-0.64 2.841-1.049 4.48-1.024 2.201 0 4.301 0.691 5.606 1.767 0.665 0.537 1.152 1.127 1.485 1.843 0.359 0.717 0.589 1.587 0.589 2.791 0 7.603 0 51.943 0 74.24 0 8.909 0 6.886 0 12.8h10.24c0 0 0-5.094 0-12.8 0-1.203 0.231-2.073 0.589-2.79 0.512-1.075 1.357-1.894 2.611-2.56 1.229-0.64 2.841-1.049 4.48-1.024 2.202 0 4.301 0.691 5.607 1.766 0.666 0.537 1.152 1.126 1.485 1.843 0.358 0.717 0.589 1.587 0.589 2.79 0 3.763 0 7.27 0 10.24v8.499h10.24c0 0 0-3.405 0-8.499 0-1.152 0.231-1.997 0.589-2.688 0.512-1.024 1.382-1.869 2.637-2.534s2.918-1.049 4.557-1.049c2.202 0 4.275 0.691 5.555 1.715 0.64 0.512 1.126 1.101 1.459 1.792 0.333 0.717 0.563 1.561 0.563 2.765v13.773h10.24v-3.533c0-1.049 0.205-1.767 0.563-2.432 0.512-0.973 1.408-1.843 2.739-2.509s3.047-1.075 4.736-1.049c2.176 0 4.224 0.665 5.401 1.638 0.614 0.487 1.049 1.024 1.382 1.689 0.307 0.666 0.537 1.485 0.537 2.688v0.077z" fill="#000000"></path>
</svg>
