<?xml version="1.0" encoding="utf-8"?>
<!-- Generated by IcoMoon.io -->
<!DOCTYPE svg PUBLIC "-//W3C//DTD SVG 1.1//EN" "http://www.w3.org/Graphics/SVG/1.1/DTD/svg11.dtd">
<svg version="1.1" xmlns="http://www.w3.org/2000/svg" xmlns:xlink="http://www.w3.org/1999/xlink" width="256" height="256" viewBox="0 0 256 256">
<g id="icomoon-ignore">
	<line stroke-width="1" x1="" y1="" x2="" y2="" stroke="#449FDB" opacity=""></line>
</g>
	<path d="M229.837 83.737c-1.459-3.097-3.815-5.504-6.528-7.142-2.739-1.638-5.888-2.534-9.139-2.534s-6.656 0.947-9.6 2.995c-2.944 2.048-5.325 5.222-6.758 9.165l-0.025 0.051-3.763 10.624 5.965-49.741 0.025-0.205c0.051-0.563 0.077-1.127 0.077-1.664 0.025-5.632-2.355-10.522-5.837-13.747-3.482-3.251-7.962-4.992-12.518-5.017-3.584 0-7.347 1.177-10.343 3.789-2.995 2.586-4.992 6.502-5.607 11.136v-0.026l-5.837 41.113c-0.589-11.52-1.203-23.066-1.741-32.538-0.307-5.248-0.563-9.856-0.793-13.465-0.231-3.635-0.41-6.247-0.537-7.68v0c-0.231-2.509-0.896-4.813-1.971-6.835-1.587-3.047-4.071-5.325-6.809-6.707-2.739-1.408-5.734-2.022-8.678-2.022-4.531 0.025-9.011 1.408-12.698 4.25-1.817 1.408-3.43 3.226-4.582 5.401s-1.817 4.736-1.817 7.398c0 0.717 0.051 1.459 0.128 2.202v0c0.051 0.384 0.128 1.255 0.231 2.381 0.359 4.275 0.871 12.697 1.459 22.809 0.665 11.571 1.408 25.446 2.073 38.144-1.843-5.657-3.737-11.443-5.555-16.998-4.736-14.567-8.909-27.392-10.010-30.976v0c-1.152-3.815-3.533-6.912-6.477-8.806-2.918-1.92-6.272-2.713-9.498-2.713-4.582 0.026-9.063 1.536-12.698 4.377-1.817 1.434-3.405 3.225-4.557 5.376s-1.843 4.659-1.843 7.296c0 1.664 0.256 3.353 0.793 5.043 1.126 3.661 7.68 25.063 13.952 45.568 3.123 10.24 6.195 20.275 8.474 27.725 1.766 5.786 3.046 9.984 3.558 11.597-0.025 3.738-0.128 20.275-0.128 22.579 0 1.561-0.665 2.944-2.073 4.147-1.382 1.203-3.456 2.023-5.734 2.023-2.765-0.025-5.837-1.075-8.832-4.454v0c-0.973-1.126-2.253-2.458-3.789-3.994-4.557-4.633-11.29-11.085-16.896-16.717v0c-1.818-1.817-3.943-3.123-6.118-3.917-2.202-0.793-4.455-1.101-6.605-1.101-3.251 0-6.349 0.666-9.216 1.587-4.275 1.382-8.064 3.379-10.829 5.018s-4.531 2.97-4.633 3.047l-0.896 7.322 66.56 81.92 3.968 1.894c0 0 4.813 0 12.16 0 22.067 0 67.2 0 74.88 0 2.995 0 5.734-0.384 8.218-1.305 1.869-0.691 3.584-1.69 5.018-2.97 2.176-1.92 3.686-4.327 4.762-6.861 1.075-2.56 1.792-5.325 2.381-8.345v0c1.638-8.218 4.506-24.755 7.040-41.037 1.255-8.141 2.432-16.179 3.328-23.091 0.845-6.579 1.408-12.058 1.536-15.846 0.154-0.537 0.487-1.638 0.973-3.097 1.843-5.709 5.607-16.743 8.883-26.317 1.638-4.787 3.174-9.216 4.275-12.467 1.126-3.225 1.817-5.273 1.817-5.273l0.051-0.179c0.563-1.817 0.845-3.635 0.845-5.401 0.051-2.381-0.487-4.736-1.459-6.784zM220.723 92.954c-0.461 1.357-4.25 12.314-8.038 23.45-2.023 5.939-4.045 11.93-5.581 16.512-0.768 2.304-1.408 4.25-1.869 5.683-0.231 0.717-0.41 1.305-0.563 1.792-0.077 0.256-0.128 0.461-0.179 0.691l-0.102 0.41c-0.025 0.205-0.077 0.358-0.102 0.973v0c-0.051 2.995-0.614 8.627-1.485 15.386-2.585 20.327-7.885 51.482-10.266 63.411v0c-0.461 2.355-0.973 4.301-1.561 5.786-0.435 1.126-0.896 1.997-1.357 2.637-0.717 0.973-1.357 1.511-2.406 1.971s-2.637 0.819-5.018 0.819c-9.165 0-71.526 0-84.608 0l-61.389-75.546c0.614-0.358 1.28-0.717 1.971-1.075 1.869-0.973 3.993-1.92 6.093-2.585s4.199-1.075 5.939-1.075c1.203 0 2.227 0.179 3.098 0.487 0.87 0.333 1.639 0.793 2.381 1.536v0c3.815 3.815 8.064 7.962 11.801 11.623 1.869 1.843 3.584 3.559 5.043 5.043s2.662 2.739 3.405 3.584v0c4.71 5.376 10.829 7.936 16.512 7.911 4.685 0 9.063-1.638 12.416-4.506 3.328-2.841 5.657-7.091 5.632-11.929 0-1.229 0.025-7.091 0.077-12.595 0.025-5.504 0.077-10.701 0.077-10.701l-0.231-1.536c0 0-23.936-78.311-26.215-85.683-0.231-0.768-0.333-1.434-0.333-2.023 0-0.947 0.205-1.715 0.615-2.483 0.589-1.127 1.741-2.253 3.251-3.072 1.485-0.819 3.328-1.28 4.966-1.28 1.561 0 2.893 0.384 3.865 1.024 0.973 0.666 1.741 1.536 2.304 3.277v0c0.768 2.535 2.867 9.011 5.606 17.408 8.166 25.165 21.965 67.225 21.965 67.225l9.984-1.843c0 0-1.152-23.322-2.458-47.744-0.64-12.211-1.331-24.704-1.92-34.714-0.307-4.992-0.563-9.37-0.793-12.8-0.128-1.715-0.231-3.175-0.333-4.377s-0.179-2.125-0.281-2.816v0c-0.051-0.333-0.051-0.64-0.051-0.921 0-1.050 0.231-1.869 0.64-2.637 0.589-1.127 1.664-2.176 3.174-2.97 1.485-0.768 3.328-1.229 5.069-1.229 2.023 0 3.789 0.589 4.966 1.511 0.589 0.461 1.075 1.024 1.459 1.767s0.717 1.689 0.819 2.995v0c0.102 1.127 0.281 3.763 0.512 7.347 0.768 12.595 2.099 37.35 3.2 58.957 0.563 10.803 1.075 20.813 1.434 28.109 0.358 7.322 0.589 11.904 0.589 11.93l10.189 0.461 13.312-93.747v-0.026c0.384-2.663 1.28-3.968 2.202-4.813 0.947-0.819 2.125-1.229 3.584-1.255 1.843-0.026 3.994 0.794 5.53 2.253 1.536 1.485 2.56 3.405 2.585 6.272 0 0.256 0 0.538-0.025 0.845l-11.417 95.232 9.907 2.329 19.149-53.939c0.819-2.253 1.92-3.481 3.021-4.275 1.126-0.768 2.355-1.127 3.686-1.152 1.767 0 3.635 0.717 4.915 1.843 0.64 0.563 1.126 1.229 1.485 1.945 0.333 0.743 0.537 1.536 0.537 2.509 0 0.743-0.102 1.51-0.384 2.406z" fill="#000000"></path>
</svg>
