<?xml version="1.0" encoding="utf-8"?>
<!-- Generated by IcoMoon.io -->
<!DOCTYPE svg PUBLIC "-//W3C//DTD SVG 1.1//EN" "http://www.w3.org/Graphics/SVG/1.1/DTD/svg11.dtd">
<svg version="1.1" xmlns="http://www.w3.org/2000/svg" xmlns:xlink="http://www.w3.org/1999/xlink" width="256" height="256" viewBox="0 0 256 256">
<g id="icomoon-ignore">
	<line stroke-width="1" x1="" y1="" x2="" y2="" stroke="#449FDB" opacity=""></line>
</g>
	<path d="M230.298 152.397c-0.077-1.792-0.487-3.507-1.229-5.018-1.229-2.56-3.328-4.454-5.555-5.581s-4.633-1.613-7.014-1.638c-1.69 0-3.379 0.256-4.992 0.768-0.102-0.256-0.205-0.537-0.307-0.768-1.255-2.585-3.328-4.506-5.581-5.657-2.253-1.178-4.685-1.69-7.117-1.69-1.638 0-3.303 0.256-4.915 0.768-0.077-0.205-0.154-0.384-0.231-0.589-1.255-2.611-3.328-4.506-5.581-5.683s-4.71-1.715-7.168-1.715c-1.28 0-2.56 0.205-3.815 0.512 0-15.744 0-35.021 0-39.091v0c0-2.048-0.435-4.019-1.28-5.76-1.255-2.611-3.353-4.505-5.607-5.683-2.279-1.177-4.71-1.715-7.168-1.715-3.226 0-6.554 0.921-9.344 3.123-1.382 1.101-2.585 2.534-3.43 4.275-0.845 1.715-1.28 3.712-1.28 5.76v0c0 2.253 0 13.107 0 26.573 0 9.651 0 20.608 0 30.745h-12.493l-16.589 37.427 23.987 45.977h3.097c0 0 23.782 0 41.754 0 8.986 0 16.512 0 18.893 0v0c2.227 0 4.301-0.281 6.272-0.999 1.459-0.537 2.841-1.357 3.968-2.355 1.741-1.536 2.893-3.43 3.712-5.351 0.819-1.946 1.331-3.968 1.767-6.119v0c0.589-2.995 1.305-7.475 2.073-12.774 1.152-7.936 2.381-17.613 3.353-26.24 0.487-4.301 0.922-8.345 1.229-11.802s0.512-6.246 0.563-8.269v-0.025c0-0.307 0-0.512 0-0.666v-0.333c0.051-0.077 0.051-0.179 0.025-0.41zM220.083 153.6c-0.051 2.073-0.358 6.169-0.87 11.111-0.743 7.45-1.894 16.973-3.047 25.651s-2.329 16.563-3.123 20.557v0c-0.307 1.587-0.666 2.867-1.024 3.789-0.256 0.691-0.537 1.178-0.768 1.511-0.358 0.487-0.563 0.64-1.024 0.845-0.487 0.205-1.357 0.435-2.867 0.435v0c-2.381 0-9.907 0-18.893 0s-19.43 0-27.623 0c-4.633 0-8.525 0-11.034 0l-18.841-36.096 11.904-26.829h5.837c0 0.435 0 0.896 0 1.331 0 12.723 0 22.093 0 22.093v5.12h10.24v-5.12c0 0 0-37.453 0-64.409 0-13.491 0-24.346 0-26.599 0-0.64 0.128-0.999 0.256-1.28 0.205-0.409 0.512-0.743 1.152-1.101 0.614-0.333 1.511-0.537 2.406-0.537 1.229 0 2.355 0.409 2.944 0.896 0.307 0.231 0.487 0.461 0.614 0.743s0.256 0.64 0.256 1.28c0 5.299 0 36.198 0 51.737 0 6.195 0 4.813 0 8.935h10.24c0 0 0-0.845 0-2.304 0-1.561 0-3.84 0-6.605 0-0.64 0.128-0.999 0.256-1.28 0.205-0.41 0.512-0.743 1.152-1.101 0.614-0.333 1.511-0.537 2.432-0.537 1.203 0 2.355 0.41 2.918 0.87 0.281 0.231 0.487 0.461 0.614 0.743s0.256 0.64 0.256 1.28c0 2.381 0 4.633 0 6.554 0 0.179 0 0.358 0 0.537 0 0.025 0 0.025 0 0.051v0 5.913h10.24v-2.483c0-0.947 0-2.099 0-3.456 0-0.563 0.102-0.896 0.231-1.152 0.205-0.384 0.512-0.743 1.178-1.075 0.64-0.333 1.536-0.563 2.458-0.563 1.229 0 2.355 0.41 2.893 0.87 0.281 0.231 0.461 0.435 0.589 0.717s0.231 0.614 0.256 1.255v7.066c0 0.025 0 0.051 0 0.077v0 2.458h10.24v-2.483c0-0.461 0.102-0.691 0.205-0.922 0.179-0.333 0.537-0.717 1.229-1.075s1.664-0.589 2.611-0.563c1.229 0 2.329 0.384 2.816 0.793 0.256 0.205 0.41 0.384 0.512 0.64s0.231 0.589 0.231 1.203l2.253 0.077-1.434 0.025h-0.819c-0.025 0-0.025 0.154-0.051 0.41v0zM223.13 153.139v0 0zM224.589 153.19v0 0zM225.561 153.242v0 0zM226.56 153.267v0 0z" fill="#000000"></path>
	<path d="M25.6 28.262v153.113h88.627l18.893-42.419h9.754v-55.834c2.765-18.79 37.53-18.919 39.68 1.433v34.56c0 0 3.559 0.077 7.373 1.766 3.994 1.766 6.246 6.246 6.246 6.246s5.555-1.28 11.673 2.074c4.019 2.202 6.4 5.913 6.4 5.913s9.907-1.792 16.154 5.095v-111.949h-204.8z" fill="#000000"></path>
</svg>
