<?xml version="1.0" encoding="utf-8"?>
<!-- Generated by IcoMoon.io -->
<!DOCTYPE svg PUBLIC "-//W3C//DTD SVG 1.1//EN" "http://www.w3.org/Graphics/SVG/1.1/DTD/svg11.dtd">
<svg version="1.1" xmlns="http://www.w3.org/2000/svg" xmlns:xlink="http://www.w3.org/1999/xlink" width="256" height="256" viewBox="0 0 256 256">
<g id="icomoon-ignore">
	<line stroke-width="1" x1="" y1="" x2="" y2="" stroke="#449FDB" opacity=""></line>
</g>
	<path d="M58.88 90.88c2.125 0 3.84-1.715 3.84-3.84s-1.715-3.84-3.84-3.84h-2.56c-2.125 0-3.84 1.715-3.84 3.84s1.715 3.84 3.84 3.84h2.56z" fill="#000000"></path>
	<path d="M35.84 90.88c2.125 0 3.84-1.715 3.84-3.84s-1.715-3.84-3.84-3.84h-2.56c-2.125 0-3.84 1.715-3.84 3.84s1.715 3.84 3.84 3.84h2.56z" fill="#000000"></path>
	<path d="M81.92 90.88c2.125 0 3.84-1.715 3.84-3.84s-1.715-3.84-3.84-3.84h-2.56c-2.125 0-3.84 1.715-3.84 3.84s1.715 3.84 3.84 3.84h2.56z" fill="#000000"></path>
	<path d="M10.24 90.88h2.56c2.125 0 3.84-1.715 3.84-3.84s-1.715-3.84-3.84-3.84h-2.56c-2.125 0-3.84 1.715-3.84 3.84s1.715 3.84 3.84 3.84z" fill="#000000"></path>
	<path d="M112.64 90.88h2.56c2.125 0 3.84-1.715 3.84-3.84s-1.715-3.84-3.84-3.84h-2.56c-2.125 0-3.84 1.715-3.84 3.84s1.715 3.84 3.84 3.84z" fill="#000000"></path>
	<path d="M135.68 90.88h2.56c2.125 0 3.84-1.715 3.84-3.84s-1.715-3.84-3.84-3.84h-2.56c-2.125 0-3.84 1.715-3.84 3.84s1.715 3.84 3.84 3.84z" fill="#000000"></path>
	<path d="M203.52 87.040c0-2.125-1.715-3.84-3.84-3.84h-2.56c-2.125 0-3.84 1.715-3.84 3.84s1.715 3.84 3.84 3.84h2.56c2.125 0 3.84-1.715 3.84-3.84z" fill="#000000"></path>
	<path d="M174.080 83.2c-2.125 0-3.84 1.715-3.84 3.84s1.715 3.84 3.84 3.84h2.56c2.125 0 3.84-1.715 3.84-3.84s-1.715-3.84-3.84-3.84h-2.56z" fill="#000000"></path>
	<path d="M230.4 90.88h2.56c2.125 0 3.84-1.715 3.84-3.84s-1.715-3.84-3.84-3.84h-2.56c-2.125 0-3.84 1.715-3.84 3.84s1.715 3.84 3.84 3.84z" fill="#000000"></path>
	<path d="M245.76 168.96h-143.36v-16.025c7.194-1.843 12.826-7.501 14.695-14.695h21.145c14.106-0.025 25.575-11.495 25.6-25.6v-46.745c7.194-1.843 12.826-7.501 14.695-14.694h16.025c4.224 0 8.038 1.715 10.855 4.505 2.791 2.816 4.506 6.63 4.506 10.854v46.746c-8.832 2.278-15.36 10.266-15.36 19.815 0 11.315 9.165 20.48 20.48 20.48s20.48-9.165 20.48-20.48c0-9.549-6.528-17.536-15.36-19.814v-46.746c-0.025-14.105-11.494-25.575-25.6-25.6h-16.025c-2.279-8.832-10.266-15.36-19.815-15.36-11.315 0-20.48 9.165-20.48 20.48 0 9.549 6.528 17.536 15.36 19.814v46.745c0 4.224-1.715 8.038-4.506 10.855-2.816 2.79-6.631 4.506-10.855 4.506h-21.145c-1.843-7.194-7.501-12.826-14.695-14.695v-46.745c0-6.861-2.432-13.159-6.528-17.843-4.070-4.659-9.959-7.757-16.512-7.757-4.941 0-9.421 0-12.647 0-0.281 0-0.537 0-0.819 0-2.279-8.832-10.266-15.36-19.814-15.36-11.315 0-20.48 9.165-20.48 20.48s9.165 20.48 20.48 20.48c9.549 0 17.536-6.528 19.814-15.36 0.256 0 0.537 0 0.819 0 3.251 0 7.731 0 12.647 0 3.302 0 6.374 1.511 8.806 4.275 2.406 2.739 3.993 6.681 3.993 11.085v46.746c-8.832 2.278-15.36 10.266-15.36 19.815s6.528 17.536 15.36 19.815v16.025h-81.92c-2.816 0-5.12 2.304-5.12 5.12s2.304 5.12 5.12 5.12h81.92v21.145c-8.832 2.279-15.36 10.266-15.36 19.815 0 11.315 9.165 20.48 20.48 20.48s20.48-9.165 20.48-20.48c0-9.549-6.528-17.536-15.36-19.815v-21.145h143.36c2.816 0 5.12-2.304 5.12-5.12s-2.304-5.12-5.12-5.12zM225.28 133.12c0 2.841-1.126 5.376-2.995 7.245s-4.403 2.995-7.245 2.995c-2.841 0-5.376-1.126-7.245-2.995s-2.995-4.403-2.995-7.245c0-2.841 1.126-5.376 2.995-7.245s4.403-2.995 7.245-2.995c2.841 0 5.376 1.127 7.245 2.995s2.995 4.403 2.995 7.245zM148.48 46.080c0-2.841 1.126-5.376 2.995-7.245s4.403-2.995 7.245-2.995c2.841 0 5.376 1.127 7.245 2.995s2.995 4.403 2.995 7.245c0 2.841-1.126 5.376-2.995 7.245s-4.403 2.995-7.245 2.995c-2.841 0-5.376-1.127-7.245-2.995s-2.995-4.403-2.995-7.245zM53.325 53.325c-1.869 1.869-4.403 2.995-7.245 2.995s-5.376-1.127-7.245-2.995c-1.869-1.869-2.995-4.403-2.995-7.245s1.127-5.376 2.995-7.245c1.869-1.869 4.403-2.995 7.245-2.995s5.376 1.127 7.245 2.995c1.869 1.869 2.995 4.403 2.995 7.245s-1.127 5.376-2.995 7.245zM87.040 133.12c0-2.841 1.127-5.376 2.995-7.245s4.403-2.995 7.245-2.995c2.841 0 5.376 1.127 7.245 2.995s2.995 4.403 2.995 7.245c0 2.841-1.127 5.376-2.995 7.245s-4.403 2.995-7.245 2.995c-2.841 0-5.376-1.126-7.245-2.995s-2.995-4.403-2.995-7.245zM107.52 220.16c0 2.841-1.127 5.376-2.995 7.245s-4.403 2.995-7.245 2.995c-2.841 0-5.376-1.126-7.245-2.995s-2.995-4.403-2.995-7.245c0-2.841 1.127-5.376 2.995-7.245s4.403-2.995 7.245-2.995c2.841 0 5.376 1.126 7.245 2.995s2.995 4.403 2.995 7.245z" fill="#000000"></path>
</svg>
