<?xml version="1.0" encoding="utf-8"?>
<!-- Generated by IcoMoon.io -->
<!DOCTYPE svg PUBLIC "-//W3C//DTD SVG 1.1//EN" "http://www.w3.org/Graphics/SVG/1.1/DTD/svg11.dtd">
<svg version="1.1" xmlns="http://www.w3.org/2000/svg" xmlns:xlink="http://www.w3.org/1999/xlink" width="256" height="256" viewBox="0 0 256 256">
<g id="icomoon-ignore">
	<line stroke-width="1" x1="" y1="" x2="" y2="" stroke="#449FDB" opacity=""></line>
</g>
	<path d="M201.779 42.778c-1.203-0.538-2.509-0.794-3.789-0.794-1.715 0-3.353 0.435-4.864 1.152l-38.297 17.92c-0.947 0.461-2.867 0.87-4.787 0.87-1.92 0.026-3.84-0.384-4.787-0.87l-38.297-17.946c-2.893-1.331-6.016-1.818-9.165-1.843-3.123 0.026-6.221 0.486-9.088 1.792l-38.349 17.792c-3.047 1.434-5.376 3.763-7.091 6.425-1.69 2.688-2.816 5.76-2.842 9.139v127.437c0 2.509 0.717 5.069 2.458 7.091 0.845 0.999 1.946 1.817 3.149 2.355s2.509 0.793 3.789 0.793c1.69 0 3.328-0.41 4.839-1.126v0l38.374-17.767c0.947-0.461 2.867-0.87 4.761-0.845 1.92-0.025 3.891 0.41 4.838 0.87l38.374 17.997c2.867 1.331 5.99 1.817 9.113 1.817 3.149-0.025 6.246-0.512 9.139-1.843l38.221-17.997c3.047-1.459 5.351-3.789 7.040-6.451 1.69-2.688 2.816-5.76 2.841-9.139v-127.411c0-2.509-0.717-5.069-2.432-7.066-0.845-0.998-1.946-1.818-3.149-2.355zM171.111 118.528c-0.154 0.589-0.307 1.049-0.41 1.357l-0.102 0.307v0.025c-1.536 3.533-4.71 9.651-6.758 12.903l-0.025 0.025-8.089 13.133 0.025-0.025c-1.69 2.739-3.917 6.349-5.607 9.088-1.69-2.739-3.891-6.349-5.581-9.088l-8.167-13.338c-2.099-3.405-5.351-9.037-7.296-12.595-0.128-0.487-0.537-2.381-0.537-6.579 0-5.785 2.381-10.983 6.298-14.823s9.293-6.195 15.283-6.195c5.99 0 11.367 2.381 15.283 6.195 3.917 3.84 6.298 9.063 6.298 14.823 0 1.894-0.307 3.609-0.614 4.787zM148.685 157.671v0 0 0zM88.704 185.907l-38.067 17.638v-127.104c-0.026-0.845 0.41-2.329 1.255-3.609 0.819-1.305 1.997-2.304 2.765-2.637l38.297-17.767v132.147c-1.459 0.281-2.867 0.717-4.249 1.331v0zM106.957 185.958c-1.229-0.563-2.483-0.947-3.763-1.229v-132.071l37.709 17.664c1.178 0.537 2.432 0.921 3.661 1.203v11.443c-6.528 1.152-12.391 4.198-16.896 8.627-5.76 5.632-9.37 13.491-9.37 22.144 0.025 7.398 0.973 9.959 1.613 11.187 2.099 3.815 5.555 9.779 7.834 13.491l8.064 13.159c2.202 3.609 5.351 8.73 6.963 11.367 0.487 0.768 1.101 1.459 1.767 2.125v38.502l-37.581-17.613zM195.891 183.27c-0.819 1.305-1.997 2.329-2.765 2.662l-38.246 17.997c-0.025 0-0.025 0-0.051 0.025v-38.144c1.075-0.793 1.971-1.741 2.637-2.841 1.638-2.662 4.787-7.757 6.989-11.341l8.089-13.133c2.406-3.917 5.581-10.010 7.424-14.233v0c0.154-0.384 1.971-4.557 1.997-10.547 0-8.653-3.609-16.512-9.369-22.144-4.71-4.608-10.905-7.757-17.767-8.755v-11.136c1.485-0.281 2.944-0.717 4.352-1.382l37.939-17.715v127.053c0.025 0.845-0.41 2.329-1.229 3.635z" fill="#000000"></path>
	<path d="M149.837 97.049c-4.327 0-8.269 1.715-11.136 4.505s-4.685 6.707-4.685 11.034c0 4.326 1.817 8.243 4.685 11.034s6.835 4.505 11.136 4.505c4.327 0 8.269-1.715 11.136-4.505s4.685-6.707 4.685-11.034c0-4.326-1.817-8.243-4.685-11.034-2.841-2.816-6.809-4.505-11.136-4.505zM153.856 116.275c-1.024 0.973-2.406 1.587-3.994 1.613-1.613 0-2.995-0.615-3.994-1.613s-1.587-2.253-1.587-3.686c0-1.433 0.589-2.713 1.587-3.686 1.024-0.973 2.406-1.587 3.994-1.613 1.587 0 2.995 0.615 3.994 1.613s1.587 2.253 1.587 3.686c0 1.408-0.589 2.688-1.587 3.686z" fill="#000000"></path>
</svg>
