<?xml version="1.0" encoding="utf-8"?>
<!-- Generated by IcoMoon.io -->
<!DOCTYPE svg PUBLIC "-//W3C//DTD SVG 1.1//EN" "http://www.w3.org/Graphics/SVG/1.1/DTD/svg11.dtd">
<svg version="1.1" xmlns="http://www.w3.org/2000/svg" xmlns:xlink="http://www.w3.org/1999/xlink" width="256" height="256" viewBox="0 0 256 256">
<g id="icomoon-ignore">
	<line stroke-width="1" x1="" y1="" x2="" y2="" stroke="#449FDB" opacity=""></line>
</g>
	<path d="M39.782 201.677h67.302l21.427 29.645 22.119-29.645h67.968c7.065-0.025 12.774-5.734 12.8-12.8v-122.547c-0.025-7.066-5.734-12.775-12.8-12.8h-178.816c-7.066 0.026-12.774 5.734-12.8 12.8v122.547c0 7.066 5.709 12.774 12.8 12.8zM37.222 66.329c0-0.691 0.282-1.305 0.768-1.792s1.101-0.742 1.792-0.768h178.841c0.691 0 1.305 0.281 1.792 0.768s0.743 1.101 0.768 1.792v122.547c0 0.691-0.281 1.305-0.768 1.792s-1.101 0.743-1.792 0.768h-73.114l-16.845 22.579-16.307-22.579h-72.602c-0.691 0-1.306-0.281-1.792-0.768s-0.742-1.101-0.768-1.792v-122.547z" fill="#000000"></path>
</svg>
