<?xml version="1.0" encoding="utf-8"?>
<!-- Generated by IcoMoon.io -->
<!DOCTYPE svg PUBLIC "-//W3C//DTD SVG 1.1//EN" "http://www.w3.org/Graphics/SVG/1.1/DTD/svg11.dtd">
<svg version="1.1" xmlns="http://www.w3.org/2000/svg" xmlns:xlink="http://www.w3.org/1999/xlink" width="256" height="256" viewBox="0 0 256 256">
<g id="icomoon-ignore">
	<line stroke-width="1" x1="" y1="" x2="" y2="" stroke="#449FDB" opacity=""></line>
</g>
	<path d="M54.784 195.303h-31.744c-1.408 0-2.56 1.152-2.56 2.56v6.579c0 1.408 1.152 2.56 2.56 2.56h31.744c1.408 0 2.56-1.152 2.56-2.56v-6.579c0-1.408-1.152-2.56-2.56-2.56z" fill="#000000"></path>
	<path d="M232.96 195.303h-31.744c-1.408 0-2.56 1.152-2.56 2.56v6.579c0 1.408 1.152 2.56 2.56 2.56h31.744c1.408 0 2.56-1.152 2.56-2.56v-6.579c0-1.408-1.152-2.56-2.56-2.56z" fill="#000000"></path>
	<path d="M167.962 210.867h-79.923c-1.408 0-2.56 1.152-2.56 2.56v21.069c0 1.408 1.152 2.56 2.56 2.56h79.897c1.408 0 2.56-1.152 2.56-2.56v-21.069c0.025-1.408-1.126-2.56-2.535-2.56z" fill="#000000"></path>
	<path d="M189.952 195.303h-123.904c-1.408 0-2.56 1.152-2.56 2.56v6.579c0 1.408 1.152 2.56 2.56 2.56h123.904c1.408 0 2.56-1.152 2.56-2.56v-6.579c0-1.408-1.152-2.56-2.56-2.56z" fill="#000000"></path>
	<path d="M23.040 191.411h13.312c1.408 0 2.56-1.152 2.56-2.56v-6.579c0-1.408-1.152-2.56-2.56-2.56h-13.312c-1.408 0-2.56 1.152-2.56 2.56v6.579c0 1.408 1.152 2.56 2.56 2.56z" fill="#000000"></path>
	<path d="M63.488 182.272c0-1.408-1.152-2.56-2.56-2.56h-13.312c-1.408 0-2.56 1.152-2.56 2.56v6.579c0 1.408 1.152 2.56 2.56 2.56h13.312c1.408 0 2.56-1.152 2.56-2.56v-6.579z" fill="#000000"></path>
	<path d="M72.192 191.411h13.312c1.408 0 2.56-1.152 2.56-2.56v-6.579c0-1.408-1.152-2.56-2.56-2.56h-13.312c-1.408 0-2.56 1.152-2.56 2.56v6.579c0 1.408 1.152 2.56 2.56 2.56z" fill="#000000"></path>
	<path d="M96.768 191.411h13.312c1.408 0 2.56-1.152 2.56-2.56v-6.579c0-1.408-1.152-2.56-2.56-2.56h-13.312c-1.408 0-2.56 1.152-2.56 2.56v6.579c0 1.408 1.152 2.56 2.56 2.56z" fill="#000000"></path>
	<path d="M121.344 191.411h13.312c1.408 0 2.56-1.152 2.56-2.56v-6.579c0-1.408-1.152-2.56-2.56-2.56h-13.312c-1.408 0-2.56 1.152-2.56 2.56v6.579c0 1.408 1.152 2.56 2.56 2.56z" fill="#000000"></path>
	<path d="M145.92 191.411h13.312c1.408 0 2.56-1.152 2.56-2.56v-6.579c0-1.408-1.152-2.56-2.56-2.56h-13.312c-1.408 0-2.56 1.152-2.56 2.56v6.579c0 1.408 1.152 2.56 2.56 2.56z" fill="#000000"></path>
	<path d="M170.496 191.411h13.312c1.408 0 2.56-1.152 2.56-2.56v-6.579c0-1.408-1.152-2.56-2.56-2.56h-13.312c-1.408 0-2.56 1.152-2.56 2.56v6.579c0 1.408 1.152 2.56 2.56 2.56z" fill="#000000"></path>
	<path d="M210.944 188.851v-6.579c0-1.408-1.152-2.56-2.56-2.56h-13.312c-1.408 0-2.56 1.152-2.56 2.56v6.579c0 1.408 1.152 2.56 2.56 2.56h13.312c1.408 0 2.56-1.152 2.56-2.56z" fill="#000000"></path>
	<path d="M232.96 179.712h-13.312c-1.408 0-2.56 1.152-2.56 2.56v6.579c0 1.408 1.152 2.56 2.56 2.56h13.312c1.408 0 2.56-1.152 2.56-2.56v-6.579c0-1.408-1.152-2.56-2.56-2.56z" fill="#000000"></path>
	<path d="M23.040 160.179h13.312c1.408 0 2.56-1.152 2.56-2.56v-6.579c0-1.408-1.152-2.56-2.56-2.56h-13.312c-1.408 0-2.56 1.152-2.56 2.56v6.579c0 1.408 1.152 2.56 2.56 2.56z" fill="#000000"></path>
	<path d="M47.616 160.179h13.312c1.408 0 2.56-1.152 2.56-2.56v-6.579c0-1.408-1.152-2.56-2.56-2.56h-13.312c-1.408 0-2.56 1.152-2.56 2.56v6.579c0 1.408 1.152 2.56 2.56 2.56z" fill="#000000"></path>
	<path d="M72.192 160.179h13.312c1.408 0 2.56-1.152 2.56-2.56v-6.579c0-1.408-1.152-2.56-2.56-2.56h-13.312c-1.408 0-2.56 1.152-2.56 2.56v6.579c0 1.408 1.152 2.56 2.56 2.56z" fill="#000000"></path>
	<path d="M96.768 160.179h13.312c1.408 0 2.56-1.152 2.56-2.56v-6.579c0-1.408-1.152-2.56-2.56-2.56h-13.312c-1.408 0-2.56 1.152-2.56 2.56v6.579c0 1.408 1.152 2.56 2.56 2.56z" fill="#000000"></path>
	<path d="M121.344 160.179h13.312c1.408 0 2.56-1.152 2.56-2.56v-6.579c0-1.408-1.152-2.56-2.56-2.56h-13.312c-1.408 0-2.56 1.152-2.56 2.56v6.579c0 1.408 1.152 2.56 2.56 2.56z" fill="#000000"></path>
	<path d="M145.92 160.179h13.312c1.408 0 2.56-1.152 2.56-2.56v-6.579c0-1.408-1.152-2.56-2.56-2.56h-13.312c-1.408 0-2.56 1.152-2.56 2.56v6.579c0 1.408 1.152 2.56 2.56 2.56z" fill="#000000"></path>
	<path d="M170.496 160.179h13.312c1.408 0 2.56-1.152 2.56-2.56v-6.579c0-1.408-1.152-2.56-2.56-2.56h-13.312c-1.408 0-2.56 1.152-2.56 2.56v6.579c0 1.408 1.152 2.56 2.56 2.56z" fill="#000000"></path>
	<path d="M195.072 160.179h13.312c1.408 0 2.56-1.152 2.56-2.56v-6.579c0-1.408-1.152-2.56-2.56-2.56h-13.312c-1.408 0-2.56 1.152-2.56 2.56v6.579c0 1.408 1.152 2.56 2.56 2.56z" fill="#000000"></path>
	<path d="M232.96 148.48h-13.312c-1.408 0-2.56 1.152-2.56 2.56v6.579c0 1.408 1.152 2.56 2.56 2.56h13.312c1.408 0 2.56-1.152 2.56-2.56v-6.579c0-1.408-1.152-2.56-2.56-2.56z" fill="#000000"></path>
	<path d="M23.040 175.795h25.6c1.408 0 2.56-1.152 2.56-2.56v-6.579c0-1.408-1.152-2.56-2.56-2.56h-25.6c-1.408 0-2.56 1.152-2.56 2.56v6.579c0 1.408 1.152 2.56 2.56 2.56z" fill="#000000"></path>
	<path d="M75.776 173.235v-6.579c0-1.408-1.152-2.56-2.56-2.56h-13.312c-1.408 0-2.56 1.152-2.56 2.56v6.579c0 1.408 1.152 2.56 2.56 2.56h13.312c1.408 0 2.56-1.152 2.56-2.56z" fill="#000000"></path>
	<path d="M100.352 173.235v-6.579c0-1.408-1.152-2.56-2.56-2.56h-13.312c-1.408 0-2.56 1.152-2.56 2.56v6.579c0 1.408 1.152 2.56 2.56 2.56h13.312c1.408 0 2.56-1.152 2.56-2.56z" fill="#000000"></path>
	<path d="M124.928 173.235v-6.579c0-1.408-1.152-2.56-2.56-2.56h-13.312c-1.408 0-2.56 1.152-2.56 2.56v6.579c0 1.408 1.152 2.56 2.56 2.56h13.312c1.408 0 2.56-1.152 2.56-2.56z" fill="#000000"></path>
	<path d="M149.504 173.235v-6.579c0-1.408-1.152-2.56-2.56-2.56h-13.312c-1.408 0-2.56 1.152-2.56 2.56v6.579c0 1.408 1.152 2.56 2.56 2.56h13.312c1.408 0 2.56-1.152 2.56-2.56z" fill="#000000"></path>
	<path d="M174.080 173.235v-6.579c0-1.408-1.152-2.56-2.56-2.56h-13.312c-1.408 0-2.56 1.152-2.56 2.56v6.579c0 1.408 1.152 2.56 2.56 2.56h13.312c1.408 0 2.56-1.152 2.56-2.56z" fill="#000000"></path>
	<path d="M198.656 173.235v-6.579c0-1.408-1.152-2.56-2.56-2.56h-13.312c-1.408 0-2.56 1.152-2.56 2.56v6.579c0 1.408 1.152 2.56 2.56 2.56h13.312c1.408 0 2.56-1.152 2.56-2.56z" fill="#000000"></path>
	<path d="M232.96 164.096h-25.6c-1.408 0-2.56 1.152-2.56 2.56v6.579c0 1.408 1.152 2.56 2.56 2.56h25.6c1.408 0 2.56-1.152 2.56-2.56v-6.579c0-1.408-1.152-2.56-2.56-2.56z" fill="#000000"></path>
	<path d="M235.52 5.12h-215.040c-8.473 0.026-15.335 6.886-15.36 15.36v215.040c0.026 8.474 6.886 15.334 15.36 15.36h215.040c8.474-0.025 15.334-6.887 15.36-15.36v-215.040c-0.025-8.473-6.887-15.335-15.36-15.36zM15.36 20.48c0-1.408 0.563-2.663 1.511-3.61s2.201-1.511 3.61-1.511h215.040c1.408 0 2.662 0.563 3.609 1.511s1.511 2.201 1.511 3.61v113.92h-225.28v-113.92zM239.13 239.13c-0.947 0.947-2.202 1.511-3.609 1.511h-215.040c-1.408 0-2.663-0.563-3.61-1.511s-1.511-2.202-1.511-3.609v-93.44h225.28v93.44c0 1.408-0.563 2.662-1.511 3.609z" fill="#000000"></path>
	<path d="M21.171 20.48h214.349v107.52h-214.349v-107.52z" fill="#000000"></path>
</svg>
