<?xml version="1.0" encoding="utf-8"?>
<!-- Generated by IcoMoon.io -->
<!DOCTYPE svg PUBLIC "-//W3C//DTD SVG 1.1//EN" "http://www.w3.org/Graphics/SVG/1.1/DTD/svg11.dtd">
<svg version="1.1" xmlns="http://www.w3.org/2000/svg" xmlns:xlink="http://www.w3.org/1999/xlink" width="256" height="256" viewBox="0 0 256 256">
<g id="icomoon-ignore">
	<line stroke-width="1" x1="" y1="" x2="" y2="" stroke="#449FDB" opacity=""></line>
</g>
	<path d="M218.291 30.413h-178.483c-7.066 0.026-12.774 5.735-12.8 12.8v154.317c0.026 7.066 5.735 12.774 12.8 12.8h178.483c7.065-0.025 12.774-5.734 12.8-12.8v-154.317c-0.025-7.066-5.709-12.774-12.8-12.8zM38.016 41.421c0.486-0.486 1.101-0.742 1.818-0.768h178.483c0.691 0 1.305 0.282 1.792 0.768s0.743 1.101 0.768 1.792v13.543h-183.629v-13.543c0-0.691 0.282-1.306 0.768-1.792zM220.109 199.321c-0.487 0.487-1.101 0.743-1.792 0.768h-178.509c-0.691 0-1.306-0.281-1.818-0.768-0.486-0.487-0.742-1.101-0.742-1.792v-130.535h183.603v130.535c0 0.691-0.281 1.305-0.743 1.792z" fill="#000000"></path>
	<path d="M53.504 48.973c0 2.828-2.292 5.12-5.12 5.12s-5.12-2.292-5.12-5.12c0-2.828 2.292-5.12 5.12-5.12s5.12 2.292 5.12 5.12z" fill="#000000"></path>
	<path d="M68.736 48.973c0 2.828-2.292 5.12-5.12 5.12s-5.12-2.292-5.12-5.12c0-2.828 2.292-5.12 5.12-5.12s5.12 2.292 5.12 5.12z" fill="#000000"></path>
	<path d="M83.968 48.973c0 2.828-2.292 5.12-5.12 5.12s-5.12-2.292-5.12-5.12c0-2.828 2.292-5.12 5.12-5.12s5.12 2.292 5.12 5.12z" fill="#000000"></path>
	<path d="M78.848 160.102h102.707v10.24h-102.707v-10.24z" fill="#000000"></path>
	<path d="M78.848 143.257h102.707v10.24h-102.707v-10.24z" fill="#000000"></path>
	<path d="M79.001 126.387h45.44v10.24h-45.44v-10.24z" fill="#000000"></path>
	<path d="M79.001 109.517h45.44v10.24h-45.44v-10.24z" fill="#000000"></path>
	<path d="M79.155 92.647h45.44v10.24h-45.44v-10.24z" fill="#000000"></path>
	<path d="M179.174 93.952h-45.415v42.010h45.415v-42.010zM168.935 125.722h-24.935v-21.529h24.935v21.529z" fill="#000000"></path>
</svg>
