<?xml version="1.0" encoding="utf-8"?>
<!-- Generated by IcoMoon.io -->
<!DOCTYPE svg PUBLIC "-//W3C//DTD SVG 1.1//EN" "http://www.w3.org/Graphics/SVG/1.1/DTD/svg11.dtd">
<svg version="1.1" xmlns="http://www.w3.org/2000/svg" xmlns:xlink="http://www.w3.org/1999/xlink" width="256" height="256" viewBox="0 0 256 256">
<g id="icomoon-ignore">
	<line stroke-width="1" x1="" y1="" x2="" y2="" stroke="#449FDB" opacity=""></line>
</g>
	<path d="M208.819 74.24h-161.638c-7.066 0.025-12.775 5.734-12.8 12.8v81.92c0.026 7.065 5.734 12.774 12.8 12.8h161.613c7.066-0.025 12.774-5.734 12.8-12.8v-81.92c0-7.066-5.709-12.775-12.774-12.8zM210.611 170.752c-0.487 0.487-1.101 0.743-1.817 0.768h-161.613c-0.691 0-1.306-0.281-1.818-0.768-0.486-0.487-0.742-1.101-0.742-1.792v-81.92c0-0.691 0.282-1.305 0.742-1.792 0.486-0.487 1.101-0.743 1.818-0.768h161.613c0.691 0 1.305 0.281 1.817 0.768 0.487 0.487 0.743 1.101 0.743 1.792v81.92c0.025 0.691-0.256 1.305-0.743 1.792z" fill="#000000"></path>
	<path d="M158.976 97.51c-1.715-1.536-3.942-2.509-6.451-2.509h-6.451v6.451h6.451c1.741 0 3.226 1.485 3.226 3.225v45.133c0 1.741-1.485 3.226-3.226 3.226h-6.451v6.451h6.451c2.483 0 4.736-0.973 6.451-2.509 1.715 1.536 3.968 2.509 6.451 2.509h6.451v-6.451h-6.451c-1.741 0-3.226-1.485-3.226-3.226v-45.159c0-1.741 1.459-3.225 3.226-3.225h6.451v-6.451h-6.451c-2.483 0.025-4.736 0.973-6.451 2.534z" fill="#000000"></path>
	<path d="M79.104 119.885l-8.755 3.021v-8.934h-4.659v9.011l-8.704-3.123-1.587 4.454 8.832 2.867-5.504 7.578 4.096 2.841 5.325-7.885 5.248 7.885 3.968-2.841-5.427-7.578 8.781-2.867z" fill="#000000"></path>
	<path d="M111.155 119.885l-8.781 3.021v-8.934h-4.659v9.011l-8.678-3.123-1.613 4.454 8.832 2.867-5.504 7.578 4.096 2.841 5.325-7.885 5.248 7.885 3.993-2.841-5.427-7.578 8.755-2.867z" fill="#000000"></path>
	<path d="M143.181 119.885l-8.781 3.021v-8.934h-4.659v9.011l-8.678-3.123-1.613 4.454 8.858 2.867-5.504 7.578 4.096 2.841 5.325-7.885 5.248 7.885 3.968-2.841-5.427-7.578 8.755-2.867z" fill="#000000"></path>
</svg>
