<?xml version="1.0" encoding="utf-8"?>
<!-- Generated by IcoMoon.io -->
<!DOCTYPE svg PUBLIC "-//W3C//DTD SVG 1.1//EN" "http://www.w3.org/Graphics/SVG/1.1/DTD/svg11.dtd">
<svg version="1.1" xmlns="http://www.w3.org/2000/svg" xmlns:xlink="http://www.w3.org/1999/xlink" width="256" height="256" viewBox="0 0 256 256">
<g id="icomoon-ignore">
	<line stroke-width="1" x1="" y1="" x2="" y2="" stroke="#449FDB" opacity=""></line>
</g>
	<path d="M205.415 69.837h-39.655v-14.822c-0.025-7.066-5.734-12.774-12.8-12.8h-25.728v-12.185c-0.025-3.558-2.841-6.375-6.4-6.4h-38.093c-3.558 0.026-6.374 2.841-6.4 6.4v12.185h-25.754c-7.066 0.026-12.775 5.734-12.8 12.8v138.24c0.026 7.065 5.734 12.774 12.8 12.8h39.629v14.822c0.025 7.065 5.734 12.774 12.8 12.8h102.374c7.065-0.025 12.774-5.734 12.8-12.8v-138.24c0-7.091-5.709-12.8-12.774-12.8zM84.019 31.283h35.533v10.905h-35.533v-10.905zM50.586 195.815c-0.691 0-1.306-0.281-1.818-0.768-0.486-0.487-0.742-1.101-0.742-1.792v-138.24c0-0.691 0.282-1.306 0.742-1.792 0.486-0.486 1.101-0.742 1.818-0.768h19.072v11.802h64.231v-11.802h19.072c0.691 0 1.305 0.282 1.817 0.768 0.487 0.486 0.743 1.101 0.743 1.792v14.823h-5.632c-3.072 0.025-6.093 0.793-8.96 1.945-2.867 1.177-5.581 2.739-7.782 4.864l-35.891 35.123c-2.201 2.176-3.789 4.864-5.017 7.731-1.203 2.867-1.997 5.888-2.022 8.986v67.302h-39.629zM138.087 86.144v26.317c0 0.691-0.281 1.305-0.743 1.792-0.487 0.487-1.101 0.743-1.817 0.768h-26.957l29.517-28.877zM207.975 220.877c0 0.691-0.281 1.305-0.743 1.792-0.487 0.487-1.101 0.743-1.817 0.768h-102.4c-0.691 0-1.305-0.281-1.817-0.768-0.487-0.487-0.743-1.101-0.743-1.792v-92.391c0-0.768 0.205-1.971 0.563-3.225h34.483c7.065-0.025 12.774-5.734 12.8-12.8v-32.231c0.589-0.103 1.152-0.179 1.561-0.179h55.501c0.691 0 1.305 0.281 1.817 0.768 0.487 0.487 0.743 1.101 0.743 1.792v138.266z" fill="#000000"></path>
</svg>
