<?xml version="1.0" encoding="utf-8"?>
<!-- Generated by IcoMoon.io -->
<!DOCTYPE svg PUBLIC "-//W3C//DTD SVG 1.1//EN" "http://www.w3.org/Graphics/SVG/1.1/DTD/svg11.dtd">
<svg version="1.1" xmlns="http://www.w3.org/2000/svg" xmlns:xlink="http://www.w3.org/1999/xlink" width="256" height="256" viewBox="0 0 256 256">
<g id="icomoon-ignore">
	<line stroke-width="1" x1="" y1="" x2="" y2="" stroke="#449FDB" opacity=""></line>
</g>
	<path d="M33.511 96.793h-7.040v14.055h7.040v-7.014z" fill="#000000"></path>
	<path d="M40.525 75.699h35.2v-49.28h-49.28v49.28h14.080zM33.511 61.645v-28.16h35.2v35.2h-35.2v-7.040z" fill="#000000"></path>
	<path d="M33.511 153.063v21.095h7.014v-7.040h7.040v-14.054h-7.040z" fill="#000000"></path>
	<path d="M54.605 61.645h7.040v-21.12h-21.12v21.12h7.040z" fill="#000000"></path>
	<path d="M54.605 110.848h7.040v-21.094h21.094v-7.014h-49.229v7.014h7.014v7.040h7.040v-7.040h7.040v7.040h-7.040v7.040h-7.040v7.014h-7.014v7.040h14.054v-7.040z" fill="#000000"></path>
	<path d="M47.565 167.117h7.040v7.040h-7.040v-7.040z" fill="#000000"></path>
	<path d="M47.565 195.251h-7.040v21.095h21.12v-21.095h-7.040z" fill="#000000"></path>
	<path d="M61.645 124.928v-7.040h-14.080v7.040h7.040v7.014h7.040z" fill="#000000"></path>
	<path d="M61.645 138.982h-7.040v-7.040h-28.134v7.040h7.040v7.040h14.054v7.040h14.080v21.095h14.055v-7.040h-7.040v-7.040h7.040v-7.014h-7.040v-7.040h7.040v-7.040h-7.040z" fill="#000000"></path>
	<path d="M61.645 181.171h-35.2v49.229h49.28v-49.28h-14.080zM68.659 195.251v28.16h-35.2v-35.2h35.2v7.040z" fill="#000000"></path>
	<path d="M68.659 96.793h7.040v7.040h-7.040v-7.040z" fill="#000000"></path>
	<path d="M82.739 124.928v-14.080h7.014v-7.014h7.040v-7.040h14.055v7.040h7.040v7.014h14.055v-14.055h-7.014v-7.040h-35.174v7.040h-7.014v7.040h-7.040v7.014h-14.055v7.040h14.055v7.040h-7.040v7.015h7.040v7.040h7.040v-7.040z" fill="#000000"></path>
	<path d="M82.739 26.471h7.040v7.040h-7.040v-7.040z" fill="#000000"></path>
	<path d="M82.739 138.982h7.040v7.040h-7.040v-7.040z" fill="#000000"></path>
	<path d="M89.754 131.942h7.040v7.040h-7.040v-7.040z" fill="#000000"></path>
	<path d="M89.754 146.023h7.040v7.040h-7.040v-7.040z" fill="#000000"></path>
	<path d="M89.754 174.157h-7.014v49.203h7.014v-7.014h14.080v7.014h-7.040v7.040h14.055v-21.095h-7.014v-7.040h-7.040v7.040h-7.040v-28.135h7.040v-14.054h-7.040z" fill="#000000"></path>
	<path d="M96.793 160.077v7.040h7.040v-14.054h-7.040z" fill="#000000"></path>
	<path d="M96.793 195.251h7.040v-14.080h-7.040v7.040z" fill="#000000"></path>
	<path d="M103.834 75.699v-7.040h-7.040v7.040h-7.040v7.040h28.135v-14.080h-7.040v7.040z" fill="#000000"></path>
	<path d="M117.888 167.117v-7.040h-7.040v14.080h14.080v-7.040z" fill="#000000"></path>
	<path d="M131.942 68.659h-7.014v14.080h14.054v-7.040h-7.040z" fill="#000000"></path>
	<path d="M124.928 117.888v7.040h21.095v7.015h7.014v-7.014h14.080v7.014h21.095v-14.055h-7.040v-7.040h-7.014v7.040h-21.12v-7.040h-21.095v7.040z" fill="#000000"></path>
	<path d="M131.942 160.077v-7.014h-7.014v-14.080h7.014v14.080h14.080v-7.040h-7.040v-14.080h-21.094v-21.094h-7.040v-7.014h-7.014v7.014h-7.040v7.040h-7.040v7.040h14.080v-7.040h7.014v14.054h-7.014v21.12h14.055v7.014h7.040z" fill="#000000"></path>
	<path d="M131.942 202.266v-7.014h-14.055v-14.080h-7.040v21.095h7.040v7.040h7.040v-7.040z" fill="#000000"></path>
	<path d="M131.942 181.171v-7.014h-7.014v14.054h14.054v-7.040z" fill="#000000"></path>
	<path d="M138.982 68.659v7.040h7.040v-14.055h-7.040z" fill="#000000"></path>
	<path d="M138.982 96.793v7.040h7.040v-14.080h-7.040z" fill="#000000"></path>
	<path d="M138.982 160.077h7.040v7.040h-7.040v-7.040z" fill="#000000"></path>
	<path d="M153.037 47.565h-7.014v-14.054h-7.040v-7.040h-28.135v7.040h-7.014v-7.040h-7.040v7.040h-7.040v7.014h14.080v14.080h-7.040v-7.040h-7.040v7.040h-7.014v21.094h7.014v-7.040h7.040v-7.014h7.040v7.014h7.014v-14.055h7.040v7.040h7.040v-21.12h-7.040v-7.014h14.054v7.014h7.040v14.080h7.040v7.040h7.014v-7.040z" fill="#000000"></path>
	<path d="M146.023 209.305h-7.040v-7.040h-7.040v7.040h-7.014v7.040h-7.040v7.014h14.055v7.040h7.040v-14.054h14.054v-7.040z" fill="#000000"></path>
	<path d="M160.077 40.525v-7.014h-7.040v14.055h7.040z" fill="#000000"></path>
	<path d="M153.037 223.36h-7.014v7.040h14.054v-14.054h-7.040z" fill="#000000"></path>
	<path d="M160.077 61.645h14.080v-14.080h-14.080v7.040z" fill="#000000"></path>
	<path d="M167.117 202.266h-14.080v7.040h7.040v7.040h7.040v-7.040z" fill="#000000"></path>
	<path d="M167.117 40.525h7.040v-14.055h-14.080v7.040h7.040z" fill="#000000"></path>
	<path d="M167.117 75.699v7.040h7.040v-14.080h-7.040z" fill="#000000"></path>
	<path d="M167.117 216.345h7.040v7.040h-7.040v-7.040z" fill="#000000"></path>
	<path d="M174.157 209.305v7.040h7.014v14.054h7.040v-21.095h-7.040z" fill="#000000"></path>
	<path d="M181.171 181.171h7.040v7.040h-7.040v-7.040z" fill="#000000"></path>
	<path d="M195.251 110.848v-7.014h-7.040v-7.040h21.095v-7.040h-7.040v-7.014h-14.054v7.014h-28.135v-28.109h-7.040v21.094h-7.014v7.014h7.014v7.040h28.135v14.055h7.040z" fill="#000000"></path>
	<path d="M195.251 117.888v7.040h14.054v-7.040h-7.040z" fill="#000000"></path>
	<path d="M195.251 146.023h7.040v7.040h-7.040v-7.040z" fill="#000000"></path>
	<path d="M202.266 40.525h-7.014v21.12h21.095v-21.12h-7.040z" fill="#000000"></path>
	<path d="M202.266 103.834h7.040v7.040h-7.040v-7.040z" fill="#000000"></path>
	<path d="M209.305 167.117v-7.040h-14.080v7.040h-7.040v-21.12h-14.080v-7.040h-7.040v7.040h-7.040v-7.040h-7.040v14.080h-7.040v7.040h14.080v-7.040h7.040v7.040h-7.040v14.080h7.040v7.040h-7.040v7.040h-7.040v-21.12h-7.040v7.040h-7.040v7.040h7.040v7.040h-7.040v14.080h7.040v-7.040h21.12v7.040h21.12v7.040h7.040v-7.040h7.040v7.040h-7.040v21.043h7.040v-7.040h7.040v-21.12h7.040v-7.040h-7.040v-7.040h-7.040v-7.040h7.040v-7.040h7.040v-7.040h-7.040zM174.157 153.063h7.040v14.080h-7.040v-14.080zM195.251 188.211v7.040h-21.12v-21.12h21.12v14.080z" fill="#000000"></path>
	<path d="M209.305 223.36h7.040v7.040h-7.040v-7.040z" fill="#000000"></path>
	<path d="M223.36 103.834h-7.014v7.014h-7.040v7.040h14.054v7.040h7.040v-14.080h-7.040z" fill="#000000"></path>
	<path d="M216.345 138.982h-7.040v-7.040h-7.040v14.080h7.040v7.040h21.095v-14.080h-7.040z" fill="#000000"></path>
	<path d="M223.36 216.345v-7.040h-7.014v14.054h7.014z" fill="#000000"></path>
	<path d="M223.36 26.471h-42.24v49.28h49.28v-49.28h-7.040zM223.36 40.525v28.16h-35.2v-35.2h35.2v7.040z" fill="#000000"></path>
	<path d="M223.36 89.754v7.040h7.040v-14.055h-7.040z" fill="#000000"></path>
	<path d="M223.36 174.157h-7.014v7.014h14.054v-14.054h-7.040z" fill="#000000"></path>
	<path d="M223.36 188.211h7.040v7.040h-7.040v-7.040z" fill="#000000"></path>
</svg>
