<?xml version="1.0" encoding="utf-8"?>
<!-- Generated by IcoMoon.io -->
<!DOCTYPE svg PUBLIC "-//W3C//DTD SVG 1.1//EN" "http://www.w3.org/Graphics/SVG/1.1/DTD/svg11.dtd">
<svg version="1.1" xmlns="http://www.w3.org/2000/svg" xmlns:xlink="http://www.w3.org/1999/xlink" width="256" height="256" viewBox="0 0 256 256">
<g id="icomoon-ignore">
	<line stroke-width="1" x1="" y1="" x2="" y2="" stroke="#449FDB" opacity=""></line>
</g>
	<path d="M216.781 95.463h-177.561c-7.066 0.025-12.774 5.734-12.8 12.8v39.475c0.026 7.065 5.735 12.774 12.8 12.8h177.536c7.066-0.025 12.774-5.734 12.8-12.8v-39.475c0-7.091-5.709-12.8-12.774-12.8zM72.269 127.872c0 4.249-3.43 7.68-7.68 7.68s-7.68-3.43-7.68-7.68c0-4.249 3.431-7.68 7.68-7.68s7.68 3.43 7.68 7.68zM95.591 105.703h62.080v44.595h-62.080v-44.595zM218.573 149.555c-0.487 0.487-1.101 0.743-1.792 0.743h-48.87v-44.595h48.845c0.691 0 1.305 0.281 1.792 0.743 0.487 0.487 0.743 1.101 0.768 1.817v39.475c0.025 0.717-0.256 1.331-0.743 1.817z" fill="#000000"></path>
	<path d="M201.113 128c0 4.242-3.439 7.68-7.68 7.68s-7.68-3.439-7.68-7.68c0-4.242 3.439-7.68 7.68-7.68s7.68 3.439 7.68 7.68z" fill="#000000"></path>
	<path d="M135.68 128c0 4.242-3.439 7.68-7.68 7.68s-7.68-3.439-7.68-7.68c0-4.242 3.439-7.68 7.68-7.68s7.68 3.439 7.68 7.68z" fill="#000000"></path>
</svg>
