<?xml version="1.0" encoding="utf-8"?>
<!-- Generated by IcoMoon.io -->
<!DOCTYPE svg PUBLIC "-//W3C//DTD SVG 1.1//EN" "http://www.w3.org/Graphics/SVG/1.1/DTD/svg11.dtd">
<svg version="1.1" xmlns="http://www.w3.org/2000/svg" xmlns:xlink="http://www.w3.org/1999/xlink" width="256" height="256" viewBox="0 0 256 256">
<g id="icomoon-ignore">
	<line stroke-width="1" x1="" y1="" x2="" y2="" stroke="#449FDB" opacity=""></line>
</g>
	<path d="M123.239 203.213v0 0 0h0.333c42.983-0.154 77.773-35.047 77.799-78.080v-0.256c-0.154-42.931-34.969-77.722-77.952-77.799 0 0-0.025 0-0.051 0h-0.077c-0.025 0-0.025 0-0.051 0 0 0 0 0 0 0v0h-0.103c-43.085 0.051-77.978 34.995-77.978 78.080 0.026 43.111 34.969 78.055 78.080 78.055zM75.29 77.184c12.16-12.135 28.851-19.686 47.334-19.84l0.205 0.051 0.64-0.077c18.662 0.051 35.507 7.629 47.744 19.865 12.288 12.288 19.865 29.209 19.865 47.975v0 0c0 18.739-7.577 35.686-19.865 47.975s-29.209 19.865-47.975 19.865v0c0 0 0 0 0 0v0 0c-18.739 0-35.661-7.577-47.975-19.865-12.288-12.288-19.865-29.209-19.865-47.975 0.026-18.765 7.603-35.686 19.891-47.975z" fill="#000000"></path>
	<path d="M78.336 130.253h89.856c1.408 0 2.56-1.152 2.56-2.56v-5.12c0-1.408-1.152-2.56-2.56-2.56h-89.856c-1.408 0-2.56 1.152-2.56 2.56v5.12c0 1.408 1.152 2.56 2.56 2.56z" fill="#000000"></path>
</svg>
