<?xml version="1.0" encoding="utf-8"?>
<!-- Generated by IcoMoon.io -->
<!DOCTYPE svg PUBLIC "-//W3C//DTD SVG 1.1//EN" "http://www.w3.org/Graphics/SVG/1.1/DTD/svg11.dtd">
<svg version="1.1" xmlns="http://www.w3.org/2000/svg" xmlns:xlink="http://www.w3.org/1999/xlink" width="256" height="256" viewBox="0 0 256 256">
<g id="icomoon-ignore">
	<line stroke-width="1" x1="" y1="" x2="" y2="" stroke="#449FDB" opacity=""></line>
</g>
	<path d="M208.205 44.109c-0.845-0.998-1.946-1.818-3.149-2.355s-2.509-0.794-3.789-0.794c-1.715 0-3.353 0.435-4.864 1.152l-38.297 17.92c-0.947 0.461-2.867 0.87-4.787 0.87-1.92 0.026-3.84-0.384-4.787-0.87l-38.297-17.946c-2.893-1.331-6.016-1.818-9.165-1.843-3.123 0.026-6.221 0.486-9.088 1.792l-38.349 17.792c-3.047 1.434-5.351 3.763-7.091 6.425-1.69 2.688-2.816 5.76-2.842 9.139v127.437c0 2.509 0.717 5.069 2.458 7.091 0.845 0.999 1.946 1.817 3.175 2.355 1.203 0.537 2.509 0.793 3.789 0.793 1.69 0 3.328-0.41 4.839-1.126l38.374-17.767c0.947-0.461 2.867-0.87 4.761-0.845 1.92-0.025 3.891 0.41 4.838 0.87l38.374 17.997c2.867 1.331 5.99 1.817 9.113 1.817 3.149-0.025 6.246-0.512 9.139-1.843l38.221-17.997c3.047-1.459 5.351-3.789 7.040-6.451 1.69-2.688 2.816-5.76 2.841-9.139v-127.385c-0.025-2.535-0.743-5.069-2.458-7.091zM200.397 178.611c0.025 0.845-0.41 2.355-1.255 3.635-0.819 1.305-1.997 2.329-2.765 2.688l-38.221 17.997c-0.947 0.461-2.867 0.87-4.787 0.87-1.894 0.025-3.84-0.384-4.762-0.845l-38.374-17.997c-2.893-1.331-6.041-1.817-9.191-1.843-3.097 0.025-6.195 0.487-9.063 1.792l-38.067 17.638v-127.129c-0.026-0.845 0.41-2.329 1.255-3.609 0.819-1.305 1.997-2.304 2.765-2.637l38.349-17.792c0.947-0.461 2.867-0.87 4.761-0.845 1.92-0.026 3.865 0.41 4.813 0.87l38.297 17.945c2.893 1.331 5.99 1.817 9.139 1.817 3.123-0.025 6.246-0.512 9.113-1.817l37.965-17.767v127.027z" fill="#000000"></path>
	<path d="M130.944 90.573c-5.76 5.632-9.37 13.491-9.37 22.144 0.025 7.398 0.973 9.959 1.613 11.187v0c2.099 3.814 5.555 9.779 7.834 13.491l0.435 0.717 7.629 12.441c2.202 3.609 5.351 8.704 6.963 11.367 0.743 1.203 1.69 2.279 2.944 3.097 1.229 0.819 2.791 1.357 4.403 1.331 1.587 0 3.149-0.512 4.377-1.331 1.255-0.819 2.202-1.894 2.944-3.072v0c1.638-2.637 4.787-7.757 6.989-11.367l8.089-13.133c2.406-3.917 5.581-10.010 7.424-14.233v0c0.154-0.384 1.971-4.557 1.997-10.547 0-8.653-3.609-16.512-9.369-22.144s-13.721-9.139-22.451-9.139c-8.73 0.077-16.691 3.558-22.451 9.191zM174.976 112.717c0 1.894-0.307 3.609-0.614 4.787-0.154 0.589-0.307 1.049-0.41 1.357l-0.102 0.307v0.025c-1.536 3.533-4.71 9.651-6.758 12.928l-8.089 13.133c-1.69 2.739-3.917 6.349-5.607 9.088-1.69-2.739-3.891-6.349-5.581-9.088v0l-8.064-13.159c-2.073-3.405-5.427-9.139-7.399-12.749-0.128-0.487-0.537-2.381-0.537-6.579 0-5.785 2.381-10.983 6.298-14.823s9.293-6.195 15.283-6.195c5.99 0 11.367 2.381 15.283 6.195 3.917 3.789 6.298 9.011 6.298 14.771z" fill="#000000"></path>
	<path d="M141.952 100.531c-2.867 2.79-4.685 6.707-4.685 11.034s1.817 8.243 4.685 11.034c2.867 2.79 6.835 4.505 11.136 4.505 4.327 0 8.269-1.715 11.136-4.505s4.685-6.707 4.685-11.034c0-4.326-1.817-8.243-4.685-11.034s-6.835-4.505-11.136-4.505c-4.301 0-8.269 1.715-11.136 4.505zM158.695 111.565c0 1.433-0.589 2.713-1.587 3.686-1.024 0.973-2.406 1.587-3.994 1.613-1.613 0-2.995-0.615-3.994-1.613s-1.587-2.253-1.587-3.686c0-1.433 0.589-2.713 1.587-3.686 1.024-0.973 2.406-1.587 3.994-1.613 1.587 0 2.995 0.615 3.994 1.613 0.999 0.973 1.587 2.253 1.587 3.686z" fill="#000000"></path>
	<path d="M91.776 102.221l6.912-6.886 6.886 6.886 5.427-5.427-6.886-6.886 6.886-6.912-5.427-5.427-6.886 6.912-6.912-6.912-5.427 5.427 6.886 6.912-6.886 6.886z" fill="#000000"></path>
	<path d="M83.661 96.537l0.281-0.051h0.051l-1.331-7.552c-0.153 0.025-3.097 0.563-6.835 1.971l2.713 7.194c1.536-0.589 2.944-0.999 3.942-1.229 0.512-0.179 0.921-0.256 1.177-0.333z" fill="#000000"></path>
	<path d="M113.741 154.496c-1.715 0.768-3.2 1.741-4.608 2.637l4.173 6.451c1.305-0.845 2.534-1.587 3.584-2.073 1.075-0.487 1.945-0.691 2.688-0.691 0.512 0 0.999 0.077 1.587 0.333l2.867-7.117c-1.485-0.589-2.995-0.87-4.454-0.87-2.15-0.051-4.121 0.563-5.837 1.331z" fill="#000000"></path>
	<path d="M145.178 177.792c-0.384 0-0.793 0-1.229-0.025-1.587-0.077-2.739-0.281-3.584-0.563-0.819-0.256-1.305-0.563-1.664-0.87l-4.941 5.888c1.178 0.999 2.637 1.767 4.275 2.304 1.638 0.512 3.456 0.819 5.555 0.922 0.537 0.025 1.075 0.051 1.587 0.051 1.203 0 2.304-0.077 3.353-0.231l-1.101-7.603c-0.614 0.077-1.357 0.128-2.253 0.128z" fill="#000000"></path>
	<path d="M135.45 165.965c-0.717-2.279-1.894-4.762-3.942-6.989l-5.632 5.222c1.126 1.229 1.766 2.509 2.253 4.096 0.512 1.561 0.793 3.379 1.203 5.325l7.501-1.587c-0.358-1.69-0.666-3.789-1.382-6.067z" fill="#000000"></path>
	<path d="M104.96 114.125c-1.638-1.305-3.558-2.099-5.427-2.381l-1.203 7.578c0.691 0.128 1.254 0.333 1.92 0.845s1.433 1.382 2.227 2.841c0.409 0.743 0.665 1.382 0.793 1.945l7.424-1.997c-0.333-1.203-0.819-2.432-1.485-3.635-1.203-2.15-2.585-3.891-4.249-5.197z" fill="#000000"></path>
	<path d="M90.368 113.101c-4.096 1.587-7.936 3.891-11.187 5.197l2.893 7.117c4.019-1.638 7.808-3.917 11.059-5.145l-2.765-7.168z" fill="#000000"></path>
	<path d="M69.478 104.218c0.819-1.177 1.997-2.278 3.379-3.225l-4.377-6.297c-1.92 1.331-3.789 2.995-5.273 5.094s-2.586 4.685-2.867 7.578l7.629 0.768c0.153-1.51 0.665-2.739 1.51-3.917z" fill="#000000"></path>
	<path d="M99.379 132.327c-1.433 1.203-3.123 2.458-4.889 3.738l4.557 6.169c1.715-1.255 3.533-2.585 5.299-4.071 1.741-1.485 3.405-3.123 4.71-5.171l-6.477-4.121c-0.665 1.075-1.766 2.253-3.2 3.456z" fill="#000000"></path>
	<path d="M82.073 125.415v0h-0.025z" fill="#000000"></path>
	<path d="M101.427 160.793c-0.615 0-1.229-0.102-2.022-0.487s-1.766-1.024-2.893-2.176l-5.427 5.427c1.613 1.638 3.302 2.867 5.043 3.686 1.741 0.845 3.584 1.229 5.299 1.229s3.328-0.384 4.761-0.896l-2.662-7.194c-0.819 0.281-1.485 0.41-2.099 0.41z" fill="#000000"></path>
	<path d="M91.879 150.425c0-0.589 0.128-1.126 0.435-1.767s0.845-1.357 1.587-2.15l-5.581-5.274c-1.101 1.178-2.125 2.483-2.893 4.019s-1.254 3.303-1.254 5.197c0 2.125 0.615 4.301 1.766 6.4l6.758-3.661c-0.64-1.229-0.819-2.073-0.819-2.765z" fill="#000000"></path>
	<path d="M70.221 116.301c-0.537-0.973-0.973-1.894-1.305-2.765l-7.142 2.79c0.461 1.203 1.050 2.457 1.767 3.712 1.127 2.022 2.509 3.686 4.147 4.889s3.533 1.894 5.35 2.125l0.921-7.629c-0.665-0.077-1.152-0.256-1.715-0.691-0.615-0.409-1.305-1.127-2.022-2.432z" fill="#000000"></path>
	<path d="M150.579 175.821l7.040 3.097c1.126-2.637 1.255-5.145 1.485-7.501l-7.655-0.64c-0.205 2.329-0.435 4.147-0.87 5.043z" fill="#000000"></path>
</svg>
