<?xml version="1.0" encoding="utf-8"?>
<!-- Generated by IcoMoon.io -->
<!DOCTYPE svg PUBLIC "-//W3C//DTD SVG 1.1//EN" "http://www.w3.org/Graphics/SVG/1.1/DTD/svg11.dtd">
<svg version="1.1" xmlns="http://www.w3.org/2000/svg" xmlns:xlink="http://www.w3.org/1999/xlink" width="256" height="256" viewBox="0 0 256 256">
<g id="icomoon-ignore">
	<line stroke-width="1" x1="" y1="" x2="" y2="" stroke="#449FDB" opacity=""></line>
</g>
	<path d="M107.034 152.192c7.27 7.577 11.597 18.432 11.623 31.334h10.24c0-15.207-5.171-28.774-14.464-38.451v0c-9.037-9.421-21.939-14.951-36.839-14.925v10.24c12.416 0.025 22.349 4.454 29.44 11.802v0z" fill="#000000"></path>
	<path d="M141.901 183.552h10.24c0-21.504-7.68-40.73-20.941-54.528-13.235-13.824-32.051-22.144-53.632-22.118v10.24c18.995 0.025 34.893 7.168 46.259 18.97 11.315 11.802 18.073 28.339 18.073 47.437z" fill="#000000"></path>
	<path d="M167.014 183.552h10.24c0-28.57-10.599-54.144-28.493-72.474-17.767-18.227-42.727-29.287-71.194-29.261v10.24c25.805 0.025 47.975 9.907 63.872 26.163 15.975 16.384 25.575 39.27 25.575 65.331z" fill="#000000"></path>
	<path d="M97.101 173.594c0 5.486-4.447 9.933-9.933 9.933s-9.933-4.447-9.933-9.933c0-5.486 4.447-9.933 9.933-9.933s9.933 4.447 9.933 9.933z" fill="#000000"></path>
	<path d="M192.025 208.743c7.066-0.025 12.774-5.734 12.8-12.8v-126.387c-0.025-7.066-5.734-12.775-12.8-12.8h-125.799c-7.066 0.026-12.775 5.734-12.8 12.8v126.387c0.026 7.065 5.734 12.774 12.8 12.8h125.799zM63.667 195.942v-126.387c0-0.691 0.282-1.305 0.768-1.792s1.101-0.743 1.792-0.768h125.773c0.691 0 1.305 0.281 1.817 0.768 0.487 0.487 0.743 1.101 0.743 1.792v126.387c0 0.691-0.281 1.305-0.743 1.792-0.487 0.487-1.101 0.743-1.817 0.768h-125.773c-0.691 0-1.305-0.281-1.792-0.768-0.486-0.461-0.768-1.101-0.768-1.792z" fill="#000000"></path>
</svg>
