<?xml version="1.0" encoding="utf-8"?>
<!-- Generated by IcoMoon.io -->
<!DOCTYPE svg PUBLIC "-//W3C//DTD SVG 1.1//EN" "http://www.w3.org/Graphics/SVG/1.1/DTD/svg11.dtd">
<svg version="1.1" xmlns="http://www.w3.org/2000/svg" xmlns:xlink="http://www.w3.org/1999/xlink" width="256" height="256" viewBox="0 0 256 256">
<g id="icomoon-ignore">
	<line stroke-width="1" x1="" y1="" x2="" y2="" stroke="#449FDB" opacity=""></line>
</g>
	<path d="M122.24 46.489v118.681c-8.627-8.601-25.344-25.293-29.671-29.619-5.939-5.939-17.766 0-17.766 0l52.659 52.608 52.429-52.429c0 0-11.827-5.913-17.767 0-4.377 4.377-21.145 21.145-29.645 29.671v-118.912h-10.24z" fill="#000000"></path>
	<path d="M127.36 214.631c47.155 0 85.35-38.221 85.35-85.35 0-31.437-17.024-58.931-42.317-73.728v12.186c19.405 13.594 32.077 36.045 32.077 61.542 0 20.762-8.397 39.501-21.99 53.12-13.619 13.594-32.358 21.99-53.12 21.99s-39.501-8.397-53.12-21.99c-13.593-13.619-21.99-32.358-21.99-53.12 0-25.472 12.698-47.949 32.077-61.542v-12.185c-25.293 14.797-42.317 42.266-42.317 73.728 0 47.13 38.221 85.325 85.35 85.351z" fill="#000000"></path>
</svg>
