<?xml version="1.0" encoding="utf-8"?>
<!-- Generated by IcoMoon.io -->
<!DOCTYPE svg PUBLIC "-//W3C//DTD SVG 1.1//EN" "http://www.w3.org/Graphics/SVG/1.1/DTD/svg11.dtd">
<svg version="1.1" xmlns="http://www.w3.org/2000/svg" xmlns:xlink="http://www.w3.org/1999/xlink" width="256" height="256" viewBox="0 0 256 256">
<g id="icomoon-ignore">
	<line stroke-width="1" x1="" y1="" x2="" y2="" stroke="#449FDB" opacity=""></line>
</g>
	<path d="M137.319 149.453c-2.918-1.255-6.119-1.843-9.319-1.843-4.249 0.025-8.55 1.024-12.109 3.353-1.766 1.178-3.353 2.714-4.48 4.659-1.126 1.92-1.766 4.25-1.766 6.707h7.68c0-1.178 0.281-2.023 0.717-2.816 0.665-1.178 1.92-2.227 3.712-2.995 1.766-0.768 3.993-1.203 6.246-1.203 2.995 0 5.965 0.793 7.833 2.073 0.947 0.64 1.638 1.357 2.099 2.15s0.717 1.664 0.717 2.816h7.68c0-2.458-0.64-4.762-1.767-6.707-1.69-2.944-4.352-4.941-7.245-6.195z" fill="#000000"></path>
	<path d="M76.416 65.945v0h0.128c1.792 0 3.558 0 5.299 0 7.552 0 14.541-0.103 21.222-1.485 6.656-1.383 13.031-4.275 18.355-9.651l-7.245-7.245c-3.84 3.815-7.936 5.734-13.235 6.861-5.273 1.127-11.648 1.28-19.097 1.28-1.715 0-3.481 0-5.299 0h-0.103c-20.045 0-36.685 7.091-47.104 18.637l7.603 6.835c8.090-9.011 21.785-15.232 39.475-15.232z" fill="#000000"></path>
	<path d="M179.584 55.706v0h-0.128c-1.817 0-3.584 0-5.299 0-7.45 0-13.824-0.154-19.097-1.28-5.274-1.152-9.395-3.072-13.235-6.861l-7.245 7.245c5.325 5.35 11.699 8.269 18.355 9.651 6.656 1.408 13.671 1.485 21.222 1.485 1.741 0 3.507 0 5.299 0h0.102c17.69 0 31.36 6.221 39.475 15.257l7.603-6.835c-10.368-11.571-26.983-18.663-47.053-18.663z" fill="#000000"></path>
	<path d="M128 195.84c-10.010 0-17.536-0.87-23.603-2.483s-10.701-3.942-15.13-7.066c-1.741-1.229-4.121-0.819-5.35 0.922s-0.819 4.121 0.921 5.351c5.043 3.584 10.675 6.375 17.613 8.218s15.13 2.739 25.575 2.739c10.47 0 18.662-1.075 25.549-2.97s12.416-4.685 17.459-7.859c1.792-1.126 2.329-3.507 1.203-5.299s-3.507-2.329-5.299-1.203c-4.608 2.893-9.344 5.248-15.411 6.938-6.093 1.69-13.568 2.714-23.526 2.714z" fill="#000000"></path>
	<path d="M76.416 95.744c4.019 0 7.245-3.251 7.245-7.245 0-1.843-0.717-3.507-1.843-4.787 7.117 1.203 12.314 4.761 14.899 9.293l4.454-2.534c-4.275-7.501-13.287-12.339-24.55-12.339v0h-0.025c-11.008 0-19.84 4.608-24.243 11.827l4.377 2.662c2.586-4.275 7.552-7.603 14.259-8.832-1.101 1.28-1.792 2.918-1.792 4.736-0.025 3.993 3.225 7.219 7.219 7.219z" fill="#000000"></path>
	<path d="M199.296 92.595l4.377-2.662c-4.403-7.194-13.235-11.827-24.243-11.827v0 0h-0.025c-11.264 0-20.25 4.838-24.55 12.339l4.454 2.534c2.585-4.531 7.782-8.090 14.899-9.293-1.152 1.28-1.843 2.944-1.843 4.787 0 3.993 3.251 7.245 7.245 7.245s7.245-3.251 7.245-7.245c0-1.817-0.691-3.456-1.792-4.736 6.681 1.254 11.623 4.582 14.233 8.858z" fill="#000000"></path>
</svg>
