<?xml version="1.0" encoding="utf-8"?>
<!-- Generated by IcoMoon.io -->
<!DOCTYPE svg PUBLIC "-//W3C//DTD SVG 1.1//EN" "http://www.w3.org/Graphics/SVG/1.1/DTD/svg11.dtd">
<svg version="1.1" xmlns="http://www.w3.org/2000/svg" xmlns:xlink="http://www.w3.org/1999/xlink" width="256" height="256" viewBox="0 0 256 256">
<g id="icomoon-ignore">
	<line stroke-width="1" x1="" y1="" x2="" y2="" stroke="#449FDB" opacity=""></line>
</g>
	<path d="M74.24 222.413h107.52c8.474-0.025 15.334-6.887 15.36-15.36v-158.106c-0.025-8.474-6.887-15.334-15.36-15.36h-107.52c-8.474 0.026-15.334 6.886-15.36 15.36v158.131c0.026 8.474 6.886 15.334 15.36 15.334zM69.12 48.947c0-1.408 0.563-2.663 1.51-3.609s2.201-1.511 3.609-1.511h107.52c1.408 0 2.662 0.563 3.609 1.511s1.511 2.202 1.511 3.609v158.131c0 1.408-0.563 2.662-1.511 3.609s-2.202 1.511-3.609 1.511h-107.52c-1.408 0-2.662-0.563-3.609-1.511-0.947-0.973-1.51-2.227-1.51-3.635v-158.106z" fill="#000000"></path>
	<path d="M72.525 52.429h110.925v141.977h-110.925v-141.977z" fill="#000000"></path>
	<path d="M132.275 203.571c0 2.531-1.914 4.583-4.275 4.583s-4.275-2.052-4.275-4.583c0-2.531 1.914-4.583 4.275-4.583s4.275 2.052 4.275 4.583z" fill="#000000"></path>
</svg>
