<?xml version="1.0" encoding="utf-8"?>
<!-- Generated by IcoMoon.io -->
<!DOCTYPE svg PUBLIC "-//W3C//DTD SVG 1.1//EN" "http://www.w3.org/Graphics/SVG/1.1/DTD/svg11.dtd">
<svg version="1.1" xmlns="http://www.w3.org/2000/svg" xmlns:xlink="http://www.w3.org/1999/xlink" width="256" height="256" viewBox="0 0 256 256">
<g id="icomoon-ignore">
	<line stroke-width="1" x1="" y1="" x2="" y2="" stroke="#449FDB" opacity=""></line>
</g>
	<path d="M117.12 47.462l-29.261 34.099c0 0 9.728 5.709 14.643 0 4.301-5.017 8.576-9.984 9.523-11.111v34.483h10.24v-34.458c0.999 1.152 5.248 6.093 9.523 11.111 4.889 5.709 14.643 0 14.643 0l-29.312-34.125z" fill="#000000"></path>
	<path d="M76.8 145.434c-10.727 0-19.405 8.679-19.405 19.405s8.678 19.405 19.405 19.405c10.727 0 19.405-8.679 19.405-19.405s-8.678-19.405-19.405-19.405zM85.094 173.107c-2.125 2.125-5.043 3.43-8.294 3.43s-6.144-1.305-8.294-3.43c-2.125-2.125-3.43-5.043-3.43-8.294s1.305-6.144 3.43-8.294c2.125-2.125 5.043-3.43 8.294-3.43s6.144 1.305 8.294 3.43c2.125 2.125 3.43 5.043 3.43 8.294s-1.305 6.169-3.43 8.294z" fill="#000000"></path>
	<path d="M117.811 119.014c-10.727 0-19.405 8.678-19.405 19.405s8.678 19.405 19.405 19.405c10.726 0 19.405-8.678 19.405-19.405-0.025-10.727-8.704-19.405-19.405-19.405zM126.080 146.714c-2.125 2.125-5.043 3.43-8.294 3.43s-6.144-1.305-8.294-3.43c-2.125-2.125-3.43-5.043-3.43-8.294s1.305-6.144 3.43-8.294c2.125-2.125 5.043-3.43 8.294-3.43s6.144 1.305 8.294 3.43c2.125 2.125 3.431 5.043 3.431 8.294s-1.305 6.144-3.43 8.294z" fill="#000000"></path>
	<path d="M180.275 151.859c0-10.701-8.679-19.405-19.405-19.405s-19.405 8.678-19.405 19.405c0 10.726 8.679 19.405 19.405 19.405s19.405-8.678 19.405-19.405zM152.601 160.154c-2.125-2.125-3.43-5.043-3.43-8.294s1.305-6.144 3.43-8.294c2.125-2.125 5.043-3.43 8.294-3.43s6.144 1.305 8.294 3.43c2.125 2.125 3.43 5.043 3.43 8.294s-1.305 6.144-3.43 8.294c-2.125 2.125-5.043 3.43-8.294 3.43-3.277 0-6.169-1.305-8.294-3.43z" fill="#000000"></path>
	<path d="M179.2 173.594c-10.726 0-19.405 8.678-19.405 19.405s8.679 19.405 19.405 19.405c10.726 0 19.405-8.678 19.405-19.405s-8.679-19.405-19.405-19.405zM187.494 201.267c-2.125 2.125-5.043 3.43-8.294 3.43s-6.144-1.305-8.294-3.43c-2.125-2.125-3.43-5.043-3.43-8.294s1.305-6.144 3.43-8.294c2.125-2.125 5.043-3.43 8.294-3.43s6.144 1.305 8.294 3.43c2.125 2.125 3.43 5.043 3.43 8.294s-1.305 6.169-3.43 8.294z" fill="#000000"></path>
</svg>
