<?xml version="1.0" encoding="utf-8"?>
<!-- Generated by IcoMoon.io -->
<!DOCTYPE svg PUBLIC "-//W3C//DTD SVG 1.1//EN" "http://www.w3.org/Graphics/SVG/1.1/DTD/svg11.dtd">
<svg version="1.1" xmlns="http://www.w3.org/2000/svg" xmlns:xlink="http://www.w3.org/1999/xlink" width="256" height="256" viewBox="0 0 256 256">
<g id="icomoon-ignore">
	<line stroke-width="1" x1="" y1="" x2="" y2="" stroke="#449FDB" opacity=""></line>
</g>
	<path d="M78.285 96.665h95.821v10.24h-95.821v-10.24z" fill="#000000"></path>
	<path d="M78.285 162.176h95.821v10.24h-95.821v-10.24z" fill="#000000"></path>
	<path d="M78.285 118.502h82.15v10.24h-82.15v-10.24z" fill="#000000"></path>
	<path d="M78.285 140.339h90.701v10.24h-90.701v-10.24z" fill="#000000"></path>
	<path d="M39.808 209.638h178.483c7.065-0.025 12.774-5.734 12.8-12.8v-154.317c-0.025-7.066-5.734-12.774-12.8-12.8h-178.483c-7.066 0.026-12.774 5.735-12.8 12.8v154.317c0.026 7.066 5.735 12.774 12.8 12.8zM220.109 198.631c-0.487 0.487-1.101 0.743-1.792 0.768h-178.509c-0.691 0-1.306-0.281-1.792-0.768s-0.742-1.101-0.768-1.792v-130.535h183.603v130.535c0 0.691-0.256 1.305-0.743 1.792zM38.016 40.73c0.486-0.486 1.101-0.742 1.792-0.768h178.483c0.691 0 1.305 0.282 1.792 0.768s0.743 1.101 0.768 1.792v13.543h-183.603v-13.543c0-0.691 0.282-1.306 0.768-1.792z" fill="#000000"></path>
	<path d="M52.505 48.282c0 2.828-2.292 5.12-5.12 5.12s-5.12-2.292-5.12-5.12c0-2.828 2.292-5.12 5.12-5.12s5.12 2.292 5.12 5.12z" fill="#000000"></path>
	<path d="M67.737 48.282c0 2.828-2.292 5.12-5.12 5.12s-5.12-2.292-5.12-5.12c0-2.828 2.292-5.12 5.12-5.12s5.12 2.292 5.12 5.12z" fill="#000000"></path>
	<path d="M82.969 48.282c0 2.828-2.292 5.12-5.12 5.12s-5.12-2.292-5.12-5.12c0-2.828 2.292-5.12 5.12-5.12s5.12 2.292 5.12 5.12z" fill="#000000"></path>
</svg>
