<?xml version="1.0" encoding="utf-8"?>
<!-- Generator: Adobe Illustrator 16.0.0, SVG Export Plug-In . SVG Version: 6.00 Build 0)  -->
<!DOCTYPE svg PUBLIC "-//W3C//DTD SVG 1.1 Tiny//EN" "http://www.w3.org/Graphics/SVG/1.1/DTD/svg11-tiny.dtd">
<svg version="1.1" baseProfile="tiny" id="Capa_1" xmlns="http://www.w3.org/2000/svg" xmlns:xlink="http://www.w3.org/1999/xlink"
	 x="0px" y="0px" width="100px" height="100px" viewBox="0 0 100 100" xml:space="preserve">
<g>
	<circle cx="7.25" cy="94" r="3.59"/>
	<path d="M17.74,81.39c-3.83,0-6.94,3.11-6.94,6.94c0,3.83,3.11,6.94,6.94,6.94c3.83,0,6.94-3.11,6.94-6.94
		C24.67,84.49,21.57,81.39,17.74,81.39z M17.74,91.27c-1.62,0-2.94-1.32-2.94-2.94c0-1.62,1.32-2.94,2.94-2.94
		c1.62,0,2.94,1.32,2.94,2.94C20.67,89.95,19.36,91.27,17.74,91.27z"/>
	<path d="M92.91,52.15c1.78-2.74,2.73-5.92,2.73-9.25c0-5.02-2.27-9.76-6.03-12.98c0.81-1.79,1.23-3.73,1.23-5.73
		c0-7.76-6.37-14.07-14.19-14.07c-1.76,0-3.49,0.33-5.11,0.95c-2.93-3.8-7.54-6.16-12.51-6.16c-3.16,0-6.26,0.97-8.85,2.71
		c-3.97-2.25-8.44-3.42-13.08-3.42c-14.56,0-26.41,11.73-26.41,26.14c0,1.92,0.21,3.82,0.62,5.67C6.47,39.19,3.5,44.55,3.5,50.48
		c0,2.87,0.7,5.65,2.05,8.15C5.3,59.8,5.18,61,5.18,62.2c0,9.78,8.03,17.74,17.9,17.74c0.34,0,0.68-0.01,1.02-0.03
		c2.01,9.21,10.3,16.13,20.2,16.13c2.98,0,5.91-0.64,8.61-1.88c2.78,1.39,5.85,2.11,9.01,2.11c8.23,0,15.52-4.97,18.56-12.36
		c9.36-2.1,16.12-10.3,16.12-20.06C96.6,59.62,95.31,55.57,92.91,52.15z M77.46,80.36c-1.78,6.85-8.05,11.92-15.54,11.92
		c-3.3,0-6.37-0.99-8.92-2.68c-2.53,1.54-5.5,2.44-8.7,2.44c-9.2,0-16.66-7.37-16.66-16.46c0-0.14,0.02-0.28,0.02-0.42
		c-1.43,0.49-2.97,0.78-4.58,0.78c-7.68,0-13.9-6.15-13.9-13.74c0-1.46,0.24-2.87,0.67-4.2c-1.48-2.14-2.35-4.73-2.35-7.52
		c0-5.66,3.56-10.48,8.58-12.44c-0.9-2.39-1.39-4.98-1.39-7.69c0-12.23,10.04-22.14,22.41-22.14c5.02,0,9.65,1.63,13.38,4.38
		c2.14-2.25,5.18-3.67,8.55-3.67c5.07,0,9.37,3.17,11.02,7.62c1.78-1.5,4.08-2.41,6.6-2.41c5.63,0,10.19,4.51,10.19,10.07
		c0,2.66-1.05,5.07-2.76,6.87c4.46,2.12,7.55,6.62,7.55,11.84c0,3.63-1.49,6.92-3.9,9.3c3,2.99,4.86,7.11,4.86,11.66
		C92.6,72.47,85.96,79.54,77.46,80.36z"/>
</g>
</svg>
