<?xml version="1.0" encoding="utf-8"?>
<!-- Generator: Adobe Illustrator 16.0.0, SVG Export Plug-In . SVG Version: 6.00 Build 0)  -->
<!DOCTYPE svg PUBLIC "-//W3C//DTD SVG 1.1 Tiny//EN" "http://www.w3.org/Graphics/SVG/1.1/DTD/svg11-tiny.dtd">
<svg version="1.1" baseProfile="tiny" id="Capa_1" xmlns="http://www.w3.org/2000/svg" xmlns:xlink="http://www.w3.org/1999/xlink"
	 x="0px" y="0px" width="100px" height="100px" viewBox="0 0 100 100" xml:space="preserve">
<path d="M95,2h-2H61c-5.14,0-8.68,2.25-11,4.69C47.68,4.25,44.14,2,39,2H6.92H5C3.35,2,2,3.35,2,5v34c0,1.65,0,4.35,0,6v44
	c0,1.65,1.35,3,3,3h1.92H39c8.25,0,11,8,11,8s2.75-8,11-8h32h2c1.65,0,3-1.35,3-3V5C98,3.35,96.65,2,95,2z M94,88H61
	c-5.14,0-8.68,2.25-11,4.69C47.68,90.25,44.14,88,39,88H6V45v-6V6h0.92H39c8.25,0,11,8,11,8s2.75-8,11-8h33V88z"/>
</svg>
