<?xml version="1.0" encoding="utf-8"?>
<!-- Generator: Adobe Illustrator 16.0.0, SVG Export Plug-In . SVG Version: 6.00 Build 0)  -->
<!DOCTYPE svg PUBLIC "-//W3C//DTD SVG 1.1 Tiny//EN" "http://www.w3.org/Graphics/SVG/1.1/DTD/svg11-tiny.dtd">
<svg version="1.1" baseProfile="tiny" id="Capa_1" xmlns="http://www.w3.org/2000/svg" xmlns:xlink="http://www.w3.org/1999/xlink"
	 x="0px" y="0px" width="100px" height="100px" viewBox="0 0 100 100" xml:space="preserve">
<g>
	<path d="M8.74,33.02l-3.7-1.52c-0.8,1.95-1.48,3.96-2.03,6.03l3.87,1.02C7.38,36.66,8.01,34.81,8.74,33.02z"/>
	<path d="M5.4,50c0-1.94,0.12-3.85,0.36-5.73L1.8,43.76C1.54,45.81,1.4,47.89,1.4,50v0.1l4-0.01V50z"/>
	<path d="M5.79,55.91l-3.97,0.52c0.28,2.12,0.7,4.2,1.25,6.23l3.86-1.04C6.43,59.77,6.05,57.86,5.79,55.91z"/>
	<path d="M11.49,79.64c1.29,1.68,2.7,3.27,4.2,4.77l2.82-2.83c-1.38-1.37-2.66-2.83-3.85-4.38L11.49,79.64z"/>
	<path d="M5.12,68.68c0.82,1.96,1.76,3.87,2.82,5.69l3.46-2.01c-0.97-1.67-1.84-3.42-2.59-5.22L5.12,68.68z"/>
	<path d="M14.55,22.93l-3.18-2.43c-1.29,1.68-2.46,3.45-3.52,5.29l3.47,2C12.29,26.1,13.37,24.48,14.55,22.93z"/>
	<path d="M44.04,5.79l-0.53-3.96c-2.12,0.28-4.2,0.7-6.23,1.25l1.04,3.86C40.19,6.44,42.09,6.05,44.04,5.79z"/>
	<path d="M94.84,31.22c-0.82-1.96-1.77-3.86-2.83-5.68l-3.45,2.02c0.98,1.67,1.84,3.41,2.6,5.21L94.84,31.22z"/>
	<path d="M94.2,44l3.96-0.53c-0.29-2.12-0.71-4.2-1.26-6.23l-3.86,1.05C93.55,40.14,93.94,42.05,94.2,44z"/>
	<path d="M20.46,88.6c1.68,1.29,3.44,2.47,5.29,3.53l2-3.46c-1.69-0.98-3.31-2.06-4.85-3.24L20.46,88.6z"/>
	<path d="M32.81,8.83l-1.54-3.69c-1.96,0.82-3.86,1.77-5.69,2.83l2.01,3.46C29.27,10.45,31.01,9.58,32.81,8.83z"/>
	<path d="M22.76,14.68l-2.45-3.17c-1.68,1.3-3.27,2.7-4.76,4.2l2.83,2.82C19.76,17.16,21.22,15.87,22.76,14.68z"/>
	<path d="M85.39,77.14l3.17,2.44c1.29-1.68,2.47-3.44,3.53-5.28l-3.46-2C87.66,73.98,86.58,75.6,85.39,77.14z"/>
	<path d="M74.16,7.82l-1.99,3.47c1.69,0.97,3.31,2.05,4.86,3.23l2.43-3.18C77.78,10.06,76.01,8.88,74.16,7.82z"/>
	<path d="M77.17,85.37l2.44,3.17c1.68-1.29,3.28-2.69,4.77-4.19l-2.83-2.83C80.17,82.9,78.71,84.19,77.17,85.37z"/>
	<path d="M84.25,15.52l-2.82,2.84c1.38,1.37,2.67,2.83,3.86,4.37l3.16-2.45C87.15,18.6,85.75,17.01,84.25,15.52z"/>
	<path d="M31.45,94.93c1.95,0.8,3.96,1.49,6.03,2.04l1.03-3.87c-1.89-0.5-3.74-1.13-5.53-1.87L31.45,94.93z"/>
	<path d="M98.6,49.8l-4,0.02V50c0,1.97-0.13,3.92-0.38,5.82l3.97,0.52c0.27-2.07,0.41-4.19,0.41-6.34V49.8z"/>
	<path d="M91.22,67.06l3.7,1.53c0.81-1.95,1.49-3.96,2.04-6.02l-3.86-1.03C92.59,63.43,91.96,65.28,91.22,67.06z"/>
	<path d="M50,94.6c-1.96,0-3.88-0.13-5.78-0.37l-0.51,3.97c2.06,0.27,4.16,0.4,6.29,0.4h0.05l0-4H50z"/>
	<path d="M50,1.4h-0.15l0.01,4H50c1.93,0,3.82,0.12,5.68,0.36l0.5-3.97C54.16,1.53,52.09,1.4,50,1.4z"/>
	<path d="M62.42,3L61.4,6.87c1.9,0.5,3.74,1.12,5.53,1.86l1.52-3.7C66.5,4.23,64.49,3.55,62.42,3z"/>
	<path d="M55.87,94.22l0.52,3.97c2.12-0.28,4.2-0.7,6.23-1.24l-1.04-3.86C59.72,93.58,57.82,93.96,55.87,94.22z"/>
	<path d="M67.1,91.2l1.54,3.69c1.97-0.82,3.87-1.76,5.69-2.82l-2-3.46C70.65,89.59,68.91,90.45,67.1,91.2z"/>
</g>
</svg>
