<?xml version="1.0" encoding="utf-8"?>
<!-- Generator: Adobe Illustrator 16.0.0, SVG Export Plug-In . SVG Version: 6.00 Build 0)  -->
<!DOCTYPE svg PUBLIC "-//W3C//DTD SVG 1.1 Tiny//EN" "http://www.w3.org/Graphics/SVG/1.1/DTD/svg11-tiny.dtd">
<svg version="1.1" baseProfile="tiny" id="Capa_1" xmlns="http://www.w3.org/2000/svg" xmlns:xlink="http://www.w3.org/1999/xlink"
	 x="0px" y="0px" width="100px" height="100px" viewBox="0 0 100 100" xml:space="preserve">
<g>
	<path d="M95.94,41.79c-0.52-2.97-1.17-5.64-1.94-7.88c-0.39-1.12-0.82-2.13-1.29-3.02c-0.48-0.9-1.01-1.68-1.67-2.34
		c-2.06-2.05-4.75-3.49-7.73-4.45c-2.98-0.95-6.24-1.41-9.51-1.41c-3.27,0-6.54,0.46-9.52,1.41c-2.98,0.95-5.68,2.39-7.74,4.44
		c-0.66,0.66-1.19,1.44-1.67,2.34c-0.84,1.57-1.53,3.49-2.12,5.72c-0.89,3.34-1.57,7.36-2.03,11.71C50.24,52.66,50,57.33,50,61.95
		c0,6.33,0.45,12.54,1.46,17.69c0.5,2.58,1.14,4.9,1.97,6.87c0.83,1.96,1.84,3.61,3.27,4.78C61.49,95.13,67.64,97,73.76,97
		c6.13,0,12.28-1.87,17.08-5.71c1.44-1.17,2.44-2.82,3.27-4.78c1.24-2.95,2.07-6.7,2.62-10.93c0.55-4.22,0.81-8.91,0.81-13.66
		C97.54,54.88,96.98,47.73,95.94,41.79z M92.16,78.86c-0.46,2.39-1.05,4.48-1.73,6.09c-0.67,1.61-1.45,2.71-2.09,3.21
		C84.37,91.36,79.08,93,73.76,93c-5.31,0-10.6-1.65-14.56-4.83c-0.64-0.5-1.42-1.6-2.09-3.21c-1.02-2.41-1.82-5.89-2.34-9.88
		c-0.52-4-0.77-8.53-0.77-13.13c0-6.82,0.55-13.8,1.55-19.45c0.5-2.82,1.11-5.32,1.79-7.26c0.34-0.97,0.7-1.8,1.05-2.46
		c0.35-0.66,0.7-1.13,0.97-1.4c1.47-1.47,3.61-2.66,6.14-3.47c2.52-0.81,5.41-1.22,8.3-1.22c2.89,0,5.77,0.42,8.29,1.22
		c2.52,0.8,4.66,2,6.12,3.46c0.27,0.27,0.62,0.74,0.97,1.4c0.62,1.15,1.24,2.83,1.78,4.86c0.82,3.05,1.47,6.89,1.91,11.08
		c0.44,4.19,0.68,8.73,0.68,13.2C93.54,68.05,93.09,74.07,92.16,78.86z"/>
	<path d="M73.78,27.76L73.78,27.76L73.78,27.76h-0.02h-0.01c-0.74,0-1.49,0.02-2.25,0.06v20.16h4.78l-0.19-20.15
		C75.32,27.79,74.54,27.76,73.78,27.76z"/>
	<path d="M89.94,37.91c-0.52-1.97-1.13-3.6-1.68-4.63l0,0c-0.31-0.58-0.62-0.99-0.78-1.14l0,0l0,0c-1.29-1.3-3.29-2.44-5.7-3.2l0,0
		c-1.15-0.37-2.41-0.64-3.71-0.83v19.88h13.66C91.29,44.16,90.68,40.68,89.94,37.91L89.94,37.91z"/>
	<path d="M65.84,28.94L65.84,28.94c-2.39,0.76-4.39,1.9-5.69,3.2l0,0l0,0c-0.16,0.15-0.47,0.56-0.78,1.14
		c-0.32,0.59-0.66,1.38-0.98,2.31c-0.65,1.86-1.25,4.31-1.74,7.09c-0.29,1.66-0.54,3.44-0.76,5.3h13.66V28.1
		C68.24,28.29,66.99,28.57,65.84,28.94L65.84,28.94z"/>
</g>
</svg>
