<?xml version="1.0" encoding="utf-8"?>
<!-- Generator: Adobe Illustrator 16.0.0, SVG Export Plug-In . SVG Version: 6.00 Build 0)  -->
<!DOCTYPE svg PUBLIC "-//W3C//DTD SVG 1.1 Tiny//EN" "http://www.w3.org/Graphics/SVG/1.1/DTD/svg11-tiny.dtd">
<svg version="1.1" baseProfile="tiny" id="Capa_1" xmlns="http://www.w3.org/2000/svg" xmlns:xlink="http://www.w3.org/1999/xlink"
	 x="0px" y="0px" width="100px" height="100px" viewBox="0 0 100 100" xml:space="preserve">
<path d="M57.95,29.96l1.41,1.42c1.47-1.47,3.61-2.66,6.14-3.47c2.52-0.81,5.41-1.22,8.3-1.22c2.89,0,5.77,0.42,8.29,1.22
	c2.52,0.8,4.66,2,6.12,3.46c0.27,0.27,0.62,0.74,0.97,1.4c0.62,1.15,1.24,2.83,1.78,4.86c0.82,3.05,1.47,6.89,1.91,11.08
	c0.44,4.19,0.68,8.73,0.68,13.2c0,6.14-0.45,12.16-1.38,16.95c-0.46,2.39-1.05,4.48-1.73,6.09c-0.67,1.61-1.45,2.72-2.09,3.21
	C84.37,91.36,79.08,93,73.76,93c-5.31,0-10.6-1.65-14.56-4.83l0,0c-0.64-0.5-1.42-1.6-2.09-3.21c-1.02-2.41-1.82-5.89-2.34-9.88
	c-0.52-4-0.77-8.53-0.77-13.13c0-6.82,0.55-13.8,1.55-19.45c0.5-2.82,1.11-5.32,1.79-7.26c0.34-0.97,0.7-1.8,1.05-2.46
	c0.35-0.66,0.7-1.13,0.97-1.4L57.95,29.96l-1.41-1.42c-0.66,0.66-1.19,1.44-1.67,2.34c-0.84,1.57-1.53,3.49-2.12,5.72
	c-0.89,3.34-1.57,7.36-2.03,11.71C50.24,52.66,50,57.33,50,61.95c0,6.33,0.45,12.54,1.46,17.69c0.5,2.58,1.14,4.9,1.97,6.87
	c0.83,1.96,1.84,3.61,3.27,4.78l0,0C61.49,95.13,67.64,97,73.76,97c6.13,0,12.28-1.87,17.08-5.71c1.44-1.17,2.44-2.82,3.27-4.78
	c1.24-2.95,2.07-6.7,2.62-10.93c0.55-4.22,0.81-8.91,0.81-13.66c0-7.03-0.56-14.18-1.6-20.13c-0.52-2.97-1.17-5.64-1.94-7.88
	c-0.39-1.12-0.82-2.13-1.29-3.02c-0.48-0.89-1.01-1.68-1.67-2.34c-2.06-2.05-4.75-3.49-7.73-4.45c-2.98-0.95-6.24-1.41-9.51-1.41
	c-3.27,0-6.54,0.46-9.52,1.41c-2.98,0.95-5.68,2.39-7.74,4.44L57.95,29.96z"/>
</svg>
