<?xml version="1.0" encoding="utf-8"?>
<!-- Generator: Adobe Illustrator 16.0.0, SVG Export Plug-In . SVG Version: 6.00 Build 0)  -->
<!DOCTYPE svg PUBLIC "-//W3C//DTD SVG 1.1 Tiny//EN" "http://www.w3.org/Graphics/SVG/1.1/DTD/svg11-tiny.dtd">
<svg version="1.1" baseProfile="tiny" id="Capa_1" xmlns="http://www.w3.org/2000/svg" xmlns:xlink="http://www.w3.org/1999/xlink"
	 x="0px" y="0px" width="100px" height="100px" viewBox="0 0 100 100" xml:space="preserve">
<g>
	<path d="M47.43,37.71c0,1.1,0.9,2,2,2h1.14c1.1,0,2-0.9,2-2V34c0-1.1-0.9-2-2-2h-1.14c-1.1,0-2,0.9-2,2V37.71z"/>
	<path d="M47.43,66c0,1.1,0.9,2,2,2h1.14c1.1,0,2-0.9,2-2v-3.71c0-1.1-0.9-2-2-2h-1.14c-1.1,0-2,0.9-2,2V66z"/>
	<path d="M43.13,42.32c0.78-0.78,0.78-2.05,0-2.83l-2.63-2.63c-0.78-0.78-2.05-0.78-2.83,0l-0.81,0.81c-0.78,0.78-0.78,2.05,0,2.83
		l2.63,2.63c0.78,0.78,2.05,0.78,2.83,0L43.13,42.32z"/>
	<path d="M56.87,57.68c-0.78,0.78-0.78,2.05,0,2.83l2.63,2.63c0.78,0.78,2.05,0.78,2.83,0l0.81-0.81c0.78-0.78,0.78-2.05,0-2.83
		l-2.63-2.63c-0.78-0.78-2.05-0.78-2.83,0L56.87,57.68z"/>
	<path d="M39.71,49.43c0-1.1-0.9-2-2-2H34c-1.1,0-2,0.9-2,2v1.14c0,1.1,0.9,2,2,2h3.71c1.1,0,2-0.9,2-2V49.43z"/>
	<path d="M62.29,47.43c-1.1,0-2,0.9-2,2v1.14c0,1.1,0.9,2,2,2l3.71,0c1.1,0,2-0.9,2-2v-1.14c0-1.1-0.9-2-2-2H62.29z"/>
	<path d="M36.87,59.5c-0.78,0.78-0.78,2.05,0,2.83l0.81,0.81c0.78,0.78,2.05,0.78,2.83,0l2.63-2.63c0.78-0.78,0.78-2.05,0-2.83
		l-0.81-0.81c-0.78-0.78-2.05-0.78-2.83,0L36.87,59.5z"/>
	<path d="M63.13,40.5c0.78-0.78,0.78-2.05,0-2.83l-0.81-0.81c-0.78-0.78-2.05-0.78-2.83,0l-2.63,2.63c-0.78,0.78-0.78,2.05,0,2.83
		l0.81,0.81c0.78,0.78,2.05,0.78,2.83,0L63.13,40.5z"/>
</g>
</svg>
