<?xml version="1.0" encoding="utf-8"?>
<!-- Generator: Adobe Illustrator 16.0.0, SVG Export Plug-In . SVG Version: 6.00 Build 0)  -->
<!DOCTYPE svg PUBLIC "-//W3C//DTD SVG 1.1 Tiny//EN" "http://www.w3.org/Graphics/SVG/1.1/DTD/svg11-tiny.dtd">
<svg version="1.1" baseProfile="tiny" id="Capa_1" xmlns="http://www.w3.org/2000/svg" xmlns:xlink="http://www.w3.org/1999/xlink"
	 x="0px" y="0px" width="100px" height="100px" viewBox="0 0 100 100" xml:space="preserve">
<g>
	<circle cx="43.93" cy="40.77" r="2.24"/>
	<path d="M61.84,39.09H47.82c0.22,0.52,0.35,1.08,0.35,1.68c0,0.6-0.13,1.16-0.35,1.68h14.03c0.77,0,1.46,0.31,1.98,0.82
		c0.51,0.52,0.82,1.21,0.82,1.98v8.96c0,0.77-0.31,1.46-0.82,1.98C63.3,56.69,62.61,57,61.84,57H37.16
		c0.02-0.02,0.04-0.03,0.06-0.05c0.78-0.65,0.82-0.65,1.6-1.37c1.68-1.55-0.01-4.42-0.01-4.42l-8.25,7.5l8.29,7.45
		c0,0,1.68-2.87-0.01-4.41c-0.78-0.71-0.71-0.55-1.58-1.34h24.59c3.4-0.01,6.15-2.76,6.16-6.16v-8.96
		C67.99,41.85,65.24,39.09,61.84,39.09z"/>
</g>
</svg>
