<?xml version="1.0" encoding="utf-8"?>
<!-- Generator: Adobe Illustrator 16.0.0, SVG Export Plug-In . SVG Version: 6.00 Build 0)  -->
<!DOCTYPE svg PUBLIC "-//W3C//DTD SVG 1.1 Tiny//EN" "http://www.w3.org/Graphics/SVG/1.1/DTD/svg11-tiny.dtd">
<svg version="1.1" baseProfile="tiny" id="Capa_1" xmlns="http://www.w3.org/2000/svg" xmlns:xlink="http://www.w3.org/1999/xlink"
	 x="0px" y="0px" width="100px" height="100px" viewBox="0 0 100 100" xml:space="preserve">
<g>
	<path d="M55.98,41.5c0,0-1.92,3.27,0.01,5.02c0.9,0.82,0.82,0.62,1.85,1.55c0,0,0.01,0,0.01,0.01H39.33
		c0.24,0.6,0.38,1.25,0.38,1.93c0,0.68-0.14,1.33-0.38,1.93h18.51c-0.88,0.73-0.93,0.73-1.83,1.55c-1.93,1.77,0.01,5.02,0.01,5.02
		l9.46-8.52L55.98,41.5z"/>
	<circle cx="34.57" cy="50" r="2.57"/>
</g>
<line fill="none" stroke="#000000" stroke-width="4" stroke-miterlimit="10" x1="66" y1="42" x2="66" y2="58"/>
</svg>
