<?xml version="1.0" encoding="utf-8"?>
<!-- Generator: Adobe Illustrator 16.0.0, SVG Export Plug-In . SVG Version: 6.00 Build 0)  -->
<!DOCTYPE svg PUBLIC "-//W3C//DTD SVG 1.1 Tiny//EN" "http://www.w3.org/Graphics/SVG/1.1/DTD/svg11-tiny.dtd">
<svg version="1.1" baseProfile="tiny" id="Capa_1" xmlns="http://www.w3.org/2000/svg" xmlns:xlink="http://www.w3.org/1999/xlink"
	 x="0px" y="0px" width="100px" height="100px" viewBox="0 0 100 100" xml:space="preserve">
<path d="M60.23,32.07c0,0-2.76,1.93-1.84,4.07c0.28,0.65,0.38,0.8,0.55,1.13c-2-0.82-4.11-1.23-6.23-1.23
	c-4.54,0-9.08,1.88-12.34,5.54v0c-2.79,3.14-4.17,7.06-4.17,10.96c0,3.8,1.31,7.6,3.89,10.65c0.82,0.96,2.26,1.08,3.22,0.27
	c0.96-0.82,1.08-2.26,0.27-3.22c-1.86-2.2-2.81-4.94-2.81-7.7c0-2.82,0.99-5.64,3.01-7.92v0c2.36-2.66,5.62-4,8.92-4
	c1.45,0,2.89,0.29,4.26,0.82c-0.3,0.08-0.56,0.16-1.14,0.34c-2.21,0.71-1.84,4.07-1.84,4.07l10.81-3.41L60.23,32.07z"/>
</svg>
