<?xml version="1.0" encoding="utf-8"?>
<!-- Generator: Adobe Illustrator 16.0.0, SVG Export Plug-In . SVG Version: 6.00 Build 0)  -->
<!DOCTYPE svg PUBLIC "-//W3C//DTD SVG 1.1 Tiny//EN" "http://www.w3.org/Graphics/SVG/1.1/DTD/svg11-tiny.dtd">
<svg version="1.1" baseProfile="tiny" id="Capa_1" xmlns="http://www.w3.org/2000/svg" xmlns:xlink="http://www.w3.org/1999/xlink"
	 x="0px" y="0px" width="100px" height="100px" viewBox="0 0 100 100" xml:space="preserve">
<g>
	<path d="M29.85,25.76L29.85,25.76c6.44,0,11.53,2.11,14.75,5.25l2.79-2.87c-4.09-3.98-10.22-6.38-17.52-6.39v0h-0.02h0h0h-0.01l0,0
		c-7.83,0-14.33,2.77-18.39,7.28l2.97,2.68C17.59,28.19,22.94,25.76,29.85,25.76L29.85,25.76z"/>
	<path d="M31.96,32.7c2.78,0.47,4.81,1.86,5.82,3.63l1.74-0.99c-1.67-2.93-5.19-4.82-9.58-4.82v0h-0.01h0h0l0,0
		c-4.3,0-7.75,1.8-9.47,4.62l1.71,1.04c1.01-1.67,2.95-2.97,5.57-3.45c-0.43,0.5-0.7,1.14-0.7,1.85c0,1.56,1.27,2.83,2.83,2.83
		c1.57,0,2.83-1.27,2.83-2.83C32.69,33.85,32.41,33.2,31.96,32.7z"/>
	<path d="M70.09,30.51L70.09,30.51L70.09,30.51L70.09,30.51h-0.02v0c-4.4,0-7.91,1.89-9.58,4.82l1.74,0.99
		c1.01-1.77,3.04-3.16,5.82-3.63c-0.44,0.5-0.72,1.15-0.72,1.87c0,1.56,1.27,2.83,2.83,2.83c1.56,0,2.83-1.27,2.83-2.83
		c0-0.71-0.27-1.35-0.7-1.85c2.62,0.48,4.56,1.78,5.57,3.45l1.71-1.04C77.83,32.31,74.38,30.51,70.09,30.51z"/>
	<path d="M70.16,21.76L70.16,21.76L70.16,21.76L70.16,21.76h-0.01h-0.02v0c-7.3,0-13.43,2.41-17.52,6.39l2.79,2.87
		c3.23-3.14,8.31-5.25,14.75-5.25h0h0c6.91,0,12.26,2.43,15.43,5.96l2.97-2.68C84.49,24.53,77.99,21.76,70.16,21.76z"/>
	<path d="M46.12,60.26c-0.18-0.31-0.28-0.65-0.28-1.1h-3c0,0.96,0.25,1.86,0.69,2.61c0.67,1.14,1.71,1.92,2.84,2.41
		c1.14,0.49,2.39,0.72,3.64,0.72c1.66-0.01,3.34-0.4,4.73-1.31c0.69-0.46,1.31-1.06,1.75-1.82c0.44-0.75,0.69-1.66,0.69-2.61h-3
		c0,0.46-0.11,0.79-0.28,1.1c-0.26,0.46-0.75,0.87-1.45,1.17c-0.69,0.3-1.56,0.47-2.44,0.47c-1.17,0.01-2.33-0.31-3.06-0.81
		C46.56,60.84,46.29,60.56,46.12,60.26z"/>
	<path d="M66,74.74c-2.4,0-4.14-0.62-5.75-1.3c-0.8-0.34-1.56-0.7-2.35-1c-0.79-0.29-1.63-0.54-2.57-0.54
		c-0.63,0.01-1.15,0.17-1.63,0.34c-0.72,0.27-1.39,0.6-2.03,0.85c-0.64,0.25-1.22,0.41-1.67,0.4c-0.6,0.01-1.43-0.28-2.32-0.67
		c-0.44-0.19-0.9-0.4-1.38-0.58c-0.48-0.17-1-0.34-1.63-0.34c-0.94,0-1.78,0.24-2.57,0.54c-2.37,0.91-4.5,2.29-8.1,2.29
		c-0.83,0-1.5,0.67-1.5,1.5s0.67,1.5,1.5,1.5c2.94,0,5.19-0.8,6.92-1.54c0.87-0.37,1.61-0.72,2.23-0.95
		c0.63-0.24,1.12-0.35,1.52-0.35c0.03-0.01,0.27,0.03,0.6,0.16c0.5,0.18,1.18,0.52,1.97,0.83c0.79,0.31,1.71,0.6,2.76,0.61
		c1.4-0.01,2.57-0.52,3.52-0.92c0.47-0.21,0.89-0.4,1.22-0.52c0.33-0.12,0.56-0.16,0.6-0.16c0.4,0,0.89,0.11,1.52,0.35
		c1.88,0.69,4.75,2.49,9.15,2.49c0.83,0,1.5-0.67,1.5-1.5S66.83,74.74,66,74.74z"/>
</g>
</svg>
