<?xml version="1.0" encoding="utf-8"?>
<!-- Generator: Adobe Illustrator 16.0.0, SVG Export Plug-In . SVG Version: 6.00 Build 0)  -->
<!DOCTYPE svg PUBLIC "-//W3C//DTD SVG 1.1 Tiny//EN" "http://www.w3.org/Graphics/SVG/1.1/DTD/svg11-tiny.dtd">
<svg version="1.1" baseProfile="tiny" id="Capa_1" xmlns="http://www.w3.org/2000/svg" xmlns:xlink="http://www.w3.org/1999/xlink"
	 x="0px" y="0px" width="100px" height="100px" viewBox="0 0 100 100" xml:space="preserve">
<g>
	<path d="M76.2,29.73c-1.77-1.2-3.94-1.73-6.11-1.73l0,0h-0.01h0h-0.01l0,0c-2.22,0-4.43,0.53-6.23,1.78
		c-1.8,1.24-3.13,3.25-3.48,5.91l1.98,0.27c0.3-2.16,1.27-3.57,2.64-4.54c1.37-0.96,3.19-1.43,5.1-1.42h0c1.85,0,3.64,0.47,5,1.39
		c1.36,0.93,2.32,2.27,2.64,4.25l1.98-0.31C79.31,32.83,77.97,30.92,76.2,29.73z"/>
	<path d="M86.9,24.9c-0.42-0.64-0.98-1.61-1.74-2.68c-1.14-1.6-2.77-3.45-5.23-4.86C77.48,15.94,74.23,15,70,15h-0.02v0
		c-1.4,0-2.66,0.18-3.77,0.51c-1.97,0.57-3.47,1.65-4.59,2.81c-0.84,0.87-1.5,1.78-2.08,2.62c-0.87,1.26-1.61,2.32-2.4,2.98
		c-0.4,0.33-0.8,0.58-1.29,0.77c-0.49,0.18-1.08,0.31-1.86,0.32l0.05,4c1.21-0.01,2.3-0.22,3.27-0.59c1.7-0.65,2.92-1.79,3.85-2.91
		c0.7-0.85,1.27-1.71,1.82-2.5c0.83-1.18,1.62-2.16,2.63-2.84c0.51-0.34,1.07-0.62,1.78-0.83C68.08,19.13,68.93,19,70,19h0h0
		c2.78,0,4.88,0.46,6.52,1.13c2.46,1.01,3.95,2.51,5.1,4.03c0.57,0.76,1.04,1.52,1.49,2.24c0.46,0.72,0.85,1.38,1.47,2.02l2.83-2.83
		C87.34,25.51,87.14,25.26,86.9,24.9z"/>
	<circle cx="70.15" cy="34.57" r="2.83"/>
	<path d="M43.09,62.02c0.73,1.25,1.87,2.09,3.07,2.62c1.21,0.53,2.53,0.76,3.84,0.76c1.75-0.01,3.51-0.41,5-1.4
		c0.74-0.49,1.42-1.15,1.9-1.98c0.49-0.83,0.76-1.83,0.76-2.87h-4c0,0.38-0.08,0.62-0.21,0.85c-0.2,0.34-0.59,0.7-1.21,0.97
		c-0.62,0.27-1.43,0.43-2.24,0.43c-1.09,0.01-2.16-0.3-2.79-0.73c-0.32-0.21-0.53-0.44-0.67-0.67c-0.13-0.23-0.21-0.48-0.21-0.85h-4
		C42.33,60.2,42.61,61.19,43.09,62.02z"/>
	<path d="M30,29c6.87,0,12,0,16,0v-4c-4,0-9.13,0-16,0c-1.75,0-3.46-0.04-5.1-0.04c-2.58,0-5.02,0.08-7.31,0.62
		c-1.14,0.27-2.25,0.66-3.29,1.22c-1.04,0.56-2.01,1.31-2.85,2.24l2.97,2.68c0.53-0.59,1.11-1.04,1.78-1.4
		c1-0.54,2.22-0.89,3.68-1.1c1.46-0.2,3.15-0.26,5.01-0.26C26.48,28.96,28.19,29,30,29z"/>
	<path d="M31.96,32.7c2.78,0.47,4.81,1.86,5.82,3.63l1.74-0.99c-1.67-2.93-5.19-4.82-9.58-4.82v0h-0.01h0h0l0,0
		c-4.3,0-7.75,1.8-9.47,4.62l1.71,1.04c1.01-1.67,2.95-2.97,5.57-3.45c-0.43,0.5-0.7,1.14-0.7,1.85c0,1.56,1.27,2.83,2.83,2.83
		c1.57,0,2.83-1.27,2.83-2.83C32.69,33.85,32.41,33.2,31.96,32.7z"/>
	<path d="M65.64,71.54c-1.67,0.42-3.3,0.55-4.84,0.55c-1.31,0-2.55-0.1-3.69-0.2c-1.15-0.1-2.18-0.21-3.14-0.21
		c-0.08,0-0.51-0.02-1.07-0.05c-0.57-0.03-1.3-0.05-2.17-0.05c-2.15,0-5.08,0.16-8.22,0.89c-3.14,0.73-6.49,2.03-9.43,4.36
		c-0.65,0.51-0.76,1.46-0.24,2.11s1.46,0.76,2.11,0.24c2.49-1.97,5.42-3.13,8.25-3.78c2.83-0.66,5.54-0.81,7.54-0.81
		c0.81,0,1.49,0.02,2.03,0.05c0.55,0.02,0.91,0.05,1.2,0.05c0.72,0,1.71,0.1,2.88,0.2c1.17,0.1,2.5,0.21,3.96,0.21
		c1.72,0,3.6-0.15,5.57-0.64c0.8-0.2,1.29-1.01,1.09-1.82C67.25,71.83,66.44,71.34,65.64,71.54z"/>
</g>
</svg>
