<?xml version="1.0" encoding="utf-8"?>
<!-- Generator: Adobe Illustrator 16.0.0, SVG Export Plug-In . SVG Version: 6.00 Build 0)  -->
<!DOCTYPE svg PUBLIC "-//W3C//DTD SVG 1.1 Tiny//EN" "http://www.w3.org/Graphics/SVG/1.1/DTD/svg11-tiny.dtd">
<svg version="1.1" baseProfile="tiny" id="Capa_1" xmlns="http://www.w3.org/2000/svg" xmlns:xlink="http://www.w3.org/1999/xlink"
	 x="0px" y="0px" width="100px" height="100px" viewBox="0 0 100 100" xml:space="preserve">
<g>
	<path fill-rule="evenodd" d="M66.97,75.47c-0.95-0.15-1.89-0.3-2.83-0.5c-1.54-0.32-3.09-0.41-4.66-0.27
		c-1.86,0.16-3.72,0.25-5.29,0.35c-1.73-0.08-3.17-0.13-4.6-0.23c-1.69-0.11-3.37-0.13-5.05,0.12c-1.42,0.21-2.84,0.44-4.25,0.72
		c-1.23,0.24-1.79,1.72-1.09,2.78c0.47,0.71,1.14,0.99,1.97,0.88c0.93-0.13,1.86-0.29,2.78-0.46c1.31-0.24,2.63-0.4,3.97-0.34
		c1.51,0.07,3.01,0.14,4.52,0.23c2.21,0.14,4.4,0,6.59-0.19c1.37-0.12,2.73-0.18,4.09,0.07c1.13,0.21,2.26,0.43,3.4,0.64
		c0.75,0.13,1.39-0.09,1.84-0.69c0.45-0.59,0.55-1.27,0.22-1.96C68.27,75.94,67.71,75.59,66.97,75.47z"/>
	<path fill-rule="evenodd" d="M85.54,20.65c-0.53-0.82-1.26-1.44-2.07-1.97c-1.85-1.19-3.9-1.65-6.08-1.68
		c-0.21,0.01-0.43,0.01-0.64,0.03c-1.25,0.13-2.51,0.26-3.76,0.41c-1.69,0.2-3.38,0.39-5.07,0.63c-1.41,0.2-2.8,0.46-4.2,0.72
		c-0.29,0.05-0.61,0.16-0.81,0.36c-0.77,0.75-1.17,1.69-1.17,2.77c0,0.65,0.36,1.11,1,1.29c0.34,0.09,0.71,0.14,1.05,0.1
		c1.96-0.18,3.92-0.35,5.88-0.61c2.04-0.27,4.07-0.65,6.1-0.95c3.03-0.45,6.02-0.37,8.94,0.68c0.2,0.07,0.42,0.1,0.62,0.11
		c0.43,0,0.65-0.22,0.66-0.66C86.02,21.4,85.78,21.02,85.54,20.65z"/>
	<path fill-rule="evenodd" d="M36.3,19.34c-0.17-0.17-0.4-0.31-0.62-0.38c-0.61-0.18-1.24-0.33-1.86-0.45
		c-2.87-0.56-5.76-0.84-8.67-0.96c-0.3,0-0.6,0.02-0.9,0c-1.76-0.12-3.47,0.09-5.12,0.74c-1.92,0.76-3.57,1.89-4.88,3.49
		c-0.26,0.31-0.46,0.68-0.64,1.04c-0.14,0.27-0.23,0.58-0.01,0.86c0.22,0.28,0.55,0.23,0.84,0.15c0.33-0.08,0.65-0.19,0.96-0.32
		c1.57-0.66,3.22-0.98,4.9-1.19c2-0.25,4.01-0.3,6.01-0.2c2.73,0.14,5.45,0.38,8.18,0.56c0.6,0.04,1.21,0.08,1.81,0.02
		c0.97-0.1,1.37-0.79,1.07-1.72C37.14,20.35,36.79,19.8,36.3,19.34z"/>
	<path fill-rule="evenodd" d="M60.27,82.73c-2.02,0.27-4.06,0.36-6.1,0.38c-2.04,0.02-4.08-0.06-6.1-0.36
		c-0.73-0.11-1.47,0.26-1.8,0.88c-0.69,1.27,0.02,2.66,1.46,2.87c2.13,0.31,4.27,0.43,6.31,0.42c2.4,0.02,4.68-0.14,6.96-0.41
		c1.17-0.14,2.05-1.45,1.42-2.74C62.02,82.98,61.22,82.61,60.27,82.73z"/>
	<path fill-rule="evenodd" d="M45.13,58.02c0.15,0.09,0.32,0.18,0.48,0.21c0.5,0.1,1.01,0.18,1.51,0.26
		c0.85-0.05,1.51-0.21,2.05-0.53c0.62-0.38,0.71-0.89,0.18-1.38c-1.03-0.96-2.26-1.19-3.6-0.82c-0.39,0.11-0.69,0.35-0.92,0.68
		C44.39,57.07,44.49,57.62,45.13,58.02z"/>
	<path fill-rule="evenodd" d="M57.88,58.03c0.43,0.14,0.89,0.18,1.34,0.26l0.01-0.05c0.25-0.02,0.5-0.01,0.74-0.06
		c0.41-0.09,0.84-0.18,1.21-0.36c0.54-0.26,0.68-0.79,0.42-1.3c-0.36-0.72-1.12-1.15-1.93-1.03c-0.89,0.14-1.63,0.58-2.18,1.3
		C57.09,57.33,57.22,57.81,57.88,58.03z"/>
	<path fill-rule="evenodd" d="M73.14,29.14c-1.73-0.01-3.14,1.38-3.15,3.14c-0.01,1.67,1.38,3.1,3.06,3.13
		c1.64,0.03,3.12-1.42,3.13-3.07C76.21,30.6,74.83,29.15,73.14,29.14z M74.91,32.88c-0.36,0-0.68-0.28-0.68-0.6
		c-0.01-0.34,0.3-0.67,0.62-0.67c0.35,0,0.62,0.28,0.63,0.65C75.48,32.61,75.24,32.88,74.91,32.88z"/>
	<path fill-rule="evenodd" d="M27,29.75c-1.54-0.03-2.89,1.35-2.92,2.99c-0.03,1.64,1.31,3.04,2.92,3.06
		c1.56,0.02,2.93-1.33,2.95-2.91C29.96,31.14,28.7,29.78,27,29.75z M29.28,32.69c0,0.35-0.25,0.62-0.59,0.62
		c-0.34,0-0.59-0.26-0.58-0.62c0-0.36,0.26-0.61,0.61-0.59C29.04,32.12,29.28,32.37,29.28,32.69z"/>
</g>
</svg>
