<?xml version="1.0" encoding="utf-8"?>
<!-- Generator: Adobe Illustrator 16.0.0, SVG Export Plug-In . SVG Version: 6.00 Build 0)  -->
<!DOCTYPE svg PUBLIC "-//W3C//DTD SVG 1.1 Tiny//EN" "http://www.w3.org/Graphics/SVG/1.1/DTD/svg11-tiny.dtd">
<svg version="1.1" baseProfile="tiny" id="Capa_1" xmlns="http://www.w3.org/2000/svg" xmlns:xlink="http://www.w3.org/1999/xlink"
	 x="0px" y="0px" width="100px" height="100px" viewBox="0 0 100 100" xml:space="preserve">
<g>
	<path d="M37.78,36.32l1.74-0.99c-1.68-2.93-5.19-4.82-9.6-4.82c-4.3,0-7.75,1.8-9.48,4.62l1.71,1.04c1.28-2.1,4.01-3.66,7.77-3.66
		C33.77,32.52,36.54,34.14,37.78,36.32z"/>
	<path d="M70.08,30.51c-4.4,0-7.92,1.89-9.6,4.82l1.74,0.99c1.24-2.18,4.01-3.81,7.86-3.81c3.76,0,6.49,1.55,7.77,3.66l1.71-1.04
		C77.83,32.31,74.38,30.51,70.08,30.51z"/>
	<path d="M43.09,60.54c-0.49,0.83-0.76,1.83-0.76,2.87h4c0-0.38,0.08-0.62,0.21-0.85c0.2-0.34,0.59-0.7,1.21-0.97
		c0.61-0.27,1.42-0.43,2.24-0.43c1.09-0.01,2.16,0.3,2.79,0.73c0.32,0.21,0.53,0.44,0.67,0.67c0.13,0.23,0.21,0.48,0.21,0.85h4
		c0-1.04-0.27-2.04-0.76-2.87c-0.73-1.25-1.87-2.09-3.07-2.62c-1.21-0.53-2.53-0.76-3.84-0.76c-1.75,0.01-3.51,0.41-5,1.4
		C44.25,59.05,43.58,59.71,43.09,60.54z"/>
	<path d="M29.85,25.76L29.85,25.76h0.04c0.7,0,1.39,0,2.07,0c2.95,0,5.68-0.04,8.29-0.58c2.6-0.54,5.09-1.67,7.17-3.77l-2.83-2.83
		c-1.5,1.49-3.1,2.24-5.17,2.68c-2.06,0.44-4.55,0.5-7.46,0.5c-0.67,0-1.36,0-2.07,0h-0.02h-0.02h0c-7.83,0-14.33,2.77-18.4,7.28
		l2.97,2.68C17.59,28.19,22.94,25.76,29.85,25.76L29.85,25.76z"/>
	<path d="M70.15,21.76L70.15,21.76h-0.03H70.1c-0.71,0-1.4,0-2.07,0c-2.91,0-5.4-0.06-7.46-0.5c-2.06-0.45-3.67-1.2-5.17-2.68
		l-2.83,2.83c2.08,2.09,4.57,3.23,7.17,3.77c2.6,0.55,5.34,0.58,8.29,0.58c0.68,0,1.37,0,2.07,0h0.04h0h0
		c6.91,0,12.25,2.43,15.42,5.96l2.97-2.68C84.48,24.53,77.99,21.76,70.15,21.76z"/>
	<path d="M65.2,72.73c-1.8,1.13-3.65,2.05-6.02,2.71C56.81,76.1,53.89,76.5,50,76.5c-3.91,0-6.85-0.34-9.22-0.97
		c-2.37-0.63-4.18-1.54-5.91-2.76c-0.68-0.48-1.61-0.32-2.09,0.36c-0.48,0.68-0.32,1.61,0.36,2.09c1.97,1.4,4.17,2.49,6.88,3.21
		c2.71,0.72,5.91,1.07,9.99,1.07c4.09,0,7.29-0.42,9.98-1.16c2.69-0.74,4.85-1.83,6.82-3.07c0.7-0.44,0.91-1.37,0.47-2.07
		S65.9,72.29,65.2,72.73z"/>
</g>
</svg>
