<?xml version="1.0" encoding="utf-8"?>
<!-- Generator: Adobe Illustrator 16.0.0, SVG Export Plug-In . SVG Version: 6.00 Build 0)  -->
<!DOCTYPE svg PUBLIC "-//W3C//DTD SVG 1.1 Tiny//EN" "http://www.w3.org/Graphics/SVG/1.1/DTD/svg11-tiny.dtd">
<svg version="1.1" baseProfile="tiny" id="Capa_1" xmlns="http://www.w3.org/2000/svg" xmlns:xlink="http://www.w3.org/1999/xlink"
	 x="0px" y="0px" width="100px" height="100px" viewBox="0 0 100 100" xml:space="preserve">
<path d="M48,95c8.15,0,16.3,0,24.45,0c3.05,0,6.1,0,9.15,0c2.36,0,4.69-0.48,6.27-2.39c1.59-1.93,2-4.56,2.41-6.96
	c1.34-7.8,2.28-15.7,3.09-23.57c0.2-1.95,0.39-3.9,0.52-5.85c0.1-1.5,0.27-3.05-0.3-4.49c-1.46-3.68-6.21-4.67-9.61-3.34
	c-0.01-9.77-0.03-19.53-0.04-29.29c0-0.95,0.06-1.96-0.08-2.9c-0.69-4.67-5.96-6.26-9.87-4.43c0-3.84-2.83-6.62-6.66-6.78
	c-3.67-0.15-7.1,2.27-7.32,6.09C55.62,9.28,49.99,11.87,50,17c0,2.18,0,4.37,0,6.55c0,8.82,0,17.63,0,26.45h-7.3l-8.92,20.07
	L46.79,95H48z M45.3,54H50c0,5.33,0,10.67,0,16h4c0-9.21,0-40.14,0-46.39c0-1.86,0-3.71,0-5.57c0-0.79-0.09-1.68,0.37-2.37
	C55.75,13.6,59.99,14.29,60,17c0,11.33,0,22.67,0,34h4c0-10.59,0-21.19,0-31.78c0-0.74,0-1.48,0-2.22c0-1.3,0-2.6,0-3.9
	c0-0.85-0.15-1.91,0.23-2.69c1.07-2.19,5.48-1.83,5.75,0.76c0.23,2.18,0.02,4.49,0.02,6.67c0,5.1,0,28.76,0,35.48h4
	c0-5.41,0-33.16,0-35.07c0-1.22,0.38-2.17,1.5-2.77c1.08-0.58,2.78-0.76,3.78,0.1c0.95,0.81,0.67,2.74,0.68,3.88
	c0,2.33,0.01,4.66,0.01,6.98C79.97,32.82,80,52.12,80,55.39l4,0c0-0.88-0.18-1.97,0.49-2.67c1.17-1.21,3.8-1.23,5.01-0.06
	c0.96,0.93,0.43,3.08,0.34,4.25c-0.16,2.04-0.36,4.08-0.58,6.12c-0.84,7.86-1.67,15.83-3.21,23.59v0c-0.22,1.11-0.47,2.36-1.14,3.3
	C84.22,90.84,83.08,91,82,91c-0.86,0-1.71,0-2.57,0c-3.25,0-6.5,0-9.74,0c-6.73,0-13.45,0-20.18,0c-0.1,0-0.2,0-0.3,0L38.22,69.93
	L45.3,54z"/>
</svg>
