<?xml version="1.0" encoding="utf-8"?>
<!-- Generator: Adobe Illustrator 16.0.0, SVG Export Plug-In . SVG Version: 6.00 Build 0)  -->
<!DOCTYPE svg PUBLIC "-//W3C//DTD SVG 1.1 Tiny//EN" "http://www.w3.org/Graphics/SVG/1.1/DTD/svg11-tiny.dtd">
<svg version="1.1" baseProfile="tiny" id="Capa_1" xmlns="http://www.w3.org/2000/svg" xmlns:xlink="http://www.w3.org/1999/xlink"
	 x="0px" y="0px" width="100px" height="100px" viewBox="0 0 100 100" xml:space="preserve">
<path d="M98.01,34.71c-2.07-4.4-8.36-5.04-11.31-1.22c-1.37,1.77-1.93,4.27-2.67,6.35c0.59-4.91,1.18-9.83,1.77-14.74
	c0.2-1.69,0.52-3.4,0.59-5.1c0.1-2.59-1.11-5.07-3.29-6.49c-2.2-1.43-5.19-1.62-7.39-0.09c-1.57,1.09-2.46,2.89-2.71,4.75l0-0.01
	l-2.28,16.06c-0.36-6.98-0.55-14.01-1.2-20.97v0c-0.4-4.29-4.38-6.73-8.47-5.92c-1.9,0.38-3.7,1.43-4.78,3.06
	c-1.02,1.53-1.07,3.16-0.92,4.92c0.69,8.02,0.99,16.09,1.41,24.13c-2.04-6.24-4.14-12.46-6.08-18.74v0
	c-1.07-3.54-4.76-5.14-8.22-4.26c-3.73,0.95-6.35,4.54-5.16,8.39v0c3.02,9.78,5.99,19.57,8.98,29.36c0.52,1.7,1.17,3.28,1.15,5.05
	c-0.01,1.83-0.02,3.66-0.03,5.49c-0.01,1.63,0.25,3.34-1.53,4.17c-2.53,1.18-4.38-0.82-5.97-2.47c-1.51-1.56-3.08-3.07-4.63-4.59
	c-1.57-1.54-3.04-3.43-5.22-4.08c-4.01-1.2-8.69,1.09-11.85,3.46l-0.35,2.86c6.17,7.59,12.33,15.18,18.5,22.77
	c2.47,3.04,4.95,6.09,7.42,9.13c0.27,0.33,1.28,0.84,1.68,0.84c1.9,0,3.81,0,5.71,0c4.21,0,8.42,0,12.64,0c4.39,0,8.79,0,13.18,0
	c1.67,0,3.42,0.13,5.04-0.32c3.41-0.94,4.71-4.11,5.35-7.29v0c0.91-4.56,1.66-9.15,2.39-13.74c0.83-5.21,1.7-10.45,2.15-15.71
	c0.08-0.93,0.1-1.78,0.39-2.67c0.29-0.9,0.59-1.79,0.88-2.68c0.78-2.32,1.57-4.63,2.36-6.95c0.8-2.34,1.6-4.68,2.41-7.02
	C98.6,38.55,98.9,36.61,98.01,34.71C97.44,33.5,98.38,35.51,98.01,34.71z M92.03,57.74L92.03,57.74
	C92.03,57.74,92.03,57.74,92.03,57.74L92.03,57.74z M91.3,47.47c-0.93,2.73-1.87,5.46-2.76,8.21c-0.61,1.89-0.61,3.77-0.83,5.74
	c-0.56,5.05-1.36,10.09-2.18,15.11c-0.65,3.98-1.29,7.96-2.09,11.91c-0.22,1.11-0.47,2.36-1.14,3.3c-0.68,0.93-1.82,1.09-2.9,1.09
	c-0.84,0-1.69,0-2.53,0c-10.17,0-20.35,0-30.52,0L22.36,63.3c1.4-0.8,2.92-1.51,4.53-1.77c1.9-0.3,2.83,0.45,4.11,1.72
	c2.3,2.28,4.75,4.47,6.9,6.9l0,0c3.36,3.84,10.36,4.46,12.89-0.7c0.99-2.02,0.62-4.64,0.63-6.82c0.01-1.33,0.02-2.67,0.02-4
	c0-0.48,0.06-1.03-0.08-1.5c-1.22-3.97-2.43-7.94-3.64-11.91c-1.86-6.07-3.71-12.14-5.57-18.21c-0.55-1.79-1.99-4.53-0.18-5.96
	c0.99-0.79,2.56-1.15,3.74-0.58c0.88,0.42,1.11,1.31,1.38,2.16c0.74,2.33,1.5,4.66,2.26,6.99c1.78,5.46,3.56,10.92,5.35,16.38
	c0.69,2.1,1.38,4.21,2.07,6.31c0.24,0.74,0.87,1.85,0.87,2.64l3.9-0.72c0-1.63-0.16-3.28-0.25-4.91c-0.2-3.92-0.4-7.84-0.61-11.77
	c-0.22-4.18-0.44-8.35-0.68-12.53c-0.21-3.6-0.28-7.25-0.72-10.83v0c-0.31-2.4,2.77-3.5,4.67-2.81c1.91,0.7,1.68,3.09,1.78,4.75
	c0.26,4.15,0.48,8.29,0.7,12.44c0.27,5.06,0.53,10.11,0.79,15.17c0.12,2.26,0.23,4.52,0.34,6.77c0.08,1.49-0.06,3.19,0.23,4.66
	l3.98,0.18c1.4-9.86,2.8-19.73,4.2-29.59c0.28-2,0.57-3.99,0.85-5.99c0.05-0.34,0.1-0.68,0.15-1.03c0.31-2.17,2.36-3.12,4.19-1.71
	c1.61,1.24,1.22,3.11,1.01,4.82c-0.27,2.25-0.54,4.51-0.81,6.76c-1.14,9.53-2.29,19.06-3.43,28.6l3.87,0.91
	c1.6-4.5,3.2-9.01,4.79-13.51c0.82-2.3,1.63-4.59,2.45-6.89c0.29-0.81,0.57-1.65,1.26-2.22c2.07-1.72,4.96,0.52,4.12,2.95
	C93.36,41.45,92.33,44.46,91.3,47.47C90.51,49.79,92.79,43.13,91.3,47.47z"/>
</svg>
