<?xml version="1.0" encoding="utf-8"?>
<!-- Generator: Adobe Illustrator 16.0.0, SVG Export Plug-In . SVG Version: 6.00 Build 0)  -->
<!DOCTYPE svg PUBLIC "-//W3C//DTD SVG 1.1 Tiny//EN" "http://www.w3.org/Graphics/SVG/1.1/DTD/svg11-tiny.dtd">
<svg version="1.1" baseProfile="tiny" id="Capa_1" xmlns="http://www.w3.org/2000/svg" xmlns:xlink="http://www.w3.org/1999/xlink"
	 x="0px" y="0px" width="100px" height="100px" viewBox="0 0 100 100" xml:space="preserve">
<path d="M94,33L94,33c0.01-5.19-5.68-7.52-10.04-5.69c0-2.89-0.01-5.78-0.01-8.67c0-1.71-0.01-3.39-0.99-4.88
	c-1.92-2.93-5.97-3.38-8.96-1.98c0-3.84-2.83-6.62-6.66-6.78c-3.67-0.15-7.1,2.27-7.32,6.09c-2.58-1.07-5.8-0.72-7.93,1.15
	C50.57,13.59,50,15.43,50,17.4c0,1.81,0,37.79,0,44.01c0,1.64,0.49,4.32-1.02,5.39c-2.27,1.61-4.48-0.08-6.04-1.72
	c-1.88-1.99-3.87-3.87-5.82-5.79c-1.46-1.44-2.77-2.94-4.84-3.44c-2.17-0.52-4.45-0.01-6.48,0.79c-2.46,0.98-4.56,2.45-6.66,4.02
	L47.05,95c7.79,0,15.57,0,23.36,0c3.44,0,6.88,0,10.32,0c1.74,0,3.49,0.02,5.1-0.77c2.64-1.3,3.6-4.14,4.14-6.84
	c1.04-5.14,1.64-10.4,2.3-15.6c0.69-5.52,1.46-11.09,1.72-16.65C94.18,50.82,94,36.05,94,33z M90,52.62
	c-0.01,5.42-0.76,10.85-1.41,16.22c-0.72,5.92-1.39,11.91-2.55,17.76v0c-0.22,1.11-0.47,2.36-1.14,3.3C84.22,90.84,83.08,91,82,91
	c-0.84,0-1.69,0-2.53,0c-3.2,0-30.26,0-30.52,0L24.96,61.47c1.4-0.8,2.93-1.51,4.53-1.77c1.9-0.3,2.83,0.45,4.11,1.72
	c2.3,2.28,4.75,4.47,6.9,6.9l0,0c3.36,3.84,10.36,4.46,12.89-0.7C54.28,65.81,54,63.5,54,61.53c0-6.18,0-31.87,0-38.54
	c0-1.85,0-3.69,0-5.53c0-1.96,1.31-3.1,3.32-2.94c1.14,0.09,2.35,0.67,2.62,1.87c0.2,0.91,0.06,1.99,0.06,2.92
	c0,10.57,0,21.13,0,31.7h4c0-10.59,0-21.19,0-31.78c0-0.74,0-1.48,0-2.22c0-1.3,0-2.6,0-3.9c0-0.85-0.15-1.91,0.23-2.69
	c1.07-2.19,5.48-1.83,5.75,0.76c0.23,2.18,0.02,4.49,0.02,6.67c0,5.1,0,28.76,0,35.48h4c0-5.41,0-24.97,0-29.35
	c0-1.91,0-3.82,0-5.72c0-1.22,0.38-2.17,1.5-2.77c1.08-0.58,2.78-0.76,3.78,0.1c0.95,0.81,0.67,2.74,0.68,3.88
	c0,2.33,0.01,4.66,0.01,6.98C79.97,32.82,80,52.12,80,55.39l4,0c0-4.78,0-9.57,0-14.35c0-2.44,0-4.88,0-7.32
	c0-0.86-0.01-1.68,0.74-2.29c1.67-1.37,5.26-0.99,5.26,1.63C90,39.57,90.01,46.1,90,52.62C90,53.14,90,51.6,90,52.62z"/>
</svg>
