<?xml version="1.0" encoding="utf-8"?>
<!-- Generator: Adobe Illustrator 16.0.0, SVG Export Plug-In . SVG Version: 6.00 Build 0)  -->
<!DOCTYPE svg PUBLIC "-//W3C//DTD SVG 1.1 Tiny//EN" "http://www.w3.org/Graphics/SVG/1.1/DTD/svg11-tiny.dtd">
<svg version="1.1" baseProfile="tiny" id="Capa_1" xmlns="http://www.w3.org/2000/svg" xmlns:xlink="http://www.w3.org/1999/xlink"
	 x="0px" y="0px" width="100px" height="100px" viewBox="0 0 100 100" xml:space="preserve">
<path d="M75.35,54.46c1.66-2.26,1.84-5.51,0.57-8c-1.2-2.35-3.46-3.47-6.04-3.47c-3.44,0-6.87,0-10.31,0c-1.68,0-3.37,0-5.05,0
	c-0.86,0-1.93,0.16-2.78-0.07c-2.68-0.72-2.09-4.38-0.68-5.93c1.78-1.96,3.82-3.74,5.68-5.63c1.44-1.47,3.32-2.9,4.21-4.79
	c1.06-2.24,0.72-4.84-0.08-7.1c-0.96-2.73-2.56-5.06-4.28-7.35L22.25,40.05c0,7.79,0,15.57,0,23.36c0,3.44,0,6.88,0,10.32
	c0,1.74-0.02,3.49,0.77,5.1c1.3,2.64,4.14,3.6,6.84,4.14c8.25,1.66,16.74,2.52,25.1,3.4c2.01,0.21,4.02,0.41,6.04,0.55
	c1.38,0.09,2.8,0.21,4.15-0.18c4.14-1.21,5.34-6.32,3.72-9.93c4.32-1.07,5.82-6.26,4.11-10.03C78.24,65.37,79.3,57.83,75.35,54.46
	C75.56,54.19,75.66,54.72,75.35,54.46z M73.06,62.19c-0.81,1-2.1,0.81-3.25,0.81c-0.96,0-1.91,0-2.87,0c-1.01,0-2.01,0-3.02,0v4
	c0.53,0,1.05,0,1.58,0c1.06,0,2.39-0.24,3.25,0.53c1.47,1.33,1.34,4.91-0.89,5.4C66.8,73.17,65.55,73,64.47,73c-0.87,0-1.73,0-2.6,0
	v4c1.34,0,2.6-0.12,3.31,1.29c0.87,1.72,0.44,4.7-1.93,4.71l-0.06,0c-0.09,0-0.19,0-0.28,0h0c-5.32-0.11-10.7-0.93-15.97-1.59
	c-5.44-0.67-10.92-1.3-16.3-2.37h0c-1.11-0.22-2.36-0.47-3.3-1.14c-0.93-0.68-1.09-1.82-1.09-2.9c0-0.84,0-1.69,0-2.53
	c0-3.2,0-6.39,0-9.59c0-6.72,0-13.44,0-20.15c0-0.26,0-0.52,0-0.78l29.53-23.99c1.1,1.93,3.02,5.64,1.06,7.62
	c-2.11,2.11-4.17,4.26-6.29,6.36c-1.84,1.83-3.78,3.4-4.46,6.03c-0.63,2.44-0.04,5.17,1.7,7.03c2.27,2.44,5.54,1.99,8.55,1.99
	c3.7,0,7.41,0,11.11,0c0.86,0,1.71,0,2.57,0c1.76,0,2.74,1.28,2.74,3c0.01,1.83-1.05,3-2.87,3c-1.21,0-2.42,0-3.63,0v4
	c1.67,0,3.33,0,5,0C73.77,57.01,74.45,60.49,73.06,62.19C72.86,62.44,73.48,61.68,73.06,62.19z"/>
</svg>
