<?xml version="1.0" encoding="utf-8"?>
<!-- Generator: Adobe Illustrator 16.0.0, SVG Export Plug-In . SVG Version: 6.00 Build 0)  -->
<!DOCTYPE svg PUBLIC "-//W3C//DTD SVG 1.1 Tiny//EN" "http://www.w3.org/Graphics/SVG/1.1/DTD/svg11-tiny.dtd">
<svg version="1.1" baseProfile="tiny" id="Capa_1" xmlns="http://www.w3.org/2000/svg" xmlns:xlink="http://www.w3.org/1999/xlink"
	 x="0px" y="0px" width="100px" height="100px" viewBox="0 0 100 100" xml:space="preserve">
<path d="M93.99,53.74c-0.18-5.12-5.93-7.27-10.19-5.36c-1.07-4.32-6.26-5.82-10.03-4.11c-1.29-4.82-7.74-6.12-11.43-3.21
	c-1.54-5.52-4.08-10.81-7.84-15.18c-1.69-1.97-3.63-3.74-5.75-5.23c-2.24-1.57-4.98-3.39-7.78-3.52c-5.54-0.26-10.1,6.99-5.81,11.35
	c0.92,0.93,2.08,1.33,3.21,1.92c1.16,0.6,2.24,1.36,3.21,2.25c1.89,1.73,3.32,3.91,4.4,6.23c2.49,5.33,3.35,11.35,3.75,17.17
	C49.94,59.01,50,62.01,50,65c-0.02,2.77-3.84,2.77-5.49,1.59c-0.94-0.67-1.68-1.66-2.49-2.48c-0.96-0.97-1.93-1.92-2.9-2.88
	c-1-0.98-1.99-1.95-2.98-2.93c-0.94-0.93-1.84-1.79-3.11-2.24c-4.6-1.67-9.64,1.41-13.21,4.08c-0.23,0.17-0.45,0.34-0.68,0.51
	L47.05,95c7.79,0,15.57,0,23.36,0c3.44,0,6.88,0,10.32,0c1.74,0,3.49,0.02,5.1-0.77c2.64-1.3,3.6-4.14,4.14-6.84
	c1.14-5.76,1.81-11.63,2.52-17.45c0.38-3.12,0.74-6.23,1.05-9.36C93.75,58.4,94.26,55.93,93.99,53.74
	C93.95,52.83,94,53.84,93.99,53.74z M90,54.34L90,54.34c-0.12,5.45-0.96,10.94-1.63,16.34c-0.68,5.42-1.26,10.92-2.4,16.27
	c-0.23,1.07-0.5,2.32-1.24,3.17C84.05,90.91,82.92,91,81.94,91c-0.87,0-1.74,0-2.61,0c-3.23,0-6.45,0-9.68,0c-6.9,0-13.8,0-20.7,0
	L24.96,61.47c1.93-1.11,5.65-3.02,7.62-1.06h0c2.64,2.64,5.46,5.14,7.94,7.94l-0.02-0.03c3.36,3.84,10.36,4.46,12.89-0.7
	c1.12-2.29,0.61-5.4,0.53-7.87c-0.1-2.95-0.29-5.9-0.67-8.83c-0.74-5.79-2.13-11.73-5.26-16.73c-1.4-2.24-3.17-4.24-5.29-5.81
	c-1.04-0.76-2.15-1.42-3.32-1.96c-1.2-0.55-2.12-1.15-1.82-2.65c0.36-1.79,2.06-2.99,3.86-2.57c1.78,0.42,3.57,1.68,5.05,2.72
	c2.98,2.1,5.49,4.8,7.46,7.86c3.59,5.56,5.89,12.63,6.07,19.27L64,51c0-1.75-0.17-3.59,0.02-5.33c0.25-2.32,3.62-2.75,5.17-1.48
	c1,0.81,0.81,2.1,0.81,3.25c0,0.9,0,1.8,0,2.7c0,1.06,0,2.13,0,3.19h4c0-0.53,0-1.05,0-1.58c0-1.06-0.24-2.39,0.53-3.25
	c1.33-1.47,4.91-1.34,5.4,0.89C80.17,50.45,80,51.7,80,52.78c0,0.87,0,1.73,0,2.6h4c0-1.34-0.12-2.6,1.29-3.31
	C87,51.21,89.99,51.63,90,54C90,54,90,54.18,90,54.34z"/>
</svg>
