<?xml version="1.0" encoding="utf-8"?>
<!-- Generator: Adobe Illustrator 16.0.0, SVG Export Plug-In . SVG Version: 6.00 Build 0)  -->
<!DOCTYPE svg PUBLIC "-//W3C//DTD SVG 1.1 Tiny//EN" "http://www.w3.org/Graphics/SVG/1.1/DTD/svg11-tiny.dtd">
<svg version="1.1" baseProfile="tiny" id="Capa_1" xmlns="http://www.w3.org/2000/svg" xmlns:xlink="http://www.w3.org/1999/xlink"
	 x="0px" y="0px" width="100px" height="100px" viewBox="0 0 100 100" xml:space="preserve">
<g>
	<path d="M18,36c0-1.26,0.28-2.44,0.81-3.53c0.8-1.63,2.17-3.06,4.09-4.11c1.92-1.04,4.37-1.69,7.26-1.69c4.3,0,7.35-0.16,9.77-0.62
		c1.21-0.23,2.26-0.54,3.21-0.96c0.94-0.42,1.77-0.95,2.49-1.57c0.84-0.72,0.94-1.98,0.22-2.82c-0.72-0.84-1.98-0.94-2.82-0.22
		c-0.45,0.38-0.91,0.68-1.51,0.95c-0.9,0.4-2.14,0.72-3.98,0.93c-1.83,0.21-4.23,0.3-7.38,0.3c-4.64,0-8.65,1.39-11.55,3.78
		c-1.44,1.19-2.6,2.64-3.4,4.26C14.43,32.33,14,34.13,14,36c0,1.1,0.9,2,2,2S18,37.1,18,36z"/>
	<path d="M88,36c0-1.87-0.43-3.67-1.22-5.29c-1.19-2.44-3.2-4.47-5.77-5.86c-2.57-1.4-5.69-2.18-9.17-2.18
		c-4.2,0-7.06-0.17-9.02-0.55c-0.98-0.19-1.73-0.42-2.33-0.69c-0.6-0.27-1.07-0.57-1.51-0.95c-0.84-0.72-2.1-0.62-2.82,0.22
		s-0.62,2.1,0.22,2.82c0.72,0.62,1.55,1.15,2.49,1.57c1.42,0.63,3.07,1.01,5.15,1.25c2.08,0.24,4.6,0.33,7.83,0.33
		c3.86,0,6.93,1.15,9,2.86c1.04,0.86,1.82,1.85,2.36,2.94C83.72,33.56,84,34.74,84,36c0,1.1,0.9,2,2,2S88,37.1,88,36z"/>
	<circle cx="30.17" cy="33.17" r="2.83"/>
	<circle cx="69.83" cy="33.17" r="2.83"/>
	<path d="M42.33,57.5c0,1.04,0.27,2.04,0.76,2.87c0.73,1.25,1.87,2.09,3.07,2.62c1.21,0.53,2.53,0.76,3.84,0.76
		c1.75-0.01,3.51-0.41,5-1.4c0.74-0.49,1.42-1.15,1.9-1.98c0.49-0.83,0.76-1.83,0.76-2.87h-4c0,0.38-0.08,0.62-0.21,0.85
		c-0.2,0.34-0.59,0.7-1.21,0.97c-0.62,0.27-1.43,0.43-2.24,0.43c-1.09,0.01-2.16-0.3-2.79-0.73c-0.32-0.21-0.53-0.44-0.67-0.67
		c-0.13-0.23-0.21-0.48-0.21-0.85H42.33z"/>
	<path d="M33.41,77.41c1.64-1.64,3.76-2.52,5.77-2.96C41.2,74,43.02,74,44,74c0.06,0,0.26,0.03,0.6,0.2
		c0.5,0.24,1.21,0.75,2.06,1.28c0.43,0.26,0.9,0.52,1.45,0.74c0.55,0.21,1.19,0.37,1.89,0.37c0.94,0,1.75-0.28,2.42-0.6
		c1-0.49,1.78-1.07,2.42-1.47c0.32-0.2,0.59-0.34,0.79-0.42C55.83,74.01,55.95,74,56,74c0.98,0,2.8,0,4.82,0.45
		c2.01,0.45,4.13,1.32,5.77,2.96c0.78,0.78,2.05,0.78,2.83,0c0.78-0.78,0.78-2.05,0-2.83c-2.36-2.36-5.24-3.49-7.73-4.04
		S57.02,70,56,70c-0.94,0-1.72,0.29-2.37,0.61c-0.97,0.49-1.72,1.06-2.37,1.45c-0.32,0.19-0.6,0.34-0.81,0.42
		c-0.22,0.08-0.36,0.1-0.45,0.1c-0.12,0-0.34-0.04-0.69-0.21c-0.52-0.24-1.22-0.74-2.04-1.26c-0.42-0.26-0.88-0.52-1.41-0.73
		C45.33,70.17,44.7,70,44,70c-1.02,0-3.2,0-5.68,0.55s-5.37,1.68-7.73,4.04c-0.78,0.78-0.78,2.05,0,2.83
		C31.37,78.2,32.63,78.2,33.41,77.41z"/>
</g>
</svg>
