<?xml version="1.0" encoding="utf-8"?>
<!-- Generator: Adobe Illustrator 16.0.0, SVG Export Plug-In . SVG Version: 6.00 Build 0)  -->
<!DOCTYPE svg PUBLIC "-//W3C//DTD SVG 1.1//EN" "http://www.w3.org/Graphics/SVG/1.1/DTD/svg11.dtd">
<svg version="1.1" id="Capa_1" xmlns="http://www.w3.org/2000/svg" xmlns:xlink="http://www.w3.org/1999/xlink" x="0px" y="0px"
	 width="100px" height="100px" viewBox="0 0 100 100" enable-background="new 0 0 100 100" xml:space="preserve">
<g>
	<path d="M29.31,43.55c0,0-2.41-1.7-3.89-0.3c-0.34,0.32-0.47,0.47-0.62,0.63c1.28-5.3,4.18-9.97,8.16-13.45
		c4.58-4,10.54-6.42,17.1-6.42c6.56,0,12.53,2.42,17.1,6.42c4.57,4,7.73,9.57,8.63,15.87l3.96-0.57c-1.04-7.27-4.69-13.7-9.96-18.31
		C64.53,22.8,57.61,20,50.06,20c-7.55,0-14.46,2.8-19.73,7.41c-4.8,4.19-8.24,9.9-9.61,16.38c-0.19-0.28-0.32-0.46-0.71-0.96
		c-1.24-1.61-3.89-0.3-3.89-0.3l6.02,7.88L29.31,43.55z"/>
	<path d="M77.81,49.57l-7.13,6.89c0,0,2.42,1.68,3.89,0.28c0.47-0.45,0.55-0.57,0.8-0.84c-1.25,5.4-4.18,10.15-8.22,13.68
		c-4.58,4-10.54,6.42-17.1,6.42c-6.56,0-12.53-2.42-17.1-6.42c-4.57-4-7.73-9.57-8.63-15.87l-3.96,0.57
		c1.04,7.27,4.69,13.7,9.96,18.31C35.6,77.2,42.51,80,50.06,80c7.55,0,14.46-2.8,19.73-7.41c4.77-4.17,8.2-9.83,9.58-16.26
		c0.15,0.21,0.29,0.4,0.6,0.79c1.26,1.6,3.89,0.28,3.89,0.28L77.81,49.57z"/>
</g>
</svg>
