<?xml version="1.0" encoding="utf-8"?>
<!-- Generator: Adobe Illustrator 16.0.0, SVG Export Plug-In . SVG Version: 6.00 Build 0)  -->
<!DOCTYPE svg PUBLIC "-//W3C//DTD SVG 1.1//EN" "http://www.w3.org/Graphics/SVG/1.1/DTD/svg11.dtd">
<svg version="1.1" id="Capa_1" xmlns="http://www.w3.org/2000/svg" xmlns:xlink="http://www.w3.org/1999/xlink" x="0px" y="0px"
	 width="100px" height="100px" viewBox="0 0 100 100" enable-background="new 0 0 100 100" xml:space="preserve">
<g>
	<path d="M19.98,44.33c-0.9,0.3-0.73,0.31-1.76,0.65l10.9-19.22c0.24,1.05,0.14,0.92,0.34,1.84c0.45,1.98,3.4,1.93,3.4,1.93
		l-2.11-9.69L21.36,23c0,0,1.46,2.56,3.4,1.93c0.9-0.29,0.73-0.31,1.76-0.65L15.61,43.5c-0.24-1.05-0.14-0.92-0.34-1.84
		c-0.45-1.98-3.4-1.93-3.4-1.93l2.11,9.69l9.4-3.16C23.37,46.26,21.91,43.7,19.98,44.33z"/>
	<path d="M89.5,46.11c-0.61-1.39-1.65-2.45-2.83-3.12C85.5,42.31,84.19,42,82.9,42c-1,0-2,0.22-2.94,0.62
		c-0.09-0.49-0.23-0.96-0.43-1.39c-0.55-1.23-1.5-2.17-2.56-2.74c-1.07-0.58-2.24-0.82-3.4-0.82c-1.24,0-2.47,0.29-3.6,0.85
		c-0.11-0.48-0.26-0.93-0.47-1.36c-0.62-1.27-1.64-2.21-2.76-2.8c-1.13-0.59-2.37-0.86-3.61-0.86c-1.02,0-2.04,0.19-3,0.58v-5.66
		l-7.33-12.1l-8.11-5.37l-0.07-0.04c-1.1-0.62-2.27-0.92-3.4-0.91c-1.02,0-2,0.24-2.85,0.65c-1.29,0.61-2.34,1.57-3.08,2.71
		c-0.74,1.14-1.2,2.48-1.21,3.9c0,0.85,0.17,1.73,0.56,2.55c0.38,0.83,0.98,1.59,1.75,2.21l0.06,0.05l5.15,3.6l4.54,8.53
		c0,3.48,0,24.51,0,25.8c0,0.61-0.26,1.15-0.81,1.62c-0.54,0.47-1.35,0.79-2.24,0.79c-1.08-0.01-2.27-0.42-3.45-1.74l0,0
		c-0.38-0.44-0.89-0.96-1.48-1.56c-1.78-1.81-4.41-4.33-6.6-6.53c-0.71-0.71-1.54-1.22-2.39-1.53c-0.86-0.31-1.74-0.43-2.58-0.43
		c-1.27,0-2.48,0.26-3.6,0.62c-1.67,0.54-3.15,1.32-4.23,1.96c-1.08,0.64-1.77,1.16-1.81,1.19l-1.66,1.25L43.18,90h0.95
		c0,0,1.88,0,4.75,0c8.62,0,26.25,0,29.25,0c1.17,0,2.24-0.15,3.21-0.51c0.73-0.27,1.4-0.66,1.96-1.16
		c0.85-0.75,1.44-1.69,1.86-2.68c0.42-1,0.7-2.08,0.93-3.26c0.33-1.65,0.73-4.16,1.16-7.12c0.64-4.43,1.33-9.85,1.88-14.67
		c0.27-2.41,0.51-4.67,0.69-6.59c0.17-1.92,0.29-3.49,0.31-4.58l0-0.21C90.13,48.09,89.91,47.03,89.5,46.11z M86.13,49.34
		c-0.03,1.21-0.21,3.51-0.49,6.29c-0.42,4.19-1.06,9.53-1.71,14.41c-0.65,4.87-1.31,9.3-1.77,11.57c-0.18,0.92-0.38,1.68-0.61,2.27
		c-0.17,0.44-0.35,0.78-0.53,1.03c-0.28,0.38-0.53,0.58-0.93,0.77C79.68,85.86,79.06,86,78.13,86c-3.58,0-27.95,0-33.05,0
		L21.09,56.47c0.24-0.14,0.5-0.28,0.78-0.42c0.73-0.38,1.56-0.74,2.38-1.01c0.82-0.26,1.64-0.42,2.32-0.42
		c0.47,0,0.87,0.07,1.21,0.19c0.35,0.13,0.64,0.31,0.93,0.6c1.49,1.49,3.15,3.11,4.61,4.54c0.73,0.72,1.4,1.39,1.97,1.97
		c0.57,0.58,1.04,1.07,1.33,1.4l0,0c1.84,2.1,4.23,3.1,6.45,3.09c1.83,0,3.54-0.64,4.85-1.75c1.3-1.11,2.21-2.77,2.2-4.66
		c0-0.71,0-7.28,0-13.68c0-3.2,0-6.36,0-8.71c0-2.36,0-3.91,0-3.91v-0.5l-5.46-10.26l-5.78-4.04c-0.31-0.26-0.5-0.51-0.62-0.77
		c-0.12-0.27-0.18-0.55-0.18-0.87c-0.01-0.7,0.35-1.58,0.96-2.23c0.3-0.32,0.66-0.59,1.03-0.76c0.37-0.17,0.75-0.27,1.15-0.27
		c0.42,0,0.88,0.1,1.41,0.39l7.2,4.77l6.29,10.38V40c0,3.48,0,3.69,0,6h4v-6c0-0.47,0.09-0.81,0.23-1.09c0.2-0.42,0.53-0.74,1.02-1
		c0.48-0.25,1.11-0.41,1.75-0.4c0.86,0,1.68,0.27,2.19,0.69c0.26,0.21,0.45,0.44,0.58,0.72c0.14,0.28,0.23,0.62,0.23,1.09
		c0,1.54,0,3.13,0,4.5c0,3.54,0,3.81,0,3.82c0,0,0,0,0,0c0,0.53,0.21,1.04,0.59,1.41c0.37,0.37,0.89,0.59,1.41,0.59
		s1.04-0.21,1.41-0.59c0.37-0.37,0.59-0.89,0.59-1.41v0c0,0,0-1.63,0-3.82c0-0.48,0.1-0.84,0.26-1.16c0.24-0.48,0.66-0.89,1.24-1.2
		c0.57-0.31,1.28-0.48,1.94-0.48c0.78,0,1.45,0.24,1.84,0.57c0.2,0.17,0.35,0.36,0.47,0.62c0.12,0.26,0.2,0.61,0.2,1.1v0.03V44
		l0.05,6.4l4-0.02v-2c0-0.45,0.09-0.78,0.21-1.05c0.19-0.4,0.49-0.71,0.93-0.95C81.72,46.14,82.3,46,82.9,46
		c0.86,0,1.7,0.29,2.26,0.79c0.29,0.25,0.51,0.55,0.68,0.93c0.17,0.38,0.28,0.86,0.29,1.49L86.13,49.34z"/>
</g>
</svg>
