<?xml version="1.0" encoding="utf-8"?>
<!-- Generator: Adobe Illustrator 16.0.0, SVG Export Plug-In . SVG Version: 6.00 Build 0)  -->
<!DOCTYPE svg PUBLIC "-//W3C//DTD SVG 1.1//EN" "http://www.w3.org/Graphics/SVG/1.1/DTD/svg11.dtd">
<svg version="1.1" id="Capa_1" xmlns="http://www.w3.org/2000/svg" xmlns:xlink="http://www.w3.org/1999/xlink" x="0px" y="0px"
	 width="100px" height="100px" viewBox="0 0 100 100" enable-background="new 0 0 100 100" xml:space="preserve">
<g>
	<path d="M80,58.57c0-1.01,0-2.29,0-2.29v0.01c0-1.01-0.21-1.96-0.62-2.79c-0.6-1.25-1.61-2.17-2.72-2.73
		c-1.11-0.57-2.33-0.82-3.53-0.82c-1.08,0-2.16,0.23-3.17,0.65c-0.07-0.79-0.26-1.53-0.56-2.2c-0.59-1.28-1.58-2.24-2.69-2.83
		c-1.11-0.6-2.34-0.86-3.55-0.86c-1.08,0-2.15,0.23-3.16,0.67c0-11.32,0-26.17,0-28.59c0-1.03-0.22-2-0.63-2.84
		c-0.62-1.27-1.64-2.21-2.76-2.8c-1.13-0.59-2.37-0.86-3.61-0.86c-1.64,0-3.32,0.48-4.69,1.56c-0.68,0.54-1.27,1.25-1.68,2.09
		c-0.36,0.73-0.56,1.57-0.61,2.44c-0.97-0.4-1.99-0.6-3.02-0.6c-1.64,0-3.32,0.48-4.69,1.56c-0.68,0.54-1.27,1.25-1.68,2.09
		C36.22,20.29,36,21.26,36,22.29c0,1.94,0,17.04,0,29.01c-0.21,0-0.42,0.02-0.63,0.09l-6.81,2.27l-8.76,18.62l12.93,28.01H34
		c0,0,1.88,0,4.75,0c8.62,0,26.25,0,29.25,0c1.17,0,2.24-0.15,3.21-0.51c0.73-0.27,1.4-0.66,1.96-1.16
		c0.85-0.75,1.44-1.69,1.86-2.68c0.42-1,0.7-2.08,0.93-3.26c0.33-1.65,0.73-4.16,1.16-7.12c0.64-4.43,1.33-9.85,1.88-14.67
		c0.27-2.41,0.51-4.67,0.69-6.59c0.17-1.92,0.29-3.49,0.31-4.58v0C80,59.5,80,59.08,80,58.57z M76,59.62L76,59.62
		c-0.03,1.21-0.21,3.51-0.49,6.29c-0.42,4.19-1.06,9.53-1.71,14.41c-0.65,4.87-1.31,9.3-1.77,11.57c-0.18,0.92-0.38,1.68-0.61,2.27
		c-0.17,0.44-0.35,0.78-0.53,1.03c-0.28,0.38-0.53,0.59-0.93,0.77c-0.41,0.18-1.03,0.32-1.96,0.32c-3.5,0-26.96,0-32.72,0L24.2,72.3
		l7.24-15.38L36,55.4c0,5.08,0,9.08,0,10.41l-1.78,3.51c-0.5,0.98-0.11,2.19,0.88,2.69s2.19,0.11,2.69-0.88L40,66.77v-0.48
		c0,0,0-40.72,0-44c0-0.47,0.09-0.81,0.23-1.09c0.2-0.42,0.53-0.74,1.02-1c0.48-0.25,1.11-0.41,1.75-0.4c0.86,0,1.68,0.27,2.19,0.69
		c0.26,0.21,0.45,0.44,0.58,0.72c0.14,0.28,0.23,0.62,0.23,1.09c0,10.59,0,32.17,0,34h4c0,0,0-30,0-34c0-2.76,0-4.78,0-5.5
		c0-0.47,0.09-0.81,0.23-1.09c0.2-0.42,0.53-0.74,1.02-1c0.48-0.25,1.11-0.41,1.75-0.4c0.86,0,1.68,0.27,2.19,0.69
		c0.26,0.21,0.45,0.44,0.58,0.72c0.14,0.28,0.23,0.62,0.23,1.09c0,2.88,0,23.3,0,34.5c0,4,0,7.32,0,7.32h4c0,0,0-2.97,0-7.32
		c0-0.46,0.09-0.79,0.24-1.08c0.21-0.43,0.58-0.79,1.1-1.06c0.52-0.27,1.18-0.43,1.82-0.43c0.83,0,1.6,0.26,2.06,0.65
		c0.24,0.2,0.42,0.42,0.55,0.71C65.9,50.37,66,50.73,66,51.24v0.03v0v5.01v4.38h4v-4.38c0-0.41,0.08-0.69,0.22-0.95
		c0.2-0.38,0.55-0.72,1.07-0.98c0.52-0.26,1.19-0.42,1.85-0.41c0.85,0,1.65,0.26,2.11,0.64c0.24,0.19,0.41,0.4,0.54,0.66
		C75.91,55.5,76,55.82,76,56.29v0.01c0,0,0,1.28,0,2.28C76,59.07,76,59.51,76,59.62z"/>
	<rect x="27.63" y="20.93" width="6" height="4"/>
	<rect x="30.35" y="12.08" transform="matrix(0.8349 0.5504 -0.5504 0.8349 13.2267 -15.9392)" width="5.66" height="4"/>
	<rect x="36.78" y="5.95" transform="matrix(0.41 0.9121 -0.9121 0.41 30.7169 -31.5929)" width="6" height="4"/>
	<rect x="47.42" y="1.71" width="4" height="6"/>
	<rect x="61.66" y="10.14" transform="matrix(-0.9122 0.4097 -0.4097 -0.9122 128.2896 -3.2065)" width="5.66" height="4"/>
	<rect x="57.53" y="3.2" transform="matrix(0.8745 0.4851 -0.4851 0.8745 10.398 -28.1197)" width="4" height="5.66"/>
	<rect x="62.55" y="18.39" width="6" height="4"/>
</g>
</svg>
