<?xml version="1.0" encoding="utf-8"?>
<!-- Generator: Adobe Illustrator 16.0.0, SVG Export Plug-In . SVG Version: 6.00 Build 0)  -->
<!DOCTYPE svg PUBLIC "-//W3C//DTD SVG 1.1//EN" "http://www.w3.org/Graphics/SVG/1.1/DTD/svg11.dtd">
<svg version="1.1" id="Capa_1" xmlns="http://www.w3.org/2000/svg" xmlns:xlink="http://www.w3.org/1999/xlink" x="0px" y="0px"
	 width="100px" height="100px" viewBox="0 0 100 100" enable-background="new 0 0 100 100" xml:space="preserve">
<path d="M50,2.56C23.8,2.56,2.56,23.8,2.56,50C2.56,76.2,23.8,97.44,50,97.44c26.2,0,47.44-21.24,47.44-47.44
	C97.44,23.8,76.2,2.56,50,2.56z M80.72,80.72C72.85,88.58,62,93.44,50,93.44c-12,0-22.85-4.86-30.72-12.72
	C11.42,72.85,6.56,62,6.56,50c0-12,4.86-22.85,12.72-30.72C27.15,11.42,38,6.56,50,6.56c12,0,22.85,4.86,30.72,12.72
	C88.58,27.15,93.44,38,93.44,50C93.44,62,88.58,72.85,80.72,80.72z"/>
<path fill="none" d="M61,67.79H39v-8.43c-0.4-0.07-0.81-0.14-1.2-0.22c-0.27-0.06-0.54-0.12-0.8-0.18V77.4
	c0,0.27,0.11,0.51,0.29,0.71c0.19,0.19,0.43,0.29,0.71,0.29h6.12c1.39-0.44,2.79-0.95,4.21-1.54c4.89-2.04,9.9-5.01,14.67-8.82
	v-9.09c-0.65,0.15-1.32,0.29-2,0.42V67.79z"/>
<g>
	<path d="M63,73.84v3.57c0,0.27-0.11,0.51-0.29,0.71c-0.19,0.19-0.43,0.29-0.71,0.29h-5.96c-2.18,1.24-4.37,2.32-6.55,3.23
		c-0.65,0.27-1.31,0.53-1.96,0.77H62c2.76-0.01,4.99-2.24,5-5v-6.79c-0.27,0.23-0.52,0.47-0.79,0.69
		C65.15,72.2,64.08,73.03,63,73.84z"/>
	<circle cx="50" cy="71.79" r="3"/>
	<path d="M39,59.36v8.43h22v-8.42c-3.33,0.62-7.05,0.97-11,0.98C46.05,60.35,42.33,59.98,39,59.36z"/>
	<path d="M82.12,23.04c-1.79-2.14-4.1-3.72-6.72-4.74c-2.62-1.03-5.57-1.51-8.71-1.51c-2.35,0-4.81,0.28-7.34,0.81H38
		c-2.76,0.01-4.99,2.24-5,5v8.79c-5.85,5.06-10.52,10.74-13.77,16.46c-3.39,5.98-5.26,12.02-5.26,17.49c0,4.39,1.23,8.45,3.91,11.63
		c1.79,2.14,4.09,3.72,6.72,4.74c2.62,1.03,5.57,1.51,8.71,1.51c5.02,0,10.55-1.24,16.18-3.58c5.63-2.35,11.35-5.82,16.72-10.32
		c6.23-5.23,11.16-11.17,14.56-17.15c3.39-5.98,5.26-12.02,5.26-17.49C86.03,30.28,84.79,26.22,82.12,23.04z M37,22.6
		c0-0.27,0.11-0.51,0.29-0.71c0.19-0.19,0.43-0.29,0.71-0.29h24c0.27,0,0.51,0.11,0.71,0.29C62.89,22.08,63,22.32,63,22.6v31.28
		c-0.46,0.12-0.94,0.23-1.43,0.33c-0.18,0.04-0.39,0.07-0.57,0.1V23.79H39v30.53c-0.69-0.14-1.36-0.28-2-0.44V22.6z M78.16,50.68
		C75.46,55.43,71.69,60.2,67,64.59V57.8c-1.23,0.44-2.57,0.82-4,1.15v9.09c-4.77,3.81-9.78,6.78-14.67,8.82
		c-1.42,0.59-2.83,1.1-4.21,1.54H38c-0.27,0-0.51-0.11-0.71-0.29C37.11,77.92,37,77.68,37,77.4V58.96c-1.43-0.33-2.77-0.72-4-1.15
		v19.6c0,1.04,0.33,2,0.87,2.8c-0.18,0-0.37,0.02-0.56,0.02c-2.83,0-5.41-0.44-7.62-1.31c-2.21-0.87-4.06-2.15-5.51-3.88
		c-2.15-2.57-3.2-5.86-3.21-9.7c0-4.78,1.67-10.37,4.87-16.01c2.69-4.75,6.47-9.52,11.16-13.91v4.78c-2.08,0.74-3.86,1.61-5.26,2.65
		c-0.91,0.68-1.67,1.42-2.23,2.28c-0.55,0.85-0.89,1.84-0.89,2.88c0,0.89,0.25,1.75,0.67,2.51c0.75,1.34,1.97,2.42,3.5,3.36
		c2.31,1.4,5.38,2.5,9,3.27c3.62,0.77,7.77,1.21,12.2,1.21c6.75,0,12.85-1,17.4-2.68c2.28-0.85,4.17-1.86,5.58-3.09
		c0.71-0.62,1.29-1.3,1.72-2.06c0.42-0.76,0.67-1.62,0.67-2.51c0-0.99-0.31-1.93-0.82-2.76c-0.77-1.24-1.95-2.26-3.43-3.15
		c-1.19-0.71-2.58-1.34-4.13-1.89V22.6c0-1.04-0.32-1.99-0.85-2.79c0.18,0,0.36-0.02,0.54-0.02c2.83,0,5.41,0.44,7.62,1.31
		c2.21,0.87,4.07,2.15,5.52,3.88c2.15,2.57,3.2,5.85,3.2,9.7C83.03,39.45,81.36,45.04,78.16,50.68z M33,43.4v9.19
		c-1.73-0.7-3.12-1.49-4.01-2.27c-0.5-0.44-0.85-0.87-1.07-1.26c-0.21-0.39-0.3-0.72-0.3-1.06c0-0.39,0.11-0.78,0.41-1.25
		c0.44-0.7,1.35-1.51,2.67-2.26C31.38,44.11,32.14,43.74,33,43.4z M67,52.6v-9.2c1.52,0.61,2.77,1.3,3.66,1.99
		c0.63,0.49,1.08,0.98,1.34,1.42c0.27,0.44,0.37,0.82,0.37,1.19c0,0.33-0.08,0.67-0.3,1.06c-0.37,0.68-1.18,1.49-2.44,2.25
		C68.9,51.76,68.01,52.2,67,52.6z"/>
</g>
</svg>
