<?xml version="1.0" encoding="utf-8"?>
<!-- Generator: Adobe Illustrator 16.0.0, SVG Export Plug-In . SVG Version: 6.00 Build 0)  -->
<!DOCTYPE svg PUBLIC "-//W3C//DTD SVG 1.1 Tiny//EN" "http://www.w3.org/Graphics/SVG/1.1/DTD/svg11-tiny.dtd">
<svg version="1.1" baseProfile="tiny" id="Capa_1" xmlns="http://www.w3.org/2000/svg" xmlns:xlink="http://www.w3.org/1999/xlink"
	 x="0px" y="0px" width="100px" height="100px" viewBox="0 0 100 100" xml:space="preserve">
<path fill="none" d="M66.24,24.27c-0.68-0.54-1.89-1.16-3.46-1.68c-3.15-1.05-7.73-1.75-12.78-1.75c-3.32,0-6.43,0.3-9.07,0.8
	c-2.64,0.5-4.81,1.23-6.2,2c-0.93,0.5-1.47,1.03-1.62,1.3c-0.09,0.16-0.09,0.2-0.09,0.23c0,0.03,0,0.07,0.09,0.23
	c0.09,0.15,0.3,0.39,0.64,0.66c0.68,0.54,1.89,1.16,3.46,1.68c3.15,1.05,7.73,1.75,12.78,1.75c3.32,0,6.43-0.3,9.07-0.8
	c2.64-0.5,4.81-1.23,6.2-2c0.93-0.5,1.47-1.03,1.62-1.3c0.09-0.16,0.09-0.2,0.09-0.23c0-0.03,0-0.07-0.09-0.23
	C66.79,24.78,66.59,24.53,66.24,24.27z"/>
<path d="M70.29,22.84c-0.73-1.17-1.81-2-3.1-2.71c-1.94-1.06-4.44-1.85-7.37-2.42c-2.92-0.56-6.26-0.87-9.82-0.87
	c-5.42,0-10.33,0.72-14.05,1.96c-1.86,0.62-3.43,1.37-4.67,2.34c-0.62,0.49-1.16,1.04-1.57,1.71c-0.41,0.66-0.68,1.47-0.68,2.32
	v42.69c0,0.85,0.27,1.66,0.68,2.32c0.73,1.17,1.81,2,3.1,2.71c1.94,1.06,4.44,1.85,7.37,2.42c2.38,0.46,5.04,0.74,7.87,0.83v10.62
	c-0.94-1.04-0.75-0.95-1.57-1.86c-1.78-1.96-5.08,0-5.08,0L50,94.5l8.61-9.62c0,0-3.3-1.96-5.09,0c-0.83,0.91-0.63,0.82-1.57,1.86
	V76.13c4.64-0.15,8.83-0.84,12.09-1.92c1.86-0.62,3.43-1.37,4.67-2.34c0.62-0.49,1.16-1.04,1.57-1.71c0.41-0.66,0.68-1.47,0.68-2.32
	V25.16C70.97,24.31,70.7,23.5,70.29,22.84z M66.97,67.84c0,0.03,0,0.07-0.09,0.23c-0.15,0.27-0.69,0.8-1.62,1.3
	c-1.38,0.76-3.56,1.49-6.2,2c-2.11,0.4-4.53,0.67-7.11,0.76V61.8c-0.58,0.33-1.24,0.53-1.96,0.53c-0.71,0-1.37-0.2-1.95-0.53v10.33
	c-4.27-0.15-8.09-0.8-10.83-1.71c-1.57-0.52-2.78-1.14-3.46-1.68c-0.34-0.27-0.55-0.51-0.64-0.66c-0.09-0.16-0.09-0.2-0.09-0.23
	V30.29c1.91,1.01,4.33,1.77,7.15,2.31c2.92,0.56,6.26,0.87,9.82,0.87c5.42,0,10.33-0.72,14.05-1.96c1.08-0.36,2.05-0.77,2.92-1.23
	V67.84z M66.88,25.38c-0.15,0.27-0.69,0.8-1.62,1.3c-1.38,0.76-3.56,1.5-6.2,2c-2.64,0.51-5.75,0.8-9.07,0.8
	c-5.06,0-9.63-0.7-12.78-1.75c-1.57-0.52-2.78-1.14-3.46-1.68c-0.34-0.27-0.55-0.51-0.64-0.66c-0.09-0.16-0.09-0.2-0.09-0.23
	c0-0.03,0-0.07,0.09-0.23c0.15-0.27,0.69-0.8,1.62-1.3c1.38-0.76,3.56-1.49,6.2-2c2.64-0.51,5.75-0.8,9.07-0.8
	c5.06,0,9.63,0.7,12.78,1.75c1.57,0.52,2.78,1.14,3.46,1.68c0.34,0.27,0.55,0.51,0.64,0.66c0.09,0.16,0.09,0.2,0.09,0.23
	C66.97,25.18,66.97,25.23,66.88,25.38z"/>
<circle cx="49.97" cy="57.97" r="2.15"/>
</svg>
