<?xml version="1.0" encoding="utf-8"?>
<!-- Generator: Adobe Illustrator 16.0.0, SVG Export Plug-In . SVG Version: 6.00 Build 0)  -->
<!DOCTYPE svg PUBLIC "-//W3C//DTD SVG 1.1//EN" "http://www.w3.org/Graphics/SVG/1.1/DTD/svg11.dtd">
<svg version="1.1" id="Capa_1" xmlns="http://www.w3.org/2000/svg" xmlns:xlink="http://www.w3.org/1999/xlink" x="0px" y="0px"
	 width="100px" height="100px" viewBox="0 0 100 100" enable-background="new 0 0 100 100" xml:space="preserve">
<g>
	<path d="M93,52.5H7c-2.48,0.01-4.49,2.01-4.5,4.5v36c0.01,2.49,2.02,4.49,4.5,4.5h86c2.48-0.01,4.49-2.01,4.5-4.5V57
		C97.49,54.51,95.48,52.51,93,52.5z M94.06,94.06c-0.28,0.28-0.65,0.44-1.06,0.44H7c-0.41,0-0.78-0.17-1.06-0.44
		C5.67,93.78,5.5,93.41,5.5,93V57c0-0.41,0.17-0.78,0.44-1.06C6.22,55.67,6.59,55.5,7,55.5h86c0.41,0,0.78,0.17,1.06,0.44
		c0.28,0.28,0.44,0.65,0.44,1.06v36C94.5,93.41,94.33,93.78,94.06,94.06z"/>
	<path d="M21.4,85.2H9c-0.55,0-1,0.45-1,1V91c0,0.55,0.45,1,1,1h12.4c0.55,0,1-0.45,1-1v-4.8C22.4,85.65,21.95,85.2,21.4,85.2z"/>
	<path d="M91,85.2H78.6c-0.55,0-1,0.45-1,1V91c0,0.55,0.45,1,1,1H91c0.55,0,1-0.45,1-1v-4.8C92,85.65,91.55,85.2,91,85.2z"/>
	<path d="M74.2,85.2H25.8c-0.55,0-1,0.45-1,1V91c0,0.55,0.45,1,1,1h48.4c0.55,0,1-0.45,1-1v-4.8C75.2,85.65,74.75,85.2,74.2,85.2z"
		/>
	<path d="M9,82.93h5.2c0.55,0,1-0.45,1-1v-4.8c0-0.55-0.45-1-1-1H9c-0.55,0-1,0.45-1,1v4.8C8,82.48,8.45,82.93,9,82.93z"/>
	<path d="M24.8,77.13c0-0.55-0.45-1-1-1h-5.2c-0.55,0-1,0.45-1,1v4.8c0,0.55,0.45,1,1,1h5.2c0.55,0,1-0.45,1-1V77.13z"/>
	<path d="M28.2,82.93h5.2c0.55,0,1-0.45,1-1v-4.8c0-0.55-0.45-1-1-1h-5.2c-0.55,0-1,0.45-1,1v4.8C27.2,82.48,27.65,82.93,28.2,82.93
		z"/>
	<path d="M37.8,82.93H43c0.55,0,1-0.45,1-1v-4.8c0-0.55-0.45-1-1-1h-5.2c-0.55,0-1,0.45-1,1v4.8C36.8,82.48,37.25,82.93,37.8,82.93z
		"/>
	<path d="M47.4,82.93h5.2c0.55,0,1-0.45,1-1v-4.8c0-0.55-0.45-1-1-1h-5.2c-0.55,0-1,0.45-1,1v4.8C46.4,82.48,46.85,82.93,47.4,82.93
		z"/>
	<path d="M57,82.93h5.2c0.55,0,1-0.45,1-1v-4.8c0-0.55-0.45-1-1-1H57c-0.55,0-1,0.45-1,1v4.8C56,82.48,56.45,82.93,57,82.93z"/>
	<path d="M66.6,82.93h5.2c0.55,0,1-0.45,1-1v-4.8c0-0.55-0.45-1-1-1h-5.2c-0.55,0-1,0.45-1,1v4.8C65.6,82.48,66.05,82.93,66.6,82.93
		z"/>
	<path d="M82.4,81.93v-4.8c0-0.55-0.45-1-1-1h-5.2c-0.55,0-1,0.45-1,1v4.8c0,0.55,0.45,1,1,1h5.2C81.95,82.93,82.4,82.48,82.4,81.93
		z"/>
	<path d="M91,76.13h-5.2c-0.55,0-1,0.45-1,1v4.8c0,0.55,0.45,1,1,1H91c0.55,0,1-0.45,1-1v-4.8C92,76.58,91.55,76.13,91,76.13z"/>
	<path d="M9,64.8h5.2c0.55,0,1-0.45,1-1V59c0-0.55-0.45-1-1-1H9c-0.55,0-1,0.45-1,1v4.8C8,64.35,8.45,64.8,9,64.8z"/>
	<path d="M18.6,64.8h5.2c0.55,0,1-0.45,1-1V59c0-0.55-0.45-1-1-1h-5.2c-0.55,0-1,0.45-1,1v4.8C17.6,64.35,18.05,64.8,18.6,64.8z"/>
	<path d="M28.2,64.8h5.2c0.55,0,1-0.45,1-1V59c0-0.55-0.45-1-1-1h-5.2c-0.55,0-1,0.45-1,1v4.8C27.2,64.35,27.65,64.8,28.2,64.8z"/>
	<path d="M37.8,64.8H43c0.55,0,1-0.45,1-1V59c0-0.55-0.45-1-1-1h-5.2c-0.55,0-1,0.45-1,1v4.8C36.8,64.35,37.25,64.8,37.8,64.8z"/>
	<path d="M47.4,64.8h5.2c0.55,0,1-0.45,1-1V59c0-0.55-0.45-1-1-1h-5.2c-0.55,0-1,0.45-1,1v4.8C46.4,64.35,46.85,64.8,47.4,64.8z"/>
	<path d="M57,64.8h5.2c0.55,0,1-0.45,1-1V59c0-0.55-0.45-1-1-1H57c-0.55,0-1,0.45-1,1v4.8C56,64.35,56.45,64.8,57,64.8z"/>
	<path d="M66.6,64.8h5.2c0.55,0,1-0.45,1-1V59c0-0.55-0.45-1-1-1h-5.2c-0.55,0-1,0.45-1,1v4.8C65.6,64.35,66.05,64.8,66.6,64.8z"/>
	<path d="M76.2,64.8h5.2c0.55,0,1-0.45,1-1V59c0-0.55-0.45-1-1-1h-5.2c-0.55,0-1,0.45-1,1v4.8C75.2,64.35,75.65,64.8,76.2,64.8z"/>
	<path d="M91,58h-5.2c-0.55,0-1,0.45-1,1v4.8c0,0.55,0.45,1,1,1H91c0.55,0,1-0.45,1-1V59C92,58.45,91.55,58,91,58z"/>
	<path d="M9,73.87h10c0.55,0,1-0.45,1-1v-4.8c0-0.55-0.45-1-1-1H9c-0.55,0-1,0.45-1,1v4.8C8,73.42,8.45,73.87,9,73.87z"/>
	<path d="M29.6,72.87v-4.8c0-0.55-0.45-1-1-1h-5.2c-0.55,0-1,0.45-1,1v4.8c0,0.55,0.45,1,1,1h5.2C29.15,73.87,29.6,73.42,29.6,72.87
		z"/>
	<path d="M39.2,72.87v-4.8c0-0.55-0.45-1-1-1H33c-0.55,0-1,0.45-1,1v4.8c0,0.55,0.45,1,1,1h5.2C38.75,73.87,39.2,73.42,39.2,72.87z"
		/>
	<path d="M48.8,72.87v-4.8c0-0.55-0.45-1-1-1h-5.2c-0.55,0-1,0.45-1,1v4.8c0,0.55,0.45,1,1,1h5.2C48.35,73.87,48.8,73.42,48.8,72.87
		z"/>
	<path d="M58.4,72.87v-4.8c0-0.55-0.45-1-1-1h-5.2c-0.55,0-1,0.45-1,1v4.8c0,0.55,0.45,1,1,1h5.2C57.95,73.87,58.4,73.42,58.4,72.87
		z"/>
	<path d="M68,72.87v-4.8c0-0.55-0.45-1-1-1h-5.2c-0.55,0-1,0.45-1,1v4.8c0,0.55,0.45,1,1,1H67C67.55,73.87,68,73.42,68,72.87z"/>
	<path d="M77.6,72.87v-4.8c0-0.55-0.45-1-1-1h-5.2c-0.55,0-1,0.45-1,1v4.8c0,0.55,0.45,1,1,1h5.2C77.15,73.87,77.6,73.42,77.6,72.87
		z"/>
	<path d="M91,67.07H81c-0.55,0-1,0.45-1,1v4.8c0,0.55,0.45,1,1,1h10c0.55,0,1-0.45,1-1v-4.8C92,67.52,91.55,67.07,91,67.07z"/>
	<rect x="58.5" y="14" width="3" height="22"/>
	<path d="M44.45,31c0.01,2.49,2.02,4.49,4.5,4.5c2.48-0.01,4.49-2.01,4.5-4.5v-3h-3v3c0,0.41-0.17,0.78-0.44,1.06
		c-0.28,0.28-0.65,0.44-1.06,0.44s-0.78-0.17-1.06-0.44c-0.28-0.28-0.44-0.65-0.44-1.06v-9.5h4.5v-3h-4.5V14h-3v4.5H42v3h2.45V31z"
		/>
</g>
</svg>
