<?xml version="1.0" encoding="utf-8"?>
<!-- Generator: Adobe Illustrator 16.0.0, SVG Export Plug-In . SVG Version: 6.00 Build 0)  -->
<!DOCTYPE svg PUBLIC "-//W3C//DTD SVG 1.1//EN" "http://www.w3.org/Graphics/SVG/1.1/DTD/svg11.dtd">
<svg version="1.1" id="Capa_1" xmlns="http://www.w3.org/2000/svg" xmlns:xlink="http://www.w3.org/1999/xlink" x="0px" y="0px"
	 width="100px" height="100px" viewBox="0 0 100 100" enable-background="new 0 0 100 100" xml:space="preserve">
<g>
	<path d="M78,55H54.5v4H78c0.27,0,0.51,0.11,0.7,0.29C78.89,59.49,79,59.73,79,60v24c0,0.27-0.11,0.51-0.3,0.71
		C78.51,84.89,78.27,85,78,85H54.17c-0.5,1.65-1.56,3.05-2.95,4H78c2.76-0.01,4.99-2.24,5-5V60C82.99,57.24,80.76,55.01,78,55z"/>
	<polygon points="76.81,61 54.33,61 54.33,82.81 54.33,82.81 54.32,83 76.81,83 	"/>
	<path d="M52.36,28.35c-0.01-2.76-2.24-4.99-5-5h-24c-2.76,0.01-4.99,2.24-5,5v54.8c0.01,2.76,2.24,4.99,5,5h24
		c2.76-0.01,4.99-2.24,5-5V28.35z M48.07,83.86c-0.19,0.19-0.43,0.29-0.7,0.3h-24c-0.27,0-0.51-0.11-0.7-0.3
		c-0.19-0.19-0.29-0.43-0.3-0.7v-54.8c0-0.27,0.11-0.51,0.3-0.71c0.19-0.19,0.43-0.29,0.7-0.29h24c0.27,0,0.51,0.11,0.7,0.29
		c0.19,0.19,0.29,0.43,0.3,0.71v54.8C48.36,83.43,48.25,83.67,48.07,83.86z"/>
	<rect x="24.36" y="29.54" width="22" height="44"/>
	<circle cx="35.36" cy="78.54" r="3"/>
	<path d="M62.99,29.98c-0.45-0.43-0.58-0.51-0.84-0.73c4.12,0.5,7.81,2.37,10.6,5.16c2.8,2.8,4.67,6.51,5.16,10.66
		c-0.19-0.21-0.35-0.39-0.74-0.78c-1.42-1.46-3.9,0.15-3.9,0.15l6.89,7.12l6.33-7.63c0,0-2.59-1.41-3.9,0.15
		c-0.39,0.46-0.47,0.6-0.65,0.85c-1.07-10.36-9.28-18.59-19.64-19.69c0.21-0.17,0.4-0.32,0.8-0.67c1.53-1.34,0.08-3.9,0.08-3.9
		l-7.51,6.47l7.26,6.75C62.92,33.88,64.47,31.37,62.99,29.98z"/>
</g>
</svg>
