<?xml version="1.0" encoding="utf-8"?>
<!-- Generator: Adobe Illustrator 16.0.0, SVG Export Plug-In . SVG Version: 6.00 Build 0)  -->
<!DOCTYPE svg PUBLIC "-//W3C//DTD SVG 1.1 Tiny//EN" "http://www.w3.org/Graphics/SVG/1.1/DTD/svg11-tiny.dtd">
<svg version="1.1" baseProfile="tiny" id="Capa_1" xmlns="http://www.w3.org/2000/svg" xmlns:xlink="http://www.w3.org/1999/xlink"
	 x="0px" y="0px" width="100px" height="100px" viewBox="0 0 100 100" xml:space="preserve">
<g>
	<path d="M36.62,30.43c1.67,1.02,3.13,2.15,3.96,2.99c0.78,0.78,2.05,0.78,2.83,0c0.78-0.78,0.78-2.05,0-2.83
		c-1.17-1.16-2.81-2.4-4.69-3.57c-1.88-1.16-3.99-2.22-6.09-2.92c-3.12-1.04-5.86-1.6-8.63-1.6c-2.77,0-5.51,0.56-8.63,1.6
		c-1.05,0.35-1.61,1.48-1.26,2.53s1.48,1.61,2.53,1.27c2.88-0.96,5.14-1.4,7.37-1.4c2.23,0,4.49,0.44,7.37,1.4
		C33.07,28.46,34.96,29.4,36.62,30.43z"/>
	<path d="M84.63,24.1c-3.12-1.04-5.86-1.6-8.63-1.6c-2.77,0-5.51,0.56-8.63,1.6c-2.09,0.7-4.2,1.76-6.09,2.92
		c-1.88,1.16-3.52,2.4-4.69,3.57c-0.78,0.78-0.78,2.05,0,2.83c0.78,0.78,2.05,0.78,2.83,0c0.83-0.84,2.29-1.96,3.96-2.99
		c1.67-1.03,3.56-1.97,5.26-2.53c2.88-0.96,5.14-1.4,7.37-1.4c2.23,0,4.49,0.44,7.37,1.4c1.05,0.35,2.18-0.22,2.53-1.27
		S85.68,24.45,84.63,24.1z"/>
	<circle cx="30.17" cy="33.17" r="2.83"/>
	<circle cx="69.83" cy="33.17" r="2.83"/>
	<path d="M43.09,60.37c0.73,1.25,1.87,2.09,3.07,2.62c1.21,0.53,2.53,0.76,3.84,0.76c1.75-0.01,3.51-0.41,5-1.4
		c0.74-0.49,1.42-1.15,1.9-1.98c0.49-0.83,0.76-1.83,0.76-2.87h-4c0,0.38-0.08,0.62-0.21,0.85c-0.2,0.34-0.59,0.7-1.21,0.97
		c-0.62,0.27-1.43,0.43-2.24,0.43c-1.09,0.01-2.16-0.3-2.79-0.73c-0.32-0.21-0.53-0.44-0.67-0.67c-0.13-0.23-0.21-0.48-0.21-0.85h-4
		C42.33,58.54,42.61,59.54,43.09,60.37z"/>
	<path d="M61.68,70.55C59.2,70,57.02,70,56,70c-0.94,0-1.72,0.29-2.37,0.61c-0.97,0.49-1.72,1.06-2.37,1.45
		c-0.32,0.19-0.6,0.34-0.81,0.42c-0.22,0.08-0.36,0.1-0.45,0.1c-0.12,0-0.34-0.04-0.69-0.21c-0.52-0.24-1.22-0.74-2.04-1.26
		c-0.42-0.26-0.88-0.52-1.41-0.73C45.33,70.17,44.7,70,44,70c-1.02,0-3.2,0-5.68,0.55s-5.37,1.68-7.73,4.04
		c-0.78,0.78-0.78,2.05,0,2.83c0.78,0.78,2.05,0.78,2.83,0c1.64-1.64,3.76-2.52,5.77-2.96C41.2,74,43.02,74,44,74
		c0.06,0,0.26,0.03,0.6,0.2c0.5,0.24,1.21,0.75,2.06,1.28c0.43,0.26,0.9,0.52,1.45,0.74c0.55,0.21,1.19,0.37,1.89,0.37
		c0.94,0,1.75-0.28,2.42-0.6c1-0.49,1.78-1.07,2.42-1.47c0.32-0.2,0.59-0.34,0.79-0.42C55.83,74.01,55.95,74,56,74
		c0.98,0,2.8,0,4.82,0.45c2.01,0.45,4.13,1.32,5.77,2.96c0.78,0.78,2.05,0.78,2.83,0c0.78-0.78,0.78-2.05,0-2.83
		C67.05,72.23,64.17,71.1,61.68,70.55z"/>
</g>
</svg>
