<?xml version="1.0" encoding="utf-8"?>
<!-- Generator: Adobe Illustrator 16.0.0, SVG Export Plug-In . SVG Version: 6.00 Build 0)  -->
<!DOCTYPE svg PUBLIC "-//W3C//DTD SVG 1.1 Tiny//EN" "http://www.w3.org/Graphics/SVG/1.1/DTD/svg11-tiny.dtd">
<svg version="1.1" baseProfile="tiny" id="Capa_1" xmlns="http://www.w3.org/2000/svg" xmlns:xlink="http://www.w3.org/1999/xlink"
	 x="0px" y="0px" width="100px" height="100px" viewBox="0 0 100 100" xml:space="preserve">
<g>
	<path d="M12,9c-1.66,0-3,1.34-3,3s1.34,3,3,3c1.66,0,3-1.34,3-3C15,10.34,13.66,9,12,9z M12,13c-0.55,0-1-0.45-1-1
		c0-0.55,0.45-1,1-1c0.55,0,1,0.45,1,1C13,12.55,12.55,13,12,13z"/>
	<path d="M12,17c-1.66,0-3,1.34-3,3s1.34,3,3,3c1.66,0,3-1.34,3-3C15,18.34,13.66,17,12,17z M12,21c-0.55,0-1-0.45-1-1
		c0-0.55,0.45-1,1-1c0.55,0,1,0.45,1,1C13,20.55,12.55,21,12,21z"/>
	<path d="M12,25c-1.66,0-3,1.34-3,3s1.34,3,3,3c1.66,0,3-1.34,3-3C15,26.34,13.66,25,12,25z M12,29c-0.55,0-1-0.45-1-1
		c0-0.55,0.45-1,1-1c0.55,0,1,0.45,1,1C13,28.55,12.55,29,12,29z"/>
	<rect x="16.5" y="10.5" width="19" height="3"/>
	<rect x="16.5" y="18.5" width="19" height="3"/>
	<rect x="16.5" y="26.5" width="19" height="3"/>
</g>
</svg>
