<?xml version="1.0" encoding="utf-8"?>
<!-- Generator: Adobe Illustrator 16.0.0, SVG Export Plug-In . SVG Version: 6.00 Build 0)  -->
<!DOCTYPE svg PUBLIC "-//W3C//DTD SVG 1.1 Tiny//EN" "http://www.w3.org/Graphics/SVG/1.1/DTD/svg11-tiny.dtd">
<svg version="1.1" baseProfile="tiny" id="Capa_1" xmlns="http://www.w3.org/2000/svg" xmlns:xlink="http://www.w3.org/1999/xlink"
	 x="0px" y="0px" width="100px" height="100px" viewBox="0 0 100 100" xml:space="preserve">
<g>
	<path d="M30.62,60.45c-0.01-0.01-0.02-0.02-0.03-0.03L30.62,60.45z"/>
	<path d="M38.52,68.35c-0.01-0.01-0.02-0.02-0.02-0.03L38.52,68.35z"/>
	<path d="M92,53.91c-0.27-5.16-5.72-7.55-10.2-5.54c-1.07-4.32-6.26-5.82-10.03-4.11c-1.29-4.82-7.74-6.11-11.43-3.21
		c-1.54-5.52-4.08-10.81-7.84-15.18c-1.69-1.97-3.63-3.74-5.75-5.23c-2.24-1.57-4.98-3.39-7.78-3.52
		c-5.54-0.26-10.11,6.99-5.81,11.35c0.92,0.93,2.08,1.33,3.21,1.91c1.16,0.6,2.24,1.36,3.21,2.25c1.89,1.73,3.32,3.91,4.4,6.23
		c2.6,5.56,3.43,11.85,3.8,17.92c0.1,1.58,0.16,3.17,0.19,4.75c0.03,1.24,0.37,3.05-0.12,4.22c-1.15,2.78-4.86,1.6-6.35-0.07
		l-0.02-0.03l0.02,0.03c-2.52-2.85-5.4-5.4-8.08-8.09h0c-4.75-4.77-12.03-0.12-16.28,3.06L45.05,95c7.79,0,15.57,0,23.36,0
		c3.44,0,6.88,0,10.32,0c1.74,0,3.49,0.02,5.1-0.77c2.64-1.3,3.6-4.14,4.14-6.84c1.04-5.27,1.67-10.64,2.34-15.97
		c0.7-5.62,1.57-11.33,1.7-16.99l0,0C92,54.26,92.01,54.08,92,53.91z M88,54c0.01,0.11,0,0.23,0,0.34l0,0
		c-0.12,5.33-0.93,10.69-1.59,15.97c-0.67,5.44-1.3,10.92-2.37,16.3v0c-0.22,1.11-0.47,2.36-1.14,3.3C82.22,90.84,81.08,91,80,91
		c-0.84,0-1.69,0-2.53,0c-3.2,0-6.39,0-9.59,0c-6.72,0-13.44,0-20.15,0c-0.26,0-0.52,0-0.78,0L22.96,61.47
		c1.4-0.8,2.93-1.51,4.53-1.77c1.74-0.28,2.69,0.31,3.87,1.48c2.38,2.36,4.92,4.62,7.14,7.14l0,0c3.36,3.84,10.36,4.46,12.89-0.7
		c1.12-2.29,0.61-5.4,0.53-7.87c-0.1-2.95-0.29-5.9-0.67-8.83c-0.74-5.79-2.13-11.73-5.26-16.73c-1.4-2.24-3.17-4.24-5.29-5.81
		c-1.04-0.76-2.15-1.42-3.32-1.96c-1.2-0.55-2.12-1.15-1.82-2.65c0.36-1.79,2.06-2.99,3.86-2.57c1.78,0.42,3.57,1.68,5.05,2.72
		c2.98,2.1,5.49,4.8,7.46,7.86c3.59,5.56,5.9,12.63,6.07,19.27L62,51c0-1.75-0.17-3.59,0.02-5.33c0.25-2.32,3.62-2.75,5.17-1.48
		c1,0.81,0.81,2.1,0.81,3.25c0,0.9,0,1.8,0,2.7c0,1.06,0,2.13,0,3.19h4c0-0.52,0-1.05,0-1.58c0-1.06-0.24-2.39,0.53-3.25
		c1.33-1.47,4.91-1.34,5.4,0.89C78.17,50.45,78,51.7,78,52.78c0,0.87,0,1.73,0,2.6h4c0-1.34-0.12-2.6,1.29-3.31
		C85.01,51.2,87.99,51.63,88,54"/>
</g>
</svg>
