<?xml version="1.0" encoding="utf-8"?>
<!-- Generator: Adobe Illustrator 16.0.0, SVG Export Plug-In . SVG Version: 6.00 Build 0)  -->
<!DOCTYPE svg PUBLIC "-//W3C//DTD SVG 1.1//EN" "http://www.w3.org/Graphics/SVG/1.1/DTD/svg11.dtd">
<svg version="1.1" id="Capa_1" xmlns="http://www.w3.org/2000/svg" xmlns:xlink="http://www.w3.org/1999/xlink" x="0px" y="0px"
	 width="100px" height="100px" viewBox="0 0 100 100" enable-background="new 0 0 100 100" xml:space="preserve">
<g>
	<path d="M74.95,29.5c-0.59-3.37-1.32-6.4-2.2-8.92c-0.44-1.26-0.92-2.4-1.46-3.4c-0.54-1-1.13-1.87-1.85-2.59
		c-2.31-2.3-5.35-3.92-8.71-5C57.37,8.52,53.67,8,49.97,8c-3.68,0-7.37,0.53-10.72,1.6c-3.34,1.08-6.37,2.7-8.67,4.98
		c-0.72,0.72-1.32,1.59-1.86,2.6c-0.94,1.75-1.72,3.93-2.39,6.45c-2.02,7.55-3.1,18.27-3.11,28.76c0,7.18,0.52,14.24,1.65,20.08
		c0.57,2.92,1.29,5.54,2.23,7.76c0.94,2.21,2.06,4.05,3.64,5.33C36.14,89.88,43.08,92,49.99,92c6.92,0,13.86-2.11,19.26-6.44
		c1.58-1.28,2.7-3.12,3.64-5.33c1.39-3.32,2.34-7.57,2.96-12.36c0.62-4.79,0.91-10.11,0.91-15.5C76.77,44.37,76.13,36.25,74.95,29.5
		z M71.19,71.69c-0.53,2.74-1.21,5.13-1.99,6.98c-0.77,1.86-1.68,3.15-2.46,3.76C62.18,86.11,56.1,88,49.99,88
		c-6.1,0-12.17-1.89-16.74-5.56c-0.78-0.61-1.68-1.9-2.46-3.76c-1.17-2.78-2.09-6.75-2.68-11.32c-0.6-4.57-0.88-9.73-0.88-14.97
		c0-7.77,0.63-15.73,1.77-22.18c0.57-3.22,1.26-6.07,2.05-8.3c0.39-1.11,0.8-2.07,1.21-2.83c0.41-0.76,0.82-1.32,1.15-1.66
		c1.71-1.7,4.17-3.08,7.07-4.01c2.89-0.93,6.19-1.41,9.49-1.41c3.32,0,6.64,0.47,9.55,1.4c2.91,0.92,5.39,2.3,7.09,4.01
		c0.33,0.33,0.74,0.89,1.15,1.65c0.72,1.33,1.43,3.26,2.04,5.59c1.87,6.99,2.97,17.51,2.96,27.7
		C72.77,59.35,72.26,66.22,71.19,71.69z"/>
	<path d="M40.97,14.84L40.97,14.84c-2.72,0.87-4.99,2.16-6.47,3.64l0,0l0,0c-0.18,0.17-0.54,0.64-0.89,1.3
		c-0.36,0.67-0.75,1.57-1.12,2.62c-0.74,2.12-1.43,4.9-1.99,8.07c-0.33,1.89-0.62,3.91-0.86,6.03h15.54V13.88
		C43.7,14.1,42.28,14.42,40.97,14.84L40.97,14.84z"/>
</g>
</svg>
