<?xml version="1.0" encoding="utf-8"?>
<!-- Generator: Adobe Illustrator 16.0.0, SVG Export Plug-In . SVG Version: 6.00 Build 0)  -->
<!DOCTYPE svg PUBLIC "-//W3C//DTD SVG 1.1//EN" "http://www.w3.org/Graphics/SVG/1.1/DTD/svg11.dtd">
<svg version="1.1" id="Capa_1" xmlns="http://www.w3.org/2000/svg" xmlns:xlink="http://www.w3.org/1999/xlink" x="0px" y="0px"
	 width="100px" height="100px" viewBox="0 0 100 100" enable-background="new 0 0 100 100" xml:space="preserve">
<path d="M91.39,51.86c-1.6-2.96-4-5.5-6.95-7.53c0.01-0.33,0.03-0.66,0.03-0.99c0-4.35-1.13-8.5-3.15-12.24
	C78.3,25.5,73.31,20.82,67.1,17.53c-6.21-3.29-13.64-5.18-21.62-5.19c-10.64,0-20.31,3.37-27.4,8.92c-3.54,2.78-6.44,6.1-8.46,9.84
	C7.61,34.84,6.48,39,6.48,43.35c0,6.18,2.28,11.93,6.13,16.71c3.65,4.53,8.7,8.19,14.63,10.68c0.2,1.01,0.29,1.95,0.29,2.81
	c0,2.51-0.7,4.47-1.4,5.81c-0.35,0.67-0.7,1.17-0.94,1.5c-0.12,0.16-0.22,0.28-0.29,0.35l-0.06,0.07l0,0l-3.22,3.3l4.62,0.09h0.1
	c0.63-0.01,3.75-0.06,7.25-1.58c1.75-0.76,3.59-1.91,5.18-3.63c1.28-1.38,2.38-3.13,3.13-5.27c1.18,0.09,2.37,0.15,3.58,0.15
	c0.98,0,1.96-0.03,2.92-0.09c1.42,1.23,3.01,2.33,4.75,3.25c4.13,2.19,9.07,3.45,14.36,3.45c0.63,0,1.25-0.02,1.86-0.06
	c0.51,1.25,1.19,2.31,1.98,3.15c1.68,1.8,3.7,2.69,5.33,3.13c1.63,0.45,2.91,0.47,3.25,0.47h0.08l4.63-0.08l-3.22-3.31
	c-0.03-0.03-0.42-0.47-0.8-1.25c-0.38-0.79-0.75-1.89-0.75-3.29c0-0.41,0.05-0.86,0.12-1.33c3.78-1.66,7.03-4.04,9.4-6.98
	c2.58-3.2,4.14-7.1,4.13-11.28C93.52,57.19,92.75,54.38,91.39,51.86z M40.67,70.08l-1.74-0.19l-0.42,1.7
	c-0.57,2.28-1.53,3.91-2.68,5.15c-1.66,1.79-3.77,2.79-5.63,3.32c0.72-1.69,1.32-3.88,1.32-6.52c0-1.47-0.19-3.06-0.63-4.76
	l-0.26-0.98l-0.95-0.37c-5.78-2.26-10.61-5.73-13.97-9.89c-3.35-4.17-5.24-9.01-5.25-14.2c0-3.66,0.94-7.13,2.67-10.34
	c2.59-4.8,6.98-8.97,12.58-11.94c5.6-2.97,12.41-4.72,19.75-4.72c9.79,0,18.62,3.12,24.93,8.07c3.15,2.47,5.68,5.39,7.4,8.59
	c1.52,2.83,2.43,5.87,2.63,9.06c-3.82-1.75-8.23-2.75-12.93-2.75c-7.05,0-13.47,2.23-18.21,5.94c-2.37,1.85-4.31,4.09-5.67,6.61
	c-1.36,2.52-2.13,5.33-2.13,8.27c0,2.94,0.77,5.76,2.13,8.27c0.36,0.66,0.77,1.3,1.21,1.92C43.43,70.31,42.04,70.23,40.67,70.08z
	 M86.27,68.91c-2.09,2.59-5.12,4.77-8.77,6.2l-0.95,0.37l-0.26,0.99c-0.3,1.16-0.43,2.25-0.43,3.26c0,1.13,0.16,2.15,0.4,3.04
	c-0.71-0.34-1.39-0.8-1.98-1.44c-0.67-0.72-1.23-1.66-1.57-3.03l-0.42-1.7l-1.74,0.19c-1,0.11-2.01,0.17-3.05,0.17
	c-6.21,0-11.79-1.98-15.74-5.09c-1.98-1.55-3.55-3.37-4.62-5.36c-1.07-1.99-1.65-4.12-1.65-6.37c0-2.25,0.58-4.39,1.65-6.38
	c1.6-2.97,4.34-5.59,7.87-7.46c3.53-1.87,7.83-2.98,12.49-2.98c6.21,0,11.79,1.98,15.74,5.08c1.98,1.55,3.55,3.37,4.62,5.36
	c1.07,1.99,1.65,4.12,1.65,6.38C89.52,63.33,88.36,66.31,86.27,68.91z"/>
</svg>
