<?xml version="1.0" encoding="utf-8"?>
<!-- Generator: Adobe Illustrator 16.0.0, SVG Export Plug-In . SVG Version: 6.00 Build 0)  -->
<!DOCTYPE svg PUBLIC "-//W3C//DTD SVG 1.1//EN" "http://www.w3.org/Graphics/SVG/1.1/DTD/svg11.dtd">
<svg version="1.1" id="Capa_1" xmlns="http://www.w3.org/2000/svg" xmlns:xlink="http://www.w3.org/1999/xlink" x="0px" y="0px"
	 width="100px" height="100px" viewBox="0 0 100 100" enable-background="new 0 0 100 100" xml:space="preserve">
<g>
	<path d="M28.77,74.32c-1.58,0-3.01,0.65-4.04,1.7c-1.03,1.04-1.66,2.49-1.66,4.07c0,1.58,0.63,3.03,1.66,4.07
		c1.02,1.04,2.46,1.7,4.04,1.7c1.58,0,3.01-0.65,4.04-1.7c1.03-1.04,1.66-2.49,1.66-4.07c0-1.58-0.63-3.03-1.66-4.07
		C31.78,74.97,30.35,74.32,28.77,74.32z M30.67,82.05c-0.5,0.5-1.16,0.8-1.9,0.8c-0.74,0-1.4-0.3-1.9-0.8
		c-0.49-0.5-0.8-1.19-0.8-1.96c0-0.78,0.31-1.46,0.8-1.96c0.5-0.5,1.16-0.8,1.9-0.8c0.74,0,1.4,0.3,1.9,0.8
		c0.49,0.5,0.8,1.19,0.8,1.96C31.47,80.86,31.16,81.54,30.67,82.05z"/>
	<path d="M86.1,38.6c0.41-1.5,0.65-3.08,0.65-4.71c0-4.82-1.93-9.21-5.05-12.38c-3.12-3.17-7.45-5.15-12.23-5.14
		c-2.01,0-3.94,0.36-5.73,1c-3.68-5.53-9.92-9.19-17.02-9.19c-5.43,0-10.38,2.15-14.04,5.63c-3.14,2.99-5.34,6.97-6.15,11.45
		c-0.81-0.12-1.63-0.19-2.48-0.19c-4.75,0-9.07,1.96-12.17,5.12C8.79,33.33,6.87,37.7,6.87,42.5c0,6.08,3.08,11.45,7.75,14.57
		c-0.01,0.23-0.03,0.46-0.03,0.7c0,3.79,1.13,7.38,3.31,10.11c1.09,1.36,2.46,2.5,4.05,3.29c1.6,0.79,3.42,1.23,5.38,1.23
		c0.74,0,1.46-0.11,2.17-0.25c0.84-0.17,1.65-0.41,2.34-0.63c0.32,0.58,0.74,1.26,1.26,1.96c0.72,0.96,1.65,1.96,2.85,2.81
		c1.19,0.84,2.68,1.51,4.4,1.73c0.75,0.09,1.48,0.14,2.18,0.14c3.99,0,7.13-1.4,9.23-2.78c0.85-0.56,1.54-1.11,2.06-1.59
		c0.41,0.23,0.89,0.47,1.45,0.72c1.8,0.79,4.35,1.6,7.39,1.6c0.71,0,1.45-0.04,2.2-0.14c3.67-0.48,7.41-2.07,10.35-4.71
		c1.47-1.32,2.73-2.92,3.63-4.77c0.6-1.23,1.02-2.58,1.26-4.02c0.21,0.01,0.41,0.04,0.62,0.04c3.43,0,6.55-1.42,8.79-3.7
		c2.24-2.27,3.62-5.42,3.62-8.88C93.13,44.94,90.27,40.63,86.1,38.6z M86.66,56c-1.53,1.55-3.62,2.5-5.93,2.5
		c-0.65,0-1.29-0.08-1.93-0.24l-2.43-0.58l-0.04,2.5c-0.03,1.7-0.41,3.2-1.07,4.55c-0.98,2.01-2.6,3.69-4.54,4.94
		c-1.94,1.25-4.21,2.05-6.36,2.33c-0.58,0.08-1.14,0.11-1.69,0.11c-2.33,0-4.35-0.62-5.77-1.26c-0.71-0.32-1.27-0.63-1.65-0.86
		c-0.19-0.11-0.32-0.21-0.41-0.27l-0.09-0.06l-0.01-0.01l0,0l-1.54-1.17l-1.22,1.5l0,0c-0.05,0.06-0.96,1.12-2.56,2.14
		c-1.63,1.03-3.94,2.02-6.88,2.02c-0.54,0-1.1-0.03-1.68-0.11c-0.99-0.12-1.83-0.5-2.59-1.03c-1.14-0.79-2.06-1.98-2.65-2.98
		c-0.3-0.5-0.52-0.94-0.66-1.25c-0.07-0.15-0.12-0.27-0.15-0.35l-0.03-0.08l0-0.01l0,0l-0.7-1.94l-1.92,0.77l-0.03,0.01
		c-0.16,0.06-0.99,0.38-1.98,0.67c-0.5,0.15-1.03,0.29-1.53,0.39c-0.5,0.1-0.96,0.15-1.26,0.15c-1.38,0-2.56-0.3-3.61-0.81
		c-1.56-0.77-2.83-2.07-3.73-3.77c-0.9-1.7-1.41-3.8-1.41-6.04c0-0.47,0.04-0.96,0.12-1.47l0.19-1.35l-1.19-0.67
		c-4.07-2.29-6.84-6.69-6.84-11.78c0-3.73,1.48-7.08,3.88-9.52c2.4-2.43,5.68-3.92,9.32-3.92c1.25,0,2.46,0.19,3.62,0.53l2.38,0.69
		l0.17-2.47c0.31-4.38,2.25-8.29,5.21-11.11c2.96-2.82,6.91-4.53,11.28-4.53c6.21,0,11.62,3.48,14.46,8.66l0.91,1.67l1.71-0.83
		c1.73-0.84,3.64-1.31,5.67-1.31c3.66,0,6.97,1.5,9.38,3.95c2.41,2.45,3.9,5.83,3.9,9.58c0,1.82-0.36,3.55-1,5.13l-0.83,2.05
		l2.12,0.62c3.49,1.02,6.09,4.31,6.08,8.24C89.13,52.31,88.19,54.45,86.66,56z"/>
	<ellipse cx="21.69" cy="87.52" rx="2.27" ry="2.3"/>
</g>
</svg>
