<?xml version="1.0" encoding="utf-8"?>
<!-- Generator: Adobe Illustrator 16.0.0, SVG Export Plug-In . SVG Version: 6.00 Build 0)  -->
<!DOCTYPE svg PUBLIC "-//W3C//DTD SVG 1.1//EN" "http://www.w3.org/Graphics/SVG/1.1/DTD/svg11.dtd">
<svg version="1.1" id="Capa_1" xmlns="http://www.w3.org/2000/svg" xmlns:xlink="http://www.w3.org/1999/xlink" x="0px" y="0px"
	 width="100px" height="100px" viewBox="0 0 100 100" enable-background="new 0 0 100 100" xml:space="preserve">
<g>
	<path d="M84.26,55.18l-6.52-7.82c4.28-1.51,7.34-5.57,7.34-10.36c0-6.08-4.92-11-11-11c-0.19,0-0.37,0.02-0.55,0.03
		c-0.52-1.9-1.49-5.47-2.61-9.55c-0.98-3.56-3.37-6.63-6.39-8.86C61.51,5.4,57.8,4.01,54,4h-8h-6H26v4h14h6h8
		c2.8-0.01,5.76,1.07,8.17,2.84c2.42,1.77,4.23,4.2,4.9,6.68c0.83,3.02,1.58,5.77,2.12,7.77c0.17,0.64,0.32,1.19,0.45,1.65
		c-0.56,0.25-1.09,0.53-1.6,0.87C66.31,26.67,64.23,26,62,26c-5.04,0-9.27,3.38-10.58,8H29c-1.57,0.01-3.07,0.51-4.42,1.27
		c-1.34,0.77-2.54,1.79-3.36,3.13l-3.94,6.57c-0.57,0.95-0.26,2.18,0.69,2.74s2.18,0.26,2.74-0.69l3.94-6.57v0
		c0.32-0.55,1.05-1.24,1.9-1.71C27.4,38.26,28.37,37.99,29,38h22.05c0.51,5.61,5.21,10,10.95,10c2.23,0,4.31-0.67,6.04-1.81
		c1.46,0.96,3.15,1.58,4.98,1.76l7.68,9.22l-5.59,2.23l0,0c-0.93,0.38-1.64,0.99-2.22,1.69c-0.57,0.71-1.03,1.52-1.22,2.52
		l-0.53,2.93C62.29,67.84,55.94,64,55.94,64s3.92,7.32,14.38,7.09l-1.92,10.58c0,0.01-0.04,0.12-0.15,0.21
		C68.13,81.98,68.01,82,68,82h-8c-1.02,0.01-1.9,0.32-2.7,0.76c-0.79,0.46-1.51,1.06-2.04,1.92l-4.97,8.29l3.43,2.06l4.97-8.29
		c0.04-0.08,0.28-0.34,0.58-0.5c0.3-0.18,0.65-0.25,0.73-0.24h8c1.09,0,2.05-0.42,2.8-1.04c0.75-0.62,1.33-1.49,1.53-2.57
		l3.29-18.06c0.01-0.09,0.15-0.43,0.38-0.7c0.22-0.28,0.52-0.48,0.61-0.51l6.29-2.51l0,0c0.61-0.24,1.18-0.65,1.59-1.2
		c0.41-0.55,0.65-1.25,0.64-1.94C85.12,56.61,84.78,55.8,84.26,55.18z M79.03,32.05c1.27,1.27,2.05,3.01,2.05,4.95
		c0,1.94-0.78,3.68-2.05,4.95C77.76,43.22,76.02,44,74.08,44c-1.1,0-2.14-0.26-3.06-0.71C72.26,41.5,73,39.34,73,37
		s-0.74-4.5-1.98-6.29c0.92-0.45,1.96-0.71,3.06-0.71C76.02,30,77.76,30.78,79.03,32.05z M57.05,41.95C55.78,40.68,55,38.94,55,37
		c0-1.94,0.78-3.68,2.05-4.95C58.32,30.78,60.06,30,62,30c1.94,0,3.68,0.78,4.95,2.05C68.22,33.32,69,35.06,69,37
		c0,1.94-0.78,3.68-2.05,4.95C65.68,43.22,63.94,44,62,44C60.06,44,58.32,43.22,57.05,41.95z"/>
	<circle cx="64.63" cy="38.63" r="2.62"/>
	<circle cx="76.63" cy="38.77" r="2.62"/>
	<rect x="20" y="10" width="32" height="4"/>
	<rect x="14" y="16" width="34" height="4"/>
</g>
</svg>
