<?xml version="1.0" encoding="utf-8"?>
<!-- Generator: Adobe Illustrator 16.0.0, SVG Export Plug-In . SVG Version: 6.00 Build 0)  -->
<!DOCTYPE svg PUBLIC "-//W3C//DTD SVG 1.1 Tiny//EN" "http://www.w3.org/Graphics/SVG/1.1/DTD/svg11-tiny.dtd">
<svg version="1.1" baseProfile="tiny" id="Capa_1" xmlns="http://www.w3.org/2000/svg" xmlns:xlink="http://www.w3.org/1999/xlink"
	 x="0px" y="0px" width="100px" height="100px" viewBox="0 0 100 100" xml:space="preserve">
<path d="M79.24,45.55l-6.81,7.2c0,0,2.5,1.57,3.9,0.11c0.31-0.33,0.44-0.48,0.57-0.64c-0.53,6.29-3.3,11.94-7.51,16.16
	C64.67,73.09,58.19,76,51,76c-7.19,0-13.67-2.91-18.38-7.62C27.91,63.67,25,57.19,25,50c0-7.19,2.91-13.67,7.62-18.38
	C37.33,26.91,43.81,24,51,24c8.31,0,15.69,3.9,20.46,9.96c-0.15,0.4-0.24,0.83-0.24,1.29c0,2.11,1.71,3.81,3.81,3.81
	c2.11,0,3.81-1.71,3.81-3.81c0-2.11-1.71-3.81-3.81-3.81c-0.15,0-0.29,0.03-0.44,0.04C69.11,24.5,60.57,20,51,20
	c-16.57,0-30,13.43-30,30c0,16.57,13.43,30,30,30c15.89,0,28.89-12.36,29.93-28c0.25,0.32,0.37,0.48,0.82,1
	c1.33,1.54,3.9,0.11,3.9,0.11L79.24,45.55z"/>
</svg>
