<?xml version="1.0" encoding="utf-8"?>
<!-- Generator: Adobe Illustrator 16.0.0, SVG Export Plug-In . SVG Version: 6.00 Build 0)  -->
<!DOCTYPE svg PUBLIC "-//W3C//DTD SVG 1.1 Tiny//EN" "http://www.w3.org/Graphics/SVG/1.1/DTD/svg11-tiny.dtd">
<svg version="1.1" baseProfile="tiny" id="Capa_1" xmlns="http://www.w3.org/2000/svg" xmlns:xlink="http://www.w3.org/1999/xlink"
	 x="0px" y="0px" width="100px" height="100px" viewBox="0 0 100 100" xml:space="preserve">
<g>
	<path d="M13.92,12.06c0.04,0.95,0.11,0.79,0.16,1.87c0,0.01,0,0.02,0.01,0.03L9.79,9.67l-2.12,2.12l4.29,4.29c0,0-0.01,0-0.01,0
		c-0.9-0.08-0.93-0.11-1.88-0.14c-2.04-0.08-2.78,2.8-2.78,2.8l9.94,0.47L16.7,9.26C16.7,9.26,13.83,10.02,13.92,12.06z"/>
	<path d="M27.19,25.33c2.04,0.08,2.78-2.8,2.78-2.8l-9.94-0.47L20.56,32c0,0,2.88-0.76,2.78-2.8c-0.04-0.95-0.11-0.79-0.16-1.87
		c0-0.01,0-0.02-0.01-0.03l4.29,4.29l2.12-2.12l-4.29-4.29c0,0,0.01,0,0.01,0C26.22,25.26,26.24,25.29,27.19,25.33z"/>
	<path d="M10.06,25.34c0.95-0.04,0.79-0.11,1.87-0.16c0.01,0,0.02,0,0.03-0.01l-4.29,4.29l2.12,2.12l4.29-4.29c0,0,0,0.01,0,0.01
		c-0.08,0.9-0.11,0.92-0.14,1.88c-0.08,2.04,2.8,2.78,2.8,2.78l0.47-9.94l-9.94,0.53C7.26,22.56,8.02,25.43,10.06,25.34z"/>
	<path d="M27.2,15.92c-0.95,0.04-0.79,0.11-1.87,0.16c-0.01,0-0.02,0-0.03,0.01l4.29-4.29l-2.12-2.12l-4.29,4.29c0,0,0-0.01,0-0.01
		c0.08-0.9,0.11-0.92,0.14-1.88c0.08-2.04-2.8-2.78-2.8-2.78l-0.47,9.94L30,18.7C30,18.7,29.24,15.83,27.2,15.92z"/>
</g>
</svg>
