<?xml version="1.0" encoding="utf-8"?>
<!-- Generator: Adobe Illustrator 16.0.0, SVG Export Plug-In . SVG Version: 6.00 Build 0)  -->
<!DOCTYPE svg PUBLIC "-//W3C//DTD SVG 1.1//EN" "http://www.w3.org/Graphics/SVG/1.1/DTD/svg11.dtd">
<svg version="1.1" id="Capa_1" xmlns="http://www.w3.org/2000/svg" xmlns:xlink="http://www.w3.org/1999/xlink" x="0px" y="0px"
	 width="100px" height="100px" viewBox="0 0 100 100" enable-background="new 0 0 100 100" xml:space="preserve">
<path d="M76.08,67.37l-0.26-54c0-0.95-0.31-1.87-0.78-2.63c-0.84-1.35-2.13-2.34-3.69-3.21c-2.35-1.29-5.43-2.26-9.04-2.96
	C58.7,3.89,54.56,3.5,50.15,3.5c-0.12,0-0.25,0-0.37,0c-6.8,0.04-12.96,0.97-17.58,2.53c-2.31,0.79-4.25,1.72-5.74,2.89
	c-0.74,0.59-1.38,1.25-1.86,2.03c-0.48,0.77-0.78,1.69-0.78,2.66v0.02l0.26,54c0,0.95,0.31,1.87,0.78,2.63
	c0.84,1.35,2.13,2.34,3.69,3.21c2.35,1.29,5.43,2.26,9.04,2.96c3.17,0.6,6.76,0.96,10.58,1.04l0.08,17.04l3.91-0.02l-0.08-17.03
	c6.02-0.19,11.45-1.08,15.62-2.48c2.31-0.79,4.25-1.72,5.74-2.89c0.74-0.59,1.38-1.25,1.86-2.03c0.48-0.77,0.78-1.69,0.78-2.66
	V67.37l-2,0.01L76.08,67.37z M27.82,13.6c0-0.14,0.03-0.3,0.19-0.57c0.27-0.46,1.02-1.17,2.24-1.84c1.82-1.01,4.61-1.96,7.98-2.62
	c3.37-0.66,7.33-1.06,11.55-1.08c0.12,0,0.24,0,0.35,0c6.36,0,12.11,0.86,16.11,2.2c1.99,0.66,3.54,1.45,4.46,2.18
	c0.46,0.36,0.76,0.7,0.92,0.96c0.16,0.26,0.19,0.42,0.19,0.56v0c0,0.14-0.03,0.3-0.19,0.57c-0.27,0.46-1.02,1.17-2.24,1.84
	c-1.82,1.01-4.61,1.96-7.98,2.62c-3.37,0.66-7.33,1.06-11.55,1.08c-0.12,0-0.23,0-0.35,0c-6.36,0-12.11-0.86-16.11-2.2
	c-2-0.66-3.55-1.45-4.46-2.18c-0.46-0.36-0.76-0.7-0.92-0.96C27.86,13.9,27.83,13.75,27.82,13.6L27.82,13.6z M72.08,67.4
	c0,0.14-0.03,0.3-0.19,0.57c-0.27,0.46-1.02,1.17-2.24,1.84c-1.82,1.01-4.61,1.96-7.98,2.62c-2.84,0.56-6.12,0.91-9.6,1.03
	l-0.04-7.73c0.95,1.03,0.75,0.95,1.58,1.86c1.79,1.95,5.08-0.02,5.08-0.02l-8.66-9.58l-8.56,9.66c0,0,3.31,1.95,5.09-0.02
	c0.83-0.92,0.62-0.83,1.56-1.87l0.04,7.74c-5.72-0.13-10.85-0.95-14.5-2.17c-2-0.66-3.55-1.45-4.46-2.18
	c-0.46-0.36-0.76-0.7-0.92-0.96c-0.16-0.26-0.19-0.42-0.19-0.56L27.85,19.2c0.15,0.09,0.29,0.18,0.45,0.27
	c2.35,1.29,5.43,2.26,9.04,2.96c3.61,0.69,7.75,1.07,12.16,1.08c0.12,0,0.24,0,0.37,0c6.8-0.04,12.96-0.97,17.58-2.53
	c1.68-0.57,3.15-1.22,4.4-1.98L72.08,67.4L72.08,67.4z"/>
</svg>
