<?xml version="1.0" encoding="utf-8"?>
<!-- Generator: Adobe Illustrator 16.0.0, SVG Export Plug-In . SVG Version: 6.00 Build 0)  -->
<!DOCTYPE svg PUBLIC "-//W3C//DTD SVG 1.1 Tiny//EN" "http://www.w3.org/Graphics/SVG/1.1/DTD/svg11-tiny.dtd">
<svg version="1.1" baseProfile="tiny" id="Capa_1" xmlns="http://www.w3.org/2000/svg" xmlns:xlink="http://www.w3.org/1999/xlink"
	 x="0px" y="0px" width="100px" height="100px" viewBox="0 0 100 100" xml:space="preserve">
<path d="M50.71,56c-0.22-0.23-0.48-0.41-0.77-0.54c-0.29-0.13-0.61-0.19-0.95-0.19s-0.66,0.06-0.96,0.19
	c-0.3,0.13-0.56,0.31-0.78,0.54c-0.22,0.23-0.39,0.49-0.52,0.78c-0.13,0.29-0.19,0.61-0.19,0.95c0,0.34,0.06,0.66,0.19,0.96
	s0.3,0.56,0.52,0.78c0.22,0.22,0.48,0.4,0.78,0.52c0.3,0.13,0.62,0.19,0.96,0.19s0.66-0.06,0.95-0.19c0.29-0.13,0.55-0.3,0.77-0.52
	c0.22-0.22,0.4-0.48,0.53-0.78c0.13-0.3,0.19-0.62,0.19-0.96c0-0.34-0.06-0.66-0.19-0.95C51.11,56.49,50.93,56.23,50.71,56z"/>
<path d="M55.35,30.88c-0.74-0.61-1.63-1.07-2.65-1.4c-1.03-0.33-2.15-0.49-3.36-0.49c-0.91,0-1.84,0.12-2.79,0.37
	c-0.95,0.25-1.81,0.64-2.59,1.18c-0.78,0.54-1.41,1.23-1.91,2.08s-0.74,1.87-0.74,3.07c0,0.47,0.06,0.9,0.18,1.3
	s0.29,0.73,0.51,1.03c0.22,0.29,0.48,0.52,0.77,0.67c0.29,0.16,0.61,0.23,0.95,0.23c0.48,0,0.9-0.19,1.24-0.56
	c0.34-0.37,0.51-0.87,0.51-1.5c0-0.36-0.07-0.65-0.22-0.89c-0.15-0.23-0.31-0.47-0.48-0.7c-0.17-0.23-0.33-0.47-0.48-0.74
	c-0.15-0.26-0.23-0.61-0.23-1.04c0-0.41,0.11-0.8,0.32-1.15c0.21-0.35,0.51-0.65,0.88-0.91c0.37-0.26,0.82-0.46,1.34-0.6
	c0.52-0.14,1.08-0.21,1.68-0.21c0.7,0,1.35,0.12,1.94,0.35c0.59,0.24,1.11,0.59,1.54,1.07c0.43,0.48,0.77,1.08,1.02,1.8
	c0.24,0.72,0.37,1.57,0.37,2.54c0,1.04-0.12,1.98-0.37,2.83c-0.24,0.84-0.54,1.64-0.9,2.4c-0.36,0.76-0.75,1.51-1.17,2.25
	c-0.42,0.74-0.81,1.53-1.17,2.38c-0.36,0.84-0.66,1.77-0.9,2.79s-0.36,2.18-0.36,3.48h1.05c0-1.11,0.21-2.14,0.62-3.09
	c0.41-0.95,0.93-1.85,1.55-2.71c0.62-0.86,1.29-1.69,2.01-2.5c0.72-0.81,1.39-1.64,2.01-2.48s1.14-1.72,1.55-2.64
	c0.41-0.92,0.62-1.92,0.62-3.01c0-1.1-0.21-2.09-0.62-2.96C56.67,32.23,56.09,31.48,55.35,30.88z"/>
</svg>
