<?xml version="1.0" encoding="utf-8"?>
<!-- Generator: Adobe Illustrator 16.0.0, SVG Export Plug-In . SVG Version: 6.00 Build 0)  -->
<!DOCTYPE svg PUBLIC "-//W3C//DTD SVG 1.1//EN" "http://www.w3.org/Graphics/SVG/1.1/DTD/svg11.dtd">
<svg version="1.1" id="Capa_1" xmlns="http://www.w3.org/2000/svg" xmlns:xlink="http://www.w3.org/1999/xlink" x="0px" y="0px"
	 width="100px" height="100px" viewBox="0 0 100 100" enable-background="new 0 0 100 100" xml:space="preserve">
<g>
	<path fill="#020304" d="M49.71,27.59c-5.88,0-10.65,4.64-10.65,10.35S43.82,48.3,49.71,48.3c5.88,0,10.65-4.64,10.65-10.35
		S55.58,27.59,49.71,27.59z M49.71,44.3c-3.67,0-6.65-2.85-6.65-6.35c0-3.5,2.98-6.35,6.65-6.35c3.67,0,6.65,2.85,6.65,6.35
		C56.35,41.45,53.37,44.3,49.71,44.3z"/>
	<path fill="#020304" d="M50,16.02c-13.03,0-23.63,10.36-23.63,23.09c0,4.27,1.58,9.46,4.24,13.88l15.98,26.08l3.4,5.55l3.42-5.54
		l16.05-26.05c2.62-4.37,4.17-9.56,4.17-13.92C73.63,26.38,63.03,16.02,50,16.02z M66.05,50.93L50,76.98L34.04,50.93
		c-1.96-3.27-3.67-7.78-3.67-11.82c0-10.54,8.79-19.09,19.63-19.09c10.84,0,19.63,8.55,19.63,19.09
		C69.63,43.16,68.01,47.66,66.05,50.93z"/>
</g>
</svg>
