<?xml version="1.0" encoding="utf-8"?>
<!-- Generator: Adobe Illustrator 16.0.0, SVG Export Plug-In . SVG Version: 6.00 Build 0)  -->
<!DOCTYPE svg PUBLIC "-//W3C//DTD SVG 1.1 Tiny//EN" "http://www.w3.org/Graphics/SVG/1.1/DTD/svg11-tiny.dtd">
<svg version="1.1" baseProfile="tiny" id="Capa_1" xmlns="http://www.w3.org/2000/svg" xmlns:xlink="http://www.w3.org/1999/xlink"
	 x="0px" y="0px" width="100px" height="100px" viewBox="0 0 100 100" xml:space="preserve">
<path d="M39,34c-1.66,0-3,1.34-3,3c0,1.66,1.34,3,3,3c1.66,0,3-1.34,3-3C42,35.34,40.66,34,39,34z M39,38c-0.55,0-1-0.45-1-1
	c0-0.55,0.45-1,1-1c0.55,0,1,0.45,1,1C40,37.55,39.55,38,39,38z"/>
<path d="M39,42c-1.66,0-3,1.34-3,3c0,1.66,1.34,3,3,3c1.66,0,3-1.34,3-3C42,43.34,40.66,42,39,42z M39,46c-0.55,0-1-0.45-1-1
	c0-0.55,0.45-1,1-1c0.55,0,1,0.45,1,1C40,45.55,39.55,46,39,46z"/>
<path d="M39,50c-1.66,0-3,1.34-3,3c0,1.66,1.34,3,3,3c1.66,0,3-1.34,3-3C42,51.34,40.66,50,39,50z M39,54c-0.55,0-1-0.45-1-1
	c0-0.55,0.45-1,1-1c0.55,0,1,0.45,1,1C40,53.55,39.55,54,39,54z"/>
<rect x="43.5" y="35.5" width="19" height="3"/>
<rect x="43.5" y="43.5" width="19" height="3"/>
<rect x="43.5" y="51.5" width="19" height="3"/>
</svg>
