<?xml version="1.0" encoding="utf-8"?>
<!-- Generator: Adobe Illustrator 16.0.0, SVG Export Plug-In . SVG Version: 6.00 Build 0)  -->
<!DOCTYPE svg PUBLIC "-//W3C//DTD SVG 1.1//EN" "http://www.w3.org/Graphics/SVG/1.1/DTD/svg11.dtd">
<svg version="1.1" id="Capa_1" xmlns="http://www.w3.org/2000/svg" xmlns:xlink="http://www.w3.org/1999/xlink" x="0px" y="0px"
	 width="100px" height="100px" viewBox="0 0 100 100" enable-background="new 0 0 100 100" xml:space="preserve">
<g>
	<path d="M15.69,25.5h22.09c-0.8,0.72-0.73,0.57-1.43,1.21c-1.51,1.37,0,3.9,0,3.9L43.74,24l-7.38-6.61c0,0-1.51,2.54,0,3.9
		c0.7,0.64,0.63,0.48,1.43,1.21H15.69c0.8-0.72,0.73-0.57,1.43-1.21c1.51-1.37,0-3.9,0-3.9L9.74,24l7.38,6.61c0,0,1.51-2.54,0-3.9
		C16.42,26.07,16.49,26.22,15.69,25.5z"/>
	<path d="M92.26,53.29c0-1.01-0.01-2.29-0.01-2.29V51c0-1.01-0.21-1.96-0.62-2.79c-0.6-1.25-1.61-2.17-2.72-2.73
		c-1.11-0.57-2.32-0.82-3.53-0.82c-1.07,0-2.15,0.22-3.15,0.64l-0.04-27.96V17.3c0-0.98-0.19-1.91-0.55-2.73
		c-0.55-1.23-1.5-2.17-2.56-2.74C78.03,11.25,76.86,11,75.7,11c-1.18,0-2.35,0.28-3.44,0.78c0-0.1,0-0.21,0-0.28
		c0-1.03-0.22-2-0.63-2.84c-0.62-1.27-1.64-2.21-2.76-2.8C67.74,5.27,66.49,5,65.26,5c-1.64,0-3.32,0.48-4.69,1.56
		c-0.68,0.54-1.27,1.25-1.68,2.09c-0.36,0.73-0.56,1.57-0.61,2.44c-0.97-0.4-1.99-0.6-3.02-0.6c-1.64,0-3.32,0.48-4.69,1.56
		c-0.68,0.54-1.27,1.25-1.68,2.09C48.48,15,48.26,15.97,48.26,17c0,1.95,0,17.04,0,29.01c-0.21,0-0.42,0.02-0.63,0.09l-6.81,2.27
		l-8.76,18.62L44.98,95h1.28c0,0,1.88,0,4.75,0c8.62,0,26.25,0,29.25,0c1.17,0,2.24-0.15,3.21-0.51c0.73-0.27,1.4-0.67,1.96-1.16
		c0.85-0.75,1.44-1.69,1.86-2.68c0.42-1,0.7-2.08,0.93-3.26c0.33-1.65,0.73-4.16,1.16-7.12c0.64-4.43,1.33-9.85,1.88-14.67
		c0.27-2.41,0.51-4.67,0.69-6.59c0.17-1.92,0.29-3.49,0.31-4.58v0C92.26,54.21,92.26,53.8,92.26,53.29z M88.26,54.34l0,0.01
		L88.26,54.34c-0.03,1.21-0.21,3.51-0.49,6.29c-0.42,4.19-1.06,9.53-1.71,14.41c-0.65,4.87-1.31,9.3-1.77,11.57
		c-0.18,0.92-0.38,1.68-0.61,2.27c-0.17,0.44-0.35,0.78-0.53,1.03c-0.28,0.38-0.53,0.58-0.94,0.77C81.81,90.86,81.19,91,80.26,91
		c-3.5,0-26.96,0-32.72,0L36.46,67.01l7.24-15.38l4.56-1.52c0,5.08,0,9.08,0,10.41l-1.78,3.51c-0.5,0.98-0.11,2.19,0.88,2.69
		c0.98,0.5,2.19,0.11,2.69-0.88l2.22-4.36V61c0,0,0-40.72,0-44c0-0.47,0.09-0.81,0.23-1.09c0.2-0.42,0.53-0.74,1.02-1
		c0.48-0.25,1.11-0.41,1.75-0.4c0.86,0,1.68,0.27,2.19,0.69c0.26,0.21,0.45,0.44,0.58,0.72c0.14,0.28,0.23,0.62,0.23,1.09
		c0,10.59,0,32.17,0,34h4c0,0,0-30,0-34c0-2.76,0-4.78,0-5.5c0-0.47,0.09-0.81,0.23-1.09c0.2-0.42,0.53-0.74,1.02-1
		C63.99,9.15,64.62,9,65.26,9c0.86,0,1.68,0.27,2.19,0.69c0.26,0.21,0.45,0.44,0.58,0.72c0.14,0.28,0.23,0.62,0.23,1.09
		c0,0.84,0,3.18,0,6.34c0,4,0,35.48,0,35.48h4c0,0,0-23.59,0-35.48c0-0.48,0.1-0.84,0.26-1.16c0.24-0.48,0.66-0.89,1.24-1.2
		C74.33,15.17,75.04,15,75.7,15c0.78,0,1.45,0.24,1.84,0.57c0.2,0.17,0.35,0.36,0.47,0.62c0.12,0.26,0.2,0.61,0.2,1.1v0.03v0.01
		l0.05,38.05l4,0V51c0-0.41,0.08-0.69,0.22-0.95c0.2-0.38,0.55-0.72,1.07-0.98c0.52-0.26,1.19-0.42,1.85-0.41
		c0.85,0,1.65,0.26,2.11,0.64c0.24,0.19,0.41,0.4,0.54,0.66c0.12,0.26,0.21,0.58,0.21,1.05v0v0c0,0,0.01,1.28,0.01,2.28
		C88.26,53.78,88.26,54.22,88.26,54.34z"/>
</g>
</svg>
