<?xml version="1.0" encoding="utf-8"?>
<!-- Generator: Adobe Illustrator 16.0.0, SVG Export Plug-In . SVG Version: 6.00 Build 0)  -->
<!DOCTYPE svg PUBLIC "-//W3C//DTD SVG 1.1//EN" "http://www.w3.org/Graphics/SVG/1.1/DTD/svg11.dtd">
<svg version="1.1" id="Capa_1" xmlns="http://www.w3.org/2000/svg" xmlns:xlink="http://www.w3.org/1999/xlink" x="0px" y="0px"
	 width="100px" height="100px" viewBox="0 0 100 100" enable-background="new 0 0 100 100" xml:space="preserve">
<g>
	<path d="M87.07,55.74c0-1.19-0.01-2.75-0.01-2.75V53c0-1.03-0.22-2-0.63-2.84c-0.62-1.27-1.64-2.21-2.76-2.8
		c-1.13-0.59-2.37-0.86-3.61-0.86c-1.15,0-2.31,0.24-3.38,0.75c-0.1-0.36-0.21-0.72-0.37-1.05c-0.6-1.3-1.61-2.28-2.74-2.89
		c-1.13-0.61-2.38-0.89-3.62-0.89c-1.04,0-2.08,0.22-3.05,0.65c-0.11-0.5-0.27-0.97-0.48-1.41c-0.62-1.27-1.64-2.21-2.76-2.8
		C62.54,38.27,61.3,38,60.06,38c-1.02,0-2.04,0.19-3,0.58V17c0-1.03-0.21-2-0.6-2.84c-0.59-1.28-1.59-2.23-2.7-2.83
		c-1.12-0.6-2.35-0.87-3.57-0.87c-1.65,0-3.33,0.49-4.7,1.58c-0.68,0.54-1.28,1.24-1.71,2.08c-0.43,0.83-0.68,1.8-0.71,2.83l0,0.03
		v29.65l-7.51,2.82l-7.5,17.85L39.73,95h1.33c0,0,1.88,0,4.75,0c8.62,0,26.25,0,29.25,0c1.17,0,2.24-0.15,3.21-0.51
		c0.73-0.27,1.4-0.66,1.96-1.16c0.85-0.75,1.44-1.69,1.86-2.68c0.42-1,0.7-2.08,0.93-3.26c0.65-3.25,1.61-9.42,2.45-15.5
		c0.42-3.04,0.8-6.04,1.08-8.64c0.29-2.6,0.48-4.76,0.51-6.21v0C87.07,56.83,87.07,56.35,87.07,55.74z M83.06,56.95L83.06,56.95
		c-0.03,1.2-0.21,3.33-0.49,5.87c-0.42,3.81-1.06,8.6-1.71,13.02c-0.65,4.41-1.31,8.47-1.77,10.77c-0.18,0.92-0.38,1.68-0.61,2.27
		c-0.17,0.44-0.35,0.78-0.53,1.03c-0.28,0.38-0.53,0.58-0.94,0.77C76.62,90.86,76,91,75.06,91c-3.49,0-26.83,0-32.67,0l-10-23.73
		l6.18-14.7l4.49-1.68v7.8l-1.98,4.97c-0.41,1.03,0.09,2.19,1.12,2.6s2.19-0.09,2.6-1.12l2.27-5.68V17.06
		c0.02-0.47,0.12-0.83,0.27-1.13c0.23-0.44,0.59-0.79,1.09-1.06c0.5-0.26,1.13-0.42,1.76-0.42c0.83,0,1.61,0.27,2.09,0.67
		c0.24,0.2,0.43,0.43,0.56,0.72c0.13,0.29,0.23,0.65,0.23,1.15v27.5c0,3.48,0,4.19,0,6.5h4v-6.5c0-0.47,0.09-0.81,0.23-1.09
		c0.2-0.42,0.53-0.74,1.02-1c0.48-0.25,1.11-0.41,1.75-0.4c0.86,0,1.68,0.27,2.19,0.69c0.26,0.21,0.45,0.44,0.58,0.72
		c0.14,0.28,0.23,0.62,0.23,1.09c0,1.43,0,2.96,0,4.34v4.48h4c0,0,0-1.99,0-4.48c0-0.45,0.09-0.77,0.22-1.05
		c0.2-0.4,0.52-0.72,0.99-0.98c0.47-0.25,1.08-0.4,1.69-0.4c0.83,0,1.63,0.27,2.13,0.7c0.25,0.21,0.45,0.46,0.59,0.77
		c0.14,0.31,0.24,0.7,0.24,1.22v0.03v0.03l0.13,6.26l4-0.04V53c0-0.47,0.09-0.81,0.23-1.09c0.2-0.42,0.53-0.74,1.02-1
		c0.48-0.25,1.11-0.41,1.75-0.4c0.86,0,1.68,0.27,2.19,0.69c0.26,0.21,0.45,0.44,0.58,0.72c0.14,0.28,0.23,0.62,0.23,1.09v0v0
		c0,0,0.01,1.56,0.01,2.74C83.07,56.33,83.07,56.84,83.06,56.95z"/>
	<path d="M24.25,33.62c-0.64,0.7-0.48,0.63-1.21,1.43V12.95c0.72,0.8,0.57,0.73,1.21,1.43c1.37,1.51,3.9,0,3.9,0L21.54,7l-6.61,7.38
		c0,0,2.54,1.51,3.9,0c0.64-0.7,0.48-0.63,1.21-1.43v22.09c-0.72-0.8-0.57-0.73-1.21-1.43c-1.37-1.51-3.9,0-3.9,0L21.54,41
		l6.61-7.38C28.16,33.62,25.62,32.11,24.25,33.62z"/>
</g>
</svg>
