<?xml version="1.0" encoding="utf-8"?>
<!-- Generator: Adobe Illustrator 16.0.0, SVG Export Plug-In . SVG Version: 6.00 Build 0)  -->
<!DOCTYPE svg PUBLIC "-//W3C//DTD SVG 1.1 Tiny//EN" "http://www.w3.org/Graphics/SVG/1.1/DTD/svg11-tiny.dtd">
<svg version="1.1" baseProfile="tiny" id="Capa_1" xmlns="http://www.w3.org/2000/svg" xmlns:xlink="http://www.w3.org/1999/xlink"
	 x="0px" y="0px" width="100px" height="100px" viewBox="0 0 100 100" xml:space="preserve">
<path d="M92,53.91c-0.15-2.23-1.08-4.17-3.08-5.3c-2.15-1.22-4.88-1.24-7.12-0.24c-1.07-4.32-6.27-5.82-10.03-4.11
	c-1.1-4.13-6.05-5.71-9.77-4.18c0-5.25,0-10.5,0-15.75c0-1.9,0-3.8,0-5.7c0-1.87,0.01-3.69-1.12-5.3
	c-3.23-4.59-11.62-3.4-12.75,2.34C47.81,17.28,48,19.1,48,20.73c0,12.39,0,24.78,0,37.16c0,2.04,0,4.08,0,6.13
	c0,0.4,0.04,0.83-0.02,1.23c-0.19,1.4-1.75,2.16-3.03,2.16c-1.37-0.01-2.55-0.74-3.45-1.74c-1.68-1.9-3.57-3.64-5.38-5.42
	c-2.17-2.13-4.04-4.49-7.32-4.63c-4.4-0.19-8.3,2.49-11.67,5.01L45.05,95c7.79,0,15.57,0,23.36,0c3.44,0,6.88,0,10.32,0
	c1.74,0,3.49,0.02,5.1-0.77c2.64-1.3,3.6-4.14,4.14-6.84c1.11-5.64,1.78-11.38,2.48-17.08c0.39-3.13,0.75-6.26,1.06-9.39
	C91.73,58.61,92.06,56.24,92,53.91z M88,54.06c0,0.09,0,0.19,0,0.28v0c-0.11,5.32-0.93,10.69-1.59,15.97
	c-0.67,5.44-1.3,10.92-2.37,16.3v0c-0.22,1.11-0.47,2.36-1.14,3.3C82.22,90.84,81.08,91,80,91c-0.84,0-1.69,0-2.53,0
	c-3.2,0-6.39,0-9.59,0c-6.72,0-13.44,0-20.15,0c-0.26,0-0.52,0-0.78,0L22.96,61.47c1.4-0.8,2.93-1.51,4.53-1.77
	c1.9-0.3,2.83,0.45,4.11,1.72c2.3,2.28,4.75,4.47,6.9,6.9l0,0c3.36,3.84,10.36,4.46,12.89-0.7c0.74-1.51,0.61-3.17,0.61-4.8
	c0-5.38,0-10.77,0-16.15c0-6.7,0-13.4,0-20.1c0-2.36,0-4.72,0-7.09c0-0.68,0-1.35,0-2.03c0-1.82,1.09-2.96,3-2.96
	c1.93-0.01,3,1.15,3,3c0,1.06,0,2.12,0,3.19c0,3.43,0,6.85,0,10.28c0,6.68,0,13.35,0,20.03h4c0-1.54,0-3.08,0-4.61
	c0-1.18,0.33-2.12,1.5-2.6c1.09-0.45,2.49-0.4,3.48,0.25c1.1,0.71,1.02,1.88,1.02,3.04c0,0.99,0,1.99,0,2.98c0,1.09,0,2.17,0,3.26h4
	c0-0.52,0-1.05,0-1.58c0-1.06-0.24-2.39,0.53-3.25c1.33-1.47,4.91-1.34,5.4,0.89C78.17,50.45,78,51.7,78,52.78c0,0.87,0,1.73,0,2.6
	h4c0-1.47-0.07-2.78,1.56-3.43C85.34,51.24,87.99,51.77,88,54.06z"/>
</svg>
