<?xml version="1.0" encoding="utf-8"?>
<!-- Generator: Adobe Illustrator 16.0.0, SVG Export Plug-In . SVG Version: 6.00 Build 0)  -->
<!DOCTYPE svg PUBLIC "-//W3C//DTD SVG 1.1 Tiny//EN" "http://www.w3.org/Graphics/SVG/1.1/DTD/svg11-tiny.dtd">
<svg version="1.1" baseProfile="tiny" id="Capa_1" xmlns="http://www.w3.org/2000/svg" xmlns:xlink="http://www.w3.org/1999/xlink"
	 x="0px" y="0px" width="100px" height="100px" viewBox="0 0 100 100" xml:space="preserve">
<path d="M31.87,14.25c-0.05,1.08-0.11,0.92-0.16,1.87c-0.1,2.03,2.76,2.76,2.76,2.76l0.54-9.9l-9.9,0.55c0,0,0.73,2.86,2.76,2.76
	c0.95-0.04,0.79-0.11,1.87-0.16L14.13,27.75c0.05-1.08,0.11-0.92,0.16-1.87c0.1-2.03-2.76-2.76-2.76-2.76l-0.55,9.9l9.9-0.55
	c0,0-0.73-2.86-2.76-2.76c-0.95,0.05-0.79,0.11-1.87,0.16L31.87,14.25z"/>
</svg>
