<?xml version="1.0" encoding="utf-8"?>
<!-- Generator: Adobe Illustrator 16.0.0, SVG Export Plug-In . SVG Version: 6.00 Build 0)  -->
<!DOCTYPE svg PUBLIC "-//W3C//DTD SVG 1.1 Tiny//EN" "http://www.w3.org/Graphics/SVG/1.1/DTD/svg11-tiny.dtd">
<svg version="1.1" baseProfile="tiny" id="Capa_1" xmlns="http://www.w3.org/2000/svg" xmlns:xlink="http://www.w3.org/1999/xlink"
	 x="0px" y="0px" width="100px" height="100px" viewBox="0 0 100 100" xml:space="preserve">
<path fill="none" stroke="#FFFFFF" stroke-width="3" stroke-miterlimit="10" d="M34.75,31.84"/>
<g>
	<circle cx="50" cy="72.79" r="3"/>
	<path d="M61,59.37c-3.28,0.61-6.94,0.96-10.82,0.97l-6.01,5.5c0,0-1.53-2.52-0.04-3.91c0.7-0.65,0.73-0.64,1.42-1.22
		c0.22-0.19,0.4-0.34,0.58-0.49c-2.52-0.15-4.9-0.45-7.12-0.86v8.43h22V59.37z"/>
	<path d="M66.21,71.31c-1.06,0.89-2.13,1.72-3.21,2.53v3.57c0,0.27-0.11,0.51-0.29,0.71c-0.19,0.19-0.43,0.29-0.71,0.29h-5.96
		c-2.18,1.24-4.37,2.32-6.55,3.23c-0.65,0.27-1.31,0.53-1.96,0.77H62c2.76-0.01,4.99-2.24,5-5v-6.79
		C66.73,70.85,66.48,71.08,66.21,71.31z"/>
</g>
<path d="M87.32,33.64c-0.68,0.65-0.53,0.6-1.3,1.34c0,0,0,0,0,0.01c0-0.11,0.01-0.22,0.01-0.32c0-4.39-1.23-8.45-3.91-11.63
	c-1.79-2.14-4.1-3.72-6.72-4.74c-2.62-1.03-5.57-1.51-8.71-1.51c-2.35,0-4.81,0.29-7.34,0.81H38c-2.76,0.01-4.99,2.24-5,5v8.79
	c-5.85,5.06-10.52,10.74-13.77,16.46c-3.39,5.98-5.26,12.02-5.26,17.49c0,4.39,1.23,8.45,3.91,11.63c1.79,2.14,4.09,3.72,6.72,4.74
	c2.62,1.03,5.57,1.51,8.71,1.51c5.02,0,10.55-1.24,16.18-3.58c5.63-2.35,11.35-5.82,16.72-10.32c6.23-5.23,11.16-11.17,14.56-17.15
	c2.09-3.68,3.59-7.38,4.44-10.96l-1.65,1.51l-1.36-1.87c-0.79,3.16-2.14,6.49-4.04,9.84C75.46,55.43,71.69,60.2,67,64.59V57.8
	c-1.23,0.44-2.57,0.82-4,1.15v9.09c-4.77,3.81-9.78,6.78-14.67,8.82c-1.42,0.59-2.83,1.1-4.21,1.54H38c-0.27,0-0.51-0.11-0.71-0.29
	C37.11,77.92,37,77.68,37,77.4V58.96c-1.43-0.33-2.77-0.72-4-1.15v19.6c0,1.04,0.33,2,0.87,2.8c-0.18,0-0.38,0.02-0.56,0.02
	c-2.83,0-5.41-0.44-7.62-1.31c-2.21-0.87-4.06-2.15-5.51-3.88c-2.15-2.57-3.2-5.86-3.21-9.7c0-4.78,1.67-10.37,4.87-16.01
	c2.69-4.75,6.47-9.53,11.16-13.91v4.78c-2.08,0.74-3.86,1.61-5.26,2.65c-0.91,0.68-1.67,1.42-2.23,2.28
	c-0.55,0.85-0.89,1.84-0.89,2.88c0,0.34,0.04,0.66,0.11,0.99c0.11,0.53,0.3,1.05,0.56,1.52c0.75,1.34,1.97,2.42,3.5,3.36
	c1.2,0.73,2.62,1.38,4.2,1.94c1.23,0.44,2.57,0.82,4,1.15c0.27,0.06,0.53,0.13,0.8,0.18c0.39,0.08,0.8,0.14,1.2,0.22
	c2.26,0.42,4.7,0.73,7.27,0.87c-0.21-0.15-0.46-0.32-0.76-0.52c-0.36-0.32-0.55-0.47-0.71-0.59c-0.19-0.15-0.35-0.26-0.74-0.6
	c-0.48-0.43-0.66-0.98-0.68-1.53c-0.04-1.18,0.64-2.37,0.64-2.37l3.03,2.66l2.35,2.07l1.14,1c3.75-0.03,7.28-0.37,10.45-0.97
	c0.68-0.13,1.35-0.27,2-0.42c1.43-0.33,2.77-0.72,4-1.15c0.13-0.05,0.28-0.09,0.4-0.14c2.28-0.85,4.17-1.86,5.58-3.09
	c0.71-0.62,1.29-1.3,1.72-2.06c0.26-0.47,0.45-0.99,0.56-1.52c0.07-0.32,0.11-0.65,0.11-0.99c0-0.99-0.31-1.93-0.82-2.76
	c-0.77-1.24-1.95-2.26-3.43-3.15c-1.19-0.71-2.58-1.34-4.13-1.89V22.6c0-1.04-0.32-1.99-0.85-2.79c0.18,0,0.36-0.02,0.54-0.02
	c2.83,0,5.41,0.44,7.62,1.31c2.21,0.87,4.07,2.15,5.52,3.88c2.15,2.57,3.2,5.85,3.2,9.7c0,0.03,0,0.07,0,0.1
	c-0.52-0.73-0.52-0.77-1.1-1.51c-1.26-1.6-3.89-0.28-3.89-0.28l1.02,1.32l3.57,4.6l1.48,1.91l1.48-1.43l4.12-3.99l1.52-1.47
	C91.22,33.92,88.79,32.24,87.32,33.64z M33,52.59c-1.73-0.7-3.12-1.49-4.01-2.27c-0.5-0.44-0.85-0.87-1.07-1.26
	c-0.01-0.02-0.01-0.04-0.02-0.06c-0.19-0.36-0.27-0.68-0.27-1c0-0.39,0.11-0.78,0.41-1.25c0.44-0.7,1.35-1.51,2.67-2.26
	c0.22-0.13,0.47-0.25,0.71-0.37c0.49-0.25,1.01-0.49,1.58-0.72V52.59z M67,43.4c0.6,0.24,1.16,0.5,1.67,0.76
	c0.78,0.4,1.45,0.81,1.99,1.23c0.63,0.49,1.08,0.98,1.34,1.42c0.27,0.44,0.37,0.82,0.37,1.19c0,0.32-0.08,0.64-0.28,1
	c-0.01,0.02-0.01,0.04-0.02,0.05c-0.37,0.68-1.18,1.49-2.44,2.25C68.9,51.76,68.01,52.2,67,52.6V43.4z M63,53.88
	c-0.46,0.12-0.94,0.23-1.43,0.33c-0.18,0.04-0.39,0.07-0.57,0.1V23.79H39v30.53c-0.69-0.14-1.36-0.29-2-0.45V22.6
	c0-0.27,0.11-0.51,0.29-0.71c0.19-0.19,0.43-0.29,0.71-0.29h24c0.27,0,0.51,0.11,0.71,0.29C62.89,22.08,63,22.32,63,22.6V53.88z"/>
</svg>
