<?xml version="1.0" encoding="utf-8"?>
<!-- Generator: Adobe Illustrator 16.0.0, SVG Export Plug-In . SVG Version: 6.00 Build 0)  -->
<!DOCTYPE svg PUBLIC "-//W3C//DTD SVG 1.1//EN" "http://www.w3.org/Graphics/SVG/1.1/DTD/svg11.dtd">
<svg version="1.1" id="Capa_1" xmlns="http://www.w3.org/2000/svg" xmlns:xlink="http://www.w3.org/1999/xlink" x="0px" y="0px"
	 width="100px" height="100px" viewBox="0 0 100 100" enable-background="new 0 0 100 100" xml:space="preserve">
<g>
	<path d="M64.02,21.02h-24c-2.76,0.01-4.99,2.24-5,5v54.8c0.01,2.76,2.24,4.99,5,5h24c2.76-0.01,4.99-2.24,5-5v-54.8
		C69.01,23.25,66.78,21.03,64.02,21.02z M64.72,81.53c-0.19,0.19-0.43,0.29-0.7,0.29h-24c-0.27,0-0.51-0.11-0.7-0.29
		c-0.19-0.19-0.29-0.43-0.3-0.71v-54.8c0-0.27,0.11-0.51,0.3-0.7c0.19-0.19,0.43-0.3,0.7-0.3h24c0.27,0,0.51,0.11,0.7,0.3
		c0.19,0.19,0.29,0.43,0.3,0.7v54.8C65.02,81.1,64.91,81.34,64.72,81.53z"/>
	<rect x="41.02" y="27.21" width="22" height="44"/>
	<circle cx="52.02" cy="76.21" r="3"/>
	<path d="M29.05,22.67l-2.77,0.61c-1.6,1.02-2.53,2.91-2.23,4.91l8.05,52.64l-4.74-53.99C27.23,25.2,27.9,23.69,29.05,22.67z"/>
	<path d="M77.75,23.28l-2.77-0.61c1.15,1.01,1.82,2.53,1.68,4.17l-4.74,53.99l8.05-52.64C80.28,26.19,79.35,24.31,77.75,23.28z"/>
	<path d="M32.22,21.68c-1.68,0.88-2.78,2.68-2.65,4.7l3.42,53.14v-54.2c0-1.65,0.81-3.1,2.04-4.01L32.22,21.68z"/>
	<path d="M74.46,26.37c0.12-2.02-0.97-3.82-2.65-4.7L69,21.31c1.23,0.91,2.04,2.36,2.04,4.01v54.2L74.46,26.37z"/>
</g>
</svg>
