<?xml version="1.0" encoding="utf-8"?>
<!-- Generator: Adobe Illustrator 16.0.0, SVG Export Plug-In . SVG Version: 6.00 Build 0)  -->
<!DOCTYPE svg PUBLIC "-//W3C//DTD SVG 1.1 Tiny//EN" "http://www.w3.org/Graphics/SVG/1.1/DTD/svg11-tiny.dtd">
<svg version="1.1" baseProfile="tiny" id="Capa_1" xmlns="http://www.w3.org/2000/svg" xmlns:xlink="http://www.w3.org/1999/xlink"
	 x="0px" y="0px" width="100px" height="100px" viewBox="0 0 100 100" xml:space="preserve">
<g>
	<path d="M63.66,39.19c0,0-1.51,2.54,0,3.9c0.7,0.64,0.63,0.48,1.43,1.21H43v3h22.09c-0.8,0.72-0.73,0.57-1.43,1.21
		c-1.51,1.37,0,3.9,0,3.9l7.38-6.61L63.66,39.19z"/>
	<path d="M53.5,50.81c0,0.14-0.05,0.25-0.15,0.35c-0.1,0.1-0.22,0.15-0.35,0.15H37c-0.14,0-0.25-0.05-0.35-0.15
		c-0.1-0.1-0.15-0.22-0.15-0.35v-10c0-0.14,0.05-0.25,0.15-0.35c0.1-0.1,0.22-0.15,0.35-0.15h16c0.14,0,0.25,0.05,0.35,0.15
		c0.1,0.1,0.15,0.22,0.15,0.35v2h3v-2c-0.01-1.94-1.57-3.49-3.5-3.5H37c-1.93,0.01-3.49,1.56-3.5,3.5v10
		c0.01,1.94,1.57,3.49,3.5,3.5h16c1.93-0.01,3.49-1.56,3.5-3.5v-2h-3V50.81z"/>
</g>
</svg>
