<?xml version="1.0" encoding="utf-8"?>
<!-- Generator: Adobe Illustrator 16.0.0, SVG Export Plug-In . SVG Version: 6.00 Build 0)  -->
<!DOCTYPE svg PUBLIC "-//W3C//DTD SVG 1.1 Tiny//EN" "http://www.w3.org/Graphics/SVG/1.1/DTD/svg11-tiny.dtd">
<svg version="1.1" baseProfile="tiny" id="Capa_1" xmlns="http://www.w3.org/2000/svg" xmlns:xlink="http://www.w3.org/1999/xlink"
	 x="0px" y="0px" width="100px" height="100px" viewBox="0 0 100 100" xml:space="preserve">
<g>
	<path d="M35.08,25.14c2.21,1.08,4.04,2.87,5.31,4.9c1.27,2.03,1.95,4.31,1.94,6.2h4c0-1.87-0.42-3.78-1.17-5.62
		c-1.13-2.76-3.01-5.38-5.56-7.35C37.07,21.31,33.83,20,30.17,20c-2.44,0-4.7,0.58-6.68,1.55c-2.97,1.46-5.32,3.78-6.94,6.38
		c-1.62,2.61-2.54,5.52-2.54,8.32h4c0-1.26,0.29-2.7,0.87-4.11c0.86-2.13,2.37-4.2,4.3-5.7c1.94-1.5,4.28-2.44,6.99-2.44
		C31.98,24,33.61,24.42,35.08,25.14z"/>
	<circle cx="30.17" cy="33.42" r="2.83"/>
	<path d="M84.83,30.63c-1.13-2.76-3.01-5.38-5.56-7.35C76.74,21.31,73.5,20,69.83,20c-2.44,0-4.7,0.58-6.68,1.55
		c-2.97,1.46-5.32,3.78-6.94,6.38c-1.62,2.61-2.54,5.52-2.54,8.32h4c0-1.26,0.29-2.7,0.87-4.11c0.86-2.13,2.37-4.2,4.3-5.7
		c1.94-1.5,4.28-2.44,6.99-2.44c1.81,0,3.45,0.42,4.92,1.14c2.21,1.08,4.04,2.87,5.31,4.9c1.27,2.03,1.95,4.31,1.94,6.2h4
		C86,34.38,85.58,32.47,84.83,30.63z"/>
	<circle cx="69.83" cy="33.42" r="2.83"/>
	<path d="M42.33,57.75c0,1.04,0.27,2.04,0.76,2.87c0.73,1.25,1.87,2.09,3.07,2.62C47.37,63.76,48.69,64,50,64
		c1.75-0.01,3.51-0.41,5-1.4c0.74-0.49,1.42-1.15,1.9-1.98c0.49-0.83,0.76-1.83,0.76-2.87h-4c0,0.38-0.08,0.62-0.21,0.85
		c-0.2,0.34-0.59,0.7-1.21,0.97C51.62,59.84,50.81,60,50,60c-1.09,0.01-2.16-0.3-2.79-0.73c-0.32-0.21-0.53-0.44-0.67-0.67
		c-0.13-0.23-0.21-0.48-0.21-0.85H42.33z"/>
	<path d="M51,71h-2c-5.55,0.01-11.34-1.9-15.11-3.79l-2.83,2.27c1.08,4.3,3.2,8.57,6.22,11.87c1.51,1.65,3.25,3.05,5.22,4.06
		c1.97,1,4.17,1.59,6.5,1.59c2,0,2,0,2,0c2.34,0,4.54-0.59,6.5-1.59c2.95-1.51,5.4-3.91,7.32-6.7c1.92-2.8,3.31-6,4.12-9.23
		l-2.83-2.27C62.34,69.1,56.55,71.01,51,71z M59.78,78.65c-1.24,1.35-2.62,2.45-4.09,3.19C54.21,82.59,52.66,83,51,83c0,0,0,0-2,0
		c-1.66,0-3.21-0.41-4.69-1.16c-2.2-1.12-4.21-3.03-5.83-5.4c-0.82-1.19-1.54-2.5-2.14-3.85c3.7,1.35,8.11,2.4,12.66,2.41h2
		c4.54-0.01,8.96-1.06,12.66-2.41C62.66,74.84,61.34,76.95,59.78,78.65z"/>
</g>
</svg>
