<?xml version="1.0" encoding="utf-8"?>
<!-- Generator: Adobe Illustrator 16.0.0, SVG Export Plug-In . SVG Version: 6.00 Build 0)  -->
<!DOCTYPE svg PUBLIC "-//W3C//DTD SVG 1.1 Tiny//EN" "http://www.w3.org/Graphics/SVG/1.1/DTD/svg11-tiny.dtd">
<svg version="1.1" baseProfile="tiny" id="Capa_1" xmlns="http://www.w3.org/2000/svg" xmlns:xlink="http://www.w3.org/1999/xlink"
	 x="0px" y="0px" width="100px" height="100px" viewBox="0 0 100 100" xml:space="preserve">
<path d="M38.5,14v5.75l-5.98-5.39c0,0-1.51,2.53-0.01,3.91c0.7,0.64,0.73,0.64,1.42,1.21H19.52c0.19,0.46,0.3,0.97,0.3,1.5
	s-0.11,1.04-0.3,1.5h14.41c0,0,0,0-0.01,0.01c-0.8,0.72-0.73,0.57-1.44,1.2c-1.51,1.36-0.01,3.9-0.01,3.9l6.02-5.36V28h3V14H38.5z"
	/>
<circle cx="15.81" cy="20.98" r="2"/>
</svg>
