<?xml version="1.0" encoding="utf-8"?>
<!-- Generator: Adobe Illustrator 16.0.0, SVG Export Plug-In . SVG Version: 6.00 Build 0)  -->
<!DOCTYPE svg PUBLIC "-//W3C//DTD SVG 1.1 Tiny//EN" "http://www.w3.org/Graphics/SVG/1.1/DTD/svg11-tiny.dtd">
<svg version="1.1" baseProfile="tiny" id="Capa_1" xmlns="http://www.w3.org/2000/svg" xmlns:xlink="http://www.w3.org/1999/xlink"
	 x="0px" y="0px" width="100px" height="100px" viewBox="0 0 100 100" xml:space="preserve">
<path d="M48.47,41.31l0.73-1.46l0.73,1.46c0.06,0.11,0.13,0.21,0.23,0.29c0.1,0.08,0.23,0.13,0.37,0.13c0.14,0,0.27-0.06,0.37-0.13
	c0.1-0.08,0.17-0.18,0.23-0.29l0.73-1.46l0.73,1.46c0.06,0.11,0.13,0.21,0.23,0.29c0.1,0.08,0.23,0.13,0.37,0.13
	c0.14,0,0.27-0.06,0.37-0.13c0.1-0.08,0.17-0.18,0.23-0.29l0.73-1.46l0.37,0.73c0.08,0.16,0.28,0.23,0.44,0.15
	c0.16-0.08,0.23-0.28,0.15-0.44l-0.37-0.73c-0.06-0.11-0.13-0.21-0.23-0.29c-0.1-0.08-0.23-0.14-0.36-0.13
	c-0.14,0-0.27,0.06-0.37,0.13c-0.1,0.08-0.17,0.18-0.23,0.29l-0.73,1.46l-0.73-1.46c-0.06-0.11-0.13-0.21-0.23-0.29
	c-0.1-0.08-0.23-0.14-0.37-0.13c-0.14,0-0.27,0.06-0.36,0.13c-0.1,0.08-0.17,0.18-0.23,0.29l-0.73,1.46l-0.73-1.46
	c-0.06-0.11-0.13-0.21-0.23-0.29c-0.1-0.08-0.23-0.14-0.37-0.13c-0.14,0-0.27,0.06-0.37,0.13c-0.1,0.08-0.17,0.18-0.23,0.29
	l-0.73,1.46l-0.73-1.46c-0.06-0.11-0.13-0.21-0.23-0.29c-0.1-0.08-0.23-0.14-0.37-0.13c-0.14,0-0.27,0.06-0.37,0.13
	c-0.1,0.08-0.17,0.18-0.23,0.29l-0.37,0.73c-0.08,0.16-0.02,0.36,0.15,0.44c0.16,0.08,0.36,0.02,0.44-0.15l0.37-0.73l0.73,1.46
	c0.06,0.11,0.13,0.21,0.23,0.29c0.1,0.08,0.23,0.13,0.37,0.13c0.14,0,0.27-0.06,0.37-0.13C48.34,41.53,48.42,41.43,48.47,41.31z"/>
<path d="M50.53,27.4c-6.5,0-11.78,5.27-11.78,11.78c0.01,2.55,1.14,4.69,2.23,6.19c1.09,1.5,2.17,2.39,2.21,2.42
	c0.56,0.46,1.14,1.22,1.55,2.02c0.41,0.8,0.65,1.65,0.64,2.21c0,0.55,0.45,1,1,1s1-0.45,1-1c-0.01-1.04-0.35-2.11-0.86-3.12
	c-0.52-1.01-1.22-1.96-2.06-2.66l0,0c-0.08-0.06-1.04-0.89-1.95-2.17c-0.92-1.29-1.76-3.02-1.76-4.89c0-2.7,1.09-5.14,2.86-6.91
	c1.77-1.77,4.21-2.86,6.91-2.86c2.7,0,5.14,1.09,6.91,2.86c1.77,1.77,2.86,4.21,2.86,6.91c0.01,1.93-0.9,3.71-1.84,5.01
	c-0.47,0.65-0.95,1.17-1.3,1.53c-0.18,0.18-0.32,0.31-0.42,0.4l-0.11,0.1l-0.03,0.02l0,0c-0.84,0.7-1.54,1.65-2.06,2.66
	c-0.51,1.02-0.86,2.09-0.86,3.12c0,0.08,0,0.17,0,0.27l-7.32,1.88c-0.53,0.14-0.97,0.7-0.97,1.25v0.1c0,0.55,0.44,0.89,0.97,0.75
	l8.38-2.15c0.53-0.14,0.97-0.7,0.97-1.25v-0.1c0-0.08-0.03-0.14-0.04-0.21c0-0.02,0.02-0.04,0.02-0.07h0
	c0.01-0.17,0.01-0.32,0.01-0.47c-0.01-0.56,0.23-1.41,0.64-2.21c0.41-0.8,0.99-1.56,1.55-2.02c0.04-0.04,1.12-0.92,2.21-2.42
	c1.09-1.5,2.22-3.64,2.23-6.19C62.3,32.67,57.03,27.4,50.53,27.4z"/>
<path d="M54.01,59.04l-5.42,1.6c-0.53,0.16-0.51,0.28,0.04,0.28h3.77c0.55,0,1.26-0.36,1.59-0.81l0.39-0.54
	C54.71,59.12,54.54,58.88,54.01,59.04z"/>
<path d="M54.72,55.41l-8.38,2.15c-0.53,0.14-0.7,0.61-0.37,1.05l0.15,0.2c0.33,0.44,1.03,0.69,1.56,0.55l7.04-1.85
	c0.53-0.14,0.97-0.7,0.97-1.25v-0.1C55.69,55.61,55.25,55.27,54.72,55.41z"/>
</svg>
