<?xml version="1.0" encoding="utf-8"?>
<!-- Generator: Adobe Illustrator 16.0.0, SVG Export Plug-In . SVG Version: 6.00 Build 0)  -->
<!DOCTYPE svg PUBLIC "-//W3C//DTD SVG 1.1//EN" "http://www.w3.org/Graphics/SVG/1.1/DTD/svg11.dtd">
<svg version="1.1" id="Capa_1" xmlns="http://www.w3.org/2000/svg" xmlns:xlink="http://www.w3.org/1999/xlink" x="0px" y="0px"
	 width="100px" height="100px" viewBox="0 0 100 100" enable-background="new 0 0 100 100" xml:space="preserve">
<path fill="#020304" d="M50,16.12c-8.98,0-17.72,3.64-24.05,10.02c-6.33,6.38-9.91,15.16-9.83,24.15
	c0.07,8.97,3.78,17.68,10.2,23.95c6.44,6.29,15.25,9.79,24.25,9.64c8.97-0.15,17.64-3.92,23.85-10.39
	c6.24-6.49,9.68-15.34,9.46-24.34c-0.21-8.78-3.91-17.25-10.19-23.39C67.38,19.61,58.8,16.12,50,16.12
	C31.28,16.12,68.72,16.12,50,16.12z M70.42,70.42c-7.6,7.59-19.09,10.37-29.32,7.07c-10-3.23-17.65-11.95-19.53-22.3
	c-1.91-10.55,2.29-21.51,10.77-28.06c8.5-6.57,20.32-7.85,30.03-3.24c8.31,3.95,14.39,11.85,16.04,20.91
	C80.1,54.08,77.08,63.76,70.42,70.42C65.19,75.66,75.66,65.19,70.42,70.42z"/>
<path fill="none" d="M47.78,50c-0.54,2.16,2.31,3.61,3.73,1.88"/>
<path fill="none" d="M48.13,54.3c-1.01-0.46-1.74-1.28-2.12-2.23l-3.83,15.06l8.66-12.57C49.94,54.77,48.99,54.69,48.13,54.3
	C47.13,53.83,48.69,54.55,48.13,54.3z"/>
<path d="M61.34,25.12l0.11-0.42c-5.44,7.76-10.88,15.51-16.31,23.27c-0.46,0.66-0.54,1.44-0.72,2.23c-0.6,2.54-1.21,5.07-1.81,7.61
	c-1.3,5.46-2.6,10.92-3.91,16.38c-0.09,0.36-0.17,0.71-0.26,1.07c5.26-7.32,10.52-14.64,15.78-21.96c0.13-0.18,0.15-0.54,0.2-0.75
	c0.21-0.83,0.42-1.65,0.63-2.48c0.71-2.76,1.42-5.53,2.13-8.29c1.36-5.32,2.72-10.63,4.09-15.95c0.08-0.31,0.16-0.63,0.24-0.94
	L61.34,25.12z M47.78,50c0.63-2.57,4.58-1.79,4.21,0.82C51.59,53.71,47.07,52.83,47.78,50C47.81,49.88,47.74,50.17,47.78,50z
	 M42.19,67.12l3.83-15.06c0.76,1.9,2.84,2.97,4.83,2.48L42.19,67.12z"/>
</svg>
