<?xml version="1.0" encoding="utf-8"?>
<!-- Generator: Adobe Illustrator 16.0.0, SVG Export Plug-In . SVG Version: 6.00 Build 0)  -->
<!DOCTYPE svg PUBLIC "-//W3C//DTD SVG 1.1 Tiny//EN" "http://www.w3.org/Graphics/SVG/1.1/DTD/svg11-tiny.dtd">
<svg version="1.1" baseProfile="tiny" id="Capa_1" xmlns="http://www.w3.org/2000/svg" xmlns:xlink="http://www.w3.org/1999/xlink"
	 x="0px" y="0px" width="100px" height="100px" viewBox="0 0 100 100" xml:space="preserve">
<g>
	<path d="M50,16.12c-18.72,0-33.88,15.17-33.88,33.88c0,18.72,15.17,33.88,33.88,33.88c18.72,0,33.88-15.17,33.88-33.88
		C83.88,31.28,68.72,16.12,50,16.12z M70.42,70.42c-5.24,5.23-12.44,8.46-20.42,8.46c-7.98,0-15.19-3.23-20.42-8.46
		c-5.23-5.24-8.46-12.44-8.46-20.42c0-7.98,3.23-15.19,8.46-20.42c5.23-5.23,12.44-8.46,20.42-8.46c7.98,0,15.19,3.23,20.42,8.46
		c5.23,5.23,8.46,12.44,8.46,20.42C78.88,57.98,75.66,65.19,70.42,70.42z"/>
	<path d="M60.58,26.21c-0.25,0-0.62,0.26-1.06,0.8l-14.8,18.12c-0.92,1.13-1.85,3.1-2.24,4.67l-0.04,0.05l0.03,0.01
		c-0.05,0.19-0.09,0.38-0.11,0.55l-3.43,21.88c-0.15,0.95,0.01,1.45,0.39,1.45c0.27,0,0.64-0.25,1.08-0.78l14-16.59
		c1.06-1.26,2.17-3.62,2.45-5.25l4.06-23.49C61.07,26.7,60.93,26.21,60.58,26.21z M41.54,68.51l2.62-16.74
		c0.38,1.73,1.53,3.28,3.26,4.07c0.79,0.36,1.62,0.53,2.43,0.53c0.81,0,1.61-0.17,2.34-0.49L41.54,68.51z M53.36,52.12
		c-0.61,1.33-1.88,2.13-3.24,2.22c-0.09,0.01-0.17,0.02-0.26,0.02c-0.01,0-0.03,0-0.04,0c-0.22,0-0.44-0.03-0.66-0.07
		c-0.04-0.01-0.08-0.01-0.12-0.01c-0.26-0.06-0.53-0.14-0.78-0.26c-0.51-0.23-0.94-0.57-1.28-0.96c-0.01-0.01-0.01-0.02-0.02-0.03
		c-0.16-0.19-0.31-0.39-0.43-0.61c-0.01-0.01-0.01-0.02-0.02-0.03c-0.12-0.21-0.22-0.44-0.29-0.67c0-0.01,0-0.01-0.01-0.02l0,0
		c-0.29-0.89-0.27-1.88,0.15-2.79c0.89-1.93,3.17-2.78,5.1-1.9C53.4,47.91,54.25,50.19,53.36,52.12z"/>
</g>
</svg>
