<?xml version="1.0" encoding="utf-8"?>
<!-- Generator: Adobe Illustrator 16.0.0, SVG Export Plug-In . SVG Version: 6.00 Build 0)  -->
<!DOCTYPE svg PUBLIC "-//W3C//DTD SVG 1.1 Tiny//EN" "http://www.w3.org/Graphics/SVG/1.1/DTD/svg11-tiny.dtd">
<svg version="1.1" baseProfile="tiny" id="Capa_1" xmlns="http://www.w3.org/2000/svg" xmlns:xlink="http://www.w3.org/1999/xlink"
	 x="0px" y="0px" width="100px" height="100px" viewBox="0 0 100 100" xml:space="preserve">
<circle cx="21" cy="21" r="17"/>
<g>
	<path fill="#FFFFFF" d="M28.35,17.18c0.78-0.78,0.78-2.05,0-2.83l-0.71-0.71c-0.78-0.78-2.05-0.78-2.83,0l-3.8,4.06l-3.83-4.06
		c-0.78-0.78-2.05-0.78-2.83,0l-0.71,0.71c-0.78,0.78-0.78,2.05,0,2.83l4.24,3.59l-4.24,4.04c-0.78,0.78-0.78,2.05,0,2.83l0.71,0.71
		c0.78,0.78,2.05,0.78,2.83,0l3.78-3.88l3.86,3.88c0.78,0.78,2.05,0.78,2.83,0l0.71-0.71c0.78-0.78,0.78-2.05,0-2.83l-4.15-3.76
		L28.35,17.18z"/>
</g>
</svg>
