<?xml version="1.0" encoding="utf-8"?>
<!-- Generator: Adobe Illustrator 16.0.0, SVG Export Plug-In . SVG Version: 6.00 Build 0)  -->
<!DOCTYPE svg PUBLIC "-//W3C//DTD SVG 1.1 Tiny//EN" "http://www.w3.org/Graphics/SVG/1.1/DTD/svg11-tiny.dtd">
<svg version="1.1" baseProfile="tiny" id="Capa_1" xmlns="http://www.w3.org/2000/svg" xmlns:xlink="http://www.w3.org/1999/xlink"
	 x="0px" y="0px" width="100px" height="100px" viewBox="0 0 100 100" xml:space="preserve">
<g>
	<path d="M46,26c0-1.1-0.9-2-2-2c-0.62,0-1.22-0.07-1.94-0.18c-1.08-0.17-2.44-0.47-4.33-0.71c-1.89-0.25-4.3-0.44-7.56-0.44
		c-4.64,0-8.65,1.39-11.55,3.78c-1.44,1.19-2.6,2.64-3.4,4.26C14.43,32.33,14,34.13,14,36c0,1.1,0.9,2,2,2s2-0.9,2-2
		c0-1.26,0.28-2.44,0.81-3.53c0.8-1.63,2.17-3.06,4.09-4.11c1.92-1.04,4.37-1.69,7.26-1.69c4.15,0,6.69,0.32,8.62,0.64
		c0.97,0.16,1.8,0.33,2.63,0.46C42.25,27.9,43.09,28,44,28C45.1,28,46,27.1,46,26z"/>
	<path d="M86.78,24.71c-1.19-2.44-3.2-4.47-5.77-5.86c-2.57-1.4-5.69-2.18-9.17-2.18c-4.2,0-7.06-0.17-9.02-0.55
		c-0.98-0.19-1.73-0.42-2.33-0.69c-0.6-0.27-1.07-0.57-1.51-0.95c-0.84-0.72-2.1-0.62-2.82,0.22s-0.62,2.1,0.22,2.82
		c0.72,0.62,1.55,1.15,2.49,1.57c1.42,0.63,3.07,1.01,5.15,1.25c2.08,0.24,4.6,0.33,7.83,0.33c3.86,0,6.93,1.15,9,2.86
		c1.04,0.86,1.82,1.85,2.36,2.94C83.72,27.56,84,28.74,84,30c0,1.1,0.9,2,2,2s2-0.9,2-2C88,28.13,87.57,26.33,86.78,24.71z"/>
	<circle cx="30.17" cy="33.17" r="2.83"/>
	<circle cx="69.83" cy="33.17" r="2.83"/>
	<path d="M53.45,58.35c-0.2,0.34-0.59,0.7-1.21,0.97c-0.62,0.27-1.43,0.43-2.24,0.43c-1.09,0.01-2.16-0.3-2.79-0.73
		c-0.32-0.21-0.53-0.44-0.67-0.67c-0.13-0.23-0.21-0.48-0.21-0.85h-4c0,1.04,0.27,2.04,0.76,2.87c0.73,1.25,1.87,2.09,3.07,2.62
		c1.21,0.53,2.53,0.76,3.84,0.76c1.75-0.01,3.51-0.41,5-1.4c0.74-0.49,1.42-1.15,1.9-1.98c0.49-0.83,0.76-1.83,0.76-2.87h-4
		C53.66,57.88,53.58,58.12,53.45,58.35z"/>
	<path d="M50,72c-3.31,0-6,2.69-6,6c0,3.31,2.69,6,6,6c3.31,0,6-2.69,6-6C56,74.69,53.31,72,50,72z M51.41,79.41
		C51.05,79.78,50.56,80,50,80c-0.56,0-1.05-0.22-1.41-0.59C48.22,79.05,48,78.56,48,78c0-0.56,0.22-1.05,0.59-1.41
		C48.95,76.22,49.44,76,50,76c0.56,0,1.05,0.22,1.41,0.59C51.78,76.95,52,77.44,52,78C52,78.56,51.78,79.05,51.41,79.41z"/>
</g>
</svg>
