<?xml version="1.0" encoding="utf-8"?>
<!-- Generator: Adobe Illustrator 16.0.0, SVG Export Plug-In . SVG Version: 6.00 Build 0)  -->
<!DOCTYPE svg PUBLIC "-//W3C//DTD SVG 1.1 Tiny//EN" "http://www.w3.org/Graphics/SVG/1.1/DTD/svg11-tiny.dtd">
<svg version="1.1" baseProfile="tiny" id="Capa_1" xmlns="http://www.w3.org/2000/svg" xmlns:xlink="http://www.w3.org/1999/xlink"
	 x="0px" y="0px" width="100px" height="100px" viewBox="0 0 100 100" xml:space="preserve">
<g>
	<path d="M5,40h32c1.65,0,3-1.35,3-3V5c0-1.65-1.35-3-3-3H5C3.35,2,2,3.35,2,5v32C2,38.65,3.35,40,5,40z M6,6h30v30H6V6z"/>
	<path d="M95,2H45c-1.65,0-3,1.35-3,3v34c0,1.65-1.35,3-3,3H5c-1.65,0-3,1.35-3,3v50c0,1.65,1.35,3,3,3h90c1.65,0,3-1.35,3-3V5
		C98,3.35,96.65,2,95,2z M94,94H6V46h33c3.86,0,7-3.14,7-7V6h48V94z"/>
</g>
</svg>
