<?xml version="1.0" encoding="utf-8"?>
<!-- Generator: Adobe Illustrator 16.0.0, SVG Export Plug-In . SVG Version: 6.00 Build 0)  -->
<!DOCTYPE svg PUBLIC "-//W3C//DTD SVG 1.1//EN" "http://www.w3.org/Graphics/SVG/1.1/DTD/svg11.dtd">
<svg version="1.1" id="Capa_1" xmlns="http://www.w3.org/2000/svg" xmlns:xlink="http://www.w3.org/1999/xlink" x="0px" y="0px"
	 width="100px" height="100px" viewBox="0 0 100 100" enable-background="new 0 0 100 100" xml:space="preserve">
<path d="M75.22,10.84c-0.85-1.36-2.15-2.37-3.73-3.24c-2.38-1.3-5.5-2.3-9.16-3C58.66,3.89,54.47,3.5,50,3.5
	c-6.81,0-12.98,0.91-17.6,2.45c-2.32,0.78-4.26,1.7-5.75,2.87c-0.74,0.59-1.38,1.25-1.86,2.03C24.3,11.62,24,12.54,24,13.5v54
	c0,0.96,0.3,1.88,0.78,2.66c0.85,1.36,2.15,2.37,3.73,3.24c2.38,1.3,5.5,2.3,9.16,3c3.12,0.6,6.64,0.96,10.37,1.05v9.29
	c-0.94-1.04-0.75-0.95-1.57-1.86c-1.78-1.96-5.08,0-5.08,0L50,94.5l8.61-9.62c0,0-3.3-1.96-5.09,0c-0.83,0.91-0.63,0.82-1.57,1.86
	v-9.28c6.03-0.16,11.47-1.02,15.65-2.41c2.32-0.78,4.26-1.7,5.75-2.87c0.74-0.59,1.38-1.25,1.86-2.03C75.7,69.38,76,68.46,76,67.5
	v-54C76,12.54,75.7,11.62,75.22,10.84z M28.19,12.93c0.27-0.46,1.02-1.17,2.24-1.83c1.83-1.01,4.62-1.94,7.99-2.58
	C41.81,7.88,45.77,7.5,50,7.5c6.44,0,12.28,0.88,16.34,2.24c2.03,0.67,3.6,1.47,4.54,2.22c0.47,0.37,0.77,0.71,0.93,0.98
	C71.97,13.2,72,13.36,72,13.5c0,0.14-0.03,0.3-0.19,0.57c-0.27,0.46-1.02,1.17-2.24,1.83c-1.83,1.01-4.62,1.94-7.99,2.58
	C58.19,19.12,54.23,19.5,50,19.5c-6.44,0-12.28-0.88-16.34-2.24c-2.03-0.67-3.6-1.47-4.54-2.22c-0.47-0.37-0.77-0.71-0.93-0.98
	C28.03,13.8,28,13.64,28,13.5C28,13.36,28.03,13.2,28.19,12.93z M71.81,68.07c-0.27,0.46-1.02,1.17-2.24,1.83
	c-1.83,1.01-4.62,1.94-7.99,2.58c-2.85,0.55-6.12,0.88-9.61,0.98V57.97h-3.91v15.5c-5.66-0.16-10.74-0.99-14.38-2.21
	c-2.03-0.67-3.6-1.47-4.54-2.22c-0.47-0.37-0.77-0.71-0.93-0.98C28.03,67.8,28,67.64,28,67.5V19.09c0.17,0.1,0.33,0.21,0.51,0.31
	c2.38,1.3,5.5,2.3,9.16,3c3.66,0.7,7.85,1.1,12.32,1.1c6.81,0,12.98-0.91,17.6-2.45c1.67-0.56,3.14-1.2,4.4-1.95v48.4
	C72,67.64,71.97,67.8,71.81,68.07z"/>
</svg>
