<?xml version="1.0" encoding="utf-8"?>
<!-- Generator: Adobe Illustrator 16.0.0, SVG Export Plug-In . SVG Version: 6.00 Build 0)  -->
<!DOCTYPE svg PUBLIC "-//W3C//DTD SVG 1.1 Tiny//EN" "http://www.w3.org/Graphics/SVG/1.1/DTD/svg11-tiny.dtd">
<svg version="1.1" baseProfile="tiny" id="Capa_1" xmlns="http://www.w3.org/2000/svg" xmlns:xlink="http://www.w3.org/1999/xlink"
	 x="0px" y="0px" width="100px" height="100px" viewBox="0 0 100 100" xml:space="preserve">
<path d="M40,10l-2.45-1.62c-0.9-0.64-2.15-0.43-2.79,0.46l-1.68,2.19c-0.62-0.33-1.33-0.53-2.08-0.54H17
	c-2.49,0.01-4.49,2.01-4.5,4.5v14c0.01,2.49,2.01,4.49,4.5,4.5h14c2.49-0.01,4.49-2.01,4.5-4.5V16.04L40,10z M32.5,29
	c0,0.41-0.17,0.78-0.44,1.06c-0.28,0.28-0.65,0.44-1.06,0.44H17c-0.41,0-0.78-0.17-1.06-0.44c-0.28-0.28-0.44-0.65-0.44-1.06V15
	c0-0.41,0.17-0.78,0.44-1.06c0.28-0.28,0.65-0.44,1.06-0.44h14c0.06,0,0.12,0.01,0.18,0.02l-5.75,7.51l-4.38-3.17
	c-0.88-0.66-2.14-0.48-2.8,0.4l-1.77,2.34L24.9,27c0.88,0.66,2.12,0.47,2.76-0.43l4.84-6.5V29z"/>
</svg>
