<?xml version="1.0" encoding="utf-8"?>
<!-- Generator: Adobe Illustrator 16.0.0, SVG Export Plug-In . SVG Version: 6.00 Build 0)  -->
<!DOCTYPE svg PUBLIC "-//W3C//DTD SVG 1.1//EN" "http://www.w3.org/Graphics/SVG/1.1/DTD/svg11.dtd">
<svg version="1.1" id="Capa_1" xmlns="http://www.w3.org/2000/svg" xmlns:xlink="http://www.w3.org/1999/xlink" x="0px" y="0px"
	 width="100px" height="100px" viewBox="0 0 100 100" enable-background="new 0 0 100 100" xml:space="preserve">
<path d="M85.85,32.6c-3.03-5.61-8.02-10.29-14.23-13.58c-6.21-3.29-13.64-5.18-21.62-5.19c-10.64,0-20.31,3.37-27.4,8.92
	c-3.54,2.78-6.44,6.1-8.46,9.84C12.13,36.33,11,40.49,11,44.84c0,6.18,2.28,11.93,6.13,16.71c3.65,4.53,8.7,8.19,14.63,10.68
	c0.2,1.01,0.29,1.94,0.29,2.81c0,2.51-0.7,4.47-1.4,5.81c-0.35,0.67-0.69,1.17-0.94,1.5c-0.12,0.16-0.22,0.28-0.29,0.35l-0.06,0.07
	l0,0l-3.22,3.3l4.62,0.09h0.1c0.63-0.01,3.75-0.06,7.25-1.58c1.75-0.76,3.59-1.91,5.18-3.63c1.28-1.38,2.38-3.13,3.13-5.27
	c1.18,0.09,2.37,0.15,3.58,0.15c10.64,0,20.31-3.37,27.4-8.92c3.54-2.78,6.44-6.1,8.46-9.84C87.87,53.34,89,49.19,89,44.84
	C89,40.49,87.87,36.33,85.85,32.6z M30.25,22.56c5.6-2.97,12.41-4.72,19.75-4.72c9.79,0,18.62,3.12,24.93,8.07
	c3.15,2.47,5.68,5.39,7.4,8.59c1.65,3.06,2.57,6.36,2.65,9.84h-9.63l-4.88-2.44L69,44.15l-2.44-3.73l-1.83,5.5l-4.33-8.67
	l-1.64,8.22L54.4,30.29l-2.19,18.06l-5.46-27.41l-4.08,28.54l-4-18l-1.92,13.48L35.36,38l-2.64,7.92l-0.38-0.76l-0.93-1.86L29,45.71
	l-1.38-1.38h-12.6c0.08-3.47,1-6.78,2.65-9.84C20.26,29.7,24.64,25.52,30.25,22.56z M69.75,67.12c-5.6,2.97-12.41,4.72-19.75,4.72
	c-1.63,0-3.23-0.09-4.81-0.26l-1.74-0.19l-0.42,1.7c-0.57,2.28-1.53,3.91-2.68,5.15c-1.66,1.79-3.77,2.79-5.63,3.32
	c0.72-1.69,1.32-3.88,1.32-6.52c0-1.47-0.19-3.06-0.63-4.76l-0.26-0.99l-0.95-0.37c-5.78-2.26-10.61-5.72-13.97-9.89
	c-2.81-3.49-4.57-7.46-5.08-11.7h11.21L29,49.96l1.59-1.59l2.69,5.38l1.36-4.08l2.61,13.05l2.08-14.52l4,18l3.92-27.46l5.7,28.59
	l2.66-21.94l3.66,12.81l2.36-11.78l3.66,7.33l2.17-6.5l0.3,0.46L69,49.63l2.52-3.85l3.12,1.56h10.2c-0.33,2.75-1.18,5.37-2.51,7.84
	C79.74,59.97,75.36,64.15,69.75,67.12z"/>
</svg>
