<?xml version="1.0" encoding="utf-8"?>
<!-- Generator: Adobe Illustrator 16.0.0, SVG Export Plug-In . SVG Version: 6.00 Build 0)  -->
<!DOCTYPE svg PUBLIC "-//W3C//DTD SVG 1.1 Tiny//EN" "http://www.w3.org/Graphics/SVG/1.1/DTD/svg11-tiny.dtd">
<svg version="1.1" baseProfile="tiny" id="Capa_1" xmlns="http://www.w3.org/2000/svg" xmlns:xlink="http://www.w3.org/1999/xlink"
	 x="0px" y="0px" width="100px" height="100px" viewBox="0 0 100 100" xml:space="preserve">
<g>
	<path d="M22,12c0,1.1,0.9,2,2,2s2-0.9,2-2v-2c0-1.1-0.9-2-2-2s-2,0.9-2,2V12z"/>
	<path d="M22,34c0,1.1,0.9,2,2,2s2-0.9,2-2v-2c0-1.1-0.9-2-2-2s-2,0.9-2,2V34z"/>
	<path d="M18.34,16.34c0.78-0.78,0.78-2.05,0-2.83l-1.41-1.41c-0.78-0.78-2.05-0.78-2.83,0s-0.78,2.05,0,2.83l1.41,1.41
		C16.29,17.12,17.57,17.12,18.34,16.34z"/>
	<path d="M29.66,27.66c-0.78,0.78-0.78,2.05,0,2.83l1.41,1.41c0.78,0.78,2.05,0.78,2.83,0s0.78-2.05,0-2.83l-1.41-1.41
		C31.71,26.88,30.43,26.88,29.66,27.66z"/>
	<path d="M16,22c0-1.1-0.9-2-2-2h-2c-1.1,0-2,0.9-2,2s0.9,2,2,2h2C15.1,24,16,23.1,16,22z"/>
	<path d="M34,20c-1.1,0-2,0.9-2,2s0.9,2,2,2l2,0c1.1,0,2-0.9,2-2s-0.9-2-2-2L34,20z"/>
	<path d="M14.1,29.07c-0.78,0.78-0.78,2.05,0,2.83s2.05,0.78,2.83,0l1.41-1.41c0.78-0.78,0.78-2.05,0-2.83s-2.05-0.78-2.83,0
		L14.1,29.07z"/>
	<path d="M33.9,14.93c0.78-0.78,0.78-2.05,0-2.83c-0.78-0.78-2.05-0.78-2.83,0l-1.41,1.41c-0.78,0.78-0.78,2.05,0,2.83
		s2.05,0.78,2.83,0L33.9,14.93z"/>
</g>
</svg>
