<?xml version="1.0" encoding="utf-8"?>
<!-- Generator: Adobe Illustrator 16.0.0, SVG Export Plug-In . SVG Version: 6.00 Build 0)  -->
<!DOCTYPE svg PUBLIC "-//W3C//DTD SVG 1.1 Tiny//EN" "http://www.w3.org/Graphics/SVG/1.1/DTD/svg11-tiny.dtd">
<svg version="1.1" baseProfile="tiny" id="Capa_1" xmlns="http://www.w3.org/2000/svg" xmlns:xlink="http://www.w3.org/1999/xlink"
	 x="0px" y="0px" width="100px" height="100px" viewBox="0 0 100 100" xml:space="preserve">
<g>
	<path d="M23,6.5C14.99,6.5,8.5,12.99,8.5,21c0,8.01,6.49,14.5,14.5,14.5c8.01,0,14.5-6.49,14.5-14.5C37.5,12.99,31.01,6.5,23,6.5z
		 M31.13,29.13c-2.09,2.08-4.95,3.37-8.13,3.37c-3.18,0-6.05-1.29-8.13-3.37c-2.08-2.09-3.37-4.95-3.37-8.13
		c0-3.18,1.29-6.05,3.37-8.13C16.95,10.79,19.82,9.5,23,9.5c3.18,0,6.05,1.29,8.13,3.37c2.08,2.09,3.37,4.95,3.37,8.13
		C34.5,24.18,33.21,27.05,31.13,29.13z"/>
	<circle cx="23" cy="21" r="7"/>
</g>
</svg>
