<?xml version="1.0" encoding="utf-8"?>
<!-- Generator: Adobe Illustrator 16.0.0, SVG Export Plug-In . SVG Version: 6.00 Build 0)  -->
<!DOCTYPE svg PUBLIC "-//W3C//DTD SVG 1.1 Tiny//EN" "http://www.w3.org/Graphics/SVG/1.1/DTD/svg11-tiny.dtd">
<svg version="1.1" baseProfile="tiny" id="Capa_1" xmlns="http://www.w3.org/2000/svg" xmlns:xlink="http://www.w3.org/1999/xlink"
	 x="0px" y="0px" width="100px" height="100px" viewBox="0 0 100 100" xml:space="preserve">
<path d="M32.62,14.39c0,0-1.5,2.54,0,3.9c0.7,0.64,0.63,0.48,1.43,1.21H24.5V9.95c0.72,0.8,0.57,0.73,1.21,1.43
	c1.37,1.51,3.9,0,3.9,0L23,4l-6.61,7.38c0,0,2.54,1.51,3.9,0c0.64-0.7,0.48-0.63,1.21-1.43v9.55h-9.55c0.8-0.72,0.73-0.57,1.43-1.21
	c1.5-1.37,0-3.9,0-3.9L6,21l7.38,6.61c0,0,1.5-2.54,0-3.9c-0.7-0.64-0.63-0.48-1.43-1.21h9.55v9.55c-0.72-0.8-0.57-0.73-1.21-1.43
	c-1.37-1.51-3.9,0-3.9,0L23,38l6.61-7.38c0,0-2.54-1.51-3.9,0c-0.64,0.7-0.48,0.63-1.21,1.43V22.5h9.55
	c-0.8,0.72-0.73,0.57-1.43,1.21c-1.5,1.37,0,3.9,0,3.9L40,21L32.62,14.39z"/>
</svg>
