<?xml version="1.0" encoding="utf-8"?>
<!-- Generator: Adobe Illustrator 16.0.0, SVG Export Plug-In . SVG Version: 6.00 Build 0)  -->
<!DOCTYPE svg PUBLIC "-//W3C//DTD SVG 1.1 Tiny//EN" "http://www.w3.org/Graphics/SVG/1.1/DTD/svg11-tiny.dtd">
<svg version="1.1" baseProfile="tiny" id="Capa_1" xmlns="http://www.w3.org/2000/svg" xmlns:xlink="http://www.w3.org/1999/xlink"
	 x="0px" y="0px" width="100px" height="100px" viewBox="0 0 100 100" xml:space="preserve">
<path d="M32.07,5.86c0,0-2.42,1.69-1.61,3.56c0.25,0.57,0.33,0.7,0.48,0.99c-1.75-0.71-3.6-1.08-5.44-1.07
	c-3.97,0-7.94,1.64-10.79,4.84l0,0c-2.44,2.75-3.64,6.18-3.64,9.58c0,3.33,1.15,6.65,3.4,9.32c0.71,0.84,1.98,0.95,2.82,0.24
	c0.84-0.71,0.95-1.98,0.24-2.82c-1.63-1.92-2.46-4.32-2.46-6.74c0-2.47,0.86-4.93,2.63-6.93l0,0c2.07-2.32,4.92-3.5,7.8-3.5
	c1.27,0,2.53,0.26,3.73,0.72c-0.26,0.07-0.49,0.14-1,0.3c-1.94,0.62-1.61,3.56-1.61,3.56l9.45-2.98L32.07,5.86z"/>
</svg>
