<?xml version="1.0" encoding="utf-8"?>
<!-- Generator: Adobe Illustrator 16.0.0, SVG Export Plug-In . SVG Version: 6.00 Build 0)  -->
<!DOCTYPE svg PUBLIC "-//W3C//DTD SVG 1.1 Tiny//EN" "http://www.w3.org/Graphics/SVG/1.1/DTD/svg11-tiny.dtd">
<svg version="1.1" baseProfile="tiny" id="Capa_1" xmlns="http://www.w3.org/2000/svg" xmlns:xlink="http://www.w3.org/1999/xlink"
	 x="0px" y="0px" width="100px" height="100px" viewBox="0 0 100 100" xml:space="preserve">
<path d="M92,53.91c0-0.04,0-0.08-0.02-0.18c-0.03-0.91-0.23-1.77-0.6-2.53c-0.6-1.25-1.61-2.17-2.72-2.73
	c-1.11-0.57-2.32-0.82-3.53-0.82c-1.14,0-2.28,0.24-3.34,0.72c-0.1-0.42-0.24-0.83-0.43-1.2c-0.61-1.27-1.63-2.2-2.75-2.78
	c-1.12-0.58-2.36-0.85-3.58-0.85c-1.11,0-2.23,0.24-3.27,0.71c-0.1-0.38-0.23-0.76-0.4-1.1c-0.62-1.27-1.64-2.21-2.76-2.8
	c-1.13-0.59-2.37-0.86-3.61-0.86c-1.02,0-2.04,0.19-3,0.58c0-9.01,0-20.69,0-23.08c0-1.03-0.22-2-0.63-2.84
	c-0.62-1.27-1.64-2.21-2.76-2.8c-1.13-0.59-2.37-0.86-3.61-0.86c-1.64,0-3.32,0.48-4.69,1.56c-0.68,0.54-1.27,1.25-1.68,2.09
	C48.22,15,48,15.97,48,17c0,2.2,0,19.22,0,33h-7.3l-8.92,20.07L44.79,95H46c0,0,1.88,0,4.75,0C59.38,95,77,95,80,95
	c1.17,0,2.24-0.15,3.21-0.51c0.73-0.27,1.4-0.66,1.96-1.16c0.85-0.75,1.44-1.69,1.86-2.68c0.42-1,0.7-2.08,0.93-3.26v0
	c0.33-1.65,0.73-4.16,1.16-7.12c0.64-4.43,1.33-9.85,1.88-14.67c0.27-2.41,0.51-4.67,0.69-6.59c0.17-1.92,0.29-3.49,0.31-4.58v0
	c0-0.17,0.01-0.28,0.01-0.36L92,53.91z M88,54.06c0,0.1,0,0.19,0,0.28v0c-0.11,5.32-0.93,10.69-1.59,15.97
	c-0.67,5.44-1.3,10.92-2.37,16.3v0c-0.22,1.11-0.47,2.36-1.14,3.3C82.22,90.84,81.08,91,80,91c-0.86,0-1.71,0-2.57,0
	c-3.25,0-6.5,0-9.74,0c-6.73,0-13.45,0-20.18,0c-0.1,0-0.2,0-0.3,0L36.22,69.93L43.3,54H48c0,5.33,0,10.67,0,16h4
	c0-9.21,0-18.43,0-27.64c0-6.25,0-12.5,0-18.75c0-1.86,0-3.71,0-5.57c0-0.79-0.09-1.68,0.37-2.37C53.75,13.6,57.99,14.29,58,17
	c0,11.33,0,22.67,0,34h4c0-1.54,0-3.08,0-4.61c0-1.18,0.33-2.12,1.5-2.6c1.09-0.45,2.49-0.4,3.48,0.25c1.1,0.71,1.02,1.88,1.02,3.04
	c0,0.99,0,1.99,0,2.98c0,1.09,0,2.17,0,3.26h4c0-0.52,0-1.05,0-1.58c0-1.06-0.24-2.39,0.53-3.25c1.33-1.47,4.91-1.34,5.4,0.89
	C78.17,50.45,78,51.7,78,52.78c0,0.87,0,1.73,0,2.6h4c0-1.34-0.12-2.6,1.29-3.31C85.01,51.2,87.99,51.63,88,54 M88.01,54.12"/>
</svg>
