<?xml version="1.0" encoding="utf-8"?>
<!-- Generator: Adobe Illustrator 16.0.0, SVG Export Plug-In . SVG Version: 6.00 Build 0)  -->
<!DOCTYPE svg PUBLIC "-//W3C//DTD SVG 1.1//EN" "http://www.w3.org/Graphics/SVG/1.1/DTD/svg11.dtd">
<svg version="1.1" id="Capa_1" xmlns="http://www.w3.org/2000/svg" xmlns:xlink="http://www.w3.org/1999/xlink" x="0px" y="0px"
	 width="100px" height="100px" viewBox="0 0 100 100" enable-background="new 0 0 100 100" xml:space="preserve">
<g>
	<path d="M30.21,33.27l3.84-1.12c-0.28-0.95-0.56-1.92-0.84-2.89l-3.84,1.12C29.65,31.35,29.93,32.32,30.21,33.27z"/>
	<path d="M27.95,25.58c0.26,0.87,0.55,1.85,0.85,2.88l3.84-1.13c-0.3-1.03-0.59-2.02-0.85-2.89L27.95,25.58z"/>
	<path d="M27.1,22.74c0.08,0.25,0.17,0.56,0.28,0.93l3.83-1.15c-0.11-0.37-0.21-0.69-0.29-0.96h0c-0.08-0.27-0.11-0.49-0.11-0.68
		c0-0.12,0.01-0.22,0.03-0.32l-3.92-0.8c-0.07,0.36-0.11,0.74-0.11,1.12C26.81,21.49,26.91,22.12,27.1,22.74L27.1,22.74z"/>
	<path d="M32.93,18.79l-1.19-3.82c-1.27,0.4-2.48,1.07-3.42,2.09l2.95,2.7C31.61,19.39,32.2,19.01,32.93,18.79z"/>
	<rect x="40.67" y="27.49" transform="matrix(-0.9537 0.3009 -0.3009 -0.9537 92.0818 43.7893)" width="4" height="3"/>
	<path d="M34.61,18.54c0.67,0,1.32,0.13,1.83,0.35l1.59-3.67c-1.1-0.47-2.27-0.68-3.42-0.68c-0.13,0-0.26,0-0.39,0.01l0.16,4
		L34.61,18.54z"/>
	<rect x="39.16" y="22.72" transform="matrix(-0.9537 0.3009 -0.3009 -0.9537 87.708 34.9263)" width="4" height="3"/>
	<path d="M37.8,20.2l0.4,1.28l3.81-1.2l-0.44-1.38l-0.05-0.13c-0.29-0.73-0.7-1.38-1.2-1.92l-2.95,2.7
		C37.56,19.73,37.69,19.94,37.8,20.2z"/>
	<polygon points="46.98,16.4 50.98,16.33 50.93,13.45 50.93,13.45 50.93,13.44 50.93,13.43 50.93,13.44 49.98,13.45 46.93,13.45 
		46.93,13.46 46.93,13.49 46.93,13.51 	"/>
	<rect x="47.59" y="17.76" transform="matrix(-0.0193 -0.9998 0.9998 -0.0193 30.2341 69.1859)" width="2.91" height="4"/>
	<path d="M58.56,16.6l4-0.02c-0.01-1.4-0.02-2.43-0.05-3.01l-3.99,0.22C58.54,14.18,58.56,15.24,58.56,16.6z"/>
	<path d="M58.53,26.3l4,0.03c0.01-0.96,0.01-1.94,0.02-2.92l-4-0.02C58.55,24.36,58.54,25.34,58.53,26.3z"/>
	<path d="M58.25,12.75l3.54-1.86c-0.67-1.27-1.71-2.2-2.86-2.83L57,11.56C57.59,11.89,58.01,12.3,58.25,12.75z"/>
	<path d="M62.57,18.54l-4,0c0,0.91,0,1.89-0.01,2.91l4,0.02C62.56,20.44,62.57,19.45,62.57,18.54z"/>
	<path d="M54.41,10.94c0.44,0,0.88,0.05,1.3,0.14l0.88-3.9c-0.72-0.16-1.45-0.24-2.18-0.24c-0.49,0-0.97,0.04-1.46,0.11l0.6,3.95
		C53.83,10.96,54.12,10.94,54.41,10.94z"/>
	<path d="M52.28,11.39l-1.75-3.6c-1.21,0.59-2.33,1.55-2.98,2.91l3.6,1.75C51.34,12.02,51.7,11.67,52.28,11.39z"/>
	<rect x="47.69" y="22.62" transform="matrix(0.0193 0.9998 -0.9998 0.0193 72.8133 -24.9877)" width="2.91" height="4"/>
	<path d="M76.27,20.47l3.81-1.21c-0.46-1.45-1.41-2.6-2.54-3.38l-2.29,3.28C75.77,19.51,76.11,19.95,76.27,20.47z"/>
	<polygon points="66.43,19.38 66.43,19.38 66.43,19.38 	"/>
	<rect x="65.28" y="21.95" transform="matrix(0.9566 0.2913 -0.2913 0.9566 9.7491 -18.5819)" width="4" height="3"/>
	<path d="M73.09,18.49c0.33,0,0.67,0.04,1,0.13l1.01-3.87c-0.65-0.17-1.33-0.26-2.01-0.26c-0.67,0-1.34,0.08-2,0.27l1.07,3.85
		C72.45,18.53,72.76,18.49,73.09,18.49z"/>
	<rect x="63.83" y="26.74" transform="matrix(0.9566 0.2913 -0.2913 0.9566 11.0775 -17.9484)" width="4" height="3"/>
	<rect x="75.14" y="26.11" transform="matrix(-0.2629 0.9648 -0.9648 -0.2629 123.9069 -38.4469)" width="3" height="4"/>
	<polygon points="76.42,21.32 75.63,24.21 79.49,25.26 80.28,22.37 80.33,22.08 80.33,22.08 78.32,21.83 	"/>
	<path d="M70.22,20.69l0.04-0.15l0-0.01c0.21-0.68,0.51-1.09,0.88-1.4l-2.56-3.08c-0.97,0.81-1.74,1.95-2.15,3.32l-0.04,0.14
		L70.22,20.69z"/>
	<rect x="73.33" y="31.43" transform="matrix(-0.9648 -0.2628 0.2628 -0.9648 139.3482 84.5069)" width="4" height="3"/>
	<polygon points="81.56,30.45 79.94,32.45 83.04,34.97 84.7,32.93 84.83,32.75 84.91,32.64 81.72,30.22 	"/>
	<path d="M86.09,32.1c0.28,0,0.62,0.06,0.95,0.18l1.37-3.76c-0.74-0.27-1.52-0.42-2.32-0.42c-0.62,0-1.26,0.09-1.88,0.31l1.31,3.78
		C85.68,32.14,85.87,32.1,86.09,32.1z"/>
	<path d="M89.02,34.26l3.89-0.95c-0.35-1.43-1.19-2.61-2.21-3.47l-2.58,3.06C88.59,33.31,88.91,33.8,89.02,34.26z"/>
	<path d="M88.64,36.06l-0.73,0.98l3.21,2.39l0.8-1.08l0.09-0.13c0.41-0.65,0.7-1.33,0.88-2.01l-3.88-0.98
		C88.95,35.47,88.83,35.74,88.64,36.06z"/>
	<rect x="77.34" y="34.9" transform="matrix(0.7759 0.6309 -0.6309 0.7759 40.7166 -41.9061)" width="4" height="2.92"/>
	<rect x="85.48" y="39.51" transform="matrix(-0.8024 -0.5968 0.5968 -0.8024 133.2312 126.0413)" width="4" height="2.92"/>
	<path d="M15.03,48c0.11,0,0.22,0,0.33,0.01l0.21-3.99C15.39,44.01,15.21,44,15.03,44c-1.27,0-2.41,0.24-3.38,0.58l1.32,3.77
		C13.58,48.15,14.26,48,15.03,48z"/>
	<path d="M21.54,46.1c-1.15-0.75-2.29-1.28-3.39-1.62l-1.17,3.82c0.72,0.22,1.5,0.58,2.37,1.14L21.54,46.1z"/>
	<path d="M22.88,52.65l3.03-2.62c-0.82-0.95-1.64-1.77-2.46-2.48l-2.62,3.02C21.48,51.14,22.17,51.83,22.88,52.65z"/>
	<path d="M9.29,45.75c-0.92,0.61-1.44,1.14-1.52,1.22l-1.09,1.14l1.67,2.58c0,0,2.62-1.27,3.13-1.6L9.29,45.75z"/>
	<rect x="12.66" y="55.29" transform="matrix(0.8402 -0.5422 0.5422 0.8402 -28.4531 17.0216)" width="4" height="3.01"/>
	<rect x="9.93" y="51.06" transform="matrix(0.8403 -0.5422 0.5422 0.8403 -26.5975 14.8681)" width="4" height="3.01"/>
	<path d="M82.94,44.41c-0.6-1.25-1.56-2.21-2.66-2.86c-1.1-0.65-2.34-1.02-3.62-1.02c-0.99,0-2.02,0.25-2.94,0.78l-0.03-0.01
		c0-0.05,0.01-0.11,0.01-0.16c0-1.07-0.21-2.07-0.61-2.96c-0.59-1.33-1.58-2.35-2.71-3.01c-1.13-0.66-2.4-0.99-3.67-1
		c-1.41,0-2.84,0.41-4.04,1.33c-0.18,0.14-0.35,0.29-0.51,0.45c-0.08-0.88-0.32-1.7-0.69-2.42c-0.68-1.32-1.77-2.28-2.96-2.89
		c-1.2-0.61-2.52-0.89-3.84-0.9c-1.74,0-3.51,0.5-4.96,1.64c-0.72,0.57-1.34,1.31-1.77,2.2c-0.43,0.87-0.65,1.87-0.66,2.93
		c-0.06-0.18-0.12-0.34-0.17-0.49l0,0c-0.49-1.43-1.45-2.56-2.61-3.24c-1.15-0.69-2.44-0.96-3.7-0.96c-2.01,0.01-4,0.67-5.63,1.86
		c-0.81,0.6-1.53,1.34-2.07,2.25c-0.53,0.9-0.87,1.97-0.87,3.12c0,0.62,0.1,1.25,0.29,1.87v0c0.6,1.93,2.08,6.59,3.42,11.26
		c0.67,2.33,1.3,4.67,1.76,6.64c0.23,0.98,0.42,1.88,0.54,2.62c0.1,0.59,0.16,1.09,0.18,1.43c-0.08,0.08-0.25,0.2-0.49,0.29
		c-0.29,0.11-0.65,0.19-1.01,0.19c-0.33,0-0.66-0.06-0.97-0.19c-0.31-0.13-0.6-0.32-0.88-0.63l0,0c-0.35-0.39-0.57-0.63-0.73-0.81
		c-0.25-0.27-0.37-0.41-0.72-0.85c-0.35-0.43-0.92-1.14-1.97-2.45c-0.69-0.87-1.58-1.5-2.52-1.87c-0.73-0.29-1.48-0.44-2.21-0.49
		l2.32-1.46c-0.64-1.01-1.27-1.94-1.9-2.78l-3.2,2.4c0.42,0.56,0.85,1.19,1.29,1.86c-0.95,0.08-1.88,0.28-2.75,0.54
		c-1.71,0.5-3.25,1.22-4.39,1.82c-1.14,0.6-1.86,1.08-1.9,1.1l-0.59,2.74l18.95,29.87l1.69,0.93c0,0,1.88,0,4.75,0
		c8.62,0,26.25,0,29.25,0c1.17,0,2.24-0.15,3.21-0.51c0.73-0.27,1.4-0.66,1.96-1.16c0.85-0.75,1.44-1.69,1.86-2.68
		c0.42-1,0.7-2.08,0.93-3.26c0.33-1.65,0.73-4.16,1.16-7.12c0.64-4.43,1.33-9.85,1.88-14.67c0.27-2.41,0.51-4.67,0.69-6.59
		c0.17-1.87,0.28-3.4,0.31-4.49c0.01-0.07,0.07-0.36,0.15-0.68c0.13-0.53,0.3-1.19,0.44-1.72c0.07-0.26,0.13-0.49,0.18-0.66
		s0.07-0.26,0.07-0.26l0,0c0.21-0.7,0.32-1.39,0.32-2.07C83.57,46.19,83.34,45.24,82.94,44.41z M71.08,44.71l0-0.01L71.08,44.71
		C71.08,44.71,71.08,44.71,71.08,44.71z M79.42,48.14l-0.01,0.05c0,0.01-0.23,0.82-0.46,1.7c-0.12,0.44-0.23,0.91-0.33,1.31
		c-0.05,0.2-0.09,0.39-0.12,0.57c-0.02,0.09-0.03,0.18-0.05,0.27c-0.01,0.1-0.03,0.19-0.03,0.36v0c-0.03,1.21-0.21,3.51-0.49,6.29
		c-0.42,4.19-1.06,9.53-1.71,14.41c-0.65,4.87-1.31,9.3-1.77,11.57c-0.18,0.92-0.38,1.68-0.61,2.27c-0.17,0.44-0.35,0.78-0.53,1.03
		c-0.28,0.38-0.53,0.58-0.94,0.77c-0.41,0.18-1.03,0.32-1.96,0.32c-3.54,0-27.49,0-32.9,0L20.28,61.89c0.31-0.16,0.65-0.33,1.02-0.5
		c0.78-0.36,1.66-0.71,2.53-0.96c0.87-0.25,1.73-0.4,2.45-0.4c0.54,0,1,0.08,1.35,0.22c0.35,0.15,0.62,0.33,0.88,0.66
		c1.4,1.75,1.93,2.41,2.31,2.88c0.19,0.23,0.35,0.41,0.53,0.61c0.18,0.2,0.39,0.43,0.73,0.8l0,0c0.68,0.75,1.48,1.31,2.32,1.65
		c0.83,0.35,1.69,0.5,2.51,0.5c1.32-0.01,2.53-0.37,3.54-1.01c0.5-0.33,0.96-0.74,1.33-1.27c0.36-0.53,0.64-1.21,0.64-1.98v-0.02
		v-0.01c-0.01-0.69-0.1-1.43-0.25-2.29c-0.51-2.98-1.71-7.34-2.92-11.45c-1.21-4.1-2.42-7.91-2.93-9.57v0
		c-0.08-0.26-0.11-0.48-0.11-0.69c0-0.38,0.1-0.72,0.31-1.08c0.31-0.54,0.94-1.11,1.73-1.51c0.79-0.4,1.72-0.63,2.53-0.63
		c0.68,0,1.25,0.15,1.64,0.39c0.4,0.25,0.67,0.54,0.88,1.12l0,0c1.13,3.25,4.72,13.13,4.72,13.14l3.88-0.68
		c0-0.64-0.03-1.54-0.08-2.61c-0.15-3.19-0.46-7.89-0.57-10.45v0l0-0.16c0-0.53,0.1-0.92,0.26-1.24c0.23-0.48,0.61-0.85,1.16-1.14
		c0.54-0.29,1.25-0.45,1.98-0.45c0.97,0,1.93,0.3,2.54,0.79c0.31,0.24,0.54,0.51,0.71,0.84c0.17,0.32,0.28,0.71,0.29,1.22v0
		c0.03,1.38,0.07,4.99,0.1,8.25c0.02,1.63,0.03,3.17,0.04,4.31c0.01,1.13,0.02,1.86,0.02,1.86l3.97,0.33l1.95-11.09l0.01-0.03
		c0.14-0.81,0.44-1.22,0.84-1.54c0.4-0.31,0.97-0.5,1.6-0.5c0.76,0,1.56,0.28,2.09,0.77c0.27,0.24,0.49,0.53,0.65,0.88
		c0.16,0.35,0.26,0.77,0.26,1.32c0,0.11,0,0.22-0.01,0.33l-1.25,11.76l3.9,0.81l2.56-8.14l0-0.01c0.19-0.6,0.43-0.87,0.7-1.06
		c0.27-0.19,0.62-0.3,1.07-0.3c0.66-0.01,1.47,0.29,2.02,0.79c0.28,0.25,0.5,0.53,0.65,0.84c0.15,0.31,0.23,0.64,0.23,1.04
		C79.57,47.47,79.53,47.78,79.42,48.14z M82.42,52.49L82.42,52.49C82.42,52.49,82.42,52.49,82.42,52.49L82.42,52.49z"/>
</g>
</svg>
