<?xml version="1.0" encoding="utf-8"?>
<!-- Generator: Adobe Illustrator 16.0.0, SVG Export Plug-In . SVG Version: 6.00 Build 0)  -->
<!DOCTYPE svg PUBLIC "-//W3C//DTD SVG 1.1 Tiny//EN" "http://www.w3.org/Graphics/SVG/1.1/DTD/svg11-tiny.dtd">
<svg version="1.1" baseProfile="tiny" id="Capa_1" xmlns="http://www.w3.org/2000/svg" xmlns:xlink="http://www.w3.org/1999/xlink"
	 x="0px" y="0px" width="100px" height="100px" viewBox="0 0 100 100" xml:space="preserve">
<path d="M37,10H7c-2.76,0.01-4.99,2.24-5,5v12c0.01,2.76,2.24,4.99,5,5h30c2.76-0.01,4.99-2.24,5-5V15
	C41.99,12.24,39.76,10.01,37,10z M22,27c0,0.55-0.45,1-1,1H7c-0.55,0-1-0.45-1-1V15c0-0.55,0.45-1,1-1h14c0.55,0,1,0.45,1,1V27z"/>
</svg>
