<?xml version="1.0" encoding="utf-8"?>
<!-- Generator: Adobe Illustrator 16.0.0, SVG Export Plug-In . SVG Version: 6.00 Build 0)  -->
<!DOCTYPE svg PUBLIC "-//W3C//DTD SVG 1.1 Tiny//EN" "http://www.w3.org/Graphics/SVG/1.1/DTD/svg11-tiny.dtd">
<svg version="1.1" baseProfile="tiny" id="Capa_1" xmlns="http://www.w3.org/2000/svg" xmlns:xlink="http://www.w3.org/1999/xlink"
	 x="0px" y="0px" width="100px" height="100px" viewBox="0 0 100 100" xml:space="preserve">
<g>
	<path d="M46.33,36.25c0-1.87-0.42-3.78-1.17-5.62c-1.13-2.76-3.01-5.38-5.56-7.35C37.07,21.31,33.83,20,30.17,20
		c-2.44,0-4.7,0.58-6.68,1.55c-2.97,1.46-5.32,3.78-6.94,6.38c-1.62,2.61-2.54,5.52-2.54,8.32h4c0-1.26,0.29-2.7,0.87-4.11
		c0.86-2.13,2.37-4.2,4.3-5.7c1.94-1.5,4.28-2.44,6.99-2.44c1.81,0,3.45,0.42,4.92,1.14c2.21,1.08,4.04,2.87,5.31,4.91
		c1.27,2.03,1.95,4.31,1.94,6.2H46.33z"/>
	<circle cx="30.17" cy="33.42" r="2.83"/>
	<path d="M84.83,30.63c-1.13-2.76-3.01-5.38-5.56-7.35C76.74,21.31,73.5,20,69.83,20c-2.44,0-4.7,0.58-6.68,1.55
		c-2.97,1.46-5.32,3.78-6.94,6.38c-1.62,2.61-2.54,5.52-2.54,8.32h4c0-1.26,0.29-2.7,0.87-4.11c0.86-2.13,2.37-4.2,4.3-5.7
		c1.94-1.5,4.28-2.44,6.99-2.44c1.81,0,3.45,0.42,4.92,1.14c2.21,1.08,4.04,2.87,5.31,4.9c1.27,2.03,1.95,4.31,1.94,6.2h4
		C86,34.38,85.58,32.47,84.83,30.63z"/>
	<circle cx="69.83" cy="33.42" r="2.83"/>
	<path d="M53.45,58.6c-0.2,0.34-0.59,0.7-1.21,0.97C51.62,59.84,50.81,60,50,60c-1.09,0.01-2.16-0.3-2.79-0.73
		c-0.32-0.21-0.53-0.44-0.67-0.67c-0.13-0.23-0.21-0.48-0.21-0.85h-4c0,1.04,0.27,2.04,0.76,2.87c0.73,1.25,1.87,2.09,3.07,2.62
		C47.37,63.76,48.69,64,50,64c1.75-0.01,3.51-0.41,5-1.4c0.74-0.49,1.42-1.15,1.9-1.98c0.49-0.83,0.76-1.83,0.76-2.87h-4
		C53.66,58.13,53.58,58.37,53.45,58.6z"/>
	<path d="M50,72c-3.31,0-6,2.69-6,6c0,3.31,2.69,6,6,6c3.31,0,6-2.69,6-6C56,74.69,53.31,72,50,72z M51.41,79.41
		C51.05,79.78,50.56,80,50,80c-0.56,0-1.05-0.22-1.41-0.59C48.22,79.05,48,78.56,48,78c0-0.56,0.22-1.05,0.59-1.41
		C48.95,76.22,49.44,76,50,76c0.56,0,1.05,0.22,1.41,0.59C51.78,76.95,52,77.44,52,78C52,78.56,51.78,79.05,51.41,79.41z"/>
</g>
</svg>
