<?xml version="1.0" encoding="utf-8"?>
<!-- Generator: Adobe Illustrator 16.0.0, SVG Export Plug-In . SVG Version: 6.00 Build 0)  -->
<!DOCTYPE svg PUBLIC "-//W3C//DTD SVG 1.1//EN" "http://www.w3.org/Graphics/SVG/1.1/DTD/svg11.dtd">
<svg version="1.1" id="Capa_1" xmlns="http://www.w3.org/2000/svg" xmlns:xlink="http://www.w3.org/1999/xlink" x="0px" y="0px"
	 width="100px" height="100px" viewBox="0 0 100 100" enable-background="new 0 0 100 100" xml:space="preserve">
<g>
	<path d="M21.4,84.78H9c-0.55,0-1,0.45-1,1v4.8c0,0.55,0.45,1,1,1h12.4c0.55,0,1-0.45,1-1v-4.8C22.4,85.23,21.95,84.78,21.4,84.78z"
		/>
	<path d="M91,84.78H78.6c-0.55,0-1,0.45-1,1v4.8c0,0.55,0.45,1,1,1H91c0.55,0,1-0.45,1-1v-4.8C92,85.23,91.55,84.78,91,84.78z"/>
	<path d="M9,82.51h5.2c0.55,0,1-0.45,1-1v-4.8c0-0.55-0.45-1-1-1H9c-0.55,0-1,0.45-1,1v4.8C8,82.06,8.45,82.51,9,82.51z"/>
	<path d="M24.8,76.71c0-0.55-0.45-1-1-1h-5.2c-0.55,0-1,0.45-1,1v4.8c0,0.55,0.45,1,1,1h5.2c0.55,0,1-0.45,1-1V76.71z"/>
	<path d="M66.6,82.51h5.2c0.55,0,1-0.45,1-1v-4.8c0-0.55-0.45-1-1-1h-5.2c-0.55,0-1,0.45-1,1v4.8C65.6,82.06,66.05,82.51,66.6,82.51
		z"/>
	<path d="M82.4,81.51v-4.8c0-0.55-0.45-1-1-1h-5.2c-0.55,0-1,0.45-1,1v4.8c0,0.55,0.45,1,1,1h5.2C81.95,82.51,82.4,82.06,82.4,81.51
		z"/>
	<path d="M91,75.71h-5.2c-0.55,0-1,0.45-1,1v4.8c0,0.55,0.45,1,1,1H91c0.55,0,1-0.45,1-1v-4.8C92,76.16,91.55,75.71,91,75.71z"/>
	<path d="M9,64.38h5.2c0.55,0,1-0.45,1-1v-4.8c0-0.55-0.45-1-1-1H9c-0.55,0-1,0.45-1,1v4.8C8,63.93,8.45,64.38,9,64.38z"/>
	<path d="M18.6,64.38h5.2c0.55,0,1-0.45,1-1v-4.8c0-0.55-0.45-1-1-1h-5.2c-0.55,0-1,0.45-1,1v4.8C17.6,63.93,18.05,64.38,18.6,64.38
		z"/>
	<path d="M66.6,64.38h5.2c0.55,0,1-0.45,1-1v-4.8c0-0.55-0.45-1-1-1h-5.2c-0.55,0-1,0.45-1,1v4.8C65.6,63.93,66.05,64.38,66.6,64.38
		z"/>
	<path d="M76.2,64.38h5.2c0.55,0,1-0.45,1-1v-4.8c0-0.55-0.45-1-1-1h-5.2c-0.55,0-1,0.45-1,1v4.8C75.2,63.93,75.65,64.38,76.2,64.38
		z"/>
	<path d="M91,57.58h-5.2c-0.55,0-1,0.45-1,1v4.8c0,0.55,0.45,1,1,1H91c0.55,0,1-0.45,1-1v-4.8C92,58.03,91.55,57.58,91,57.58z"/>
	<path d="M9,73.44h10c0.55,0,1-0.45,1-1v-4.8c0-0.55-0.45-1-1-1H9c-0.55,0-1,0.45-1,1v4.8C8,72.99,8.45,73.44,9,73.44z"/>
	<path d="M29.6,72.44v-4.8c0-0.55-0.45-1-1-1h-5.2c-0.55,0-1,0.45-1,1v4.8c0,0.55,0.45,1,1,1h5.2C29.15,73.44,29.6,72.99,29.6,72.44
		z"/>
	<path d="M77.6,72.44v-4.8c0-0.55-0.45-1-1-1h-5.2c-0.55,0-1,0.45-1,1v4.8c0,0.55,0.45,1,1,1h5.2C77.15,73.44,77.6,72.99,77.6,72.44
		z"/>
	<path d="M91,66.64H81c-0.55,0-1,0.45-1,1v4.8c0,0.55,0.45,1,1,1h10c0.55,0,1-0.45,1-1v-4.8C92,67.09,91.55,66.64,91,66.64z"/>
	<path d="M54.66,28.9c-1.51,1.37,0,3.9,0,3.9l7.38-6.61l-7.38-6.61c0,0-1.51,2.54,0,3.9c0.7,0.64,0.63,0.48,1.43,1.21H34v3h22.09
		C55.3,28.41,55.36,28.26,54.66,28.9z"/>
	<path d="M93,52.08H7c-2.49,0.01-4.49,2.01-4.5,4.5v36c0.01,2.49,2.01,4.49,4.5,4.5h86c2.49-0.01,4.49-2.01,4.5-4.5v-36
		C97.49,54.09,95.49,52.08,93,52.08z M94.06,93.64c-0.28,0.28-0.65,0.44-1.06,0.44H7c-0.41,0-0.78-0.17-1.06-0.44
		c-0.28-0.28-0.44-0.65-0.44-1.06v-36c0-0.41,0.17-0.78,0.44-1.06c0.28-0.28,0.65-0.44,1.06-0.44h86c0.41,0,0.78,0.17,1.06,0.44
		c0.28,0.28,0.44,0.65,0.44,1.06v36C94.5,92.99,94.33,93.36,94.06,93.64z"/>
	<path d="M74.2,84.78H25.8c-0.55,0-1,0.45-1,1v4.8c0,0.55,0.45,1,1,1h48.4c0.55,0,1-0.45,1-1v-4.8
		C75.2,85.23,74.75,84.78,74.2,84.78z"/>
	<path d="M28.2,82.51h5.2c0.55,0,1-0.45,1-1v-4.8c0-0.55-0.45-1-1-1h-5.2c-0.55,0-1,0.45-1,1v4.8C27.2,82.06,27.65,82.51,28.2,82.51
		z"/>
	<path d="M37.8,82.51H43c0.55,0,1-0.45,1-1v-4.8c0-0.55-0.45-1-1-1h-5.2c-0.55,0-1,0.45-1,1v4.8C36.8,82.06,37.25,82.51,37.8,82.51z
		"/>
	<path d="M47.4,82.51h5.2c0.55,0,1-0.45,1-1v-4.8c0-0.55-0.45-1-1-1h-5.2c-0.55,0-1,0.45-1,1v4.8C46.4,82.06,46.85,82.51,47.4,82.51
		z"/>
	<path d="M57,82.51h5.2c0.55,0,1-0.45,1-1v-4.8c0-0.55-0.45-1-1-1H57c-0.55,0-1,0.45-1,1v4.8C56,82.06,56.45,82.51,57,82.51z"/>
	<path d="M28.2,64.38h5.2c0.55,0,1-0.45,1-1v-4.8c0-0.55-0.45-1-1-1h-5.2c-0.55,0-1,0.45-1,1v4.8C27.2,63.93,27.65,64.38,28.2,64.38
		z"/>
	<path d="M37.8,64.38H43c0.55,0,1-0.45,1-1v-4.8c0-0.55-0.45-1-1-1h-5.2c-0.55,0-1,0.45-1,1v4.8C36.8,63.93,37.25,64.38,37.8,64.38z
		"/>
	<path d="M47.4,64.38h5.2c0.55,0,1-0.45,1-1v-4.8c0-0.55-0.45-1-1-1h-5.2c-0.55,0-1,0.45-1,1v4.8C46.4,63.93,46.85,64.38,47.4,64.38
		z"/>
	<path d="M57,64.38h5.2c0.55,0,1-0.45,1-1v-4.8c0-0.55-0.45-1-1-1H57c-0.55,0-1,0.45-1,1v4.8C56,63.93,56.45,64.38,57,64.38z"/>
	<path d="M39.2,72.44v-4.8c0-0.55-0.45-1-1-1H33c-0.55,0-1,0.45-1,1v4.8c0,0.55,0.45,1,1,1h5.2C38.75,73.44,39.2,72.99,39.2,72.44z"
		/>
	<path d="M48.8,72.44v-4.8c0-0.55-0.45-1-1-1h-5.2c-0.55,0-1,0.45-1,1v4.8c0,0.55,0.45,1,1,1h5.2C48.35,73.44,48.8,72.99,48.8,72.44
		z"/>
	<path d="M58.4,72.44v-4.8c0-0.55-0.45-1-1-1h-5.2c-0.55,0-1,0.45-1,1v4.8c0,0.55,0.45,1,1,1h5.2C57.95,73.44,58.4,72.99,58.4,72.44
		z"/>
	<path d="M68,72.44v-4.8c0-0.55-0.45-1-1-1h-5.2c-0.55,0-1,0.45-1,1v4.8c0,0.55,0.45,1,1,1H67C67.55,73.44,68,72.99,68,72.44z"/>
	<rect x="62.55" y="15.58" width="3" height="20"/>
</g>
</svg>
