<?xml version="1.0" encoding="utf-8"?>
<!-- Generator: Adobe Illustrator 16.0.0, SVG Export Plug-In . SVG Version: 6.00 Build 0)  -->
<!DOCTYPE svg PUBLIC "-//W3C//DTD SVG 1.1//EN" "http://www.w3.org/Graphics/SVG/1.1/DTD/svg11.dtd">
<svg version="1.1" id="Capa_1" xmlns="http://www.w3.org/2000/svg" xmlns:xlink="http://www.w3.org/1999/xlink" x="0px" y="0px"
	 width="100px" height="100px" viewBox="0 0 100 100" enable-background="new 0 0 100 100" xml:space="preserve">
<path d="M87,33L87,33c0-1.01-0.21-1.96-0.62-2.79c-0.6-1.25-1.61-2.17-2.72-2.73c-1.11-0.57-2.32-0.82-3.53-0.82
	c-1.08,0-2.16,0.23-3.17,0.65l-0.01-9.97V17.3c0-0.98-0.19-1.91-0.55-2.73c-0.55-1.23-1.5-2.17-2.56-2.74
	C72.77,11.25,71.6,11,70.44,11c-1.18,0-2.35,0.28-3.44,0.78c0-0.1,0-0.21,0-0.28c0-1.03-0.22-2-0.63-2.84
	c-0.62-1.27-1.64-2.21-2.76-2.8C62.48,5.27,61.23,5,60,5c-1.64,0-3.32,0.48-4.69,1.56c-0.68,0.54-1.27,1.25-1.68,2.09
	c-0.36,0.73-0.56,1.57-0.61,2.44c-0.97-0.4-1.99-0.6-3.02-0.6c-1.64,0-3.32,0.48-4.69,1.56c-0.68,0.54-1.27,1.25-1.68,2.09
	C43.22,15,43,15.97,43,17c0,4,0,44,0,48c0,0.61-0.26,1.15-0.81,1.62c-0.54,0.47-1.35,0.79-2.24,0.79c-1.08-0.01-2.27-0.42-3.45-1.74
	c-0.39-0.44-0.89-0.96-1.48-1.56c-1.78-1.81-4.41-4.33-6.6-6.53c-0.71-0.71-1.54-1.22-2.39-1.53c-0.86-0.31-1.74-0.43-2.58-0.43
	c-1.27,0-2.48,0.26-3.6,0.62c-1.67,0.54-3.15,1.32-4.23,1.96c-1.08,0.64-1.77,1.16-1.81,1.19l-1.66,1.25L40.05,95H41
	c0,0,1.88,0,4.75,0C54.37,95,72,95,75,95c1.17,0,2.24-0.15,3.21-0.51c0.73-0.27,1.4-0.66,1.96-1.16c0.85-0.75,1.44-1.69,1.86-2.68
	c0.42-1,0.7-2.08,0.93-3.26c0.33-1.65,0.73-4.16,1.16-7.12c0.64-4.43,1.34-9.85,1.88-14.67c0.27-2.41,0.51-4.67,0.69-6.59
	c0.17-1.92,0.29-3.49,0.31-4.58c0-0.06,0-0.11,0-0.2c0-0.63,0-2.83,0-5.61C87,42.28,87,33,87,33z M16.2,62.6L16.2,62.6L16.2,62.6
	L16.2,62.6z M83,52.62c0,0.51,0,0.93,0,1.23c0,0.15,0,0.27,0,0.36l0,0.1v0.03c-0.03,1.21-0.21,3.51-0.49,6.29
	c-0.42,4.19-1.06,9.53-1.71,14.41c-0.65,4.87-1.31,9.3-1.77,11.57c-0.18,0.92-0.38,1.68-0.61,2.27c-0.17,0.44-0.35,0.78-0.53,1.03
	c-0.28,0.38-0.53,0.58-0.94,0.77C76.55,90.86,75.93,91,75,91c-3.58,0-27.94,0-33.05,0L17.96,61.47c0.24-0.14,0.5-0.28,0.77-0.42
	c0.73-0.38,1.56-0.74,2.38-1.01c0.82-0.26,1.64-0.42,2.32-0.42c0.47,0,0.87,0.07,1.21,0.19c0.35,0.13,0.64,0.31,0.93,0.6
	c1.49,1.49,3.15,3.11,4.61,4.54c0.73,0.72,1.4,1.39,1.97,1.97c0.57,0.58,1.04,1.07,1.33,1.4c1.84,2.1,4.23,3.1,6.45,3.09
	c1.83,0,3.54-0.64,4.85-1.75C46.1,68.55,47,66.88,47,65c0-4,0-44,0-48c0-0.47,0.09-0.81,0.23-1.09c0.2-0.42,0.53-0.74,1.02-1
	c0.48-0.25,1.11-0.41,1.75-0.4c0.86,0,1.68,0.27,2.19,0.69c0.26,0.21,0.45,0.44,0.58,0.72C52.9,16.19,53,16.53,53,17
	c0,10.59,0,32.17,0,34h4c0,0,0-30,0-34c0-2.76,0-4.78,0-5.5c0-0.47,0.09-0.81,0.23-1.09c0.2-0.42,0.53-0.74,1.02-1
	C58.73,9.15,59.36,9,60,9c0.86,0,1.68,0.27,2.19,0.69c0.26,0.21,0.45,0.44,0.58,0.72C62.9,10.69,63,11.03,63,11.5
	c0,0.84,0,3.18,0,6.34c0,4,0,35.48,0,35.48h4c0,0,0-23.59,0-35.48c0-0.48,0.1-0.84,0.26-1.16c0.24-0.48,0.66-0.89,1.24-1.2
	c0.57-0.31,1.28-0.48,1.94-0.48c0.78,0,1.45,0.24,1.84,0.57c0.2,0.17,0.35,0.36,0.47,0.62c0.12,0.26,0.2,0.61,0.2,1.1v0.03v0.01
	L73,55.39l4,0V33c0-0.41,0.08-0.69,0.22-0.95c0.2-0.38,0.55-0.72,1.07-0.98c0.52-0.26,1.19-0.42,1.85-0.41
	c0.85,0,1.65,0.26,2.11,0.64c0.24,0.19,0.41,0.4,0.54,0.66C82.91,32.21,83,32.54,83,33v0c0,0.01,0,2.32,0,5.43
	c0,3.11,0,7.02,0,10.18C83,50.2,83,51.6,83,52.62z"/>
</svg>
