<?xml version="1.0" encoding="utf-8"?>
<!-- Generator: Adobe Illustrator 16.0.0, SVG Export Plug-In . SVG Version: 6.00 Build 0)  -->
<!DOCTYPE svg PUBLIC "-//W3C//DTD SVG 1.1 Tiny//EN" "http://www.w3.org/Graphics/SVG/1.1/DTD/svg11-tiny.dtd">
<svg version="1.1" baseProfile="tiny" id="Capa_1" xmlns="http://www.w3.org/2000/svg" xmlns:xlink="http://www.w3.org/1999/xlink"
	 x="0px" y="0px" width="100px" height="100px" viewBox="0 0 100 100" xml:space="preserve">
<g>
	<path d="M76.19,55.31c-0.24-0.31-0.53-0.59-0.83-0.85c1.66-2.26,1.84-5.51,0.57-8c-1.2-2.35-3.46-3.47-6.04-3.47
		c-3.44,0-6.87,0-10.31,0c-1.68,0-3.37,0-5.05,0c-0.86,0-1.93,0.16-2.78-0.07c-2.68-0.72-2.09-4.38-0.68-5.93
		c1.77-1.96,3.82-3.74,5.68-5.63c1.44-1.47,3.32-2.9,4.21-4.79c1.06-2.24,0.72-4.84-0.08-7.1c-0.96-2.73-2.56-5.06-4.28-7.35
		L22.25,40.05c0,7.79,0,15.57,0,23.36c0,3.44,0,6.88,0,10.32c0,1.74-0.02,3.49,0.77,5.1c1.3,2.64,4.14,3.6,6.84,4.14
		c8.26,1.63,16.73,2.52,25.1,3.4c2.01,0.21,4.02,0.41,6.04,0.55c1.38,0.09,2.8,0.21,4.15-0.18c4.14-1.21,5.34-6.32,3.72-9.93
		c4.32-1.07,5.82-6.27,4.11-10.03C77.82,65.48,79.11,59,76.19,55.31C75.94,55.01,77.27,56.68,76.19,55.31z M73.06,62.19
		c-0.81,1-2.1,0.81-3.25,0.81c-0.96,0-1.91,0-2.87,0c-1.01,0-2.01,0-3.02,0v4c0.53,0,1.05,0,1.58,0c1.06,0,2.39-0.24,3.25,0.53
		c1.47,1.33,1.34,4.91-0.89,5.4C66.8,73.17,65.55,73,64.47,73c-0.87,0-1.73,0-2.6,0v4c1.6,0,2.97,0.01,3.53,1.85
		c0.61,2-0.19,4.2-2.49,4.15h0c-5.32-0.11-10.69-0.93-15.97-1.59c-5.44-0.67-10.92-1.3-16.3-2.37h0c-1.11-0.22-2.36-0.47-3.3-1.14
		c-0.93-0.68-1.09-1.82-1.09-2.9c0-0.84,0-1.69,0-2.53c0-3.2,0-6.39,0-9.59c0-6.72,0-13.44,0-20.15c0-0.26,0-0.52,0-0.78
		l29.53-23.99c1.11,1.93,3.02,5.65,1.06,7.62c-2.11,2.11-4.17,4.26-6.29,6.36c-1.84,1.83-3.78,3.4-4.46,6.03
		c-0.63,2.44-0.04,5.17,1.7,7.03c2.27,2.44,5.54,1.99,8.55,1.99c3.7,0,7.41,0,11.11,0c0.86,0,1.71,0,2.57,0c1.76,0,2.74,1.28,2.74,3
		c0.01,1.83-1.05,3-2.87,3c-1.21,0-2.42,0-3.63,0v4c1.67,0,3.33,0,5,0C73.77,57.01,74.45,60.49,73.06,62.19
		C72.86,62.44,73.48,61.68,73.06,62.19z"/>
</g>
</svg>
