<?xml version="1.0" encoding="utf-8"?>
<!-- Generator: Adobe Illustrator 16.0.0, SVG Export Plug-In . SVG Version: 6.00 Build 0)  -->
<!DOCTYPE svg PUBLIC "-//W3C//DTD SVG 1.1 Tiny//EN" "http://www.w3.org/Graphics/SVG/1.1/DTD/svg11-tiny.dtd">
<svg version="1.1" baseProfile="tiny" id="Capa_1" xmlns="http://www.w3.org/2000/svg" xmlns:xlink="http://www.w3.org/1999/xlink"
	 x="0px" y="0px" width="100px" height="100px" viewBox="0 0 100 100" xml:space="preserve">
<g>
	<circle cx="30.17" cy="33.42" r="2.83"/>
	<circle cx="69.83" cy="33.42" r="2.83"/>
	<path d="M42.33,57.75c0,1.04,0.27,2.04,0.76,2.87c0.73,1.25,1.87,2.09,3.07,2.62C47.37,63.76,48.69,64,50,64
		c1.75-0.01,3.51-0.41,5-1.4c0.74-0.49,1.42-1.15,1.9-1.98c0.49-0.83,0.76-1.83,0.76-2.87h-4c0,0.38-0.08,0.62-0.21,0.85
		c-0.2,0.34-0.59,0.7-1.21,0.97C51.62,59.84,50.81,60,50,60c-1.09,0.01-2.16-0.3-2.79-0.73c-0.32-0.21-0.53-0.44-0.67-0.67
		c-0.13-0.23-0.21-0.48-0.21-0.85H42.33z"/>
	<path d="M31.59,70.41c0.43,0.42,0.9,0.75,1.41,1.06c0.9,0.53,1.95,0.98,3.11,1.4c1.74,0.62,3.71,1.14,5.62,1.52
		C43.65,74.76,45.48,75,47,75c4,0,2,0,6,0c1.16,0,2.49-0.14,3.92-0.37c2.13-0.35,4.43-0.91,6.47-1.59c1.02-0.34,1.97-0.72,2.81-1.14
		c0.84-0.42,1.58-0.86,2.22-1.49c0.78-0.78,0.78-2.05,0-2.83c-0.78-0.78-2.05-0.78-2.83,0c-0.07,0.08-0.29,0.25-0.61,0.44
		c-0.56,0.33-1.43,0.72-2.43,1.08c-1.5,0.54-3.33,1.02-5.06,1.37C55.76,70.81,54.1,71,53,71c-4,0-2,0-6,0
		c-0.84,0-2.01-0.11-3.27-0.32c-1.9-0.31-4.05-0.83-5.83-1.43c-0.89-0.3-1.69-0.62-2.31-0.93c-0.62-0.3-1.06-0.61-1.17-0.73
		c-0.78-0.78-2.05-0.78-2.83,0C30.8,68.37,30.8,69.63,31.59,70.41z"/>
	<path d="M18,36.25c0-1.26,0.28-2.44,0.81-3.53c0.8-1.63,2.17-3.06,4.09-4.11c1.92-1.04,4.37-1.69,7.26-1.69
		c3.85,0,6.93,1.15,9,2.86c1.04,0.86,1.82,1.85,2.36,2.94c0.53,1.09,0.81,2.27,0.81,3.53h4c0-1.87-0.43-3.67-1.22-5.29
		c-1.19-2.44-3.21-4.47-5.77-5.86c-2.57-1.4-5.69-2.18-9.18-2.18c-4.65,0-8.65,1.39-11.55,3.78c-1.44,1.19-2.6,2.64-3.4,4.26
		c-0.8,1.62-1.22,3.42-1.22,5.29H18z"/>
	<path d="M57.67,36.25c0-1.26,0.28-2.44,0.81-3.53c0.8-1.63,2.17-3.06,4.09-4.11c1.92-1.04,4.37-1.69,7.26-1.69
		c3.86,0,6.93,1.15,9,2.86c1.04,0.86,1.82,1.85,2.36,2.94c0.53,1.09,0.81,2.27,0.81,3.53h4c0-1.87-0.43-3.67-1.22-5.29
		c-1.19-2.44-3.2-4.47-5.77-5.86c-2.57-1.4-5.69-2.18-9.17-2.18c-4.64,0-8.65,1.39-11.55,3.78c-1.44,1.19-2.6,2.64-3.4,4.26
		c-0.8,1.62-1.22,3.42-1.22,5.29H57.67z"/>
</g>
</svg>
