<?xml version="1.0" encoding="utf-8"?>
<!-- Generator: Adobe Illustrator 16.0.0, SVG Export Plug-In . SVG Version: 6.00 Build 0)  -->
<!DOCTYPE svg PUBLIC "-//W3C//DTD SVG 1.1 Tiny//EN" "http://www.w3.org/Graphics/SVG/1.1/DTD/svg11-tiny.dtd">
<svg version="1.1" baseProfile="tiny" id="Capa_1" xmlns="http://www.w3.org/2000/svg" xmlns:xlink="http://www.w3.org/1999/xlink"
	 x="0px" y="0px" width="100px" height="100px" viewBox="0 0 100 100" xml:space="preserve">
<g>
	<path d="M72,18.18c0,0,0-0.01,0-0.01L72,18.18z"/>
	<path d="M97.01,34.71c-1.14-2.42-3.78-3.9-6.44-3.78c-2.85,0.13-5.11,2.12-6.06,4.74c-0.49,1.39-0.99,2.78-1.48,4.17
		c0.59-4.91,1.18-9.83,1.77-14.74c0.2-1.69,0.52-3.4,0.59-5.1c0.1-2.59-1.11-5.07-3.29-6.49c-2.2-1.43-5.19-1.62-7.39-0.09
		c-1.57,1.09-2.46,2.88-2.71,4.75l-2.28,16.06c-0.36-6.98-0.55-14.01-1.2-20.97v0c-0.4-4.29-4.38-6.73-8.47-5.92
		c-1.9,0.38-3.7,1.43-4.78,3.06c-1.1,1.64-1.04,3.35-0.89,5.23c0.65,7.92,0.96,15.88,1.38,23.82c-2.04-6.24-4.14-12.46-6.08-18.74
		l0,0c-1.71-5.63-9.59-5.79-12.64-1.24c-1.55,2.31-0.92,4.62-0.25,7.07c0.59,2.13,1.15,4.27,1.71,6.41
		c1.48,5.65,2.91,11.31,4.29,16.98c1.3,5.34,2.85,10.77,3.55,16.23c0.21,1.58-0.76,2.74-2.34,3.02c-1.59,0.28-3.07-0.52-4.1-1.68
		c-1.38-1.55-2.9-2.99-4.38-4.44c-0.91-0.9-1.83-1.79-2.74-2.69c-0.86-0.85-1.68-1.72-2.79-2.25c-4.18-1.98-9.4,0.61-12.79,3.11
		l-0.35,2.86l26,32l1.55,0.74c7.81,0,15.62,0,23.44,0c3.18,0,6.35,0,9.53,0c1.77,0,3.55-0.04,5.14-0.92
		c2.44-1.36,3.33-4.1,3.85-6.69v0c0.91-4.56,1.66-9.15,2.39-13.74c0.83-5.21,1.69-10.45,2.15-15.71c0.08-0.93,0.1-1.77,0.39-2.67
		c0.29-0.9,0.59-1.79,0.88-2.68c0.78-2.32,1.57-4.64,2.36-6.95c0.8-2.34,1.6-4.68,2.41-7.02C97.6,38.55,97.9,36.61,97.01,34.71
		C96.44,33.5,97.38,35.51,97.01,34.71z M91.03,57.74L91.03,57.74C91.03,57.74,91.03,57.74,91.03,57.74L91.03,57.74z M90.3,47.47
		c-0.7,2.05-1.4,4.1-2.08,6.16c-0.44,1.32-1.15,2.79-1.2,4.2c-0.12,3.62-0.74,7.25-1.27,10.82c-0.97,6.61-2.01,13.22-3.32,19.77
		c-0.21,1.05-0.44,2.17-1,3.09c-0.59,0.98-1.61,1.25-2.7,1.29c-0.91,0.04-1.82,0.01-2.73,0.01c-3.17,0-6.33,0-9.5,0
		c-6.76,0-13.51,0-20.27,0c-0.3,0-0.59,0-0.89,0L21.36,63.3c1.4-0.8,2.93-1.51,4.53-1.77c1.9-0.3,2.83,0.45,4.11,1.72
		c2.3,2.28,4.75,4.47,6.9,6.9l0,0c3.36,3.84,10.36,4.46,12.89-0.7c1.06-2.16,0.44-4.56,0-6.79c-0.54-2.76-1.18-5.51-1.82-8.25
		c-1.34-5.74-2.77-11.46-4.23-17.18c-0.72-2.8-1.44-5.6-2.18-8.4c-0.33-1.23-0.66-2.46-1-3.69c-0.25-0.91-0.78-2-0.45-2.95
		c0.69-1.98,4.36-2.91,5.5-0.89c0.32,0.57,0.47,1.28,0.67,1.9c0.36,1.11,0.71,2.22,1.07,3.33c1.31,4.05,2.63,8.1,3.96,12.15
		c1.21,3.7,2.42,7.4,3.63,11.1c0.54,1.65,0.91,3.59,1.69,5.15l3.9-0.72c0-2.41-0.24-4.85-0.37-7.26c-0.26-5.09-0.53-10.17-0.8-15.26
		c-0.26-4.81-0.52-9.61-0.84-14.42c-0.12-1.82-0.92-4.29,0.93-5.47c1.9-1.21,4.85-0.74,5.09,1.82c0.62,6.72,0.8,13.5,1.16,20.23
		c0.22,4.23,0.44,8.46,0.65,12.69c0.15,2.86,0.43,5.75,0.43,8.61l3.98,0.18c1.4-9.86,2.8-19.73,4.2-29.59c0.33-2.35,0.66-4.7,1-7.04
		c0.14-0.99,0.58-2,1.63-2.28c1.23-0.33,2.59,0.34,3.27,1.37c0.52,0.78,0.58,1.69,0.47,2.59c-0.2,1.64-0.39,3.28-0.59,4.91
		c-0.74,6.13-1.47,12.26-2.21,18.39C78,48.2,77.46,52.7,76.92,57.21l3.87,0.91l7.48-21.07c0.55-1.49,1.88-2.5,3.51-1.98
		c1.5,0.48,2.13,1.93,1.63,3.37C92.37,41.45,91.33,44.46,90.3,47.47C89.51,49.79,91.79,43.13,90.3,47.47z"/>
</g>
</svg>
