<?xml version="1.0" encoding="utf-8"?>
<!-- Generator: Adobe Illustrator 16.0.0, SVG Export Plug-In . SVG Version: 6.00 Build 0)  -->
<!DOCTYPE svg PUBLIC "-//W3C//DTD SVG 1.1 Tiny//EN" "http://www.w3.org/Graphics/SVG/1.1/DTD/svg11-tiny.dtd">
<svg version="1.1" baseProfile="tiny" id="Capa_1" xmlns="http://www.w3.org/2000/svg" xmlns:xlink="http://www.w3.org/1999/xlink"
	 x="0px" y="0px" width="100px" height="100px" viewBox="0 0 100 100" xml:space="preserve">
<path d="M92,53.91c-0.19-2.23-1.06-4.16-3.08-5.3c-2.1-1.19-4.73-1.23-6.93-0.31c-0.01-9.76-0.03-19.51-0.04-29.27
	c0-0.92,0.06-1.89-0.08-2.81c-0.69-4.67-5.96-6.26-9.87-4.43c0-3.84-2.83-6.62-6.66-6.78c-3.67-0.15-7.1,2.27-7.32,6.09
	C53.62,9.28,47.99,11.87,48,17c0,2.18,0,4.37,0,6.55c0,8.82,0,17.63,0,26.45h-7.3l-8.92,20.07L44.79,95c7.7,0,15.4,0,23.09,0
	c3.53,0,7.05,0,10.58,0c1.6,0,3.22,0.06,4.75-0.51c2.78-1.03,3.99-3.7,4.6-6.4c0.05-0.23,0.1-0.46,0.15-0.69
	c1.04-5.27,1.67-10.64,2.34-15.97c0.7-5.62,1.57-11.33,1.7-16.99l0,0C92,54.25,92,53.91,92,53.91z M88,54.06c0,0.09,0,0.19,0,0.28v0
	c-0.11,5.32-0.93,10.69-1.59,15.97c-0.67,5.44-1.3,10.92-2.37,16.3v0c-0.22,1.11-0.47,2.36-1.14,3.3C82.22,90.84,81.08,91,80,91
	c-0.86,0-1.71,0-2.57,0c-3.25,0-6.5,0-9.74,0c-6.73,0-13.45,0-20.18,0c-0.1,0-0.2,0-0.3,0L36.22,69.93L43.3,54H48
	c0,5.33,0,10.67,0,16h4c0-9.21,0-18.43,0-27.64c0-6.25,0-12.5,0-18.75c0-1.86,0-3.71,0-5.57c0-0.79-0.09-1.68,0.37-2.37
	C53.75,13.6,57.99,14.29,58,17c0,11.33,0,22.67,0,34h4c0-10.59,0-21.19,0-31.78c0-0.74,0-1.48,0-2.22c0-1.3,0-2.6,0-3.9
	c0-0.85-0.15-1.91,0.23-2.69c1.07-2.19,5.48-1.83,5.75,0.76c0.23,2.18,0.02,4.49,0.02,6.67c0,5.1,0,10.21,0,15.31
	c0,6.72,0,13.44,0,20.17h4c0-5.41,0-10.82,0-16.23c0-4.37,0-8.75,0-13.12c0-1.91,0-3.82,0-5.72c0-1.22,0.38-2.17,1.5-2.77
	c1.08-0.58,2.78-0.76,3.78,0.1c0.95,0.81,0.67,2.74,0.68,3.89c0,2.33,0.01,4.66,0.01,6.98c0.01,6.38,0.02,12.76,0.02,19.14
	c0,3.27,0.01,6.54,0.01,9.81l4,0c0-1.6,0.01-2.97,1.85-3.53c1.08-0.33,2.49-0.29,3.4,0.45C87.83,52.75,87.93,53.37,88,54.06z
	 M88.01,54.12"/>
</svg>
