<?xml version="1.0" encoding="utf-8"?>
<!-- Generator: Adobe Illustrator 16.0.0, SVG Export Plug-In . SVG Version: 6.00 Build 0)  -->
<!DOCTYPE svg PUBLIC "-//W3C//DTD SVG 1.1 Tiny//EN" "http://www.w3.org/Graphics/SVG/1.1/DTD/svg11-tiny.dtd">
<svg version="1.1" baseProfile="tiny" id="Capa_1" xmlns="http://www.w3.org/2000/svg" xmlns:xlink="http://www.w3.org/1999/xlink"
	 x="0px" y="0px" width="100px" height="100px" viewBox="0 0 100 100" xml:space="preserve">
<path d="M40,12.5H27.7c0.19,0.46,0.3,0.97,0.3,1.5s-0.11,1.04-0.3,1.5H40c0.69,0,1.3,0.28,1.76,0.74c0.46,0.46,0.74,1.08,0.74,1.76
	v8c0,0.69-0.28,1.3-0.74,1.76C41.3,28.22,40.69,28.5,40,28.5H17.96c0.02-0.02,0.04-0.03,0.06-0.05c0.7-0.58,0.73-0.58,1.43-1.22
	c1.5-1.39-0.01-3.94-0.01-3.94l-7.36,6.7l7.4,6.66c0,0,1.5-2.57-0.01-3.94c-0.7-0.63-0.64-0.49-1.42-1.2H40
	c3.04-0.01,5.49-2.46,5.5-5.5v-8C45.49,14.96,43.04,12.51,40,12.5z"/>
<path d="M25.31,12.5C24.96,12.19,24.5,12,24,12c-1.1,0-2,0.9-2,2s0.9,2,2,2c0.5,0,0.96-0.19,1.31-0.5C25.73,15.13,26,14.6,26,14
	S25.73,12.87,25.31,12.5z"/>
</svg>
