<?xml version="1.0" encoding="utf-8"?>
<!-- Generator: Adobe Illustrator 16.0.0, SVG Export Plug-In . SVG Version: 6.00 Build 0)  -->
<!DOCTYPE svg PUBLIC "-//W3C//DTD SVG 1.1//EN" "http://www.w3.org/Graphics/SVG/1.1/DTD/svg11.dtd">
<svg version="1.1" id="Capa_1" xmlns="http://www.w3.org/2000/svg" xmlns:xlink="http://www.w3.org/1999/xlink" x="0px" y="0px"
	 width="100px" height="100px" viewBox="0 0 100 100" enable-background="new 0 0 100 100" xml:space="preserve">
<g>
	<path d="M82.65,47.76c-0.05-0.72-0.1-1.28-0.1-1.29l-0.06-0.73l-0.53-0.53l-0.48-0.48l-6.03-0.81l-0.37-1.39l4.88-3.76l0.15-0.75
		l0.15-0.74l-4.13-7.13L75.4,29.9l-0.71-0.24L69,32.01L67.99,31l2.34-5.69l-0.24-0.72l-0.24-0.72l-7.14-4.12l-0.75,0.15l-0.73,0.15
		l-3.76,4.88l-1.39-0.37l-0.81-6.03l-0.49-0.49l-0.52-0.52l-0.73-0.06c-0.01,0-0.57-0.05-1.29-0.1c-0.72-0.05-1.57-0.1-2.24-0.1
		c-0.67,0-1.52,0.05-2.24,0.1c-0.72,0.05-1.28,0.1-1.29,0.1l-0.73,0.06l-0.53,0.53l-0.48,0.48l-0.81,6.03l-1.39,0.37l-3.76-4.88
		l-0.75-0.15l-0.74-0.15l-7.14,4.12L29.9,24.6l-0.23,0.71L32.01,31L31,32.01l-5.69-2.34l-0.72,0.24l-0.72,0.24l-4.12,7.13l0.15,0.75
		l0.15,0.73l4.88,3.76l-0.37,1.39l-6.03,0.81l-0.49,0.49l-0.52,0.52l-0.06,0.73c0,0.01-0.05,0.57-0.1,1.29
		c-0.05,0.72-0.1,1.57-0.1,2.25c0,0.67,0.05,1.52,0.1,2.24c0.05,0.72,0.1,1.28,0.1,1.29l0.06,0.73l0.53,0.53l0.48,0.48l6.03,0.81
		l0.37,1.39l-4.88,3.76l-0.15,0.75l-0.15,0.74l4.12,7.14l0.73,0.25l0.71,0.24L31,67.99L32.01,69l-2.33,5.67l0.22,0.71l0.23,0.75
		l7.15,4.13l0.75-0.15l0.73-0.15l3.76-4.88l1.39,0.37l0.81,6.03l0.49,0.49l0.52,0.52l0.73,0.06c0.01,0,0.57,0.05,1.29,0.1
		c0.72,0.05,1.57,0.1,2.24,0.1c0.67,0,1.52-0.05,2.24-0.1c0.72-0.05,1.28-0.1,1.29-0.1l0.73-0.06l0.53-0.53l0.48-0.48l0.81-6.03
		l1.39-0.37l3.76,4.88l0.75,0.15l0.74,0.15l7.15-4.13l0.24-0.76l0.22-0.69L67.99,69L69,67.99l5.69,2.34l0.72-0.24l0.72-0.24
		l4.13-7.14l-0.15-0.75l-0.15-0.73l-4.88-3.76l0.37-1.39l6.03-0.81l0.48-0.48l0.01-0.01l0.52-0.52l0.06-0.73
		c0-0.01,0.05-0.57,0.1-1.29c0.05-0.72,0.1-1.57,0.1-2.24C82.75,49.33,82.7,48.48,82.65,47.76z M59.44,71.1l-0.62-0.19l-0.55-0.17
		l-5.06,1.35l-0.41,0.44l-0.42,0.46l-0.77,5.7c-0.05,0-0.11,0.01-0.16,0.01c-0.54,0.03-1.1,0.06-1.45,0.06
		c-0.39,0-1.02-0.03-1.61-0.07l-0.77-5.7l-0.44-0.47l-0.4-0.43l-5.07-1.35l-0.57,0.18l-0.6,0.19l-3.43,4.45l-2.81-1.63l2.15-5.23
		l-0.16-0.65l-0.13-0.54l-3.67-3.66l-0.55-0.14l-0.64-0.16l-5.23,2.15l-1.63-2.82l4.45-3.43l0.19-0.62l0.17-0.55l-1.35-5.07
		l-0.44-0.41l-0.46-0.42l-5.7-0.77c0-0.05-0.01-0.11-0.01-0.16c-0.03-0.54-0.06-1.1-0.06-1.45c0-0.39,0.03-1.02,0.07-1.61l5.7-0.77
		l0.47-0.43l0.43-0.4l1.35-5.07l-0.18-0.57l-0.19-0.6l-4.45-3.43l1.63-2.81l5.23,2.15l0.65-0.16l0.54-0.13l3.67-3.67l0.14-0.55
		l0.16-0.64l-2.15-5.23l2.81-1.63l3.43,4.45l0.62,0.19l0.55,0.17l5.07-1.35l0.41-0.44l0.42-0.46l0.77-5.7
		c0.05,0,0.11-0.01,0.16-0.01c0.54-0.03,1.1-0.06,1.45-0.06c0.39,0,1.02,0.03,1.61,0.07l0.77,5.7l0.44,0.47l0.4,0.43l5.06,1.35
		l0.57-0.18l0.6-0.19l3.43-4.45l2.81,1.63l-2.15,5.23l0.16,0.65l0.13,0.54l3.67,3.67l0.55,0.14l0.64,0.16l5.23-2.15l1.63,2.81
		l-4.45,3.43l-0.19,0.62l-0.17,0.55l1.35,5.07l0.44,0.41l0.46,0.42l5.7,0.77c0,0.05,0.01,0.11,0.01,0.16
		c0.03,0.54,0.06,1.1,0.06,1.45c0,0.39-0.03,1.02-0.07,1.61l-5.7,0.77l-0.47,0.43l-0.43,0.4l-1.35,5.07l0.18,0.57l0.19,0.6
		l4.45,3.43l-1.63,2.82l-5.23-2.15l-0.65,0.16l-0.54,0.13l-3.67,3.66l-0.14,0.55l-0.16,0.64l2.15,5.23l-2.81,1.63L59.44,71.1z"/>
	<circle cx="50" cy="50" r="4.91"/>
</g>
</svg>
