<?xml version="1.0" encoding="utf-8"?>
<!-- Generator: Adobe Illustrator 16.0.0, SVG Export Plug-In . SVG Version: 6.00 Build 0)  -->
<!DOCTYPE svg PUBLIC "-//W3C//DTD SVG 1.1 Tiny//EN" "http://www.w3.org/Graphics/SVG/1.1/DTD/svg11-tiny.dtd">
<svg version="1.1" baseProfile="tiny" id="Capa_1" xmlns="http://www.w3.org/2000/svg" xmlns:xlink="http://www.w3.org/1999/xlink"
	 x="0px" y="0px" width="100px" height="100px" viewBox="0 0 100 100" xml:space="preserve">
<circle cx="50" cy="50" r="20"/>
<g>
	<path fill="#FFFFFF" d="M41.35,41.73c0.44-1.14,1.06-2.13,1.86-2.97c0.8-0.84,1.76-1.49,2.89-1.96c1.13-0.47,2.39-0.71,3.78-0.71
		c1.8,0,3.3,0.25,4.51,0.74c1.2,0.49,2.17,1.11,2.91,1.84c0.74,0.74,1.26,1.53,1.58,2.38c0.32,0.85,0.47,1.64,0.47,2.38
		c0,1.22-0.16,2.22-0.47,3.01c-0.32,0.79-0.71,1.46-1.18,2.02c-0.47,0.56-0.99,1.03-1.56,1.43c-0.57,0.39-1.11,0.79-1.62,1.18
		c-0.51,0.39-0.96,0.84-1.35,1.35c-0.39,0.51-0.64,1.14-0.74,1.9v1.44H47.3v-1.71c0.08-1.09,0.29-2,0.63-2.74
		c0.34-0.74,0.74-1.36,1.2-1.88c0.46-0.52,0.94-0.97,1.45-1.35c0.5-0.38,0.97-0.76,1.41-1.14c0.43-0.38,0.78-0.8,1.05-1.26
		c0.27-0.45,0.39-1.03,0.36-1.71c0-1.17-0.29-2.03-0.86-2.58c-0.57-0.56-1.36-0.84-2.38-0.84c-0.68,0-1.27,0.13-1.77,0.4
		c-0.5,0.27-0.9,0.62-1.22,1.06c-0.32,0.45-0.55,0.97-0.7,1.56c-0.15,0.6-0.23,1.23-0.23,1.92h-5.59
		C40.67,44.12,40.9,42.87,41.35,41.73z M52.74,58.05v5.86h-5.97v-5.86H52.74z"/>
</g>
</svg>
