<?xml version="1.0" encoding="utf-8"?>
<!-- Generator: Adobe Illustrator 16.0.0, SVG Export Plug-In . SVG Version: 6.00 Build 0)  -->
<!DOCTYPE svg PUBLIC "-//W3C//DTD SVG 1.1 Tiny//EN" "http://www.w3.org/Graphics/SVG/1.1/DTD/svg11-tiny.dtd">
<svg version="1.1" baseProfile="tiny" id="Capa_1" xmlns="http://www.w3.org/2000/svg" xmlns:xlink="http://www.w3.org/1999/xlink"
	 x="0px" y="0px" width="100px" height="100px" viewBox="0 0 100 100" xml:space="preserve">
<g>
	<circle cx="39.77" cy="62.23" r="4.77"/>
	<path d="M48.2,53.8c-2.15-2.15-5.14-3.49-8.43-3.49v0h-3.18v4.77h3.18l0,0c1.98,0,3.75,0.8,5.06,2.09c1.3,1.3,2.09,3.08,2.09,5.06
		h0v3.18h4.77v-3.18h0C51.69,58.95,50.35,55.95,48.2,53.8z"/>
	<path d="M39.77,43.15L39.77,43.15l-3.18,0v4.77h3.18l0,0c3.96,0,7.52,1.6,10.12,4.19c2.59,2.6,4.19,6.16,4.19,10.12v3.18h4.77
		v-3.18c0-5.26-2.14-10.04-5.59-13.49C49.81,45.29,45.03,43.15,39.77,43.15z"/>
	<path d="M66,62.23c0-7.24-2.94-13.81-7.68-18.55C53.58,38.94,47,36,39.77,36h-3.18v4.77h3.18c5.93,0,11.28,2.4,15.17,6.29
		c3.89,3.89,6.28,9.24,6.29,15.18l0,0v3.18H66L66,62.23L66,62.23z"/>
</g>
</svg>
