<?xml version="1.0" encoding="utf-8"?>
<!-- Generator: Adobe Illustrator 16.0.0, SVG Export Plug-In . SVG Version: 6.00 Build 0)  -->
<!DOCTYPE svg PUBLIC "-//W3C//DTD SVG 1.1 Tiny//EN" "http://www.w3.org/Graphics/SVG/1.1/DTD/svg11-tiny.dtd">
<svg version="1.1" baseProfile="tiny" id="Capa_1" xmlns="http://www.w3.org/2000/svg" xmlns:xlink="http://www.w3.org/1999/xlink"
	 x="0px" y="0px" width="100px" height="100px" viewBox="0 0 100 100" xml:space="preserve">
<path d="M61.11,47.53c0,0,0,0,0-9.73c0-1.63-0.35-3.17-1-4.5c-0.97-2.01-2.59-3.5-4.37-4.43c-1.79-0.94-3.77-1.37-5.74-1.37
	c-2.62,0.01-5.28,0.76-7.45,2.48c-1.08,0.86-2.01,1.98-2.66,3.31c-0.65,1.33-1,2.87-1,4.5c0,9.73,0,9.73,0,9.73H35.4V67h29.2V47.53
	H61.11z M44.89,47.53c0,0,0,0,0-9.73c0-0.8,0.16-1.39,0.4-1.88c0.36-0.73,0.93-1.29,1.76-1.73c0.82-0.43,1.88-0.69,2.96-0.68
	c1.44-0.01,2.83,0.46,3.7,1.17c0.44,0.36,0.77,0.76,1.01,1.25c0.24,0.49,0.39,1.08,0.4,1.88c0,9.73,0,9.73,0,9.73H44.89z"/>
</svg>
