<?xml version="1.0" encoding="utf-8"?>
<!-- Generator: Adobe Illustrator 16.0.0, SVG Export Plug-In . SVG Version: 6.00 Build 0)  -->
<!DOCTYPE svg PUBLIC "-//W3C//DTD SVG 1.1 Tiny//EN" "http://www.w3.org/Graphics/SVG/1.1/DTD/svg11-tiny.dtd">
<svg version="1.1" baseProfile="tiny" id="Capa_1" xmlns="http://www.w3.org/2000/svg" xmlns:xlink="http://www.w3.org/1999/xlink"
	 x="0px" y="0px" width="100px" height="100px" viewBox="0 0 100 100" xml:space="preserve">
<path d="M50,30c-11.05,0-20,8.95-20,20s8.95,20,20,20s20-8.95,20-20S61.05,30,50,30z M59.21,54.78c0.97,0.97,0.97,2.57,0,3.54
	l-0.89,0.89c-0.97,0.97-2.57,0.97-3.54,0l-4.83-4.86l-4.73,4.86c-0.97,0.97-2.57,0.97-3.54,0l-0.89-0.89
	c-0.97-0.97-0.97-2.57,0-3.54l5.31-5.06l-5.31-4.5c-0.97-0.97-0.97-2.57,0-3.54l0.89-0.89c0.97-0.97,2.57-0.97,3.54,0l4.8,5.08
	l4.76-5.08c0.97-0.97,2.57-0.97,3.54,0l0.89,0.89c0.97,0.97,0.97,2.57,0,3.54l-5.2,4.85L59.21,54.78z"/>
</svg>
