<?xml version="1.0" encoding="utf-8"?>
<!-- Generator: Adobe Illustrator 16.0.0, SVG Export Plug-In . SVG Version: 6.00 Build 0)  -->
<!DOCTYPE svg PUBLIC "-//W3C//DTD SVG 1.1 Tiny//EN" "http://www.w3.org/Graphics/SVG/1.1/DTD/svg11-tiny.dtd">
<svg version="1.1" baseProfile="tiny" id="Capa_1" xmlns="http://www.w3.org/2000/svg" xmlns:xlink="http://www.w3.org/1999/xlink"
	 x="0px" y="0px" width="100px" height="100px" viewBox="0 0 100 100" xml:space="preserve">
<path d="M-1230,32v36h-40V32H-1230 M-1229,28h-42c-1.65,0-3,1.35-3,3v38c0,1.65,1.35,3,3,3h42c1.65,0,3-1.35,3-3V31
	C-1226,29.35-1227.35,28-1229,28L-1229,28z"/>
<path d="M-1206,6v88h-88V45v-6V6h33h6H-1206 M-1205,2h-50c-1.65,0-4.35,0-6,0h-34c-1.65,0-3,1.35-3,3v34c0,1.65,0,4.35,0,6v50
	c0,1.65,1.35,3,3,3h90c1.65,0,3-1.35,3-3V5C-1202,3.35-1203.35,2-1205,2L-1205,2z"/>
<path d="M-1230,32v36h-40V32H-1230 M-1229,28h-42c-1.65,0-3,1.35-3,3v38c0,1.65,1.35,3,3,3h42c1.65,0,3-1.35,3-3V31
	C-1226,29.35-1227.35,28-1229,28L-1229,28z"/>
<path d="M-1206,6v88h-88V45v-6V6h33h6H-1206 M-1205,2h-50c-1.65,0-4.35,0-6,0h-34c-1.65,0-3,1.35-3,3v34c0,1.65,0,4.35,0,6v50
	c0,1.65,1.35,3,3,3h90c1.65,0,3-1.35,3-3V5C-1202,3.35-1203.35,2-1205,2L-1205,2z"/>
<path d="M50-231.33l-1.02,0.61L32-220.64v21.28l18,10.69l18-10.69v-21.28L50-231.33z M50-212.33l-12.08-7.17L50-226.67l12.08,7.17
	L50-212.33z M36-215.99l12,7.12v14.35l-12-7.12V-215.99z M52-194.51v-14.35l12-7.12v14.35L52-194.51z"/>
<g>
	<path d="M296.46-224.9c-2.19,0-3.96,1.77-3.96,3.96c0,2.19,1.77,3.96,3.96,3.96c2.19,0,3.96-1.77,3.96-3.96
		C300.42-223.13,298.64-224.9,296.46-224.9z M296.46-219.43c-0.84,0-1.51-0.68-1.51-1.52c0-0.84,0.68-1.51,1.51-1.52
		c0.84,0,1.51,0.68,1.51,1.52C297.97-220.11,297.3-219.43,296.46-219.43z"/>
	<path d="M296.46-213.96c-2.19,0-3.96,1.77-3.96,3.96c0,2.19,1.77,3.96,3.96,3.96c2.19,0,3.96-1.77,3.96-3.96
		C300.42-212.19,298.64-213.96,296.46-213.96z M296.46-208.48c-0.84,0-1.51-0.68-1.51-1.52c0-0.84,0.68-1.51,1.51-1.52
		c0.84,0,1.51,0.68,1.51,1.52C297.97-209.16,297.29-208.49,296.46-208.48z"/>
	<path d="M296.46-203.01c-2.19,0-3.96,1.77-3.96,3.96c0,2.19,1.77,3.96,3.96,3.96c2.19,0,3.96-1.77,3.96-3.96
		C300.42-201.24,298.64-203.01,296.46-203.01z M296.46-197.54c-0.84,0-1.51-0.68-1.51-1.52c0-0.84,0.68-1.51,1.51-1.52
		c0.84,0,1.51,0.68,1.51,1.52C297.97-198.22,297.29-197.54,296.46-197.54z"/>
	<rect x="302.81" y="-223.39" width="26.19" height="4.88"/>
	<rect x="302.81" y="-212.44" width="26.19" height="4.88"/>
	<rect x="302.81" y="-201.5" width="26.19" height="4.88"/>
</g>
<path d="M440-230c-11.05,0-20,8.95-20,20s8.95,20,20,20s20-8.95,20-20S451.04-230,440-230z M436.96-197.22l-9.34-11.19l-0.4-0.48
	l0.56-0.29c0.01-0.01,0.48-0.25,1.14-0.49c0.66-0.24,1.51-0.49,2.35-0.49c0.22,0,0.45,0.02,0.67,0.07c0.29,0.06,0.54,0.2,0.82,0.37
	c0.27,0.17,0.55,0.39,0.84,0.64c0.58,0.49,1.19,1.11,1.75,1.71c0.67,0.72,1.27,1.42,1.64,1.87c0.67-0.87,2.15-2.76,3.85-4.87
	c2.32-2.87,5.02-6.11,6.65-7.65c0.48-0.44,0.83-0.75,1.21-0.9c0.48-0.19,0.99-0.26,1.48-0.26c1.81,0.01,3.55,0.87,3.59,0.88
	l0.58,0.28L436.96-197.22z"/>
<path d="M-80-100c-11.05,0-20,8.95-20,20s8.95,20,20,20s20-8.95,20-20S-68.95-100-80-100z M-70.79-75.22c0.97,0.97,0.97,2.57,0,3.54
	l-0.89,0.89c-0.97,0.97-2.57,0.97-3.54,0l-4.83-4.86l-4.73,4.86c-0.97,0.97-2.57,0.97-3.54,0l-0.89-0.89
	c-0.97-0.97-0.97-2.57,0-3.54l5.31-5.06l-5.31-4.5c-0.97-0.97-0.97-2.57,0-3.54l0.89-0.89c0.97-0.97,2.57-0.97,3.54,0l4.8,5.08
	l4.76-5.08c0.97-0.97,2.57-0.97,3.54,0l0.89,0.89c0.97,0.97,0.97,2.57,0,3.54l-5.2,4.85L-70.79-75.22z"/>
<path d="M440-95.34c4.31,0,8.24,2.84,9.6,6.92c1.5,4.5-0.45,9.57-4.55,11.95l-2,1.16v2.31c0,1.23,0.3,2.12-0.94,2.74
	c-1.08,0.54-2.43,0.6-3.58,0.26c-0.37-0.11-1.6-0.55-1.6-1.09v-1.9v-2.31c-1.52-0.88-3.09-1.69-4.31-2.99
	c-1.94-2.07-2.95-4.92-2.72-7.75C430.34-91.23,434.81-95.34,440-95.34 M440-99.34c-6.07,0-11.6,4.03-13.45,9.81
	c-2,6.26,0.71,13.24,6.39,16.53c0,1.16-0.13,2.4,0.32,3.49c0.74,1.78,2.54,2.91,4.34,3.39c3.48,0.94,9.46-0.46,9.46-4.98
	c0-0.41,0-0.82,0-1.23c0-0.75,0.07-0.68,0.73-1.12c1.5-1,2.82-2.28,3.84-3.77c2.04-2.96,2.87-6.65,2.32-10.2
	C452.88-94.21,446.85-99.34,440-99.34z"/>
<path d="M444-64.9c-1.17,1.01-2.83,1.39-4.35,1.32c-0.76-0.04-1.52-0.19-2.23-0.48c-0.7-0.28-1.2-0.82-1.87-1.13
	c-1.27-0.59-2.78,0.32-2.84,1.72c-0.07,1.57,1.74,2.49,2.97,3.02c2.88,1.26,6.39,1.18,9.19-0.26c1.16-0.59,2.66-1.5,2.39-3.02
	C447-65.22,445.15-65.88,444-64.9C443.12-64.14,444.84-65.61,444-64.9z"/>
<path d="M180-230c-11.05,0-20,8.95-20,20s8.95,20,20,20s20-8.95,20-20S191.05-230,180-230z M182.74-196.1h-5.97v-5.86h5.97V-196.1z
	 M188.88-213.55c-0.32,0.79-0.71,1.46-1.18,2.02c-0.47,0.56-0.99,1.03-1.56,1.43c-0.57,0.39-1.11,0.79-1.62,1.18
	c-0.51,0.39-0.96,0.84-1.35,1.35c-0.39,0.51-0.64,1.14-0.74,1.9v1.44h-5.14v-1.71c0.08-1.09,0.29-2,0.63-2.74
	c0.34-0.74,0.74-1.36,1.2-1.88c0.46-0.52,0.94-0.97,1.45-1.35c0.5-0.38,0.97-0.76,1.41-1.14c0.43-0.38,0.78-0.8,1.05-1.26
	c0.27-0.45,0.39-1.03,0.36-1.71c0-1.17-0.29-2.03-0.86-2.58c-0.57-0.56-1.36-0.84-2.38-0.84c-0.68,0-1.27,0.13-1.77,0.4
	c-0.5,0.27-0.9,0.62-1.22,1.06c-0.32,0.45-0.55,0.97-0.7,1.56c-0.15,0.6-0.23,1.23-0.23,1.92h-5.59c0.03-1.37,0.26-2.62,0.71-3.77
	c0.44-1.14,1.06-2.13,1.86-2.97c0.8-0.84,1.76-1.49,2.89-1.96c1.13-0.47,2.39-0.71,3.78-0.71c1.8,0,3.3,0.25,4.51,0.74
	c1.2,0.49,2.17,1.11,2.91,1.84c0.74,0.74,1.26,1.53,1.58,2.38c0.32,0.85,0.47,1.64,0.47,2.38
	C189.36-215.34,189.2-214.34,188.88-213.55z"/>
<path fill="#020304" d="M50-101.98c-8.47,0-15.36,6.75-15.36,15.05c0,3.98,1.88,7.55,2.69,8.9l9.26,15.11l3.4,5.55l3.42-5.54
	L62.69-78c1.68-2.8,2.67-6.12,2.67-8.94C65.36-95.23,58.47-101.98,50-101.98z M49.83-81.61c-3.4,0-6.16-2.68-6.16-5.99
	s2.76-5.99,6.16-5.99c3.4,0,6.16,2.68,6.16,5.99S53.23-81.61,49.83-81.61z"/>
<path d="M202.6-77.5c0,0,0.01-0.01,0.01-0.01c0,0,0.14-1.64,0.14-2.49c0-0.84-0.14-2.49-0.14-2.49c0-0.01-0.01-0.01-0.01-0.01
	l-4.93-0.66c0,0-0.01-0.01-0.01-0.01l-0.78-2.91c0-0.01,0-0.01,0-0.02l3.94-3.04c0,0,0.01-0.01,0-0.02l-2.49-4.31
	c0,0-0.01-0.01-0.01,0l-4.61,1.89c0,0-0.01,0-0.02,0l-2.13-2.13c0,0-0.01-0.01,0-0.02l1.89-4.6c0,0,0-0.01,0-0.01l-4.31-2.49
	c0,0-0.01,0-0.01,0l-3.04,3.94c0,0-0.01,0.01-0.02,0l-2.91-0.77c0,0-0.01-0.01-0.01-0.01l-0.66-4.93c0-0.01-0.01-0.01-0.01-0.01
	c0,0-1.64-0.14-2.49-0.14s-2.49,0.14-2.49,0.14c-0.01,0-0.01,0.01-0.01,0.01l-0.66,4.93c0,0.01-0.01,0.01-0.01,0.01l-2.91,0.77
	c-0.01,0-0.01,0-0.02,0l-3.04-3.94c0,0-0.01-0.01-0.02,0l-4.31,2.49c0,0-0.01,0.01,0,0.01l1.89,4.6c0,0,0,0.01,0,0.02l-2.13,2.13
	c0,0-0.01,0.01-0.02,0l-4.6-1.89c0,0-0.01,0-0.01,0l-2.49,4.31c0,0,0,0.01,0,0.02l3.94,3.04c0,0,0.01,0.01,0,0.02l-0.78,2.91
	c0,0.01-0.01,0.01-0.01,0.01l-4.93,0.66c-0.01,0-0.01,0.01-0.01,0.01c0,0-0.14,1.64-0.14,2.49c0,0.84,0.14,2.49,0.14,2.49
	c0,0.01,0.01,0.01,0.01,0.01l4.93,0.66c0.01,0,0.01,0.01,0.01,0.01l0.78,2.91c0,0.01,0,0.01,0,0.02l-3.94,3.04c0,0-0.01,0.01,0,0.02
	l2.49,4.31c0,0,0.01,0.01,0.01,0l4.6-1.89c0,0,0.01,0,0.02,0l2.13,2.13c0,0,0.01,0.01,0,0.02l-1.89,4.61c0,0,0,0.01,0,0.01
	l4.31,2.49c0,0,0.01,0,0.02,0l3.04-3.94c0,0,0.01-0.01,0.02,0l2.91,0.77c0.01,0,0.01,0.01,0.01,0.01l0.66,4.93
	c0,0.01,0.01,0.01,0.01,0.01c0,0,1.64,0.14,2.49,0.14s2.49-0.14,2.49-0.14c0,0,0.01-0.01,0.01-0.01l0.66-4.93
	c0-0.01,0.01-0.01,0.01-0.01l2.91-0.77c0.01,0,0.01,0,0.02,0l3.04,3.94c0,0,0.01,0.01,0.01,0l4.31-2.49c0,0,0.01-0.01,0-0.01
	l-1.89-4.61c0,0,0-0.01,0-0.02l2.13-2.13c0,0,0.01-0.01,0.02,0l4.61,1.89c0,0,0.01,0,0.01,0l2.49-4.31c0,0,0-0.01,0-0.02l-3.94-3.04
	c0,0-0.01-0.01,0-0.02l0.78-2.91c0-0.01,0.01-0.01,0.01-0.01L202.6-77.5z M180-76.37c-2.01,0-3.63-1.63-3.63-3.63
	s1.62-3.63,3.63-3.63c2.01,0,3.63,1.63,3.63,3.63S182.01-76.37,180-76.37z"/>
<g>
	<path d="M201,28h-42c-1.65,0-3,1.35-3,3v38c0,1.65,1.35,3,3,3h42c1.65,0,3-1.35,3-3V31C204,29.35,202.65,28,201,28z M200,32v22.47
		l-7.66-5.89c-1.4-1.09-3.72-1.08-5.12,0l-2.62,2.01l0,0l-7.84,6.03c-2.11,1.62-5.12,2.64-7.78,2.65l-8.9,0
		c-0.03,0-0.05,0.01-0.08,0.01v-2c0.03,0,0.05-0.01,0.08-0.01l8.9,0c2.21,0.01,4.81-0.88,6.56-2.23l7.63-5.87l-6.35-6.35
		c-1.56-1.55-4.1-1.55-5.66,0l-10.34,10.34c-0.26,0.26-0.55,0.52-0.83,0.8V32H200z"/>
	<path d="M191,44c2.73,0,5-2.27,5-5s-2.27-5-5-5s-5,2.27-5,5S188.27,44,191,44z"/>
</g>
<g>
	<path d="M291.09,48.34l2.53,1.86l3.27-4.8l2.69,4.93l3.3-8.47l2.64,10.66l2.98-14.2l3.06,13.48l2.74-10.05l3.25,9.55l2.63-4.82
		l3.14,4.61l2.69-2.96l3.23,2.37l0.76-0.28c0-0.07,0.01-0.14,0.01-0.21c0-11.05-8.95-20-20-20c-10.61,0-19.27,8.27-19.94,18.71
		L291.09,48.34z"/>
	<path d="M328.91,52.74l-2.64-1.94l-3.18,3.5l-2.73-4l-3.24,5.95l-2.62-7.68l-3.13,11.48l-2.81-12.36l-2.89,13.8l-3.23-13.03
		l-2.57,6.6l-3.18-5.84l-2.6,3.81l-3.34-2.45l-0.73,0.27C290.49,61.5,299.24,70,310,70c10.23,0,18.66-7.69,19.84-17.6L328.91,52.74z
		"/>
</g>
<path d="M440,30c-11.05,0-20,8.95-20,20s8.95,20,20,20s20-8.95,20-20S451.05,30,440,30z M449.32,51.34l-14.63,7.32
	C433.21,59.4,432,58.65,432,57V43c0-1.65,1.21-2.4,2.68-1.66l14.63,7.32C450.79,49.4,450.79,50.6,449.32,51.34z"/>
<g>
	<polygon points="50.03,43.69 47.29,51.43 52.75,51.43 50.09,43.69 	"/>
	<path d="M50,30c-11.05,0-20,8.95-20,20s8.95,20,20,20s20-8.95,20-20S61.05,30,50,30z M55.55,59.58l-1.59-4.69h-7.88l-1.65,4.69
		h-4.66l7.97-21.08h4.75l7.88,21.08H55.55z"/>
</g>
<g>
	<path d="M69.78,176.22c-1.98-1.98-4.75-3.22-7.77-3.22H62h-3.43H52h-0.01c0,0-0.01,0-0.01,0l0,0c-1.13,0-2.23,0.18-3.26,0.5
		c0,0,0,0,0,0c-0.34,0.11-0.68,0.23-1,0.37c-0.1,0.04-0.2,0.1-0.3,0.15c-0.22,0.1-0.44,0.2-0.65,0.32c-0.21,0.11-0.4,0.24-0.6,0.36
		c-0.1,0.06-0.21,0.12-0.31,0.19c-0.58,0.4-1.13,0.84-1.62,1.34c-0.38,0.37-0.71,0.78-1.03,1.21c-0.08,0.11-0.15,0.23-0.23,0.34
		c-0.22,0.33-0.43,0.67-0.62,1.02c-0.04,0.07-0.07,0.13-0.1,0.2H49h2h7.57H62c1.39,0,2.62,0.55,3.54,1.46
		c0.91,0.91,1.46,2.15,1.46,3.54c0,1.39-0.55,2.62-1.46,3.54C64.62,188.45,63.39,189,62,189H52h-3v-0.05
		c-0.33,0.03-0.67,0.05-1,0.05h-5.77c0.04,0.07,0.07,0.13,0.1,0.2c0.19,0.35,0.4,0.69,0.62,1.02c0.08,0.11,0.15,0.23,0.23,0.34
		c0.32,0.43,0.66,0.84,1.03,1.21c1.98,1.98,4.75,3.22,7.77,3.22H52h10h0.01c3.03,0,5.79-1.24,7.77-3.22
		C71.76,189.8,73,187.03,73,184C73,180.97,71.76,178.2,69.78,176.22z"/>
	<path d="M48,187L48,187c0.01,0,0.02,0,0.02,0l0,0c1.13,0,2.23-0.18,3.26-0.5c0,0,0,0,0,0c0.34-0.11,0.68-0.23,1-0.37
		c0.1-0.04,0.19-0.09,0.29-0.14c0.23-0.1,0.45-0.21,0.67-0.32c0.18-0.1,0.35-0.21,0.52-0.31c0.13-0.08,0.26-0.15,0.39-0.24
		c0.58-0.39,1.13-0.84,1.62-1.34c0.38-0.37,0.72-0.78,1.03-1.21c0.08-0.11,0.15-0.23,0.23-0.34c0.22-0.33,0.43-0.67,0.62-1.02
		c0.04-0.07,0.07-0.13,0.1-0.2H51h-2h-7.57H38c-1.39,0-2.62-0.55-3.54-1.46C33.55,178.62,33,177.39,33,176
		c0-1.39,0.55-2.62,1.46-3.54c0.91-0.91,2.14-1.46,3.54-1.46h10h3v0.05c0.33-0.03,0.67-0.05,1-0.05h5.77
		c-0.04-0.07-0.07-0.13-0.1-0.2c-0.19-0.35-0.4-0.69-0.62-1.02c-0.08-0.11-0.15-0.23-0.23-0.34c-0.32-0.43-0.66-0.84-1.03-1.21
		c-1.98-1.98-4.75-3.22-7.77-3.22H48H38h-0.01c-3.03,0-5.79,1.24-7.77,3.22C28.24,170.2,27,172.97,27,176c0,3.03,1.24,5.8,3.22,7.78
		c1.98,1.98,4.75,3.22,7.77,3.22H38h3.43H48z"/>
</g>
<path d="M176.17,159L165,170.17V171v28h30v-40H176.17z M177.5,163.33v8.17h-8.17L177.5,163.33z M191,195h-22v-20.5h11.5V163H191V195
	z"/>
<path d="M-80,158c-12.15,0-22,9.85-22,22c0,12.15,9.85,22,22,22c12.15,0,22-9.85,22-22C-58,167.85-67.85,158-80,158z M-80,198
	c-4.98,0-9.46-2.01-12.73-5.27c-0.46-0.46-0.88-0.94-1.29-1.45c0.58-1.35,1.51-2.38,3.02-2.73c4.2-0.97,8.35-1.84,6.35-5.51
	c-5.91-10.88-1.68-17.04,4.66-17.04c6.22,0,10.55,5.94,4.66,17.04c-1.94,3.65,2.06,4.51,6.35,5.51c1.5,0.35,2.43,1.36,3.01,2.7
	c-0.41,0.52-0.85,1.01-1.31,1.48C-70.54,195.99-75.02,198-80,198z"/>
<g>
	<path d="M316.83-95.36c-0.16,0-0.4,0.17-0.69,0.52l-9.56,11.7c-0.59,0.73-1.2,2-1.45,3.02l-0.03,0.03l0.02,0.01
		c-0.03,0.12-0.06,0.25-0.07,0.36l-2.21,14.13c-0.15,0.96,0.34,1.16,0.95,0.43l9.04-10.71c0.68-0.81,1.4-2.34,1.58-3.39l2.62-15.17
		C317.15-95.05,317.06-95.36,316.83-95.36z M304.54-68.05l1.69-10.81c0.5,2.29,3.03,3.6,5.19,2.65L304.54-68.05z M312.17-78.63
		c-0.39,0.86-1.21,1.38-2.09,1.43c-0.21,0.02-0.41,0.01-0.62-0.03c-0.03-0.01-0.05-0.01-0.08-0.01c-0.56-0.13-0.95-0.41-1.34-0.81
		c-0.1-0.12-0.2-0.25-0.28-0.39c-0.01-0.01-0.01-0.01-0.01-0.02c-0.08-0.14-0.14-0.28-0.19-0.43c0-0.01,0-0.01-0.01-0.01
		c-0.55-1.69,0.86-3.43,2.62-3.24C311.84-81.96,312.87-80.15,312.17-78.63C311.78-77.77,312.75-79.88,312.17-78.63z"/>
	<path d="M310-102c-9.06,0-17.39,5.76-20.59,14.24c-3.23,8.58-0.67,18.51,6.28,24.47c6.96,5.96,17.21,6.96,25.18,2.42
		c7.93-4.52,12.31-13.72,10.83-22.72C329.98-94.09,320.62-102,310-102C297.85-102,322.15-102,310-102z M310-62
		c-11.08,0-19.69-10.34-17.71-21.24c1.97-10.85,13.66-17.48,23.99-13.64c8.09,3.01,12.97,11.63,11.43,20.11
		C326.18-68.31,318.58-62,310-62C305.02-62,314.98-62,310-62z"/>
</g>
<path d="M329.88,159.87h-39.75c-1.65,0-3,1.35-3,3v34.26c0,1.65,1.35,3,3,3h39.75c1.65,0,3-1.35,3-3v-34.26
	C332.88,161.22,331.53,159.87,329.88,159.87z M300.41,163.03c0.78,0,1.42,0.63,1.42,1.42s-0.63,1.41-1.42,1.41s-1.42-0.63-1.42-1.41
	S299.63,163.03,300.41,163.03z M296.06,163.03c0.78,0,1.42,0.63,1.42,1.42c0,0.78-0.63,1.41-1.42,1.41s-1.41-0.63-1.41-1.41
	C294.64,163.66,295.27,163.03,296.06,163.03z M290.29,164.45c0-0.78,0.63-1.42,1.42-1.42s1.41,0.63,1.41,1.42
	c0,0.78-0.63,1.41-1.41,1.41S290.29,165.23,290.29,164.45z M328.88,196.13h-37.75v-26.36h37.75V196.13z"/>
<g>
	<circle cx="429.77" cy="192.23" r="4.77"/>
	<path d="M438.2,183.8c-2.15-2.15-5.14-3.49-8.43-3.49v0h-3.18v4.77h3.18l0,0c1.98,0,3.75,0.8,5.06,2.09
		c1.3,1.3,2.09,3.08,2.09,5.06h0v3.18h4.77v-3.18h0C441.69,188.95,440.35,185.95,438.2,183.8z"/>
	<path d="M429.77,173.15L429.77,173.15l-3.18,0v4.77h3.18l0,0c3.96,0,7.52,1.6,10.12,4.19c2.59,2.6,4.19,6.16,4.19,10.12v3.18h4.77
		v-3.18c0-5.26-2.14-10.04-5.59-13.49C439.81,175.29,435.03,173.15,429.77,173.15z"/>
	<path d="M456,192.23c0-7.24-2.94-13.81-7.68-18.55c-4.74-4.74-11.31-7.68-18.55-7.68h-3.18v4.77h3.18c5.93,0,11.28,2.4,15.17,6.29
		c3.89,3.89,6.28,9.24,6.29,15.18l0,0v3.18H456L456,192.23L456,192.23z"/>
</g>
<g>
	<path d="M-59,32h-42c-1.65,0-3,1.35-3,3v30c0,1.65,1.35,3,3,3h42c1.65,0,3-1.35,3-3V35C-56,33.35-57.35,32-59,32z M-60,64h-40V36
		h40V64z"/>
	<path d="M-83,59.22c0.53,0.48,1.23,0.78,2,0.78h2v-2h-2c-0.54,0-1-0.46-1-1V43c0-0.54,0.46-1,1-1h2v-2h-2c-0.77,0-1.47,0.3-2,0.78
		C-83.53,40.3-84.23,40-85,40h-2v2h2c0.54,0,1,0.46,1,1v14c0,0.54-0.46,1-1,1h-2v2h2C-84.23,60-83.53,59.7-83,59.22L-83,59.22z"/>
	<path d="M-94.5,53c0.01,1.94,1.57,3.49,3.5,3.5h2v-3h-2c-0.27,0-0.5-0.23-0.5-0.5v-6.5h2.5v-3h-2.5V41h-3v2.5H-97v3h2.5V53z"/>
</g>
<path d="M-68.89,307.53c0,0,0,0,0-9.73c0-1.63-0.35-3.17-1-4.5c-0.97-2.01-2.59-3.5-4.37-4.43c-1.79-0.94-3.77-1.37-5.74-1.37
	c-2.62,0.01-5.28,0.76-7.45,2.48c-1.08,0.86-2.01,1.98-2.66,3.31c-0.65,1.33-1,2.87-1,4.5c0,9.73,0,9.73,0,9.73h-3.49V327h29.2
	v-19.47H-68.89z M-85.11,307.53c0,0,0,0,0-9.73c0-0.8,0.16-1.39,0.4-1.88c0.36-0.73,0.93-1.29,1.76-1.73
	c0.82-0.43,1.88-0.69,2.96-0.68c1.44-0.01,2.83,0.46,3.7,1.17c0.44,0.36,0.77,0.76,1.01,1.25c0.24,0.49,0.39,1.08,0.4,1.88
	c0,9.73,0,9.73,0,9.73H-85.11z"/>
<path d="M71.11,293.29c-0.97-2.01-2.59-3.5-4.37-4.43c-1.79-0.94-3.77-1.37-5.74-1.37c-2.62,0.01-5.28,0.76-7.45,2.48
	c-1.08,0.86-2.01,1.98-2.66,3.31c-0.65,1.33-1,2.87-1,4.5c0,9.73,0,9.73,0,9.73h-19V327h29.2v-19.47h-4.2c0,0,0,0,0-9.73
	c0-0.8,0.16-1.39,0.39-1.88c0.36-0.73,0.93-1.29,1.76-1.73c0.82-0.43,1.88-0.69,2.96-0.68c1.44-0.01,2.83,0.46,3.7,1.17
	c0.44,0.36,0.77,0.76,1.01,1.25c0.24,0.49,0.39,1.08,0.4,1.88c0,9.73,0,9.73,0,9.73h6c0,0,0,0,0-9.73
	C72.11,296.17,71.76,294.63,71.11,293.29z"/>
</svg>
