<?xml version="1.0" encoding="utf-8"?>
<!-- Generator: Adobe Illustrator 16.0.0, SVG Export Plug-In . SVG Version: 6.00 Build 0)  -->
<!DOCTYPE svg PUBLIC "-//W3C//DTD SVG 1.1 Tiny//EN" "http://www.w3.org/Graphics/SVG/1.1/DTD/svg11-tiny.dtd">
<svg version="1.1" baseProfile="tiny" id="Capa_1" xmlns="http://www.w3.org/2000/svg" xmlns:xlink="http://www.w3.org/1999/xlink"
	 x="0px" y="0px" width="100px" height="100px" viewBox="0 0 100 100" xml:space="preserve">
<g>
	<path d="M56.83,34.64c-0.16,0-0.4,0.17-0.69,0.52l-9.56,11.7c-0.59,0.73-1.2,2-1.45,3.02l-0.03,0.03l0.02,0.01
		c-0.03,0.12-0.06,0.25-0.07,0.36L42.85,64.4c-0.15,0.96,0.34,1.16,0.95,0.43l9.04-10.71c0.68-0.81,1.4-2.34,1.58-3.39l2.62-15.17
		C57.15,34.95,57.06,34.64,56.83,34.64z M44.54,61.95l1.69-10.81c0.5,2.29,3.03,3.6,5.19,2.65L44.54,61.95z M52.17,51.37
		c-0.39,0.86-1.21,1.38-2.09,1.43c-0.21,0.02-0.41,0.01-0.62-0.03c-0.03-0.01-0.05-0.01-0.08-0.01c-0.56-0.13-0.95-0.41-1.34-0.81
		c-0.1-0.12-0.2-0.25-0.28-0.39c-0.01-0.01-0.01-0.01-0.01-0.02c-0.08-0.14-0.14-0.28-0.19-0.43c0-0.01,0-0.01-0.01-0.01
		c-0.55-1.69,0.86-3.43,2.62-3.24C51.84,48.04,52.87,49.85,52.17,51.37C51.78,52.23,52.75,50.12,52.17,51.37z"/>
	<path d="M50,28c-9.06,0-17.39,5.76-20.59,14.24c-3.23,8.58-0.67,18.51,6.28,24.47c6.96,5.96,17.21,6.96,25.18,2.42
		c7.93-4.52,12.31-13.72,10.83-22.72C69.98,35.91,60.62,28,50,28C37.85,28,62.15,28,50,28z M50,68c-11.08,0-19.69-10.34-17.71-21.24
		c1.97-10.85,13.66-17.48,23.99-13.64c8.09,3.01,12.97,11.63,11.43,20.11C66.18,61.69,58.58,68,50,68C45.02,68,54.98,68,50,68z"/>
</g>
</svg>
