<?xml version="1.0" encoding="utf-8"?>
<!-- Generator: Adobe Illustrator 16.0.0, SVG Export Plug-In . SVG Version: 6.00 Build 0)  -->
<!DOCTYPE svg PUBLIC "-//W3C//DTD SVG 1.1 Tiny//EN" "http://www.w3.org/Graphics/SVG/1.1/DTD/svg11-tiny.dtd">
<svg version="1.1" baseProfile="tiny" id="Capa_1" xmlns="http://www.w3.org/2000/svg" xmlns:xlink="http://www.w3.org/1999/xlink"
	 x="0px" y="0px" width="100px" height="100px" viewBox="0 0 100 100" xml:space="preserve">
<g>
	<path d="M23,35.5c1.94,0,1.94-3,0-3h-1c-1.94,0-1.94,3,0,3H23z"/>
	<path d="M14,35.5c1.94,0,1.94-3,0-3h-1c-1.94,0-1.94,3,0,3H14z"/>
	<path d="M32,35.5c1.94,0,1.94-3,0-3h-1c-1.94,0-1.94,3,0,3H32z"/>
	<path d="M4,35.5h1c1.94,0,1.94-3,0-3H4C2.06,32.5,2.06,35.5,4,35.5z"/>
	<path d="M44,35.5h1c1.94,0,1.94-3,0-3h-1C42.06,32.5,42.06,35.5,44,35.5z"/>
	<path d="M53,35.5h1c1.94,0,1.94-3,0-3h-1C51.06,32.5,51.06,35.5,53,35.5z"/>
	<path d="M79.5,34c0-0.83-0.67-1.5-1.5-1.5h-1c-1.94,0-1.94,3,0,3h1C78.83,35.5,79.5,34.83,79.5,34z"/>
	<path d="M68,32.5c-1.94,0-1.94,3,0,3h1c1.94,0,1.94-3,0-3H68z"/>
	<path d="M90,35.5h1c1.94,0,1.94-3,0-3h-1C88.06,32.5,88.06,35.5,90,35.5z"/>
	<path d="M96,66H40v-6.26c2.81-0.72,5.01-2.93,5.74-5.74H54c5.51-0.01,9.99-4.49,10-10V25.74c2.81-0.72,5.01-2.93,5.74-5.74H76
		c3.26,0,6,2.74,6,6v18.26C73.16,46.54,74.86,60,84,60c9.14,0,10.84-13.46,2-15.74V26c-0.01-5.51-4.49-9.99-10-10h-6.26
		c-1.42-5.52-8.29-7.82-12.74-4.24c-5.04,4.04-3.25,12.37,3,13.98V44c0,3.26-2.74,6-6,6h-8.26c-0.72-2.81-2.93-5.01-5.74-5.74V26
		c0-8.77-7.32-10-14.26-10C23.46,7.16,10,8.86,10,18c0,9.14,13.46,10.84,15.74,2c4.59,0,10.27-0.21,10.26,6v18.26
		c-7.8,2.01-7.8,13.46,0,15.47V66H4c-2.59,0-2.59,4,0,4h32v8.26C27.16,80.54,28.86,94,38,94c9.14,0,10.84-13.46,2-15.74V70h56
		C98.59,70,98.59,66,96,66z M88,52c0,5.16-8,5.16-8,0C80,46.84,88,46.84,88,52C88,53.11,88,50.89,88,52z M58,18c0-5.16,8-5.16,8,0
		C66,23.16,58,23.16,58,18C58,16.89,58,19.11,58,18z M20.83,20.83c-3.66,3.64-9.3-2-5.66-5.66C18.83,11.53,24.47,17.17,20.83,20.83
		C20.1,21.56,21.56,20.1,20.83,20.83z M34,52c0-5.16,8-5.16,8,0C42,57.16,34,57.16,34,52C34,50.89,34,53.11,34,52z M42,86
		c0,5.16-8,5.16-8,0C34,80.84,42,80.84,42,86C42,87.11,42,84.89,42,86z"/>
</g>
</svg>
