<?xml version="1.0" encoding="utf-8"?>
<!-- Generator: Adobe Illustrator 16.0.0, SVG Export Plug-In . SVG Version: 6.00 Build 0)  -->
<!DOCTYPE svg PUBLIC "-//W3C//DTD SVG 1.1 Tiny//EN" "http://www.w3.org/Graphics/SVG/1.1/DTD/svg11-tiny.dtd">
<svg version="1.1" baseProfile="tiny" id="Capa_1" xmlns="http://www.w3.org/2000/svg" xmlns:xlink="http://www.w3.org/1999/xlink"
	 x="0px" y="0px" width="100px" height="100px" viewBox="0 0 100 100" xml:space="preserve">
<g>
	<path d="M31,72h38c1.65,0,3-1.35,3-3V31c0-1.65-1.35-3-3-3H31c-1.65,0-3,1.35-3,3v38C28,70.65,29.35,72,31,72z M32,32h36v36H32V32z
		"/>
	<polygon points="52,44 48,44 48,48 44,48 44,52 48,52 48,56 52,56 52,52 56,52 56,48 52,48 	"/>
	<path d="M95,2H5C3.35,2,2,3.35,2,5v90c0,1.65,1.35,3,3,3h90c1.65,0,3-1.35,3-3V5C98,3.35,96.65,2,95,2z M94,94H6V6h88V94z"/>
</g>
</svg>
