<?xml version="1.0" encoding="utf-8"?>
<!-- Generator: Adobe Illustrator 16.0.0, SVG Export Plug-In . SVG Version: 6.00 Build 0)  -->
<!DOCTYPE svg PUBLIC "-//W3C//DTD SVG 1.1 Tiny//EN" "http://www.w3.org/Graphics/SVG/1.1/DTD/svg11-tiny.dtd">
<svg version="1.1" baseProfile="tiny" id="Capa_1" xmlns="http://www.w3.org/2000/svg" xmlns:xlink="http://www.w3.org/1999/xlink"
	 x="0px" y="0px" width="100px" height="100px" viewBox="0 0 100 100" xml:space="preserve">
<g>
	<path d="M5,46h38c1.65,0,3-1.35,3-3V5c0-1.65-1.35-3-3-3H5C3.35,2,2,3.35,2,5v38C2,44.65,3.35,46,5,46z M6,6h36v36H6V6z"/>
	<polygon points="26,18 22,18 22,22 18,22 18,26 22,26 22,30 26,30 26,26 30,26 30,22 26,22 	"/>
	<path d="M95,2H53c-1.65,0-3,1.35-3,3v42c0,1.65-1.35,3-3,3H5c-1.65,0-3,1.35-3,3v42c0,1.65,1.35,3,3,3h90c1.65,0,3-1.35,3-3V5
		C98,3.35,96.65,2,95,2z M94,94H6V54h41c3.86,0,7-3.14,7-7V6h40V94z"/>
</g>
</svg>
