<?xml version="1.0" encoding="utf-8"?>
<!-- Generator: Adobe Illustrator 16.0.0, SVG Export Plug-In . SVG Version: 6.00 Build 0)  -->
<!DOCTYPE svg PUBLIC "-//W3C//DTD SVG 1.1 Tiny//EN" "http://www.w3.org/Graphics/SVG/1.1/DTD/svg11-tiny.dtd">
<svg version="1.1" baseProfile="tiny" id="Capa_1" xmlns="http://www.w3.org/2000/svg" xmlns:xlink="http://www.w3.org/1999/xlink"
	 x="0px" y="0px" width="100px" height="100px" viewBox="0 0 100 100" xml:space="preserve">
<g>
	<path d="M43,2H5C3.35,2,2,3.35,2,5v38c0,1.65,1.35,3,3,3h38c1.65,0,3-1.35,3-3V5C46,3.35,44.65,2,43,2z M42,42H6V6h36V42z"/>
	<polygon points="22,30 26,30 26,26 30,26 30,22 26,22 26,18 22,18 22,22 18,22 18,26 22,26 	"/>
	<path d="M95,2H57c-1.65,0-3,1.35-3,3v38c0,1.65,1.35,3,3,3h38c1.65,0,3-1.35,3-3V5C98,3.35,96.65,2,95,2z M94,42H58V6h36V42z"/>
	<polygon points="74,30 78,30 78,26 82,26 82,22 78,22 78,18 74,18 74,22 70,22 70,26 74,26 	"/>
	<path d="M43,54H5c-1.65,0-3,1.35-3,3v38c0,1.65,1.35,3,3,3h38c1.65,0,3-1.35,3-3V57C46,55.35,44.65,54,43,54z M42,94H6V58h36V94z"
		/>
	<polygon points="22,82 26,82 26,78 30,78 30,74 26,74 26,70 22,70 22,74 18,74 18,78 22,78 	"/>
	<path d="M95,54H57c-1.65,0-3,1.35-3,3v38c0,1.65,1.35,3,3,3h38c1.65,0,3-1.35,3-3V57C98,55.35,96.65,54,95,54z M94,94H58V58h36V94z
		"/>
	<polygon points="74,82 78,82 78,78 82,78 82,74 78,74 78,70 74,70 74,74 70,74 70,78 74,78 	"/>
</g>
</svg>
