<?xml version="1.0" encoding="utf-8"?>
<!-- Generator: Adobe Illustrator 16.0.0, SVG Export Plug-In . SVG Version: 6.00 Build 0)  -->
<!DOCTYPE svg PUBLIC "-//W3C//DTD SVG 1.1 Tiny//EN" "http://www.w3.org/Graphics/SVG/1.1/DTD/svg11-tiny.dtd">
<svg version="1.1" baseProfile="tiny" id="Capa_1" xmlns="http://www.w3.org/2000/svg" xmlns:xlink="http://www.w3.org/1999/xlink"
	 x="0px" y="0px" width="100px" height="100px" viewBox="0 0 100 100" xml:space="preserve">
<g>
	<polygon points="30,26 30,22 26,22 26,18 22,18 22,22 18,22 18,26 22,26 22,30 26,30 26,26 	"/>
	<path d="M95,46c1.65,0,3-1.35,3-3V5c0-1.65-1.35-3-3-3H57c-1.65,0-3,1.35-3,3v23h-8V5c0-1.65-1.35-3-3-3H5C3.35,2,2,3.35,2,5v38
		c0,1.65,1.35,3,3,3h23v8H5c-1.65,0-3,1.35-3,3v38c0,1.65,1.35,3,3,3h38c1.65,0,3-1.35,3-3V72h8v23c0,1.65,1.35,3,3,3h38
		c1.65,0,3-1.35,3-3V57c0-1.65-1.35-3-3-3H72v-8H95z M58,6h36v36H72V31c0-1.65-1.35-3-3-3H58V6z M58,32h10v10H58V32z M6,42V6h36v22
		H31c-1.65,0-3,1.35-3,3v11H6z M42,32v10H32V32H42z M42,94H6V58h22v11c0,1.65,1.35,3,3,3h11V94z M42,68H32V58h10V68z M94,58v36H58
		V72h11c1.65,0,3-1.35,3-3V58H94z M58,68V58h10v10H58z M68,54H57c-1.65,0-3,1.35-3,3v11h-8V57c0-1.65-1.35-3-3-3H32v-8h11
		c1.65,0,3-1.35,3-3V32h8v11c0,1.65,1.35,3,3,3h11V54z"/>
	<polygon points="74,30 78,30 78,26 82,26 82,22 78,22 78,18 74,18 74,22 70,22 70,26 74,26 	"/>
	<polygon points="26,70 22,70 22,74 18,74 18,78 22,78 22,82 26,82 26,78 30,78 30,74 26,74 	"/>
	<polygon points="70,74 70,78 74,78 74,82 78,82 78,78 82,78 82,74 78,74 78,70 74,70 74,74 	"/>
	<polygon points="52,44 48,44 48,48 44,48 44,52 48,52 48,56 52,56 52,52 56,52 56,48 52,48 	"/>
</g>
</svg>
