<?xml version="1.0" encoding="utf-8"?>
<!-- Generator: Adobe Illustrator 16.0.0, SVG Export Plug-In . SVG Version: 6.00 Build 0)  -->
<!DOCTYPE svg PUBLIC "-//W3C//DTD SVG 1.1 Tiny//EN" "http://www.w3.org/Graphics/SVG/1.1/DTD/svg11-tiny.dtd">
<svg version="1.1" baseProfile="tiny" id="Capa_1" xmlns="http://www.w3.org/2000/svg" xmlns:xlink="http://www.w3.org/1999/xlink"
	 x="0px" y="0px" width="100px" height="100px" viewBox="0 0 100 100" xml:space="preserve">
<path d="M68,43c-1.5,0-2.87,0.55-3.92,1.46C62.44,42.36,59.88,41,57,41s-5.44,1.36-7.08,3.46C48.87,43.55,47.5,43,46,43
	c-1.5,0-2.87,0.55-3.92,1.46C40.44,42.36,37.88,41,35,41c-4.97,0-9,4.03-9,9c0,4.97,4.03,9,9,9c4.97,0,9-4.03,9-9
	c0-0.34-0.02-0.67-0.06-1H44c0-0.56,0.22-1.05,0.59-1.41C44.95,47.22,45.44,47,46,47c0.56,0,1.05,0.22,1.41,0.59
	C47.78,47.95,48,48.44,48,49h0.06C48.02,49.33,48,49.66,48,50c0,4.97,4.03,9,9,9c4.97,0,9-4.03,9-9c0-0.22-0.02-0.45-0.03-0.67
	C65.98,49.22,66,49.12,66,49c0-0.56,0.22-1.05,0.59-1.41C66.95,47.22,67.44,47,68,47c0.56,0,1.05,0.22,1.41,0.59
	C69.78,47.95,70,48.44,70,49c0,1.1,0.9,2,2,2s2-0.9,2-2C74,45.69,71.31,43,68,43z M38.54,53.54C37.62,54.44,36.39,55,35,55
	c-1.39,0-2.62-0.56-3.54-1.46C30.56,52.62,30,51.39,30,50c0-1.39,0.56-2.62,1.46-3.54C32.38,45.56,33.61,45,35,45
	c1.39,0,2.62,0.56,3.54,1.46C39.44,47.38,40,48.61,40,50C40,51.39,39.44,52.62,38.54,53.54z M60.54,53.54
	C59.62,54.44,58.39,55,57,55c-1.39,0-2.62-0.56-3.54-1.46C52.56,52.62,52,51.39,52,50c0-1.39,0.56-2.62,1.46-3.54
	C54.38,45.56,55.61,45,57,45c1.39,0,2.62,0.56,3.54,1.46C61.44,47.38,62,48.61,62,50C62,51.39,61.44,52.62,60.54,53.54z"/>
</svg>
