<?xml version="1.0" encoding="utf-8"?>
<!-- Generator: Adobe Illustrator 16.0.0, SVG Export Plug-In . SVG Version: 6.00 Build 0)  -->
<!DOCTYPE svg PUBLIC "-//W3C//DTD SVG 1.1 Tiny//EN" "http://www.w3.org/Graphics/SVG/1.1/DTD/svg11-tiny.dtd">
<svg version="1.1" baseProfile="tiny" id="Capa_1" xmlns="http://www.w3.org/2000/svg" xmlns:xlink="http://www.w3.org/1999/xlink"
	 x="0px" y="0px" width="100px" height="100px" viewBox="0 0 100 100" xml:space="preserve">
<path fill="#191111" d="M64.34,34.5c0.99,0.98,2.06,3.13,2.38,4.77s-0.75,5.38-2.39,8.32s-4.86,7.22-7.15,9.54s-6.58,5.54-9.54,7.18
	s-6.71,2.72-8.36,2.4s-3.81-1.39-4.8-2.38s-1.79-2.34-1.77-3s1.14-2.3,2.5-3.65s2.96-2.42,3.58-2.38s1.92,0.88,2.9,1.86
	s2.06,2.06,2.38,2.38s1.94-0.21,3.58-1.19s4.59-3.4,6.56-5.36s4.11-4.65,4.77-5.96s0.92-2.65,0.6-2.98s-1.4-1.4-2.38-2.38
	s-1.79-2.32-1.79-2.98s1.07-2.26,2.38-3.58s2.92-2.38,3.58-2.38S63.36,33.52,64.34,34.5z"/>
</svg>
