<?xml version="1.0" encoding="utf-8"?>
<!-- Generator: Adobe Illustrator 16.0.0, SVG Export Plug-In . SVG Version: 6.00 Build 0)  -->
<!DOCTYPE svg PUBLIC "-//W3C//DTD SVG 1.1 Tiny//EN" "http://www.w3.org/Graphics/SVG/1.1/DTD/svg11-tiny.dtd">
<svg version="1.1" baseProfile="tiny" id="Capa_1" xmlns="http://www.w3.org/2000/svg" xmlns:xlink="http://www.w3.org/1999/xlink"
	 x="0px" y="0px" width="100px" height="100px" viewBox="0 0 100 100" xml:space="preserve">
<g>
	<path d="M71.53,65.3c4.33-2.47,6.89-6.39,6.89-10.66c0-7.25-7.48-13.15-16.67-13.15s-16.67,5.9-16.67,13.15
		c0,7.11,7.19,12.92,16.14,13.14c2.28,4.24,7.34,4.74,12.43,4.74c1.09,0,2.17-0.02,3.24-0.04C73.99,70.69,71.96,67.23,71.53,65.3z
		 M67.63,66.17c0.13,0.6,0.35,1.25,0.63,1.93c-1.84-0.4-2.92-1.11-3.51-2.21l-1.1-2.04l-2.32-0.06c-6.75-0.17-12.24-4.27-12.24-9.14
		c0-4.96,5.8-9.15,12.67-9.15s12.67,4.19,12.67,9.15c0,2.8-1.77,5.42-4.87,7.18l-2.57,1.46L67.63,66.17z"/>
	<path d="M46.03,63.41l-0.44,1.22c-0.82,2.28-3.26,3.84-7.29,4.67c0.95-2.04,1.5-4.11,1.64-6.2l0.18-2.67l-2.4-1.19
		C31.63,56.22,28,51.27,28,46c0-8.82,9.87-16,22-16c9.65,0,17.85,4.54,20.82,10.83c1.9,0.82,3.6,1.9,5.05,3.17
		C74.57,33.89,63.48,26,50,26c-14.36,0-26,8.95-26,20c0,7.06,4.76,13.26,11.95,16.82C35.69,66.55,33.73,70.27,30,74
		c8.38,0,16.73-1.42,19.24-7.75C48.02,65.42,46.95,64.46,46.03,63.41z"/>
</g>
</svg>
