<?xml version="1.0" encoding="utf-8"?>
<!-- Generator: Adobe Illustrator 16.0.0, SVG Export Plug-In . SVG Version: 6.00 Build 0)  -->
<!DOCTYPE svg PUBLIC "-//W3C//DTD SVG 1.1 Tiny//EN" "http://www.w3.org/Graphics/SVG/1.1/DTD/svg11-tiny.dtd">
<svg version="1.1" baseProfile="tiny" id="Capa_1" xmlns="http://www.w3.org/2000/svg" xmlns:xlink="http://www.w3.org/1999/xlink"
	 x="0px" y="0px" width="100px" height="100px" viewBox="0 0 100 100" xml:space="preserve">
<path d="M50,34.66c4.31,0,8.24,2.84,9.6,6.92c1.5,4.5-0.45,9.57-4.55,11.95l-2,1.16v2.31c0,1.23,0.3,2.12-0.94,2.74
	c-1.08,0.54-2.43,0.6-3.58,0.26c-0.37-0.11-1.6-0.55-1.6-1.09v-1.9v-2.31c-1.52-0.88-3.09-1.69-4.31-2.99
	c-1.94-2.07-2.95-4.92-2.72-7.75C40.34,38.77,44.81,34.66,50,34.66 M50,30.66c-6.07,0-11.6,4.03-13.45,9.81
	c-2,6.26,0.71,13.24,6.39,16.53c0,1.16-0.13,2.4,0.32,3.49c0.74,1.78,2.54,2.91,4.34,3.39c3.48,0.94,9.46-0.46,9.46-4.98
	c0-0.41,0-0.82,0-1.23c0-0.75,0.07-0.68,0.73-1.12c1.5-1,2.82-2.28,3.84-3.77c2.04-2.96,2.87-6.65,2.32-10.2
	C62.88,35.79,56.85,30.66,50,30.66z"/>
<path d="M54,65.1c-1.17,1.01-2.83,1.39-4.35,1.32c-0.76-0.04-1.52-0.19-2.23-0.48c-0.7-0.28-1.2-0.82-1.87-1.13
	c-1.27-0.59-2.78,0.32-2.84,1.72c-0.07,1.57,1.74,2.49,2.97,3.02c2.88,1.26,6.39,1.18,9.19-0.26c1.16-0.59,2.66-1.5,2.39-3.02
	C57,64.78,55.15,64.12,54,65.1C53.12,65.86,54.84,64.39,54,65.1z"/>
</svg>
