<?xml version="1.0" encoding="utf-8"?>
<!-- Generator: Adobe Illustrator 16.0.0, SVG Export Plug-In . SVG Version: 6.00 Build 0)  -->
<!DOCTYPE svg PUBLIC "-//W3C//DTD SVG 1.1 Tiny//EN" "http://www.w3.org/Graphics/SVG/1.1/DTD/svg11-tiny.dtd">
<svg version="1.1" baseProfile="tiny" id="Capa_1" xmlns="http://www.w3.org/2000/svg" xmlns:xlink="http://www.w3.org/1999/xlink"
	 x="0px" y="0px" width="100px" height="100px" viewBox="0 0 100 100" xml:space="preserve">
<g>
	<path d="M50,37.5c-6.9,0-12.5,5.6-12.5,12.5c0,6.9,5.6,12.5,12.5,12.5c6.9,0,12.5-5.6,12.5-12.5C62.5,43.1,56.9,37.5,50,37.5z
		 M56.72,56.72c-1.72,1.72-4.09,2.78-6.72,2.78c-2.63,0-4.99-1.06-6.72-2.78c-1.72-1.72-2.78-4.09-2.78-6.72
		c0-2.63,1.06-4.99,2.78-6.72c1.72-1.72,4.09-2.78,6.72-2.78c2.63,0,4.99,1.06,6.72,2.78c1.72,1.72,2.78,4.09,2.78,6.72
		C59.5,52.63,58.44,54.99,56.72,56.72z"/>
	<circle cx="50" cy="50" r="7"/>
</g>
</svg>
