<?xml version="1.0" encoding="utf-8"?>
<!-- Generator: Adobe Illustrator 16.0.0, SVG Export Plug-In . SVG Version: 6.00 Build 0)  -->
<!DOCTYPE svg PUBLIC "-//W3C//DTD SVG 1.1 Tiny//EN" "http://www.w3.org/Graphics/SVG/1.1/DTD/svg11-tiny.dtd">
<svg version="1.1" baseProfile="tiny" id="Capa_1" xmlns="http://www.w3.org/2000/svg" xmlns:xlink="http://www.w3.org/1999/xlink"
	 x="0px" y="0px" width="100px" height="100px" viewBox="0 0 100 100" xml:space="preserve">
<path d="M50,26c-14.36,0-26,8.95-26,20c0,7.06,4.76,13.26,11.95,16.82C35.69,66.55,33.73,70.27,30,74c8.5,0,16.99-1.45,19.35-8.01
	c0.22,0,0.43,0.01,0.65,0.01c14.36,0,26-8.95,26-20S64.36,26,50,26z M50,62c-0.11,0-0.21,0-0.31-0.01l-0.26-0.01l-2.87-0.05
	l-0.97,2.7c-0.82,2.28-3.26,3.84-7.29,4.67c0.95-2.04,1.5-4.11,1.64-6.2l0.18-2.67l-2.4-1.19C31.63,56.22,28,51.27,28,46
	c0-8.82,9.87-16,22-16s22,7.18,22,16S62.13,62,50,62z"/>
</svg>
