<?xml version="1.0" encoding="utf-8"?>
<!-- Generator: Adobe Illustrator 16.0.0, SVG Export Plug-In . SVG Version: 6.00 Build 0)  -->
<!DOCTYPE svg PUBLIC "-//W3C//DTD SVG 1.1 Tiny//EN" "http://www.w3.org/Graphics/SVG/1.1/DTD/svg11-tiny.dtd">
<svg version="1.1" baseProfile="tiny" id="Capa_1" xmlns="http://www.w3.org/2000/svg" xmlns:xlink="http://www.w3.org/1999/xlink"
	 x="0px" y="0px" width="100px" height="100px" viewBox="0 0 100 100" xml:space="preserve">
<path d="M75,48.5h-9.15C65.15,44.8,61.91,42,58,42c-3.54,0-6.54,2.31-7.6,5.5H24c-1.38,0-2.5,1.12-2.5,2.5s1.12,2.5,2.5,2.5h26.4
	c1.05,3.19,4.05,5.5,7.6,5.5c3.91,0,7.15-2.8,7.85-6.5H75c0.83,0,1.5-0.67,1.5-1.5S75.83,48.5,75,48.5z M60.83,52.83
	C60.1,53.56,59.11,54,58,54c-1.11,0-2.1-0.44-2.83-1.17C54.44,52.1,54,51.11,54,50c0-1.11,0.44-2.1,1.17-2.83
	C55.9,46.44,56.89,46,58,46c1.11,0,2.1,0.44,2.83,1.17C61.56,47.9,62,48.89,62,50C62,51.11,61.56,52.1,60.83,52.83z"/>
</svg>
