<?xml version="1.0" encoding="utf-8"?>
<!-- Generator: Adobe Illustrator 16.0.0, SVG Export Plug-In . SVG Version: 6.00 Build 0)  -->
<!DOCTYPE svg PUBLIC "-//W3C//DTD SVG 1.1 Tiny//EN" "http://www.w3.org/Graphics/SVG/1.1/DTD/svg11-tiny.dtd">
<svg version="1.1" baseProfile="tiny" id="Capa_1" xmlns="http://www.w3.org/2000/svg" xmlns:xlink="http://www.w3.org/1999/xlink"
	 x="0px" y="0px" width="100px" height="100px" viewBox="0 0 100 100" xml:space="preserve">
<path d="M68.91,44.53l0.25-7.66c0.04-1.21-0.63-2.9-1.49-3.76l-0.78-0.78c-0.86-0.86-2.55-1.52-3.75-1.49l-7.66,0.25
	c-1.21,0.04-2.9,0.77-3.76,1.63L31.49,52.95c-0.86,0.86-0.86,2.26,0,3.11l12.45,12.45c0.86,0.86,2.26,0.86,3.11,0l20.23-20.23
	C68.14,47.43,68.87,45.74,68.91,44.53z M59.22,40.78c-1.44-1.44-1.44-3.78,0-5.22c1.45-1.44,3.79-1.45,5.23,0
	c1.45,1.44,1.45,3.78,0,5.21C63,42.22,60.67,42.22,59.22,40.78z"/>
</svg>
