<?xml version="1.0" encoding="utf-8"?>
<!-- Generator: Adobe Illustrator 16.0.0, SVG Export Plug-In . SVG Version: 6.00 Build 0)  -->
<!DOCTYPE svg PUBLIC "-//W3C//DTD SVG 1.1 Tiny//EN" "http://www.w3.org/Graphics/SVG/1.1/DTD/svg11-tiny.dtd">
<svg version="1.1" baseProfile="tiny" id="Capa_1" xmlns="http://www.w3.org/2000/svg" xmlns:xlink="http://www.w3.org/1999/xlink"
	 x="0px" y="0px" width="100px" height="100px" viewBox="0 0 100 100" xml:space="preserve">
<path d="M50,30c-11.05,0-20,8.95-20,20s8.95,20,20,20s20-8.95,20-20S61.04,30,50,30z M46.96,62.78l-9.34-11.19l-0.4-0.48l0.56-0.29
	c0.01-0.01,0.48-0.25,1.14-0.49c0.66-0.24,1.51-0.49,2.35-0.49c0.22,0,0.45,0.02,0.67,0.07c0.29,0.06,0.54,0.2,0.82,0.37
	c0.27,0.17,0.55,0.39,0.84,0.64c0.58,0.49,1.19,1.11,1.75,1.71c0.67,0.72,1.27,1.42,1.64,1.87c0.67-0.87,2.15-2.76,3.85-4.87
	c2.32-2.87,5.02-6.11,6.65-7.65c0.48-0.44,0.83-0.75,1.21-0.9c0.48-0.19,0.99-0.26,1.48-0.26c1.81,0.01,3.55,0.87,3.59,0.88
	l0.58,0.28L46.96,62.78z"/>
</svg>
