<?xml version="1.0" encoding="utf-8"?>
<!-- Generator: Adobe Illustrator 16.0.0, SVG Export Plug-In . SVG Version: 6.00 Build 0)  -->
<!DOCTYPE svg PUBLIC "-//W3C//DTD SVG 1.1 Tiny//EN" "http://www.w3.org/Graphics/SVG/1.1/DTD/svg11-tiny.dtd">
<svg version="1.1" baseProfile="tiny" id="Capa_1" xmlns="http://www.w3.org/2000/svg" xmlns:xlink="http://www.w3.org/1999/xlink"
	 x="0px" y="0px" width="100px" height="100px" viewBox="0 0 100 100" xml:space="preserve">
<g>
	<path d="M71,28H29c-1.65,0-3,1.35-3,3v38c0,1.65,1.35,3,3,3h42c1.65,0,3-1.35,3-3V31C74,29.35,72.65,28,71,28z M70,32v22.47
		l-7.66-5.89c-1.4-1.09-3.72-1.08-5.12,0L54.6,50.6l0,0l-7.84,6.03c-2.11,1.62-5.12,2.64-7.78,2.65l-8.9,0
		c-0.03,0-0.05,0.01-0.08,0.01v-2c0.03,0,0.05-0.01,0.08-0.01l8.9,0c2.21,0.01,4.81-0.88,6.56-2.23l7.63-5.87l-6.35-6.35
		c-1.56-1.55-4.1-1.55-5.66,0L30.83,53.17c-0.26,0.26-0.55,0.52-0.83,0.8V32H70z"/>
	<path d="M61,44c2.73,0,5-2.27,5-5s-2.27-5-5-5s-5,2.27-5,5S58.27,44,61,44z"/>
</g>
</svg>
