<?xml version="1.0" encoding="utf-8"?>
<!-- Generator: Adobe Illustrator 16.0.0, SVG Export Plug-In . SVG Version: 6.00 Build 0)  -->
<!DOCTYPE svg PUBLIC "-//W3C//DTD SVG 1.1 Tiny//EN" "http://www.w3.org/Graphics/SVG/1.1/DTD/svg11-tiny.dtd">
<svg version="1.1" baseProfile="tiny" id="Capa_1" xmlns="http://www.w3.org/2000/svg" xmlns:xlink="http://www.w3.org/1999/xlink"
	 x="0px" y="0px" width="100px" height="100px" viewBox="0 0 100 100" xml:space="preserve">
<g>
	<path d="M67,43.5H33c-2.48,0.01-4.49,2.01-4.5,4.5v8c0.01,2.49,2.02,4.49,4.5,4.5h34c2.48-0.01,4.49-2.01,4.5-4.5v-8
		C71.49,45.51,69.48,43.51,67,43.5z M68.06,57.06c-0.28,0.28-0.65,0.44-1.06,0.44H33c-0.41,0-0.78-0.17-1.06-0.44
		c-0.28-0.28-0.44-0.65-0.44-1.06v-8c0-0.41,0.17-0.78,0.44-1.06c0.28-0.28,0.65-0.44,1.06-0.44h34c0.41,0,0.78,0.17,1.06,0.44
		c0.28,0.28,0.44,0.65,0.44,1.06v8C68.5,56.41,68.33,56.78,68.06,57.06z"/>
	<path d="M45.33,41h9.33c1.1,0,1.42-0.69,0.72-1.54l-4.11-4.93c-0.7-0.84-1.86-0.84-2.56,0l-4.11,4.93
		C43.91,40.31,44.23,41,45.33,41z"/>
	<path d="M54.67,63h-9.33c-1.1,0-1.42,0.69-0.72,1.54l4.11,4.93c0.7,0.84,1.86,0.84,2.56,0l4.11-4.93C56.09,63.69,55.77,63,54.67,63
		z"/>
</g>
</svg>
