<?xml version="1.0" encoding="utf-8"?>
<!-- Generator: Adobe Illustrator 16.0.0, SVG Export Plug-In . SVG Version: 6.00 Build 0)  -->
<!DOCTYPE svg PUBLIC "-//W3C//DTD SVG 1.1 Tiny//EN" "http://www.w3.org/Graphics/SVG/1.1/DTD/svg11-tiny.dtd">
<svg version="1.1" baseProfile="tiny" id="Capa_1" xmlns="http://www.w3.org/2000/svg" xmlns:xlink="http://www.w3.org/1999/xlink"
	 x="0px" y="0px" width="100px" height="100px" viewBox="0 0 100 100" xml:space="preserve">
<g>
	<path d="M50,59c4.42,0,8-3.58,8-8V33c0-4.42-3.58-8-8-8s-8,3.58-8,8v18C42,55.42,45.58,59,50,59z"/>
	<path d="M64,73H52v-8.67c6.49-0.98,11.5-6.58,11.5-13.33V39c0-0.83-0.67-1.5-1.5-1.5s-1.5,0.67-1.5,1.5v12
		c0,2.89-1.18,5.5-3.09,7.41C55.5,60.32,52.89,61.5,50,61.5c-2.89,0-5.5-1.18-7.41-3.09C40.68,56.5,39.5,53.89,39.5,51V39
		c0-0.83-0.67-1.5-1.5-1.5s-1.5,0.67-1.5,1.5v12c0,6.75,5.01,12.36,11.5,13.33V73H36c-1.1,0-2,0.9-2,2s0.9,2,2,2h28c1.1,0,2-0.9,2-2
		S65.1,73,64,73z"/>
</g>
</svg>
