<?xml version="1.0" encoding="utf-8"?>
<!-- Generator: Adobe Illustrator 16.0.0, SVG Export Plug-In . SVG Version: 6.00 Build 0)  -->
<!DOCTYPE svg PUBLIC "-//W3C//DTD SVG 1.1 Tiny//EN" "http://www.w3.org/Graphics/SVG/1.1/DTD/svg11-tiny.dtd">
<svg version="1.1" baseProfile="tiny" id="Capa_1" xmlns="http://www.w3.org/2000/svg" xmlns:xlink="http://www.w3.org/1999/xlink"
	 x="0px" y="0px" width="100px" height="100px" viewBox="0 0 100 100" xml:space="preserve">
<path d="M50,30c-11.05,0-20,8.95-20,20s8.95,20,20,20s20-8.95,20-20S61.05,30,50,30z M61,51c0,1.1-0.9,2-2,2h-6v6c0,1.1-0.9,2-2,2
	h-2c-1.1,0-2-0.9-2-2v-6h-6c-1.1,0-2-0.9-2-2v-2c0-1.1,0.9-2,2-2h6v-6c0-1.1,0.9-2,2-2h2c1.1,0,2,0.9,2,2v6h6c1.1,0,2,0.9,2,2V51z"
	/>
</svg>
