<?xml version="1.0" encoding="utf-8"?>
<!-- Generator: Adobe Illustrator 16.0.0, SVG Export Plug-In . SVG Version: 6.00 Build 0)  -->
<!DOCTYPE svg PUBLIC "-//W3C//DTD SVG 1.1 Tiny//EN" "http://www.w3.org/Graphics/SVG/1.1/DTD/svg11-tiny.dtd">
<svg version="1.1" baseProfile="tiny" id="Capa_1" xmlns="http://www.w3.org/2000/svg" xmlns:xlink="http://www.w3.org/1999/xlink"
	 x="0px" y="0px" width="100px" height="100px" viewBox="0 0 100 100" xml:space="preserve">
<path d="M72,28H28c-1.1,0-2,0.9-2,2v40c0,1.1,0.9,2,2,2h44c1.1,0,2-0.9,2-2V30C74,28.9,73.1,28,72,28z M34,69c0,0.55-0.45,1-1,1h-4
	c-0.55,0-1-0.45-1-1v-2c0-0.55,0.45-1,1-1h4c0.55,0,1,0.45,1,1V69z M34,63c0,0.55-0.45,1-1,1h-4c-0.55,0-1-0.45-1-1v-2
	c0-0.55,0.45-1,1-1h4c0.55,0,1,0.45,1,1V63z M34,57c0,0.55-0.45,1-1,1h-4c-0.55,0-1-0.45-1-1v-2c0-0.55,0.45-1,1-1h4
	c0.55,0,1,0.45,1,1V57z M34,51c0,0.55-0.45,1-1,1h-4c-0.55,0-1-0.45-1-1v-2c0-0.55,0.45-1,1-1h4c0.55,0,1,0.45,1,1V51z M34,45
	c0,0.55-0.45,1-1,1h-4c-0.55,0-1-0.45-1-1v-2c0-0.55,0.45-1,1-1h4c0.55,0,1,0.45,1,1V45z M34,39c0,0.55-0.45,1-1,1h-4
	c-0.55,0-1-0.45-1-1v-2c0-0.55,0.45-1,1-1h4c0.55,0,1,0.45,1,1V39z M34,33c0,0.55-0.45,1-1,1h-4c-0.55,0-1-0.45-1-1v-2
	c0-0.55,0.45-1,1-1h4c0.55,0,1,0.45,1,1V33z M59.18,51.82l-16.35,7.36C41.82,59.63,41,59.1,41,58V44c0-1.1,0.82-1.63,1.82-1.18
	l16.35,7.36C60.18,50.63,60.18,51.37,59.18,51.82z M72,69c0,0.55-0.45,1-1,1h-4c-0.55,0-1-0.45-1-1v-2c0-0.55,0.45-1,1-1h4
	c0.55,0,1,0.45,1,1V69z M72,63c0,0.55-0.45,1-1,1h-4c-0.55,0-1-0.45-1-1v-2c0-0.55,0.45-1,1-1h4c0.55,0,1,0.45,1,1V63z M72,57
	c0,0.55-0.45,1-1,1h-4c-0.55,0-1-0.45-1-1v-2c0-0.55,0.45-1,1-1h4c0.55,0,1,0.45,1,1V57z M72,51c0,0.55-0.45,1-1,1h-4
	c-0.55,0-1-0.45-1-1v-2c0-0.55,0.45-1,1-1h4c0.55,0,1,0.45,1,1V51z M72,45c0,0.55-0.45,1-1,1h-4c-0.55,0-1-0.45-1-1v-2
	c0-0.55,0.45-1,1-1h4c0.55,0,1,0.45,1,1V45z M72,39c0,0.55-0.45,1-1,1h-4c-0.55,0-1-0.45-1-1v-2c0-0.55,0.45-1,1-1h4
	c0.55,0,1,0.45,1,1V39z M72,33c0,0.55-0.45,1-1,1h-4c-0.55,0-1-0.45-1-1v-2c0-0.55,0.45-1,1-1h4c0.55,0,1,0.45,1,1V33z"/>
</svg>
