<?xml version="1.0" encoding="utf-8"?>
<!-- Generator: Adobe Illustrator 16.0.0, SVG Export Plug-In . SVG Version: 6.00 Build 0)  -->
<!DOCTYPE svg PUBLIC "-//W3C//DTD SVG 1.1 Tiny//EN" "http://www.w3.org/Graphics/SVG/1.1/DTD/svg11-tiny.dtd">
<svg version="1.1" baseProfile="tiny" id="Capa_1" xmlns="http://www.w3.org/2000/svg" xmlns:xlink="http://www.w3.org/1999/xlink"
	 x="0px" y="0px" width="100px" height="100px" viewBox="0 0 100 100" xml:space="preserve">
<rect x="43.37" y="46.4" transform="matrix(0.4954 -0.8687 0.8687 0.4954 -15.392 69.6314)" fill="#191111" width="17.73" height="3.32"/>
<path fill="#191111" d="M69.39,50.29c-0.94-1.39-4.37-3.29-7.61-4.21c-0.96-0.27-2.12-0.53-3.34-0.76l-2.64,4.64
	c0.68,0.1,1.29,0.22,1.76,0.34c1.85,0.46,3.37,1.22,3.37,1.69s0,1.98,0,3.37s0.33,2.91,0.74,3.37s2.3,0.84,4.21,0.84
	c1.91,0,3.87-0.36,4.35-0.81s0.87-1.97,0.87-3.37S70.33,51.68,69.39,50.29z"/>
<path fill="#191111" d="M49.74,44.42c-3.27,0.04-8.42,0.78-11.59,1.68c-3.23,0.92-6.64,2.8-7.57,4.19
	c-0.93,1.39-1.69,3.67-1.69,5.06s0.38,2.91,0.85,3.37c0.46,0.46,2.36,0.84,4.21,0.84c1.85,0,3.75-0.38,4.21-0.84
	s0.84-1.98,0.84-3.37s0-2.91,0-3.37s1.14-1.22,2.53-1.69c1.02-0.34,3.13-0.63,5.29-0.77L49.74,44.42z"/>
</svg>
