<?xml version="1.0" encoding="utf-8"?>
<!-- Generator: Adobe Illustrator 16.0.0, SVG Export Plug-In . SVG Version: 6.00 Build 0)  -->
<!DOCTYPE svg PUBLIC "-//W3C//DTD SVG 1.1 Tiny//EN" "http://www.w3.org/Graphics/SVG/1.1/DTD/svg11-tiny.dtd">
<svg version="1.1" baseProfile="tiny" id="Capa_1" xmlns="http://www.w3.org/2000/svg" xmlns:xlink="http://www.w3.org/1999/xlink"
	 x="0px" y="0px" width="100px" height="100px" viewBox="0 0 100 100" xml:space="preserve">
<g>
	<path d="M36.46,35.1c-2.19,0-3.96,1.77-3.96,3.96c0,2.19,1.77,3.96,3.96,3.96c2.19,0,3.96-1.77,3.96-3.96S38.64,35.1,36.46,35.1z
		 M36.46,40.57c-0.84,0-1.51-0.68-1.51-1.52c0-0.84,0.68-1.51,1.51-1.52c0.84,0,1.51,0.68,1.51,1.52
		C37.97,39.89,37.3,40.57,36.46,40.57z"/>
	<path d="M36.46,46.04c-2.19,0-3.96,1.77-3.96,3.96c0,2.19,1.77,3.96,3.96,3.96c2.19,0,3.96-1.77,3.96-3.96S38.64,46.04,36.46,46.04
		z M36.46,51.52c-0.84,0-1.51-0.68-1.51-1.52c0-0.84,0.68-1.51,1.51-1.52c0.84,0,1.51,0.68,1.51,1.52
		C37.97,50.84,37.29,51.51,36.46,51.52z"/>
	<path d="M36.46,56.99c-2.19,0-3.96,1.77-3.96,3.96c0,2.19,1.77,3.96,3.96,3.96c2.19,0,3.96-1.77,3.96-3.96
		C40.42,58.76,38.64,56.99,36.46,56.99z M36.46,62.46c-0.84,0-1.51-0.68-1.51-1.52c0-0.84,0.68-1.51,1.51-1.52
		c0.84,0,1.51,0.68,1.51,1.52C37.97,61.78,37.29,62.46,36.46,62.46z"/>
	<rect x="42.81" y="36.61" width="26.19" height="4.88"/>
	<rect x="42.81" y="47.56" width="26.19" height="4.88"/>
	<rect x="42.81" y="58.5" width="26.19" height="4.88"/>
</g>
</svg>
