<?xml version="1.0" encoding="utf-8"?>
<!-- Generator: Adobe Illustrator 16.0.0, SVG Export Plug-In . SVG Version: 6.00 Build 0)  -->
<!DOCTYPE svg PUBLIC "-//W3C//DTD SVG 1.1 Tiny//EN" "http://www.w3.org/Graphics/SVG/1.1/DTD/svg11-tiny.dtd">
<svg version="1.1" baseProfile="tiny" id="Capa_1" xmlns="http://www.w3.org/2000/svg" xmlns:xlink="http://www.w3.org/1999/xlink"
	 x="0px" y="0px" width="100px" height="100px" viewBox="0 0 100 100" xml:space="preserve">
<path d="M72.6,52.5c0.01,0,0.01-0.01,0.01-0.01c0,0,0.14-1.64,0.14-2.49c0-0.84-0.14-2.49-0.14-2.49c0-0.01-0.01-0.01-0.01-0.01
	l-4.93-0.66c-0.01,0-0.01-0.01-0.01-0.01l-0.78-2.91c0-0.01,0-0.01,0-0.02l3.94-3.04c0,0,0.01-0.01,0-0.01l-2.49-4.31
	c0,0-0.01-0.01-0.01,0l-4.6,1.89c0,0-0.01,0-0.02,0l-2.13-2.13c0,0-0.01-0.01,0-0.02l1.89-4.6c0,0,0-0.01,0-0.01l-4.31-2.49
	c0,0-0.01,0-0.02,0l-3.04,3.94c0,0-0.01,0.01-0.02,0l-2.91-0.77c-0.01,0-0.01-0.01-0.01-0.01L52.5,27.4c0-0.01-0.01-0.01-0.01-0.01
	c0,0-1.64-0.14-2.49-0.14s-2.49,0.14-2.49,0.14c-0.01,0-0.01,0.01-0.01,0.01l-0.66,4.93c0,0.01-0.01,0.01-0.01,0.01l-2.91,0.77
	c-0.01,0-0.01,0-0.02,0l-3.04-3.94c0,0-0.01-0.01-0.02,0l-4.31,2.49c0,0-0.01,0.01,0,0.01l1.89,4.6c0,0,0,0.01,0,0.02l-2.13,2.13
	c0,0-0.01,0.01-0.02,0l-4.6-1.89c0,0-0.01,0-0.01,0l-2.49,4.31c0,0,0,0.01,0,0.01l3.94,3.04c0,0,0.01,0.01,0,0.02l-0.78,2.91
	c0,0.01-0.01,0.01-0.01,0.01L27.4,47.5c-0.01,0-0.01,0.01-0.01,0.01c0,0-0.14,1.64-0.14,2.49c0,0.84,0.14,2.49,0.14,2.49
	c0,0.01,0.01,0.01,0.01,0.01l4.93,0.66c0.01,0,0.01,0.01,0.01,0.01l0.78,2.91c0,0.01,0,0.01,0,0.02l-3.94,3.04c0,0-0.01,0.01,0,0.01
	l2.49,4.31c0,0,0.01,0.01,0.01,0l4.6-1.89c0,0,0.01,0,0.02,0l2.13,2.13c0,0,0.01,0.01,0,0.02l-1.89,4.61c0,0,0,0.01,0,0.01
	l4.31,2.49c0,0,0.01,0,0.02,0l3.04-3.94c0,0,0.01-0.01,0.02,0l2.91,0.77c0.01,0,0.01,0.01,0.01,0.01l0.66,4.93
	c0,0.01,0.01,0.01,0.01,0.01c0,0,1.64,0.14,2.49,0.14s2.49-0.14,2.49-0.14c0.01,0,0.01-0.01,0.01-0.01l0.66-4.93
	c0-0.01,0.01-0.01,0.01-0.01l2.91-0.77c0.01,0,0.01,0,0.02,0l3.04,3.94c0,0,0.01,0.01,0.02,0l4.31-2.49c0,0,0.01-0.01,0-0.01
	l-1.89-4.61c0,0,0-0.01,0-0.02l2.13-2.13c0,0,0.01-0.01,0.02,0l4.6,1.89c0,0,0.01,0,0.01,0l2.49-4.31c0,0,0-0.01,0-0.01l-3.94-3.04
	c0,0-0.01-0.01,0-0.02l0.78-2.91c0-0.01,0.01-0.01,0.01-0.01L72.6,52.5z M50,53.63c-2.01,0-3.63-1.63-3.63-3.63s1.62-3.63,3.63-3.63
	c2.01,0,3.63,1.63,3.63,3.63S52.01,53.63,50,53.63z"/>
</svg>
