<?xml version="1.0" encoding="utf-8"?>
<!-- Generator: Adobe Illustrator 16.0.0, SVG Export Plug-In . SVG Version: 6.00 Build 0)  -->
<!DOCTYPE svg PUBLIC "-//W3C//DTD SVG 1.1 Tiny//EN" "http://www.w3.org/Graphics/SVG/1.1/DTD/svg11-tiny.dtd">
<svg version="1.1" baseProfile="tiny" id="Capa_1" xmlns="http://www.w3.org/2000/svg" xmlns:xlink="http://www.w3.org/1999/xlink"
	 x="0px" y="0px" width="100px" height="100px" viewBox="0 0 100 100" xml:space="preserve">
<g>
	<path d="M18,64.28l11.29,11.27c0,0,1.88-3.76,0-5.63c-0.97-0.97-2.44-2.44-3.64-3.64L46,66.26c-0.12-0.64-0.19-1.3-0.19-1.98
		c0-0.68,0.07-1.34,0.19-1.98l-20.36-0.02c1.2-1.2,2.67-2.67,3.64-3.64c0.76-0.76,0.9-1.83,0.8-2.84c0.11-1.02-0.03-2.11-0.8-2.88
		c-0.97-0.97-2.44-2.44-3.64-3.64L46,49.26c-0.12-0.64-0.19-1.3-0.19-1.98c0-0.68,0.07-1.34,0.19-1.98l-20.36-0.02
		c1.2-1.2,2.67-2.67,3.64-3.64c1.88-1.88,0-5.64,0-5.64L18,47.28l8.5,8.5L18,64.28z"/>
	<circle cx="56" cy="64.28" r="8"/>
	<circle cx="56" cy="47.28" r="8"/>
</g>
</svg>
