<?xml version="1.0" encoding="utf-8"?>
<!-- Generator: Adobe Illustrator 16.0.0, SVG Export Plug-In . SVG Version: 6.00 Build 0)  -->
<!DOCTYPE svg PUBLIC "-//W3C//DTD SVG 1.1 Tiny//EN" "http://www.w3.org/Graphics/SVG/1.1/DTD/svg11-tiny.dtd">
<svg version="1.1" baseProfile="tiny" id="Capa_1" xmlns="http://www.w3.org/2000/svg" xmlns:xlink="http://www.w3.org/1999/xlink"
	 x="0px" y="0px" width="100px" height="100px" viewBox="0 0 100 100" xml:space="preserve">
<g>
	<circle cx="65" cy="67" r="8"/>
	<path d="M35.5,58.5L27,67l11.29,11.27c0,0,1.88-3.76,0-5.63c-0.97-0.97-2.44-2.44-3.64-3.64L55,68.99
		c-0.12-0.64-0.19-1.3-0.19-1.98c0-0.68,0.07-1.34,0.19-1.98L34.64,65c1.2-1.2,2.67-2.67,3.64-3.64c0.76-0.76,0.9-1.83,0.8-2.84
		c0.11-1.02-0.03-2.11-0.8-2.88c-0.97-0.97-2.44-2.44-3.64-3.64L55,51.99c-0.12-0.64-0.19-1.3-0.19-1.98c0-0.68,0.07-1.34,0.19-1.98
		L34.64,48c1.2-1.2,2.67-2.67,3.64-3.64c0.76-0.76,0.9-1.83,0.8-2.84c0.11-1.02-0.03-2.11-0.8-2.88c-0.97-0.97-2.44-2.44-3.64-3.64
		L55,34.99c-0.12-0.64-0.19-1.3-0.19-1.98c0-0.68,0.07-1.34,0.19-1.98L34.64,31c1.2-1.2,2.67-2.67,3.64-3.64
		c1.88-1.88,0-5.64,0-5.64L27,33l8.5,8.5L27,50L35.5,58.5z"/>
	<circle cx="65" cy="50" r="8"/>
	<circle cx="65" cy="33" r="8"/>
</g>
</svg>
