<?xml version="1.0" encoding="utf-8"?>
<!-- Generator: Adobe Illustrator 16.0.0, SVG Export Plug-In . SVG Version: 6.00 Build 0)  -->
<!DOCTYPE svg PUBLIC "-//W3C//DTD SVG 1.1 Tiny//EN" "http://www.w3.org/Graphics/SVG/1.1/DTD/svg11-tiny.dtd">
<svg version="1.1" baseProfile="tiny" id="Capa_1" xmlns="http://www.w3.org/2000/svg" xmlns:xlink="http://www.w3.org/1999/xlink"
	 x="0px" y="0px" width="100px" height="100px" viewBox="0 0 100 100" xml:space="preserve">
<g>
	<g>
		<circle cx="27.32" cy="72.68" r="8"/>
		<path d="M35.91,55.61c2.83,0,5.66,0,5.66,0l-8.7,8.7c0.53,0.4,1.04,0.82,1.53,1.3c0.48,0.48,0.91,1,1.3,1.53l8.7-8.7
			c0,0,0,2.83,0,5.66c0,2.83,4.24,4.24,4.24,4.24V51.36l0,0H31.67C31.67,51.36,33.08,55.61,35.91,55.61z"/>
	</g>
	<g>
		<circle cx="72.68" cy="27.32" r="8"/>
		<path d="M64.09,44.39c-2.83,0-5.66,0-5.66,0l8.7-8.7c-0.53-0.4-1.04-0.82-1.53-1.3c-0.48-0.48-0.91-1-1.3-1.53l-8.7,8.7
			c0,0,0-2.83,0-5.66c0-2.83-4.24-4.24-4.24-4.24v16.97l0,0l16.97,0C68.33,48.64,66.92,44.39,64.09,44.39z"/>
	</g>
</g>
</svg>
