<?xml version="1.0" encoding="utf-8"?>
<!-- Generator: Adobe Illustrator 16.0.0, SVG Export Plug-In . SVG Version: 6.00 Build 0)  -->
<!DOCTYPE svg PUBLIC "-//W3C//DTD SVG 1.1 Tiny//EN" "http://www.w3.org/Graphics/SVG/1.1/DTD/svg11-tiny.dtd">
<svg version="1.1" baseProfile="tiny" id="Capa_1" xmlns="http://www.w3.org/2000/svg" xmlns:xlink="http://www.w3.org/1999/xlink"
	 x="0px" y="0px" width="100px" height="100px" viewBox="0 0 100 100" xml:space="preserve">
<g>
	<path d="M82,37.52L70.71,26.25c0,0-1.88,3.76,0,5.63c0.97,0.97,2.44,2.44,3.64,3.64L54,35.54c0.13,0.64,0.19,1.3,0.19,1.98
		c0,0.68-0.07,1.34-0.19,1.98l20.36,0.02c-1.2,1.2-2.67,2.67-3.64,3.64c-0.76,0.76-0.9,1.83-0.8,2.84c-0.11,1.02,0.03,2.11,0.8,2.88
		c0.97,0.97,2.44,2.44,3.64,3.64L54,52.54c0.13,0.64,0.19,1.3,0.19,1.98c0,0.68-0.07,1.34-0.19,1.98l20.36,0.02
		c-1.2,1.2-2.67,2.67-3.64,3.64c-1.88,1.88,0,5.64,0,5.64L82,54.52l-8.5-8.5L82,37.52z"/>
	<circle cx="44" cy="37.52" r="8"/>
	<circle cx="44" cy="54.52" r="8"/>
</g>
</svg>
