<?xml version="1.0" encoding="utf-8"?>
<!-- Generator: Adobe Illustrator 16.0.0, SVG Export Plug-In . SVG Version: 6.00 Build 0)  -->
<!DOCTYPE svg PUBLIC "-//W3C//DTD SVG 1.1 Tiny//EN" "http://www.w3.org/Graphics/SVG/1.1/DTD/svg11-tiny.dtd">
<svg version="1.1" baseProfile="tiny" id="Capa_1" xmlns="http://www.w3.org/2000/svg" xmlns:xlink="http://www.w3.org/1999/xlink"
	 x="0px" y="0px" width="100px" height="100px" viewBox="0 0 100 100" xml:space="preserve">
<g>
	<circle cx="35" cy="33" r="8"/>
	<path d="M64.5,41.5L73,33L61.71,21.72c0,0-1.88,3.76,0,5.63c0.97,0.97,2.44,2.44,3.64,3.64L45,31.01c0.12,0.64,0.19,1.3,0.19,1.98
		c0,0.68-0.07,1.34-0.19,1.98L65.36,35c-1.2,1.2-2.67,2.67-3.64,3.64c-0.76,0.76-0.9,1.83-0.8,2.84c-0.11,1.02,0.03,2.11,0.8,2.88
		c0.97,0.97,2.44,2.44,3.64,3.64L45,48.01c0.12,0.64,0.19,1.3,0.19,1.98c0,0.68-0.07,1.34-0.19,1.98L65.36,52
		c-1.2,1.2-2.67,2.67-3.64,3.64c-0.76,0.76-0.9,1.83-0.8,2.84c-0.11,1.02,0.03,2.11,0.8,2.88c0.97,0.97,2.44,2.44,3.64,3.64
		L45,65.01c0.12,0.64,0.19,1.3,0.19,1.98c0,0.68-0.07,1.34-0.19,1.98L65.36,69c-1.2,1.2-2.67,2.67-3.64,3.64
		c-1.88,1.88,0,5.64,0,5.64L73,67l-8.5-8.5L73,50L64.5,41.5z"/>
	<circle cx="35" cy="50" r="8"/>
	<circle cx="35" cy="67" r="8"/>
</g>
</svg>
