<?xml version="1.0" encoding="utf-8"?>
<!-- Generator: Adobe Illustrator 16.0.0, SVG Export Plug-In . SVG Version: 6.00 Build 0)  -->
<!DOCTYPE svg PUBLIC "-//W3C//DTD SVG 1.1 Tiny//EN" "http://www.w3.org/Graphics/SVG/1.1/DTD/svg11-tiny.dtd">
<svg version="1.1" baseProfile="tiny" id="Capa_1" xmlns="http://www.w3.org/2000/svg" xmlns:xlink="http://www.w3.org/1999/xlink"
	 x="0px" y="0px" width="100px" height="100px" viewBox="0 0 100 100" xml:space="preserve">
<g>
	<path d="M23.5,45.69c0,3.58,1.36,7.18,4.09,9.9c0.53,0.53,1.05,1.05,1.56,1.56c0.36-0.55,0.79-1.07,1.27-1.56
		c0.48-0.48,1-0.9,1.56-1.27c-0.5-0.5-1.02-1.02-1.56-1.56c-1.94-1.94-2.91-4.5-2.91-7.07c0-2.57,0.97-5.13,2.91-7.07
		c1.07-1.07,2.09-2.09,3.03-3.03c-0.04,1.69-0.08,3.74-0.11,5.1c-0.06,2.66,3.9,4.07,3.9,4.07l0.33-15.95l-15.95-0.33
		c0,0,1.25,4.01,3.9,4.07c1.38,0.03,3.49,0.07,5.19,0.1c-0.97,0.97-2.03,2.03-3.14,3.14C24.86,38.51,23.5,42.11,23.5,45.69z"/>
</g>
<g>
	<path d="M74.47,67.45c-1.38-0.03-3.49-0.07-5.19-0.1c0.97-0.97,2.03-2.03,3.14-3.14c2.72-2.72,4.09-6.32,4.09-9.9
		c0-3.58-1.36-7.18-4.09-9.9c-0.53-0.53-1.05-1.05-1.56-1.56c-0.36,0.55-0.79,1.07-1.27,1.56c-0.48,0.48-1,0.91-1.56,1.27
		c0.51,0.51,1.02,1.02,1.56,1.56c1.94,1.94,2.91,4.5,2.91,7.07c0,2.57-0.97,5.13-2.91,7.07c-1.07,1.07-2.09,2.09-3.03,3.03
		c0.04-1.69,0.08-3.74,0.11-5.1c0.06-2.66-3.9-4.07-3.9-4.07L62.43,71.2l15.95,0.33C78.38,71.52,77.13,67.51,74.47,67.45z"/>
</g>
<circle cx="37.48" cy="62.66" r="8"/>
<circle cx="62.52" cy="37.34" r="8"/>
</svg>
