<?xml version="1.0" encoding="utf-8"?>
<!-- Generator: Adobe Illustrator 16.0.0, SVG Export Plug-In . SVG Version: 6.00 Build 0)  -->
<!DOCTYPE svg PUBLIC "-//W3C//DTD SVG 1.1 Tiny//EN" "http://www.w3.org/Graphics/SVG/1.1/DTD/svg11-tiny.dtd">
<svg version="1.1" baseProfile="tiny" id="Capa_1" xmlns="http://www.w3.org/2000/svg" xmlns:xlink="http://www.w3.org/1999/xlink"
	 x="0px" y="0px" width="100px" height="100px" viewBox="0 0 100 100" xml:space="preserve">
<g>
	<rect x="39.44" y="43.94" width="1" height="3.88"/>
	<rect x="39.44" y="67.94" width="1" height="4.06"/>
	<rect x="49.94" y="57.44" width="4.03" height="1"/>
	<rect x="25.94" y="57.44" width="4" height="1"/>
	<circle cx="39.94" cy="57.94" r="8"/>
	<rect x="30.96" y="64.41" transform="matrix(-0.7071 -0.7071 0.7071 -0.7071 6.7179 135.6684)" width="1" height="4.06"/>
	<rect x="46.44" y="65.93" transform="matrix(-0.7071 -0.7071 0.7071 -0.7071 35.7526 147.6734)" width="4.03" height="1"/>
	<rect x="29.48" y="48.95" transform="matrix(0.7071 0.7071 -0.7071 0.7071 44.1867 -7.7751)" width="4" height="1"/>
	<polygon points="45.6,45.54 48.96,44.41 48.67,43.46 44.82,44.8 43.35,48.38 44.27,48.76 	"/>
	<rect x="34.87" y="67.03" transform="matrix(-0.9247 -0.3808 0.3808 -0.9247 41.7703 146.3796)" width="1" height="4.06"/>
	<rect x="49.04" y="62.01" transform="matrix(-0.9246 -0.381 0.381 -0.9246 74.4503 139.7638)" width="4.03" height="1"/>
	<rect x="26.86" y="52.86" transform="matrix(0.9246 0.3809 -0.3809 0.9246 22.4996 -6.9686)" width="4" height="1"/>
	<rect x="26.88" y="62.17" transform="matrix(0.9194 -0.3933 0.3933 0.9194 -22.316 16.4193)" width="4.06" height="1"/>
	<rect x="42.68" y="68.49" transform="matrix(-0.393 -0.9195 0.9195 -0.393 -1.174 137.2065)" width="4.03" height="1"/>
	<rect x="33.26" y="46.41" transform="matrix(0.393 0.9195 -0.9195 0.393 64.5333 -3.9507)" width="4" height="1"/>
	<rect x="57.47" y="26" width="1" height="3.88"/>
	<rect x="57.47" y="50" width="1" height="4.06"/>
	<rect x="67.97" y="39.5" width="4.03" height="1"/>
	<rect x="43.97" y="39.5" width="4" height="1"/>
	<circle cx="57.97" cy="40" r="8"/>
	<rect x="66.02" y="29.53" transform="matrix(0.7071 0.7071 -0.7071 0.7071 41.7363 -37.8229)" width="1" height="3.88"/>
	<polygon points="51.26,47.44 50.59,46.7 46.77,50.42 47.48,51.13 	"/>
	<rect x="64.48" y="47.99" transform="matrix(-0.7071 -0.7071 0.7071 -0.7071 79.2175 129.8022)" width="4.03" height="1"/>
	<rect x="47.51" y="31.01" transform="matrix(0.707 0.7072 -0.7072 0.707 36.789 -25.7799)" width="4" height="1"/>
	<rect x="62.08" y="26.91" transform="matrix(0.9245 0.3811 -0.3811 0.9245 15.7173 -21.674)" width="1" height="3.87"/>
	<polygon points="52.29,52.14 49.09,53.5 49.48,54.42 53.05,52.9 54.63,49.43 53.71,49.05 	"/>
	<rect x="67.08" y="44.07" transform="matrix(-0.9246 -0.381 0.381 -0.9246 115.9871 112.1121)" width="4.03" height="1"/>
	<rect x="44.89" y="34.92" transform="matrix(0.9246 0.3809 -0.3809 0.9246 17.0266 -15.1885)" width="4" height="1"/>
	<rect x="67.16" y="34.76" transform="matrix(-0.9195 0.393 -0.393 -0.9195 146.4962 40.5336)" width="3.88" height="1"/>
	<rect x="60.71" y="50.55" transform="matrix(-0.393 -0.9195 0.9195 -0.393 40.4379 128.7996)" width="4.03" height="1"/>
	<rect x="51.29" y="28.47" transform="matrix(0.393 0.9195 -0.9195 0.393 58.9832 -31.4175)" width="4" height="1"/>
</g>
</svg>
