<?xml version="1.0" encoding="utf-8"?>
<!-- Generator: Adobe Illustrator 16.0.0, SVG Export Plug-In . SVG Version: 6.00 Build 0)  -->
<!DOCTYPE svg PUBLIC "-//W3C//DTD SVG 1.1 Tiny//EN" "http://www.w3.org/Graphics/SVG/1.1/DTD/svg11-tiny.dtd">
<svg version="1.1" baseProfile="tiny" id="Capa_1" xmlns="http://www.w3.org/2000/svg" xmlns:xlink="http://www.w3.org/1999/xlink"
	 x="0px" y="0px" width="100px" height="100px" viewBox="0 0 100 100" xml:space="preserve">
<g>
	<rect x="13.77" y="58.78" transform="matrix(-0.5139 -0.8579 0.8579 -0.5139 -27.0738 103.2243)" width="3.87" height="1"/>
	<rect x="26.06" y="79.46" transform="matrix(-0.5137 -0.858 0.858 -0.5137 -26.0837 145.1272)" width="4.06" height="1"/>
	<rect x="31.72" y="61.45" transform="matrix(0.5139 0.8578 -0.8578 0.5139 70.0986 3.2111)" width="1" height="4.03"/>
	<rect x="9.61" y="75.3" transform="matrix(0.858 -0.5137 0.5137 0.858 -37.2882 16.73)" width="4" height="1"/>
	<circle cx="21.91" cy="69.63" r="8"/>
	<rect x="18.5" y="79.26" transform="matrix(-0.9698 -0.2439 0.2439 -0.9698 17.5973 164.7532)" width="1" height="4.06"/>
	<rect x="31.57" y="72.04" transform="matrix(-0.9699 -0.2434 0.2434 -0.9699 48.4932 151.0798)" width="4.03" height="1"/>
	<rect x="8.29" y="66.2" transform="matrix(0.9699 0.2436 -0.2436 0.9699 16.559 -0.4972)" width="4" height="1"/>
	<rect x="21.66" y="81.02" transform="matrix(-0.1478 -0.989 0.989 -0.1478 -53.4282 117.0074)" width="4.06" height="1"/>
	<rect x="33.3" y="65.83" transform="matrix(-0.1485 -0.9889 0.9889 -0.1485 -28.2721 111.3456)" width="1" height="4.03"/>
	<rect x="8.05" y="70.9" transform="matrix(0.989 -0.1482 0.1482 0.989 -10.4693 2.2773)" width="4" height="1"/>
	<polygon points="28.29,61.72 30.57,58.58 30.15,54.79 29.16,54.93 29.54,58.28 27.48,61.13 	"/>
	<rect x="14.38" y="77.33" transform="matrix(-0.8104 -0.5858 0.5858 -0.8104 -19.5551 152.3869)" width="1" height="4.06"/>
	<rect x="29.65" y="76.17" transform="matrix(-0.8095 -0.5871 0.5871 -0.8095 12.2917 157.3307)" width="4.03" height="1"/>
	<rect x="10.23" y="62.07" transform="matrix(0.8096 0.587 -0.587 0.8096 39.0551 4.7362)" width="4" height="1"/>
	<rect x="20.03" y="34.13" transform="matrix(0.5136 0.858 -0.858 0.5136 40.3985 -2.0039)" width="3.87" height="1"/>
	<rect x="32.31" y="54.8" transform="matrix(0.5137 0.858 -0.858 0.5137 64.1484 -2.5721)" width="4.06" height="1"/>
	<rect x="15.87" y="50.64" transform="matrix(0.8579 -0.5138 0.5138 0.8579 -23.739 16.447)" width="4" height="1"/>
	<circle cx="28.16" cy="44.98" r="8"/>
	<rect x="30.62" y="31.33" transform="matrix(0.97 0.243 -0.243 0.97 9.0162 -6.5653)" width="1" height="3.88"/>
	<polygon points="26.24,54.79 25.26,54.54 23.92,59.65 24.87,59.95 	"/>
	<rect x="37.82" y="47.39" transform="matrix(-0.9699 -0.2434 0.2434 -0.9699 66.8202 104.04)" width="4.03" height="1"/>
	<rect x="14.55" y="41.54" transform="matrix(0.9699 0.2437 -0.2437 0.9699 10.7442 -2.7645)" width="4" height="1"/>
	<rect x="24.45" y="32.54" transform="matrix(0.1479 0.989 -0.989 0.1479 55.1616 2.0566)" width="3.88" height="1"/>
	<rect x="15.8" y="44.75" transform="matrix(0.1484 0.9889 -0.9889 0.1484 60.1138 23.6853)" width="1" height="4"/>
	<polygon points="36.85,34.18 40.61,33.62 40.46,32.63 36.3,33.27 33.75,36.46 34.53,37.08 	"/>
	<polygon points="21.96,52.72 19.35,55.63 19.92,59.68 20.91,59.53 20.37,55.94 22.7,53.4 	"/>
	<rect x="35.91" y="51.52" transform="matrix(-0.8095 -0.5871 0.5871 -0.8095 38.0867 116.3951)" width="4.03" height="1"/>
	<rect x="16.48" y="37.42" transform="matrix(0.8095 0.5871 -0.5871 0.8095 25.7848 -3.6281)" width="4" height="1"/>
	<rect x="42.28" y="20.81" transform="matrix(0.5138 0.8579 -0.8579 0.5138 39.7804 -27.5776)" width="3.88" height="1"/>
	<rect x="54.57" y="41.48" transform="matrix(-0.5134 -0.8581 0.8581 -0.5134 49.6327 112.102)" width="4.06" height="1"/>
	<polygon points="58.74,26.09 59.25,26.95 62.54,24.98 66.32,25.89 66.55,24.92 62.39,23.96 	"/>
	<rect x="38.79" y="35.35" transform="matrix(-0.5135 -0.8581 0.8581 -0.5135 26.5846 91.7102)" width="1" height="5.94"/>
	<circle cx="50.42" cy="31.66" r="8"/>
	<rect x="52.88" y="18.01" transform="matrix(0.9698 0.2439 -0.2439 0.9698 6.4764 -12.4166)" width="1" height="3.88"/>
	<rect x="47.01" y="41.28" transform="matrix(-0.97 -0.243 0.243 -0.97 83.0702 96.8684)" width="1" height="4.06"/>
	<rect x="36.8" y="28.22" transform="matrix(0.9699 0.2437 -0.2437 0.9699 8.1684 -8.5891)" width="4" height="1"/>
	<rect x="46.7" y="19.22" transform="matrix(0.1479 0.989 -0.989 0.1479 60.9477 -31.3058)" width="3.88" height="1"/>
	<rect x="50.18" y="43.05" transform="matrix(-0.1478 -0.989 0.989 -0.1478 16.8576 101.6174)" width="4.06" height="1"/>
	<polygon points="60.24,29.67 60.39,30.66 66.3,29.82 66.17,28.83 	"/>
	<rect x="57.03" y="19.94" transform="matrix(0.81 0.5865 -0.5865 0.81 23.7641 -29.585)" width="1" height="3.88"/>
	<polygon points="41.78,42.43 37.99,43 38.14,43.99 42.42,43.31 44.97,40.05 44.19,39.42 	"/>
	<rect x="58.16" y="38.2" transform="matrix(-0.8095 -0.5872 0.5872 -0.8095 86.1712 105.3536)" width="4.03" height="1"/>
	<rect x="38.74" y="24.1" transform="matrix(0.8096 0.587 -0.587 0.8096 22.1928 -19.2281)" width="4" height="1"/>
	<rect x="67.98" y="17.01" transform="matrix(0.5134 0.8581 -0.8581 0.5134 49.0411 -51.4805)" width="3.87" height="1"/>
	<rect x="80.26" y="37.68" transform="matrix(-0.5138 -0.8579 0.8579 -0.5138 91.8195 128.3945)" width="4.06" height="1"/>
	<rect x="84.41" y="21.18" transform="matrix(-0.8579 0.5138 -0.5138 -0.8579 171.7072 -4.1137)" width="4.03" height="1"/>
	<polygon points="67.79,33.42 67.28,32.56 64.02,34.51 60.26,33.59 60.02,34.56 64.17,35.53 	"/>
	<circle cx="76.11" cy="27.86" r="8"/>
	<rect x="78.57" y="14.2" transform="matrix(0.97 0.243 -0.243 0.97 6.2921 -18.7304)" width="1" height="3.87"/>
	<rect x="72.71" y="37.48" transform="matrix(-0.97 -0.243 0.243 -0.97 134.6173 95.624)" width="1" height="4.06"/>
	<rect x="85.77" y="30.27" transform="matrix(-0.9699 -0.2433 0.2433 -0.9699 165.4531 81.969)" width="4.03" height="1"/>
	<rect x="72.4" y="15.42" transform="matrix(0.1482 0.989 -0.989 0.1482 79.0635 -59.9594)" width="3.88" height="1"/>
	<rect x="75.87" y="39.25" transform="matrix(-0.1478 -0.989 0.989 -0.1478 50.1121 122.6682)" width="4.06" height="1"/>
	<rect x="85.99" y="25.57" transform="matrix(-0.989 0.1479 -0.1479 -0.989 178.8999 38.8334)" width="4.03" height="1"/>
	<rect x="82.73" y="16.14" transform="matrix(0.8093 0.5874 -0.5874 0.8093 26.4908 -45.4437)" width="1" height="3.88"/>
	<rect x="68.59" y="35.55" transform="matrix(-0.81 -0.5865 0.5865 -0.81 103.0017 108.5357)" width="1" height="4.06"/>
	<rect x="83.86" y="34.39" transform="matrix(-0.8096 -0.5869 0.5869 -0.8096 134.9233 113.5477)" width="4.03" height="1"/>
	<rect x="64.43" y="20.3" transform="matrix(0.8096 0.587 -0.587 0.8096 24.8591 -35.0384)" width="4" height="1"/>
</g>
</svg>
