<?xml version="1.0" encoding="utf-8"?>
<!-- Generator: Adobe Illustrator 16.0.0, SVG Export Plug-In . SVG Version: 6.00 Build 0)  -->
<!DOCTYPE svg PUBLIC "-//W3C//DTD SVG 1.1 Tiny//EN" "http://www.w3.org/Graphics/SVG/1.1/DTD/svg11-tiny.dtd">
<svg version="1.1" baseProfile="tiny" id="Capa_1" xmlns="http://www.w3.org/2000/svg" xmlns:xlink="http://www.w3.org/1999/xlink"
	 x="0px" y="0px" width="100px" height="100px" viewBox="0 0 100 100" xml:space="preserve">
<g>
	<rect x="49.5" y="36" width="1" height="3.88"/>
	<rect x="49.5" y="60" width="1" height="4.06"/>
	<rect x="60" y="49.5" width="4.03" height="1"/>
	<rect x="36" y="49.5" width="4" height="1"/>
	<circle cx="50" cy="50" r="8"/>
	<rect x="58.06" y="39.53" transform="matrix(0.7071 0.7071 -0.7071 0.7071 46.4735 -29.2595)" width="1" height="3.88"/>
	<rect x="41.02" y="56.47" transform="matrix(-0.7071 -0.7071 0.7071 -0.7071 29.5083 129.2335)" width="1" height="4.06"/>
	<rect x="56.51" y="57.99" transform="matrix(-0.7071 -0.7071 0.7071 -0.7071 58.543 141.2386)" width="4.03" height="1"/>
	<rect x="39.54" y="41.01" transform="matrix(0.7071 0.7071 -0.7071 0.7071 41.5212 -17.2152)" width="4" height="1"/>
	<rect x="54.11" y="36.91" transform="matrix(0.9247 0.3808 -0.3808 0.9247 18.9061 -17.8686)" width="1" height="3.87"/>
	<rect x="44.93" y="59.09" transform="matrix(-0.9247 -0.3808 0.3808 -0.9247 64.1598 134.9344)" width="1" height="4.06"/>
	<rect x="59.11" y="54.08" transform="matrix(-0.9246 -0.3811 0.3811 -0.9246 96.8367 128.3231)" width="4.03" height="1"/>
	<rect x="36.92" y="44.92" transform="matrix(0.9245 0.3811 -0.3811 0.9245 20.2477 -11.4037)" width="4" height="1"/>
	<rect x="59.19" y="44.76" transform="matrix(-0.9195 0.393 -0.393 -0.9195 135.1295 62.8615)" width="3.88" height="1"/>
	<rect x="36.94" y="54.23" transform="matrix(0.9194 -0.3933 0.3933 0.9194 -18.3838 19.7369)" width="4.06" height="1"/>
	<rect x="52.75" y="60.55" transform="matrix(-0.3931 -0.9195 0.9195 -0.3931 20.1506 135.4063)" width="4.03" height="1"/>
	<rect x="43.32" y="38.47" transform="matrix(0.393 0.9195 -0.9195 0.393 63.3421 -18.021)" width="4" height="1"/>
</g>
</svg>
