<?xml version="1.0" encoding="utf-8"?>
<!-- Generator: Adobe Illustrator 16.0.0, SVG Export Plug-In . SVG Version: 6.00 Build 0)  -->
<!DOCTYPE svg PUBLIC "-//W3C//DTD SVG 1.1 Tiny//EN" "http://www.w3.org/Graphics/SVG/1.1/DTD/svg11-tiny.dtd">
<svg version="1.1" baseProfile="tiny" id="Capa_1" xmlns="http://www.w3.org/2000/svg" xmlns:xlink="http://www.w3.org/1999/xlink"
	 x="0px" y="0px" width="100px" height="100px" viewBox="0 0 100 100" xml:space="preserve">
<g>
	<rect x="23.85" y="48.92" transform="matrix(0.1593 0.9872 -0.9872 0.1593 70.4661 16.0947)" width="3.87" height="1"/>
	<rect x="27.59" y="72.71" transform="matrix(-0.1594 -0.9872 0.9872 -0.1594 -37.9274 114.1173)" width="4.06" height="1"/>
	<rect x="39.07" y="57.4" transform="matrix(-0.1603 -0.9871 0.9871 -0.1603 -12.7363 107.9931)" width="1" height="4.03"/>
	<rect x="13.86" y="62.74" transform="matrix(0.9872 -0.1594 0.1594 0.9872 -9.8808 3.3377)" width="4" height="1"/>
	<circle cx="27.71" cy="61.33" r="8"/>
	<polygon points="33.25,52.82 34.06,53.41 37.21,49.16 36.43,48.54 	"/>
	<rect x="20.19" y="69.05" transform="matrix(-0.8104 -0.5858 0.5858 -0.8104 -4.1863 140.7996)" width="1" height="4.06"/>
	<rect x="35.46" y="67.86" transform="matrix(-0.8107 -0.5854 0.5854 -0.8107 27.8337 145.7132)" width="4.03" height="1"/>
	<rect x="16" y="53.8" transform="matrix(0.8107 0.5855 -0.5855 0.8107 35.202 -0.2593)" width="4" height="1"/>
	<rect x="24.46" y="71" transform="matrix(-0.9735 -0.2287 0.2287 -0.9735 32.5629 149.8451)" width="1" height="4.06"/>
	<rect x="37.4" y="63.57" transform="matrix(-0.9735 -0.2289 0.2289 -0.9735 63.1171 135.4661)" width="4.03" height="1"/>
	<rect x="14.04" y="58.08" transform="matrix(0.9735 0.2288 -0.2288 0.9735 13.8268 -2.1153)" width="4" height="1"/>
	<rect x="15.54" y="67.26" transform="matrix(0.8449 -0.5349 0.5349 0.8449 -33.516 19.9067)" width="4.06" height="1"/>
	<rect x="32.15" y="70.98" transform="matrix(-0.5345 -0.8452 0.8452 -0.5345 -7.9837 138.5677)" width="4.03" height="1"/>
	<rect x="19.33" y="50.69" transform="matrix(0.5347 0.8451 -0.8451 0.5347 53.1814 5.7947)" width="4" height="1"/>
	<rect x="38.79" y="28.34" transform="matrix(0.1593 0.9872 -0.9872 0.1593 62.7103 -15.9598)" width="3.88" height="1"/>
	<rect x="42.53" y="52.12" transform="matrix(-0.1594 -0.9872 0.9872 -0.1594 -0.2847 105.0066)" width="4.06" height="1"/>
	<rect x="30.3" y="40.66" transform="matrix(0.1601 0.9871 -0.9871 0.1601 67.9784 5.4257)" width="1" height="4"/>
	<circle cx="42.65" cy="40.75" r="8"/>
	<rect x="49.24" y="29.02" transform="matrix(0.8109 0.5852 -0.5852 0.8109 27.5245 -23.2498)" width="1" height="3.88"/>
	<rect x="50.4" y="47.28" transform="matrix(-0.8108 -0.5854 0.5854 -0.8108 66.9464 117.192)" width="4.03" height="1"/>
	<rect x="30.94" y="33.22" transform="matrix(0.8107 0.5855 -0.5855 0.8107 25.98 -12.9056)" width="4" height="1"/>
	<rect x="44.92" y="27.06" transform="matrix(0.9733 0.2296 -0.2296 0.9733 7.8732 -9.6553)" width="1" height="3.88"/>
	<polygon points="40.86,50.59 39.89,50.36 38.97,53.63 36.03,55.49 36.57,56.34 39.84,54.27 	"/>
	<rect x="28.98" y="37.5" transform="matrix(0.9735 0.2286 -0.2286 0.9735 9.5066 -6.0758)" width="4" height="1"/>
	<polygon points="51,34.9 51.49,35.77 54.71,33.94 58.42,34.81 58.65,33.83 54.61,32.83 	"/>
	<polygon points="30.44,47.58 29.55,51.35 30.52,51.58 31.3,48.27 34.45,46.54 34.02,45.64 	"/>
	<rect x="47.09" y="50.4" transform="matrix(-0.5345 -0.8452 0.8452 -0.5345 32.3407 119.6128)" width="4.03" height="1"/>
	<rect x="34.27" y="30.1" transform="matrix(0.5344 0.8452 -0.8452 0.5344 42.7543 -16.4081)" width="4" height="1"/>
	<rect x="64.39" y="24.21" transform="matrix(0.1595 0.9872 -0.9872 0.1595 80.1402 -44.7173)" width="3.88" height="1"/>
	<rect x="68.14" y="47.99" transform="matrix(-0.1594 -0.9872 0.9872 -0.1594 33.4826 125.4943)" width="4.06" height="1"/>
	<rect x="78.1" y="34.2" transform="matrix(-0.9872 0.1594 -0.1594 -0.9872 164.7383 56.1837)" width="4.03" height="1"/>
	<polygon points="56.42,38.02 52.44,38.66 52.6,39.65 56.58,39 58.46,38.7 58.3,37.71 	"/>
	<circle cx="68.25" cy="36.61" r="8"/>
	<rect x="74.84" y="24.89" transform="matrix(0.8109 0.5852 -0.5852 0.8109 29.9481 -39.0159)" width="1" height="3.88"/>
	<rect x="60.74" y="44.33" transform="matrix(-0.8109 -0.5852 0.5852 -0.8109 83.7614 119.7929)" width="1" height="4.06"/>
	<rect x="76.01" y="43.14" transform="matrix(-0.8107 -0.5855 0.5855 -0.8107 115.7209 124.7018)" width="4.03" height="1"/>
	<rect x="56.55" y="29.08" transform="matrix(0.8107 0.5854 -0.5854 0.8107 28.3999 -28.6769)" width="4" height="1"/>
	<rect x="70.53" y="22.93" transform="matrix(0.9735 0.2287 -0.2287 0.9735 7.5698 -15.5855)" width="1" height="3.87"/>
	<rect x="65.01" y="46.29" transform="matrix(-0.9733 -0.2296 0.2296 -0.9733 118.1793 110.3941)" width="1" height="4.06"/>
	<rect x="77.95" y="38.86" transform="matrix(-0.9735 -0.2288 0.2288 -0.9735 148.802 95.9652)" width="4.03" height="1"/>
	<rect x="76.55" y="29.66" transform="matrix(-0.8451 0.5345 -0.5345 -0.8451 160.9435 13.7033)" width="3.88" height="1"/>
	<polygon points="60.11,42.38 59.57,41.54 56.33,43.59 52.53,42.55 52.26,43.51 56.47,44.62 	"/>
	<rect x="72.7" y="46.27" transform="matrix(-0.5345 -0.8452 0.8452 -0.5345 75.1257 134.9115)" width="4.03" height="1"/>
	<rect x="59.88" y="25.97" transform="matrix(0.5346 0.8451 -0.8451 0.5346 51.1685 -39.9729)" width="4" height="1"/>
</g>
</svg>
