<?xml version="1.0" encoding="utf-8"?>
<!-- Generator: Adobe Illustrator 16.0.0, SVG Export Plug-In . SVG Version: 6.00 Build 0)  -->
<!DOCTYPE svg PUBLIC "-//W3C//DTD SVG 1.1 Tiny//EN" "http://www.w3.org/Graphics/SVG/1.1/DTD/svg11-tiny.dtd">
<svg version="1.1" baseProfile="tiny" id="Capa_1" xmlns="http://www.w3.org/2000/svg" xmlns:xlink="http://www.w3.org/1999/xlink"
	 x="0px" y="0px" width="100px" height="100px" viewBox="0 0 100 100" xml:space="preserve">
<g>
	<circle cx="25.98" cy="48.98" r="8"/>
	<circle cx="41.98" cy="38.98" r="8"/>
	<circle cx="59.98" cy="40.98" r="8"/>
	<circle cx="71.98" cy="56.98" r="8"/>
	<circle cx="37.98" cy="68.98" r="8"/>
	<path d="M36.28,19.64c0.7-0.77,1.75-1.95,2.61-2.89l0.89,12.49c0.71-0.16,1.44-0.25,2.2-0.25c0.27,0,0.53,0.02,0.79,0.04
		l-0.88-12.38c0.94,0.85,2.08,1.88,2.84,2.56c1.48,1.34,4.22-0.21,4.22-0.21l-8.87-8.02l-8.02,8.88
		C32.06,19.85,34.94,21.11,36.28,19.64z"/>
	<path d="M67.2,26.61c1.02-0.08,2.55-0.2,3.81-0.3l-5.59,6.29c0.84,0.55,1.6,1.22,2.24,1.99l5.67-6.37c0.1,1.27,0.23,2.85,0.31,3.88
		c0.16,1.99,3.22,2.74,3.22,2.74l-0.95-11.93l-11.92,0.95C63.99,23.87,65.22,26.77,67.2,26.61z"/>
	<path d="M81.31,45.44c0,0-0.48,3.11,1.3,4.02c0.91,0.46,2.28,1.17,3.41,1.74l-5,1.5c0.43,0.89,0.72,1.86,0.86,2.87l5.11-1.53
		c-0.58,1.14-1.3,2.54-1.78,3.47c-0.9,1.78,1.3,4.02,1.3,4.02l5.46-10.65L81.31,45.44z"/>
	<path d="M33.94,83.79c-0.98,0.27-2.47,0.67-3.69,1l3.94-6.57c-0.94-0.39-1.8-0.91-2.57-1.54l-4,6.66
		c-0.33-1.23-0.75-2.76-1.02-3.76c-0.53-1.92-3.67-2.1-3.67-2.1l3.14,11.54l11.54-3.14C37.6,85.88,35.86,83.26,33.94,83.79z"/>
	<path d="M19.59,41.29L13.3,35.7c1.26-0.05,2.8-0.11,3.82-0.15c1.99-0.08,2.87-3.1,2.87-3.1L8.04,32.91L8.5,44.86
		c0,0,2.95-1.11,2.87-3.1c-0.04-1.04-0.1-2.62-0.15-3.89l6.38,5.67C18.15,42.69,18.82,41.94,19.59,41.29z"/>
</g>
</svg>
