<?xml version="1.0" encoding="utf-8"?>
<!-- Generator: Adobe Illustrator 16.0.0, SVG Export Plug-In . SVG Version: 6.00 Build 0)  -->
<!DOCTYPE svg PUBLIC "-//W3C//DTD SVG 1.1 Tiny//EN" "http://www.w3.org/Graphics/SVG/1.1/DTD/svg11-tiny.dtd">
<svg version="1.1" baseProfile="tiny" id="Capa_1" xmlns="http://www.w3.org/2000/svg" xmlns:xlink="http://www.w3.org/1999/xlink"
	 x="0px" y="0px" width="100px" height="100px" viewBox="0 0 100 100" xml:space="preserve">
<g>
	<circle cx="13" cy="29" r="8"/>
	<circle cx="43" cy="13" r="8"/>
	<circle cx="75" cy="25" r="8"/>
	<circle cx="87" cy="49" r="8"/>
	<circle cx="27" cy="87" r="8"/>
	<path d="M48.53,32.18c-0.65,0.79-1.64,1.97-2.45,2.94L45.2,22.75C44.49,22.91,43.76,23,43,23c-0.27,0-0.53-0.02-0.79-0.04
		l0.89,12.49c-0.98-0.82-2.2-1.83-3-2.49c-1.54-1.27-4.21,0.39-4.21,0.39l9.2,7.65l7.64-9.2C52.74,31.79,49.8,30.65,48.53,32.18z"/>
	<path d="M67.78,39.61c-1.04,0.04-2.62,0.1-3.89,0.15l5.67-6.38c-0.84-0.55-1.6-1.22-2.24-1.99l-5.59,6.29
		c-0.05-1.26-0.11-2.8-0.15-3.82c-0.08-1.99-3.1-2.87-3.1-2.87l0.45,11.95l11.96-0.46C70.88,42.48,69.78,39.53,67.78,39.61z"/>
	<path d="M27.42,69.71c0,0,1.64,2.69,3.58,2.25c1.01-0.23,2.55-0.58,3.8-0.87l-4,6.66c0.94,0.39,1.8,0.91,2.57,1.54l3.94-6.57
		c0.28,1.23,0.62,2.74,0.85,3.73c0.44,1.94,3.58,2.25,3.58,2.25l-2.66-11.66L27.42,69.71z"/>
	<path d="M77.11,50.4l-5,1.5c0.62-1.1,1.38-2.44,1.88-3.33c0.98-1.74-1.13-4.07-1.13-4.07l-5.89,10.41l10.42,5.89
		c0,0,0.6-3.09-1.13-4.07c-0.9-0.51-2.28-1.29-3.39-1.92l5.11-1.53C77.55,52.38,77.25,51.42,77.11,50.4z"/>
	<path d="M19.39,36.69l6.37,5.67c-1.27,0.1-2.85,0.23-3.88,0.31c-1.99,0.16-2.74,3.22-2.74,3.22l11.93-0.95l-0.95-11.92
		c0,0-2.9,1.23-2.74,3.22c0.08,1.02,0.2,2.55,0.3,3.81l-6.29-5.59C20.83,35.29,20.16,36.04,19.39,36.69z"/>
</g>
</svg>
