<?xml version="1.0" encoding="utf-8"?>
<!-- Generator: Adobe Illustrator 16.0.0, SVG Export Plug-In . SVG Version: 6.00 Build 0)  -->
<!DOCTYPE svg PUBLIC "-//W3C//DTD SVG 1.1 Tiny//EN" "http://www.w3.org/Graphics/SVG/1.1/DTD/svg11-tiny.dtd">
<svg version="1.1" baseProfile="tiny" id="Capa_1" xmlns="http://www.w3.org/2000/svg" xmlns:xlink="http://www.w3.org/1999/xlink"
	 x="0px" y="0px" width="100px" height="100px" viewBox="0 0 100 100" xml:space="preserve">
<g>
	<path d="M41.5,27L30.22,38.29c0,0,3.76,1.88,5.63,0c0.97-0.97,2.44-2.44,3.64-3.64L39.51,55c0.64-0.12,1.3-0.19,1.98-0.19
		c0.68,0,1.34,0.07,1.98,0.19l0.02-20.36c1.2,1.2,2.67,2.67,3.64,3.64c0.76,0.76,1.83,0.9,2.84,0.8c1.02,0.11,2.11-0.03,2.88-0.8
		c0.97-0.97,2.44-2.44,3.64-3.64L56.51,55c0.64-0.12,1.3-0.19,1.98-0.19c0.68,0,1.34,0.07,1.98,0.19l0.02-20.36
		c1.2,1.2,2.67,2.67,3.64,3.64c1.88,1.88,5.64,0,5.64,0L58.5,27L50,35.5L41.5,27z"/>
	<circle cx="41.5" cy="65" r="8"/>
	<circle cx="58.5" cy="65" r="8"/>
</g>
</svg>
