<?xml version="1.0" encoding="utf-8"?>
<!-- Generator: Adobe Illustrator 16.0.0, SVG Export Plug-In . SVG Version: 6.00 Build 0)  -->
<!DOCTYPE svg PUBLIC "-//W3C//DTD SVG 1.1 Tiny//EN" "http://www.w3.org/Graphics/SVG/1.1/DTD/svg11-tiny.dtd">
<svg version="1.1" baseProfile="tiny" id="Capa_1" xmlns="http://www.w3.org/2000/svg" xmlns:xlink="http://www.w3.org/1999/xlink"
	 x="0px" y="0px" width="100px" height="100px" viewBox="0 0 100 100" xml:space="preserve">
<g>
	<g>
		<circle cx="57.24" cy="42.76" r="8"/>
		<path d="M65.83,25.69c2.83,0,5.66,0,5.66,0l-8.7,8.7c0.53,0.4,1.04,0.82,1.53,1.3c0.48,0.48,0.91,1,1.3,1.53l8.7-8.7
			c0,0,0,2.83,0,5.66s4.24,4.24,4.24,4.24V21.44h0H61.59C61.59,21.44,63,25.69,65.83,25.69z"/>
	</g>
	<g>
		<circle cx="42.76" cy="57.24" r="8"/>
		<path d="M34.17,74.31c-2.83,0-5.66,0-5.66,0l8.7-8.7c-0.53-0.4-1.04-0.82-1.53-1.3c-0.48-0.48-0.91-1-1.3-1.53l-8.7,8.7
			c0,0,0-2.83,0-5.66c0-2.83-4.24-4.24-4.24-4.24v16.97h0h16.97C38.41,78.56,37,74.31,34.17,74.31z"/>
	</g>
</g>
</svg>
