<?xml version="1.0" encoding="utf-8"?>
<!-- Generator: Adobe Illustrator 16.0.0, SVG Export Plug-In . SVG Version: 6.00 Build 0)  -->
<!DOCTYPE svg PUBLIC "-//W3C//DTD SVG 1.1 Tiny//EN" "http://www.w3.org/Graphics/SVG/1.1/DTD/svg11-tiny.dtd">
<svg version="1.1" baseProfile="tiny" id="Capa_1" xmlns="http://www.w3.org/2000/svg" xmlns:xlink="http://www.w3.org/1999/xlink"
	 x="0px" y="0px" width="100px" height="100px" viewBox="0 0 100 100" xml:space="preserve">
<path fill="#010202" d="M66,35H34c-2.2,0-4,1.8-4,4v22c0,2.2,1.8,4,4,4h32c2.2,0,4-1.8,4-4V39C70,36.8,68.2,35,66,35z M64.32,51.08
	l-12.19,7.84c-0.93,0.6-1.68,0.18-1.68-0.92v-6l-10.76,6.92C38.76,59.51,38,59.1,38,58V42c0-1.1,0.76-1.51,1.68-0.92L50.44,48v-6
	c0-1.1,0.76-1.51,1.68-0.92l12.19,7.84C65.24,49.51,65.24,50.49,64.32,51.08z"/>
</svg>
