<?xml version="1.0" encoding="utf-8"?>
<!-- Generator: Adobe Illustrator 16.0.0, SVG Export Plug-In . SVG Version: 6.00 Build 0)  -->
<!DOCTYPE svg PUBLIC "-//W3C//DTD SVG 1.1 Tiny//EN" "http://www.w3.org/Graphics/SVG/1.1/DTD/svg11-tiny.dtd">
<svg version="1.1" baseProfile="tiny" id="Capa_1" xmlns="http://www.w3.org/2000/svg" xmlns:xlink="http://www.w3.org/1999/xlink"
	 x="0px" y="0px" width="100px" height="100px" viewBox="0 0 100 100" xml:space="preserve">
<g>
	<path d="M43.59,38.03c0.06,1.37,0.15,1.14,0.22,2.7c0.02,0.12,0.04,0.24,0.06,0.35l-6.36-6.36l-2.81,2.81l6.32,6.32
		c-0.1-0.01-0.19-0.02-0.29-0.02c-1.3-0.12-1.33-0.15-2.7-0.21c-2.94-0.12-4,4.03-4,4.03l14.32,0.68L47.59,34
		C47.59,34,43.46,35.09,43.59,38.03z"/>
	<path d="M62.7,57.13c2.94,0.12,4-4.03,4-4.03l-14.32-0.68l0.76,14.31c0,0,4.14-1.09,4-4.03c-0.06-1.37-0.15-1.14-0.22-2.7
		c-0.02-0.12-0.04-0.23-0.06-0.35l6.36,6.36l2.81-2.81l-6.32-6.32c0.1,0.01,0.19,0.02,0.29,0.02C61.3,57.04,61.33,57.08,62.7,57.13z
		"/>
	<path d="M38.03,57.15c1.37-0.06,1.14-0.15,2.7-0.23c0.12-0.02,0.24-0.04,0.35-0.06l-6.36,6.36l2.81,2.81l6.32-6.32
		c-0.01,0.1-0.02,0.19-0.02,0.29c-0.12,1.3-0.15,1.33-0.21,2.7c-0.12,2.94,4.03,4,4.03,4l0.68-14.31L34,53.15
		C34,53.15,35.09,57.28,38.03,57.15z"/>
	<path d="M62.71,43.59c-1.37,0.06-1.14,0.15-2.7,0.23c-0.12,0.02-0.23,0.04-0.35,0.06l6.36-6.36l-2.81-2.81l-6.32,6.32
		c0.01-0.1,0.02-0.19,0.02-0.29c0.12-1.3,0.15-1.33,0.21-2.7c0.12-2.94-4.03-4-4.03-4l-0.68,14.31l14.31-0.76
		C66.74,47.59,65.65,43.46,62.71,43.59z"/>
</g>
</svg>
