<?xml version="1.0" encoding="utf-8"?>
<!-- Generator: Adobe Illustrator 16.0.0, SVG Export Plug-In . SVG Version: 6.00 Build 0)  -->
<!DOCTYPE svg PUBLIC "-//W3C//DTD SVG 1.1 Tiny//EN" "http://www.w3.org/Graphics/SVG/1.1/DTD/svg11-tiny.dtd">
<svg version="1.1" baseProfile="tiny" id="Capa_1" xmlns="http://www.w3.org/2000/svg" xmlns:xlink="http://www.w3.org/1999/xlink"
	 x="0px" y="0px" width="100px" height="100px" viewBox="0 0 100 100" xml:space="preserve">
<g>
	<path d="M56.74,37.7c1.37-0.06,1.14-0.15,2.7-0.23c0.12-0.02,0.24-0.04,0.35-0.06l-5.53,5.53l2.81,2.81l5.49-5.49
		c-0.01,0.1-0.02,0.19-0.02,0.29c-0.12,1.3-0.15,1.33-0.21,2.7c-0.12,2.94,4.03,4,4.03,4l0.68-14.32L52.71,33.7
		C52.71,33.7,53.8,37.84,56.74,37.7z"/>
	<path d="M37.7,43.26c-0.06-1.37-0.15-1.14-0.22-2.7c-0.02-0.12-0.04-0.24-0.06-0.35l5.53,5.53l2.81-2.81l-5.49-5.49
		c0.1,0.01,0.19,0.02,0.29,0.02c1.3,0.12,1.33,0.15,2.7,0.21c2.94,0.12,4-4.03,4-4.03l-14.32-0.68l0.76,14.31
		C33.7,47.29,37.83,46.2,37.7,43.26z"/>
	<path d="M43.26,62.3c-1.37,0.06-1.14,0.15-2.7,0.23c-0.12,0.02-0.23,0.04-0.35,0.06l5.53-5.53l-2.81-2.81l-5.49,5.49
		c0.01-0.09,0.02-0.19,0.02-0.29c0.12-1.3,0.15-1.33,0.21-2.7c0.12-2.94-4.03-4-4.03-4l-0.68,14.32l14.31-0.76
		C47.29,66.3,46.2,62.16,43.26,62.3z"/>
	<path d="M56.75,62.32c-2.94-0.12-4,4.03-4,4.03l14.32,0.68L66.3,52.71c0,0-4.14,1.09-4,4.03c0.07,1.37,0.15,1.14,0.23,2.7
		c0.02,0.12,0.04,0.23,0.06,0.35l-5.53-5.53l-2.81,2.81l5.49,5.49c-0.09-0.01-0.19-0.02-0.29-0.02
		C58.15,62.41,58.12,62.37,56.75,62.32z"/>
</g>
</svg>
