<?xml version="1.0" encoding="utf-8"?>
<!-- Generator: Adobe Illustrator 16.0.0, SVG Export Plug-In . SVG Version: 6.00 Build 0)  -->
<!DOCTYPE svg PUBLIC "-//W3C//DTD SVG 1.1 Tiny//EN" "http://www.w3.org/Graphics/SVG/1.1/DTD/svg11-tiny.dtd">
<svg version="1.1" baseProfile="tiny" id="Capa_1" xmlns="http://www.w3.org/2000/svg" xmlns:xlink="http://www.w3.org/1999/xlink"
	 x="0px" y="0px" width="100px" height="100px" viewBox="0 0 100 100" xml:space="preserve">
<circle cx="44.41" cy="63.39" r="2.41"/>
<path d="M41.92,59.78c-2.86-2.36-4.57-5.9-4.57-9.63c0-1.26,0.19-2.55,0.6-3.82c1.61-5,6.08-8.28,11.02-8.64
	c-0.61,0.49-1.23,0.97-1.72,1.41c-1.59,1.45,0,4.13,0,4.13l7.82-7l-7.82-7c0,0-1.59,2.69,0,4.13c0.45,0.4,1,0.86,1.55,1.33
	c-6.14,0.42-11.7,4.49-13.71,10.71c-0.5,1.57-0.75,3.17-0.75,4.74c0,4.72,2.17,9.18,5.83,12.1C40.46,61.24,41.07,60.36,41.92,59.78z
	"/>
</svg>
