<?xml version="1.0" encoding="utf-8"?>
<!-- Generator: Adobe Illustrator 16.0.0, SVG Export Plug-In . SVG Version: 6.00 Build 0)  -->
<!DOCTYPE svg PUBLIC "-//W3C//DTD SVG 1.1 Tiny//EN" "http://www.w3.org/Graphics/SVG/1.1/DTD/svg11-tiny.dtd">
<svg version="1.1" baseProfile="tiny" id="Capa_1" xmlns="http://www.w3.org/2000/svg" xmlns:xlink="http://www.w3.org/1999/xlink"
	 x="0px" y="0px" width="100px" height="100px" viewBox="0 0 100 100" xml:space="preserve">
<g>
	<path d="M66.49,45.7c-0.38,0.42-0.82,0.95-1.26,1.47c-1.01-5.42-4.87-10.13-10.48-11.94c-1.57-0.5-3.17-0.75-4.74-0.75
		c-5.1,0-9.9,2.53-12.79,6.75l2.48,1.69c2.32-3.4,6.21-5.44,10.31-5.44c1.26,0,2.55,0.19,3.82,0.6c4.46,1.43,7.54,5.14,8.41,9.42
		c-0.52-0.64-1.02-1.3-1.49-1.81c-1.45-1.59-4.13,0-4.13,0l7,7.82l7-7.82C70.62,45.7,67.93,44.11,66.49,45.7z"/>
	<path d="M50,62.5c-1.26,0-2.55-0.19-3.82-0.6c-5-1.61-8.28-6.08-8.64-11.02c0.49,0.61,0.97,1.23,1.41,1.72c1.45,1.59,4.13,0,4.13,0
		l-7-7.82l-7,7.82c0,0,2.69,1.59,4.13,0c0.4-0.45,0.86-1,1.33-1.56c0.42,6.14,4.49,11.7,10.71,13.71c1.57,0.5,3.17,0.75,4.74,0.75
		c5.1,0,9.9-2.53,12.78-6.74l-2.47-1.7C57.98,60.46,54.1,62.5,50,62.5z"/>
</g>
</svg>
