<?xml version="1.0" encoding="utf-8"?>
<!-- Generator: Adobe Illustrator 16.0.0, SVG Export Plug-In . SVG Version: 6.00 Build 0)  -->
<!DOCTYPE svg PUBLIC "-//W3C//DTD SVG 1.1 Tiny//EN" "http://www.w3.org/Graphics/SVG/1.1/DTD/svg11-tiny.dtd">
<svg version="1.1" baseProfile="tiny" id="Capa_1" xmlns="http://www.w3.org/2000/svg" xmlns:xlink="http://www.w3.org/1999/xlink"
	 x="0px" y="0px" width="100px" height="100px" viewBox="0 0 100 100" xml:space="preserve">
<g>
	<rect x="-203.5" y="430" width="3" height="22"/>
	<path d="M-211.55,447c0,0.41-0.17,0.78-0.44,1.06c-0.28,0.28-0.65,0.44-1.06,0.44s-0.78-0.17-1.06-0.44
		c-0.28-0.28-0.44-0.65-0.44-1.06v-9.5h4.5v-3h-4.5V430h-3v4.5H-220v3h2.45v9.5c0.01,2.49,2.01,4.49,4.5,4.5
		c2.49-0.01,4.49-2.01,4.5-4.5v-3h-3V447z"/>
</g>
<path d="M-78.41,38.3c0.77,0.85,0.61,0.77,1.28,1.52c1.45,1.59,4.13,0,4.13,0L-80,32l-7,7.82c0,0,2.69,1.59,4.13,0
	c0.67-0.74,0.51-0.67,1.28-1.52V61.7c-0.77-0.85-0.6-0.77-1.28-1.52c-1.45-1.59-4.13,0-4.13,0l7,7.82l7-7.82c0,0-2.69-1.59-4.13,0
	c-0.67,0.74-0.51,0.67-1.28,1.52V38.3z"/>
<path d="M-328.3,181.59c-0.85,0.77-0.77,0.61-1.52,1.28c-1.59,1.45,0,4.13,0,4.13l7.82-7l-7.82-7c0,0-1.59,2.69,0,4.13
	c0.74,0.67,0.67,0.51,1.52,1.28h-23.39c0.85-0.77,0.77-0.6,1.52-1.28c1.59-1.45,0-4.13,0-4.13l-7.82,7l7.82,7c0,0,1.59-2.69,0-4.13
	c-0.74-0.67-0.67-0.51-1.52-1.28H-328.3z"/>
<path d="M-329.82,43c0,0-1.59,2.69,0,4.13c0.74,0.67,0.67,0.51,1.52,1.28h-10.11V38.3c0.77,0.85,0.61,0.77,1.28,1.52
	c1.45,1.59,4.13,0,4.13,0l-7-7.82l-7,7.82c0,0,2.69,1.59,4.13,0c0.67-0.74,0.51-0.67,1.28-1.52v10.11h-10.11
	c0.85-0.77,0.77-0.6,1.52-1.28c1.59-1.45,0-4.13,0-4.13l-7.82,7l7.82,7c0,0,1.59-2.69,0-4.13c-0.74-0.67-0.67-0.51-1.52-1.28h10.11
	V61.7c-0.77-0.85-0.6-0.77-1.28-1.52c-1.45-1.59-4.13,0-4.13,0l7,7.82l7-7.82c0,0-2.69-1.59-4.13,0c-0.67,0.74-0.51,0.67-1.28,1.52
	V51.59h10.11c-0.85,0.77-0.77,0.61-1.52,1.28c-1.59,1.45,0,4.13,0,4.13l7.82-7L-329.82,43z"/>
<g>
	<path d="M-212.57,37.71c0,1.1,0.9,2,2,2h1.14c1.1,0,2-0.9,2-2V34c0-1.1-0.9-2-2-2h-1.14c-1.1,0-2,0.9-2,2V37.71z"/>
	<path d="M-212.57,66c0,1.1,0.9,2,2,2h1.14c1.1,0,2-0.9,2-2v-3.71c0-1.1-0.9-2-2-2h-1.14c-1.1,0-2,0.9-2,2V66z"/>
	<path d="M-216.87,42.32c0.78-0.78,0.78-2.05,0-2.83l-2.63-2.63c-0.78-0.78-2.05-0.78-2.83,0l-0.81,0.81
		c-0.78,0.78-0.78,2.05,0,2.83l2.63,2.63c0.78,0.78,2.05,0.78,2.83,0L-216.87,42.32z"/>
	<path d="M-203.13,57.68c-0.78,0.78-0.78,2.05,0,2.83l2.63,2.63c0.78,0.78,2.05,0.78,2.83,0l0.81-0.81c0.78-0.78,0.78-2.05,0-2.83
		l-2.63-2.63c-0.78-0.78-2.05-0.78-2.83,0L-203.13,57.68z"/>
	<path d="M-220.29,49.43c0-1.1-0.9-2-2-2H-226c-1.1,0-2,0.9-2,2v1.14c0,1.1,0.9,2,2,2h3.71c1.1,0,2-0.9,2-2V49.43z"/>
	<path d="M-197.71,47.43c-1.1,0-2,0.9-2,2v1.14c0,1.1,0.9,2,2,2l3.71,0c1.1,0,2-0.9,2-2v-1.14c0-1.1-0.9-2-2-2H-197.71z"/>
	<path d="M-223.13,59.5c-0.78,0.78-0.78,2.05,0,2.83l0.81,0.81c0.78,0.78,2.05,0.78,2.83,0l2.63-2.63c0.78-0.78,0.78-2.05,0-2.83
		l-0.81-0.81c-0.78-0.78-2.05-0.78-2.83,0L-223.13,59.5z"/>
	<path d="M-196.87,40.5c0.78-0.78,0.78-2.05,0-2.83l-0.81-0.81c-0.78-0.78-2.05-0.78-2.83,0l-2.63,2.63c-0.78,0.78-0.78,2.05,0,2.83
		l0.81,0.81c0.78,0.78,2.05,0.78,2.83,0L-196.87,40.5z"/>
</g>
<path d="M61.07,171.58c-0.07,1.35-0.14,1.15-0.2,2.33c-0.12,2.54,3.45,3.45,3.45,3.45L65,165l-12.36,0.68c0,0,0.91,3.57,3.45,3.45
	c1.18-0.06,0.99-0.13,2.33-0.2l-19.52,19.52c0.07-1.35,0.14-1.15,0.2-2.33c0.12-2.54-3.45-3.45-3.45-3.45l-0.68,12.37l12.37-0.68
	c0,0-0.91-3.57-3.45-3.45c-1.18,0.06-0.99,0.13-2.33,0.2L61.07,171.58z"/>
<path d="M188.55,171.5c0,0-1.92,3.27,0.01,5.02c0.9,0.82,0.82,0.62,1.85,1.55c0,0,0.01,0,0.01,0.01H171.9
	c0.24,0.6,0.38,1.25,0.38,1.93c0,0.68-0.14,1.33-0.38,1.93h18.51c-0.88,0.73-0.93,0.73-1.83,1.55c-1.93,1.77,0.01,5.02,0.01,5.02
	l9.46-8.52L188.55,171.5z"/>
<circle cx="167.14" cy="180" r="2.57"/>
<g>
	<path d="M173.59,38.03c0.06,1.37,0.15,1.14,0.22,2.7c0.02,0.12,0.04,0.24,0.06,0.35l-6.36-6.36l-2.81,2.81l6.32,6.32
		c-0.1-0.01-0.19-0.02-0.29-0.02c-1.3-0.12-1.33-0.15-2.7-0.21c-2.94-0.12-4,4.03-4,4.03l14.32,0.68L177.59,34
		C177.59,34,173.46,35.09,173.59,38.03z"/>
	<path d="M192.7,57.13c2.94,0.12,4-4.03,4-4.03l-14.32-0.68l0.76,14.31c0,0,4.14-1.09,4-4.03c-0.06-1.37-0.15-1.14-0.22-2.7
		c-0.02-0.12-0.04-0.23-0.06-0.35l6.36,6.36l2.81-2.81l-6.32-6.32c0.1,0.01,0.19,0.02,0.29,0.02
		C191.3,57.04,191.33,57.08,192.7,57.13z"/>
	<path d="M168.03,57.15c1.37-0.06,1.14-0.15,2.7-0.23c0.12-0.02,0.24-0.04,0.35-0.06l-6.36,6.36l2.81,2.81l6.32-6.32
		c-0.01,0.1-0.02,0.19-0.02,0.29c-0.12,1.3-0.15,1.33-0.21,2.7c-0.12,2.94,4.03,4,4.03,4l0.68-14.31L164,53.15
		C164,53.15,165.09,57.28,168.03,57.15z"/>
	<path d="M192.71,43.59c-1.37,0.06-1.14,0.15-2.7,0.23c-0.12,0.02-0.23,0.04-0.35,0.06l6.36-6.36l-2.81-2.81l-6.32,6.32
		c0.01-0.1,0.02-0.19,0.02-0.29c0.12-1.3,0.15-1.33,0.21-2.7c0.12-2.94-4.03-4-4.03-4l-0.68,14.31l14.31-0.76
		C196.74,47.59,195.65,43.46,192.71,43.59z"/>
</g>
<g>
	<path d="M-350.07,444.63c0-1.1-0.8-1.6-1.79-1.11l-6.3,3.15c-0.98,0.49-0.98,1.3,0,1.79l6.3,3.15c0.98,0.49,1.79-0.01,1.79-1.11
		V444.63z"/>
	<path d="M-342.94,442.63c-1.1,0-1.6,0.8-1.11,1.79l3.15,6.3c0.49,0.98,1.3,0.98,1.79,0l3.15-6.3c0.49-0.98-0.01-1.79-1.11-1.79
		H-342.94z"/>
	<path d="M-329.93,450.51c0,1.1,0.8,1.6,1.79,1.11l6.3-3.15c0.98-0.49,0.98-1.3,0-1.79l-6.3-3.15c-0.98-0.49-1.79,0.01-1.79,1.11
		V450.51z"/>
	<path d="M-337.06,437.37c1.1,0,1.6-0.8,1.11-1.79l-3.15-6.3c-0.49-0.98-1.3-0.98-1.79,0l-3.15,6.3c-0.49,0.98,0.01,1.79,1.11,1.79
		H-337.06z"/>
</g>
<g>
	<path d="M-345.92,318.5c0,0,1.92-3.27-0.01-5.02c-0.9-0.82-0.82-0.62-1.85-1.55c0,0-0.01,0-0.01-0.01h18.52
		c-0.24-0.6-0.38-1.25-0.38-1.93c0-0.68,0.14-1.33,0.38-1.93h-18.51c0.88-0.73,0.93-0.73,1.83-1.55c1.93-1.77-0.01-5.02-0.01-5.02
		l-9.46,8.53L-345.92,318.5z"/>
	<circle cx="-324.5" cy="310" r="2.57"/>
</g>
<path d="M-200.18,317.23c0,0-3.27-1.92-5.02,0.01c-0.82,0.9-0.62,0.82-1.55,1.85c0,0,0,0.01-0.01,0.01v-18.52
	c-0.6,0.24-1.25,0.38-1.93,0.38c-0.68,0-1.33-0.14-1.93-0.38v18.51c-0.73-0.88-0.73-0.93-1.55-1.83c-1.77-1.93-5.02,0.01-5.02,0.01
	l8.52,9.46L-200.18,317.23z"/>
<circle cx="-208.68" cy="295.82" r="2.57"/>
<path d="M-87.18,302.77c0,0,3.27,1.92,5.02-0.01c0.82-0.9,0.62-0.82,1.55-1.85c0,0,0-0.01,0.01-0.01v18.52
	c0.6-0.24,1.25-0.38,1.93-0.38c0.68,0,1.33,0.14,1.93,0.38v-18.51c0.73,0.88,0.73,0.93,1.55,1.82c1.77,1.93,5.02-0.01,5.02-0.01
	l-8.52-9.46L-87.18,302.77z"/>
<circle cx="-78.68" cy="324.18" r="2.57"/>
<g>
	<path d="M55.98,301.5c0,0-1.92,3.27,0.01,5.02c0.9,0.82,0.82,0.62,1.85,1.55c0,0,0.01,0,0.01,0.01H39.33
		c0.24,0.6,0.38,1.25,0.38,1.93c0,0.68-0.14,1.33-0.38,1.93h18.51c-0.88,0.73-0.93,0.73-1.83,1.55c-1.93,1.77,0.01,5.02,0.01,5.02
		l9.46-8.53L55.98,301.5z"/>
	<circle cx="34.57" cy="310" r="2.57"/>
</g>
<g>
	<polyline points="64,302 64,318 68,318 68,302 	"/>
</g>
<g>
	<circle cx="173.93" cy="300.77" r="2.24"/>
	<path d="M191.84,299.09h-14.03c0.22,0.52,0.35,1.08,0.35,1.68c0,0.6-0.13,1.16-0.35,1.68h14.03c0.77,0,1.46,0.31,1.98,0.82
		c0.51,0.52,0.82,1.21,0.82,1.98v8.96c0,0.77-0.31,1.46-0.82,1.98c-0.51,0.51-1.21,0.82-1.98,0.82h-24.68
		c0.02-0.02,0.04-0.03,0.06-0.05c0.78-0.65,0.82-0.65,1.6-1.37c1.68-1.55-0.01-4.42-0.01-4.42l-8.25,7.5l8.29,7.45
		c0,0,1.68-2.87-0.01-4.41c-0.78-0.71-0.71-0.55-1.58-1.34h24.59c3.4-0.01,6.15-2.76,6.16-6.16v-8.96
		C197.99,301.85,195.24,299.09,191.84,299.09z"/>
</g>
<g>
	<path d="M-193.51,175.7c-0.38,0.42-0.82,0.95-1.26,1.47c-1.01-5.42-4.87-10.13-10.48-11.94c-1.57-0.5-3.17-0.75-4.74-0.75
		c-5.1,0-9.9,2.53-12.79,6.75l2.48,1.69c2.32-3.4,6.21-5.44,10.31-5.44c1.26,0,2.55,0.19,3.82,0.6c4.46,1.43,7.54,5.14,8.41,9.42
		c-0.52-0.64-1.02-1.3-1.49-1.81c-1.45-1.59-4.13,0-4.13,0l7,7.82l7-7.82C-189.38,175.7-192.07,174.11-193.51,175.7z"/>
	<path d="M-210,192.5c-1.26,0-2.55-0.19-3.82-0.6c-5-1.61-8.28-6.08-8.64-11.02c0.49,0.61,0.97,1.23,1.41,1.72
		c1.45,1.59,4.13,0,4.13,0l-7-7.82l-7,7.82c0,0,2.69,1.59,4.13,0c0.4-0.45,0.86-1,1.33-1.56c0.42,6.14,4.49,11.7,10.71,13.71
		c1.57,0.5,3.17,0.75,4.74,0.75c5.1,0,9.9-2.53,12.78-6.74l-2.47-1.7C-202.02,190.46-205.9,192.5-210,192.5z"/>
</g>
<circle cx="-85.59" cy="193.39" r="2.41"/>
<path d="M-88.08,189.78c-2.86-2.36-4.57-5.9-4.57-9.63c0-1.26,0.19-2.55,0.6-3.82c1.61-5,6.08-8.28,11.02-8.64
	c-0.61,0.49-1.23,0.97-1.72,1.41c-1.59,1.45,0,4.13,0,4.13l7.82-7l-7.82-7c0,0-1.59,2.69,0,4.13c0.45,0.4,1,0.86,1.55,1.33
	c-6.14,0.42-11.7,4.49-13.71,10.71c-0.5,1.57-0.75,3.17-0.75,4.74c0,4.72,2.17,9.18,5.83,12.1
	C-89.54,191.24-88.93,190.36-88.08,189.78z"/>
<path fill="#010202" d="M-64,425h-32c-2.2,0-4,1.8-4,4v22c0,2.2,1.8,4,4,4h32c2.2,0,4-1.8,4-4v-22C-60,426.8-61.8,425-64,425z
	 M-69.82,440.82l-16.35,7.36c-1,0.45-1.82-0.08-1.82-1.18v-14c0-1.1,0.82-1.63,1.82-1.18l16.35,7.36
	C-68.82,439.63-68.82,440.37-69.82,440.82z"/>
<path fill="#010202" d="M66,425H34c-2.2,0-4,1.8-4,4v22c0,2.2,1.8,4,4,4h32c2.2,0,4-1.8,4-4v-22C70,426.8,68.2,425,66,425z
	 M64.32,441.08l-12.19,7.84c-0.93,0.6-1.68,0.18-1.68-0.92v-6l-10.76,6.92C38.76,449.51,38,449.1,38,448v-16
	c0-1.1,0.76-1.51,1.68-0.92L50.44,438v-6c0-1.1,0.76-1.51,1.68-0.92l12.19,7.84C65.24,439.51,65.24,440.49,64.32,441.08z"/>
<path fill="#010202" d="M-324,555h-32c-2.2,0-4,1.8-4,4v22c0,2.2,1.8,4,4,4h32c2.2,0,4-1.8,4-4v-22C-320,556.8-321.8,555-324,555z
	 M-340,579c-4.97,0-9-4.03-9-9s4.03-9,9-9s9,4.03,9,9S-335.03,579-340,579z"/>
<path fill="#010202" d="M-194,555h-32c-2.2,0-4,1.8-4,4v22c0,2.2,1.8,4,4,4h32c2.2,0,4-1.8,4-4v-22C-190,556.8-191.8,555-194,555z
	 M-201,577c0,1.1-0.9,2-2,2h-14c-1.1,0-2-0.9-2-2v-14c0-1.1,0.9-2,2-2h14c1.1,0,2,0.9,2,2V577z"/>
<path fill="#010202" d="M-64,555h-32c-2.2,0-4,1.8-4,4v22c0,2.2,1.8,4,4,4h32c2.2,0,4-1.8,4-4v-22C-60,556.8-61.8,555-64,555z
	 M-81.5,577c0,1.1-0.9,2-2,2h-2c-1.1,0-2-0.9-2-2v-14c0-1.1,0.9-2,2-2h2c1.1,0,2,0.9,2,2V577z M-72.5,577c0,1.1-0.9,2-2,2h-2
	c-1.1,0-2-0.9-2-2v-14c0-1.1,0.9-2,2-2h2c1.1,0,2,0.9,2,2V577z"/>
<path fill="#010202" d="M196,425h-32c-2.2,0-4,1.8-4,4v22c0,2.2,1.8,4,4,4h32c2.2,0,4-1.8,4-4v-22C200,426.8,198.2,425,196,425z
	 M190,447c0,1.1-0.9,2-2,2h-2c-1.1,0-2-0.9-2-2v-6.02c-0.04,0.03-0.08,0.07-0.13,0.1l-12.19,7.84c-0.93,0.6-1.68,0.18-1.68-0.92v-16
	c0-1.1,0.76-1.51,1.68-0.92l12.19,7.84c0.05,0.03,0.08,0.07,0.13,0.1V433c0-1.1,0.9-2,2-2h2c1.1,0,2,0.9,2,2V447z"/>
<g>
	<path d="M56.74,37.7c1.37-0.06,1.14-0.15,2.7-0.23c0.12-0.02,0.24-0.04,0.35-0.06l-5.53,5.53l2.81,2.81l5.49-5.49
		c-0.01,0.1-0.02,0.19-0.02,0.29c-0.12,1.3-0.15,1.33-0.21,2.7c-0.12,2.94,4.03,4,4.03,4l0.68-14.32L52.71,33.7
		C52.71,33.7,53.8,37.84,56.74,37.7z"/>
	<path d="M37.7,43.26c-0.06-1.37-0.15-1.14-0.22-2.7c-0.02-0.12-0.04-0.24-0.06-0.35l5.53,5.53l2.81-2.81l-5.49-5.49
		c0.1,0.01,0.19,0.02,0.29,0.02c1.3,0.12,1.33,0.15,2.7,0.21c2.94,0.12,4-4.03,4-4.03l-14.32-0.68l0.76,14.31
		C33.7,47.29,37.83,46.2,37.7,43.26z"/>
	<path d="M43.26,62.3c-1.37,0.06-1.14,0.15-2.7,0.23c-0.12,0.02-0.23,0.04-0.35,0.06l5.53-5.53l-2.81-2.81l-5.49,5.49
		c0.01-0.09,0.02-0.19,0.02-0.29c0.12-1.3,0.15-1.33,0.21-2.7c0.12-2.94-4.03-4-4.03-4l-0.68,14.32l14.31-0.76
		C47.29,66.3,46.2,62.16,43.26,62.3z"/>
	<path d="M56.75,62.32c-2.94-0.12-4,4.03-4,4.03l14.32,0.68L66.3,52.71c0,0-4.14,1.09-4,4.03c0.07,1.37,0.15,1.14,0.23,2.7
		c0.02,0.12,0.04,0.23,0.06,0.35l-5.53-5.53l-2.81,2.81l5.49,5.49c-0.09-0.01-0.19-0.02-0.29-0.02
		C58.15,62.41,58.12,62.37,56.75,62.32z"/>
</g>
</svg>
