<?xml version="1.0" standalone="no"?>
<!DOCTYPE svg PUBLIC "-//W3C//DTD SVG 1.1//EN" "http://www.w3.org/Graphics/SVG/1.1/DTD/svg11.dtd" >
<svg xmlns="http://www.w3.org/2000/svg">
<metadata>
<json>
{
	"fontFamily": "PiX",
	"majorVersion": 1,
	"minorVersion": 2,
	"fontURL": "http://www.github.com/eadpucv/pix",
	"designer": "Herbert Spencer",
	"designerURL": "http://www.herbertspencer.net",
	"license": "Artistic License 2.0",
	"licenseURL": "http://opensource.org/licenses/Artistic-2.0",
	"version": "Version 1.2",
	"fontId": "PiX",
	"psName": "PiX",
	"subFamily": "Regular",
	"fullName": "PiX",
	"description": "Generated by IcoMoon"
}
</json>
</metadata>
<defs>
<font id="PiX" horiz-adv-x="512">
<font-face units-per-em="512" ascent="480" descent="-32" />
<missing-glyph horiz-adv-x="512" />
<glyph unicode="&#x20;" d="" horiz-adv-x="256" />
<glyph unicode="&#xe600;" d="M117.76 298.24c4.249 0 7.68 3.43 7.68 7.68s-3.43 7.68-7.68 7.68h-5.12c-4.249 0-7.68-3.43-7.68-7.68s3.43-7.68 7.68-7.68h5.12zM20.48 298.24h5.12c4.25 0 7.68 3.43 7.68 7.68s-3.43 7.68-7.68 7.68h-5.12c-4.25 0-7.68-3.43-7.68-7.68s3.43-7.68 7.68-7.68zM163.84 298.24c4.25 0 7.68 3.43 7.68 7.68s-3.43 7.68-7.68 7.68h-5.12c-4.25 0-7.68-3.43-7.68-7.68s3.43-7.68 7.68-7.68h5.12zM71.68 298.24c4.249 0 7.68 3.43 7.68 7.68s-3.43 7.68-7.68 7.68h-5.12c-4.249 0-7.68-3.43-7.68-7.68s3.431-7.68 7.68-7.68h5.12zM225.28 298.24h5.12c4.25 0 7.68 3.43 7.68 7.68s-3.43 7.68-7.68 7.68h-5.12c-4.25 0-7.68-3.43-7.68-7.68s3.43-7.68 7.68-7.68zM271.36 298.24h5.12c4.25 0 7.68 3.43 7.68 7.68s-3.43 7.68-7.68 7.68h-5.12c-4.25 0-7.68-3.43-7.68-7.68s3.43-7.68 7.68-7.68zM348.16 313.6c-4.25 0-7.68-3.431-7.68-7.68s3.43-7.68 7.68-7.68h5.12c4.25 0 7.68 3.43 7.68 7.68s-3.43 7.68-7.68 7.68h-5.12zM407.040 305.92c0 4.25-3.43 7.68-7.68 7.68h-5.12c-4.25 0-7.68-3.431-7.68-7.68s3.43-7.68 7.68-7.68h5.12c4.25 0 7.68 3.43 7.68 7.68zM460.8 298.24h5.12c4.25 0 7.68 3.43 7.68 7.68s-3.43 7.68-7.68 7.68h-5.12c-4.25 0-7.68-3.43-7.68-7.68s3.43-7.68 7.68-7.68zM491.52 142.080h-286.72v32.051c14.387 3.687 25.651 15.002 29.389 29.389h42.291c28.211 0.051 51.149 22.989 51.2 51.2v93.491c14.387 3.686 25.651 15.002 29.389 29.389h32.051c8.448 0 16.077-3.43 21.709-9.011 5.581-5.632 9.011-13.261 9.011-21.709v-93.491c-17.664-4.557-30.72-20.531-30.72-39.629 0-22.63 18.329-40.96 40.96-40.96s40.96 18.329 40.96 40.96c0 19.097-13.056 35.072-30.72 39.629v93.491c-0.051 28.211-22.989 51.149-51.2 51.2h-32.051c-4.557 17.664-20.531 30.72-39.629 30.72-22.63 0-40.96-18.329-40.96-40.96 0-19.097 13.056-35.072 30.72-39.629v-93.491c0-8.448-3.43-16.077-9.011-21.709-5.632-5.581-13.261-9.011-21.709-9.011h-42.291c-3.686 14.387-15.001 25.651-29.389 29.389v93.491c0 13.721-4.864 26.317-13.056 35.686-8.141 9.319-19.917 15.514-33.024 15.514-9.881 0-18.841 0-25.293 0-0.563 0-1.075 0-1.638 0-4.557 17.664-20.531 30.72-39.629 30.72-22.63 0-40.96-18.33-40.96-40.96s18.33-40.96 40.96-40.96c19.097 0 35.072 13.056 39.629 30.72 0.512 0 1.075 0 1.638 0 6.502 0 15.463 0 25.293 0 6.605 0 12.749-3.021 17.613-8.55 4.813-5.478 7.987-13.363 7.987-22.17v-93.491c-17.664-4.557-30.72-20.531-30.72-39.629s13.056-35.072 30.72-39.629v-32.051h-163.84c-5.632 0-10.24-4.608-10.24-10.24s4.608-10.24 10.24-10.24h163.84v-42.291c-17.664-4.557-30.72-20.531-30.72-39.629 0-22.63 18.329-40.96 40.96-40.96s40.96 18.329 40.96 40.96c0 19.098-13.056 35.072-30.72 39.629v42.291h286.72c5.632 0 10.24 4.608 10.24 10.24s-4.608 10.24-10.24 10.24zM450.56 213.76c0-5.683-2.253-10.752-5.99-14.49s-8.806-5.99-14.49-5.99c-5.683 0-10.752 2.253-14.49 5.99s-5.99 8.807-5.99 14.49c0 5.683 2.253 10.752 5.99 14.489s8.806 5.99 14.49 5.99c5.683 0 10.752-2.253 14.49-5.99s5.99-8.806 5.99-14.489zM296.96 387.84c0 5.683 2.253 10.752 5.99 14.489s8.806 5.99 14.49 5.99c5.683 0 10.752-2.253 14.49-5.99s5.99-8.806 5.99-14.489c0-5.683-2.253-10.752-5.99-14.49s-8.806-5.99-14.49-5.99c-5.683 0-10.752 2.253-14.49 5.99s-5.99 8.807-5.99 14.49zM106.65 373.351c-3.737-3.738-8.806-5.99-14.49-5.99s-10.752 2.253-14.489 5.99c-3.737 3.737-5.99 8.806-5.99 14.49s2.253 10.752 5.99 14.489c3.737 3.738 8.806 5.99 14.489 5.99s10.752-2.253 14.489-5.99c3.737-3.738 5.99-8.806 5.99-14.489s-2.253-10.752-5.99-14.49zM174.080 213.76c0 5.683 2.253 10.752 5.99 14.489s8.806 5.99 14.489 5.99c5.683 0 10.752-2.253 14.489-5.99s5.99-8.806 5.99-14.489c0-5.683-2.253-10.752-5.99-14.49s-8.806-5.99-14.489-5.99c-5.683 0-10.752 2.253-14.489 5.99s-5.99 8.807-5.99 14.49zM215.040 39.68c0-5.683-2.253-10.752-5.99-14.49s-8.806-5.99-14.489-5.99c-5.683 0-10.752 2.253-14.489 5.99s-5.99 8.806-5.99 14.49c0 5.683 2.253 10.752 5.99 14.49s8.806 5.99 14.489 5.99c5.683 0 10.752-2.253 14.489-5.99s5.99-8.806 5.99-14.49z" />
<glyph unicode="&#xe601;" d="M25.6 275.2h163.84c8.448 0 15.36 6.912 15.36 15.36v163.84c0 8.448-6.912 15.36-15.36 15.36h-163.84c-8.448 0-15.36-6.912-15.36-15.36v-163.84c0-8.448 6.912-15.36 15.36-15.36zM30.72 449.28h153.6v-153.6h-153.6v153.6zM486.4 469.76h-256c-8.448 0-15.36-6.912-15.36-15.36v-174.080c0-8.448-6.912-15.36-15.36-15.36h-174.080c-8.448 0-15.36-6.912-15.36-15.36v-256c0-8.448 6.912-15.36 15.36-15.36h460.8c8.448 0 15.36 6.912 15.36 15.36v460.8c0 8.448-6.912 15.36-15.36 15.36zM481.28-1.28h-450.56v245.76h168.96c19.763 0 35.84 16.077 35.84 35.84v168.96h245.76v-450.56z" />
<glyph unicode="&#xe602;" d="M200.499 327.526c5.325-4.403 9.319-9.472 12.083-15.053 2.714-5.581 4.147-11.623 4.147-18.074h20.48c0 9.575-2.202 18.791-6.246 27.085-6.093 12.493-16.384 22.887-29.542 30.003-13.159 7.168-29.133 11.161-47.001 11.161-23.808 0-44.288-7.117-59.136-19.353-7.373-6.093-13.312-13.517-17.408-21.811s-6.246-17.511-6.246-27.085h20.48c0 6.451 1.433 12.493 4.147 18.073 4.096 8.346 11.111 15.667 20.941 21.043 9.831 5.325 22.374 8.653 37.171 8.653 19.815 0 35.584-5.888 46.131-14.643zM168.96 308.889c0-8.002-6.487-14.49-14.489-14.49s-14.489 6.487-14.489 14.49c0 8.002 6.487 14.49 14.489 14.49s14.489-6.487 14.489-14.49zM434.074 321.485c-6.093 12.493-16.384 22.887-29.543 30.003-13.159 7.168-29.133 11.161-47.002 11.161-23.808 0-44.288-7.117-59.136-19.353-7.373-6.093-13.312-13.517-17.408-21.811s-6.247-17.511-6.247-27.085h20.48c0 6.451 1.433 12.493 4.147 18.073 4.096 8.346 11.111 15.667 20.941 21.043 9.831 5.325 22.375 8.653 37.171 8.653 19.712 0 35.481-5.888 46.080-14.643 5.325-4.403 9.318-9.472 12.083-15.053 2.714-5.581 4.147-11.622 4.147-18.073h20.48c0.051 9.575-2.151 18.791-6.195 27.085zM372.019 308.889c0-8.002-6.487-14.49-14.49-14.49s-14.49 6.487-14.49 14.49c0 8.002 6.487 14.49 14.49 14.49s14.49-6.487 14.49-14.49zM216.73 184.32c0-5.325 1.382-10.445 3.891-14.695 3.738-6.4 9.575-10.701 15.719-13.414 6.195-2.663 12.953-3.891 19.661-3.891 8.96 0.051 17.971 2.099 25.6 7.168 3.789 2.509 7.271 5.888 9.728 10.137 2.509 4.25 3.891 9.37 3.891 14.695h-20.48c0-1.945-0.409-3.175-1.075-4.352-1.024-1.741-3.021-3.584-6.195-4.966s-7.322-2.202-11.469-2.202c-5.581-0.051-11.059 1.536-14.285 3.738-1.638 1.075-2.714 2.253-3.43 3.43-0.666 1.178-1.075 2.457-1.075 4.352h-20.48zM343.040 107.111c-12.8 0.051-22.016 3.072-30.669 6.502-4.301 1.741-8.448 3.584-12.851 5.12s-9.165 2.816-14.49 2.867c-2.611 0-4.813-0.615-6.605-1.331-3.175-1.28-5.581-2.918-7.885-4.505-3.43-2.406-6.553-4.864-9.267-6.502-1.331-0.819-2.56-1.433-3.481-1.741-0.921-0.358-1.536-0.409-1.792-0.409-0.41 0-1.638 0.205-3.43 1.127-2.714 1.382-6.298 4.096-10.087 6.861-1.946 1.382-3.942 2.765-6.298 3.993-2.355 1.178-5.222 2.457-9.165 2.509-5.376 0-10.137-1.331-14.489-2.867-13.159-4.762-24.32-11.623-43.52-11.673-5.632 0-10.24-4.608-10.24-10.24s4.608-10.24 10.24-10.24c16.231-0.051 28.774 4.147 38.246 7.987 4.762 1.894 8.755 3.687 12.083 4.813 2.97 1.075 5.274 1.587 7.117 1.639 0.666-0.307 2.048-1.127 3.789-2.355 2.714-1.945 6.144-4.659 10.291-7.117 2.048-1.229 4.352-2.406 6.912-3.328s5.478-1.587 8.653-1.587c5.017 0 9.267 1.587 12.749 3.379 5.274 2.714 9.421 6.093 12.749 8.448 1.639 1.178 3.021 2.048 3.84 2.509l0.307 0.154c1.792-0.103 4.096-0.563 7.117-1.639 9.984-3.379 25.959-12.851 50.329-12.8 5.632 0 10.24 4.608 10.24 10.24s-4.762 10.189-10.394 10.189z" />
<glyph unicode="&#xe603;" d="M168.96 308.889c0-8.002-6.487-14.49-14.489-14.49s-14.489 6.487-14.489 14.49c0 8.002 6.487 14.49 14.489 14.49s14.489-6.487 14.489-14.49zM372.019 308.889c0-8.002-6.487-14.49-14.49-14.49s-14.49 6.487-14.49 14.49c0 8.002 6.487 14.49 14.49 14.49s14.49-6.487 14.49-14.49zM216.73 184.32c0-5.325 1.382-10.445 3.891-14.695 3.738-6.4 9.575-10.701 15.719-13.414 6.195-2.663 12.953-3.891 19.661-3.891 8.96 0.051 17.971 2.099 25.6 7.168 3.789 2.509 7.271 5.888 9.728 10.137 2.509 4.25 3.891 9.37 3.891 14.695h-20.48c0-1.945-0.409-3.175-1.075-4.352-1.024-1.741-3.021-3.584-6.195-4.966s-7.322-2.202-11.469-2.202c-5.581-0.051-11.059 1.536-14.285 3.738-1.638 1.075-2.714 2.253-3.43 3.43-0.666 1.178-1.075 2.457-1.075 4.352h-20.48zM161.741 119.501c2.202-2.151 4.608-3.84 7.219-5.427 4.608-2.714 9.984-5.017 15.923-7.168 8.909-3.175 18.995-5.837 28.774-7.783 9.831-1.894 19.2-3.123 26.982-3.123 20.48 0 10.24 0 30.72 0 5.939 0 12.749 0.717 20.070 1.894 10.906 1.792 22.681 4.659 33.127 8.141 5.223 1.741 10.087 3.687 14.387 5.837s8.089 4.403 11.366 7.629c3.993 3.993 3.993 10.496 0 14.49s-10.496 3.993-14.49 0c-0.358-0.409-1.485-1.28-3.123-2.253-2.867-1.69-7.322-3.687-12.442-5.529-7.68-2.765-17.050-5.223-25.907-7.014-8.858-1.741-17.357-2.714-22.989-2.714-20.48 0-10.24 0-30.72 0-4.301 0-10.291 0.563-16.743 1.639-9.728 1.587-20.736 4.25-29.85 7.322-4.557 1.536-8.653 3.175-11.827 4.762-3.174 1.536-5.427 3.123-5.99 3.738-3.994 3.993-10.496 3.993-14.489 0-4.045-3.993-4.045-10.445 0-14.438zM92.16 294.4c0 6.451 1.433 12.493 4.147 18.074 4.096 8.345 11.111 15.667 20.941 21.043 9.831 5.325 22.374 8.653 37.171 8.653 19.712 0 35.482-5.888 46.080-14.643 5.325-4.403 9.319-9.472 12.083-15.053 2.714-5.581 4.147-11.623 4.147-18.074h20.48c0 9.575-2.202 18.791-6.246 27.085-6.093 12.493-16.435 22.887-29.542 30.003-13.159 7.168-29.133 11.161-47.001 11.161-23.808 0-44.288-7.117-59.136-19.353-7.373-6.093-13.312-13.517-17.408-21.811s-6.246-17.511-6.246-27.085h20.531zM295.271 294.4c0 6.451 1.433 12.493 4.147 18.074 4.096 8.345 11.111 15.667 20.941 21.043 9.83 5.325 22.375 8.653 37.171 8.653 19.763 0 35.481-5.888 46.080-14.643 5.325-4.403 9.319-9.472 12.083-15.053 2.714-5.581 4.147-11.623 4.147-18.074h20.48c0 9.575-2.202 18.791-6.247 27.085-6.093 12.493-16.384 22.887-29.543 30.003-13.159 7.168-29.133 11.161-46.95 11.161-23.757 0-44.288-7.117-59.136-19.353-7.373-6.093-13.312-13.517-17.408-21.811s-6.247-17.511-6.247-27.085h20.48z" />
<glyph unicode="&#xe604;" d="M187.494 324.198c8.55-5.222 16.025-11.008 20.275-15.309 3.994-3.994 10.496-3.994 14.489 0s3.994 10.496 0 14.49c-5.99 5.939-14.387 12.288-24.013 18.279-9.625 5.939-20.429 11.366-31.181 14.95-15.975 5.325-30.003 8.192-44.185 8.192s-28.211-2.867-44.185-8.192c-5.376-1.792-8.243-7.577-6.451-12.954s7.578-8.243 12.954-6.502c14.746 4.915 26.317 7.168 37.734 7.168s22.989-2.253 37.735-7.168c8.653-2.867 18.329-7.68 26.829-12.954zM433.305 356.608c-15.974 5.325-30.003 8.192-44.185 8.192s-28.211-2.867-44.185-8.192c-10.701-3.584-21.504-9.011-31.181-14.95-9.625-5.939-18.022-12.288-24.013-18.279-3.993-3.994-3.993-10.496 0-14.49s10.496-3.994 14.49 0c4.25 4.301 11.725 10.035 20.275 15.309s18.227 10.087 26.931 12.954c14.745 4.915 26.317 7.168 37.735 7.168s22.989-2.253 37.735-7.168c5.376-1.792 11.161 1.127 12.954 6.502s-1.178 11.161-6.553 12.954zM168.96 310.169c0-8.002-6.487-14.489-14.489-14.489s-14.489 6.487-14.489 14.489c0 8.003 6.487 14.49 14.489 14.49s14.489-6.487 14.489-14.49zM372.019 310.169c0-8.002-6.487-14.489-14.49-14.489s-14.49 6.487-14.49 14.489c0 8.003 6.487 14.49 14.49 14.49s14.49-6.487 14.49-14.49zM220.621 170.906c3.738-6.4 9.575-10.701 15.719-13.414 6.195-2.714 12.953-3.891 19.661-3.891 8.96 0.051 17.971 2.099 25.6 7.168 3.789 2.509 7.271 5.888 9.728 10.137 2.509 4.25 3.891 9.37 3.891 14.695h-20.48c0-1.945-0.409-3.175-1.075-4.352-1.024-1.741-3.021-3.584-6.195-4.966s-7.322-2.202-11.469-2.202c-5.581-0.051-11.059 1.536-14.285 3.738-1.638 1.075-2.714 2.253-3.43 3.43-0.666 1.178-1.075 2.457-1.075 4.352h-20.48c0-5.325 1.434-10.445 3.891-14.695zM315.801 118.784c-12.697 2.816-23.859 2.816-29.082 2.816-4.813 0-8.806-1.485-12.135-3.123-4.966-2.509-8.806-5.427-12.135-7.424-1.639-0.973-3.072-1.741-4.147-2.151-1.127-0.409-1.843-0.512-2.304-0.512-0.614 0-1.741 0.205-3.533 1.075-2.662 1.229-6.246 3.789-10.445 6.451-2.15 1.331-4.506 2.663-7.219 3.738s-5.939 1.945-9.523 1.945c-5.222 0-16.384 0-29.082-2.816s-27.494-8.601-39.578-20.685c-3.994-3.993-3.994-10.496 0-14.49s10.496-3.993 14.489 0c8.397 8.397 19.251 12.902 29.542 15.155 10.291 2.355 19.609 2.355 24.627 2.355 0.307 0 1.331-0.154 3.072-1.024 2.56-1.229 6.195-3.84 10.547-6.553 2.202-1.331 4.608-2.663 7.424-3.789 2.816-1.075 6.093-1.894 9.677-1.894 4.813 0 8.96 1.433 12.391 3.072 5.12 2.509 9.113 5.478 12.39 7.526 1.639 1.024 3.021 1.741 4.045 2.151 1.024 0.461 1.639 0.512 1.894 0.512 5.017 0 14.336 0 24.678-2.304 10.291-2.304 21.146-6.759 29.543-15.155 3.993-3.993 10.496-3.993 14.49 0s3.993 10.496 0 14.49c-12.135 12.032-26.88 17.817-39.629 20.634z" />
<glyph unicode="&#xe605;" d="M92.16 295.68c0 6.451 1.433 12.493 4.147 18.074 4.096 8.345 11.111 15.667 20.941 21.043 9.831 5.325 22.374 8.653 37.171 8.653 22.016 0 37.632 0.819 50.023 3.175 6.195 1.178 11.571 2.765 16.435 4.915 4.813 2.15 9.063 4.864 12.749 8.038 4.301 3.687 4.813 10.137 1.126 14.438s-10.137 4.813-14.439 1.127c-2.304-1.945-4.659-3.481-7.731-4.864-4.608-2.048-10.957-3.687-20.377-4.762-9.369-1.075-21.657-1.536-37.785-1.536-23.757 0-44.288-7.117-59.136-19.354-7.373-6.093-13.312-13.517-17.408-21.811-3.993-8.345-6.195-17.561-6.195-27.136 0-5.632 4.608-10.24 10.24-10.24s10.24 4.608 10.24 10.24zM450.56 295.68c0 9.575-2.202 18.791-6.247 27.085-6.093 12.493-16.384 22.887-29.543 30.003-13.159 7.168-29.133 11.161-46.95 11.161-21.504 0-36.147 0.87-46.183 2.816-5.017 0.973-8.858 2.151-11.93 3.533s-5.478 2.918-7.731 4.864c-4.301 3.686-10.752 3.174-14.438-1.127s-3.175-10.752 1.127-14.439c3.687-3.174 7.936-5.888 12.749-8.038 7.271-3.226 15.719-5.171 26.368-6.4s23.552-1.69 40.089-1.69c19.763 0 35.481-5.888 46.080-14.643 5.325-4.403 9.318-9.472 12.083-15.053 2.611-5.581 4.045-11.623 4.045-18.074 0-5.632 4.608-10.24 10.24-10.24s10.24 4.608 10.24 10.24zM168.96 310.169c0-8.002-6.487-14.489-14.489-14.489s-14.489 6.487-14.489 14.489c0 8.003 6.487 14.49 14.489 14.49s14.489-6.487 14.489-14.49zM372.019 310.169c0-8.002-6.487-14.489-14.49-14.489s-14.49 6.487-14.49 14.489c0 8.003 6.487 14.49 14.49 14.49s14.49-6.487 14.49-14.49zM216.73 185.6c0-5.325 1.382-10.445 3.891-14.695 3.738-6.4 9.575-10.701 15.719-13.414 6.195-2.714 12.953-3.891 19.661-3.891 8.96 0.051 17.971 2.099 25.6 7.168 3.789 2.509 7.271 5.888 9.728 10.137 2.509 4.25 3.891 9.37 3.891 14.695h-20.48c0-1.945-0.409-3.175-1.075-4.352-1.024-1.741-3.021-3.584-6.195-4.966s-7.322-2.202-11.469-2.202c-5.581-0.051-11.059 1.536-14.285 3.738-1.638 1.075-2.714 2.253-3.43 3.43-0.666 1.178-1.075 2.457-1.075 4.352h-20.48zM171.059 83.661c8.397 8.397 19.251 12.902 29.542 15.155 10.343 2.304 19.661 2.304 24.678 2.304 0.307 0 1.331-0.154 3.072-1.024 2.56-1.229 6.195-3.84 10.547-6.553 2.202-1.331 4.608-2.663 7.424-3.789 2.816-1.075 6.093-1.894 9.677-1.894 4.813 0 8.96 1.433 12.391 3.072 5.12 2.509 9.113 5.478 12.39 7.526 1.639 1.024 3.021 1.741 4.045 2.151 1.024 0.461 1.639 0.512 1.894 0.512 5.017 0 14.336 0 24.678-2.304 10.291-2.304 21.146-6.759 29.543-15.155 3.993-3.993 10.496-3.993 14.49 0s3.993 10.496 0 14.49c-12.083 12.083-26.829 17.869-39.577 20.685s-23.911 2.765-29.133 2.765c-4.813 0-8.807-1.485-12.135-3.123-4.966-2.509-8.807-5.427-12.135-7.424-1.639-0.973-3.072-1.741-4.147-2.151-1.127-0.409-1.843-0.512-2.304-0.512-0.614 0-1.741 0.205-3.533 1.075-2.662 1.229-6.246 3.789-10.445 6.451-2.15 1.331-4.506 2.663-7.219 3.738s-5.939 1.945-9.523 1.945c-5.222 0-16.384 0-29.082-2.816s-27.494-8.601-39.577-20.685c-3.994-3.993-3.994-10.496 0-14.49s10.445-3.993 14.439 0.051z" />
<glyph unicode="&#xe606;" d="M235.52 346.88c0 5.632-4.608 10.24-10.24 10.24-3.174 0-6.246 0.358-9.933 0.921-5.53 0.87-12.493 2.406-22.169 3.635-9.677 1.28-22.016 2.253-38.707 2.253-23.757 0-44.288-7.117-59.136-19.353-7.373-6.093-13.312-13.517-17.408-21.811-4.045-8.294-6.246-17.51-6.246-27.085 0-5.632 4.608-10.24 10.24-10.24s10.24 4.608 10.24 10.24c0 6.451 1.433 12.493 4.147 18.074 4.096 8.345 11.111 15.667 20.941 21.043 9.831 5.325 22.375 8.653 37.171 8.653 21.248 0 34.253-1.638 44.135-3.277 4.966-0.819 9.216-1.69 13.465-2.355 4.301-0.666 8.601-1.178 13.261-1.178 5.632 0 10.24 4.608 10.24 10.24zM444.313 353.485c-6.093 12.493-16.384 22.886-29.543 30.003-13.159 7.168-29.133 11.161-46.95 11.161-21.504 0-36.147 0.87-46.183 2.816-5.017 0.973-8.858 2.15-11.93 3.533s-5.478 2.918-7.731 4.864c-4.301 3.686-10.752 3.175-14.438-1.127s-3.175-10.752 1.127-14.438c3.687-3.174 7.936-5.888 12.749-8.038 7.271-3.226 15.719-5.171 26.368-6.4s23.552-1.69 40.089-1.69c19.763 0 35.481-5.888 46.080-14.643 5.325-4.403 9.318-9.472 12.083-15.053 2.611-5.581 4.045-11.623 4.045-18.074 0-5.632 4.608-10.24 10.24-10.24s10.24 4.608 10.24 10.24c0 9.575-2.202 18.791-6.247 27.085zM168.96 310.169c0-8.002-6.487-14.489-14.489-14.489s-14.489 6.487-14.489 14.489c0 8.003 6.487 14.49 14.489 14.49s14.489-6.487 14.489-14.49zM372.019 310.169c0-8.002-6.487-14.489-14.49-14.489s-14.49 6.487-14.49 14.489c0 8.003 6.487 14.49 14.49 14.49s14.49-6.487 14.49-14.49zM273.664 181.248c-1.024-1.741-3.021-3.584-6.195-4.966s-7.322-2.202-11.469-2.202c-5.581-0.051-11.059 1.536-14.285 3.738-1.638 1.075-2.714 2.253-3.43 3.43-0.666 1.178-1.075 2.457-1.075 4.352h-20.48c0-5.325 1.382-10.445 3.891-14.695 3.738-6.4 9.575-10.701 15.719-13.414 6.195-2.714 12.953-3.891 19.661-3.891 8.96 0.051 17.971 2.099 25.6 7.168 3.789 2.509 7.271 5.888 9.728 10.137 2.509 4.25 3.891 9.37 3.891 14.695h-20.48c0-1.945-0.409-3.175-1.075-4.352zM256 111.36c-16.947 0-30.72-13.773-30.72-30.72s13.773-30.72 30.72-30.72c16.947 0 30.72 13.773 30.72 30.72s-13.773 30.72-30.72 30.72zM263.219 73.421c-1.843-1.894-4.352-3.021-7.219-3.021s-5.376 1.127-7.219 3.021c-1.894 1.843-3.021 4.352-3.021 7.219s1.126 5.376 3.021 7.219c1.843 1.894 4.352 3.021 7.219 3.021s5.376-1.127 7.219-3.021c1.894-1.843 3.021-4.352 3.021-7.219s-1.127-5.376-3.021-7.219z" />
<glyph unicode="&#xe607;" d="M237.209 294.4c0 9.575-2.15 19.354-5.99 28.774-5.786 14.131-15.411 27.546-28.467 37.632-12.953 10.087-29.542 16.793-48.281 16.793-12.493 0-24.064-2.97-34.202-7.936-15.207-7.475-27.239-19.353-35.533-32.666-8.294-13.363-13.005-28.262-13.005-42.599h20.48c0 6.451 1.485 13.824 4.454 21.043 4.403 10.905 12.135 21.504 22.016 29.184 9.933 7.68 21.913 12.493 35.789 12.493 9.267 0 17.664-2.151 25.19-5.837 11.315-5.53 20.685-14.695 27.187-25.139 6.502-10.394 9.984-22.067 9.933-31.744h20.429zM168.96 308.889c0-8.002-6.487-14.49-14.489-14.49s-14.489 6.487-14.489 14.49c0 8.002 6.487 14.49 14.489 14.49s14.489-6.487 14.489-14.49zM434.329 323.174c-5.786 14.131-15.411 27.546-28.467 37.632-12.954 10.087-29.543 16.793-48.333 16.793-12.493 0-24.064-2.97-34.202-7.936-15.207-7.475-27.238-19.353-35.533-32.666-8.294-13.363-13.005-28.262-13.005-42.599h20.48c0 6.451 1.485 13.824 4.454 21.043 4.403 10.905 12.135 21.504 22.016 29.184 9.933 7.68 21.913 12.493 35.789 12.493 9.267 0 17.664-2.151 25.19-5.837 11.315-5.53 20.685-14.695 27.187-25.088s9.984-22.067 9.933-31.744h20.48c0 9.523-2.151 19.303-5.99 28.723zM372.019 308.889c0-8.002-6.487-14.49-14.49-14.49s-14.49 6.487-14.49 14.49c0 8.002 6.487 14.49 14.49 14.49s14.49-6.487 14.49-14.49zM273.664 179.968c-1.024-1.741-3.021-3.584-6.195-4.966s-7.322-2.202-11.469-2.202c-5.581-0.051-11.059 1.536-14.285 3.738-1.638 1.075-2.714 2.253-3.43 3.43-0.666 1.178-1.075 2.457-1.075 4.352h-20.48c0-5.325 1.382-10.445 3.891-14.695 3.738-6.4 9.575-10.701 15.719-13.414 6.195-2.663 12.953-3.891 19.661-3.891 8.96 0.051 17.971 2.099 25.6 7.168 3.789 2.509 7.271 5.888 9.728 10.137 2.509 4.25 3.891 9.37 3.891 14.695h-20.48c0-1.945-0.409-3.175-1.075-4.352zM256 111.36c-16.947 0-30.72-13.773-30.72-30.72s13.773-30.72 30.72-30.72c16.947 0 30.72 13.773 30.72 30.72s-13.773 30.72-30.72 30.72zM263.219 73.421c-1.843-1.894-4.352-3.021-7.219-3.021s-5.376 1.127-7.219 3.021c-1.894 1.843-3.021 4.352-3.021 7.219s1.126 5.376 3.021 7.219c1.843 1.894 4.352 3.021 7.219 3.021s5.376-1.127 7.219-3.021c1.894-1.843 3.021-4.352 3.021-7.219s-1.127-5.376-3.021-7.219z" />
<glyph unicode="&#xe608;" d="M179.609 351.283c11.315-5.53 20.685-14.695 27.187-25.088s9.984-22.067 9.933-31.744h20.48c0 9.574-2.15 19.353-5.99 28.774-5.786 14.131-15.411 27.545-28.467 37.632-12.953 10.035-29.542 16.743-48.281 16.743-12.493 0-24.064-2.97-34.202-7.936-15.207-7.475-27.239-19.353-35.533-32.666-8.294-13.363-13.005-28.262-13.005-42.599h20.48c0 6.451 1.485 13.824 4.454 21.043 4.403 10.905 12.135 21.504 22.016 29.184 9.933 7.68 21.913 12.493 35.789 12.493 9.267 0 17.613-2.151 25.139-5.837zM168.96 308.889c0-8.002-6.487-14.49-14.489-14.49s-14.489 6.487-14.489 14.49c0 8.002 6.487 14.49 14.489 14.49s14.489-6.487 14.489-14.49zM434.329 323.174c-5.786 14.131-15.411 27.546-28.467 37.632-12.954 10.087-29.543 16.793-48.333 16.793-12.493 0-24.064-2.97-34.202-7.936-15.207-7.475-27.238-19.353-35.533-32.666-8.294-13.363-13.005-28.262-13.005-42.599h20.48c0 6.451 1.485 13.824 4.454 21.043 4.403 10.905 12.135 21.504 22.016 29.184 9.933 7.68 21.913 12.493 35.789 12.493 9.267 0 17.664-2.151 25.19-5.837 11.315-5.53 20.685-14.695 27.187-25.088s9.984-22.067 9.933-31.744h20.48c0 9.523-2.151 19.303-5.99 28.723zM372.019 308.889c0-8.002-6.487-14.49-14.49-14.49s-14.49 6.487-14.49 14.49c0 8.002 6.487 14.49 14.49 14.49s14.49-6.487 14.49-14.49zM216.73 184.32c0-5.325 1.382-10.445 3.891-14.695 3.738-6.4 9.575-10.701 15.719-13.414 6.195-2.663 12.953-3.891 19.661-3.891 8.96 0.051 17.971 2.099 25.6 7.168 3.789 2.509 7.271 5.888 9.728 10.137 2.509 4.25 3.891 9.37 3.891 14.695h-20.48c0-1.945-0.409-3.175-1.075-4.352-1.024-1.741-3.021-3.584-6.195-4.966s-7.322-2.202-11.469-2.202c-5.581-0.051-11.059 1.536-14.285 3.738-1.638 1.075-2.714 2.253-3.43 3.43-0.666 1.178-1.075 2.457-1.075 4.352h-20.48zM261.12 116.48h-10.24c-28.416-0.051-58.061 9.728-77.363 19.405l-14.489-11.623c5.53-22.016 16.384-43.878 31.846-60.774 7.731-8.448 16.64-15.616 26.727-20.787 10.087-5.12 21.351-8.141 33.28-8.141 10.24 0 10.24 0 10.24 0 11.981 0 23.245 3.021 33.28 8.141 15.104 7.731 27.648 20.019 37.478 34.304 9.83 14.336 16.947 30.72 21.094 47.257l-14.49 11.623c-19.303-9.677-48.947-19.456-77.363-19.405zM306.074 77.312c-6.349-6.912-13.414-12.544-20.941-16.333-7.577-3.84-15.514-5.939-24.013-5.939 0 0 0 0-10.24 0-8.499 0-16.435 2.099-24.013 5.939-11.264 5.735-21.555 15.514-29.85 27.648-4.198 6.093-7.885 12.8-10.957 19.712 18.944-6.912 41.523-12.288 64.819-12.339h10.24c23.245 0.051 45.875 5.427 64.819 12.339-5.12-11.52-11.878-22.323-19.865-31.027z" />
<glyph unicode="&#xe609;" d="M147.303 99.481c-8.089 0-15.411-3.328-20.685-8.704-5.273-5.325-8.499-12.749-8.499-20.839s3.225-15.514 8.499-20.839c5.222-5.325 12.595-8.704 20.685-8.704s15.411 3.328 20.685 8.704c5.274 5.325 8.499 12.749 8.499 20.839s-3.226 15.514-8.499 20.839c-5.274 5.376-12.595 8.704-20.685 8.704zM157.030 59.904c-2.56-2.56-5.939-4.096-9.728-4.096s-7.168 1.536-9.728 4.096c-2.509 2.56-4.096 6.093-4.096 10.035 0 3.993 1.587 7.475 4.096 10.035 2.56 2.56 5.939 4.096 9.728 4.096s7.168-1.536 9.728-4.096c2.509-2.56 4.096-6.093 4.096-10.035s-1.587-7.424-4.096-10.035zM440.832 282.368c2.151 7.68 3.328 15.769 3.328 24.115 0 24.678-9.882 47.155-25.856 63.386s-38.144 26.368-62.618 26.317c-10.291 0-20.173-1.843-29.337-5.12-18.841 28.313-50.791 47.053-87.142 47.053-27.802 0-53.145-11.008-71.885-28.826-16.077-15.309-27.341-35.687-31.488-58.624-4.147 0.615-8.346 0.973-12.698 0.973-24.32 0-46.438-10.035-62.31-26.215-15.821-16.077-25.651-38.451-25.651-63.027 0-31.13 15.77-58.624 39.68-74.599-0.051-1.178-0.153-2.355-0.153-3.584 0-19.405 5.785-37.786 16.947-51.763 5.581-6.963 12.595-12.8 20.736-16.845 8.192-4.045 17.511-6.298 27.546-6.298 3.789 0 7.475 0.563 11.111 1.28 4.301 0.921 8.448 2.099 11.981 3.226 1.638-2.969 3.789-6.451 6.451-10.035 3.686-4.915 8.448-10.035 14.592-14.387 6.093-4.301 13.721-7.731 22.528-8.858 3.84-0.461 7.577-0.717 11.161-0.717 20.429 0 36.506 7.168 47.258 14.233 4.352 2.867 7.885 5.683 10.547 8.141 2.099-1.178 4.557-2.406 7.424-3.687 9.216-4.096 22.272-8.192 37.837-8.192 3.635 0 7.424 0.205 11.264 0.717 18.791 2.457 37.939 10.599 52.992 24.115 7.526 6.759 13.978 14.95 18.586 24.423 3.072 6.298 5.223 13.209 6.451 20.582 1.075-0.051 2.099-0.205 3.175-0.205 17.562 0 33.536 7.271 45.005 18.944 11.469 11.623 18.534 27.75 18.534 45.465 0 25.549-14.643 47.616-35.993 58.009zM443.699 193.28c-7.834-7.936-18.534-12.8-30.361-12.8-3.328 0-6.605 0.409-9.882 1.229l-12.442 2.969-0.205-12.8c-0.154-8.704-2.099-16.384-5.478-23.296-5.017-10.291-13.312-18.893-23.245-25.293s-21.555-10.496-32.563-11.93c-2.969-0.409-5.837-0.563-8.653-0.563-11.93 0-22.272 3.175-29.543 6.451-3.635 1.587-6.502 3.226-8.448 4.403-0.973 0.563-1.639 1.075-2.099 1.382l-0.461 0.307-0.051 0.051-7.885 5.99-6.195-7.68c-0.154-0.154-4.813-5.683-13.159-10.957s-20.173-10.342-35.226-10.342c-2.765 0-5.632 0.154-8.601 0.563-5.069 0.615-9.369 2.56-13.261 5.274-5.837 4.045-10.547 10.137-13.568 15.257-1.536 2.56-2.662 4.813-3.379 6.4-0.358 0.768-0.614 1.382-0.768 1.792l-0.154 0.409v0.051l-3.584 9.933-9.831-3.942-0.154-0.051c-0.819-0.307-5.069-1.945-10.137-3.481-2.56-0.768-5.274-1.485-7.833-1.945-2.56-0.512-4.915-0.768-6.451-0.768-7.066 0-13.107 1.536-18.483 4.147-7.987 3.942-14.489 10.599-19.097 19.303s-7.219 19.456-7.219 30.925c0 2.406 0.205 4.915 0.615 7.526l0.973 6.912-6.093 3.43c-20.838 11.725-35.021 34.253-35.021 60.313 0 19.098 7.578 36.25 19.865 48.743 12.288 12.441 29.082 20.070 47.719 20.121 6.4 0 12.595-0.973 18.535-2.714l12.185-3.533 0.87 12.646c1.587 22.426 11.52 42.445 26.675 56.883s35.379 23.193 57.754 23.193c31.795 0 59.495-17.817 74.035-44.339l4.659-8.551 8.755 4.25c8.858 4.301 18.637 6.707 29.031 6.707 18.739 0 35.687-7.68 48.026-20.224s19.968-29.798 19.968-49.050c0-9.318-1.843-18.176-5.12-26.265l-4.25-10.496 10.854-3.175c17.869-5.223 31.181-22.067 31.13-42.189-0.103-12.288-4.915-23.245-12.749-31.181zM122.675 31.897c0-6.503-5.204-11.776-11.623-11.776s-11.623 5.272-11.623 11.776c0 6.503 5.204 11.776 11.623 11.776s11.623-5.272 11.623-11.776z" />
<glyph unicode="&#xe60a;" d="M310.425 295.168c-12.595-4.147-79.821-77.261-79.821-77.261s-24.679 25.702-34.765 27.546-25.651-4.915-25.651-4.915l60.211-60.263 111.462 111.463c0 0-18.841 7.577-31.437 3.43z" />
<glyph unicode="&#xe60b;" d="M325.939 279.347c0 0-7.731-13.005 0-19.968 3.584-3.277 3.226-2.457 7.322-6.195h-113.101v-15.36h113.101c-4.096-3.686-3.738-2.918-7.322-6.195-7.731-7.014 0-19.968 0-19.968l37.786 33.843-37.786 33.843zM273.92 219.853c0-0.717-0.256-1.28-0.768-1.792s-1.127-0.768-1.792-0.768h-81.92c-0.717 0-1.28 0.256-1.792 0.768s-0.768 1.127-0.768 1.792v51.2c0 0.717 0.256 1.28 0.768 1.792s1.126 0.768 1.792 0.768h81.92c0.717 0 1.28-0.256 1.792-0.768s0.768-1.127 0.768-1.792v-10.24h15.36v10.24c-0.051 9.933-8.038 17.869-17.92 17.92h-81.92c-9.881-0.051-17.869-7.987-17.92-17.92v-51.2c0.051-9.933 8.038-17.869 17.92-17.92h81.92c9.882 0.051 17.869 7.987 17.92 17.92v10.24h-15.36v-10.24z" />
<glyph unicode="&#xe60c;" d="M199.68 305.92c-8.499 0-15.36-6.861-15.36-15.36s6.861-15.36 15.36-15.36c8.499 0 15.36 6.861 15.36 15.36s-6.861 15.36-15.36 15.36zM199.68 285.44c-2.816 0-5.12 2.304-5.12 5.12s2.304 5.12 5.12 5.12c2.816 0 5.12-2.304 5.12-5.12s-2.304-5.12-5.12-5.12zM199.68 264.96c-8.499 0-15.36-6.861-15.36-15.36s6.861-15.36 15.36-15.36c8.499 0 15.36 6.861 15.36 15.36s-6.861 15.36-15.36 15.36zM199.68 244.48c-2.816 0-5.12 2.304-5.12 5.12s2.304 5.12 5.12 5.12c2.816 0 5.12-2.304 5.12-5.12s-2.304-5.12-5.12-5.12zM199.68 224c-8.499 0-15.36-6.861-15.36-15.36s6.861-15.36 15.36-15.36c8.499 0 15.36 6.861 15.36 15.36s-6.861 15.36-15.36 15.36zM199.68 203.52c-2.816 0-5.12 2.304-5.12 5.12s2.304 5.12 5.12 5.12c2.816 0 5.12-2.304 5.12-5.12s-2.304-5.12-5.12-5.12zM222.72 298.24h97.28v-15.36h-97.28v15.36zM222.72 257.28h97.28v-15.36h-97.28v15.36zM222.72 216.32h97.28v-15.36h-97.28v15.36z" />
<glyph unicode="&#xe60d;" d="M259.635 193.28c-1.127 1.178-2.457 2.099-3.942 2.765s-3.123 0.973-4.864 0.973-3.379-0.307-4.915-0.973c-1.536-0.666-2.867-1.587-3.994-2.765s-1.997-2.509-2.662-3.993c-0.666-1.485-0.973-3.123-0.973-4.864s0.307-3.379 0.973-4.915 1.536-2.867 2.662-3.993c1.126-1.127 2.458-2.048 3.994-2.663 1.536-0.666 3.174-0.973 4.915-0.973s3.379 0.307 4.864 0.973c1.485 0.666 2.816 1.536 3.942 2.663s2.048 2.457 2.714 3.993c0.666 1.536 0.973 3.175 0.973 4.915s-0.307 3.379-0.973 4.864c-0.666 1.485-1.587 2.816-2.714 3.993zM283.392 321.894c-3.789 3.123-8.346 5.478-13.568 7.168-5.274 1.69-11.008 2.509-17.203 2.509-4.659 0-9.421-0.615-14.285-1.894s-9.267-3.277-13.261-6.042c-3.994-2.765-7.219-6.298-9.779-10.649s-3.789-9.575-3.789-15.719c0-2.406 0.307-4.608 0.922-6.656s1.485-3.738 2.611-5.274c1.126-1.485 2.458-2.663 3.942-3.43 1.485-0.819 3.123-1.178 4.864-1.178 2.458 0 4.608 0.973 6.349 2.867s2.611 4.454 2.611 7.68c0 1.843-0.358 3.328-1.126 4.557-0.768 1.178-1.587 2.406-2.458 3.584s-1.69 2.406-2.458 3.789c-0.768 1.331-1.178 3.123-1.178 5.325 0 2.099 0.563 4.096 1.638 5.888s2.611 3.328 4.506 4.659c1.894 1.331 4.198 2.355 6.861 3.072s5.53 1.075 8.601 1.075c3.584 0 6.912-0.614 9.933-1.792 3.021-1.229 5.683-3.021 7.885-5.478s3.942-5.529 5.223-9.216c1.229-3.687 1.894-8.038 1.894-13.005 0-5.325-0.615-10.137-1.894-14.49-1.229-4.301-2.765-8.397-4.608-12.288s-3.84-7.731-5.99-11.52c-2.151-3.789-4.147-7.833-5.99-12.185-1.843-4.301-3.379-9.063-4.608-14.285s-1.843-11.162-1.843-17.818h5.376c0 5.683 1.075 10.957 3.174 15.821s4.761 9.472 7.936 13.875c3.175 4.403 6.605 8.653 10.291 12.8s7.117 8.397 10.291 12.697 5.837 8.807 7.936 13.517c2.099 4.71 3.175 9.83 3.175 15.411 0 5.632-1.075 10.701-3.175 15.155-2.048 4.557-5.017 8.397-8.807 11.469z" />
<glyph unicode="&#xe60e;" d="M248.167 268.493l3.738 7.475 3.738-7.475c0.307-0.563 0.665-1.075 1.177-1.485s1.178-0.666 1.894-0.666c0.717 0 1.382 0.307 1.894 0.666 0.512 0.41 0.87 0.921 1.178 1.485l3.738 7.475 3.738-7.475c0.307-0.563 0.666-1.075 1.178-1.485s1.178-0.666 1.894-0.666c0.717 0 1.382 0.307 1.894 0.666 0.512 0.41 0.87 0.921 1.178 1.485l3.738 7.475 1.894-3.737c0.409-0.819 1.433-1.178 2.253-0.768s1.178 1.433 0.768 2.253l-1.894 3.738c-0.307 0.563-0.666 1.075-1.178 1.485s-1.178 0.717-1.843 0.666c-0.717 0-1.382-0.307-1.894-0.666-0.512-0.409-0.87-0.922-1.178-1.485l-3.738-7.475-3.738 7.475c-0.307 0.563-0.666 1.075-1.178 1.485s-1.178 0.717-1.894 0.666c-0.717 0-1.382-0.307-1.843-0.666-0.512-0.409-0.87-0.922-1.178-1.485l-3.738-7.475-3.738 7.475c-0.307 0.563-0.666 1.075-1.178 1.485s-1.178 0.717-1.894 0.666c-0.717 0-1.382-0.307-1.894-0.666-0.512-0.409-0.87-0.922-1.178-1.485l-3.738-7.475-3.738 7.475c-0.307 0.563-0.666 1.075-1.178 1.485s-1.178 0.717-1.894 0.666c-0.717 0-1.382-0.307-1.894-0.666-0.512-0.409-0.87-0.922-1.178-1.485l-1.894-3.738c-0.41-0.819-0.102-1.843 0.768-2.253 0.819-0.409 1.843-0.102 2.253 0.768l1.894 3.737 3.738-7.475c0.307-0.563 0.666-1.075 1.178-1.485s1.178-0.666 1.894-0.666c0.717 0 1.382 0.307 1.894 0.666s0.922 0.87 1.178 1.485zM258.714 339.712c-33.28 0-60.314-26.983-60.314-60.313 0.051-13.056 5.837-24.013 11.417-31.693s11.111-12.237 11.315-12.391c2.867-2.355 5.837-6.246 7.936-10.343s3.328-8.448 3.277-11.315c0-2.816 2.304-5.12 5.12-5.12s5.12 2.304 5.12 5.12c-0.051 5.325-1.792 10.803-4.403 15.975-2.662 5.171-6.246 10.035-10.547 13.619v0c-0.41 0.307-5.325 4.557-9.984 11.111-4.71 6.605-9.011 15.462-9.011 25.037 0 13.824 5.581 26.317 14.643 35.379s21.555 14.643 35.379 14.643c13.824 0 26.317-5.581 35.379-14.643s14.643-21.555 14.643-35.379c0.051-9.882-4.608-18.995-9.421-25.651-2.406-3.328-4.864-5.99-6.656-7.833-0.921-0.922-1.639-1.587-2.151-2.048l-0.563-0.512-0.154-0.102c-4.301-3.584-7.885-8.448-10.547-13.619-2.611-5.222-4.403-10.701-4.403-15.974 0-0.409 0-0.87 0-1.382l-37.478-9.625c-2.714-0.717-4.966-3.584-4.966-6.4v-0.512c0-2.816 2.253-4.557 4.966-3.84l42.906 11.008c2.714 0.717 4.966 3.584 4.966 6.4v0.512c0 0.409-0.154 0.717-0.205 1.075 0 0.103 0.103 0.205 0.103 0.358v0c0.051 0.87 0.051 1.639 0.051 2.406-0.051 2.867 1.178 7.219 3.277 11.315s5.069 7.987 7.936 10.343c0.205 0.205 5.735 4.71 11.315 12.391s11.366 18.637 11.418 31.693c-0.103 33.331-27.085 60.314-60.365 60.314zM276.531 177.715l-27.75-8.192c-2.714-0.819-2.611-1.433 0.205-1.433h19.302c2.816 0 6.451 1.843 8.141 4.147l1.997 2.765c1.69 2.304 0.819 3.533-1.894 2.714zM280.166 196.301l-42.906-11.008c-2.714-0.717-3.584-3.123-1.894-5.376l0.768-1.024c1.69-2.253 5.274-3.533 7.987-2.816l36.045 9.472c2.714 0.717 4.966 3.584 4.966 6.4v0.512c0 2.816-2.253 4.557-4.966 3.84z" />
<glyph unicode="&#xe60f;" d="M129.792 410.112v-73.779c0 0 0 0-0.051 0.051-3.686 4.096-2.918 3.737-6.144 7.373-6.963 7.731-19.968 0.051-19.968 0.051l33.741-37.888 33.946 37.683c0 0-12.953 7.731-20.019 0.051-3.277-3.584-3.277-3.738-6.195-7.271v73.728c-2.355-0.973-4.966-1.536-7.68-1.536s-5.274 0.615-7.629 1.536zM147.712 429.107c0-5.655-4.584-10.24-10.24-10.24s-10.24 4.584-10.24 10.24c0 5.656 4.585 10.24 10.24 10.24s10.24-4.584 10.24-10.24z" />
<glyph unicode="&#xe610;" d="M175.001 380.262h-73.831c0 0 0 0 0.051 0.051 4.096 3.687 3.737 2.918 7.373 6.144 7.731 6.963 0.051 19.968 0.051 19.968l-37.888-33.741 37.683-33.945c0 0 7.731 12.953 0.051 20.019-3.584 3.277-3.737 3.277-7.27 6.195h73.779c-0.973 2.355-1.536 4.966-1.536 7.68s0.563 5.273 1.536 7.629zM204.185 372.582c0-5.655-4.584-10.24-10.24-10.24s-10.24 4.585-10.24 10.24c0 5.656 4.584 10.24 10.24 10.24s10.24-4.584 10.24-10.24z" />
<glyph unicode="&#xe611;" d="M166.298 406.477c0 0-7.68-13.005 0.051-19.968 3.584-3.226 3.226-2.457 7.373-6.144 0 0 0.051 0 0.051-0.051h-73.831c0.973-2.355 1.536-4.966 1.536-7.68s-0.563-5.325-1.536-7.68h73.779c-3.533-2.918-3.686-2.918-7.27-6.195-7.68-7.014 0.051-20.019 0.051-20.019l37.683 33.945-37.888 33.792zM91.187 372.582c0-5.655-4.585-10.24-10.24-10.24s-10.24 4.585-10.24 10.24c0 5.656 4.585 10.24 10.24 10.24s10.24-4.584 10.24-10.24z" />
<glyph unicode="&#xe612;" d="M145.152 335.053v73.831c0 0 0 0 0.051-0.051 3.686-4.096 2.918-3.737 6.144-7.373 6.963-7.731 19.968-0.051 19.968-0.051l-33.741 37.888-33.946-37.683c0 0 12.954-7.731 20.019-0.051 3.277 3.584 3.277 3.737 6.195 7.27v-73.779c2.355 0.973 4.966 1.536 7.68 1.536s5.222-0.563 7.629-1.536zM147.712 316.109c0-5.656-4.584-10.24-10.24-10.24s-10.24 4.584-10.24 10.24c0 5.655 4.585 10.24 10.24 10.24s10.24-4.585 10.24-10.24z" />
<glyph unicode="&#xe613;" d="M125.44 429.056c3.686-4.096 2.918-3.738 6.195-7.321 7.014-7.731 19.968 0 19.968 0l-33.843 37.785-33.843-37.785c0 0 13.005-7.731 19.968 0 3.277 3.584 2.457 3.225 6.195 7.321v-113.101c-3.686 4.096-2.918 3.738-6.195 7.322-7.014 7.731-19.968 0-19.968 0l33.843-37.837 33.843 37.786c0 0-13.005 7.731-19.968 0-3.277-3.584-2.458-3.226-6.195-7.322v113.152z" />
<glyph unicode="&#xe614;" d="M174.336 364.8c-4.096-3.687-3.738-2.918-7.322-6.195-7.731-7.014 0-19.968 0-19.968l37.786 33.843-37.786 33.843c0 0-7.731-13.005 0-19.968 3.584-3.277 3.226-2.457 7.322-6.195h-113.152c4.096 3.687 3.737 2.918 7.322 6.195 7.731 7.014 0 19.968 0 19.968l-37.785-33.843 37.785-33.843c0 0 7.731 13.005 0 19.968-3.584 3.277-3.225 2.457-7.322 6.195h113.152z" />
<glyph unicode="&#xe615;" d="M163.174 407.040c-0.256-5.53-0.563-4.711-0.819-9.575-0.512-10.394 14.131-14.131 14.131-14.131l2.765 50.688-50.688-2.816c0 0 3.738-14.643 14.131-14.131 4.864 0.205 4.045 0.563 9.575 0.819l-79.923-79.974c0.256 5.53 0.563 4.71 0.819 9.575 0.512 10.394-14.131 14.131-14.131 14.131l-2.816-50.688 50.688 2.816c0 0-3.737 14.643-14.131 14.131-4.864-0.256-4.045-0.563-9.575-0.819l79.975 79.974z" />
<glyph unicode="&#xe616;" d="M164.198 449.997c0 0-12.391-8.653-8.243-18.227 1.28-2.918 1.69-3.584 2.458-5.069-8.96 3.635-18.432 5.529-27.853 5.478-20.326 0-40.653-8.397-55.245-24.781v0c-12.493-14.080-18.637-31.642-18.637-49.050 0-17.050 5.888-34.048 17.408-47.719 3.635-4.301 10.138-4.864 14.439-1.229s4.864 10.138 1.229 14.439c-8.346 9.83-12.595 22.118-12.595 34.509 0 12.647 4.403 25.241 13.466 35.481v0c10.599 11.878 25.191 17.92 39.936 17.92 6.502 0 12.953-1.331 19.097-3.687-1.331-0.358-2.509-0.717-5.12-1.536-9.933-3.174-8.243-18.227-8.243-18.227l48.384 15.257-20.48 46.438z" />
<glyph unicode="&#xe617;" d="M167.014 406.323c0 0-7.68-13.005 0-19.968 3.584-3.277 3.226-2.458 7.322-6.195h-48.896v48.896c3.687-4.096 2.919-3.738 6.195-7.321 7.014-7.731 19.968 0 19.968 0l-33.843 37.785-33.843-37.785c0 0 13.005-7.731 19.968 0 3.277 3.584 2.457 3.225 6.195 7.321v-48.896h-48.896c4.096 3.687 3.737 2.918 7.322 6.195 7.68 7.014 0 19.968 0 19.968l-37.785-33.843 37.785-33.843c0 0 7.68 13.005 0 19.968-3.584 3.277-3.225 2.457-7.322 6.195h48.896v-48.896c-3.686 4.096-2.918 3.738-6.195 7.322-7.014 7.731-19.968 0-19.968 0l33.843-37.786 33.843 37.786c0 0-13.005 7.731-19.968 0-3.277-3.584-2.458-3.226-6.195-7.322v48.896h48.896c-4.096-3.687-3.738-2.918-7.322-6.195-7.68-7.014 0-19.968 0-19.968l37.786 33.843-37.786 33.843z" />
<glyph unicode="&#xe618;" d="M71.27 418.253c0.205-4.864 0.563-4.045 0.819-9.575 0-0.051 0-0.102 0.051-0.154l-22.016 21.965-10.855-10.855 21.965-21.965c0 0-0.051 0-0.051 0-4.608 0.409-4.761 0.563-9.626 0.717-10.445 0.41-14.233-14.336-14.233-14.336l50.893-2.407-2.713 50.944c0 0-14.695-3.891-14.234-14.336zM139.213 350.31c10.445-0.41 14.233 14.336 14.233 14.336l-50.893 2.406 2.713-50.893c0 0 14.746 3.891 14.234 14.336-0.205 4.864-0.563 4.045-0.819 9.575 0 0.051 0 0.103-0.051 0.154l21.965-21.965 10.855 10.854-21.965 21.965c0 0 0.051 0 0.051 0 4.71-0.409 4.813-0.563 9.677-0.768zM51.507 350.259c4.864 0.205 4.045 0.563 9.575 0.819 0.051 0 0.102 0 0.154 0.051l-21.965-21.965 10.855-10.855 21.965 21.965c0 0 0-0.051 0-0.051-0.409-4.608-0.563-4.71-0.717-9.625-0.409-10.445 14.336-14.233 14.336-14.233l2.406 50.893-50.893-2.714c-0.051-0.051 3.84-14.745 14.285-14.285zM139.264 398.49c-4.864-0.205-4.045-0.563-9.575-0.819-0.051 0-0.102 0-0.154-0.051l21.965 21.965-10.855 10.855-21.965-21.965c0 0 0 0.051 0 0.051 0.409 4.608 0.563 4.711 0.717 9.626 0.409 10.445-14.336 14.233-14.336 14.233l-2.406-50.893 50.944 2.765c0 0-3.891 14.695-14.336 14.233z" />
<glyph unicode="&#xe619;" d="M112.64 418.56c0-5.632 4.608-10.24 10.24-10.24s10.24 4.608 10.24 10.24v10.24c0 5.632-4.608 10.24-10.24 10.24s-10.24-4.608-10.24-10.24v-10.24zM112.64 305.92c0-5.632 4.608-10.24 10.24-10.24s10.24 4.608 10.24 10.24v10.24c0 5.632-4.608 10.24-10.24 10.24s-10.24-4.608-10.24-10.24v-10.24zM93.901 396.339c3.993 3.993 3.993 10.496 0 14.489l-7.219 7.219c-3.993 3.993-10.496 3.993-14.49 0s-3.993-10.496 0-14.49l7.219-7.219c3.993-3.993 10.547-3.993 14.489 0zM151.859 338.381c-3.994-3.993-3.994-10.496 0-14.489l7.219-7.219c3.994-3.994 10.496-3.994 14.489 0s3.994 10.496 0 14.49l-7.219 7.219c-3.994 3.994-10.547 3.994-14.489 0zM81.92 367.36c0 5.632-4.608 10.24-10.24 10.24h-10.24c-5.632 0-10.24-4.608-10.24-10.24s4.608-10.24 10.24-10.24h10.24c5.632 0 10.24 4.608 10.24 10.24zM174.080 377.6c-5.632 0-10.24-4.608-10.24-10.24s4.608-10.24 10.24-10.24h10.24c5.632 0 10.24 4.608 10.24 10.24s-4.608 10.24-10.24 10.24h-10.24zM72.192 331.161c-3.993-3.993-3.993-10.496 0-14.489s10.496-3.994 14.49 0l7.219 7.219c3.993 3.994 3.993 10.496 0 14.49s-10.496 3.994-14.489 0l-7.219-7.219zM173.568 403.558c3.994 3.994 3.994 10.496 0 14.49s-10.496 3.993-14.489 0l-7.219-7.219c-3.994-3.993-3.994-10.496 0-14.49s10.496-3.993 14.489 0l7.219 7.219z" />
<glyph unicode="&#xe61a;" d="M204.8 416h-62.976c0.973-2.355 1.536-4.966 1.536-7.68s-0.563-5.325-1.536-7.68h62.976c3.533 0 6.656-1.433 9.011-3.789s3.789-5.529 3.789-9.011v-40.96c0-3.533-1.434-6.656-3.789-9.011s-5.478-3.789-9.011-3.789h-112.845c0.103 0.102 0.205 0.154 0.307 0.256 3.584 2.97 3.737 2.97 7.322 6.246 7.68 7.117-0.051 20.173-0.051 20.173l-37.683-34.304 37.888-34.099c0 0 7.68 13.159-0.051 20.173-3.584 3.226-3.277 2.509-7.27 6.144h112.384c15.565 0.051 28.109 12.595 28.16 28.16v40.96c-0.051 15.616-12.595 28.16-28.16 28.211zM129.587 416c-1.792 1.587-4.147 2.56-6.707 2.56-5.632 0-10.24-4.608-10.24-10.24s4.608-10.24 10.24-10.24c2.56 0 4.915 0.973 6.707 2.56 2.15 1.894 3.533 4.608 3.533 7.68s-1.382 5.785-3.533 7.68z" />
<glyph unicode="&#xe61b;" d="M81.817 360.346c0 5.632-4.147 8.192-9.165 5.683l-32.256-16.128c-5.017-2.509-5.017-6.656 0-9.165l32.256-16.128c5.017-2.509 9.165 0.051 9.165 5.683v30.055zM118.323 370.586c-5.632 0-8.192-4.096-5.683-9.165l16.128-32.256c2.509-5.017 6.656-5.017 9.165 0l16.128 32.256c2.509 5.017-0.051 9.165-5.683 9.165h-30.055zM184.935 330.24c0-5.632 4.147-8.192 9.165-5.683l32.256 16.128c5.018 2.509 5.018 6.656 0 9.165l-32.256 16.128c-5.018 2.509-9.165-0.051-9.165-5.683v-30.054zM148.429 397.466c5.632 0 8.192 4.096 5.683 9.165l-16.128 32.256c-2.509 5.017-6.656 5.017-9.165 0l-16.179-32.256c-2.509-5.017 0.051-9.165 5.683-9.165h30.106z" />
<glyph unicode="&#xe61c;" d="M197.12 408.32v-29.44l-30.618 27.597c0 0-7.731-12.953-0.051-20.019 3.584-3.277 3.738-3.277 7.27-6.195h-73.779c0.973-2.355 1.536-4.966 1.536-7.68s-0.563-5.325-1.536-7.68h73.779c0 0 0 0-0.051-0.051-4.096-3.686-3.738-2.918-7.373-6.144-7.731-6.963-0.051-19.968-0.051-19.968l30.822 27.443v-29.543h15.36v71.68h-15.309zM91.187 372.582c0-5.655-4.585-10.24-10.24-10.24s-10.24 4.585-10.24 10.24c0 5.656 4.585 10.24 10.24 10.24s10.24-4.584 10.24-10.24z" />
<glyph unicode="&#xe61d;" d="M145.92 418.56h15.36v-112.64h-15.36v112.64zM104.704 331.52c0-2.099-0.871-3.993-2.253-5.427-1.433-1.434-3.328-2.253-5.427-2.253s-3.993 0.87-5.427 2.253c-1.433 1.434-2.253 3.328-2.253 5.427v48.64h23.040v15.36h-23.040v23.040h-15.36v-23.040h-12.544v-15.36h12.544v-48.64c0.051-12.749 10.343-22.989 23.040-23.040 12.698 0.051 22.989 10.291 23.040 23.040v15.36h-15.36v-15.36z" />
<glyph unicode="&#xe61e;" d="M354.509 400.64v0h-0.154c-4.352 0-8.704-0.154-13.107-0.358v-117.401h27.853l-1.075 117.401c-4.557 0.205-9.063 0.358-13.517 0.358z" />
<glyph unicode="&#xe61f;" d="M254.618 313.754c-1.69-9.677-3.174-20.019-4.403-30.874h79.565v115.815c-7.577-1.127-14.848-2.765-21.555-4.915v0 0c-13.926-4.454-25.549-11.059-33.075-18.637v0 0c-0.921-0.87-2.765-3.277-4.557-6.656-1.843-3.43-3.84-8.038-5.735-13.414-3.84-10.855-7.373-25.139-10.24-41.319z" />
<glyph unicode="&#xe620;" d="M401.050 393.831c-6.707 2.15-14.029 3.737-21.606 4.864v-115.815h79.565c-2.56 22.221-6.093 42.496-10.394 58.675v0c-3.021 11.469-6.553 20.941-9.831 26.931v0c-1.792 3.379-3.635 5.786-4.505 6.605v0 0c-7.577 7.68-19.2 14.285-33.229 18.739v0z" />
<glyph unicode="&#xe621;" d="M439.552 313.088c-15.514 28.723-41.063 52.685-72.858 69.53s-69.837 26.522-110.695 26.573c-54.477 0-103.987-17.255-140.288-45.671-18.125-14.233-32.973-31.232-43.315-50.381-10.291-19.149-16.077-40.448-16.077-62.72 0-31.642 11.674-61.082 31.386-85.555 18.688-23.194 44.544-41.933 74.905-54.681 1.024-5.171 1.485-9.933 1.485-14.387 0-12.851-3.584-22.887-7.168-29.747-1.792-3.43-3.584-5.99-4.813-7.68-0.614-0.819-1.126-1.433-1.434-1.792l-0.307-0.358-16.537-16.998 24.269-0.409c3.226 0.051 19.2 0.307 37.12 8.089 8.96 3.891 18.381 9.779 26.522 18.586 6.554 7.065 12.185 16.026 16.025 26.983 6.042-0.461 12.135-0.768 18.329-0.768 54.477 0 103.987 17.255 140.288 45.671 18.125 14.233 32.973 31.232 43.315 50.381 10.189 19.149 15.974 40.397 15.974 62.669s-5.786 43.571-16.128 62.669zM154.88 364.493c28.672 15.207 63.539 24.166 101.12 24.166 50.125 0 95.334-15.974 127.642-41.318 16.128-12.647 29.082-27.597 37.888-43.981 8.448-15.667 13.159-32.563 13.568-50.381h-49.305l-24.986 12.493-7.526-11.52-12.493 19.097-9.37-28.16-22.221 44.39-8.397-42.086-22.272 77.722-11.213-92.467-27.955 140.339-20.889-146.125-20.48 92.16-9.831-69.017-7.117 35.635-13.517-40.55-6.707 13.414-12.339-12.339-7.066 7.066h-64.512c0.409 17.767 5.12 34.714 13.568 50.381 13.261 24.525 35.687 45.926 64.409 61.082zM357.12 136.346c-28.672-15.207-63.539-24.166-101.12-24.166-8.345 0-16.537 0.461-24.627 1.331l-8.909 0.973-2.15-8.704c-2.918-11.673-7.833-20.019-13.721-26.368-8.499-9.165-19.303-14.285-28.826-16.998 3.686 8.653 6.758 19.865 6.758 33.382 0 7.526-0.973 15.667-3.226 24.371l-1.331 5.069-4.864 1.894c-29.594 11.571-54.323 29.286-71.475 50.637-14.387 17.869-23.398 38.195-26.010 59.904h57.395l13.465-13.465 8.141 8.141 13.773-27.546 6.963 20.889 13.363-66.816 10.649 74.343 20.48-92.16 20.071 140.595 29.184-146.381 13.619 112.333 18.739-65.587 12.083 60.314 18.739-37.53 11.111 33.28 1.536-2.355 6.349-9.831 12.902 19.712 15.974-7.987h52.224c-1.69-14.080-6.093-27.495-12.851-40.141-13.261-24.525-35.687-45.926-64.409-61.133z" />
<glyph unicode="&#xe622;" d="M467.917 214.477c-8.192 15.155-20.48 28.16-35.584 38.553 0.051 1.69 0.154 3.379 0.154 5.069 0 22.272-5.786 43.52-16.128 62.669-15.462 28.672-41.011 52.633-72.806 69.478s-69.837 26.522-110.695 26.573c-54.477 0-103.987-17.255-140.288-45.67-18.125-14.234-32.973-31.232-43.315-50.381-10.291-19.149-16.077-40.448-16.077-62.72 0-31.642 11.674-61.082 31.386-85.555 18.688-23.193 44.544-41.933 74.905-54.682 1.024-5.171 1.485-9.933 1.485-14.387 0-12.851-3.584-22.887-7.168-29.747-1.792-3.43-3.533-5.99-4.813-7.68-0.614-0.819-1.126-1.433-1.433-1.792l-0.307-0.358-16.64-16.998 24.217-0.409c3.226 0.051 19.2 0.307 37.12 8.089 8.96 3.891 18.381 9.779 26.522 18.586 6.553 7.065 12.185 16.026 16.025 26.983 6.042-0.461 12.135-0.768 18.329-0.768 5.018 0 10.035 0.154 14.951 0.461 7.27-6.298 15.411-11.93 24.32-16.64 21.145-11.213 46.438-17.664 73.523-17.664 3.226 0 6.4 0.103 9.523 0.307 2.611-6.4 6.093-11.827 10.137-16.128 8.601-9.216 18.944-13.773 27.289-16.026 8.346-2.304 14.899-2.406 16.64-2.406h0.409l23.705 0.409-16.486 16.947c-0.154 0.154-2.151 2.406-4.096 6.4-1.997 4.045-3.84 9.677-3.84 16.845 0 2.099 0.256 4.403 0.615 6.81 19.353 8.499 35.993 20.685 48.128 35.738 13.261 16.384 21.197 36.352 21.145 57.754 0.051 15.053-3.891 29.44-10.854 42.342zM208.231 121.19l-8.909 0.973-2.15-8.704c-2.918-11.673-7.833-20.019-13.721-26.368-8.499-9.165-19.303-14.285-28.826-16.998 3.686 8.653 6.758 19.865 6.758 33.382 0 7.526-0.973 15.667-3.226 24.371l-1.331 5.017-4.864 1.894c-29.594 11.571-54.323 29.337-71.526 50.637-17.152 21.351-26.829 46.131-26.88 72.704 0 18.739 4.813 36.505 13.671 52.941 13.261 24.576 35.737 45.927 64.41 61.133s63.539 24.166 101.12 24.166c50.125 0 95.334-15.974 127.642-41.318 16.128-12.647 29.082-27.597 37.888-43.981 7.783-14.489 12.442-30.054 13.466-46.387-19.558 8.96-42.137 14.080-66.202 14.080-36.096 0-68.966-11.417-93.235-30.413-12.135-9.472-22.067-20.941-29.030-33.843s-10.905-27.289-10.905-42.342c0-15.053 3.942-29.491 10.905-42.342 1.843-3.379 3.942-6.656 6.195-9.831-7.117 0.051-14.233 0.461-21.248 1.229zM441.702 127.181c-10.701-13.261-26.214-24.423-44.903-31.744l-4.864-1.894-1.331-5.069c-1.536-5.939-2.202-11.52-2.202-16.691 0-5.786 0.819-11.008 2.048-15.565-3.635 1.741-7.117 4.096-10.137 7.373-3.43 3.687-6.298 8.499-8.038 15.514l-2.151 8.704-8.909-0.973c-5.12-0.563-10.342-0.87-15.616-0.87-31.795 0-60.365 10.137-80.589 26.061-10.137 7.936-18.176 17.255-23.654 27.443s-8.448 21.094-8.448 32.615c0 11.52 2.97 22.477 8.448 32.666 8.192 15.207 22.221 28.621 40.294 38.195s40.089 15.257 63.949 15.257c31.795 0 60.365-10.137 80.589-26.010 10.137-7.936 18.176-17.255 23.654-27.443s8.448-21.094 8.448-32.666c0.051-16.333-5.888-31.591-16.589-44.902z" />
<glyph unicode="&#xe623;" d="M482.202 318.72c-3.021 17.255-6.759 32.768-11.264 45.67-2.253 6.451-4.711 12.288-7.475 17.408s-5.786 9.575-9.472 13.261c-11.827 11.776-27.392 20.070-44.595 25.6-17.203 5.479-36.147 8.141-55.091 8.141-18.841 0-37.735-2.714-54.887-8.192-17.101-5.529-32.615-13.824-44.391-25.498-3.686-3.686-6.758-8.141-9.523-13.312-4.813-8.96-8.806-20.121-12.237-33.024-10.343-38.656-15.872-93.542-15.923-147.251 0-36.762 2.662-72.909 8.448-102.81 2.918-14.95 6.605-28.365 11.417-39.731 4.813-11.315 10.547-20.736 18.637-27.289 27.648-22.118 63.181-32.973 98.56-32.973s70.963 10.803 98.611 32.973c8.089 6.553 13.824 15.974 18.637 27.289 7.117 16.998 11.981 38.758 15.155 63.283 3.226 24.576 4.711 51.815 4.711 79.411 0 40.909-3.277 82.483-9.319 117.043zM462.95 102.707c-2.714-14.029-6.195-26.265-10.189-35.738-3.942-9.523-8.601-16.128-12.595-19.251-23.347-18.841-54.477-28.519-85.76-28.519-31.232 0-62.31 9.677-85.709 28.467-3.993 3.123-8.601 9.728-12.595 19.251-5.99 14.233-10.701 34.56-13.721 57.959-3.072 23.399-4.506 49.817-4.506 76.647 0 39.782 3.226 80.537 9.063 113.561 2.918 16.487 6.451 31.079 10.496 42.496 1.997 5.683 4.096 10.599 6.195 14.489s4.199 6.759 5.888 8.499c8.755 8.704 21.351 15.769 36.199 20.531 14.797 4.762 31.693 7.219 48.589 7.219 16.998 0 34.048-2.406 48.896-7.168 14.899-4.711 27.597-11.776 36.301-20.531 1.69-1.69 3.789-4.557 5.888-8.448 3.687-6.809 7.322-16.691 10.445-28.621 9.575-35.789 15.207-89.651 15.155-141.824 0.051-35.84-2.56-71.014-8.038-99.021z" />
<glyph unicode="&#xe624;" d="M476.16 211.2h-440.32c-12.697-0.051-22.989-10.342-23.040-23.040v-184.32c0.051-12.697 10.343-22.989 23.040-23.040h440.32c12.697 0.051 22.989 10.342 23.040 23.040v184.32c-0.051 12.697-10.342 22.989-23.040 23.040zM481.587-1.587c-1.433-1.433-3.328-2.253-5.427-2.253h-440.32c-2.099 0-3.994 0.87-5.427 2.253-1.383 1.433-2.253 3.328-2.253 5.427v184.32c0 2.099 0.87 3.993 2.253 5.427 1.433 1.382 3.328 2.253 5.427 2.253h440.32c2.099 0 3.993-0.87 5.427-2.253 1.433-1.433 2.253-3.328 2.253-5.427v-184.32c0-2.099-0.87-3.993-2.253-5.427zM109.568 43.776h-63.488c-2.816 0-5.12-2.304-5.12-5.12v-24.576c0-2.816 2.304-5.12 5.12-5.12h63.488c2.816 0 5.12 2.304 5.12 5.12v24.576c0 2.816-2.304 5.12-5.12 5.12zM465.92 43.776h-63.488c-2.816 0-5.12-2.304-5.12-5.12v-24.576c0-2.816 2.304-5.12 5.12-5.12h63.488c2.816 0 5.12 2.304 5.12 5.12v24.576c0 2.816-2.304 5.12-5.12 5.12zM379.904 43.776h-247.808c-2.816 0-5.12-2.304-5.12-5.12v-24.576c0-2.816 2.304-5.12 5.12-5.12h247.808c2.816 0 5.12 2.304 5.12 5.12v24.576c0 2.816-2.304 5.12-5.12 5.12zM46.080 55.399h26.624c2.816 0 5.12 2.304 5.12 5.12v24.576c0 2.816-2.304 5.12-5.12 5.12h-26.624c-2.816 0-5.12-2.304-5.12-5.12v-24.576c0-2.816 2.304-5.12 5.12-5.12zM126.976 85.094c0 2.816-2.304 5.12-5.12 5.12h-26.624c-2.816 0-5.12-2.304-5.12-5.12v-24.576c0-2.816 2.304-5.12 5.12-5.12h26.624c2.816 0 5.12 2.304 5.12 5.12v24.576zM144.384 55.399h26.624c2.816 0 5.12 2.304 5.12 5.12v24.576c0 2.816-2.304 5.12-5.12 5.12h-26.624c-2.816 0-5.12-2.304-5.12-5.12v-24.576c0-2.816 2.304-5.12 5.12-5.12zM193.536 55.399h26.624c2.816 0 5.12 2.304 5.12 5.12v24.576c0 2.816-2.304 5.12-5.12 5.12h-26.624c-2.816 0-5.12-2.304-5.12-5.12v-24.576c0-2.816 2.304-5.12 5.12-5.12zM242.688 55.399h26.624c2.816 0 5.12 2.304 5.12 5.12v24.576c0 2.816-2.304 5.12-5.12 5.12h-26.624c-2.816 0-5.12-2.304-5.12-5.12v-24.576c0-2.816 2.304-5.12 5.12-5.12zM291.84 55.399h26.624c2.816 0 5.12 2.304 5.12 5.12v24.576c0 2.816-2.304 5.12-5.12 5.12h-26.624c-2.816 0-5.12-2.304-5.12-5.12v-24.576c0-2.816 2.304-5.12 5.12-5.12zM340.992 55.399h26.624c2.816 0 5.12 2.304 5.12 5.12v24.576c0 2.816-2.304 5.12-5.12 5.12h-26.624c-2.816 0-5.12-2.304-5.12-5.12v-24.576c0-2.816 2.304-5.12 5.12-5.12zM421.888 60.519v24.576c0 2.816-2.304 5.12-5.12 5.12h-26.624c-2.816 0-5.12-2.304-5.12-5.12v-24.576c0-2.816 2.304-5.12 5.12-5.12h26.624c2.816 0 5.12 2.304 5.12 5.12zM465.92 90.214h-26.624c-2.816 0-5.12-2.304-5.12-5.12v-24.576c0-2.816 2.304-5.12 5.12-5.12h26.624c2.816 0 5.12 2.304 5.12 5.12v24.576c0 2.816-2.304 5.12-5.12 5.12zM46.080 148.224h26.624c2.816 0 5.12 2.304 5.12 5.12v24.576c0 2.816-2.304 5.12-5.12 5.12h-26.624c-2.816 0-5.12-2.304-5.12-5.12v-24.576c0-2.816 2.304-5.12 5.12-5.12zM95.232 148.224h26.624c2.816 0 5.12 2.304 5.12 5.12v24.576c0 2.816-2.304 5.12-5.12 5.12h-26.624c-2.816 0-5.12-2.304-5.12-5.12v-24.576c0-2.816 2.304-5.12 5.12-5.12zM144.384 148.224h26.624c2.816 0 5.12 2.304 5.12 5.12v24.576c0 2.816-2.304 5.12-5.12 5.12h-26.624c-2.816 0-5.12-2.304-5.12-5.12v-24.576c0-2.816 2.304-5.12 5.12-5.12zM193.536 148.224h26.624c2.816 0 5.12 2.304 5.12 5.12v24.576c0 2.816-2.304 5.12-5.12 5.12h-26.624c-2.816 0-5.12-2.304-5.12-5.12v-24.576c0-2.816 2.304-5.12 5.12-5.12zM242.688 148.224h26.624c2.816 0 5.12 2.304 5.12 5.12v24.576c0 2.816-2.304 5.12-5.12 5.12h-26.624c-2.816 0-5.12-2.304-5.12-5.12v-24.576c0-2.816 2.304-5.12 5.12-5.12zM291.84 148.224h26.624c2.816 0 5.12 2.304 5.12 5.12v24.576c0 2.816-2.304 5.12-5.12 5.12h-26.624c-2.816 0-5.12-2.304-5.12-5.12v-24.576c0-2.816 2.304-5.12 5.12-5.12zM340.992 148.224h26.624c2.816 0 5.12 2.304 5.12 5.12v24.576c0 2.816-2.304 5.12-5.12 5.12h-26.624c-2.816 0-5.12-2.304-5.12-5.12v-24.576c0-2.816 2.304-5.12 5.12-5.12zM390.144 148.224h26.624c2.816 0 5.12 2.304 5.12 5.12v24.576c0 2.816-2.304 5.12-5.12 5.12h-26.624c-2.816 0-5.12-2.304-5.12-5.12v-24.576c0-2.816 2.304-5.12 5.12-5.12zM465.92 183.040h-26.624c-2.816 0-5.12-2.304-5.12-5.12v-24.576c0-2.816 2.304-5.12 5.12-5.12h26.624c2.816 0 5.12 2.304 5.12 5.12v24.576c0 2.816-2.304 5.12-5.12 5.12zM46.080 101.786h51.2c2.816 0 5.12 2.304 5.12 5.12v24.576c0 2.816-2.304 5.12-5.12 5.12h-51.2c-2.816 0-5.12-2.304-5.12-5.12v-24.576c0-2.816 2.304-5.12 5.12-5.12zM151.552 106.906v24.576c0 2.816-2.304 5.12-5.12 5.12h-26.624c-2.816 0-5.12-2.304-5.12-5.12v-24.576c0-2.816 2.304-5.12 5.12-5.12h26.624c2.816 0 5.12 2.304 5.12 5.12zM200.704 106.906v24.576c0 2.816-2.304 5.12-5.12 5.12h-26.624c-2.816 0-5.12-2.304-5.12-5.12v-24.576c0-2.816 2.304-5.12 5.12-5.12h26.624c2.816 0 5.12 2.304 5.12 5.12zM249.856 106.906v24.576c0 2.816-2.304 5.12-5.12 5.12h-26.624c-2.816 0-5.12-2.304-5.12-5.12v-24.576c0-2.816 2.304-5.12 5.12-5.12h26.624c2.816 0 5.12 2.304 5.12 5.12zM299.008 106.906v24.576c0 2.816-2.304 5.12-5.12 5.12h-26.624c-2.816 0-5.12-2.304-5.12-5.12v-24.576c0-2.816 2.304-5.12 5.12-5.12h26.624c2.816 0 5.12 2.304 5.12 5.12zM348.16 106.906v24.576c0 2.816-2.304 5.12-5.12 5.12h-26.624c-2.816 0-5.12-2.304-5.12-5.12v-24.576c0-2.816 2.304-5.12 5.12-5.12h26.624c2.816 0 5.12 2.304 5.12 5.12zM397.312 106.906v24.576c0 2.816-2.304 5.12-5.12 5.12h-26.624c-2.816 0-5.12-2.304-5.12-5.12v-24.576c0-2.816 2.304-5.12 5.12-5.12h26.624c2.816 0 5.12 2.304 5.12 5.12zM465.92 136.601h-51.2c-2.816 0-5.12-2.304-5.12-5.12v-24.576c0-2.816 2.304-5.12 5.12-5.12h51.2c2.816 0 5.12 2.304 5.12 5.12v24.576c0 2.816-2.304 5.12-5.12 5.12z" />
<glyph unicode="&#xe625;" d="M471.040 203.981c0 0.205 0 0.409-0.103 0.921-0.154 4.659-1.178 9.063-3.072 12.954-3.072 6.4-8.243 11.111-13.926 13.977-5.683 2.918-11.878 4.198-18.074 4.198-5.837 0-11.673-1.229-17.101-3.686-0.512 2.15-1.229 4.25-2.202 6.144-3.123 6.502-8.346 11.264-14.080 14.233s-12.083 4.352-18.329 4.352c-5.683 0-11.418-1.229-16.743-3.635-0.512 1.946-1.178 3.891-2.048 5.632-3.175 6.502-8.397 11.315-14.131 14.336-5.786 3.021-12.135 4.403-18.483 4.403-5.223 0-10.445-0.973-15.36-2.97 0 46.131 0 105.933 0 118.169 0 5.274-1.127 10.24-3.226 14.541-3.175 6.502-8.397 11.315-14.131 14.336-5.786 3.021-12.135 4.403-18.483 4.403-8.397 0-16.998-2.458-24.013-7.987-3.482-2.765-6.502-6.4-8.601-10.701-2.048-4.403-3.174-9.369-3.174-14.643 0-11.264 0-98.406 0-168.96h-37.376l-45.671-102.759 66.611-127.642h6.195c0 0 9.625 0 24.32 0 44.185 0 134.4 0 149.76 0 5.99 0 11.469 0.768 16.435 2.611 3.738 1.382 7.168 3.379 10.035 5.939 4.352 3.84 7.373 8.653 9.523 13.721 2.151 5.12 3.584 10.649 4.762 16.691v0c1.69 8.448 3.738 21.299 5.939 36.454 3.277 22.682 6.81 50.432 9.625 75.111 1.382 12.339 2.611 23.911 3.533 33.741 0.87 9.831 1.485 17.869 1.587 23.45v0c0 0.87 0.051 1.433 0.051 1.843l-0.051 0.819zM450.56 203.213c0-0.512 0-0.973 0-1.433v0c-0.563-27.238-4.762-54.733-8.141-81.767-3.43-27.853-6.656-55.911-12.135-83.456v0c-1.127-5.683-2.406-12.083-5.837-16.896-3.481-4.762-9.318-5.581-14.848-5.581-4.403 0-8.755 0-13.159 0-16.64 0-33.28 0-49.869 0-34.457 0-68.864 0-103.322 0-0.512 0-1.024 0-1.536 0l-56.269 107.878 36.25 81.562h24.064c0-27.289 0-54.63 0-81.92h20.48c0 47.155 0 94.362 0 141.517 0 32 0 64 0 96 0 9.523 0 18.995 0 28.519 0 4.045-0.461 8.601 1.894 12.135 7.065 10.599 28.774 7.065 28.825-6.81 0-58.010 0-116.070 0-174.080h20.48c0 7.885 0 15.769 0 23.603 0 6.042 1.69 10.855 7.68 13.312 5.581 2.304 12.749 2.048 17.817-1.28 5.632-3.635 5.223-9.625 5.223-15.565 0-5.069 0-10.189 0-15.258 0-5.581 0-11.111 0-16.691h20.48c0 2.663 0 5.376 0 8.089 0 5.427-1.229 12.237 2.714 16.64 6.81 7.526 25.139 6.861 27.648-4.557 1.229-5.479 0.358-11.879 0.358-17.408 0-4.454 0-8.858 0-13.312h20.48c0 6.861-0.615 13.312 6.605 16.947 8.807 4.454 24.064 2.253 24.115-9.882z" />
<glyph unicode="&#xe626;" d="M471.040 203.981c-0.973 11.418-5.427 21.299-15.769 27.136-11.008 6.246-24.986 6.349-36.454 1.229-5.376 21.657-30.976 29.491-50.176 21.555 0 46.336 0 92.672 0 139.008 0 14.080 2.918 33.28-4.813 45.671-15.207 24.218-58.624 19.917-65.792-8.857-0.512-2.151-0.87-4.352-0.973-6.554-22.528 9.319-51.353-3.942-51.303-30.208 0-11.161 0-22.375 0-33.536 0-45.159 0-90.266 0-135.424h-37.376l-45.671-102.758 66.611-127.642c39.424 0 78.848 0 118.221 0 18.074 0 36.096 0 54.169 0 8.192 0 16.486-0.307 24.32 2.611 14.233 5.274 20.429 18.944 23.552 32.768 0.256 1.178 0.512 2.355 0.768 3.533 5.325 26.983 8.55 54.477 11.981 81.767 3.584 28.774 8.038 58.010 8.704 86.989v0c0 0.973 0.051 1.843 0 2.714zM450.56 201.779v0c-0.563-27.238-4.762-54.733-8.141-81.767-3.43-27.853-6.656-55.911-12.135-83.456v0c-1.127-5.683-2.406-12.083-5.837-16.896-3.481-4.762-9.318-5.581-14.848-5.581-4.403 0-8.755 0-13.159 0-16.64 0-33.28 0-49.869 0-34.457 0-68.864 0-103.322 0-0.512 0-1.024 0-1.536 0l-56.269 107.879 36.25 81.562h24.064c0-27.289 0-54.63 0-81.92h20.48c0 47.155 0 94.362 0 141.517 0 32 0 64 0 96 0 9.523 0 18.995 0 28.519 0 4.045-0.461 8.601 1.894 12.135 7.065 10.599 28.774 7.065 28.825-6.81 0-58.010 0-116.070 0-174.080h20.48c0 54.221 0 108.493 0 162.714 0 3.789 0 7.577 0 11.367 0 6.656 0 13.312 0 19.968 0 4.352-0.768 9.779 1.178 13.773 5.478 11.213 28.058 9.37 29.44-3.891 0.461-4.199 0.103-8.601 0.103-12.8 0-36.608 0-73.267 0-109.875 0-31.078 0-62.106 0-93.184h20.48c0 6.963-2.202 17.664 1.843 23.552 5.837 8.55 24.474 8.448 28.16-2.15 1.894-5.478 0.666-13.005 0.666-18.637 0-4.454 0-8.858 0-13.312h20.48c0 6.861-0.615 13.312 6.605 16.947 8.806 4.454 24.064 2.253 24.115-9.882z" />
<glyph unicode="&#xe627;" d="M471.040 203.981c-0.973 11.418-5.427 21.299-15.769 27.136-10.752 6.093-24.218 6.298-35.481 1.587-0.051 49.971-0.154 99.891-0.205 149.863 0 4.71 0.307 9.677-0.409 14.387-3.533 23.911-30.515 32.051-50.534 22.682 0 19.661-14.49 33.894-34.099 34.714-18.791 0.768-36.352-11.623-37.478-31.181-22.528 9.318-51.353-3.943-51.303-30.208 0-11.161 0-22.375 0-33.536 0-45.159 0-90.265 0-135.424h-37.376l-45.671-102.759 66.611-127.642c39.424 0 78.848 0 118.221 0 18.074 0 36.096 0 54.17 0 8.192 0 16.486-0.307 24.32 2.611 14.233 5.274 20.429 18.944 23.552 32.768 0.256 1.178 0.512 2.355 0.768 3.533 5.325 26.983 8.55 54.477 11.981 81.767 3.584 28.774 8.038 58.010 8.704 86.989v0c0 0.973 0 2.714 0 2.714zM450.56 203.213c0-0.461 0-0.973 0-1.433v0c-0.563-27.238-4.762-54.733-8.141-81.767-3.43-27.853-6.656-55.911-12.135-83.456v0c-1.127-5.683-2.406-12.083-5.837-16.896-3.481-4.762-9.318-5.581-14.848-5.581-4.403 0-8.755 0-13.159 0-16.64 0-33.28 0-49.869 0-34.457 0-68.864 0-103.322 0-0.512 0-1.024 0-1.536 0l-56.269 107.878 36.25 81.562h24.064c0-27.289 0-54.63 0-81.92h20.48c0 47.155 0 94.362 0 141.517 0 32 0 64 0 96 0 9.523 0 18.995 0 28.519 0 4.045-0.461 8.601 1.894 12.135 7.065 10.599 28.774 7.065 28.825-6.81 0-58.010 0-116.070 0-174.080h20.48c0 54.221 0 108.493 0 162.714 0 3.789 0 7.577 0 11.367 0 6.656 0 13.312 0 19.968 0 4.352-0.768 9.779 1.178 13.773 5.478 11.213 28.058 9.37 29.44-3.891 1.178-11.161 0.103-22.989 0.103-34.151 0-26.112 0-52.275 0-78.387 0-34.407 0-68.813 0-103.271h20.48c0 27.699 0 55.399 0 83.098 0 22.375 0 44.8 0 67.174 0 9.779 0 19.558 0 29.286 0 6.247 1.945 11.111 7.68 14.183 5.529 2.969 14.233 3.891 19.353-0.512 4.864-4.147 3.43-14.029 3.481-19.917 0-11.93 0.051-23.859 0.051-35.738 0.051-32.666 0.103-65.331 0.103-97.997 0-16.743 0.051-33.485 0.051-50.227h20.48c0 8.192 0.051 15.207 9.472 18.074 5.529 1.69 12.749 1.485 17.408-2.304 2.969-2.202 3.481-5.376 3.84-8.909z" />
<glyph unicode="&#xe628;" d="M471.040 311.040v0c0 5.171-1.075 10.035-3.175 14.285-3.072 6.4-8.243 11.111-13.926 13.978-5.683 2.918-11.93 4.198-18.074 4.198-5.529 0-11.059-1.178-16.231-3.328l-0.051 51.046v0.205c0 5.018-0.973 9.779-2.816 13.978-2.816 6.298-7.68 11.111-13.107 14.029-5.478 2.969-11.469 4.25-17.408 4.25-6.041 0-12.032-1.434-17.613-3.993 0 0.512 0 1.075 0 1.433 0 5.274-1.127 10.24-3.226 14.541-3.175 6.502-8.397 11.315-14.131 14.336-5.786 3.021-12.135 4.403-18.483 4.403-8.397 0-16.998-2.457-24.013-7.987-3.481-2.765-6.502-6.4-8.601-10.701-1.843-3.738-2.867-8.038-3.123-12.493-4.966 2.048-10.189 3.072-15.462 3.072-8.397 0-16.998-2.457-24.013-7.987-3.482-2.765-6.502-6.4-8.601-10.701-2.099-4.403-3.226-9.37-3.226-14.643 0-11.264 0-98.406 0-168.96h-37.376l-45.671-102.759 66.611-127.642h6.195c0 0 9.625 0 24.32 0 44.185 0 134.4 0 149.76 0 5.99 0 11.469 0.768 16.435 2.611 3.738 1.382 7.168 3.379 10.035 5.939 4.352 3.84 7.373 8.653 9.523 13.721 2.151 5.12 3.584 10.649 4.813 16.691v0c1.69 8.448 3.738 21.299 5.939 36.454 3.277 22.682 6.861 50.432 9.625 75.111 1.382 12.339 2.611 23.911 3.533 33.741 0.87 9.831 1.485 17.869 1.587 23.45v0c0 0.307 0 0.512 0 1.024 0 3.226 0 14.49 0 28.723-0.051 32.461-0.051 79.975-0.051 79.975zM450.56 210.586c0-2.611 0-4.762 0-6.298 0-0.768 0-1.382 0-1.792v-0.666c-0.154-6.195-1.075-17.971-2.509-32.205-2.151-21.453-5.427-48.793-8.755-73.779-3.328-24.935-6.707-47.616-9.063-59.238v0c-0.921-4.711-1.945-8.601-3.123-11.623-0.87-2.253-1.792-3.993-2.714-5.274-1.433-1.945-2.714-2.969-4.762-3.942-2.099-0.973-5.274-1.69-10.035-1.69-18.022 0-139.008 0-167.885 0l-56.269 107.879 36.25 81.562h24.064c0-40.704 0-71.68 0-71.68v-10.24h20.48v10.24c0 0 0 241.767 0 261.12 0 2.406 0.461 4.147 1.178 5.581 1.024 2.15 2.714 3.789 5.223 5.12 2.457 1.28 5.683 2.099 8.96 2.048 4.403 0 8.601-1.382 11.213-3.533 1.331-1.075 2.304-2.253 2.969-3.686 0.717-1.383 1.178-3.123 1.178-5.53 0-54.221 0-164.71 0-174.080h20.48c0 0 0 153.6 0 174.080 0 14.131 0 24.473 0 28.16 0 2.406 0.461 4.147 1.178 5.581 1.024 2.15 2.714 3.789 5.223 5.12 2.457 1.331 5.683 2.099 8.96 2.099 4.403 0 8.601-1.382 11.213-3.533 1.331-1.075 2.304-2.253 2.969-3.687 0.717-1.433 1.178-3.174 1.178-5.581 0-4.301 0-16.282 0-32.461 0-20.48 0-181.658 0-181.658h20.48c0 0 0 120.781 0 181.658 0 2.457 0.512 4.301 1.331 5.939 1.229 2.457 3.379 4.557 6.349 6.144 2.918 1.587 6.553 2.457 9.933 2.457 3.993 0 7.424-1.229 9.421-2.918 1.024-0.87 1.792-1.843 2.406-3.174s1.024-3.123 1.024-5.632v-0.205l0.256-194.867h20.48v114.637c0 2.099 0.409 3.533 1.127 4.864 1.024 1.945 2.816 3.686 5.478 5.017s6.093 2.151 9.472 2.099c4.352 0 8.448-1.331 10.803-3.277 1.229-0.973 2.099-2.048 2.765-3.379 0.615-1.28 1.075-2.97 1.075-5.325v0c0-0.051 0-11.878 0-27.801s0-35.942 0-52.121c0-8.141 0-15.309 0-20.531z" />
<glyph unicode="&#xe629;" d="M197.376 129.894l-0.256 0.307zM471.040 311.040v0c0 5.171-1.075 10.035-3.175 14.285-3.072 6.4-8.243 11.111-13.926 13.978-5.683 2.918-11.93 4.198-18.074 4.198-5.529 0-11.059-1.178-16.231-3.328l-0.051 51.046v0.205c0 5.018-0.973 9.779-2.816 13.978-2.816 6.298-7.68 11.111-13.107 14.029-5.478 2.969-11.469 4.25-17.408 4.25-6.041 0-12.032-1.434-17.613-3.993 0 0.512 0 1.075 0 1.433 0 5.274-1.127 10.24-3.226 14.541-3.175 6.502-8.397 11.315-14.131 14.336-5.786 3.021-12.135 4.403-18.483 4.403-8.397 0-16.998-2.457-24.013-7.987-3.481-2.765-6.502-6.4-8.601-10.701-1.843-3.738-2.867-8.038-3.123-12.493-4.966 2.048-10.189 3.072-15.462 3.072-8.397 0-16.998-2.457-24.013-7.987-3.482-2.765-6.502-6.4-8.601-10.701-2.099-4.403-3.226-9.37-3.226-14.643 0-20.48 0-225.28 0-245.76 0-3.123-1.331-5.888-4.147-8.295-2.765-2.406-6.912-4.045-11.469-4.045-5.53 0.051-11.623 2.151-17.664 8.909v0c-1.946 2.253-4.557 4.915-7.577 7.987-9.113 9.267-22.579 22.169-33.792 33.433v0c-3.635 3.635-7.885 6.247-12.237 7.834-4.403 1.587-8.909 2.202-13.209 2.202-6.502 0-12.697-1.331-18.432-3.175-8.55-2.765-16.128-6.759-21.657-10.035s-9.063-5.939-9.267-6.093l-8.499-6.4 142.848-175.923h4.864c0 0 9.625 0 24.32 0 44.185 0 134.4 0 149.76 0 5.99 0 11.469 0.768 16.435 2.611 3.738 1.382 7.168 3.379 10.035 5.939 4.352 3.84 7.373 8.653 9.523 13.721 2.151 5.12 3.584 10.649 4.813 16.691v0c1.69 8.448 3.738 21.299 5.939 36.454 3.277 22.681 6.861 50.432 9.625 75.111 1.382 12.339 2.611 23.911 3.533 33.741 0.87 9.83 1.485 17.869 1.587 23.45v0c0 0.307 0 0.512 0 1.024 0 3.226 0 14.49 0 28.723-0.051 32.461-0.051 79.974-0.051 79.974zM450.56 210.586c0-2.611 0-4.762 0-6.298 0-0.768 0-1.382 0-1.792v-0.666c-0.154-6.195-1.075-17.971-2.509-32.205-2.151-21.453-5.427-48.793-8.755-73.779-3.328-24.935-6.707-47.616-9.063-59.238v0c-0.921-4.711-1.945-8.601-3.123-11.623-0.87-2.253-1.792-3.993-2.714-5.274-1.433-1.945-2.714-2.969-4.762-3.942-2.099-0.973-5.274-1.69-10.035-1.69-18.329 0-143.053 0-169.216 0l-122.829 151.193c1.229 0.717 2.56 1.433 3.942 2.151 3.737 1.945 7.987 3.789 12.186 5.171 4.198 1.331 8.397 2.151 11.879 2.151 2.406 0 4.454-0.358 6.195-0.973 1.792-0.666 3.277-1.587 4.762-3.072v0c7.629-7.629 16.128-15.923 23.603-23.245 3.738-3.687 7.168-7.117 10.087-10.087s5.325-5.478 6.81-7.168v0c9.421-10.752 21.657-15.872 33.024-15.821 9.369 0 18.125 3.277 24.832 8.96 6.759 5.683 11.366 14.233 11.366 23.859 0 20.48 0 225.28 0 245.76 0 2.406 0.461 4.147 1.178 5.581 1.024 2.15 2.714 3.789 5.223 5.12 2.457 1.28 5.683 2.099 8.96 2.048 4.403 0 8.601-1.382 11.213-3.533 1.331-1.075 2.304-2.253 2.969-3.687 0.717-1.382 1.178-3.123 1.178-5.529 0-54.221 0-164.71 0-174.080h20.48c0 0 0 153.6 0 174.080 0 14.131 0 24.474 0 28.16 0 2.406 0.461 4.147 1.178 5.581 1.024 2.15 2.714 3.789 5.223 5.12 2.457 1.331 5.683 2.099 8.96 2.099 4.403 0 8.601-1.382 11.213-3.533 1.331-1.075 2.304-2.253 2.969-3.687 0.717-1.433 1.178-3.174 1.178-5.581 0-4.301 0-16.281 0-32.461 0-20.48 0-181.657 0-181.657h20.48c0 0 0 120.781 0 181.658 0 2.457 0.512 4.301 1.331 5.939 1.229 2.457 3.379 4.557 6.349 6.144 2.918 1.587 6.553 2.457 9.933 2.457 3.993 0 7.424-1.229 9.421-2.918 1.024-0.87 1.792-1.843 2.406-3.174s1.024-3.123 1.024-5.632v-0.205l0.256-194.867h20.48v114.637c0 2.099 0.409 3.533 1.127 4.864 1.024 1.945 2.816 3.686 5.478 5.017s6.093 2.151 9.472 2.099c4.352 0 8.448-1.331 10.803-3.277 1.229-0.973 2.099-2.048 2.765-3.379 0.615-1.28 1.075-2.97 1.075-5.325v0c0-0.051 0-11.878 0-27.801s0-35.942 0-52.121c0-8.141 0-15.309 0-20.531z" />
<glyph unicode="&#xe62a;" d="M368.64 386.918c0 0 0 0.051 0 0.051v-0.051zM496.691 302.285c-5.837 12.391-19.353 19.968-32.973 19.354-14.592-0.666-26.163-10.855-31.027-24.269-2.509-7.117-5.069-14.234-7.577-21.351 3.021 25.139 6.041 50.329 9.063 75.469 1.024 8.653 2.663 17.408 3.021 26.112 0.512 13.261-5.683 25.959-16.845 33.229-11.264 7.322-26.573 8.295-37.837 0.461-8.038-5.581-12.595-14.745-13.875-24.32l-11.673-82.227c-1.843 35.738-2.816 71.731-6.144 107.367v0c-2.048 21.965-22.425 34.457-43.366 30.31-9.728-1.945-18.944-7.322-24.474-15.667-5.632-8.397-5.325-17.152-4.557-26.778 3.328-40.55 4.915-81.305 7.065-121.959-10.445 31.949-21.197 63.795-31.13 95.949v0c-8.755 28.826-49.101 29.645-64.717 6.349-7.936-11.827-4.71-23.654-1.28-36.198 3.021-10.905 5.888-21.863 8.755-32.819 7.577-28.928 14.899-57.907 21.965-86.938 6.656-27.341 14.592-55.142 18.176-83.098 1.075-8.089-3.891-14.029-11.981-15.462-8.141-1.433-15.719 2.663-20.992 8.601-7.066 7.936-14.848 15.309-22.425 22.733-4.659 4.608-9.369 9.165-14.029 13.773-4.403 4.352-8.601 8.806-14.285 11.52-21.401 10.137-48.128-3.123-65.485-15.923l-1.792-14.643 133.12-163.84 7.936-3.789c39.987 0 79.975 0 120.013 0 16.281 0 32.512 0 48.793 0 9.063 0 18.176 0.205 26.317 4.711 12.493 6.963 17.050 20.992 19.712 34.253v0c4.659 23.347 8.499 46.848 12.237 70.349 4.25 26.675 8.653 53.504 11.008 80.435 0.409 4.762 0.512 9.063 1.997 13.671s3.021 9.165 4.505 13.721c3.993 11.878 8.038 23.757 12.083 35.584 4.096 11.981 8.192 23.962 12.339 35.942 3.379 9.728 4.915 19.661 0.358 29.389-2.918 6.195 1.894-4.096 0 0zM466.074 184.371v0c0 0 0 0 0 0v0zM462.336 236.953c-3.584-10.496-7.168-20.992-10.649-31.539-2.253-6.759-5.888-14.285-6.144-21.504-0.615-18.534-3.789-37.12-6.502-55.399-4.966-33.843-10.291-67.687-16.998-101.222-1.075-5.376-2.253-11.111-5.12-15.821-3.021-5.017-8.243-6.4-13.824-6.605-4.659-0.205-9.319-0.051-13.978-0.051-16.231 0-32.409 0-48.64 0-34.611 0-69.171 0-103.782 0-1.536 0-3.021 0-4.557 0l-122.778 151.091c7.168 4.096 15.001 7.731 23.194 9.063 9.728 1.536 14.489-2.304 21.043-8.806 11.776-11.673 24.32-22.887 35.328-35.328v0c17.203-19.661 53.043-22.835 65.997 3.584 5.427 11.059 2.253 23.347 0 34.765-2.765 14.131-6.042 28.211-9.319 42.24-6.861 29.389-14.183 58.675-21.657 87.962-3.686 14.336-7.373 28.672-11.161 43.008-1.69 6.298-3.379 12.595-5.12 18.893-1.28 4.659-3.994 10.24-2.304 15.104 3.533 10.137 22.323 14.899 28.16 4.557 1.638-2.918 2.406-6.553 3.43-9.728 1.843-5.683 3.635-11.366 5.478-17.049 6.707-20.736 13.465-41.472 20.275-62.208 6.195-18.944 12.39-37.888 18.586-56.832 2.765-8.448 4.659-18.381 8.653-26.368l19.968 3.687c0 12.339-1.229 24.832-1.894 37.171-1.331 26.061-2.714 52.070-4.096 78.131-1.331 24.627-2.663 49.203-4.301 73.83-0.615 9.319-4.711 21.965 4.762 28.007 9.728 6.195 24.832 3.789 26.061-9.319 3.175-34.406 4.096-69.12 5.939-103.577 1.127-21.657 2.253-43.315 3.328-64.973 0.768-14.643 2.202-29.44 2.202-44.083l20.377-0.921c7.168 50.483 14.336 101.017 21.504 151.501 1.69 12.032 3.379 24.064 5.12 36.045 0.717 5.069 2.969 10.24 8.346 11.673 6.298 1.69 13.261-1.741 16.743-7.014 2.663-3.993 2.969-8.653 2.406-13.261-1.024-8.397-1.997-16.793-3.021-25.139-3.789-31.385-7.526-62.771-11.315-94.157-2.714-23.142-5.478-46.183-8.243-69.274l19.815-4.659 38.298 107.878c2.816 7.629 9.625 12.8 17.971 10.138 7.68-2.458 10.906-9.882 8.346-17.255-5.325-15.411-10.649-30.823-15.923-46.234-4.045-11.879 7.629 22.221 0 0z" />
<glyph unicode="&#xe62b;" d="M471.040 203.981c-0.768 11.418-5.529 21.351-15.769 27.136-11.008 6.246-24.986 6.349-36.454 1.229-5.478 22.119-32.103 29.798-51.353 21.043-5.632 21.145-30.976 29.235-50.022 21.401 0 26.88 0 53.76 0 80.64 0 9.728 0 19.456 0 29.184 0 9.575 0.051 18.893-5.735 27.136-16.538 23.501-59.495 17.408-65.28-11.981-1.638-8.243-0.666-17.561-0.666-25.907 0-63.437 0-126.874 0-190.259 0-10.445 0-20.889 0-31.385 0-2.048 0.205-4.25-0.102-6.298-0.973-7.168-8.96-11.059-15.513-11.059-7.014 0.051-13.056 3.789-17.664 8.909-8.601 9.728-18.279 18.637-27.546 27.75-11.111 10.906-20.685 22.989-37.478 23.705-22.528 0.973-42.496-12.749-59.751-25.651l142.95-175.974c39.885 0 79.719 0 119.603 0 17.613 0 35.226 0 52.839 0 8.909 0 17.869-0.103 26.112 3.942 13.517 6.656 18.432 21.197 21.197 35.021 5.683 28.877 9.113 58.266 12.697 87.45 1.997 16.026 3.84 32.051 5.427 48.077 1.127 11.827 2.816 23.962 2.509 35.891zM450.56 203.213c0-0.461 0-0.973 0-1.433v0c-0.563-27.238-4.762-54.733-8.141-81.767-3.43-27.853-6.656-55.911-12.135-83.456v0c-1.127-5.683-2.406-12.083-5.837-16.896-3.481-4.762-9.318-5.581-14.848-5.581-4.301 0-8.653 0-12.954 0-16.384 0-32.717 0-49.101 0-34.406 0-68.813 0-103.168 0-1.331 0-2.662 0-3.994 0l-122.829 151.194c7.168 4.096 15.002 7.731 23.193 9.063 9.728 1.536 14.489-2.304 21.043-8.807 11.776-11.673 24.32-22.887 35.328-35.328v0c17.203-19.661 53.043-22.835 65.997 3.584 3.789 7.731 3.123 16.231 3.123 24.576 0 27.546 0 55.142 0 82.688 0 34.304 0 68.608 0 102.912 0 12.083 0 24.167 0 36.301 0 3.481 0 6.912 0 10.394 0 9.318 5.581 15.155 15.36 15.155 9.882 0.051 15.36-5.888 15.36-15.36 0-5.427 0-10.854 0-16.333 0-17.562 0-35.072 0-52.634 0-34.202 0-68.352 0-102.553h20.48c0 7.885 0 15.769 0 23.603 0 6.042 1.69 10.855 7.68 13.312 5.581 2.304 12.749 2.048 17.817-1.28 5.632-3.635 5.223-9.625 5.223-15.565 0-5.069 0-10.189 0-15.258 0-5.581 0-11.111 0-16.691h20.48c0 2.663 0 5.376 0 8.089 0 5.427-1.229 12.237 2.714 16.64 6.81 7.526 25.139 6.861 27.648-4.557 1.229-5.53 0.358-11.929 0.358-17.459 0-4.454 0-8.858 0-13.312h20.48c0 7.526-0.358 14.233 7.987 17.562 9.113 3.635 22.681 0.921 22.733-10.803z" />
<glyph unicode="&#xe62c;" d="M156.774 170.496c-0.051 0.051-0.102 0.103-0.154 0.154l0.154-0.154zM197.222 130.048c-0.051 0.051-0.102 0.103-0.102 0.154l0.102-0.154zM471.040 203.981c-1.382 26.419-29.286 38.656-52.224 28.365-5.478 22.119-32.051 29.798-51.353 21.043-6.605 24.678-39.629 31.283-58.522 16.435-7.885 28.262-20.889 55.347-40.141 77.721-8.653 10.087-18.585 19.149-29.44 26.777-11.469 8.038-25.498 17.357-39.834 18.023-28.365 1.331-51.763-35.789-29.747-58.112 4.71-4.762 10.649-6.81 16.435-9.779 5.939-3.072 11.469-6.963 16.435-11.52 9.677-8.858 16.999-20.019 22.528-31.897 13.312-28.467 17.561-60.672 19.456-91.751 0.512-8.089 0.819-16.231 0.973-24.32 0.154-6.349 1.894-15.616-0.614-21.606-5.888-14.233-24.883-8.192-32.512 0.358v0c-12.903 14.592-27.648 27.648-41.369 41.421v0c-24.32 24.423-61.594 0.615-83.353-15.667l142.899-175.872c39.885 0 79.719 0 119.603 0 17.613 0 35.226 0 52.839 0 8.909 0 17.869-0.103 26.112 3.942 13.517 6.656 18.432 21.197 21.197 35.021 5.325 26.983 8.55 54.477 11.981 81.767 3.584 28.774 8.038 58.010 8.704 86.989v0c-0.051 0.87 0 1.792-0.051 2.663zM450.56 203.52c0.051-0.563 0-1.178 0-1.741v0c-0.615-27.289-4.762-54.733-8.141-81.767-3.43-27.853-6.656-55.911-12.135-83.456v0c-1.127-5.683-2.406-12.083-5.837-16.896-3.481-4.762-9.318-5.581-14.848-5.581-4.301 0-8.653 0-12.954 0-16.384 0-32.717 0-49.101 0-34.406 0-68.813 0-103.168 0-1.331 0-2.662 0-3.994 0l-122.829 151.193c7.168 4.096 15.002 7.731 23.193 9.063 8.909 1.433 13.773-1.587 19.815-7.577 12.185-12.083 25.19-23.654 36.557-36.557v0c17.203-19.661 53.043-22.835 65.997 3.584 5.735 11.725 3.123 27.648 2.714 40.295-0.512 15.104-1.485 30.208-3.43 45.209-3.789 29.645-10.905 60.058-26.931 85.657-7.168 11.469-16.231 21.709-27.085 29.747-5.325 3.891-11.008 7.271-16.999 10.035-6.144 2.816-10.855 5.888-9.319 13.568 1.843 9.165 10.547 15.309 19.763 13.159 9.113-2.151 18.279-8.601 25.856-13.927 15.257-10.752 28.109-24.576 38.195-40.243 18.381-28.467 30.208-64.666 31.079-98.662l20.48 0.256c0 8.96-0.87 18.381 0.103 27.29 1.28 11.879 18.534 14.080 26.471 7.577 5.12-4.147 4.147-10.752 4.147-16.64 0-4.608 0-9.216 0-13.824 0-5.427 0-10.906 0-16.333h20.48c0 2.663 0 5.376 0 8.089 0 5.427-1.229 12.237 2.714 16.64 6.81 7.526 25.139 6.861 27.648-4.557 1.229-5.427 0.358-11.827 0.358-17.357 0-4.454 0-8.858 0-13.312h20.48c0 6.861-0.615 13.312 6.605 16.947 8.806 4.454 24.064 2.253 24.115-9.882z" />
<glyph unicode="&#xe62d;" d="M390.093 196.813c-1.229 1.587-2.714 3.021-4.25 4.352 8.499 11.571 9.421 28.211 2.918 40.96-6.144 12.032-17.715 17.766-30.925 17.766-17.613 0-35.175 0-52.787 0-8.601 0-17.255 0-25.856 0-4.403 0-9.882-0.819-14.233 0.359-13.721 3.686-10.701 22.425-3.481 30.361 9.063 10.035 19.558 19.149 29.082 28.826 7.373 7.526 16.998 14.848 21.555 24.525 5.427 11.469 3.687 24.781-0.409 36.352-4.915 13.978-13.107 25.907-21.913 37.632l-175.872-143.001c0-39.885 0-79.719 0-119.603 0-17.613 0-35.226 0-52.839 0-8.909-0.103-17.869 3.942-26.112 6.656-13.517 21.197-18.432 35.021-21.197 42.291-8.346 85.657-12.902 128.512-17.408 10.291-1.075 20.582-2.099 30.925-2.816 7.065-0.461 14.336-1.075 21.248 0.921 21.197 6.195 27.341 32.358 19.046 50.841 22.118 5.478 29.798 32.103 21.043 51.353 24.781 6.656 31.385 39.834 16.435 58.726-1.28 1.536 5.529-7.014 0 0zM374.067 161.587c-4.147-5.12-10.752-4.147-16.64-4.147-4.915 0-9.779 0-14.695 0-5.171 0-10.291 0-15.462 0v-20.48c2.714 0 5.376 0 8.089 0 5.427 0 12.237 1.229 16.64-2.714 7.526-6.81 6.861-25.139-4.557-27.648-5.427-1.229-11.827-0.358-17.357-0.358-4.454 0-8.858 0-13.312 0v-20.48c8.192 0 15.207-0.051 18.074-9.472 3.123-10.24-0.973-21.504-12.749-21.248v0c-27.238 0.563-54.733 4.762-81.767 8.141-27.853 3.43-55.911 6.656-83.456 12.135v0c-5.683 1.127-12.083 2.406-16.896 5.837-4.762 3.481-5.581 9.319-5.581 14.848 0 4.301 0 8.653 0 12.954 0 16.384 0 32.717 0 49.101 0 34.406 0 68.813 0 103.168 0 1.331 0 2.662 0 3.993l151.194 122.829c5.683-9.882 15.462-28.928 5.427-39.014-10.803-10.803-21.351-21.811-32.205-32.563-9.421-9.369-19.353-17.408-22.835-30.873-3.226-12.493-0.205-26.471 8.704-35.994 11.622-12.493 28.365-10.189 43.776-10.189 18.944 0 37.939 0 56.883 0 4.403 0 8.755 0 13.159 0 9.011 0 14.029-6.554 14.029-15.36 0.051-9.37-5.376-15.36-14.695-15.36-6.195 0-12.39 0-18.586 0v-20.48c8.55 0 17.050 0 25.6 0 12.851-0.103 16.333-17.92 9.216-26.624-1.024-1.28 2.151 2.611 0 0z" />
<glyph unicode="&#xe62e;" d="M399.36 198.4h-120.32v-20.48h120.32c1.382 0 2.611-0.563 3.584-1.485 0.973-1.024 1.536-2.253 1.536-3.635v-122.88c0-1.382-0.563-2.611-1.536-3.635-0.973-0.921-2.202-1.485-3.584-1.485h-122.010c-2.56-8.448-7.987-15.616-15.104-20.48h137.113c14.131 0.051 25.549 11.469 25.6 25.6v122.88c-0.051 14.131-11.469 25.549-25.6 25.6zM393.267 167.68h-115.098v-111.667l-0.051-0.973h115.149zM268.083 334.848c-0.051 14.131-11.469 25.549-25.6 25.6h-122.88c-14.131-0.051-25.549-11.469-25.6-25.6v-280.576c0.051-14.131 11.469-25.549 25.6-25.6h122.88c14.131 0.051 25.549 11.469 25.6 25.6v280.576zM246.119 50.637c-0.973-0.973-2.202-1.485-3.584-1.536h-122.88c-1.382 0-2.611 0.563-3.584 1.536s-1.485 2.202-1.536 3.584v280.576c0 1.382 0.563 2.611 1.536 3.635 0.973 0.973 2.201 1.485 3.584 1.485h122.88c1.382 0 2.611-0.563 3.584-1.485 0.973-0.973 1.485-2.202 1.536-3.635v-280.576c-0.051-1.382-0.614-2.611-1.536-3.584zM124.723 328.755h112.64v-225.28h-112.64v225.28zM196.403 77.875c0-8.483-6.877-15.36-15.36-15.36s-15.36 6.877-15.36 15.36c0 8.483 6.877 15.36 15.36 15.36s15.36-6.877 15.36-15.36zM322.509 326.502c-2.304 2.202-2.969 2.611-4.301 3.738 21.094-2.56 39.987-12.135 54.272-26.419 14.336-14.336 23.911-33.331 26.419-54.579-0.973 1.075-1.792 1.997-3.789 3.994-7.271 7.475-19.968-0.768-19.968-0.768l35.277-36.455 32.409 39.065c0 0-13.261 7.219-19.968-0.768-1.997-2.355-2.406-3.072-3.328-4.352-5.478 53.043-47.514 95.181-100.557 100.813 1.075 0.87 2.048 1.639 4.096 3.43 7.834 6.861 0.409 19.968 0.409 19.968l-38.451-33.127 37.171-34.56c-0.051 0.051 7.885 12.903 0.307 20.019z" />
<glyph unicode="&#xe62f;" d="M327.783 372.377h-122.88c-14.131-0.051-25.549-11.469-25.6-25.6v-280.576c0.051-14.131 11.469-25.549 25.6-25.6h122.88c14.131 0.051 25.549 11.469 25.6 25.6v280.576c-0.051 14.183-11.469 25.549-25.6 25.6zM331.366 62.567c-0.973-0.973-2.202-1.485-3.635-1.485h-122.88c-1.382 0-2.611 0.563-3.584 1.485-0.973 0.973-1.485 2.202-1.536 3.635v280.576c0 1.382 0.563 2.611 1.536 3.584s2.202 1.536 3.584 1.536h122.88c1.382 0 2.611-0.563 3.584-1.536s1.536-2.202 1.536-3.584v-280.576c0-1.433-0.512-2.663-1.485-3.635zM210.023 340.685h112.64v-225.28h-112.64v225.28zM281.702 89.805c0-8.483-6.877-15.36-15.36-15.36s-15.36 6.877-15.36 15.36c0 8.483 6.877 15.36 15.36 15.36s15.36-6.877 15.36-15.36zM148.736 363.93l-14.183-3.123c-8.192-5.223-12.954-14.899-11.418-25.139l41.216-269.517-24.269 276.429c-0.666 8.397 2.765 16.128 8.653 21.351zM398.080 360.807l-14.183 3.123c5.888-5.171 9.319-12.954 8.601-21.351l-24.269-276.429 41.216 269.517c1.587 10.24-3.175 19.865-11.366 25.139zM164.966 368.999c-8.601-4.506-14.233-13.722-13.568-24.064l17.511-272.077v277.504c0 8.448 4.147 15.872 10.445 20.531l-14.387-1.894zM381.235 344.986c0.615 10.342-4.966 19.558-13.568 24.064l-14.387 1.843c6.298-4.659 10.445-12.083 10.445-20.531v-277.504l17.51 272.128z" />
<glyph unicode="&#xe630;" d="M271.36 107.315c0-8.483-6.877-15.36-15.36-15.36s-15.36 6.877-15.36 15.36c0 8.483 6.877 15.36 15.36 15.36s15.36-6.877 15.36-15.36zM312.32 176.026c-16.793-3.123-35.533-4.915-55.399-4.966l-30.771-28.16c0 0-7.833 12.902-0.205 20.019 3.584 3.328 3.738 3.277 7.27 6.247 1.126 0.973 2.048 1.741 2.97 2.509-12.903 0.768-25.088 2.304-36.454 4.403v-43.161h112.64v43.111zM338.995 114.893c-5.427-4.557-10.906-8.806-16.435-12.954v-18.279c0-1.382-0.563-2.611-1.485-3.635-0.973-0.973-2.202-1.485-3.635-1.485h-30.515c-11.161-6.349-22.375-11.878-33.536-16.538-3.328-1.382-6.707-2.714-10.035-3.942h74.087c14.131 0.051 25.549 11.469 25.6 25.6v34.765c-1.382-1.178-2.663-2.355-4.045-3.533zM447.079 307.763c-3.481-3.328-2.714-3.072-6.656-6.861 0 0 0 0 0-0.051 0 0.563 0.051 1.127 0.051 1.639 0 22.477-6.298 43.264-20.019 59.546-9.165 10.957-20.992 19.046-34.406 24.269-13.414 5.274-28.519 7.731-44.595 7.731-12.032 0-24.627-1.485-37.581-4.147h-109.312c-14.131-0.051-25.549-11.469-25.6-25.6v-45.005c-29.952-25.907-53.862-54.989-70.502-84.275-17.357-30.617-26.931-61.542-26.931-89.549 0-22.477 6.297-43.264 20.019-59.546 9.165-10.957 20.941-19.046 34.406-24.269 13.415-5.274 28.518-7.731 44.595-7.731 25.703 0 54.016 6.349 82.841 18.329 28.826 12.032 58.112 29.798 85.607 52.839 31.897 26.777 57.139 57.19 74.547 87.808 10.701 18.841 18.381 37.786 22.733 56.115l-8.448-7.731-6.963 9.575c-4.045-16.179-10.957-33.229-20.685-50.381-13.824-24.269-33.127-48.691-57.139-71.168v34.765c-6.298-2.253-13.159-4.199-20.48-5.888v-46.541c-24.423-19.507-50.074-34.714-75.111-45.159-7.27-3.021-14.489-5.632-21.555-7.885h-31.334c-1.382 0-2.611 0.563-3.635 1.485-0.922 0.973-1.485 2.202-1.485 3.635v94.413c-7.322 1.69-14.183 3.687-20.48 5.888v-100.352c0-5.325 1.69-10.24 4.454-14.336-0.922 0-1.946-0.103-2.867-0.103-14.489 0-27.699 2.253-39.014 6.707s-20.787 11.008-28.211 19.865c-11.008 13.159-16.384 30.003-16.435 49.664 0 24.474 8.55 53.094 24.934 81.971 13.773 24.32 33.126 48.793 57.139 71.219v-24.474c-10.649-3.789-19.763-8.243-26.931-13.568-4.659-3.481-8.55-7.27-11.417-11.673-2.816-4.352-4.557-9.421-4.557-14.745 0-1.741 0.205-3.379 0.563-5.069 0.563-2.714 1.536-5.376 2.867-7.783 3.84-6.861 10.087-12.39 17.92-17.203 6.144-3.738 13.415-7.065 21.504-9.933 6.298-2.253 13.159-4.199 20.48-5.888 1.382-0.307 2.714-0.666 4.096-0.921 1.997-0.409 4.096-0.717 6.144-1.127 11.571-2.151 24.064-3.738 37.222-4.454-1.075 0.768-2.355 1.639-3.891 2.663-1.843 1.639-2.816 2.406-3.635 3.021-0.973 0.768-1.792 1.331-3.789 3.072-2.458 2.202-3.379 5.017-3.482 7.834-0.205 6.041 3.277 12.135 3.277 12.135l15.513-13.619 12.032-10.599 5.837-5.12c19.2 0.154 37.274 1.894 53.504 4.966 3.481 0.666 6.912 1.382 10.24 2.151 7.322 1.69 14.183 3.687 20.48 5.888 0.666 0.256 1.433 0.461 2.048 0.717 11.673 4.352 21.351 9.523 28.57 15.821 3.635 3.175 6.605 6.656 8.806 10.547 1.331 2.406 2.304 5.069 2.867 7.782 0.358 1.638 0.563 3.328 0.563 5.069 0 5.069-1.587 9.881-4.199 14.131-3.942 6.349-9.984 11.571-17.562 16.128-6.093 3.635-13.209 6.861-21.145 9.677v90.215c0 5.325-1.639 10.189-4.352 14.285 0.921 0 1.843 0.103 2.765 0.103 14.49 0 27.699-2.253 39.014-6.707s20.839-11.008 28.262-19.865c11.008-13.159 16.384-29.952 16.384-49.664 0-0.154 0-0.358 0-0.512-2.663 3.738-2.663 3.942-5.632 7.731-6.451 8.192-19.917 1.433-19.917 1.433l5.223-6.758 25.856-33.331 7.577 7.322 28.877 27.955c0.103 0.051-12.339 8.653-19.865 1.485zM168.96 210.739c-8.857 3.584-15.975 7.629-20.531 11.623-2.56 2.253-4.352 4.454-5.478 6.451-0.051 0.102-0.051 0.205-0.102 0.307-0.973 1.843-1.382 3.482-1.382 5.12 0 1.997 0.563 3.994 2.099 6.4 2.253 3.584 6.912 7.731 13.671 11.571 1.126 0.666 2.406 1.28 3.635 1.894 2.509 1.28 5.171 2.509 8.089 3.686v-47.053zM343.040 257.792c3.072-1.229 5.939-2.56 8.55-3.891 3.993-2.048 7.424-4.147 10.189-6.298 3.226-2.509 5.529-5.018 6.861-7.27 1.382-2.253 1.894-4.198 1.894-6.093 0-1.638-0.409-3.277-1.433-5.12-0.051-0.102-0.051-0.205-0.103-0.256-1.894-3.482-6.041-7.629-12.493-11.52-3.738-2.355-8.295-4.608-13.466-6.656v47.104zM322.56 204.135c-2.355-0.615-4.813-1.178-7.322-1.69-0.921-0.205-1.997-0.358-2.918-0.512v156.262h-112.64v-156.314c-3.533 0.717-6.963 1.485-10.24 2.304v160.102c0 1.383 0.563 2.611 1.485 3.635 0.973 0.973 2.202 1.485 3.635 1.485h122.88c1.382 0 2.611-0.563 3.635-1.485 0.921-0.973 1.485-2.202 1.485-3.635v-160.154z" />
<glyph unicode="&#xe631;" d="M204.8 428.8l-12.544 8.294c-4.608 3.277-11.008 2.202-14.285-2.355l-8.601-11.213c-3.174 1.69-6.81 2.714-10.649 2.765h-71.68c-12.749-0.051-22.989-10.291-23.040-23.040v-71.68c0.051-12.749 10.291-22.989 23.040-23.040h71.68c12.749 0.051 22.989 10.291 23.040 23.040v66.304l23.040 30.925zM166.4 331.52c0-2.099-0.87-3.993-2.253-5.427-1.434-1.434-3.328-2.253-5.427-2.253h-71.68c-2.099 0-3.993 0.87-5.427 2.253-1.433 1.434-2.253 3.328-2.253 5.427v71.68c0 2.099 0.871 3.993 2.253 5.427 1.433 1.433 3.328 2.253 5.427 2.253h71.68c0.307 0 0.614-0.051 0.922-0.102l-29.44-38.451-22.425 16.231c-4.505 3.379-10.957 2.457-14.336-2.048l-9.063-11.981 43.111-32.768c4.505-3.379 10.854-2.406 14.131 2.202l24.781 33.28v-45.721z" />
<glyph unicode="&#xe632;" d="M194.56 372.48c0-48.071-38.969-87.040-87.040-87.040s-87.040 38.969-87.040 87.040c0 48.071 38.969 87.040 87.040 87.040s87.040-38.969 87.040-87.040zM145.152 392.038c3.994 3.993 3.994 10.496 0 14.49l-3.635 3.635c-3.994 3.993-10.496 3.993-14.489 0l-19.456-20.787-19.609 20.787c-3.993 3.993-10.496 3.993-14.49 0l-3.635-3.635c-3.993-3.994-3.993-10.496 0-14.49l21.709-18.381-21.709-20.685c-3.993-3.993-3.993-10.496 0-14.489l3.635-3.635c3.993-3.993 10.496-3.993 14.489 0l19.353 19.865 19.763-19.865c3.994-3.993 10.496-3.993 14.489 0l3.635 3.635c3.994 3.993 3.994 10.496 0 14.489l-21.248 19.251 21.197 19.815z" />
<glyph unicode="&#xe633;" d="M107.52 459.52c-48.077 0-87.040-38.963-87.040-87.040s38.963-87.040 87.040-87.040 87.040 38.963 87.040 87.040-38.963 87.040-87.040 87.040zM111.155 326.861c-3.277-4.557-9.626-5.581-14.131-2.202l-43.111 32.768 9.063 11.981c3.379 4.505 9.831 5.427 14.336 2.048l22.425-16.231 37.479 52.173c3.277 4.557 9.677 5.632 14.285 2.355l12.544-8.294-52.889-74.599z" />
<glyph unicode="&#xe634;" d="M117.76 446.72c-41.011 0-74.24-33.229-74.24-74.24s33.229-74.24 74.24-74.24c41.011 0 74.24 33.229 74.24 74.24s-33.229 74.24-74.24 74.24zM159.386 330.855c-10.701-10.649-25.344-17.255-41.626-17.255s-30.976 6.605-41.626 17.255c-10.65 10.701-17.255 25.344-17.255 41.625s6.605 30.976 17.255 41.625c10.65 10.649 25.344 17.255 41.626 17.255s30.976-6.605 41.626-17.255c10.649-10.701 17.255-25.344 17.255-41.625s-6.605-30.976-17.255-41.625zM153.6 372.48c0-19.794-16.046-35.84-35.84-35.84s-35.84 16.046-35.84 35.84c0 19.794 16.046 35.84 35.84 35.84s35.84-16.046 35.84-35.84z" />
<glyph unicode="&#xe635;" d="M61.44 433.92c-8.499 0-15.36-6.861-15.36-15.36s6.861-15.36 15.36-15.36c8.499 0 15.36 6.861 15.36 15.36s-6.861 15.36-15.36 15.36zM61.44 413.44c-2.816 0-5.12 2.304-5.12 5.12s2.304 5.12 5.12 5.12c2.816 0 5.12-2.304 5.12-5.12s-2.304-5.12-5.12-5.12zM61.44 392.96c-8.499 0-15.36-6.861-15.36-15.36s6.861-15.36 15.36-15.36c8.499 0 15.36 6.861 15.36 15.36s-6.861 15.36-15.36 15.36zM61.44 372.48c-2.816 0-5.12 2.304-5.12 5.12s2.304 5.12 5.12 5.12c2.816 0 5.12-2.304 5.12-5.12s-2.304-5.12-5.12-5.12zM61.44 352c-8.499 0-15.36-6.861-15.36-15.36s6.861-15.36 15.36-15.36c8.499 0 15.36 6.861 15.36 15.36s-6.861 15.36-15.36 15.36zM61.44 331.52c-2.816 0-5.12 2.304-5.12 5.12s2.304 5.12 5.12 5.12c2.816 0 5.12-2.304 5.12-5.12s-2.304-5.12-5.12-5.12zM84.48 426.24h97.28v-15.36h-97.28v15.36zM84.48 385.28h97.28v-15.36h-97.28v15.36zM84.48 344.32h97.28v-15.36h-97.28v15.36z" />
<glyph unicode="&#xe636;" d="M189.44 428.8h-153.6c-14.131-0.051-25.549-11.469-25.6-25.6v-61.44c0.051-14.131 11.469-25.549 25.6-25.6h153.6c14.131 0.051 25.549 11.469 25.6 25.6v61.44c-0.051 14.131-11.469 25.549-25.6 25.6zM112.64 341.76c0-2.816-2.304-5.12-5.12-5.12h-71.68c-2.816 0-5.12 2.304-5.12 5.12v61.44c0 2.816 2.304 5.12 5.12 5.12h71.68c2.816 0 5.12-2.304 5.12-5.12v-61.44z" />
<glyph unicode="&#xe637;" d="M254.515 338.739c-30.106 0-54.528-23.757-54.528-52.992s24.371-53.043 54.528-53.043c30.106 0 54.528 23.757 54.528 52.992s-24.474 53.043-54.528 53.043zM254.515 253.184c-18.791 0-34.048 14.592-34.048 32.512s15.257 32.512 34.048 32.512 34.048-14.592 34.048-32.512c-0.051-17.92-15.309-32.512-34.048-32.512zM256 397.978c-66.714 0-120.986-53.043-120.986-118.221 0-21.863 8.089-48.435 21.709-71.065l99.226-161.946 17.51 28.365 82.176 133.376c13.414 22.375 21.351 48.947 21.351 71.27 0 65.178-54.272 118.221-120.986 118.221zM338.176 219.238l-82.176-133.376-81.715 133.376c-10.035 16.743-18.791 39.834-18.791 60.519 0 53.965 45.005 97.741 100.506 97.741s100.505-43.776 100.505-97.741c0-20.736-8.294-43.776-18.329-60.519z" />
<glyph unicode="&#xe638;" d="M359.885 363.059c-3.738 5.99-9.267 10.24-15.872 13.875-9.933 5.427-22.733 9.472-37.734 12.391-14.95 2.867-32.051 4.454-50.279 4.454-27.75 0-52.889-3.687-71.936-10.035-9.523-3.175-17.561-7.014-23.91-11.981-3.174-2.509-5.939-5.325-8.038-8.755-2.099-3.379-3.482-7.527-3.482-11.879v-218.573c0-4.352 1.382-8.499 3.482-11.878 3.738-5.99 9.267-10.24 15.872-13.875 9.933-5.427 22.733-9.472 37.734-12.39 12.185-2.355 25.805-3.789 40.294-4.25v-66.099c2.97 1.69 6.349 2.714 10.035 2.714 3.635 0 7.014-1.024 9.984-2.714v66.048c23.757 0.768 45.209 4.301 61.901 9.831 9.523 3.175 17.562 7.014 23.911 11.981 3.175 2.509 5.939 5.325 8.038 8.755 2.099 3.379 3.481 7.526 3.481 11.878v218.624c0 4.352-1.382 8.499-3.481 11.879zM342.887 132.659c0-0.154 0-0.358-0.461-1.178-0.768-1.382-3.533-4.096-8.295-6.656-7.065-3.891-18.227-7.629-31.744-10.24-10.803-2.099-23.193-3.43-36.403-3.891v41.165c4.813-5.325 3.84-4.864 8.038-9.523 9.113-10.035 26.010 0 26.010 0l-44.032 49.255-44.083-49.255c0 0 16.896-10.035 26.061 0 4.25 4.659 3.226 4.199 8.038 9.523v-41.165c-21.863 0.768-41.421 4.096-55.45 8.755-8.038 2.663-14.233 5.837-17.715 8.601-1.741 1.382-2.816 2.611-3.277 3.379-0.461 0.819-0.461 1.024-0.461 1.178v192.307c9.779-5.171 22.169-9.063 36.608-11.827 14.951-2.867 32.051-4.455 50.278-4.455 27.75 0 52.889 3.687 71.936 10.035 5.529 1.843 10.496 3.942 14.95 6.298v-192.307zM342.425 350.054c-0.768-1.382-3.533-4.096-8.295-6.656-7.065-3.891-18.227-7.68-31.744-10.24-13.517-2.611-29.44-4.096-46.439-4.096-25.907 0-49.305 3.584-65.434 8.96-8.038 2.662-14.233 5.837-17.715 8.601-1.741 1.382-2.816 2.611-3.277 3.379-0.461 0.819-0.461 1.024-0.461 1.178s0 0.359 0.461 1.178c0.768 1.382 3.533 4.096 8.294 6.656 7.065 3.891 18.227 7.629 31.744 10.24s29.44 4.096 46.439 4.096c25.907 0 49.305-3.584 65.433-8.96 8.038-2.663 14.233-5.837 17.715-8.602 1.741-1.382 2.816-2.611 3.277-3.379 0.461-0.819 0.461-1.024 0.461-1.178s0-0.41-0.461-1.178zM266.957 6.605c0-6.051-4.906-10.957-10.957-10.957s-10.957 4.906-10.957 10.957c0 6.051 4.905 10.957 10.957 10.957s10.957-4.906 10.957-10.957z" />
<glyph unicode="&#xe639;" d="M423.168 235.469c-0.256 3.686-0.512 6.553-0.512 6.605l-0.307 3.738-5.171 5.171-30.873 4.147-1.894 7.117 24.678 19.047 0.921 3.43 1.075 4.096-21.351 36.966-3.891 1.229-3.533 1.075-29.031-11.981-5.171 5.171 11.827 28.826-0.921 3.43-1.075 4.096-36.864 21.299-3.84-0.768-3.738-0.768-19.251-24.986-7.117 1.894-4.199 31.13-2.816 2.56-2.56 2.355-3.481 0.307c-0.051 0-2.918 0.256-6.605 0.512s-8.038 0.512-11.469 0.512c-3.43 0-7.782-0.256-11.469-0.512s-6.553-0.512-6.605-0.512l-3.482-0.307-2.662-2.406-2.714-2.509-4.198-31.13-7.117-1.894-19.251 24.986-3.84 0.768-3.789 0.768-36.864-21.299-1.126-4.198-0.87-3.328 11.879-28.826-5.171-5.171-29.030 11.93-7.424-2.304-21.35-36.966 1.127-4.147 0.871-3.328 24.678-19.047-1.894-7.117-30.874-4.147-5.171-5.171-0.307-3.738c0-0.051-0.256-2.918-0.512-6.605s-0.512-8.038-0.512-11.52c0-3.43 0.256-7.783 0.512-11.469s0.512-6.553 0.512-6.605l0.307-3.738 5.171-5.171 30.874-4.147 1.894-7.117-24.678-19.046-0.921-3.43-1.075-4.096 21.35-36.966 3.891-1.229 3.533-1.075 29.030 12.032 5.171-5.171-11.827-28.825 0.922-3.43 1.075-4.096 36.864-21.299 3.84 0.768 3.738 0.768 19.251 24.986 7.117-1.894 4.198-31.13 2.816-2.56 2.56-2.355 3.482-0.307c0.051 0 2.918-0.256 6.605-0.512s8.038-0.512 11.469-0.512c3.43 0 7.783 0.256 11.469 0.512s6.553 0.512 6.605 0.512l3.481 0.307 2.611 2.406 2.714 2.509 4.199 31.13 7.117 1.894 19.251-24.986 3.84-0.768 3.789-0.768 36.864 21.299 1.127 4.199 0.87 3.328-11.827 28.825 5.171 5.171 29.031-11.93 7.424 2.304 21.351 36.966-1.127 4.147-0.87 3.328-24.678 19.046 1.894 7.117 30.873 4.147 5.171 5.171 0.307 3.738c0 0.051 0.256 2.918 0.512 6.605s0.512 8.038 0.512 11.469c0 3.43-0.256 7.782-0.512 11.469zM304.333 115.968l-3.175 0.973-2.816 0.87-25.702-6.81-4.454-4.454-3.942-29.44c-0.256 0-0.563-0.051-0.819-0.051-2.765-0.154-5.632-0.307-7.424-0.307-1.997 0-5.222 0.154-8.243 0.358l-3.942 29.389-4.454 4.454-25.702 6.81-5.99-1.894-17.561-22.784-14.439 8.346 11.008 26.777-0.819 3.328-0.666 2.765-18.841 18.791-2.918 0.666-3.174 0.768-26.675-10.957-8.346 14.387 22.784 17.562 0.973 3.175 0.87 2.816-6.912 25.959-2.253 2.099-2.355 2.151-29.184 3.942c0 0.256-0.051 0.563-0.051 0.819-0.153 2.765-0.307 5.632-0.307 7.424 0 1.997 0.153 5.222 0.359 8.243l29.184 3.942 2.406 2.202 2.202 2.048 6.912 25.959-0.922 2.918-0.973 3.072-22.784 17.562 8.345 14.387 26.675-10.957 6.093 1.434 18.841 18.841 0.717 2.816 0.819 3.277-11.008 26.777 14.387 8.346 17.561-22.784 3.174-0.973 2.816-0.87 25.702 6.809 4.454 4.454 3.942 29.389c0.256 0 0.563 0.051 0.819 0.051 2.765 0.154 5.632 0.307 7.424 0.307 1.997 0 5.223-0.154 8.243-0.359l3.942-29.389 4.454-4.454 25.702-6.861 5.99 1.894 17.562 22.784 14.387-8.346-11.008-26.778 0.819-3.328 0.666-2.765 18.841-18.841 2.918-0.666 3.175-0.768 26.726 10.957 8.346-14.387-22.784-17.561-0.973-3.175-0.87-2.816 6.912-25.959 2.253-2.099 2.355-2.15 29.184-3.942c0-0.256 0.051-0.563 0.051-0.819 0.154-2.765 0.307-5.632 0.307-7.424 0-1.997-0.154-5.223-0.358-8.243l-29.184-3.942-2.406-2.202-2.202-2.048-6.912-25.959 0.921-2.918 0.973-3.072 22.784-17.562-8.346-14.387-26.726 10.957-6.093-1.433-18.841-18.791-0.717-2.816-0.819-3.277 11.008-26.777-14.438-8.346-17.459 22.887zM281.139 224c0-13.884-11.255-25.139-25.139-25.139s-25.139 11.255-25.139 25.139c0 13.884 11.255 25.139 25.139 25.139s25.139-11.255 25.139-25.139z" />
<glyph unicode="&#xe63a;" d="M405.709 246.784l-34.867-36.864c0 0 12.8-8.038 19.968-0.563 1.587 1.69 2.253 2.457 2.918 3.277-2.714-32.205-16.896-61.133-38.451-82.739-24.166-24.115-57.344-39.014-94.157-39.014s-69.99 14.899-94.106 39.014c-24.115 24.115-39.014 57.293-39.014 94.106s14.899 69.99 39.014 94.106c24.115 24.115 57.293 39.014 94.106 39.014 42.547 0 80.333-19.968 104.755-50.995-0.768-2.048-1.229-4.25-1.229-6.605 0-10.803 8.755-19.507 19.507-19.507 10.803 0 19.507 8.755 19.507 19.507 0 10.803-8.755 19.507-19.507 19.507-0.768 0-1.485-0.154-2.253-0.205-28.058 35.738-71.782 58.778-120.781 58.778-84.839 0-153.6-68.762-153.6-153.6s68.761-153.6 153.6-153.6c81.357 0 147.917 63.283 153.241 143.36 1.28-1.639 1.894-2.457 4.199-5.12 6.81-7.885 19.968-0.563 19.968-0.563l-32.819 38.707z" />
<glyph unicode="&#xe63b;" d="M150.067 257.024c0 0-12.339 8.704-19.917 1.536-1.741-1.638-2.406-2.406-3.174-3.226 6.553 27.136 21.401 51.046 41.779 68.864 23.45 20.48 53.965 32.87 87.552 32.87s64.103-12.39 87.552-32.87c23.399-20.48 39.577-48.998 44.185-81.254l20.275 2.918c-5.325 37.223-24.013 70.144-50.995 93.747-26.931 23.654-62.361 37.99-101.017 37.99s-74.087-14.336-101.017-37.939c-24.576-21.453-42.189-50.688-49.203-83.866-0.973 1.434-1.638 2.406-3.635 4.915-6.349 8.243-19.917 1.536-19.917 1.536l30.823-40.346 36.71 35.123zM398.387 226.202l-36.505-35.277c0 0 12.39-8.601 19.917-1.433 2.406 2.304 2.816 2.918 4.096 4.301-6.4-27.648-21.401-51.968-42.035-70.041-23.45-20.48-53.965-32.87-87.552-32.87s-64.103 12.39-87.552 32.87c-23.399 20.48-39.577 48.998-44.185 81.255l-20.275-2.918c5.325-37.223 24.013-70.144 50.995-93.747s62.362-37.939 101.018-37.939c38.656 0 74.087 14.336 101.017 37.939 24.423 21.351 41.984 50.329 49.050 83.251 0.768-1.075 1.485-2.048 3.072-4.045 6.451-8.192 19.917-1.433 19.917-1.433l-30.976 40.089z" />
<glyph unicode="&#xe63c;" d="M359.885 363.059c-3.738 5.99-9.267 10.24-15.872 13.875-9.933 5.427-22.733 9.472-37.734 12.391-14.95 2.867-32.051 4.454-50.279 4.454-27.75 0-52.889-3.687-71.936-10.035-9.523-3.175-17.561-7.014-23.91-11.981-3.174-2.509-5.939-5.325-8.038-8.755-2.099-3.379-3.482-7.527-3.482-11.879v-218.573c0-4.352 1.382-8.499 3.482-11.878 3.738-5.99 9.267-10.24 15.872-13.875 9.933-5.427 22.733-9.472 37.734-12.39 12.185-2.355 25.805-3.789 40.294-4.25v-54.375c-4.813 5.325-3.84 4.864-8.038 9.523-9.113 10.035-26.010 0-26.010 0l44.032-49.152 44.083 49.255c0 0-16.896 10.035-26.061 0-4.25-4.659-3.226-4.199-8.038-9.523v54.323c23.757 0.768 45.209 4.301 61.901 9.831 9.523 3.175 17.562 7.014 23.911 11.981 3.175 2.509 5.939 5.325 8.038 8.755 2.099 3.379 3.481 7.526 3.481 11.878v218.522c0.051 4.352-1.331 8.499-3.43 11.879zM342.887 132.659c0-0.154 0-0.358-0.461-1.178-0.768-1.382-3.533-4.096-8.295-6.656-7.065-3.891-18.227-7.629-31.744-10.24-10.803-2.048-23.193-3.43-36.403-3.891v52.889c-2.969-1.69-6.349-2.714-10.035-2.714-3.635 0-7.014 1.024-9.984 2.714v-52.889c-21.863 0.768-41.421 4.096-55.45 8.755-8.038 2.663-14.233 5.837-17.715 8.601-1.741 1.382-2.816 2.611-3.277 3.379-0.461 0.819-0.461 1.024-0.461 1.178v192.307c9.779-5.171 22.169-9.063 36.608-11.827 14.951-2.867 32.051-4.455 50.279-4.455 27.751 0 52.89 3.687 71.936 10.035 5.529 1.843 10.496 3.942 14.95 6.298v-192.307zM342.425 350.054c-0.768-1.382-3.533-4.096-8.295-6.656-7.065-3.891-18.227-7.68-31.744-10.24-13.517-2.611-29.44-4.096-46.439-4.096-25.907 0-49.305 3.584-65.434 8.96-8.038 2.662-14.233 5.837-17.715 8.601-1.741 1.382-2.816 2.611-3.277 3.379-0.461 0.819-0.461 1.024-0.461 1.178s0 0.359 0.461 1.178c0.768 1.382 3.533 4.096 8.294 6.656 7.065 3.891 18.227 7.629 31.744 10.24s29.44 4.096 46.439 4.096c25.907 0 49.305-3.584 65.433-8.96 8.038-2.663 14.233-5.837 17.715-8.602 1.741-1.382 2.816-2.611 3.277-3.379 0.461-0.819 0.461-1.024 0.461-1.178s0-0.41-0.461-1.178zM266.854 183.193c0-6.079-4.928-11.008-11.008-11.008s-11.008 4.928-11.008 11.008c0 6.079 4.928 11.008 11.008 11.008s11.008-4.928 11.008-11.008z" />
<glyph unicode="&#xe63d;" d="M256 397.466c-95.846 0-173.465-77.671-173.465-173.466 0-95.846 77.671-173.466 173.465-173.466 95.846 0 173.466 77.671 173.466 173.466 0 95.846-77.619 173.466-173.466 173.466zM360.55 119.45c-26.829-26.777-63.693-43.315-104.55-43.315s-77.773 16.538-104.55 43.315c-26.778 26.829-43.315 63.693-43.315 104.55s16.537 77.773 43.315 104.55c26.778 26.777 63.693 43.315 104.55 43.315s77.773-16.538 104.55-43.315c26.777-26.777 43.315-63.693 43.315-104.55s-16.486-77.773-43.315-104.55zM310.17 345.805c-1.28 0-3.175-1.331-5.427-4.096l-75.776-92.774c-4.71-5.786-9.472-15.872-11.469-23.911l-0.205-0.256 0.154-0.051c-0.256-0.973-0.461-1.946-0.563-2.816l-17.561-112.026c-0.768-4.864 0.051-7.424 1.997-7.424 1.382 0 3.277 1.28 5.53 3.993l71.68 84.941c5.427 6.451 11.111 18.534 12.544 26.88l20.787 120.269c0.819 4.762 0.103 7.27-1.69 7.27zM212.685 129.229l13.415 85.709c1.946-8.858 7.833-16.793 16.691-20.839 4.045-1.843 8.294-2.714 12.441-2.714s8.243 0.87 11.981 2.509l-54.528-64.666zM273.203 213.146c-3.123-6.81-9.625-10.906-16.589-11.366-0.461-0.051-0.87-0.103-1.331-0.103-0.051 0-0.154 0-0.205 0-1.126 0-2.253 0.154-3.379 0.358-0.205 0.051-0.41 0.051-0.614 0.051-1.331 0.307-2.714 0.717-3.994 1.331-2.611 1.178-4.813 2.918-6.554 4.915-0.051 0.051-0.051 0.103-0.102 0.154-0.819 0.973-1.587 1.997-2.202 3.123-0.051 0.051-0.051 0.103-0.102 0.154-0.614 1.075-1.126 2.253-1.485 3.43 0 0.051 0 0.051-0.051 0.103v0c-1.485 4.557-1.382 9.625 0.768 14.285 4.557 9.881 16.231 14.233 26.112 9.728 9.933-4.608 14.285-16.282 9.728-26.163z" />
</font>
</defs>
</svg>
