<?xml version="1.0" standalone="no"?>
<!DOCTYPE svg PUBLIC "-//W3C//DTD SVG 1.1//EN" "http://www.w3.org/Graphics/SVG/1.1/DTD/svg11.dtd" >
<svg xmlns="http://www.w3.org/2000/svg">
<metadata>
Created by FontForge 20120731 at Mon Sep  1 15:31:17 2014
 By Herbert Spencer
Created by Herbert Spencer with FontForge 2.0 (http://fontforge.sf.net)
</metadata>
<defs>
<font id="PiX" horiz-adv-x="512" >
  <font-face 
    font-family="PiX"
    font-weight="500"
    font-stretch="normal"
    units-per-em="512"
    panose-1="2 0 6 9 0 0 0 0 0 0"
    ascent="448"
    descent="-64"
    bbox="-2 -64 511 441"
    underline-thickness="25"
    underline-position="-52"
    unicode-range="U+002D-F180"
  />
<missing-glyph 
d="M17 0v341h136v-341h-136zM34 17h102v307h-102v-307z" />
    <glyph glyph-name="alert" unicode="alert" 
d="M0 448zM256 294q42 0 72 -30t30 -72t-30 -72t-72 -30t-72 30t-30 72t30 72t72 30zM274 118v35h-36v-35h36zM274 172v94h-36v-94h36z" />
    <glyph glyph-name="book" unicode="book" 
d="M0 448zM486 438q7 0 11.5 -4.5t4.5 -11.5v-430q0 -6 -4.5 -10.5t-11.5 -4.5h-174q-12 0 -22 -4t-16 -10.5t-10.5 -12.5t-5.5 -10l-2 -4q0 1 -0.5 2.5t-3 5.5t-5.5 8t-7.5 9t-10 8t-13.5 5.5t-16 2.5h-174q-7 0 -11.5 4.5t-4.5 10.5v226v30v174q0 7 4.5 11.5t11.5 4.5h174
q33 0 56 -24q23 24 56 24h174zM481 -3v420h-169q-18 0 -32.5 -10t-18.5 -20l-5 -11q-1 2 -2 5t-5.5 10t-10.5 12t-16 9.5t-22 4.5h-169v-420h169q33 0 56 -24q23 24 56 24h169z" />
    <glyph glyph-name="calendar" unicode="calendar" 
d="M0 448zM317 274h52v-195h-226v195h52v31h20v-31h82v31h20v-31zM348 100v107h-184v-107h184zM195 253h-31v-35h184v35h-31v-20h-20v20h-82v-20h-20v20z" />
    <glyph glyph-name="call" unicode="call" 
d="M0 448zM329.5 271q9.5 -9 12.5 -24t-13 -43q-15 -27 -36 -48q-21 -22 -49 -37q-28 -16 -43 -13t-24.5 12.5t-9 15.5t13 18.5t18 12.5t14.5 -10q3 -2 5.5 -4.5t4.5 -5t3 -2.5q3 -3 18 6t34 28q18 18 24 30t3 15q0 1 -12 13q-9 9 -9 15t12 18t18 12t15.5 -9z" />
    <glyph glyph-name="camera-video" unicode="camera&#x2d;video" 
d="M0 448zM290 145q0 -9 -6 -15.5t-16 -6.5h-109q-9 0 -15.5 6.5t-6.5 15.5v94q0 6 3 11t8 8t11 3h109q6 0 11 -3t8 -8t3 -11v-94zM319 238l36 15q8 3 14 -1t6 -13v-94q0 -9 -6 -13t-14 -1l-36 15q-5 2 -9.5 6.5t-7.5 11t-3 11.5v34q0 9 6 17.5t14 11.5z" />
    <glyph glyph-name="camera" unicode="camera" 
d="M0 448zM256 228q18 0 31 -13t13 -31t-13 -30.5t-31 -12.5q-12 0 -22 5.5t-16 16t-6 21.5q0 18 13 31t31 13zM369 261q6 0 10.5 -4.5t4.5 -10.5v-136q0 -6 -4.5 -10.5t-10.5 -4.5h-226q-6 0 -10.5 4.5t-4.5 10.5v136q0 6 4.5 10.5t10.5 4.5h41q7 0 11.5 4t4.5 10t4.5 10
t10.5 4h82q6 0 10.5 -4t4.5 -10t4.5 -10t11.5 -4h41zM256 120q26 0 45 19t19 45.5t-19 45t-45 18.5t-45 -18.5t-19 -45t19 -45.5t45 -19z" />
    <glyph glyph-name="checkbox" unicode="checkbox" 
d="M0 448zM328 243l-23 -31v-66q0 -6 -3.5 -11.5t-8.5 -8.5t-11 -3h-72q-6 0 -11.5 3t-8.5 8.5t-3 11.5v72q0 9 6.5 16t16.5 7h72q5 0 10 -3l9 11q6 8 14 3zM289 146v46l-25 -34q-5 -8 -14 -2l-43 33l9 12q6 8 15 2l22 -16l30 38h-1h-72q-3 0 -5.5 -2t-2.5 -5v-72
q0 -3 2.5 -5.5t5.5 -2.5h72q3 0 5 2.5t2 5.5z" />
    <glyph glyph-name="circle-dashed" unicode="circle&#x2d;dashed" 
d="M0 448zM45 279q-6 -14 -10 -28l-20 5q5 16 11 31zM28 192l-21 -1v1q0 16 2 32l20 -3q-1 -14 -1 -29zM30 162q2 -15 5 -29l-19 -6q-5 16 -7 32zM59 40l16 13q9 -12 20 -23l-15 -14q-12 12 -21 24zM26 96l19 8q6 -13 13 -26l-17 -11q-8 14 -15 29zM74 331q-9 -13 -16 -25
l-18 10q9 14 18 27zM225 418q-14 -2 -29 -6l-5 20q16 4 32 7zM486 288l-19 -8q-6 15 -14 27l18 10q8 -14 15 -29zM482 223q-2 15 -6 29l20 5q4 -15 7 -32zM105 -6l12 17q12 -9 25 -17l-10 -18q-14 8 -27 18zM168 403q-14 -6 -27 -14l-10 18q14 8 29 15zM117 373
q-12 -9 -23 -20l-14 15q11 11 24 21zM437 53q9 12 17 25l18 -10q-9 -14 -19 -27zM380 408q14 -8 27 -18l-13 -16q-12 9 -24 16zM395 11q12 9 23 20l14 -15q-11 -11 -24 -21zM431 369q12 -12 22 -25l-16 -12q-10 12 -20 22zM161 -38l8 19q14 -6 28 -10l-5 -19q-15 4 -31 10z
M505 193v-1q0 -16 -2 -32l-21 2q2 15 2 30v1h21zM467 105q6 13 10 28l19 -5q-4 -16 -10 -31zM256 -36v-21q-17 0 -32 2l2 21q16 -2 30 -2zM256 441q16 0 32 -2l-3 -20q-14 1 -29 1h-1v21h1zM320 433q15 -5 30 -11l-7 -19q-14 6 -29 10zM286 -34q15 2 29 5l6 -19
q-16 -5 -32 -7zM344 -19q13 6 26 13l11 -17q-14 -9 -30 -15z" />
    <glyph glyph-name="circle" unicode="circle" 
d="M0 448zM256 441q103 0 176 -73t73 -176t-73 -176t-176 -73t-176 73t-73 176t73 176t176 73zM417.5 30.5q66.5 66.5 66.5 161.5t-66.5 161.5t-161.5 66.5t-161.5 -66.5t-66.5 -161.5t66.5 -161.5t161.5 -66.5t161.5 66.5z" />
    <glyph glyph-name="click-center" unicode="click&#x2d;center" 
d="M0 448zM378 306h12l1 -104h-25v104h12v0z" />
    <glyph glyph-name="click-left" unicode="click&#x2d;left" 
d="M0 448zM290 229q4 23 9 37q2 7 5 12q2 4 4 5v0q10 11 29 17v0q9 3 19 4v-102h-70q2 15 4 27z" />
    <glyph glyph-name="click-right" unicode="click&#x2d;right" 
d="M0 448zM419 300v0q19 -6 29 -17v0q2 -1 4 -5q4 -9 8 -24q6 -21 10 -52h-70v102q10 -1 19 -4z" />
    <glyph glyph-name="click" unicode="click" 
d="M0 448zM243 255v19q0 4 3 7t7 3h6q4 0 7 -3t3 -7v-19q0 -4 -3 -7t-7 -3h-6q-4 0 -7 3t-3 7zM243 110v19q0 4 3 7t7 3h6q4 0 7 -3t3 -7v-19q0 -4 -3 -7t-7 -3h-6q-4 0 -7 3t-3 7zM221 231l-4 -4q-8 -7 -15 0l-13 14q-8 7 0 14l4 4q7 8 14 0l14 -13q7 -7 0 -15zM291 153
l4 4q8 7 15 0l13 -14q8 -7 0 -14l-4 -4q-7 -8 -14 0l-14 13q-7 7 0 15zM203 195v-6q0 -4 -3 -7t-7 -3h-19q-4 0 -7 3t-3 7v6q0 4 3 7t7 3h19q4 0 7 -3t3 -7zM319 205h19q4 0 7 -3t3 -7v-6q0 -4 -3 -7t-7 -3h-19q-4 0 -7 3t-3 7v6q0 3 1 5t3.5 3.5t5.5 1.5zM189 143l13 14
q7 7 15 0l4 -4q7 -8 0 -15l-14 -13q-7 -8 -14 0l-4 4q-7 7 0 14zM323 241l-13 -14q-7 -7 -15 0l-4 4q-7 8 0 15l14 13q7 8 14 0l4 -4q7 -7 0 -14z" />
    <glyph glyph-name="clock" unicode="clock" 
d="M0 448zM256 294q42 0 72 -30t30 -72t-30 -72t-72 -30t-72 30t-30 72t30 72t72 30zM256 110q34 0 58 24t24 58t-24 58t-58 24t-58 -24t-24 -58t24 -58t58 -24zM266 202h51v-20h-71v61h20v-41z" />
    <glyph glyph-name="cloud" unicode="cloud" 
d="M0 448zM450 104q17 -7 27.5 -23t10.5 -35q0 -25 -18 -43.5t-44 -19.5h-289q-8 -1 -13.5 -1t-13.5 1h-4q-35 6 -58.5 33.5t-23.5 64.5q0 54 46 84q-12 26 -12 55q0 33 15 61.5t41 46.5t58 22q15 24 39.5 38t53.5 14q20 0 37.5 -6.5t32 -18t23.5 -26.5h9q30 0 52 -21.5
t22 -51.5q0 -14 -5 -27q36 -33 36 -81q0 -37 -22 -66zM426 3q17 1 29 13.5t12 29.5q0 28 -25 40l-23 10l15 20q18 24 18 54q0 39 -30 66l-10 9l5 14q3 9 3 19q0 22 -15.5 37.5t-37.5 15.5q-2 0 -6 -1l-13 -1l-7 11q-26 42 -76 42q-49 0 -76 -43l-5 -8l-10 -1
q-41 -5 -68.5 -36.5t-27.5 -73.5q0 -24 11 -47l8 -16l-16 -10q-36 -23 -36 -66q0 -29 18 -51t47 -27h1h2q6 -1 10.5 -1t10.5 1h289h3z" />
    <glyph glyph-name="cog" unicode="cog" 
d="M0 448zM372 179l-26 -3l-4 -15l21 -16l-13 -22l-24 10l-11 -11l10 -24l-22 -13l-16 21l-15 -4l-3 -26h-13h-13l-3 26l-15 4l-16 -21l-22 13l10 24l-11 11l-24 -10l-13 22l21 16l-4 15l-26 3v13v13l26 3l4 15l-21 16l13 22l24 -10l11 11l-10 24l22 13l16 -21l15 4l3 26h13
h13l3 -26l15 -4l16 21l22 -13l-10 -24l11 -11l24 10l13 -22l-21 -16l4 -15l26 -3v-13v-13zM256 173q8 0 13.5 5.5t5.5 13.5t-5.5 13.5t-13.5 5.5t-13.5 -5.5t-5.5 -13.5t5.5 -13.5t13.5 -5.5z" />
    <glyph glyph-name="collapse" unicode="collapse" 
d="M0 448zM223 253q0 7 5 12t10 7l6 2l4 -73l-74 3q1 2 2 5.5t6.5 9.5t12.5 6q4 -1 14 -1l1 -1l-32 33l14 14l33 -32l-1 1q0 5 -0.5 8t-0.5 6zM321 155v1q-4 0 -14 1h-1l32 -33l-14 -14l-33 33v-1.5v-0.5q1 -4 1 -7.5t1 -6.5q0 -7 -5 -12t-11 -7l-5 -2l-4 74l74 -4
q-1 -2 -2.5 -5.5t-6.5 -9.5t-12 -6zM195 155q-4 0 -8 2t-6 5t-4 6.5t-2 5.5l-1 2l73 4l-3 -74q0 1 -1 1t-3 1l-4 2t-4.5 2.5t-4.5 3.5t-3 5t-1 6q1 4 1 14l1 1l-33 -32l-14 14l32 33h-1q-4 -1 -6 -1h-3.5t-4.5 -1zM321 225q7 0 12 -5t7 -10.5l2 -5.5l-74 -4l4 74
q2 -1 5.5 -2.5t9.5 -6.5t5 -12q0 -4 -1 -14v-1l33 32l14 -14l-33 -33q1 0 1.5 0.5l0.5 0.5h6t3.5 0.5t4.5 0.5z" />
    <glyph glyph-name="comment" unicode="comment" 
d="M0 448zM256 315q55 0 94 -30t39 -72.5t-39 -72.5t-94 -30h-2h-1q-15 -41 -99 -41q28 29 30 57q-28 14 -44.5 37t-16.5 49q0 43 39 73t94 30zM256 131q47 0 80 24t33 57.5t-33 57.5t-80 24t-80 -24t-33 -58q0 -43 50 -67l12 -6v-14q-2 -16 -9 -32q31 7 37 24l5 14h15h1h2z
" />
    <glyph glyph-name="comments" unicode="comments" 
d="M0 448zM366 114q2 -9 9.5 -20t18.5 -17h-17q-50 0 -64 24q-34 1 -58 20.5t-24 46.5q0 28 25 48t60 20q23 0 43 -9t31.5 -25t11.5 -34q0 -34 -36 -54zM346 109l-3 15l13 7q25 15 25 37q0 13 -9 23.5t-24 17t-32 6.5q-26 0 -45.5 -14t-19.5 -33q0 -12 8.5 -22.5t23 -17
t31.5 -7.5h12l6 -10q4 -9 18 -12q-3 6 -4 10zM236 123q7 -8 16 -14q-16 -40 -98 -40q28 29 30 57q-18 10 -32 23t-21.5 29.5t-7.5 33.5q0 43 39 73t94 30q52 0 89.5 -26.5t42.5 -65.5q-11 10 -25 16q-12 24 -41 39.5t-66 15.5q-31 0 -56.5 -11t-41 -29.5t-15.5 -41.5
q0 -43 50 -67l12 -6l-1 -14q-1 -16 -8 -32q31 7 37 24z" />
    <glyph glyph-name="compass" unicode="compass" 
d="M0 448zM291 271q2 0 1 -5l-13 -78q-2 -9 -8 -17l-47 -55q-2 -3 -3.5 -2t-1.5 4l12 73v1v1q2 9 7 15l49 60q3 3 4 3zM228 131l35 42q-4 -2 -8.5 -2t-8 2t-6 5.5t-3.5 7.5zM267 185v0q3 6 -0.5 11.5t-9.5 6.5q-7 1 -11.5 -4.5t-2.5 -12.5q1 -1 1 -2h1q0 -1 1 -2q3 -3 7 -4
h3q8 0 11 7zM256 305v0q41 0 73 -27t38 -68q6 -34 -9.5 -66.5t-46 -49.5t-66.5 -13.5t-62.5 26t-35.5 57.5t4 68q12 32 41 52.5t64 20.5zM256 100v0q22 0 41.5 9.5t32.5 27t17 38.5q6 33 -11 62.5t-48 40.5q-40 15 -77.5 -6.5t-45.5 -62.5q-7 -42 20.5 -75.5t70.5 -33.5z
" />
    <glyph glyph-name="contact" unicode="contact" 
d="M0 448zM256 305q47 0 80 -33t33 -80t-33 -80t-80 -33t-80 33t-33 80t33 80t80 33zM256 100q38 0 65 27l7 7q-5 12 -16 14l-10.5 3t-9.5 2.5t-8 3.5t-4.5 5t-2 6.5t2.5 7.5q20 43 11.5 65.5t-35.5 22.5t-35.5 -23t11.5 -65q3 -4 3 -7.5t-2.5 -6.5t-4.5 -5t-8 -3.5
t-9.5 -2.5l-10.5 -3q-11 -2 -16 -14l7 -7q27 -27 65 -27z" />
    <glyph glyph-name="cube" unicode="cube" 
d="M0 448zM256 301l92 -55v-108l-92 -55l-92 55v108l87 52zM256 204l62 37l-62 36l-62 -36zM184 223v-74l62 -36v73zM266 113l62 36v74l-62 -37v-73z" />
    <glyph glyph-name="cycle" unicode="cycle" 
d="M0 448zM340 214q7 8 22 0l-36 -40l-36 40q14 8 21 0q1 -1 8 -9q-8 37 -43 48q-10 3 -20 3q-34 0 -53 -28l-12 9q23 34 65 34q12 0 24 -3q22 -7 36 -23.5t18 -38.5q6 7 6 8zM256 128q34 0 53 28l12 -9q-23 -34 -65 -34q-12 0 -24 3q-16 6 -28 16.5t-19 24.5t-8 30
q-5 -6 -7 -8q-3 -4 -8.5 -4t-8.5 2l-4 2l36 40l36 -40q-14 -8 -22 0q-1 1 -7 8q2 -19 14 -34.5t30 -21.5q10 -3 20 -3z" />
    <glyph glyph-name="database" unicode="database" 
d="M0 448zM445 381v-384q1 -22 -49 -36q-33 -9 -81 -13q-47 -3 -96 -1q-51 2 -90 11q-23 5 -38 12q-24 11 -24 27v390q0 23 54 37q74 18 178 13q52 -3 89 -12q11 -3 18.5 -5t19 -7.5t16.5 -13.5t3 -18zM92 391v0q-3 -2 -5 -4v0q1 -2 3 -4q10 -8 36 -14q16 -4 37 -7
q42 -6 91 -6q51 0 94 6q24 3 42 8q28 8 34 16v1h1v0v0q-3 4 -14 9q-7 3 -18 6q-16 5 -38 8q-41 7 -89 7q-50 1 -95 -5q-25 -3 -43 -7q-25 -7 -36 -14zM420 -7v0q3 2 5 4h-1v364q-25 -13 -76 -20q-42 -6 -90 -6q-49 0 -91 6q-54 7 -80 20v-363v-1v0q3 -4 14 -9q7 -3 18 -6
q16 -5 38 -8q41 -7 89 -7q50 -1 95 5q25 3 43 7q25 7 36 14z" />
    <glyph glyph-name="desktop" unicode="desktop" 
d="M0 448zM471 438q13 0 22 -9t9 -22v-358q0 -13 -9 -22t-22 -9h-132v-62h30q4 0 7 -3t3 -7t-3 -7t-7 -3h-226q-4 0 -7 3t-3 7t3 7t7 3h30v62h-132q-13 0 -22 9t-9 22v358q0 13 9 22t22 9h430zM319 -44v62h-126v-62h126zM478 41q3 3 3 8v358q0 4 -3 7t-7 3h-430q-4 0 -7 -3
t-3 -7v-358q0 -5 3 -8t7 -3h430q4 0 7 3zM42 407h429v-328h-429v328z" />
    <glyph glyph-name="dialogue" unicode="dialogue" 
d="M0 448zM408 40zM497 -3h-109q-60 -41 -132 -41h-258l107 55l-1 1q-62 52 -79 131q-15 75 15 144q28 63 87 101.5t129 39.5v0q32 -1 63 -9.5t58.5 -25t49.5 -39.5q48 -51 60.5 -121.5t-15.5 -135.5q-17 -37 -46 -67zM377 29l-28 13l23 21q56 52 56 128q0 72 -50 123
t-120.5 51t-120.5 -51t-50 -123q0 -70 48 -120q48 -51 117 -53l163 -3zM256 -23q48 0 91 20h-96v1q-77 2 -130.5 58.5t-53.5 134.5q0 81 55.5 137.5t134.5 56.5t135 -56.5t56 -137.5q0 -85 -62 -143l20 -10l2 2l-1 -2l1 2q32 33 49 75q31 80 -3 160q-31 76 -106 112
q-78 36 -160 9q-78 -26 -119 -98q-42 -74 -22 -156q19 -78 83 -124l14 -10l-72 -34z" />
    <glyph glyph-name="down" unicode="down" 
d="M0 448zM306 155l-43 -49l-44 49q2 1 5 2t10.5 2t10.5 -4q2 -2 8 -10v95q5 -2 10 -2t10 2v-95q2 3 4 5.5t4 4.5q4 4 10 4t11 -2zM276 264.5q0 -5.5 -4 -9.5t-9.5 -4t-9 4t-3.5 9.5t3.5 9.5t9 4t9.5 -4t4 -9.5z" />
    <glyph glyph-name="email" unicode="email" 
d="M0 448zM466 422q8 0 14 -6t6 -14v-358q0 -6 -2.5 -10.5t-7.5 -7.5t-10 -3h-420q-8 0 -14 6t-6 15v358q0 8 6 14t14 6h420zM447 402h-382l191 -64zM46 44h420v348l-210 -70l-210 70v-348z" />
    <glyph glyph-name="envelope" unicode="envelope" 
d="M0 448zM353 294q7 0 11.5 -4.5t4.5 -10.5v-154q0 -7 -4.5 -11.5t-11.5 -4.5h-194q-7 0 -11.5 4.5t-4.5 11.5v154q0 6 4.5 10.5t11.5 4.5h194zM348 274h-184v-10l92 -63l92 63v10zM164 130h184v115l-92 -62l-92 62v-115z" />
    <glyph glyph-name="expand" unicode="expand" 
d="M0 448zM291 255q-5 0 -8.5 2t-6 5t-4 6t-1.5 5l-1 2l73 4l-3 -73q-1 0 -2.5 0.5t-5 2.5t-6.5 4t-5 5.5t-2 8.5q0 4 1 13v2l-28 -28l-14 14l28 28h-2q-4 0 -7 -0.5t-6 -0.5zM193 227q0 -7 -5 -12t-10 -7l-5 -2l-4 73l73 -3q-1 -3 -2 -6.5t-6.5 -9t-11.5 -5.5q-4 0 -14 1
h-2l28 -28l-14 -14l-28 28v-2q0 -4 0.5 -7t0.5 -6zM221 129q7 0 12 -5t7 -10t2 -6l-73 -3l3 73q3 -1 6.5 -2t9 -6.5t5.5 -12.5q0 -4 -1 -13v-2l28 28l14 -14l-28 -28h0.5h1.5q4 0 7 0.5t6 0.5zM291 129q4 0 13 -1h2l-28 28l14 14l28 -28v0.5v1.5q0 4 -0.5 7t-0.5 6
q0 5 2 8.5t5 6t6 4t5 1.5l2 1l4 -73l-73 3q1 3 2 6.5t6.5 9t12.5 5.5z" />
    <glyph glyph-name="face-intrigued" unicode="face&#x2d;intrigued" 
d="M0 448zM390 296q15 -10 18 -29l-10 -1q-2 14 -14 21q-10 7 -25 7q-16 1 -26 -7q-12 -8 -14 -23l-10 1q3 20 18 31q13 9 32 9q18 0 31 -9zM445 321q1 -3 3 -4l-15 -14q-3 2 -7.5 9.5t-7.5 11.5q-11 15 -26 21q-14 6 -34 6v0q-7 0 -13 -2q-5 -2 -9 -4q-6 -4 -14 -15
q-6 -9 -9 -13q-9 -10 -20 -14q-7 -3 -16 -4l-1 21q6 0 10 2q3 1 7 4t12 15q6 8 10 13q11 11 24 15q9 2 19 2v0q30 0 51 -12q16 -9 27 -25q1 -2 2.5 -4t2.5 -3.5t2 -3.5t2 -2zM374 271q0 -6 -4.5 -10t-10.5 -4t-10 4t-4 10t4 10.5t10 4.5t10.5 -4.5t4.5 -10.5zM221 130
q-4 7 -4 15h20q0 -2 1 -4t4 -4q5 -3 14 -3q6 0 11 2t7 5q1 2 1 4h20q0 -8 -4 -15q-3 -5 -9 -10q-11 -7 -26 -7q-11 0 -20 4q-10 5 -15 13zM154 300h-14h-13q-16 0 -25 -2q-12 -1 -19 -5q-5 -3 -9 -7l-15 13q6 7 14 12q8 4 17 6q14 3 37 3h13.5h13.5h82v-20h-82zM164 281
q3 -5 3 -10q0 -6 -4 -10.5t-10 -4.5q-2 0 -4 0.5t-3.5 1.5t-3 2.5t-2.5 3t-1.5 3.5t-0.5 4q0 5 4 9q-20 -3 -29 -17l-8 5q14 24 48 24q35 0 49 -25l-9 -5q-8 15 -29 19zM336 82q7 2 9 -5.5t-5 -9.5q-13 -3 -29 -3q-7 0 -20 1q-12 1 -15 1h-3h-3h-10q-21 0 -39 -4
q-25 -6 -42 -19q-6 -5 -11 1t1 11q20 15 49 22q19 5 42 5q6 0 10.5 -0.5t5.5 -0.5q4 0 16 -1t19 -1q14 0 25 3z" />
    <glyph glyph-name="face-laughing" unicode="face&#x2d;laughing" 
d="M0 448zM193 262q-11 19 -40 20q-28 -1 -40 -19l-8 5q14 24 48 24q35 0 49 -25zM359 292q34 0 48 -24l-8 -5q-12 19 -40 19q-29 0 -40 -20l-9 5q14 25 49 25zM223 137q3 5 9 9q10 7 24 7q10 0 19 -4t14 -12q4 -6 4 -14h-16q0 3 -1 5.5t-4 4.5q-6 4 -16 4q-7 0 -12.5 -2
t-7.5 -6q-1 -3 -1 -6h-16q0 8 4 14zM153 316q-52 0 -79 -30l-15 13q33 38 94 38h11q26 0 38 2q16 4 26 14l15 -15q-15 -14 -37 -19q-14 -3 -42 -3h-11zM359 337q61 0 94 -38l-15 -13q-27 30 -79 30h-11q-28 0 -42 3q-22 5 -37 19l15 15q10 -10 26 -14q12 -2 38 -2h11v0z
M353 84q7 -4 4 -17.5t-14 -28t-27.5 -26.5t-28.5 -15q-31 -5 -62 0q-8 2 -18.5 8t-20.5 15t-17 18q-11 15 -14 28.5t4 17.5q15 11 56 5.5t82 0t56 -5.5z" />
    <glyph glyph-name="face-sad" unicode="face&#x2d;sad" 
d="M0 448zM153 316v0q-52 0 -79 -30l-15 13q33 38 94 38h11q26 0 38 2q16 4 26 14l15 -15q-15 -14 -37 -19q-14 -3 -42 -3h-11v0zM167 273q1 -6 -2.5 -10.5t-9.5 -5.5t-11 2.5t-5 9.5q-1 5 2 10q-20 -7 -26 -22l-9 4q10 25 44 31h11q27 0 41 -17l-8 -7q-10 14 -32 14
q4 -3 5 -9zM362 291q34 -5 44 -30l-9 -4q-7 15 -26 22q3 -5 2 -10q0 -3 -1.5 -5.5t-4 -4t-5 -2.5t-5.5 0q-6 0 -9.5 5t-2.5 11q0 5 5 9q-22 0 -32 -14l-8 7q14 17 41 17q5 0 11 -1zM359 337q61 0 94 -38l-15 -13q-27 30 -79 30h-11q-28 0 -42 3q-22 5 -37 19l15 15
q10 -10 26 -14q12 -2 38 -2h11v0v0v0zM236.5 139.5q1.5 -2.5 3.5 -4.5q7 -4 16 -4q7 0 12.5 2.5t7.5 5.5q1 3 1 6h16q0 -7 -4 -13q-3 -6 -9 -10q-10 -6 -24 -6q-10 0 -19 3q-9 5 -14 13q-4 6 -4 13h16q0 -3 1.5 -5.5zM342 55q7 -4 2.5 -10.5t-10.5 -2.5q-10 6 -13 8
q-7 4 -14 6q-17 5 -51 5q-27 0 -42 -2q-13 -3 -23 -8q-4 -3 -13 -9q-6 -4 -10.5 2t2.5 11q8 6 14 9q8 5 16 7q19 6 56 6q28 0 45 -4q15 -3 27 -9q4 -2 14 -9z" />
    <glyph glyph-name="face-smiling" unicode="face&#x2d;smiling" 
d="M0 448zM223 137q3 5 9 9q10 7 24 7q10 0 19 -4t14 -12q4 -6 4 -14h-16q0 3 -1 5.5t-4 4.5q-6 4 -16 4q-7 0 -12.5 -2t-7.5 -6q-1 -3 -1 -6h-16q0 8 4 14zM153 316q-52 0 -79 -30l-15 13q33 38 94 38h11q26 0 38 2q16 4 26 14l15 -15q-15 -14 -37 -19q-14 -3 -42 -3h-11z
M359 337q61 0 94 -38l-15 -13q-27 30 -79 30h-11q-28 0 -42 3q-22 5 -37 19l15 15q10 -10 26 -14q12 -2 38 -2h11v0zM334 76q6 4 10.5 -2.5t-2.5 -10.5q-17 -11 -35 -16q-21 -6 -51 -6t-51 5q-19 6 -35 17q-7 4 -2.5 10.5t11.5 1.5q13 -9 30 -14q19 -5 47 -5t47 6
q16 4 31 14zM164 281q3 -5 3 -10q0 -6 -4 -10.5t-10 -4.5q-2 0 -4 0.5t-3.5 1.5t-3 2.5t-2.5 3t-1.5 3.5t-0.5 4q0 5 4 9q-20 -3 -29 -17l-8 5q14 24 48 24v0q35 0 49 -25l-9 -5q-8 15 -29 19zM359 292q34 0 48 -24l-8 -5q-9 14 -29 18q4 -5 4 -10q0 -6 -4.5 -10t-10.5 -4
q-2 0 -4.5 0.5t-4 2l-3 3t-2 4t-0.5 4.5q0 6 3 10q-21 -4 -29 -19l-9 5q14 25 49 25v0v0z" />
    <glyph glyph-name="face-surprised" unicode="face&#x2d;surprised" 
d="M0 448zM154 312q17 0 30 -13q13 -12 19 -33l-10 -3q-5 18 -15.5 28.5t-24.5 10.5v0q-13 0 -23 -10t-16 -27l-10 3q7 20 19 32q13 12 30 12h1zM244 305l-17 -11q-13 20 -32 31q-19 12 -42 12v0q-25 0 -45 -14q-20 -12 -33 -36l-18 10q16 28 40 44q25 16 56 16v0
q29 0 53 -14q22 -14 38 -38zM167 271q0 -6 -4 -10t-10 -4t-10.5 4t-4.5 10t4.5 10.5t10.5 4.5t10 -4.5t4 -10.5zM359 312q17 0 30 -12t19 -32l-10 -3q-5 17 -15.5 27t-23.5 10t-24 -10.5t-16 -28.5l-10 3q6 21 19 33q13 13 31 13v0v0zM415 341q24 -16 40 -44l-18 -10
q-13 24 -33 36q-20 14 -45 14v0q-23 0 -42 -12q-19 -11 -32 -31l-17 11q16 24 38 38q24 14 53 14v0v0q31 0 56 -16zM374 271q0 -6 -4.5 -10t-10.5 -4t-10 4t-4 10t4 10.5t10 4.5t10.5 -4.5t4.5 -10.5zM276 139q1 3 1 6h16q0 -7 -4 -13q-3 -6 -9 -10q-10 -6 -24 -6
q-10 0 -19 3q-9 5 -14 13q-4 6 -4 13h16q0 -3 1 -5.5t4 -4.5q6 -4 16 -4q7 0 12.5 2.5t7.5 5.5zM276 54q0 -9 -6 -15t-14 -6q-6 0 -10.5 3t-7 7.5t-2.5 10t2.5 10.5t7 7.5t10.5 2.5t10.5 -2.5t7 -7.5t2.5 -10z" />
    <glyph glyph-name="face-upset" unicode="face&#x2d;upset" 
d="M0 448zM153 316h-14q-22 0 -36 -4q-16 -4 -30 -15l-13 16q18 14 37 19q17 5 42 5h14q23 -1 44 -13q9 -5 29 -21q9 -7 14 -10l-9 -18q-6 3 -26 19q-16 12 -28 17t-24 5zM166 277q1 -3 1 -7q0 -6 -4.5 -10t-10.5 -3.5t-10 5t-4 10.5q0 3 2 6q-19 -3 -27 -14l-8 6
q14 19 45 19h4q35 -1 48 -24l-9 -5q-7 13 -27 17zM361 289q32 0 46 -19l-8 -6q-8 11 -27 14l2 -6q0 -6 -4 -10.5t-10 -4.5q-2 -1 -4 -0.5t-3.5 1.5t-3 2.5t-2.5 3t-1.5 3t-0.5 3.5q-1 4 1 7q-20 -4 -27 -17l-9 5q13 23 48 24h3zM415 332q19 -5 37 -19l-13 -16q-14 11 -30 15
q-14 4 -36 4h-14q-17 0 -34 -10q-8 -4 -26 -19q-11 -9 -18 -12l-9 18q4 3 22 17q19 14 34 20t31 7h14q25 0 42 -5zM236.5 139.5q1.5 -2.5 3.5 -4.5q7 -4 16 -4q7 0 12.5 2.5t7.5 5.5q1 3 1 6h16q0 -7 -4 -13q-3 -6 -9 -10q-10 -6 -24 -6q-10 0 -19 3q-9 5 -14 13q-4 6 -4 13
h16q0 -3 1.5 -5.5zM342 40q7 -4 2.5 -10.5t-10.5 -2.5q-5 3 -13 9.5t-9 7.5q-12 10 -26 14q-13 3 -30 3q-25 0 -41 -7q-10 -4 -22 -15q-11 -10 -14 -12q-7 -4 -11.5 2t2.5 11q3 2 10 8t10 8q14 12 32 17q15 4 34 4q28 0 47 -9q11 -5 26 -18q9 -8 13 -10z" />
    <glyph glyph-name="face" unicode="face" 
d="M0 448zM153 316v0q-52 0 -79 -30l-15 13q33 38 94 38v0q56 -1 90 -33l-15 -15q-27 27 -75 27zM164 281q3 -5 3 -10q0 -6 -4 -10.5t-10 -4.5q-2 0 -4 0.5t-3.5 1.5t-3 2.5t-2.5 3t-1.5 3.5t-0.5 4q0 5 4 9q-20 -3 -29 -17l-8 5q14 24 48 24v0q35 0 49 -25l-9 -5
q-8 15 -29 19zM359 292q34 0 48 -24l-8 -5q-9 14 -29 18q4 -5 4 -10q0 -6 -4.5 -10t-10.5 -4q-2 0 -4.5 0.5t-4 2l-3 3t-2 4t-0.5 4.5q0 5 3 10q-21 -4 -29 -19l-9 5q14 25 49 25v0zM359 337q61 0 94 -38l-15 -13q-27 30 -79 30q-48 0 -75 -27l-15 15q34 33 90 33v0v0z
M236.5 139.5q1.5 -2.5 3.5 -4.5q7 -4 16 -4q7 0 12.5 2.5t7.5 5.5q1 3 1 6h16q0 -7 -4 -13q-3 -6 -9 -10q-10 -6 -24 -6q-10 0 -19 3q-9 5 -14 13q-4 6 -4 13h16q0 -3 1.5 -5.5zM338 65q8 0 8 -7.5t-8 -7.5t-16 1.5t-12.5 3.5t-10.5 4.5t-8 3.5q-5 2 -8 2q-1 0 -3 -1
q-1 -1 -6 -3q-11 -5 -18 -5q-6 0 -14 3q-2 1 -5.5 2.5t-4.5 2.5l-3 1q-3 0 -8 -2q-1 -1 -3 -1.5t-4.5 -1.5t-3.5 -2q-19 -8 -36 -8q-8 0 -8 7.5t8 7.5q7 0 13 1.5t10 3t10 4t9 3.5q7 3 13 3q3 0 8 -2q2 0 7 -3q8 -3 12 -3q3 0 9 2q1 0 4.5 1.5t5.5 2.5q5 2 8 2q6 0 13 -3
l12 -5q16 -7 30 -7z" />
    <glyph glyph-name="fast-forward" unicode="fast&#x2d;forward" 
d="M0 448zM338 269q8 0 14 -6t6 -15v-112q0 -9 -6 -15t-14 -6h-164q-8 0 -14 6t-6 15v112q0 6 2.5 10.5t7.5 7.5t10 3h164zM329 186q9 6 0 12l-62 40q-4 2 -6.5 0.5t-2.5 -5.5v-31l-55 36q-3 2 -5.5 0.5t-2.5 -5.5v-82q0 -4 2.5 -5.5t5.5 0.5l55 36v-31q0 -4 2.5 -5.5
t6.5 0.5z" />
    <glyph glyph-name="feed" unicode="feed" 
d="M0 448zM228 129q0 -10 -7 -17t-17 -7t-17.5 7t-7.5 17t7.5 17.5t17.5 7.5t17 -7.5t7 -17.5zM247 172.5q18 -17.5 18 -43.5v-16h-25v16q0 16 -10.5 26.5t-25.5 10.5h-17v24h17q25 0 43 -17.5zM204 227q40 0 68.5 -28.5t28.5 -69.5v-16h-24v16q0 31 -21.5 52.5t-51.5 21.5
h-17v24h17zM338 129v-16h-25v16q0 46 -32 78t-77 32h-17v25h17q55 0 94.5 -39.5t39.5 -95.5z" />
    <glyph glyph-name="file" unicode="file" 
d="M0 448zM236 300h97v-205h-154v147zM243 277l-42 -41h42v41zM312 115v164h-53v-59h-59v-105h112z" />
    <glyph glyph-name="filter" unicode="filter" 
d="M0 448zM142 297h228v-19l-95 -76v-77l-38 -38v115l-95 76v19z" />
    <glyph glyph-name="gallery" unicode="gallery" 
d="M0 448zM128 293h71v-51h-71v51zM128 218h71v-52h-71v52zM128 142h71v-51h-71v51zM220 293h72v-51h-72v51zM220 218h72v-52h-72v52zM220 142h72v-51h-72v51zM313 293h71v-51h-71v51zM313 218h71v-52h-71v52zM313 142h71v-51h-71v51z" />
    <glyph glyph-name="game" unicode="game" 
d="M0 448zM466 187q10 0 18 -7.5t8 -18.5v-174q0 -10 -8 -17.5t-18 -7.5h-420q-5 0 -10 2t-8 5.5t-5.5 8t-2.5 9.5v174q0 11 8 18.5t18 7.5h420zM476 -13v174q0 4 -3 7.5t-7 3.5h-420q-4 0 -7 -3.5t-3 -7.5v-174q0 -4 3 -7t7 -3h420q4 0 7 3t3 7zM164 146v-51h51v-41h-51
v-51h-41v51h-51v41h51v51h41zM368.5 97q-11.5 0 -20 8.5t-8.5 20t8.5 20t20 8.5t20 -8.5t8.5 -20t-8.5 -20t-20 -8.5zM368.5 138q-5.5 0 -9 -3.5t-3.5 -9t3.5 -9t9 -3.5t9 3.5t3.5 9t-3.5 9t-9 3.5zM317.5 102q11.5 0 20 -8t8.5 -19.5t-8.5 -20t-20 -8.5t-20 8.5t-8.5 20
t8.5 19.5t20 8zM317 61q4 0 7 2t4.5 5t1.5 6q0 6 -3.5 9.5t-9.5 3.5q-2 0 -4.5 -1t-4 -2.5t-2.5 -4t-1 -5.5q0 -5 3.5 -9t8.5 -4zM368.5 51q11.5 0 20 -8t8.5 -20t-8.5 -20t-20 -8t-20 8t-8.5 20t8.5 20t20 8zM368.5 10q5.5 0 9 4t3.5 9t-3.5 9t-9 4t-9 -4t-3.5 -9t3.5 -9
t9 -4zM420 102q12 0 20 -8t8 -19.5t-8 -20t-20 -8.5t-20 8.5t-8 20t8 19.5t20 8zM420 61q5 0 9 4t4 9q0 3 -1 5.5t-3 4t-4.5 2.5t-4.5 1q-5 0 -9 -3.5t-4 -9t4 -9.5t9 -4z" />
    <glyph glyph-name="gear" unicode="gear" 
d="M0 448zM493 181q4 -1 6 -3.5t2 -7t-0.5 -7t-1.5 -8t-1 -6t-1 -6.5t-1.5 -8t-2 -6.5t-4 -6t-6.5 -1.5l-14 1q-2 -7 -5 -14l11 -8q3 -2 4 -5t-0.5 -7t-2.5 -6.5t-4 -7.5l-3 -5l-3 -5.5t-4 -7t-4.5 -6t-5.5 -3.5t-7 1l-13 6q-4 -7 -9 -12l8 -11q4 -7 -3 -15q-7 -6 -15 -13
l-4 -4t-6 -5l-6 -3t-7 -1.5t-6 2.5l-9 10q-6 -4 -13 -8l3 -13q1 -4 0 -7t-5 -5t-6.5 -3t-8 -3l-5.5 -2l-5.5 -2t-8 -3t-7 -1.5t-7 1t-4.5 4.5l-6 13q-6 -2 -14 -3l-2 -14q0 -3 -2 -5.5t-6.5 -3.5t-7 -1h-8.5h-6h-6h-8.5t-7 1t-6.5 3.5t-2 5.5l-2 14q-7 1 -14 3l-6 -13
l-3.5 -3.5t-4 -1.5h-5t-5.5 1t-5 1.5t-5 2t-4 1.5t-6.5 2t-7.5 3t-6 3.5t-5 5t0 6.5l3 13q-6 4 -13 8l-10 -10q-6 -6 -14 0q-9 6 -16 12q-1 1 -4 3.5t-4.5 4t-4 4.5t-3.5 5t-1 4.5t1 5.5l8 11l-10 12l-12 -6q-3 -2 -6 -0.5t-4.5 2t-4 4t-3.5 5.5t-3 5.5t-3 4.5l-3 5t-4 7.5
t-2.5 6.5t-0.5 7t4 5l11 8q-3 7 -5 14l-14 -1q-4 0 -6.5 2t-4 6t-2 6.5t-1.5 8t-1 6t-1.5 6t-1.5 8v7t2 7t6 3.5l13 4q-1 7 0 15l-13 3q-3 1 -5 3.5t-2.5 4.5t-0.5 6t0.5 6.5t1.5 6.5t1 5l1 6t1.5 8t2 6.5t4 6t6.5 1.5l14 -1q2 7 5 14l-11 8q-3 2 -4 5t0.5 7t2.5 6.5t4 7.5
l3 5l3 5.5t4 7t4.5 6t5.5 3.5t7 -1l12 -6q5 7 10 12l-8 11q-5 7 3 15q7 6 15 13q0 1 3 3.5t5 4t5 3.5t5.5 2.5t5 0t5.5 -2.5l9 -10q6 4 13 8l-3 13q-1 4 0 7t5 5l6 3t8 3l6 2l5.5 2t8 3t7 1.5t7 -1t4.5 -4.5l6 -13q6 2 14 3l2 14q0 3 2 5.5t6.5 3.5t7 1h8.5h6h6h8.5t7 -1
t6.5 -3.5t2 -5.5l2 -14q7 -1 14 -3l6 13q2 3 4.5 4.5t7 1t7 -1.5t8 -3l5.5 -2l5.5 -2t8 -3t6.5 -3t5 -5t0 -7l-3 -13q6 -4 13 -8l9 10q7 6 15 0l16 -12q0 -1 3.5 -3.5t5 -4l4 -4t3.5 -5t1 -5t-1 -5.5l-8 -11q5 -5 9 -12l13 6q2 1 4 0.5t4 -0.5t3.5 -2t3 -3.5t3 -4t2.5 -4
t2 -4t2 -3.5l3 -5t4 -7.5t2.5 -6.5t0.5 -7t-4 -5l-11 -8q3 -7 5 -14l14 1q4 0 6.5 -1.5t4 -6t2 -7t1.5 -8t1 -6t1 -6t1.5 -8t0.5 -7t-2 -7t-6 -3.5l-13 -4v-14zM383 22l9 -9q9 7 17 13l-8 11q-3 3 -1 7.5t3 6.5t5 6l5 5l3.5 5t5 6t5.5 3.5t6 -0.5l12 -6q6 10 11 19l-11 7
q-3 3 -3.5 6.5t0.5 6.5t3 8t3 6q0 1 1.5 6t2.5 7.5t4 5t7 1.5l13 -1q2 11 3 21l-12 4q-4 1 -6 4.5t-2 6t0.5 8t0.5 6.5t-0.5 6.5t-0.5 8t2 6t6 4.5l12 4q-1 10 -3 21l-13 -1q-3 -1 -5.5 0.5t-3.5 3t-2 4t-2 4.5t-1.5 5t-1.5 5q0 1 -2.5 5.5t-3 7t0 6t3.5 5.5l11 8
q-5 9 -11 19l-12 -6q-2 -3 -6.5 -0.5t-6 4t-5 6.5t-4.5 6l-4 4.5t-4.5 5.5t-2.5 6t1 6l8 11q-8 8 -17 14l-9 -9q-3 -3 -7 -2.5t-6.5 1.5t-7 4t-5.5 4t-5.5 3t-7 3.5t-4 4.5t-0.5 7l3 13q-9 4 -20 7l-6 -12q-2 -3 -5.5 -4.5t-6.5 -1t-8 2t-7 1.5q-1 0 -6 0.5t-7.5 1.5t-5.5 3
t-3 6l-1 13q-11 1 -22 0l-1 -13q0 -3 -2 -5t-4.5 -3t-5 -1.5t-6 -1t-5 -0.5t-7 -1.5t-8 -2t-6.5 1t-5 4.5l-6 12q-11 -3 -20 -7l3 -13q1 -4 -1 -7t-4.5 -4.5t-7.5 -4t-6 -3.5q-1 0 -5.5 -3t-6.5 -4t-5.5 -1.5t-6.5 2.5l-9 9q-9 -7 -17 -14l8 -10q3 -3 1 -7.5t-3 -6.5t-5 -6
l-5 -5q0 -1 -3.5 -5.5t-5 -5.5t-5.5 -3.5t-6 0.5l-12 6q-6 -10 -11 -19l11 -7q2 -2 3 -5t0.5 -6t-1.5 -5.5t-2.5 -6t-2.5 -4.5q0 -1 -1.5 -6t-2.5 -7.5t-4 -5t-7 -1.5l-13 1q-2 -11 -3 -21l12 -4q3 -1 5 -3t2.5 -5t0.5 -5.5t-0.5 -6t-0.5 -5.5q0 -1 0.5 -6.5t0.5 -8t-2 -6
t-6 -4.5l-12 -4q1 -10 3 -21l13 1q4 1 7 -2t4 -5.5t2.5 -7.5t2.5 -7q0 -1 2.5 -5.5t3 -7t0 -6t-3.5 -6.5l-11 -7q5 -9 11 -19l12 6q2 3 6.5 0l6 -4t5 -6t4.5 -6l4 -4.5t4.5 -5.5t2.5 -6t-1 -7l-8 -10q8 -8 17 -14l9 9q3 3 7 2.5t6.5 -1.5t7 -4t5.5 -4t5.5 -3t7 -3.5t4 -4.5
t0.5 -7l-3 -13q9 -4 20 -7l6 12q2 3 5.5 4.5t6.5 1t8 -2t6.5 -1.5t5 -0.5t6 -1t5.5 -1.5t4.5 -3t1.5 -5l1 -13q11 -1 22 0l1 13q0 3 2 5t4.5 3t5 1.5t6 1t5 0.5t7 1.5t8 2t6 -1t5.5 -4.5l6 -12q11 3 20 7l-3 13q-1 4 1 7t4.5 4.5t7.5 4t6 3.5q1 0 5.5 3t6.5 4.5t5.5 1.5
t6.5 -3z" />
    <glyph glyph-name="grid-center" unicode="grid&#x2d;center" 
d="M0 448zM353 305q7 0 11.5 -4.5t4.5 -11.5v-194q0 -7 -4.5 -11.5t-11.5 -4.5h-194q-7 0 -11.5 4.5t-4.5 11.5v194q0 7 4.5 11.5t11.5 4.5h194zM348 100v184h-184v-184h184zM246 161v21h-21v20h21v21h20v-21h21v-20h-21v-21h-20z" />
    <glyph glyph-name="grid-horizontal" unicode="grid&#x2d;hori&#x7a;ontal" 
d="M0 448zM486 438q7 0 11.5 -4.5t4.5 -11.5v-194q0 -6 -4.5 -11t-11.5 -5h-460q-5 0 -8.5 2.5t-5.5 6t-2 7.5v194q0 7 4.5 11.5t11.5 4.5h460zM481 233v184h-450v-184h450zM486 192q7 0 11.5 -4.5t4.5 -10.5v-215q0 -7 -4.5 -11.5t-11.5 -4.5h-460q-7 0 -11.5 4.5
t-4.5 11.5v215q0 6 4.5 10.5t11.5 4.5h460zM481 -33v205h-450v-205h450z" />
    <glyph glyph-name="grid-ul" unicode="grid&#x2d;ul" 
d="M0 448zM486 438q7 0 11.5 -4.5t4.5 -11.5v-460q0 -7 -4.5 -11.5t-11.5 -4.5h-460q-7 0 -11.5 4.5t-4.5 11.5v215q0 6 4.5 10.5t11.5 4.5h215q6 0 10.5 4.5t4.5 10.5v215q0 7 4.5 11.5t10.5 4.5h215zM481 -33v450h-205v-210q0 -14 -10.5 -24.5t-24.5 -10.5h-210v-205h450z
" />
    <glyph glyph-name="grid" unicode="grid" 
d="M0 448zM133 356v-21h21v-20h-21v-21h-20v21h-21v20h21v21h20zM379 294v21h-21v20h21v21h20v-21h21v-20h-21v-21h-20zM133 90v-21h21v-20h-21v-21h-20v21h-21v20h21v21h20zM379 28v21h-21v20h21v21h20v-21h21v-20h-21v-21h-20zM384 212q-6 0 -10.5 -4.5t-4.5 -10.5v-10
q0 -6 4.5 -10.5t10.5 -4.5h102q5 0 8.5 -2.5t5.5 -6t2 -7.5v-194q0 -7 -4.5 -11.5t-11.5 -4.5h-194q-6 0 -11 4.5t-5 11.5v102q0 6 -4.5 10.5t-10.5 4.5h-10q-6 0 -10.5 -4.5t-4.5 -10.5v-102q0 -5 -2.5 -8.5t-6 -5.5t-7.5 -2h-194q-7 0 -11.5 4.5t-4.5 11.5v194q0 6 4.5 11
t11.5 5h102q6 0 10.5 4.5t4.5 10.5v10q0 6 -4.5 10.5t-10.5 4.5h-102q-5 0 -8.5 2.5t-5.5 6t-2 7.5v194q0 7 4.5 11.5t11.5 4.5h194q6 0 11 -4.5t5 -11.5v-102q0 -6 4.5 -10.5t10.5 -4.5h10q6 0 10.5 4.5t4.5 10.5v102q0 7 5 11.5t11 4.5h194q7 0 11.5 -4.5t4.5 -11.5v-194
q0 -6 -4.5 -11t-11.5 -5h-102zM384 151q-15 0 -25.5 10.5t-10.5 25.5v10q0 15 10.5 25.5t25.5 10.5h97v184h-184v-97q0 -15 -10.5 -25.5t-25.5 -10.5h-10q-15 0 -25.5 10.5t-10.5 25.5v97h-184v-184h97q15 0 25.5 -10.5t10.5 -25.5v-10q0 -15 -10.5 -25.5t-25.5 -10.5h-97
v-184h184v97q0 15 10.5 25.5t25.5 10.5h10q15 0 25.5 -10.5t10.5 -25.5v-97h184v184h-97z" />
    <glyph glyph-name="hand" unicode="hand" 
d="M0 448zM502 270v0q5 -12 0 -29q-5 -12 -13 -36q-8 -23 -12 -36q-1 -1 -2.5 -6t-1.5 -7q-2 -4 -2 -14q-3 -25 -11 -80q-8 -45 -13 -71q-6 -31 -27 -37q-6 -2 -26 -2h-67h-65h-29q-5 0 -9 5q-6 7 -19 23t-19 23q-18 22 -50.5 62.5t-44.5 54.5l2 15q34 25 61 17q8 -2 27 -21
l23 -23q18 -19 31 -13q8 4 8 22v28q0 6 -6 26q-39 128 -46 150q-4 14 4 26.5t22 16.5q14 3 26 -3t16.5 -19t31.5 -96q-6 101 -8 124q-1 16 5 25q8 12 25 15q16 4 28.5 -5t14.5 -25q1 -15 6 -107l12 82q2 16 14 24q18 13 37 0q18 -12 17 -33q0 -1 -3 -27q-4 -35 -9 -75
q10 27 14 33q11 14 30.5 12t27.5 -19zM471 152zM467 205v0q10 29 16 46q4 10 -4.5 16t-16.5 -1q-3 -3 -6 -11q-2 -5 -4 -11.5t-4.5 -13t-4.5 -10.5q-11 -32 -24 -70l-20 5q2 17 4.5 37t4.5 36.5t4.5 36.5t4.5 37q0 5 1.5 16.5t2.5 17.5q2 19 -5 25q-8 5 -14.5 2t-7.5 -11
q0 -2 -1 -5q0 -5 -1.5 -15.5t-2.5 -15.5q-3 -21 -7 -48.5t-8 -54.5t-7 -48l-20 1q-1 3 -1 7v9v7q-1 20 -2 35q-2 41 -4 78q-2 40 -3 63q-1 1 -1 4.5v5t-0.5 4.5t-1.5 4.5t-2.5 3.5t-4.5 3t-7.5 0.5t-8.5 -2t-6 -5t-2 -8.5q1 -7 4 -55q2 -25 4 -64q1 -20 3 -61q1 -23 1 -25
l-20 -3q0 2 -3 9q-1 3 -1 4q-7 21 -11 32q-5 17 -27 84q-8 25 -12 36q-3 9 -7 11q-10 5 -19 -3q-3 -2 -4 -5t-0.5 -6.5t1 -6t2 -7t2.5 -5.5q5 -16 14.5 -47t13.5 -47q11 -36 19 -60v-8v-21q0 -28 -3 -35q-9 -19 -31 -19t-35 16l-35 35q-11 11 -21 9q-11 -2 -24 -9l123 -151
h157h13q10 0 14 5t6 17q4 19 11 61q8 49 11 78q3 24 4 29z" />
    <glyph glyph-name="hang-up" unicode="hang&#x2d;up" 
d="M0 448zM238 167l45 79l14 -9l-45 -79zM355 191v-1q9 -12 9 -25.5t-4.5 -17.5t-22 -4t-21.5 4.5t-4 17.5v17q0 4 -17 8q-4 1 -9 2l13 24q10 -2 17 -4q30 -8 39 -21zM255 221l-15 -27q-19 -1 -27 -3q-13 -5 -13 -9v-17q0 -13 -4.5 -17.5t-21.5 -4.5t-21.5 4.5t-4.5 17.5
t8.5 25.5t38.5 21.5q29 8 60 9z" />
    <glyph glyph-name="interaction" unicode="interaction" 
d="M0 448zM256 417q93 0 159 -66t66 -159t-66 -159t-159 -66t-159 66t-66 159t66 159t159 66zM256 397q-85 0 -145 -60t-60 -145v-3v-2l37 24l35 -22v3q0 55 39 94t94 39q52 0 90 -35t43 -85l36 -24l35 24q-5 80 -64 136t-140 56zM369 192q0 47 -33 80t-80 33t-80 -33
t-33 -80t33 -80t80 -33t80 33t33 80zM256 -13q83 0 143 58.5t62 141.5l-37 -25l-35 23q-3 -53 -41.5 -89.5t-91.5 -36.5q-49 0 -85.5 31t-45.5 78l-38 25l-35 -24q9 -77 67 -129.5t137 -52.5z" />
    <glyph glyph-name="keyboard-arrows" unicode="keyboard&#x2d;arrows" 
d="M0 448zM204 168v-30q0 -4 -2.5 -5.5t-6.5 0.5l-32 16q-9 4 0 9l32 16q4 2 6.5 0.5t2.5 -6.5zM241 179h30q4 0 6 -3t0 -7l-16 -32q-5 -9 -10 0l-16 32q-2 4 0 7t6 3zM308 138v30q0 4 2.5 6t6.5 0l32 -16q9 -5 0 -9l-32 -16q-4 -2 -6.5 -0.5t-2.5 5.5zM271 205h-30
q-4 0 -6 3t0 7l16 32q5 9 10 0l16 -32q2 -4 0 -7t-6 -3z" />
    <glyph glyph-name="keyboard-enter" unicode="keyboard&#x2d;enter" 
d="M0 448zM236 239q0 -4 -3 -7.5t-8 -3.5t-8.5 3.5t-3.5 8t3.5 8t8.5 3.5q2 0 4 -1t4 -2.5t2.5 -3.5t0.5 -5zM317 248q13 0 22 -9.5t9 -22.5v-46q0 -13 -9 -22t-22 -9h-126q2 -2 4 -3.5t4 -3.5q4 -3 4 -9t-2 -10l-2 -4l-43 39l43 38q1 -2 2 -4.5t2 -9t-4 -9.5q-2 -2 -8 -7
h-1h127q5 0 10 4q4 5 4 10v46q0 6 -4 10.5t-10 4.5h-72q2 4 2 8.5t-2 8.5h72z" />
    <glyph glyph-name="keyboard-tab" unicode="keyboard&#x2d;tab" 
d="M0 448zM287 236l48 -44l-48 -44q-1 2 -2 5t-2.5 10.5t4.5 10.5q2 2 9 8h-95q2 5 2 10t-2 10h95q-3 2 -5 4l-4 4q-5 4 -5 10.5t2 10.5zM190 192q0 -5 -4 -9t-9 -4t-9 4t-4 9t4 9t9 4t9 -4t4 -9zM328 233h20v-82h-20v82z" />
    <glyph glyph-name="keyboard-type" unicode="keyboard&#x2d;type" 
d="M0 448zM289 243h16v-112h-16v112zM248 156v16h15v-16q0 -9 -6.5 -16t-16 -7t-16.5 7t-7 16v49h-12v15h12v23h16v-23h23v-15h-23v-49q0 -3 2 -5.5t5.5 -2.5t5.5 2.5t2 5.5z" />
    <glyph glyph-name="keyboard" unicode="keyboard" 
d="M0 448zM476 179q10 0 16.5 -6.5t6.5 -16.5v-184q0 -10 -6.5 -16.5t-16.5 -6.5h-440q-10 0 -16.5 6.5t-6.5 16.5v184q0 10 6.5 16.5t16.5 6.5h440zM481.5 -33.5q2.5 2.5 2.5 5.5v184q0 3 -2.5 5.5t-5.5 2.5h-440q-3 0 -5.5 -2.5t-2.5 -5.5v-184q0 -3 2.5 -5.5t5.5 -2.5
h440q3 0 5.5 2.5zM110 12q5 0 5 -5v-25q0 -5 -5 -5h-64q-5 0 -5 5v25q0 5 5 5h64zM466 12q5 0 5 -5v-25q0 -5 -5 -5h-64q-5 0 -5 5v25q0 5 5 5h64zM380 12q5 0 5 -5v-25q0 -5 -5 -5h-248q-5 0 -5 5v25q0 5 5 5h248zM46 23q-5 0 -5 6v24q0 5 5 5h27q5 0 5 -5v-24q0 -6 -5 -6
h-27zM127 53v-24q0 -6 -5 -6h-27q-5 0 -5 6v24q0 5 5 5h27q5 0 5 -5zM144 23q-5 0 -5 6v24q0 5 5 5h27q5 0 5 -5v-24q0 -6 -5 -6h-27zM194 23q-6 0 -6 6v24q0 5 6 5h26q5 0 5 -5v-24q0 -6 -5 -6h-26zM243 23q-5 0 -5 6v24q0 5 5 5h26q5 0 5 -5v-24q0 -6 -5 -6h-26zM292 23
q-5 0 -5 6v24q0 5 5 5h26q6 0 6 -5v-24q0 -6 -6 -6h-26zM341 23q-5 0 -5 6v24q0 5 5 5h27q5 0 5 -5v-24q0 -6 -5 -6h-27zM422 29q0 -6 -5 -6h-27q-5 0 -5 6v24q0 5 5 5h27q5 0 5 -5v-24zM466 58q5 0 5 -5v-24q0 -6 -5 -6h-27q-5 0 -5 6v24q0 5 5 5h27zM46 116q-5 0 -5 5v25
q0 5 5 5h27q5 0 5 -5v-25q0 -5 -5 -5h-27zM95 116q-5 0 -5 5v25q0 5 5 5h27q5 0 5 -5v-25q0 -5 -5 -5h-27zM144 116q-5 0 -5 5v25q0 5 5 5h27q5 0 5 -5v-25q0 -5 -5 -5h-27zM194 116q-6 0 -6 5v25q0 5 6 5h26q5 0 5 -5v-25q0 -5 -5 -5h-26zM243 116q-5 0 -5 5v25q0 5 5 5h26
q5 0 5 -5v-25q0 -5 -5 -5h-26zM292 116q-5 0 -5 5v25q0 5 5 5h26q6 0 6 -5v-25q0 -5 -6 -5h-26zM341 116q-5 0 -5 5v25q0 5 5 5h27q5 0 5 -5v-25q0 -5 -5 -5h-27zM390 116q-5 0 -5 5v25q0 5 5 5h27q5 0 5 -5v-25q0 -5 -5 -5h-27zM466 151q5 0 5 -5v-25q0 -5 -5 -5h-27
q-5 0 -5 5v25q0 5 5 5h27zM46 70q-5 0 -5 5v24q0 6 5 6h51q5 0 5 -6v-24q0 -5 -5 -5h-51zM152 75q0 -5 -6 -5h-26q-5 0 -5 5v24q0 6 5 6h26q6 0 6 -6v-24zM201 75q0 -5 -5 -5h-27q-5 0 -5 5v24q0 6 5 6h27q5 0 5 -6v-24zM250 75q0 -5 -5 -5h-27q-5 0 -5 5v24q0 6 5 6h27
q5 0 5 -6v-24zM299 75q0 -5 -5 -5h-27q-5 0 -5 5v24q0 6 5 6h27q5 0 5 -6v-24zM348 75q0 -5 -5 -5h-27q-5 0 -5 5v24q0 6 5 6h27q5 0 5 -6v-24zM397 75q0 -5 -5 -5h-26q-6 0 -6 5v24q0 6 6 6h26q5 0 5 -6v-24zM466 105q5 0 5 -6v-24q0 -5 -5 -5h-51q-5 0 -5 5v24q0 6 5 6h51
z" />
    <glyph glyph-name="left" unicode="left" 
d="M0 448zM226 148l-49 44l49 44q1 -2 2 -5t2 -10.5t-4 -10.5q-2 -2 -10 -8h95q-2 -5 -2 -10t2 -10h-95q3 -2 5 -4t5 -4q4 -4 4 -10.5t-2 -10.5zM349 192q0 -5 -4 -9t-9.5 -4t-9.5 4t-4 9q0 4 2 7t5 4.5t6 1.5q6 0 10 -4t4 -9z" />
    <glyph glyph-name="lightbulb" unicode="lightbulb" 
d="M0 448zM256 271q-20 0 -35 -14t-17 -34q-2 -23 14 -40q5 -5 22 -15v-22q0 -3 8 -5q10 -3 19 1q5 3 5 14v12l10 6q16 9 22.5 26.5t0.5 34.5q-2 8 -7 14.5t-11.5 11t-14.5 7.5t-16 3zM256 291q26 0 46.5 -17.5t24.5 -43.5q5 -29 -11 -52q-8 -12 -20 -20q-4 -2 -4 -5v-7
q0 -16 -16.5 -22.5t-31.5 -2.5q-17 4 -23 17q-1 4 -1 18q-22 13 -31.5 37t-1.5 48q7 22 26.5 36t42.5 14zM276 115v0q5 3 10.5 1t6.5 -7q2 -9 -12 -16q-23 -12 -47 -1q-16 7 -15 15q0 6 4.5 8.5t9.5 0.5q2 0 3.5 -1.5t3 -2.5t3.5 -2q5 -2 11 -2q14 -1 22 7z" />
    <glyph glyph-name="link" unicode="link" 
d="M0 448zM357.5 211.5q16.5 -16.5 16.5 -40t-16.5 -40t-39.5 -16.5h-52q-23 0 -40 17q-2 2 -5 6l-0.5 0.5t-0.5 1.5q-2 2 -3 5l-1 1h30h5h66q11 0 18.5 7.5t7.5 18t-7.5 18t-18.5 7.5h-101l1 1q1 2 3 5q0 1 0.5 1.5l0.5 0.5q3 4 6 6q3 4 8 7l1 1q1 0 2 1l1 1q1 1 4 2h1
q3 1 5 2q9 3 17 3v0h52q23 0 39.5 -16.5zM246 156h-52q-23 0 -39.5 16.5t-16.5 40t16.5 40t39.5 16.5h52q23 0 40 -17q2 -2 5 -6l0.5 -0.5t0.5 -1.5q2 -2 3 -5l1 -1h-30h-5h-66q-11 0 -18.5 -7.5t-7.5 -18t7.5 -18t18.5 -7.5h101l-1 -1q-1 -2 -3 -5q0 -1 -0.5 -1.5
l-0.5 -0.5q-3 -4 -5 -6q-4 -4 -9 -7l-1 -1h-1q0 -1 -1 -1.5l-1 -0.5q-3 -1 -4 -1.5l-1 -0.5q-3 -1 -5 -2q-9 -3 -17 -3v0z" />
    <glyph glyph-name="list" unicode="list" 
d="M0 448zM186.5 268q8.5 0 14.5 -6t6 -14t-6 -14t-14.5 -6t-14.5 6t-6 14t6 14t14.5 6zM186.5 240q7.5 0 7.5 8t-7.5 8t-7.5 -8t7.5 -8zM187 212q8 0 14 -6t6 -14t-6 -14t-14.5 -6t-14.5 6t-6 14q0 6 3 10.5t7.5 7t10.5 2.5zM186.5 184q7.5 0 7.5 8t-7.5 8t-7.5 -8t7.5 -8z
M187 156q4 0 7.5 -1.5t6.5 -4t4.5 -6.5t1.5 -8q0 -8 -6 -14t-14.5 -6t-14.5 6t-6 14t6 14t15 6zM186.5 128q7.5 0 7.5 8t-7.5 8t-7.5 -8t7.5 -8zM219 261h134v-25h-134v25zM219 204h134v-24h-134v24zM219 148h134v-25h-134v25z" />
    <glyph glyph-name="lock" unicode="lock" 
d="M0 448zM313 205h18v-100h-150v100h18v50q0 12 5 23q5 10 14 16q16 13 38 13q16 0 29 -7q16 -8 23 -22q5 -11 5 -24v-49zM230 205h52v49q0 6 -2 10t-5 6q-7 7 -19 6q-8 1 -15 -3q-6 -3 -9 -9q-2 -4 -2 -10v-49z" />
    <glyph glyph-name="message" unicode="message" 
d="M0 448zM481 387q9 0 15 -6t6 -15v-348q0 -9 -6 -15t-15 -6h-191l-34 -51l-34 51h-191q-9 0 -15 6t-6 15v348q0 9 6 15t15 6h450zM481 18v348h-450v-348h202l6 -9l17 -26l17 26l6 9h202z" />
    <glyph glyph-name="microphone" unicode="microphone" 
d="M0 448zM264 146q-17 0 -29 12t-12 29v92q0 17 12 29t29 12t29 -12t12 -29v-92q0 -17 -12 -29t-29 -12zM336 74q4 0 7 -3t3 -7t-3 -7t-7 -3h-144q-4 0 -7 3t-3 7t3 7t7 3h62v45q-25 3 -42 22.5t-17 45.5v61q0 8 7.5 8t7.5 -8v-61q0 -22 16 -38t38 -16t38 16t16 38v61
q0 8 7.5 8t7.5 -8v-61q0 -26 -17 -45.5t-42 -22.5v-45h62z" />
    <glyph glyph-name="minus" unicode="minus" 
d="M0 448zM256 294q42 0 72 -30t30 -72t-30 -72t-72 -30t-72 30t-30 72t30 72t72 30zM312 187v10q0 4 -3 7t-7 3h-92q-4 0 -7 -3t-3 -7v-10q0 -4 3 -7t7 -3h92q4 0 7 3t3 7z" />
    <glyph glyph-name="mobile-orient" unicode="mobile&#x2d;orient" 
d="M0 448zM266 69q0 -4 -3 -7t-7 -3t-7 3t-3 7t3 7t7 3t7 -3t3 -7zM428 232v-73q0 -7 -6 -13q-4 -5 -11 -9q-14 -7 -37 -13q-12 -3 -26 -5v-60q0 -13 -9 -22t-22 -9h-122q-13 0 -22 9t-9 22v60q-25 4 -42 10q-16 4 -24 10q-6 4 -10 8q-4 5 -4 12v81q0 22 80 33v52q0 13 9 22
t22 9h122q13 0 22 -9t9 -22v-52q80 -12 80 -33v-8zM184 325v-121h4.5t6.5 -1v112h122v-112q7 1 11 2v120q0 4 -3 7t-8 3h-122q-5 0 -8 -3t-3 -7zM137 140q41 -10 101 -12l11 27l-13 30q-72 2 -115 16q-13 5 -22 10v-52q0 -1 1 -3q2 -2 7 -5q10 -6 30 -11zM328 59v58
q-6 -1 -11 -2v-25h-122v25q-2 1 -6 1h-5v-57q0 -4 3 -7t8 -3h122q5 0 8 3t3 7zM412 159v52l-1 -1q-14 -8 -37 -13q-45 -11 -107 -12l12 -30l-11 -27q71 1 114 14q15 5 23 9q4 3 6 5q1 2 1 3z" />
    <glyph glyph-name="mobile-rotate" unicode="mobile&#x2d;rotate" 
d="M0 448zM287 182h92v-123h-92v123zM276 325v-266q0 -13 -9 -22t-21 -9h-123q-13 0 -22 9t-9 22v266q0 13 9 22t22 9h123q12 0 21 -9t9 -22zM256 59v266q0 4 -3 7t-7 3h-123q-4 0 -7 -3t-3 -7v-266q0 -4 3 -7t7 -3h123q4 0 7 3t3 7zM389 212q8 0 15.5 -4t11.5 -11t4 -15
v-123q0 -13 -9 -22t-22 -9h-116q9 8 12 21h104q4 0 7 3t3 7v123q0 4 -3 7t-7 3h-102v20h102zM123 315h123v-225h-123v225zM195 69q0 -4 -3 -7t-7.5 -3t-7.5 3t-3 7t3 7t7.5 3t7.5 -3t3 -7zM323 341q7 -7 0 -21l-41 34l39 37q1 -1 2 -3.5t2 -8.5t-3 -9q-1 0 -5 -4
q31 -2 53 -11q25 -11 38 -31q10 -13 14 -30q6 -20 5 -47q1 1 3 3.5t3 3.5q4 3 9 3t9 -2l3 -2l-37 -39l-34 42q14 8 21 -1q1 -2 3 -4q0 24 -6 42q-6 20 -20 31q-10 9 -23 14q-17 6 -41 7q4 -3 6 -4z" />
    <glyph glyph-name="mobile-shake" unicode="mobile&#x2d;shake" 
d="M0 448zM432 140.5q0 -15.5 -13 -26.5q-2 -2 -5 -4q7 -10 7 -22q0 -23 -21 -32q5 -9 5 -19q0 -14 -9 -25q-10 -11 -24 -11h-44q-2 0 -5 1l-216 1v215l42 45l-11 95q-2 13 7.5 23t24.5 11l10 1q-12 -3 -19 -12t-7 -19l5 -88l11 12l-4 69q0 13 8.5 22.5t21.5 9.5l8 1
q-10 -3 -16.5 -11.5t-6.5 -18.5v-60l11 13v40q0 12 9 21t22 9h123q13 0 22 -9t9 -21v-123h5q3 0 6 -1v131q0 7 -3 13t-8.5 10.5t-11.5 5.5h8q12 -1 20.5 -10t8.5 -22l-7 -129q6 -3 12 -7l7 143q1 10 -6.5 19t-18.5 12l9 -1q10 -1 17.5 -6t11.5 -12t3 -16l-17 -148
q5 -8 5 -18q0 -12 -6 -21q4 -2 7 -5q13 -10 13 -25.5zM382 207h-51q-6 0 -10.5 -4.5t-4.5 -11t4.5 -11t10.5 -4.5h51q7 0 11.5 5t4.5 11t-4.5 10.5t-11.5 4.5zM346 361h-104l6 -8v-1l8 -12h90v-112h10v123q0 4 -3 7t-7 3zM213 351v-18l25 28h-15q-4 0 -7 -3t-3 -7zM299 22
q-3 7 -3 15q0 9 3 16h-76q-13 0 -22 9t-9 22v69v16v3v1q1 10 5 23q6 18 19 36q8 10 25 29q5 6 7 13t2 15q0 16 -9 35q-1 3 -3 6l-110 -120v-187zM301 74q-3 7 -3 14q0 13 8 23q-2 1 -4 3l-1 1h-78v90q-6 -11 -9 -25q-1 -8 -1 -19v-77q0 -4 3 -7t7 -3h78zM381 26q5 4 5 11
t-5 12q-3 3 -8 3l-46 1q-5 0 -9 -4q-5 -5 -5 -12t5 -11q4 -4 9 -4h45q5 0 9 4zM396.5 77.5q4.5 4.5 4.5 11t-4.5 11t-11.5 4.5h-51q-7 0 -11.5 -4.5t-4.5 -11t5 -11.5q4 -3 9 -4h53q7 0 11.5 4.5zM407 130q4 4 4 10t-4 10q-4 6 -11 6l-71 -1q-7 0 -11 -5q-4 -4 -4 -10t4 -10
q4 -5 11 -5h71q7 0 11 5zM295 94.5q0 -4.5 -3 -7.5t-7.5 -3t-7.5 3t-3 7.5t3 7.5t7.5 3t7.5 -3t3 -7.5z" />
    <glyph glyph-name="mobile-vibrate" unicode="mobile&#x2d;vibrate" 
d="M0 448zM348 59q0 -8 -4 -15.5t-11 -11.5t-16 -4h-122q-13 0 -22 9t-9 22v266q0 13 9 22t22 9h122q13 0 22 -9t9 -22v-266zM187 52q3 -3 8 -3h122q5 0 8 3t3 7v266q0 4 -3 7t-8 3h-122q-5 0 -8 -3t-3 -7v-266q0 -4 3 -7zM195 315h122v-225h-122v225zM266 69q0 -4 -3 -7
t-7 -3t-7 3t-3 7t3 7t7 3t7 -3t3 -7zM189 363q-14 0 -24 -9.5t-10 -23.5v-158q0 -5 -5 -5t-5 5v158q0 9 3.5 17t9.5 14t14 9t17 4h78q5 0 5 -5.5t-5 -5.5h-78zM367 54q0 -18 -13 -30.5t-31 -13.5h-78q-5 0 -5 5.5t5 5.5h78q14 0 24 9.5t10 23.5v158q0 5 5 5t5 -5v-158z
M183 383q-20 0 -34 -14t-14 -34v-137q0 -5 -5 -5t-5 5v137q0 15 7.5 28.5t21 21.5t29.5 8h55q5 0 5 -5t-5 -5h-55zM382 191q5 0 5 -5v-137q0 -16 -7.5 -29t-21 -21t-29.5 -8h-55q-5 0 -5 5t5 5h55q20 0 34 14t14 34v137q0 5 5 5z" />
    <glyph glyph-name="mobile" unicode="mobile" 
d="M0 448zM317 356q13 0 22 -9t9 -22v-266q0 -8 -4 -15.5t-11 -11.5t-16 -4h-122q-13 0 -22 9t-9 22v266q0 13 9 22t22 9h122zM325 52q3 3 3 7v266q0 4 -3 7t-8 3h-122q-5 0 -8 -3t-3 -7v-266q0 -4 3 -7t8 -3h122q5 0 8 3zM195 315h122v-225h-122v225zM266 69q0 -4 -3 -7
t-7 -3t-7 3t-3 7t3 7t7 3t7 -3t3 -7z" />
    <glyph glyph-name="mouse" unicode="mouse" 
d="M0 448zM491 234q8 -47 8 -103q0 -38 -4 -70q-4 -35 -13 -56q-7 -17 -17 -24q-36 -30 -87 -30t-88 30q-9 8 -16 24q-6 14 -11 35q-7 38 -7 91q0 36 4 70q3 34 10 60q5 17 11 29q4 7 8 12q15 15 40 23q23 7 49 7t49 -7q24 -8 39 -23q5 -5 9 -12q3 -7 6 -16q6 -17 10 -40z
M472 44q7 36 7 87q0 34 -4 68q-3 33 -9 56q-4 16 -9 25q-3 5 -5 7q-12 12 -32 18q-19 6 -42 6t-43 -6t-31 -18q-3 -2 -5 -7q-3 -5 -5 -12q-6 -15 -10 -38q-8 -44 -8 -99q0 -37 4 -67q5 -33 12 -51q5 -12 11 -16q31 -25 75 -25t74 25q6 4 11 16t9 31z" />
    <glyph glyph-name="move" unicode="move" 
d="M0 448zM308 228l40 -36l-40 -36q-8 14 0 21q2 2 4 3.5t4 3.5h-52v-52q2 2 3.5 4t3.5 4q7 8 21 0l-36 -40l-36 40q14 8 21 0q2 -2 3.5 -4t3.5 -4v52h-52q2 -2 4 -3.5t4 -3.5q4 -3 4 -8.5t-2 -8.5l-2 -4l-40 36l40 36q8 -14 0 -21q-2 -2 -4 -3.5t-4 -3.5h52v52l-3 -3
t-1.5 -2t-2.5 -3q-3 -4 -8.5 -4t-8.5 2l-4 2l36 40l36 -40q-14 -8 -21 0q-2 2 -3.5 4t-3.5 4v-52h52q-2 2 -4 3.5t-4 3.5q-3 3 -3 8.5t1 8.5z" />
    <glyph glyph-name="next" unicode="next" 
d="M0 448zM338 269q8 0 14 -6t6 -15v-112q0 -9 -6 -15t-14 -6h-164q-8 0 -14 6t-6 15v112q0 6 2.5 10.5t7.5 7.5t10 3h164zM307 156v72q0 3 -1.5 5t-3.5 3.5t-5 1.5h-10q-5 0 -8 -3t-3 -7v-31v1l-63 40q-3 2 -5.5 0.5t-2.5 -5.5v-82q0 -4 2.5 -5.5t5.5 0.5l63 40v1v-31
q0 -4 3 -7t8 -3h10q4 0 7 3t3 7z" />
    <glyph glyph-name="no" unicode="no" 
d="M0 448zM256 294q42 0 72 -30t30 -72t-30 -72t-72 -30t-72 30t-30 72t30 72t72 30zM303 168l-26 24l26 24q9 10 0 19l-4 4q-10 9 -19 0l-24 -26l-24 26q-10 9 -19 0l-4 -4q-9 -9 0 -19l27 -23l-27 -25q-9 -10 0 -19l4 -4q9 -9 19 0l24 25l24 -25q10 -9 19 0l4 4q9 9 0 19z
" />
    <glyph glyph-name="notebook" unicode="notebook" 
d="M0 448zM110 57q5 0 5 -5v-13q0 -5 -5 -5h-64q-5 0 -5 5v13q0 5 5 5h64zM466 57q5 0 5 -5v-13q0 -5 -5 -5h-64q-5 0 -5 5v13q0 5 5 5h64zM336 26q5 0 5 -5v-42q0 -5 -5 -5h-160q-5 0 -5 5v42q0 5 5 5h160zM380 57q5 0 5 -5v-13q0 -5 -5 -5h-248q-5 0 -5 5v13q0 5 5 5h248z
M46 65q-5 0 -5 5v13q0 6 5 6h27q5 0 5 -6v-13q0 -5 -5 -5h-27zM127 83v-13q0 -5 -5 -5h-27q-5 0 -5 5v13q0 6 5 6h27q5 0 5 -6zM144 65q-5 0 -5 5v13q0 6 5 6h27q5 0 5 -6v-13q0 -5 -5 -5h-27zM194 65q-6 0 -6 5v13q0 6 6 6h26q5 0 5 -6v-13q0 -5 -5 -5h-26zM243 65
q-5 0 -5 5v13q0 6 5 6h26q5 0 5 -6v-13q0 -5 -5 -5h-26zM292 65q-5 0 -5 5v13q0 6 5 6h26q6 0 6 -6v-13q0 -5 -6 -5h-26zM341 65q-5 0 -5 5v13q0 6 5 6h27q5 0 5 -6v-13q0 -5 -5 -5h-27zM422 70q0 -5 -5 -5h-27q-5 0 -5 5v13q0 6 5 6h27q5 0 5 -6v-13zM466 89q5 0 5 -6v-13
q0 -5 -5 -5h-27q-5 0 -5 5v13q0 6 5 6h27zM46 128q-5 0 -5 5v13q0 5 5 5h27q5 0 5 -5v-13q0 -5 -5 -5h-27zM95 128q-5 0 -5 5v13q0 5 5 5h27q5 0 5 -5v-13q0 -5 -5 -5h-27zM144 128q-5 0 -5 5v13q0 5 5 5h27q5 0 5 -5v-13q0 -5 -5 -5h-27zM194 128q-6 0 -6 5v13q0 5 6 5h26
q5 0 5 -5v-13q0 -5 -5 -5h-26zM243 128q-5 0 -5 5v13q0 5 5 5h26q5 0 5 -5v-13q0 -5 -5 -5h-26zM292 128q-5 0 -5 5v13q0 5 5 5h26q6 0 6 -5v-13q0 -5 -6 -5h-26zM341 128q-5 0 -5 5v13q0 5 5 5h27q5 0 5 -5v-13q0 -5 -5 -5h-27zM390 128q-5 0 -5 5v13q0 5 5 5h27q5 0 5 -5
v-13q0 -5 -5 -5h-27zM466 151q5 0 5 -5v-13q0 -5 -5 -5h-27q-5 0 -5 5v13q0 5 5 5h27zM46 96q-5 0 -5 6v13q0 5 5 5h51q5 0 5 -5v-13q0 -6 -5 -6h-51zM152 102q0 -6 -6 -6h-26q-5 0 -5 6v13q0 5 5 5h26q6 0 6 -5v-13zM201 102q0 -6 -5 -6h-27q-5 0 -5 6v13q0 5 5 5h27
q5 0 5 -5v-13zM250 102q0 -6 -5 -6h-27q-5 0 -5 6v13q0 5 5 5h27q5 0 5 -5v-13zM299 102q0 -6 -5 -6h-27q-5 0 -5 6v13q0 5 5 5h27q5 0 5 -5v-13zM348 102q0 -6 -5 -6h-27q-5 0 -5 6v13q0 5 5 5h27q5 0 5 -5v-13zM397 102q0 -6 -5 -6h-26q-6 0 -6 6v13q0 5 6 5h26q5 0 5 -5
v-13zM466 120q5 0 5 -5v-13q0 -6 -5 -6h-51q-5 0 -5 6v13q0 5 5 5h51zM471 438q13 0 22 -9t9 -22v-430q0 -13 -9 -22t-22 -9h-430q-13 0 -22 9t-9 22v430q0 13 9 22t22 9h430zM31 407v-228h450v228q0 4 -3 7t-7 3h-430q-4 0 -7 -3t-3 -7zM478 -30q3 3 3 7v187h-450v-187
q0 -4 3 -7t7 -3h430q4 0 7 3zM42 407h429v-215h-429v215z" />
    <glyph glyph-name="ok" unicode="ok" 
d="M0 448zM256 294q42 0 72 -30t30 -72t-30 -72t-72 -30t-72 30t-30 72t30 72t72 30zM240 127l89 106l-3 1q-14 5 -18 5t-7 -1t-7 -5q-10 -9 -34 -39q-11 -15 -19 -25q-4 5 -9 10t-9 8l-4 4l-4.5 1.5t-3.5 0.5q-5 0 -12 -3q-5 -2 -6 -2l-2 -2z" />
    <glyph glyph-name="page" unicode="page" 
d="M0 448zM154 248v31h92v-31h-92zM154 197v31h92v-31h-92zM154 146v31h204v-31h-204zM154 95v30h204v-30h-204zM338 259h-51v-41h51v41zM358 279v-82h-92v82h92z" />
    <glyph glyph-name="pause" unicode="pause" 
d="M0 448zM338 269q8 0 14 -6t6 -15v-112q0 -9 -6 -15t-14 -6h-164q-8 0 -14 6t-6 15v112q0 6 2.5 10.5t7.5 7.5t10 3h164zM248 156v72q0 4 -3 7t-7 3h-10q-4 0 -7 -3t-3 -7v-72q0 -4 3 -7t7 -3h10q4 0 7 3t3 7zM294 156v72q0 4 -3 7t-7 3h-10q-4 0 -7 -3t-3 -7v-72
q0 -4 3 -7t7 -3h10q4 0 7 3t3 7z" />
    <glyph glyph-name="pencil" unicode="pencil" 
d="M0 448zM374 262v-4q0 -14 -9 -23l-133 -132l-66 -12l12 66l132 133q9 9 23 9q16 0 29 -12q10 -11 12 -25zM222 122l103 102l-26 26l-102 -103l-3 -14q6 -1 9.5 -4.5t4.5 -9.5zM333 278q-5 0 -9 -3l-9 -10l25 -25l10 9q3 4 3 9q0 8 -6 14t-14 6z" />
    <glyph glyph-name="picture" unicode="picture" 
d="M0 448zM364 305q6 0 10.5 -4.5t4.5 -11.5v-194q0 -7 -4.5 -11.5t-10.5 -4.5h-216q-4 0 -7.5 2t-5.5 6t-2 8v194q0 7 4.5 11.5t10.5 4.5h216zM358 284h-204v-112l1.5 1.5l2.5 2.5l53 53q6 6 14.5 6t14.5 -6l32 -33l-39 -30q-15 -11 -33 -11h-46v-11h46q22 1 39 14l41 31
l13 10q13 10 26 0l39 -30v115zM312.5 223q-10.5 0 -18 7.5t-7.5 17.5q0 7 3.5 13t9 9.5t12.5 3.5q11 0 18.5 -7.5t7.5 -18t-7.5 -18t-18 -7.5z" />
    <glyph glyph-name="pile" unicode="pile" 
d="M0 448zM492 330q6 0 10.5 -4.5t4.5 -10.5v-348q0 -7 -4.5 -11.5t-10.5 -4.5h-349q-6 0 -10.5 4.5t-4.5 11.5v15h-15q-7 0 -11.5 4.5t-4.5 10.5v16h-15q-6 0 -10.5 4.5t-4.5 10.5v348q0 7 4.5 11.5t10.5 4.5h348q6 0 10.5 -4.5t4.5 -11.5v-15h16q6 0 10.5 -4.5t4.5 -10.5
v-16h16zM87 371v-338h338v338h-338zM118 13v-10h338v337h-11v-312q0 -6 -4.5 -10.5t-10.5 -4.5h-312zM486 -28v338h-10v-313q0 -6 -4.5 -10.5t-10.5 -4.5h-313v-10h338z" />
    <glyph glyph-name="pinch" unicode="pinch" 
d="M0 448zM481 173v0q1 -5 -2 -35q-2 -21 -6 -48q-7 -63 -12 -89q-6 -28 -22 -35q-8 -4 -26 -4h-53h-119l-143 175l2 2l1 1q41 31 68 21q7 -2 16 -11q3 -4 15 -15l15 -15l13 -13q6 -5 17 -3.5t11 11.5q0 27 -1 46q-4 55 -20 88q-9 20 -22 32q-8 7 -17 11q-13 8 -16 10
q-16 17 -4 38t34 20q15 0 40 -18q16 -11 29 -27q27 -31 40 -77q14 11 34 6t25 -23q14 7 30.5 1t20.5 -22q8 4 17 3.5t17 -3.5t13 -10.5t5 -16.5zM461 170v2q0 8 -9 10.5t-15 -1.5q-7 -3 -7 -17h-20v14q0 16 -1 17q-2 8 -12 9.5t-15 -4.5q-3 -3 -3 -17v-8h-21v16v14
q0 13 -4 17q-6 5 -15.5 3t-10.5 -11v-27h-21q-1 52 -31 98q-16 25 -38 41q-17 11 -26 13q-7 2 -12.5 -2t-7.5 -11q-1 -8 10 -13q8 -4 17 -10q15 -12 27 -30q20 -32 27 -86q2 -20 3 -45q1 -33 -3 -40q-9 -19 -31 -19t-35 15q-4 5 -9.5 10.5l-10 10l-10.5 10.5l-10 10
q-11 10 -39 -6l123 -151h106h49h14q10 0 14 4.5t6 16.5q5 21 12 83q8 64 9 84z" />
    <glyph glyph-name="pix" unicode="pix" 
d="M0 448zM20 266q-7 0 -7 8t7 8h6q7 0 7 -8t-7 -8h-6zM118 266h-5q-8 0 -8 8t8 8h5q7 0 7 -8t-7 -8zM164 266h-5q-8 0 -8 8t8 8h5q8 0 8 -8t-8 -8zM72 266h-5q-8 0 -8 8t8 8h5q7 0 7 -8t-7 -8zM225 266q-7 0 -7 8t7 8h5q8 0 8 -8t-8 -8h-5zM271 266q-7 0 -7 8t7 8h5
q8 0 8 -8t-8 -8h-5zM407 274q0 -8 -8 -8h-5q-7 0 -7 8t7 8h5q8 0 8 -8zM348 282h5q8 0 8 -8t-8 -8h-5q-8 0 -8 8t8 8zM461 266q-8 0 -8 8t8 8h5q8 0 8 -8t-8 -8h-5zM492 110q4 0 7 -3t3 -7t-3 -7t-7 -3h-287v-43q9 -2 16 -7.5t11 -14t4 -17.5q0 -17 -12 -29t-29 -12t-29 12
t-12 29q0 14 8.5 25t21.5 14v43h-164q-2 0 -4.5 1t-4 3.5t-1.5 5.5q0 4 3 7t7 3h164v32q-13 4 -21.5 15t-8.5 25q0 7 2 13.5t6 11.5t10 9t12 5v94q0 13 -8 22q-7 9 -17 9h-26h-1q-4 -14 -15 -22.5t-25 -8.5q-17 0 -29 12t-12 29t12 29t29 12q14 0 25 -9t15 -22h1h26
q19 0 33 -15q13 -15 13 -36v-94q23 -6 29 -29h42q13 0 22 9t9 22v93q-6 2 -12 5.5t-10 9t-6.5 12t-2.5 13.5q0 17 12 29t29 12q10 0 18 -4t14 -11t8 -16h32q21 0 36 -15t15 -36v-94q14 -3 22.5 -14t8.5 -25q0 -17 -12 -29t-29 -12t-29 12t-12 29q0 9 4 17.5t11 14t16 7.5v94
q0 13 -9 22t-22 9h-32q-6 -24 -29 -30v-93q0 -21 -15 -36t-37 -15h-42q-6 -24 -29 -30v-32h287zM451 181.5q0 8.5 -6 14.5t-14.5 6t-14.5 -6t-6 -14.5t6 -14.5t14.5 -6t14.5 6t6 14.5zM297 355.5q0 -8.5 6 -14.5t14.5 -6t14.5 6t6 14.5t-6 14.5t-14.5 6t-14.5 -6t-6 -14.5z
M107 341q6 6 6 14.5t-6 14.5t-14.5 6t-14.5 -6t-6 -14.5t6 -14.5t14.5 -6t14.5 6zM174 181.5q0 -8.5 6 -14.5t14.5 -6t14.5 6t6 14.5t-6 14.5t-14.5 6t-14.5 -6t-6 -14.5zM215 7.5q0 8.5 -6 14.5t-14.5 6t-14.5 -6t-6 -14.5t6 -14.5t14.5 -6t14.5 6t6 14.5z" />
    <glyph glyph-name="play" unicode="play" 
d="M0 448zM338 269q8 0 14 -6t6 -15v-112q0 -9 -6 -15t-14 -6h-164q-8 0 -14 6t-6 15v112q0 6 2.5 10.5t7.5 7.5t10 3h164zM308 188q9 4 0 8l-84 38q-2 1 -4 0.5t-3.5 -2t-1.5 -4.5v-72q0 -4 3 -6t6 0z" />
    <glyph glyph-name="plus" unicode="plus" 
d="M0 448zM256 294q42 0 72 -30t30 -72t-30 -72t-72 -30t-72 30t-30 72t30 72t72 30zM312 187v10q0 4 -3 7t-7 3h-31v31q0 4 -3 7t-7 3h-10q-4 0 -7 -3t-3 -7v-31h-31q-4 0 -7 -3t-3 -7v-10q0 -4 3 -7t7 -3h31v-31q0 -4 3 -7t7 -3h10q4 0 7 3t3 7v31h31q4 0 7 3t3 7z" />
    <glyph glyph-name="position" unicode="position" 
d="M0 448zM256 305q33 0 56 -23t23 -54q0 -23 -14 -46l-48 -77l-17 -29l-65 106q-14 23 -14 45q0 32 23 55t56 23zM255 200q13 0 22.5 9t9.5 22t-9.5 22t-22.5 9t-22 -9t-9 -22t9 -22t22 -9z" />
    <glyph glyph-name="previous" unicode="previous" 
d="M0 448zM174 269h164q8 0 14 -6t6 -15v-112q0 -9 -6 -15t-14 -6h-164q-8 0 -14 6t-6 15v112q0 6 2.5 10.5t7.5 7.5t10 3zM205 156q0 -4 3 -7t7 -3h10q5 0 8 3t3 7v31v-1l63 -40q3 -2 5.5 -0.5t2.5 5.5v82q0 4 -2.5 5.5t-5.5 -0.5l-63 -40v-1v31q0 4 -3 7t-8 3h-10
q-4 0 -7 -3t-3 -7v-72z" />
    <glyph glyph-name="question" unicode="question" 
d="M0 448zM256 294q42 0 72 -30t30 -72t-30 -72t-72 -30t-72 30t-30 72t30 72t72 30zM270 121v30h-31v-30h31zM301.5 210q2.5 6 2.5 16q0 5 -2 12q-3 6 -8.5 12t-14.5 9q-10 4 -24 4q-10 0 -19 -3.5t-15 -10t-9.5 -15t-3.5 -19.5h29q0 5 1 9.5t3.5 8t6.5 5.5t9 2q8 0 12 -4
t4 -13q1 -5 -1 -8.5t-5.5 -6.5t-7.5 -6t-7.5 -7t-6 -9.5t-3.5 -14.5v-9h26v8q1 6 4 9.5t7 6.5q5 4 8 7q5 3 8.5 7t6 10z" />
    <glyph glyph-name="radio-select" unicode="radio&#x2d;select" 
d="M0 448zM266 192q0 -4 -3 -7t-7 -3t-7 3t-3 7t3 7t7 3t7 -3t3 -7zM353 192q0 -4 -3 -7t-7 -3t-7 3t-3 7t3 7t7 3t7 -3t3 -7zM374 236q6 -1 11.5 -4t8.5 -8t3 -12v-40q0 -10 -7 -16.5t-16 -7.5h-236q-9 1 -16 7.5t-7 16.5v40q0 10 7 16.5t16 7.5h236zM169 182q4 0 7 3t3 7
t-3 7t-7 3t-7 -3t-3 -7t3 -7t7 -3zM297 164v56h-82v-56h82zM381 172v40q0 4 -2 6t-5 2h-67v-56h67q3 0 5 2t2 6z" />
    <glyph glyph-name="radio" unicode="radio" 
d="M0 448zM256 256q26 0 45 -19t19 -45t-19 -45t-45 -19t-45 19t-19 45t19 45t45 19zM290.5 157.5q14.5 14.5 14.5 34.5t-14.5 34.5t-34.5 14.5t-34.5 -14.5t-14.5 -34.5t14.5 -34.5t34.5 -14.5t34.5 14.5zM292 192q0 -15 -10.5 -25.5t-25.5 -10.5t-25.5 10.5t-10.5 25.5
t10.5 25.5t25.5 10.5t25.5 -10.5t10.5 -25.5z" />
    <glyph glyph-name="read" unicode="read" 
d="M0 448zM348 228q13 0 22 -9t9 -22q0 -4 -3 -7t-7 -3q-2 0 -4 1t-3.5 2t-2.5 3t-1 4q0 4 -3 7t-7 3t-7 -3t-3 -7v-1v-1v-3q0 -19 -13.5 -32.5t-32.5 -13.5t-32.5 13.5t-13.5 32.5v5q0 4 -3 7t-7.5 3t-7.5 -3t-3 -7v-5q0 -19 -13.5 -32.5t-32.5 -13.5t-32.5 13.5
t-13.5 32.5t13.5 32.5t32.5 13.5q23 0 36 -18q9 8 20.5 8t20.5 -8q13 18 35.5 18t36.5 -18q9 8 20 8zM197.5 174q7.5 8 7.5 18t-7.5 18t-18 8t-18 -8t-7.5 -18.5t7.5 -18t18 -7.5t18 8zM309.5 174q7.5 8 7.5 18.5t-7.5 18t-18 7.5t-18 -8t-7.5 -18.5t7.5 -18t18 -7.5t18 8z
" />
    <glyph glyph-name="rec" unicode="rec" 
d="M0 448zM338 269q8 0 14 -6t6 -15v-112q0 -9 -6 -15t-14 -6h-164q-8 0 -14 6t-6 15v112q0 6 2.5 10.5t7.5 7.5t10 3h164zM256 146q19 0 32.5 13.5t13.5 32.5t-13.5 32.5t-32.5 13.5t-32.5 -13.5t-13.5 -32.5t13.5 -32.5t32.5 -13.5z" />
    <glyph glyph-name="refresh" unicode="refresh" 
d="M0 448zM100.5 176q-13.5 0 -29.5 17v-1q0 -60 36 -109q36 -50 95 -68q27 -8 54 -8q50 0 93.5 25t67.5 69l20 -11q-27 -49 -76 -77.5t-105 -28.5q-31 0 -60 9q-67 20 -108 76q-40 55 -40 123q-16 -16 -29 -16q-9 0 -13 1.5t-4 3.5l-1 2l59 59l58 -59q-4 -7 -17.5 -7z
M511 200l-59 -58l-58 58q4 8 17.5 8t29.5 -18v1.5v0.5q0 60 -36 109q-36 50 -95 68q-27 8 -54 8q-50 0 -93.5 -25.5t-68.5 -69.5l-20 12q28 49 77 77.5t105 28.5q30 0 60 -9q67 -20 108 -76q40 -55 40 -123q16 16 29 16q8 0 12.5 -2t4.5 -4z" />
    <glyph glyph-name="reload" unicode="reload" 
d="M0 448zM456 129q-25 -81 -100 -122q-40 -21 -85.5 -24t-87.5 12q-61 23 -98.5 78t-37.5 120q-18 -18 -36 -15q-10 1 -10 6l59 59l58 -59q-4 -6 -16 -7q-14 -1 -31 17q-1 -42 17 -81t51 -66q34 -28 78 -37.5t86 1.5q40 11 72.5 37.5t49.5 64.5q19 41 17 86.5t-24 84.5
q-21 37 -56 61t-77 30q-39 6 -78.5 -5t-70.5 -37q-18 -16 -32 -36q6 -13 -6 -23t-24 -2q-12 9 -8 23t18 15q46 66 125 85q88 21 163 -29q58 -38 81.5 -104.5t2.5 -132.5v0z" />
    <glyph glyph-name="resize" unicode="resi&#x7a;e" 
d="M0 448zM313 235l-100 -100q3 0 6 0.5t6 0.5t6.5 -1.5t5 -4.5t3 -5.5t2.5 -4.5v-2l-63 -3l3 63q3 0 6 -1.5t7.5 -6t4.5 -9.5q0 -3 -0.5 -6t-0.5 -6l100 100q-3 0 -4.5 -0.5t-3 -0.5h-4.5q-6 -1 -10 3.5t-6 9.5l-1 4l63 4l-4 -63q-2 0 -5 1t-8 5.5t-4 10.5v6t1 6z" />
    <glyph glyph-name="rewind" unicode="rewind" 
d="M0 448zM174 269h164q8 0 14 -6t6 -15v-112q0 -9 -6 -15t-14 -6h-164q-8 0 -14 6t-6 15v112q0 6 2.5 10.5t7.5 7.5t10 3zM183 186l62 -40q4 -2 6.5 -0.5t2.5 5.5v31l55 -36q3 -2 5.5 -0.5t2.5 5.5v82q0 4 -2.5 5.5t-5.5 -0.5l-55 -36v31q0 4 -2.5 5.5t-6.5 -0.5l-62 -40
q-9 -6 0 -12z" />
    <glyph glyph-name="right" unicode="right" 
d="M0 448zM300 236l48 -44l-48 -44q-1 2 -2 5t-2.5 10.5t4.5 10.5q2 2 9 8h-94q1 5 1 10t-1 10h94q-2 2 -4.5 4t-4.5 4q-5 4 -5 10.5t3 10.5zM203 192q0 -5 -3.5 -9t-9 -4t-9.5 4t-4 9t4 9t9.5 4t9 -4t3.5 -9z" />
    <glyph glyph-name="robot" unicode="robot" 
d="M0 448zM174 268.5q0 -8.5 -6 -14.5t-14.5 -6t-14.5 6t-6 14.5t6 14.5t14.5 6t14.5 -6t6 -14.5zM358 340q30 0 51 -21t21 -50.5t-21 -50.5t-51 -21h-204q-30 0 -51 21t-21 50.5t21 50.5t51 21h204zM153.5 218q21.5 0 36.5 15t15 36t-15 36t-36.5 15t-36.5 -15t-15 -36
t15 -36t36.5 -15zM358.5 218q21.5 0 36.5 15t15 36t-15 36t-37 15q-13 0 -25 -7t-19 -18.5t-7 -25.5q0 -21 15 -36t36.5 -15zM379 268.5q0 -8.5 -6 -14.5t-15 -6q-5 0 -10 3t-7.5 7.5t-2.5 10.5q0 8 6 14t14.5 6t14.5 -6t6 -14.5zM348 110q19 0 32.5 -13.5t13.5 -32.5
t-13.5 -32.5t-32.5 -13.5h-184q-19 0 -32.5 13.5t-13.5 32.5t13.5 32.5t32.5 13.5h184zM148 37v22h-14q2 -14 14 -22zM148 69v22q-12 -8 -14 -22h14zM189 33v26h-30v-25q3 -1 5 -1h25zM189 69v26h-25q-2 0 -5 -1v-25h30zM230 33v26h-30v-26h30zM230 69v26h-30v-26h30z
M271 33v26h-30v-26h30zM271 69v26h-30v-26h30zM312 33v26h-30v-26h30zM312 69v26h-30v-26h30zM353 34v25h-30v-26h25q2 0 5 1zM353 69v25q-3 1 -5 1h-25v-26h30zM364 37q12 8 14 22h-14v-22zM364 69h14q-2 14 -14 22v-22z" />
    <glyph glyph-name="rotate" unicode="rotate" 
d="M0 448zM240 123q0 -2 -1 -4.5t-3 -4t-4 -2.5t-5 -1q-5 0 -8.5 3.5t-3.5 8.5q0 3 1 5.5t2.5 4t4 2.5t4.5 1q5 0 9 -3.5t4 -9.5zM215 142q-7 -5 -9 -13q-30 24 -30 62q0 12 4 25q7 23 26.5 38t43.5 16l-8 7q-2 2 -3 5t-0.5 6t1 5t1.5 4l1 1l40 -36l-40 -35q-8 13 0 21
q1 1 9 7q-20 -1 -35.5 -13t-21.5 -31q-3 -10 -3 -20q0 -30 24 -49z" />
    <glyph glyph-name="say" unicode="say" 
d="M0 448zM256 428v0q48 0 93 -19.5t78 -54.5q48 -51 60.5 -121.5t-15.5 -135.5q-28 -63 -87.5 -102t-128.5 -39h-258l107 55v1h-1q-62 52 -78 131q-16 75 14 144q28 63 87.5 102t128.5 39zM408 40v0q32 32 49 75q31 80 -3 160q-31 76 -106 112q-78 36 -160 9
q-78 -26 -119 -98q-42 -74 -22 -156q19 -78 83 -124l14 -10l-60 -31h172q89 0 152 63z" />
    <glyph glyph-name="scroll" unicode="scroll" 
d="M0 448zM264 252v-120q2 2 3.5 4t3.5 4t5 3t5.5 0.5t5 -1.5t3.5 -1l2 -1l-36 -40l-36 40q14 8 21 0q2 -2 3.5 -4t3.5 -4v120l-3 -3t-1.5 -2t-2.5 -3q-3 -3 -8.5 -3t-8.5 1l-4 2l36 40l36 -40q-14 -8 -21 0q-2 2 -3.5 4t-3.5 4z" />
    <glyph glyph-name="search" unicode="search" 
d="M0 448zM357 125l-36 -35l-50 57q-19 -11 -41 -11q-31 0 -53.5 22.5t-22.5 54t22.5 54t54 22.5t54 -22.5t22.5 -54.5q0 -19 -9 -36zM174 212q0 -23 16.5 -39.5t40 -16.5t40 16.5t16.5 40t-16.5 40t-40.5 16.5q-11 0 -21.5 -4.5t-18 -12t-12 -18t-4.5 -22.5z" />
    <glyph glyph-name="select" unicode="select" 
d="M0 448zM343 225q10 0 16.5 -6.5t6.5 -16.5v-41q0 -9 -6.5 -16t-16.5 -7h-174q-10 0 -16.5 7t-6.5 16v41q0 10 6.5 16.5t16.5 6.5h174zM348.5 156q2.5 2 2.5 5v41q0 3 -2.5 5.5t-5.5 2.5h-174q-3 0 -5.5 -2.5t-2.5 -5.5v-41q0 -3 2.5 -5t5.5 -2h174q3 0 5.5 2zM232 238
q-10 0 -4 8l21 25q7 8 14 0l21 -25q6 -8 -4 -8h-48zM280 125q10 0 4 -7l-21 -26q-7 -8 -14 0l-21 26q-6 7 4 7h48z" />
    <glyph glyph-name="slide" unicode="slide" 
d="M0 448zM316 184h-120l3 -3t2 -1.5t3 -2.5q3 -3 3 -8.5t-1 -8.5l-2 -4l-40 36l40 36q8 -14 0 -21q-2 -2 -4 -3.5t-4 -3.5h120q-2 2 -4 3.5t-4 3.5q-3 3 -3 8.5t1 8.5l2 4l40 -36l-40 -36q-8 14 0 21q2 2 4 3.5t4 3.5z" />
    <glyph glyph-name="slider" unicode="slider" 
d="M0 448zM384 200q8 0 8 -8t-8 -8h-47q-2 -9 -7.5 -16.5t-14 -12t-18.5 -4.5q-5 0 -10.5 1.5t-9.5 4t-8 6t-6.5 7.5t-4.5 9h-135q-5 0 -9 4t-4 9t4 9t9 4h135q3 8 8.5 14.5t13.5 10t17 3.5q15 0 26 -9.5t14 -23.5h47zM311 178q6 6 6 14.5t-6 14t-14.5 5.5t-14.5 -6
t-6 -14.5t6 -14t14.5 -5.5t14.5 6z" />
    <glyph glyph-name="sound" unicode="sound" 
d="M0 448zM159 200l-5 -1q3 40 32 67.5t70 27.5q42 0 72 -30t30 -72v-1l-4 -2l-16 13l-14 -16l-16 24l-13 -25l-17 49l-14 -51l-16 69l-15 -73l-13 55l-17 -44l-14 26l-17 -25zM353 178l5 2q-5 -39 -34 -64.5t-68 -25.5q-41 0 -71 28.5t-31 69.5l3 1l18 -13l13 20l16 -30
l13 34l17 -67l15 71l14 -63l16 58l13 -39l17 30l14 -20l16 18z" />
    <glyph glyph-name="square-dashed" unicode="square&#x2d;dashed" 
d="M0 448zM31 387h-21v35q0 7 4.5 11.5t11.5 4.5h25v-21h-20v-30zM451 417v21h35q7 0 11.5 -4.5t4.5 -11.5v-25h-21v20h-30zM82 438h31v-21h-31v21zM143 438h31v-21h-31v21zM205 438h31v-21h-31v21zM266 438h31v-21h-31v21zM328 438h30v-21h-30v21zM389 438h31v-21h-31v21z
M481 366h21v-31h-21v31zM481 305h21v-31h-21v31zM481 243h21v-31h-21v31zM481 182h21v-31h-21v31zM481 120h21v-30h-21v30zM481 59h21v-31h-21v31zM10 49h21v-31h-21v31zM10 110h21v-31h-21v31zM10 172h21v-31h-21v31zM10 233h21v-31h-21v31zM10 294h21v-30h-21v30zM10 356
h21v-31h-21v31zM481 -3h21v-35q0 -7 -4.5 -11.5t-11.5 -4.5h-25v21h20v30zM61 -33v-21h-35q-7 0 -11.5 4.5t-4.5 11.5v25h21v-20h30zM399 -33h31v-21h-31v21zM338 -33h31v-21h-31v21zM276 -33h31v-21h-31v21zM215 -33h31v-21h-31v21zM154 -33h30v-21h-30v21zM92 -33h31v-21
h-31v21z" />
    <glyph glyph-name="square" unicode="square" 
d="M0 448zM481 417h-450v-450h450v450zM486 438q7 0 11.5 -4.5t4.5 -11.5v-460q0 -7 -4.5 -11.5t-11.5 -4.5h-460q-7 0 -11.5 4.5t-4.5 11.5v460q0 7 4.5 11.5t11.5 4.5h460z" />
    <glyph glyph-name="stop" unicode="stop" 
d="M0 448zM338 269q8 0 14 -6t6 -15v-112q0 -9 -6 -15t-14 -6h-164q-8 0 -14 6t-6 15v112q0 6 2.5 10.5t7.5 7.5t10 3h164zM302 156v72q0 4 -3 7t-7 3h-72q-4 0 -7 -3t-3 -7v-72q0 -4 3 -7t7 -3h72q4 0 7 3t3 7z" />
    <glyph glyph-name="switch" unicode="switch" 
d="M0 448zM333 243q10 0 17.5 -7.5t7.5 -17.5v-62q0 -10 -7.5 -17.5t-17.5 -7.5h-154q-10 0 -17.5 7.5t-7.5 17.5v62q0 10 7.5 17.5t17.5 7.5h154zM266 157v59q0 7 -4.5 11.5t-10.5 4.5h-72q-4 0 -7.5 -2t-5.5 -6t-2 -8v-59q0 -6 4.5 -10.5t10.5 -4.5h72q6 0 10.5 4.5
t4.5 10.5z" />
    <glyph glyph-name="tablet" unicode="tablet" 
d="M0 448zM389 402q13 0 22 -9t9 -22v-358q0 -13 -9 -22t-22 -9h-266q-13 0 -22 9t-9 22v358q0 13 9 22t22 9h266zM396 6q3 3 3 7v358q0 4 -3 7t-7 3h-266q-4 0 -7 -3t-3 -7v-358q0 -4 3 -7t7 -3h266q4 0 7 3zM123 361h266v-317h-266v317zM266 23q0 -4 -3 -7t-7 -3t-7 3
t-3 7t3 7t7 3t7 -3t3 -7z" />
    <glyph glyph-name="tag" unicode="tag" 
d="M0 448zM353 220q-1 -11 -9 -19l-103 -104q-8 -8 -16 0l-64 64q-8 8 0 16l104 103q8 8 19 9l39 1q12 0 19 -8l4 -4q8 -8 8 -19zM303.5 239.5q5.5 -5.5 13 -5.5t13.5 5.5t6 13t-6 13t-13.5 5.5t-13 -5.5t-5.5 -13t5.5 -13z" />
    <glyph glyph-name="text" unicode="text" 
d="M0 448zM154 248v31h184v-31h-184zM154 197v31h204v-31h-204zM154 146v31h184v-31h-184zM154 95v30h204v-30h-204z" />
    <glyph glyph-name="think" unicode="think" 
d="M0 448zM56 -33.5q0 -7.5 -5.5 -13t-13 -5.5t-13 5.5t-5.5 13.5q0 3 1 5.5t2.5 5t4 4t5 2.5t5.5 1q8 0 13.5 -5.5t5.5 -13zM91 31q15 0 25 -10.5t10 -25t-10 -25t-25 -10.5t-25.5 10.5t-10.5 25t10.5 25t25.5 10.5zM91 -19q6 0 10.5 4.5t4.5 10.5t-4.5 10.5t-10.5 4.5
t-10.5 -4.5t-4.5 -10.5t4.5 -10.5t10.5 -4.5zM476 181q19 -27 19 -60q0 -37 -23.5 -65.5t-59.5 -37.5q-12 -28 -38 -45.5t-57 -17.5q-25 0 -46 11q-21 -10 -44 -10q-38 0 -67 23.5t-37 59.5h-5q-38 0 -64.5 26.5t-26.5 64.5q0 9 1 18q-10 19 -10 42q0 47 40 74q-3 14 -3 29
q0 55 39.5 94t95.5 39q36 0 67 -17q21 14 45 14q40 0 64 -32q13 5 26 5q30 0 51.5 -21t21.5 -51q0 -15 -6 -29q31 -27 31 -67q0 -25 -14 -47zM397 37q32 3 54.5 27t22.5 57q0 35 -25 60q20 19 20 47q0 13 -5 25t-13.5 21t-20.5 15q15 15 15 35q0 21 -15.5 36.5t-37.5 15.5
q-19 0 -33 -13q-5 12 -13 20.5t-19.5 13.5t-24.5 5q-26 0 -44 -18q-30 22 -68 22q-48 0 -81.5 -33t-33.5 -80q0 -21 7 -40q-19 -7 -31.5 -24.5t-12.5 -38.5q0 -22 12 -39q-3 -11 -3 -21q0 -30 21 -50.5t50 -20.5q12 0 24 4v-2q0 -35 24.5 -59.5t60.5 -24.5q24 0 44 12
q21 -13 46 -13q28 0 50.5 17t29.5 44z" />
    <glyph glyph-name="thumb-down" unicode="thumb&#x2d;down" 
d="M0 448zM386 215q14 -19 3 -41q-9 -18 -31 -18h-53h-26h-14q-10 -3 -10 -14t6 -17l9 -9t11 -10.5t9 -8.5q20 -20 22 -25q7 -15 0 -36q-6 -16 -22 -38l-176 143v120v52q0 19 4 27q8 15 35 21q40 8 128 17q20 2 31 3q15 1 22 -1q15 -4 20 -20.5t-1 -30.5q16 -4 22 -20.5
t-1 -30.5q19 -5 23 -27.5t-11 -35.5v0zM374 254q-3 5 -17 5h-14h-16v20h8q14 0 17 3q6 5 5 15.5t-10 11.5q-1 1 -17 1h-13v20q13 0 17 7q4 6 1 15t-11 9h-2q-20 0 -82 -8q-58 -7 -83 -12q-12 -3 -17 -6q-6 -4 -6 -15v-13v-49v-103v-4l152 -123q16 28 5 39q-5 5 -15.5 16
t-16.5 17q-20 19 -23 30q-5 21 9 36q2 3 6 5.5t6.5 3.5t7.5 1.5t7.5 0.5h8.5h7h57h13q15 0 15 15t-15 15h-19v21h26q9 0 12 10t-3 16v0z" />
    <glyph glyph-name="thumb" unicode="thumb" 
d="M0 448zM386 169v0q15 -13 11 -35.5t-23 -27.5q7 -14 1 -30.5t-22 -20.5q3 -10 3 -20t-6 -19t-16 -12q-7 -2 -22 -1q-11 1 -31 3q-88 9 -128 17q-27 6 -35 21q-4 8 -4 27v52v120l176 143q16 -22 22 -38q7 -21 0 -36q-2 -5 -22 -25l-13 -13t-16 -15q-6 -6 -6 -17t10 -14h14
h26h53q22 0 31 -18q11 -22 -3 -41zM374 130v0q6 6 3 16t-12 10h-26v21h19q15 0 15 15t-15 15h-13h-57h-7h-8.5t-7.5 0.5t-7.5 1.5t-6.5 3.5t-6 5.5q-14 15 -9 36q3 11 23 30q6 6 16.5 17t15.5 16q11 11 -5 39l-152 -123v-4v-103v-49v-13q0 -11 6 -15q5 -3 17 -6
q25 -5 83 -12q62 -8 82 -8h2q8 0 11 9t-1 15q-4 7 -17 7v20h13q16 0 17 1q9 1 10 11.5t-5 15.5q-3 3 -17 3h-8v20h16h14q14 0 17 5z" />
    <glyph glyph-name="touch-1" unicode="touch&#x2d;&#x31;" 
d="M0 448zM481 173v0v2q1 -9 -2 -37q-5 -49 -12 -99q-4 -31 -8 -46q-6 -21 -20 -28q-8 -3 -23 -3h-24h-50h-102l-67 127l46 103h34q3 0 3 3v3v22v47v51v26v22q2 14 14 21.5t26 6.5q15 -2 24 -12q8 -9 8 -39v-100q14 6 30 0t20 -22q14 7 30.5 1t20.5 -22q12 4 23 3t20 -9.5
t9 -20.5zM461 171v0q0 14 -17 12q-8 0 -12 -5q-2 -3 -2 -13h-18l-1 -1q-1 0 -1 1v11q0 18 -1 20q-2 6 -9 8t-13 -1q-3 -1 -5 -3t-2.5 -5.5t-1 -6t0 -7t0.5 -6.5h-19h-1t-1 1v1v11v22q0 10 -6 13q-9 5 -18 0q-6 -3 -6 -12v-24h-19h-2v12v22v93v27v22q-1 6 -7 9t-13 2
q-3 -1 -5.5 -3t-3.5 -4t-1.5 -5.5t-0.5 -6v-6.5v-6v-51v-202h-13h-6q-1 0 -1 12v70h-24l-36 -82l12.5 -25t13.5 -25q4 -7 11 -21t10 -21q6 -11 7 -13l1 -1t1 -1.5t12 -0.5h101h49q15 0 19.5 4.5t6.5 18.5q5 24 12 81q8 65 9 84v1z" />
    <glyph glyph-name="touch-2" unicode="touch&#x2d;&#x32;" 
d="M0 448zM246 -38h-6l-67 127l46 103h37v169q0 8 3 15q3 6 9 10q10 8 24 8q8 0 15 -3q1 7 3 13q4 6 9 10q10 8 24 8q10 0 19 -4q9 -5 14 -14q3 -7 3 -15v-167q7 3 15 3q10 0 19 -4q9 -5 14 -15q1 -2 2 -6q8 4 17 4q10 0 18 -4q10 -5 14 -14q3 -6 3 -13v-1v-1v-0.5v-1.5
q0 -6 -1 -23q-2 -13 -4 -34q-4 -40 -9 -75q-4 -25 -6 -36q-2 -10 -5 -17q-4 -9 -10 -14q-4 -4 -10 -6q-7 -2 -16 -2h-150h-24zM232 172l-36 -82l56 -108h168q6 0 10 2q3 1 5 4q1 2 2 5q2 4 3 12q4 16 10 59q5 41 8 74q3 22 3 32v1v1q0 3 -1 5t-3 3q-4 4 -11 4q-5 0 -9 -3
q-4 -2 -6 -5q-1 -2 -1 -4v-8h-20v28q0 3 -1 6q-1 2 -3 3q-5 4 -12 4q-5 0 -9 -3q-3 -2 -5 -5q-1 -2 -1 -5v-17h-21v17v197q0 3 -1 6q-1 2 -3 3q-4 4 -11 4q-5 0 -9 -2t-5 -5t-1 -6v-28v-174h-21v174q0 3 -1 5q-1 3 -3 4q-4 4 -11 4q-5 0 -9 -2t-5 -5q-2 -3 -2 -6v-261v-10
h-20v10v72h-24z" />
    <glyph glyph-name="touch-3" unicode="touch&#x2d;&#x33;" 
d="M0 448zM246 -38h-6l-67 127l46 103h37v135v34q0 19 17 28t34 2q1 15 12 23.5t26 7.5q15 0 24.5 -10t9.5 -24q15 7 31.5 0.5t18.5 -23.5q1 -3 1 -15v-75v-75q13 6 28.5 1.5t20.5 -18.5q3 -7 2 -23q-1 -11 -3 -30q-7 -71 -16 -121q-4 -26 -12 -35q-10 -12 -32 -12h-47h-125
zM232 172v-1l-36 -81l56 -108h2h103h50h13q11 0 15 6q3 4 6 16q7 39 16 121q2 17 3 32q1 18 -2 21q-4 5 -12.5 5t-12.5 -5q-3 -3 -3 -14h-20q0 7 -0.5 68.5t-0.5 80.5v17.5v17.5q0 17 -3 20q-8 7 -19 1q-8 -4 -8 -14v-180h-21v182v34q-1 10 -13 11t-16 -7q-1 -3 -1 -14v-20
v-11v-163h-21v174q0 10 -11.5 12.5t-17.5 -5.5q-2 -3 -2 -12v-29v-237h-20v82h-24z" />
    <glyph glyph-name="touch-4" unicode="touch&#x2d;&#x34;" 
d="M0 448zM481 279v0v-48v-67q-1 -25 -9 -87q-8 -61 -12 -80q-6 -26 -24 -33q-7 -2 -24 -2h-54h-118l-67 127l46 103h37v135v34q0 19 17 28t34 2q1 10 6.5 17t13.5 11t18 3q10 0 17.5 -4.5t12 -12.5t4.5 -17q11 6 25 3t21 -13q5 -8 5 -25v-22.5v-22.5q17 8 34 -1t17 -28z
M461 179v0v31v37.5v31.5q0 9 -10.5 11.5t-16.5 -3.5q-4 -3 -4 -12v-111h-20q0 7 -0.5 68.5t-0.5 80.5v17.5v17.5q0 17 -3 20q-8 7 -19 1q-8 -4 -8 -14v-30v-150h-21v182v34q-1 10 -13 11t-16 -7q-1 -3 -1 -14v-20v-11v-163h-21v174q0 10 -11.5 12.5t-17.5 -5.5q-2 -3 -2 -12
v-29v-96v-141h-20v82h-24l-36 -82l56 -108h1h104h50h13q11 0 15 6q3 5 6 17q4 24 12 83q7 62 8 82v9z" />
    <glyph glyph-name="touch-5" unicode="touch&#x2d;&#x35;" 
d="M0 448zM481 279v-113q-1 -24 -9 -86q-7 -58 -11 -79q-6 -28 -22 -35q-8 -4 -26 -4h-53h-119l-143 175q20 15 34 21q19 7 33 4q9 -2 25 -18q26 -25 30 -29q17 -19 31 -9q2 2 3.5 6t1.5 6.5v8.5v7v225q0 17 11 26q17 16 40 6q1 10 6.5 17t13.5 11t18 3q10 0 17.5 -4.5
t12 -12.5t4.5 -17q11 6 25 3t21 -13q5 -8 5 -25v-22.5v-22.5q17 8 34 -1t17 -28zM461 179v0v31v37.5v31.5q0 9 -10.5 11.5t-16.5 -3.5q-4 -3 -4 -12v-37v-74h-20q0 7 -0.5 68.5t-0.5 80.5v17.5v17.5q0 17 -3 20q-8 7 -19 1q-8 -4 -8 -14v-30v-150h-21v182v34q-1 10 -13 11
t-16 -7q-1 -3 -1 -14v-20v-11v-163h-21v162v15q-2 9 -14 10q-17 1 -17 -15v-29v-197q0 -25 -3 -31q-9 -19 -31 -19t-35 15q-2 3 -35 36q-11 10 -21 8q-10 -1 -23 -9l123 -151h156h13q11 0 15 6q3 5 6 17q5 26 13 91q7 59 7 83z" />
    <glyph glyph-name="touch" unicode="touch" 
d="M0 448zM481 173v-1v-1v-0.5v-1.5q0 -6 -1 -23q-2 -13 -4 -34q-4 -40 -10 -75q-3 -25 -5 -36q-2 -10 -5 -17q-4 -9 -10 -14q-4 -4 -10 -6q-7 -2 -16 -2h-150h-24h-5l-143 176l8 6q4 3 10 6q11 7 21 10t19 3q7 0 13 -2q7 -3 12.5 -8t17 -16.5l16.5 -16.5l8 -8q8 -9 17 -9
q7 0 12 4q4 3 4 8v246q0 8 3 15q3 6 9 10q10 8 24 8q10 0 18 -4q10 -5 14 -14q4 -7 4 -15v-118q7 3 15 3q10 0 19 -5t14 -14q1 -2 2 -5q7 3 16 3q10 0 19 -4q9 -5 14 -14q1 -3 2 -7q8 4 17 4q10 0 18 -4q10 -5 14 -14q3 -6 3 -13zM461 170v1q0 3 -1 6q-1 2 -3 3q-4 3 -11 3
q-5 1 -9 -2q-4 -2 -6 -5q-1 -2 -1 -4v-8h-20v28q0 3 -2 6q0 2 -2 3q-5 4 -12 4q-5 0 -9 -2q-3 -2 -5 -5q-1 -3 -1 -6v-17h-21v17v20q0 4 -1 6t-3 4q-4 3 -11 3q-5 0 -9 -2t-5 -5q-1 -2 -1 -6v-25h-21v25v149q0 3 -1 5q-1 3 -3 4q-4 4 -11 4q-5 0 -9 -2t-5 -5q-2 -3 -2 -6
v-246q0 -14 -11 -24q-10 -9 -25 -9q-19 0 -33 16q-1 2 -7 7q-7 8 -10 10q-18 18 -23 24q-2 2 -5 3t-6 1q-5 0 -12 -2q-6 -2 -12 -6l-4 -2l123 -151h169q6 0 10 2q3 1 5 4q1 2 2 5q2 4 3 12q4 16 10 59q5 41 8 74q3 22 3 32z" />
    <glyph glyph-name="trackpad" unicode="trackpad" 
d="M0 448zM348 84q4 0 7 -3t3 -7v-107q0 -5 -3 -8t-7 -3h-184q-4 0 -7 3t-3 8v107q0 4 3 7t7 3h184zM112 121h5v-6q0 -5 -3.5 -9t-9.5 -4h-53q-5 0 -9 4t-4 9v6h6q0 -8 7 -8h53q8 0 8 8zM468 121h6v-6q0 -5 -4 -9t-9 -4h-53q-4 0 -7 2t-4.5 5t-1.5 6v6h5q0 -8 8 -8h53
q7 0 7 8zM382 121h6v-6q0 -5 -4 -9t-9 -4h-238q-5 0 -9 4t-4 9v6h6q0 -8 7 -8h238q7 0 7 8zM51 149q-5 0 -9 3.5t-4 9.5v5h6q0 -7 7 -7h17q7 0 7 7h5v-5q0 -6 -3.5 -9.5t-8.5 -3.5h-17zM117 160q7 0 7 7h6v-5q0 -6 -4 -9.5t-9 -3.5h-17q-5 0 -8.5 3.5t-3.5 9.5v5h5
q0 -7 7 -7h17zM166 160q8 0 8 7h5v-5q0 -6 -4 -9.5t-9 -3.5h-16q-6 0 -9.5 3.5t-3.5 9.5v5h5q0 -7 8 -7h16zM215 160q8 0 8 7h5v-5q0 -6 -4 -9.5t-9 -3.5h-16q-6 0 -9.5 3.5t-3.5 9.5v5h5q0 -7 8 -7h16zM264 160q8 0 8 7h5v-5q0 -6 -4 -9.5t-9 -3.5h-16q-5 0 -9 3.5t-4 9.5
v5h5q0 -7 8 -7h16zM313 160q8 0 8 7h5v-5q0 -6 -3.5 -9.5t-9.5 -3.5h-16q-5 0 -9 3.5t-4 9.5v5h5q0 -7 8 -7h16zM362 160q8 0 8 7h5v-5q0 -6 -3.5 -9.5t-9.5 -3.5h-16q-5 0 -9 3.5t-4 9.5v5h5q0 -7 8 -7h16zM388 167q0 -7 7 -7h17q7 0 7 7h5v-5q0 -6 -3.5 -9.5t-8.5 -3.5
h-17q-3 0 -6 1.5t-5 4.5t-2 7v5h6zM468 167h6v-5q0 -6 -4 -9.5t-9 -3.5h-17q-5 0 -8.5 3.5t-3.5 9.5v5h5q0 -7 7 -7h17q7 0 7 7zM51 195q-5 0 -9 4t-4 9v6h6q0 -8 7 -8h41q8 0 8 8h5v-6q0 -5 -4 -9t-9 -4h-41zM125 195q-5 0 -9 4t-4 9v6h5q0 -8 8 -8h16q8 0 8 8h5v-6
q0 -5 -3.5 -9t-9.5 -4h-16zM174 195q-5 0 -9 4t-4 9v6h5q0 -8 8 -8h16q8 0 8 8h5v-6q0 -5 -3.5 -9t-9.5 -4h-16zM223 195q-5 0 -9 4t-4 9v6h6q0 -8 7 -8h17q7 0 7 8h5v-6q0 -5 -3.5 -9t-8.5 -4h-17zM272 195q-5 0 -8.5 4t-3.5 9v6h5q0 -8 7 -8h17q7 0 7 8h6v-6q0 -5 -4 -9
t-9 -4h-17zM322 195q-6 0 -9.5 4t-3.5 9v6h5q0 -8 8 -8h16q8 0 8 8h5v-6q0 -5 -4 -9t-9 -4h-16zM371 195q-6 0 -9.5 4t-3.5 9v6h5q0 -8 8 -8h16q8 0 8 8h5v-6q0 -5 -4 -9t-9 -4h-16zM468 214h6v-6q0 -5 -4 -9t-9 -4h-41q-5 0 -9 4t-4 9v6h5q0 -8 8 -8h41q7 0 7 8z" />
    <glyph glyph-name="type" unicode="type" 
d="M0 448zM364 284q6 0 10.5 -4.5t4.5 -10.5v-154q0 -6 -4.5 -10.5t-10.5 -4.5h-216q-6 0 -10.5 4.5t-4.5 10.5v154q0 6 4.5 10.5t10.5 4.5h216zM358 120v144h-204v-144h204zM241 145q-5 -4 -11 -4h-10v10h10q6 0 6 5v72q0 5 -6 5h-10v10h10q6 0 11 -4q4 4 10 4h10v-10h-10
q-5 0 -5 -5v-72q0 -5 5 -5h10v-10h-10q-6 0 -10 4zM182 177v33h-13v15h13v13h15v-13h13v-15h-13v-33q0 -3 3 -3h10v-15h-10q-8 0 -13 5t-5 13z" />
    <glyph glyph-name="unlock" unicode="unlock" 
d="M0 448zM364 278q5 -11 5 -24v-49h-31v49q0 6 -2 10q-1 4 -5 6q-7 7 -19 6q-8 1 -15 -3q-6 -3 -9 -9q-2 -4 -2 -10v-49h22v-100h-150v100h97v50q0 12 6 23q4 10 13 17q16 12 38 12q16 0 30 -7q15 -8 22 -22z" />
    <glyph glyph-name="up" unicode="up" 
d="M0 448zM219 229l44 49l43 -49q-2 -1 -4.5 -2t-10 -2t-10.5 4q-2 2 -8 10v-95q-5 2 -10 2t-10 -2v95q-3 -3 -4.5 -5.5t-3.5 -4.5q-4 -4 -10.5 -4t-10.5 2zM276 119.5q0 -5.5 -4 -9.5t-9.5 -4t-9 4t-3.5 9.5t3.5 9.5t9 4t9.5 -4t4 -9.5z" />
    <glyph glyph-name="video" unicode="video" 
d="M0 448zM369 305q4 0 7 -3t3 -8v-204q0 -5 -3 -8t-7 -3h-226q-4 0 -7 3t-3 8v204q0 5 3 8t7 3h226zM174 95v10q0 5 -5 5h-21q-5 0 -5 -5v-10q0 -5 5 -5h21q5 0 5 5zM174 125v11q0 5 -5 5h-21q-5 0 -5 -5v-11q0 -5 5 -5h21q5 0 5 5zM174 156v10q0 6 -5 6h-21q-5 0 -5 -6
v-10q0 -5 5 -5h21q5 0 5 5zM174 187v10q0 5 -5 5h-21q-5 0 -5 -5v-10q0 -5 5 -5h21q5 0 5 5zM174 218v10q0 5 -5 5h-21q-5 0 -5 -5v-10q0 -6 5 -6h21q5 0 5 6zM174 248v11q0 5 -5 5h-21q-5 0 -5 -5v-11q0 -5 5 -5h21q5 0 5 5zM174 279v10q0 5 -5 5h-21q-5 0 -5 -5v-10
q0 -5 5 -5h21q5 0 5 5zM303 183q9 4 0 8l-84 38q-4 2 -6.5 0t-2.5 -6v-72q0 -4 2.5 -6t6.5 0zM369 95v10q0 5 -5 5h-21q-5 0 -5 -5v-10q0 -5 5 -5h21q5 0 5 5zM369 125v11q0 5 -5 5h-21q-5 0 -5 -5v-11q0 -5 5 -5h21q5 0 5 5zM369 156v10q0 6 -5 6h-21q-5 0 -5 -6v-10
q0 -5 5 -5h21q5 0 5 5zM369 187v10q0 5 -5 5h-21q-5 0 -5 -5v-10q0 -5 5 -5h21q5 0 5 5zM369 218v10q0 5 -5 5h-21q-5 0 -5 -5v-10q0 -6 5 -6h21q5 0 5 6zM369 248v11q0 5 -5 5h-21q-5 0 -5 -5v-11q0 -5 5 -5h21q5 0 5 5zM369 279v10q0 5 -5 5h-21q-5 0 -5 -5v-10q0 -5 5 -5
h21q5 0 5 5z" />
    <glyph glyph-name="window" unicode="window" 
d="M0 448zM481 428q9 0 15 -6.5t6 -14.5v-389q0 -9 -6 -15t-15 -6h-450q-9 0 -15 6t-6 15v389q0 8 6 14.5t15 6.5h450zM481 18v328h-450v-328h450zM481 366v41h-450v-41h450zM123 386.5q0 -4.5 -3 -7.5t-7.5 -3t-7.5 3t-3 7.5t3 7.5t7.5 3t7.5 -3t3 -7.5zM92 386.5
q0 -4.5 -3 -7.5t-7 -3t-7 3t-3 7.5t3 7.5t7 3t7 -3t3 -7.5zM61 387q0 -3 -1 -5.5t-3.5 -4t-5.5 -1.5q-4 0 -7 3t-3 7.5t3 7.5t7 3t7 -3t3 -7z" />
    <glyph glyph-name="wrench" unicode="wrench" 
d="M0 448zM329 229l31 31q8 -29 -13 -51q-23 -22 -53 -12l-103 -104q-7 -7 -17 -7t-17 7t-7 17t7 17l104 103q-10 30 12 53q22 21 51 13l-31 -31l8 -28z" />
    <glyph glyph-name=".notdef" 
d="M17 0v341h136v-341h-136zM34 17h102v307h-102v-307z" />
    <glyph glyph-name=".null" horiz-adv-x="0" 
 />
    <glyph glyph-name="nonmarkingreturn" 
 />
    <glyph glyph-name="-" unicode="-" 
d="M0 0z" />
    <glyph glyph-name="1" unicode="1" 
d="M0 0z" />
    <glyph glyph-name="2" unicode="2" 
d="M0 0z" />
    <glyph glyph-name="3" unicode="3" 
d="M0 0z" />
    <glyph glyph-name="4" unicode="4" 
d="M0 0z" />
    <glyph glyph-name="5" unicode="5" 
d="M0 0z" />
    <glyph glyph-name="a" unicode="a" 
d="M0 0z" />
    <glyph glyph-name="b" unicode="b" 
d="M0 0z" />
    <glyph glyph-name="c" unicode="c" 
d="M0 0z" />
    <glyph glyph-name="d" unicode="d" 
d="M0 0z" />
    <glyph glyph-name="e" unicode="e" 
d="M0 0z" />
    <glyph glyph-name="f" unicode="f" 
d="M0 0z" />
    <glyph glyph-name="g" unicode="g" 
d="M0 0z" />
    <glyph glyph-name="h" unicode="h" 
d="M0 0z" />
    <glyph glyph-name="i" unicode="i" 
d="M0 0z" />
    <glyph glyph-name="k" unicode="k" 
d="M0 0z" />
    <glyph glyph-name="l" unicode="l" 
d="M0 0z" />
    <glyph glyph-name="m" unicode="m" 
d="M0 0z" />
    <glyph glyph-name="n" unicode="n" 
d="M0 0z" />
    <glyph glyph-name="o" unicode="o" 
d="M0 0z" />
    <glyph glyph-name="p" unicode="p" 
d="M0 0z" />
    <glyph glyph-name="q" unicode="q" 
d="M0 0z" />
    <glyph glyph-name="r" unicode="r" 
d="M0 0z" />
    <glyph glyph-name="s" unicode="s" 
d="M0 0z" />
    <glyph glyph-name="t" unicode="t" 
d="M0 0z" />
    <glyph glyph-name="u" unicode="u" 
d="M0 0z" />
    <glyph glyph-name="v" unicode="v" 
d="M0 0z" />
    <glyph glyph-name="w" unicode="w" 
d="M0 0z" />
    <glyph glyph-name="x" unicode="x" 
d="M0 0z" />
    <glyph glyph-name="y" unicode="y" 
d="M0 0z" />
    <glyph glyph-name="z" unicode="z" 
d="M0 0z" />
  </font>
</defs>
</svg>
