<?xml version="1.0" encoding="utf-8"?>
<!-- Generator: Adobe Illustrator 16.0.0, SVG Export Plug-In . SVG Version: 6.00 Build 0)  -->
<!DOCTYPE svg PUBLIC "-//W3C//DTD SVG 1.1 Tiny//EN" "http://www.w3.org/Graphics/SVG/1.1/DTD/svg11-tiny.dtd">
<svg version="1.1" baseProfile="tiny" id="Capa_1" xmlns="http://www.w3.org/2000/svg" xmlns:xlink="http://www.w3.org/1999/xlink"
	 x="0px" y="0px" width="100px" height="100px" viewBox="0 0 100 100" xml:space="preserve">
<g>
	<path d="M68,71H32c-1.1,0-2,0.9-2,2v21c0,1.1,0.9,2,2,2h36c1.1,0,2-0.9,2-2V73C70,71.9,69.1,71,68,71z"/>
	<path d="M21.9,63.87c0,0.82-0.68,1.5-1.5,1.5H10c-0.82,0-1.5-0.68-1.5-1.5h-1V65c0,1.38,1.12,2.5,2.5,2.5h10.4
		c1.38,0,2.5-1.12,2.5-2.5v-1.13H21.9z"/>
	<path d="M91.5,63.87c0,0.82-0.68,1.5-1.5,1.5H79.6c-0.82,0-1.5-0.68-1.5-1.5h-1V65c0,1.38,1.12,2.5,2.5,2.5H90
		c1.38,0,2.5-1.12,2.5-2.5v-1.13H91.5z"/>
	<path d="M74.7,63.87c0,0.82-0.68,1.5-1.5,1.5H26.8c-0.82,0-1.5-0.68-1.5-1.5h-1V65c0,1.38,1.12,2.5,2.5,2.5h46.4
		c1.38,0,2.5-1.12,2.5-2.5v-1.13H74.7z"/>
	<path d="M10,58.43h3.2c1.38,0,2.5-1.12,2.5-2.5V54.8h-1c0,0.82-0.68,1.5-1.5,1.5H10c-0.82,0-1.5-0.68-1.5-1.5h-1v1.13
		C7.5,57.31,8.62,58.43,10,58.43z"/>
	<path d="M22.8,56.3h-3.2c-0.82,0-1.5-0.68-1.5-1.5h-1v1.13c0,1.38,1.12,2.5,2.5,2.5h3.2c1.38,0,2.5-1.12,2.5-2.5V54.8h-0.5h-0.5
		C24.3,55.62,23.62,56.3,22.8,56.3z"/>
	<path d="M32.4,56.3h-3.2c-0.82,0-1.5-0.68-1.5-1.5h-1v1.13c0,1.38,1.12,2.5,2.5,2.5h3.2c1.38,0,2.5-1.12,2.5-2.5V54.8h-1
		C33.9,55.62,33.22,56.3,32.4,56.3z"/>
	<path d="M42,56.3h-3.2c-0.82,0-1.5-0.68-1.5-1.5h-1v1.13c0,1.38,1.12,2.5,2.5,2.5H42c1.38,0,2.5-1.12,2.5-2.5V54.8h-1
		C43.5,55.62,42.82,56.3,42,56.3z"/>
	<path d="M51.6,56.3h-3.2c-0.82,0-1.5-0.68-1.5-1.5h-1v1.13c0,1.38,1.12,2.5,2.5,2.5h3.2c1.38,0,2.5-1.12,2.5-2.5V54.8h-1
		C53.1,55.62,52.42,56.3,51.6,56.3z"/>
	<path d="M61.2,56.3H58c-0.82,0-1.5-0.68-1.5-1.5h-1v1.13c0,1.38,1.12,2.5,2.5,2.5h3.2c1.38,0,2.5-1.12,2.5-2.5V54.8h-1
		C62.7,55.62,62.02,56.3,61.2,56.3z"/>
	<path d="M70.8,56.3h-3.2c-0.82,0-1.5-0.68-1.5-1.5h-1v1.13c0,1.38,1.12,2.5,2.5,2.5h3.2c1.38,0,2.5-1.12,2.5-2.5V54.8h-1
		C72.3,55.62,71.62,56.3,70.8,56.3z"/>
	<path d="M75.7,54.8h-1v1.13c0,1.38,1.12,2.5,2.5,2.5h3.2c1.38,0,2.5-1.12,2.5-2.5V54.8h-1c0,0.82-0.68,1.5-1.5,1.5h-3.2
		C76.38,56.3,75.7,55.62,75.7,54.8z"/>
	<path d="M91.5,54.8c0,0.82-0.68,1.5-1.5,1.5h-3.2c-0.82,0-1.5-0.68-1.5-1.5h-1v1.13c0,1.38,1.12,2.5,2.5,2.5H90
		c1.38,0,2.5-1.12,2.5-2.5V54.8H91.5z"/>
	<path d="M10,49.37h8c1.38,0,2.5-1.12,2.5-2.5v-1.13h-1c0,0.82-0.68,1.5-1.5,1.5h-8c-0.82,0-1.5-0.68-1.5-1.5h-1v1.13
		C7.5,48.25,8.62,49.37,10,49.37z"/>
	<path d="M24.4,49.37h3.2c1.38,0,2.5-1.12,2.5-2.5v-1.13h-1c0,0.82-0.68,1.5-1.5,1.5h-3.2c-0.82,0-1.5-0.68-1.5-1.5h-1v1.13
		C21.9,48.25,23.02,49.37,24.4,49.37z"/>
	<path d="M34,49.37h3.2c1.38,0,2.5-1.12,2.5-2.5v-1.13h-1c0,0.82-0.68,1.5-1.5,1.5H34c-0.82,0-1.5-0.68-1.5-1.5h-1v1.13
		C31.5,48.25,32.62,49.37,34,49.37z"/>
	<path d="M43.6,49.37h3.2c1.38,0,2.5-1.12,2.5-2.5v-1.13h-1c0,0.82-0.68,1.5-1.5,1.5h-3.2c-0.82,0-1.5-0.68-1.5-1.5h-1v1.13
		C41.1,48.25,42.22,49.37,43.6,49.37z"/>
	<path d="M53.2,49.37h3.2c1.38,0,2.5-1.12,2.5-2.5v-1.13h-1c0,0.82-0.68,1.5-1.5,1.5h-3.2c-0.82,0-1.5-0.68-1.5-1.5h-1v1.13
		C50.7,48.25,51.82,49.37,53.2,49.37z"/>
	<path d="M62.8,49.37H66c1.38,0,2.5-1.12,2.5-2.5v-1.13h-1c0,0.82-0.68,1.5-1.5,1.5h-3.2c-0.82,0-1.5-0.68-1.5-1.5h-1v1.13
		C60.3,48.25,61.42,49.37,62.8,49.37z"/>
	<path d="M72.4,49.37h3.2c1.38,0,2.5-1.12,2.5-2.5v-1.13h-1c0,0.82-0.68,1.5-1.5,1.5h-3.2c-0.82,0-1.5-0.68-1.5-1.5h-1v1.13
		C69.9,48.25,71.02,49.37,72.4,49.37z"/>
	<path d="M91.5,45.73c0,0.82-0.68,1.5-1.5,1.5h-8c-0.82,0-1.5-0.68-1.5-1.5h-1v1.13c0,1.38,1.12,2.5,2.5,2.5h8
		c1.38,0,2.5-1.12,2.5-2.5v-1.13H91.5z"/>
</g>
</svg>
