<?xml version="1.0" encoding="utf-8"?>
<!-- Generator: Adobe Illustrator 16.0.0, SVG Export Plug-In . SVG Version: 6.00 Build 0)  -->
<!DOCTYPE svg PUBLIC "-//W3C//DTD SVG 1.1 Tiny//EN" "http://www.w3.org/Graphics/SVG/1.1/DTD/svg11-tiny.dtd">
<svg version="1.1" baseProfile="tiny" id="Capa_1" xmlns="http://www.w3.org/2000/svg" xmlns:xlink="http://www.w3.org/1999/xlink"
	 x="0px" y="0px" width="20px" height="100px" viewBox="0 0 20 100" xml:space="preserve">
<path d="M-679.33,160.77h-3.15c-0.37,0-0.66-0.09-0.88-0.27c-0.22-0.18-0.39-0.41-0.5-0.69l-2.81-7.27h-13.5l-2.81,7.27
	c-0.1,0.25-0.27,0.48-0.5,0.67s-0.53,0.29-0.88,0.29h-3.15l12.03-30.09h4.14L-679.33,160.77z M-699.05,149.59h11.24l-4.73-12.24
	c-0.31-0.76-0.61-1.7-0.9-2.83c-0.15,0.57-0.3,1.1-0.45,1.59c-0.15,0.48-0.29,0.91-0.43,1.27L-699.05,149.59z"/>
<path d="M-677.26,160.77v-30.09h9.6c1.85,0,3.44,0.18,4.78,0.55s2.44,0.88,3.3,1.55c0.86,0.67,1.5,1.5,1.91,2.47
	s0.62,2.07,0.62,3.29c0,0.74-0.12,1.46-0.35,2.14c-0.23,0.69-0.58,1.32-1.05,1.91s-1.06,1.11-1.76,1.57
	c-0.71,0.46-1.54,0.84-2.49,1.13c2.2,0.43,3.86,1.22,4.98,2.37c1.12,1.15,1.68,2.66,1.68,4.54c0,1.27-0.23,2.44-0.7,3.49
	s-1.15,1.95-2.06,2.71s-2.01,1.34-3.32,1.75c-1.31,0.41-2.8,0.62-4.48,0.62H-677.26z M-673.18,144.15h5.38
	c1.15,0,2.14-0.12,2.98-0.38c0.84-0.25,1.54-0.6,2.09-1.05c0.55-0.45,0.96-0.99,1.23-1.63c0.27-0.64,0.4-1.33,0.4-2.09
	c0-1.76-0.53-3.06-1.6-3.88s-2.72-1.24-4.96-1.24h-5.52V144.15z M-673.18,147.05v10.48h6.51c1.16,0,2.16-0.13,2.99-0.4
	s1.52-0.64,2.06-1.12c0.54-0.48,0.93-1.06,1.19-1.72c0.25-0.66,0.38-1.4,0.38-2.19c0-1.55-0.55-2.78-1.65-3.69
	c-1.1-0.9-2.76-1.35-4.99-1.35H-673.18z"/>
<path d="M-630.4,154.55c0.22,0,0.43,0.09,0.61,0.27l1.6,1.74c-1.23,1.43-2.73,2.54-4.48,3.34s-3.87,1.2-6.35,1.2
	c-2.17,0-4.14-0.37-5.9-1.12s-3.27-1.8-4.52-3.15s-2.21-2.97-2.9-4.86c-0.69-1.89-1.03-3.97-1.03-6.24s0.37-4.35,1.1-6.24
	c0.73-1.89,1.77-3.51,3.1-4.87c1.33-1.36,2.92-2.41,4.78-3.16c1.85-0.75,3.9-1.12,6.14-1.12c2.21,0,4.12,0.34,5.72,1.03
	c1.6,0.69,3.03,1.62,4.27,2.79l-1.32,1.87c-0.1,0.14-0.21,0.26-0.34,0.35s-0.31,0.14-0.55,0.14c-0.18,0-0.37-0.07-0.58-0.2
	c-0.2-0.13-0.44-0.3-0.72-0.49c-0.28-0.2-0.61-0.41-0.99-0.63c-0.38-0.22-0.83-0.43-1.34-0.63c-0.52-0.2-1.12-0.36-1.81-0.49
	s-1.48-0.2-2.37-0.2c-1.61,0-3.08,0.28-4.42,0.83s-2.49,1.34-3.45,2.36c-0.97,1.02-1.72,2.27-2.26,3.74
	c-0.54,1.47-0.81,3.12-0.81,4.93c0,1.88,0.27,3.55,0.81,5.02c0.54,1.47,1.27,2.71,2.21,3.73c0.93,1.01,2.03,1.79,3.31,2.32
	c1.27,0.53,2.65,0.8,4.12,0.8c0.9,0,1.7-0.05,2.42-0.16c0.71-0.11,1.38-0.27,1.98-0.49c0.61-0.22,1.18-0.51,1.7-0.85
	c0.52-0.34,1.05-0.75,1.59-1.23C-630.86,154.65-630.62,154.55-630.4,154.55z"/>
<path d="M-598.97,145.73c0,2.25-0.36,4.31-1.07,6.15s-1.72,3.43-3.02,4.75c-1.3,1.32-2.86,2.33-4.68,3.05
	c-1.82,0.72-3.84,1.08-6.05,1.08h-11.26v-30.09h11.26c2.21,0,4.23,0.36,6.05,1.08c1.82,0.72,3.38,1.74,4.68,3.07
	c1.3,1.32,2.31,2.91,3.02,4.76C-599.33,141.42-598.97,143.48-598.97,145.73z M-603.15,145.73c0-1.85-0.25-3.5-0.76-4.96
	c-0.5-1.46-1.22-2.69-2.14-3.7c-0.92-1.01-2.04-1.78-3.36-2.31c-1.32-0.53-2.78-0.8-4.39-0.8h-7.16v23.5h7.16
	c1.61,0,3.07-0.27,4.39-0.8c1.32-0.53,2.44-1.3,3.36-2.3c0.92-1,1.64-2.23,2.14-3.69C-603.4,149.23-603.15,147.58-603.15,145.73z"/>
<path d="M-577.54,130.67v3.32h-14.45v10h11.7v3.19h-11.7v10.27h14.45v3.32h-18.54v-30.09H-577.54z"/>
<path d="M-555.14,130.67v3.32h-14.45v10.52h12.35v3.32h-12.35v12.94h-4.1v-30.09H-555.14z"/>
<path d="M-537.99,157.8c0.81,0,1.56-0.04,2.24-0.12c0.68-0.08,1.32-0.19,1.92-0.35c0.6-0.15,1.17-0.34,1.7-0.56
	c0.53-0.22,1.06-0.47,1.6-0.75v-6.64h-4.66c-0.27,0-0.48-0.08-0.64-0.23c-0.16-0.15-0.24-0.34-0.24-0.57v-2.31h9.24v11.55
	c-0.76,0.55-1.54,1.02-2.36,1.43c-0.82,0.41-1.69,0.75-2.62,1.02c-0.93,0.27-1.93,0.48-2.99,0.61c-1.06,0.13-2.22,0.2-3.47,0.2
	c-2.18,0-4.19-0.37-6.01-1.12s-3.39-1.8-4.7-3.15s-2.34-2.97-3.08-4.86c-0.74-1.89-1.1-3.97-1.1-6.24c0-2.3,0.36-4.39,1.08-6.28
	c0.72-1.89,1.75-3.51,3.09-4.86c1.34-1.35,2.95-2.4,4.85-3.14c1.9-0.74,4.02-1.11,6.37-1.11c1.19,0,2.3,0.09,3.32,0.26
	c1.02,0.17,1.97,0.43,2.85,0.76c0.88,0.33,1.68,0.73,2.43,1.2c0.74,0.47,1.44,1,2.08,1.58l-1.16,1.85
	c-0.24,0.38-0.55,0.57-0.92,0.57c-0.22,0-0.47-0.08-0.73-0.23c-0.35-0.2-0.74-0.43-1.18-0.71c-0.43-0.28-0.96-0.55-1.59-0.81
	c-0.62-0.26-1.36-0.48-2.21-0.66c-0.85-0.18-1.85-0.27-3.01-0.27c-1.69,0-3.23,0.28-4.6,0.83c-1.37,0.55-2.54,1.34-3.51,2.37
	c-0.97,1.03-1.71,2.28-2.23,3.74c-0.52,1.46-0.78,3.11-0.78,4.92c0,1.9,0.27,3.6,0.81,5.09c0.54,1.49,1.3,2.75,2.28,3.79
	c0.98,1.04,2.14,1.83,3.49,2.37C-541.1,157.53-539.61,157.8-537.99,157.8z"/>
<path d="M-499.85,160.77h-4.1v-13.69h-16.21v13.69h-4.1v-30.09h4.1v13.42h16.21v-13.42h4.1V160.77z"/>
<path d="M-493.25,160.77h-4.07v-30.09h4.07V160.77z"/>
<path d="M-477.31,150.37c0,1.68-0.21,3.18-0.62,4.51c-0.41,1.33-1.02,2.45-1.83,3.37c-0.81,0.92-1.8,1.62-2.97,2.11
	c-1.18,0.49-2.53,0.74-4.05,0.74c-1.36,0-2.77-0.2-4.24-0.59c0.03-0.41,0.06-0.81,0.11-1.21c0.04-0.4,0.08-0.79,0.13-1.19
	c0.03-0.24,0.12-0.43,0.26-0.58s0.37-0.22,0.66-0.22c0.25,0,0.59,0.06,1.01,0.19s0.98,0.19,1.68,0.19c0.92,0,1.75-0.14,2.47-0.42
	c0.72-0.28,1.33-0.71,1.83-1.3c0.5-0.59,0.88-1.34,1.13-2.26c0.26-0.92,0.39-2.01,0.39-3.27v-19.78h4.05V150.37z"/>
<path d="M-471.33,143.86h1.53c0.53,0,0.96-0.07,1.27-0.2c0.31-0.13,0.61-0.36,0.89-0.68l10.02-11.34c0.31-0.35,0.61-0.6,0.89-0.75
	c0.29-0.15,0.65-0.22,1.1-0.22h3.46l-11.46,12.96c-0.29,0.32-0.57,0.6-0.83,0.82c-0.26,0.22-0.54,0.41-0.83,0.54
	c0.39,0.13,0.74,0.32,1.03,0.57s0.6,0.57,0.92,0.95l11.97,14.26h-3.53c-0.27,0-0.49-0.02-0.67-0.06c-0.18-0.04-0.34-0.1-0.47-0.17
	c-0.13-0.07-0.25-0.16-0.37-0.27s-0.22-0.23-0.34-0.36l-10.39-11.95c-0.15-0.17-0.3-0.31-0.43-0.43c-0.13-0.12-0.29-0.22-0.46-0.3
	c-0.18-0.08-0.38-0.14-0.61-0.18c-0.23-0.03-0.51-0.05-0.85-0.05h-1.85v13.78h-4.05v-30.09h4.05V143.86z"/>
<path d="M-444.77,157.34h13.02v3.42h-17.1v-30.09h4.07V157.34z"/>
<path d="M-413.57,150.95c0.15,0.37,0.29,0.75,0.43,1.12c0.14-0.39,0.29-0.77,0.44-1.12s0.33-0.72,0.53-1.08l10.18-18.5
	c0.18-0.32,0.37-0.52,0.57-0.59c0.2-0.07,0.47-0.1,0.84-0.1h3v30.09h-3.57v-22.11c0-0.29,0.01-0.61,0.02-0.95s0.04-0.68,0.06-1.03
	l-10.31,18.82c-0.35,0.63-0.84,0.95-1.47,0.95h-0.59c-0.63,0-1.12-0.31-1.47-0.95l-10.54-18.88c0.04,0.37,0.07,0.72,0.1,1.07
	c0.02,0.35,0.03,0.67,0.03,0.97v22.11h-3.57v-30.09h3c0.36,0,0.64,0.03,0.84,0.1c0.2,0.07,0.38,0.27,0.57,0.59l10.39,18.52
	C-413.88,150.22-413.71,150.58-413.57,150.95z"/>
<path d="M-390.87,130.81c0.17,0.09,0.37,0.28,0.6,0.56l17.43,22.68c-0.04-0.36-0.07-0.72-0.08-1.06s-0.02-0.67-0.02-1v-21.32h3.57
	v30.09h-2.06c-0.32,0-0.59-0.06-0.81-0.17s-0.43-0.3-0.64-0.57l-17.41-22.66c0.03,0.35,0.05,0.69,0.06,1.03
	c0.01,0.34,0.02,0.64,0.02,0.92v21.44h-3.57v-30.09h2.1C-391.31,130.67-391.04,130.72-390.87,130.81z"/>
<path d="M-362.24,130.81c0.17,0.09,0.37,0.28,0.6,0.56l17.43,22.68c-0.04-0.36-0.07-0.72-0.08-1.06s-0.02-0.67-0.02-1v-21.32h3.57
	v30.09h-2.06c-0.32,0-0.59-0.06-0.81-0.17s-0.43-0.3-0.64-0.57l-17.41-22.66c0.03,0.35,0.05,0.69,0.06,1.03
	c0.01,0.34,0.02,0.64,0.02,0.92v21.44h-3.57v-30.09h2.1C-362.68,130.67-362.42,130.72-362.24,130.81z M-349.88,125.84
	c0.49,0,0.87-0.14,1.12-0.43c0.26-0.29,0.39-0.69,0.41-1.21h2.06c0,0.6-0.08,1.15-0.23,1.66c-0.15,0.5-0.38,0.94-0.67,1.31
	c-0.29,0.37-0.66,0.66-1.09,0.86c-0.43,0.2-0.93,0.3-1.49,0.3c-0.49,0-0.96-0.09-1.41-0.27c-0.45-0.18-0.88-0.38-1.29-0.6
	c-0.41-0.22-0.8-0.42-1.16-0.6c-0.37-0.18-0.71-0.27-1.05-0.27c-0.48,0-0.84,0.15-1.1,0.45c-0.26,0.3-0.4,0.7-0.41,1.21h-2.1
	c0-0.6,0.08-1.16,0.24-1.67c0.16-0.51,0.39-0.95,0.69-1.31c0.3-0.36,0.67-0.65,1.11-0.86c0.44-0.21,0.94-0.31,1.48-0.31
	c0.49,0,0.96,0.09,1.41,0.27c0.45,0.18,0.88,0.38,1.28,0.6c0.41,0.22,0.79,0.42,1.16,0.6
	C-350.57,125.75-350.22,125.84-349.88,125.84z"/>
<path d="M-309.17,145.73c0,2.25-0.36,4.32-1.07,6.21c-0.71,1.88-1.72,3.5-3.02,4.86c-1.3,1.36-2.87,2.41-4.69,3.16
	c-1.83,0.75-3.85,1.12-6.06,1.12c-2.21,0-4.23-0.38-6.05-1.12c-1.82-0.75-3.38-1.8-4.68-3.16c-1.3-1.36-2.31-2.98-3.03-4.86
	c-0.71-1.88-1.07-3.95-1.07-6.21c0-2.25,0.36-4.32,1.07-6.21c0.71-1.88,1.72-3.51,3.03-4.87c1.3-1.37,2.86-2.43,4.68-3.18
	s3.84-1.13,6.05-1.13c2.21,0,4.23,0.38,6.06,1.13c1.83,0.76,3.39,1.82,4.69,3.18c1.3,1.37,2.31,2.99,3.02,4.87
	C-309.53,141.41-309.17,143.48-309.17,145.73z M-313.35,145.73c0-1.85-0.25-3.51-0.76-4.98c-0.5-1.47-1.22-2.71-2.14-3.73
	s-2.04-1.8-3.36-2.34c-1.32-0.55-2.79-0.82-4.41-0.82c-1.61,0-3.07,0.27-4.39,0.82c-1.32,0.55-2.44,1.33-3.37,2.34
	s-1.65,2.26-2.15,3.73c-0.5,1.47-0.76,3.13-0.76,4.98c0,1.85,0.25,3.5,0.76,4.97s1.22,2.7,2.15,3.72s2.05,1.79,3.37,2.33
	c1.31,0.54,2.78,0.81,4.39,0.81c1.62,0,3.09-0.27,4.41-0.81c1.31-0.54,2.44-1.32,3.36-2.33s1.64-2.25,2.14-3.72
	S-313.35,147.58-313.35,145.73z"/>
<path d="M-302.79,149.51v11.26h-4.05v-30.09h8.88c1.9,0,3.56,0.22,4.97,0.66s2.57,1.07,3.5,1.88s1.61,1.79,2.07,2.94
	c0.46,1.15,0.68,2.43,0.68,3.84c0,1.4-0.25,2.68-0.74,3.84s-1.21,2.16-2.15,3c-0.94,0.84-2.12,1.5-3.52,1.96
	c-1.4,0.47-3,0.7-4.81,0.7H-302.79z M-302.79,146.28h4.83c1.16,0,2.19-0.15,3.08-0.46c0.89-0.31,1.63-0.74,2.24-1.29
	c0.6-0.55,1.06-1.21,1.37-1.98c0.31-0.77,0.46-1.62,0.46-2.54c0-1.92-0.59-3.42-1.78-4.49c-1.18-1.08-2.97-1.62-5.37-1.62h-4.83
	V146.28z"/>
<path d="M-255.78,145.73c0,1.42-0.14,2.76-0.43,4.03c-0.29,1.27-0.71,2.46-1.25,3.56c-0.55,1.1-1.21,2.1-2,2.99
	c-0.78,0.9-1.67,1.67-2.64,2.33l7.73,8.34h-3.36c-0.5,0-0.95-0.07-1.34-0.21s-0.75-0.38-1.07-0.73l-5.29-5.75
	c-0.8,0.25-1.63,0.45-2.49,0.59c-0.86,0.14-1.76,0.21-2.7,0.21c-2.21,0-4.23-0.38-6.05-1.12c-1.82-0.75-3.38-1.8-4.68-3.16
	s-2.31-2.98-3.02-4.86c-0.71-1.88-1.07-3.95-1.07-6.21c0-2.25,0.36-4.32,1.07-6.21c0.71-1.88,1.72-3.51,3.02-4.87
	s2.86-2.43,4.68-3.18c1.82-0.76,3.84-1.13,6.05-1.13c2.21,0,4.23,0.38,6.06,1.13c1.83,0.76,3.39,1.82,4.69,3.18
	c1.3,1.37,2.31,2.99,3.03,4.87C-256.14,141.41-255.78,143.48-255.78,145.73z M-259.96,145.73c0-1.85-0.25-3.51-0.76-4.98
	c-0.5-1.47-1.22-2.71-2.14-3.73c-0.93-1.02-2.04-1.8-3.36-2.34s-2.79-0.82-4.41-0.82c-1.61,0-3.07,0.27-4.39,0.82
	s-2.44,1.33-3.37,2.34c-0.93,1.02-1.65,2.26-2.15,3.73c-0.5,1.47-0.76,3.13-0.76,4.98c0,1.85,0.25,3.5,0.76,4.97s1.22,2.7,2.15,3.72
	c0.93,1.01,2.05,1.79,3.37,2.33s2.78,0.81,4.39,0.81c1.62,0,3.09-0.27,4.41-0.81s2.44-1.32,3.36-2.33c0.92-1.01,1.64-2.25,2.14-3.72
	S-259.96,147.58-259.96,145.73z"/>
<path d="M-247.99,148.21v12.56h-4.05v-30.09h8.51c1.9,0,3.55,0.19,4.93,0.58c1.39,0.38,2.53,0.94,3.43,1.67
	c0.9,0.73,1.57,1.61,2.01,2.63c0.43,1.03,0.65,2.18,0.65,3.46c0,1.06-0.17,2.06-0.5,2.98c-0.34,0.92-0.82,1.75-1.46,2.49
	c-0.64,0.73-1.41,1.36-2.33,1.88c-0.92,0.52-1.96,0.91-3.12,1.18c0.5,0.29,0.95,0.72,1.34,1.28l8.78,11.95h-3.61
	c-0.74,0-1.29-0.29-1.64-0.86l-7.81-10.75c-0.24-0.34-0.5-0.58-0.78-0.72c-0.28-0.15-0.7-0.22-1.26-0.22H-247.99z M-247.99,145.25
	h4.26c1.19,0,2.24-0.14,3.14-0.43c0.9-0.29,1.66-0.69,2.27-1.22c0.61-0.52,1.07-1.15,1.38-1.88c0.31-0.73,0.46-1.53,0.46-2.42
	c0-1.79-0.59-3.14-1.77-4.05c-1.18-0.91-2.94-1.36-5.28-1.36h-4.45V145.25z"/>
<path d="M-209.12,135.38c-0.13,0.21-0.26,0.37-0.4,0.47c-0.14,0.1-0.32,0.16-0.54,0.16c-0.24,0-0.52-0.12-0.83-0.36
	c-0.31-0.24-0.71-0.5-1.2-0.79s-1.06-0.55-1.74-0.79c-0.68-0.24-1.5-0.36-2.47-0.36c-0.91,0-1.71,0.12-2.41,0.37
	c-0.7,0.25-1.29,0.58-1.75,1s-0.82,0.91-1.06,1.48c-0.24,0.57-0.36,1.18-0.36,1.84c0,0.84,0.21,1.54,0.62,2.09
	c0.41,0.55,0.96,1.03,1.64,1.42c0.68,0.39,1.45,0.73,2.31,1.02s1.74,0.58,2.65,0.89c0.9,0.31,1.79,0.65,2.64,1.04
	c0.86,0.39,1.63,0.87,2.31,1.46c0.68,0.59,1.22,1.31,1.64,2.16c0.41,0.85,0.62,1.9,0.62,3.15c0,1.32-0.22,2.55-0.67,3.71
	c-0.45,1.16-1.1,2.16-1.96,3.01c-0.86,0.85-1.92,1.53-3.17,2.02c-1.25,0.49-2.68,0.74-4.27,0.74c-1.95,0-3.72-0.35-5.32-1.06
	c-1.6-0.71-2.97-1.66-4.11-2.87l1.18-1.93c0.11-0.15,0.25-0.28,0.41-0.39c0.16-0.1,0.34-0.16,0.54-0.16c0.29,0,0.63,0.16,1.01,0.47
	c0.38,0.32,0.85,0.66,1.42,1.04c0.57,0.38,1.25,0.72,2.06,1.04s1.79,0.47,2.95,0.47c0.96,0,1.83-0.13,2.58-0.4
	c0.76-0.27,1.4-0.64,1.92-1.12s0.93-1.06,1.21-1.73c0.28-0.67,0.42-1.42,0.42-2.25c0-0.91-0.21-1.66-0.62-2.24
	c-0.41-0.58-0.96-1.07-1.63-1.46s-1.44-0.72-2.3-1s-1.74-0.55-2.64-0.84c-0.9-0.29-1.79-0.62-2.65-1s-1.63-0.87-2.3-1.47
	c-0.67-0.6-1.21-1.35-1.63-2.26c-0.41-0.9-0.62-2.02-0.62-3.35c0-1.06,0.21-2.09,0.62-3.09c0.41-0.99,1.01-1.88,1.79-2.65
	c0.79-0.77,1.75-1.38,2.91-1.85c1.15-0.46,2.48-0.69,3.98-0.69c1.68,0,3.21,0.27,4.6,0.8c1.38,0.53,2.6,1.3,3.63,2.31
	L-209.12,135.38z"/>
<path d="M-182.25,130.67v3.42h-9.72v26.67h-4.07V134.1h-9.76v-3.42H-182.25z"/>
<path d="M-167.13,157.53c1.25,0,2.36-0.21,3.34-0.63c0.98-0.42,1.81-1.01,2.49-1.76s1.2-1.66,1.55-2.71s0.54-2.21,0.54-3.46v-18.29
	h4.05v18.29c0,1.74-0.28,3.35-0.83,4.83c-0.55,1.48-1.34,2.77-2.37,3.85c-1.03,1.09-2.29,1.94-3.77,2.55
	c-1.48,0.62-3.15,0.92-5,0.92c-1.85,0-3.51-0.31-5-0.92c-1.48-0.62-2.74-1.47-3.78-2.55c-1.04-1.08-1.83-2.37-2.38-3.85
	c-0.55-1.48-0.83-3.09-0.83-4.83v-18.29h4.05v18.27c0,1.26,0.18,2.42,0.54,3.47c0.36,1.05,0.88,1.95,1.55,2.71s1.51,1.35,2.5,1.77
	C-169.5,157.32-168.38,157.53-167.13,157.53z"/>
<path d="M-152.04,130.67h3.25c0.37,0,0.66,0.09,0.88,0.27c0.22,0.18,0.39,0.41,0.5,0.69l8.51,21.23c0.2,0.48,0.37,0.99,0.54,1.55
	c0.16,0.56,0.32,1.14,0.47,1.74c0.12-0.6,0.26-1.18,0.41-1.74c0.15-0.56,0.32-1.08,0.52-1.55l8.46-21.23
	c0.1-0.24,0.27-0.46,0.5-0.66c0.24-0.2,0.53-0.3,0.88-0.3h3.28l-12.26,30.09h-3.68L-152.04,130.67z"/>
<path d="M-122.84,130.67h3.38c0.36,0,0.66,0.09,0.9,0.27c0.24,0.18,0.4,0.41,0.48,0.69l6.22,20.92c0.11,0.38,0.21,0.78,0.3,1.22
	c0.09,0.43,0.18,0.89,0.26,1.37c0.1-0.48,0.2-0.93,0.29-1.38c0.1-0.44,0.21-0.84,0.34-1.21l7.08-20.92
	c0.08-0.24,0.25-0.46,0.49-0.66c0.24-0.2,0.54-0.3,0.89-0.3h1.18c0.36,0,0.66,0.09,0.89,0.27c0.23,0.18,0.4,0.41,0.49,0.69
	l7.04,20.92c0.25,0.73,0.47,1.56,0.67,2.5c0.08-0.46,0.16-0.9,0.23-1.32s0.16-0.81,0.27-1.18l6.24-20.92
	c0.07-0.25,0.23-0.48,0.47-0.67s0.54-0.29,0.89-0.29h3.17l-9.39,30.09h-3.65l-7.62-22.95c-0.15-0.43-0.29-0.94-0.42-1.51
	c-0.07,0.28-0.14,0.55-0.2,0.81c-0.06,0.26-0.13,0.49-0.2,0.7l-7.66,22.95h-3.65L-122.84,130.67z"/>
<path d="M-69.3,145.31l-9.93-14.64h4.05c0.29,0,0.51,0.05,0.65,0.15c0.14,0.1,0.27,0.24,0.38,0.42l7.86,12.05
	c0.1-0.29,0.24-0.62,0.44-0.96l7.41-11c0.12-0.2,0.26-0.35,0.41-0.47c0.15-0.12,0.33-0.18,0.54-0.18h3.88l-9.97,14.45l10.31,15.64
	h-4.03c-0.31,0-0.55-0.08-0.72-0.24c-0.17-0.16-0.32-0.34-0.43-0.54l-8.06-12.62c-0.1,0.29-0.22,0.57-0.38,0.84l-7.86,11.78
	c-0.12,0.2-0.27,0.38-0.43,0.54s-0.39,0.24-0.68,0.24h-3.78L-69.3,145.31z"/>
<path d="M-37.79,148.79v11.97h-4.05v-11.97l-11.03-18.12h3.57c0.36,0,0.65,0.09,0.86,0.27c0.21,0.18,0.39,0.41,0.55,0.67l6.89,11.7
	c0.28,0.49,0.51,0.95,0.7,1.39c0.19,0.43,0.36,0.86,0.51,1.28c0.15-0.43,0.32-0.87,0.5-1.3s0.41-0.89,0.69-1.37l6.87-11.7
	c0.13-0.22,0.3-0.44,0.51-0.64c0.22-0.2,0.5-0.3,0.85-0.3h3.61L-37.79,148.79z"/>
<path d="M-2.03,130.67v1.51c0,0.48-0.15,0.92-0.44,1.34l-17.03,23.92h17.18v3.32h-22.51v-1.6c0-0.42,0.13-0.82,0.4-1.2l17.05-23.98
	h-16.65v-3.32H-2.03z"/>
<path d="M-689.16,60.03h-1.66c-0.36,0-0.66-0.06-0.88-0.17c-0.22-0.11-0.37-0.35-0.44-0.71l-0.42-1.97
	c-0.56,0.51-1.11,0.96-1.64,1.36s-1.09,0.73-1.68,1.01c-0.59,0.27-1.21,0.48-1.88,0.62c-0.67,0.14-1.4,0.21-2.22,0.21
	c-0.83,0-1.6-0.12-2.32-0.35c-0.72-0.23-1.35-0.58-1.88-1.04c-0.53-0.46-0.96-1.05-1.27-1.76c-0.31-0.71-0.47-1.55-0.47-2.52
	c0-0.84,0.23-1.65,0.69-2.43c0.46-0.78,1.21-1.47,2.24-2.08c1.03-0.6,2.38-1.1,4.04-1.49c1.67-0.39,3.7-0.58,6.11-0.58v-1.67
	c0-1.66-0.35-2.92-1.06-3.77c-0.71-0.85-1.75-1.28-3.14-1.28c-0.91,0-1.68,0.12-2.3,0.35c-0.62,0.23-1.16,0.49-1.62,0.78
	c-0.46,0.29-0.85,0.55-1.18,0.78c-0.33,0.23-0.65,0.35-0.98,0.35c-0.25,0-0.47-0.07-0.66-0.2s-0.34-0.3-0.45-0.49l-0.67-1.2
	c1.18-1.13,2.44-1.98,3.8-2.54c1.36-0.56,2.86-0.84,4.51-0.84c1.19,0,2.25,0.2,3.17,0.59c0.92,0.39,1.7,0.94,2.33,1.64
	c0.63,0.7,1.11,1.55,1.43,2.54c0.32,0.99,0.48,2.09,0.48,3.28V60.03z M-698.86,57.74c0.66,0,1.26-0.07,1.81-0.2s1.06-0.32,1.54-0.57
	c0.48-0.24,0.95-0.54,1.39-0.89c0.44-0.35,0.87-0.75,1.29-1.2V50.5c-1.72,0-3.19,0.11-4.39,0.33s-2.18,0.5-2.94,0.86
	s-1.31,0.77-1.65,1.25c-0.34,0.48-0.51,1.01-0.51,1.61c0,0.56,0.09,1.05,0.27,1.46c0.18,0.41,0.43,0.74,0.73,1s0.67,0.45,1.09,0.57
	S-699.35,57.74-698.86,57.74z"/>
<path d="M-684.38,60.08V29.14h3.76v12.73c0.88-1.02,1.89-1.84,3.03-2.47c1.14-0.62,2.45-0.93,3.92-0.93c1.23,0,2.34,0.23,3.34,0.69
	c0.99,0.46,1.84,1.15,2.54,2.07c0.7,0.92,1.24,2.05,1.62,3.4c0.38,1.35,0.57,2.91,0.57,4.67c0,1.57-0.21,3.03-0.63,4.38
	c-0.42,1.35-1.03,2.52-1.82,3.51c-0.79,0.99-1.76,1.76-2.9,2.33c-1.14,0.57-2.43,0.85-3.85,0.85c-1.37,0-2.54-0.27-3.5-0.8
	s-1.8-1.27-2.51-2.23l-0.19,1.93c-0.11,0.53-0.43,0.8-0.97,0.8H-684.38z M-674.89,41.45c-1.22,0-2.29,0.28-3.2,0.84
	c-0.92,0.56-1.76,1.35-2.53,2.37v10.29c0.67,0.92,1.42,1.58,2.24,1.95s1.73,0.57,2.74,0.57c1.99,0,3.51-0.71,4.58-2.12
	s1.6-3.43,1.6-6.05c0-1.39-0.12-2.58-0.37-3.57s-0.6-1.81-1.06-2.45c-0.46-0.64-1.03-1.1-1.7-1.4
	C-673.27,41.59-674.03,41.45-674.89,41.45z"/>
<path d="M-646.59,42.58c-0.11,0.15-0.22,0.27-0.34,0.36s-0.27,0.13-0.48,0.13s-0.44-0.09-0.68-0.26c-0.25-0.17-0.56-0.37-0.93-0.58
	s-0.84-0.4-1.38-0.58c-0.54-0.17-1.2-0.26-1.98-0.26c-1.04,0-1.95,0.19-2.75,0.56c-0.8,0.37-1.47,0.91-2.01,1.61
	c-0.54,0.7-0.94,1.55-1.22,2.54c-0.27,0.99-0.41,2.11-0.41,3.34c0,1.29,0.15,2.43,0.44,3.43c0.29,1,0.71,1.84,1.24,2.52
	s1.18,1.2,1.94,1.55c0.76,0.36,1.62,0.54,2.57,0.54c0.91,0,1.66-0.11,2.25-0.33c0.59-0.22,1.08-0.46,1.47-0.72
	c0.39-0.27,0.71-0.51,0.97-0.72c0.25-0.22,0.5-0.33,0.76-0.33c0.32,0,0.56,0.12,0.71,0.36l1.05,1.36c-0.92,1.13-2.08,1.96-3.46,2.49
	c-1.39,0.52-2.85,0.79-4.39,0.79c-1.33,0-2.57-0.25-3.71-0.74c-1.14-0.49-2.13-1.2-2.97-2.13c-0.84-0.93-1.5-2.08-1.99-3.43
	c-0.48-1.36-0.72-2.91-0.72-4.64c0-1.58,0.22-3.04,0.66-4.39s1.08-2.5,1.93-3.48c0.85-0.97,1.89-1.73,3.14-2.28s2.67-0.82,4.28-0.82
	c1.48,0,2.8,0.24,3.95,0.72c1.15,0.48,2.16,1.17,3.04,2.05L-646.59,42.58z"/>
<path d="M-626.44,60.08c-0.53,0-0.87-0.26-1.01-0.78l-0.34-2.58c-0.91,1.11-1.95,1.99-3.12,2.66s-2.51,1-4.02,1
	c-1.22,0-2.32-0.23-3.32-0.7s-1.84-1.16-2.54-2.07s-1.24-2.04-1.62-3.4c-0.38-1.36-0.57-2.92-0.57-4.68c0-1.57,0.21-3.03,0.63-4.38
	c0.42-1.35,1.03-2.52,1.82-3.52s1.75-1.77,2.89-2.34c1.13-0.57,2.42-0.85,3.86-0.85c1.3,0,2.42,0.22,3.34,0.66
	c0.92,0.44,1.75,1.06,2.48,1.86v-11.8h3.74v30.93H-626.44z M-633.68,57.34c1.22,0,2.29-0.28,3.2-0.84c0.92-0.56,1.76-1.35,2.53-2.37
	V43.84c-0.69-0.92-1.44-1.57-2.26-1.94c-0.82-0.37-1.73-0.56-2.72-0.56c-1.99,0-3.51,0.71-4.58,2.12c-1.06,1.41-1.6,3.43-1.6,6.05
	c0,1.39,0.12,2.57,0.36,3.56c0.24,0.99,0.59,1.8,1.05,2.44c0.46,0.64,1.03,1.1,1.7,1.4S-634.55,57.34-633.68,57.34z"/>
<path d="M-610.52,38.47c1.27,0,2.45,0.21,3.53,0.64c1.08,0.43,2.01,1.04,2.79,1.85c0.78,0.8,1.4,1.8,1.84,2.98
	c0.44,1.18,0.66,2.53,0.66,4.04c0,0.59-0.06,0.98-0.19,1.18s-0.36,0.29-0.71,0.29h-14.15c0.03,1.34,0.21,2.51,0.55,3.51
	s0.8,1.82,1.39,2.49c0.59,0.67,1.29,1.16,2.1,1.49c0.81,0.33,1.72,0.49,2.73,0.49c0.94,0,1.75-0.11,2.42-0.33
	c0.68-0.22,1.26-0.45,1.75-0.7s0.9-0.49,1.23-0.7c0.33-0.22,0.61-0.33,0.85-0.33c0.31,0,0.54,0.12,0.71,0.36l1.05,1.36
	c-0.46,0.56-1.02,1.05-1.66,1.46s-1.33,0.75-2.07,1.02s-1.5,0.47-2.28,0.6c-0.79,0.13-1.56,0.2-2.33,0.2
	c-1.47,0-2.82-0.25-4.06-0.75c-1.24-0.5-2.31-1.23-3.21-2.18c-0.9-0.96-1.61-2.15-2.11-3.56s-0.76-3.04-0.76-4.87
	c0-1.48,0.23-2.87,0.68-4.16s1.11-2.41,1.96-3.35c0.85-0.95,1.9-1.69,3.13-2.23C-613.45,38.74-612.06,38.47-610.52,38.47z
	 M-610.44,41.22c-1.81,0-3.23,0.52-4.26,1.56c-1.04,1.04-1.68,2.49-1.93,4.34h11.57c0-0.87-0.12-1.66-0.36-2.38
	c-0.24-0.72-0.59-1.34-1.05-1.87c-0.46-0.52-1.03-0.93-1.69-1.22C-608.82,41.36-609.58,41.22-610.44,41.22z"/>
<path d="M-594.46,60V41.92l-2.35-0.27c-0.29-0.07-0.54-0.18-0.72-0.33c-0.19-0.15-0.28-0.36-0.28-0.64v-1.53h3.36v-2.06
	c0-1.22,0.17-2.3,0.51-3.24c0.34-0.95,0.83-1.74,1.47-2.39c0.64-0.65,1.4-1.14,2.3-1.48s1.9-0.5,3.02-0.5
	c0.95,0,1.83,0.14,2.65,0.42l-0.08,1.87c-0.01,0.28-0.13,0.45-0.36,0.5c-0.22,0.06-0.54,0.08-0.94,0.08h-0.65
	c-0.64,0-1.23,0.08-1.75,0.25c-0.52,0.17-0.98,0.44-1.35,0.82c-0.38,0.38-0.67,0.88-0.87,1.49c-0.2,0.62-0.3,1.38-0.3,2.29v1.95
	h6.15v2.71h-6.03V60H-594.46z"/>
<path d="M-573.47,40.05c0.92,0,1.79,0.1,2.59,0.3s1.54,0.5,2.2,0.89h5.78v1.39c0,0.46-0.29,0.76-0.88,0.88l-2.41,0.34
	c0.47,0.91,0.71,1.92,0.71,3.04c0,1.04-0.2,1.98-0.6,2.82c-0.4,0.85-0.95,1.57-1.66,2.17c-0.71,0.6-1.55,1.06-2.52,1.39
	c-0.97,0.32-2.04,0.48-3.2,0.48c-0.99,0-1.93-0.12-2.81-0.36c-0.45,0.29-0.79,0.6-1.02,0.93c-0.23,0.33-0.35,0.66-0.35,0.98
	c0,0.52,0.2,0.92,0.61,1.18c0.4,0.27,0.94,0.46,1.62,0.58s1.44,0.17,2.29,0.17c0.86,0,1.73,0,2.62,0s1.76,0.08,2.62,0.23
	c0.85,0.16,1.62,0.41,2.29,0.77s1.21,0.84,1.62,1.47c0.4,0.62,0.61,1.43,0.61,2.42c0,0.92-0.23,1.81-0.68,2.68s-1.11,1.63-1.96,2.31
	c-0.86,0.67-1.9,1.21-3.13,1.62c-1.23,0.4-2.62,0.61-4.18,0.61s-2.92-0.15-4.08-0.46c-1.17-0.31-2.14-0.72-2.91-1.24
	c-0.77-0.52-1.35-1.12-1.73-1.8s-0.58-1.39-0.58-2.13c0-1.05,0.33-1.95,1-2.68c0.67-0.74,1.58-1.32,2.74-1.75
	c-0.6-0.28-1.08-0.65-1.44-1.12c-0.36-0.47-0.54-1.09-0.54-1.88c0-0.31,0.05-0.62,0.17-0.95c0.11-0.33,0.28-0.65,0.51-0.98
	c0.23-0.32,0.52-0.63,0.85-0.92c0.34-0.29,0.73-0.55,1.18-0.78c-1.05-0.59-1.87-1.37-2.47-2.34c-0.6-0.97-0.89-2.11-0.89-3.41
	c0-1.04,0.2-1.98,0.6-2.82s0.96-1.57,1.67-2.16c0.71-0.59,1.56-1.05,2.55-1.38C-575.73,40.22-574.65,40.05-573.47,40.05z
	 M-566.83,62.76c0-0.54-0.15-0.98-0.44-1.31c-0.29-0.33-0.69-0.58-1.2-0.76s-1.08-0.31-1.74-0.4c-0.66-0.08-1.35-0.13-2.08-0.13
	c-0.73,0-1.47,0-2.22,0s-1.48-0.09-2.16-0.28c-0.8,0.38-1.45,0.84-1.94,1.39c-0.5,0.55-0.75,1.2-0.75,1.96
	c0,0.48,0.12,0.92,0.37,1.33c0.25,0.41,0.62,0.77,1.12,1.07c0.5,0.3,1.14,0.54,1.9,0.71c0.76,0.17,1.66,0.26,2.7,0.26
	c1.01,0,1.91-0.09,2.71-0.28c0.8-0.19,1.47-0.45,2.03-0.79c0.55-0.34,0.98-0.75,1.27-1.22C-566.98,63.86-566.83,63.33-566.83,62.76z
	 M-573.47,51.29c0.76,0,1.43-0.11,2.01-0.32c0.58-0.21,1.07-0.5,1.46-0.88c0.39-0.38,0.69-0.83,0.88-1.35
	c0.2-0.53,0.29-1.1,0.29-1.73c0-1.3-0.4-2.34-1.19-3.11c-0.79-0.77-1.94-1.16-3.46-1.16c-1.5,0-2.64,0.39-3.43,1.16
	c-0.79,0.77-1.19,1.81-1.19,3.11c0,0.63,0.1,1.21,0.3,1.73c0.2,0.52,0.5,0.98,0.89,1.35c0.39,0.38,0.88,0.67,1.45,0.88
	C-574.87,51.18-574.21,51.29-573.47,51.29z"/>
<path d="M-560.63,60V29.07h3.74v12.52c0.91-0.97,1.92-1.74,3.02-2.32c1.11-0.58,2.38-0.87,3.82-0.87c1.16,0,2.19,0.19,3.08,0.58
	c0.89,0.38,1.63,0.93,2.23,1.64s1.05,1.56,1.35,2.55c0.31,0.99,0.46,2.09,0.46,3.3V60h-3.74V46.46c0-1.61-0.37-2.86-1.1-3.75
	c-0.73-0.89-1.86-1.33-3.37-1.33c-1.11,0-2.14,0.27-3.1,0.8s-1.84,1.25-2.66,2.16V60H-560.63z"/>
<path d="M-534.19,32.05c0,0.36-0.07,0.7-0.22,1.02c-0.15,0.32-0.34,0.6-0.59,0.84c-0.25,0.25-0.53,0.44-0.85,0.58
	c-0.32,0.14-0.66,0.21-1.03,0.21s-0.7-0.07-1.02-0.21s-0.6-0.33-0.84-0.58c-0.25-0.24-0.44-0.52-0.58-0.84
	c-0.14-0.31-0.21-0.65-0.21-1.02c0-0.36,0.07-0.71,0.21-1.04c0.14-0.33,0.33-0.62,0.58-0.86c0.24-0.25,0.53-0.44,0.84-0.58
	s0.65-0.21,1.02-0.21s0.71,0.07,1.03,0.21c0.32,0.14,0.61,0.33,0.85,0.58c0.24,0.25,0.44,0.53,0.59,0.86
	C-534.26,31.34-534.19,31.69-534.19,32.05z M-535.03,38.73V60h-3.74V38.73H-535.03z"/>
<path d="M-523.04,38.72v22.85c0,0.85-0.11,1.65-0.34,2.38c-0.22,0.74-0.58,1.38-1.06,1.92c-0.48,0.55-1.11,0.98-1.87,1.29
	c-0.76,0.31-1.68,0.47-2.74,0.47c-0.46,0-0.88-0.03-1.26-0.1s-0.76-0.17-1.13-0.32l0.17-2.02c0.03-0.18,0.09-0.3,0.19-0.35
	c0.1-0.05,0.25-0.07,0.46-0.07c0.11,0,0.23,0,0.36,0s0.28,0,0.46,0c1.09,0,1.87-0.26,2.33-0.77c0.46-0.51,0.69-1.33,0.69-2.47V38.72
	H-523.04z M-522.2,32.05c0,0.36-0.07,0.7-0.22,1.02c-0.15,0.32-0.34,0.6-0.59,0.84c-0.25,0.25-0.53,0.44-0.85,0.58
	c-0.32,0.14-0.66,0.21-1.03,0.21s-0.7-0.07-1.02-0.21s-0.6-0.33-0.84-0.58c-0.25-0.24-0.44-0.52-0.58-0.84
	c-0.14-0.31-0.21-0.65-0.21-1.02c0-0.36,0.07-0.71,0.21-1.04c0.14-0.33,0.33-0.62,0.58-0.86c0.24-0.25,0.53-0.44,0.84-0.58
	s0.65-0.21,1.02-0.21s0.71,0.07,1.03,0.21c0.32,0.14,0.61,0.33,0.85,0.58c0.24,0.25,0.44,0.53,0.59,0.86
	C-522.27,31.34-522.2,31.69-522.2,32.05z"/>
<path d="M-515.21,29.07v18.21h0.97c0.28,0,0.51-0.04,0.69-0.12c0.18-0.08,0.39-0.23,0.61-0.47l6.72-7.2
	c0.21-0.22,0.42-0.41,0.63-0.55c0.21-0.14,0.49-0.21,0.84-0.21h3.4l-7.83,8.34c-0.2,0.24-0.39,0.45-0.58,0.63s-0.4,0.34-0.64,0.48
	c0.25,0.17,0.48,0.36,0.68,0.58s0.4,0.46,0.58,0.75l8.32,10.5h-3.36c-0.31,0-0.57-0.06-0.79-0.18c-0.22-0.12-0.42-0.3-0.62-0.56
	l-6.99-8.71c-0.21-0.29-0.42-0.49-0.63-0.58c-0.21-0.09-0.52-0.14-0.94-0.14h-1.05V60h-3.76V29.07H-515.21z"/>
<path d="M-493.23,29.07V60h-3.74V29.07H-493.23z"/>
<path d="M-488.28,60V38.73h2.23c0.53,0,0.87,0.26,1.01,0.78l0.27,2.18c0.78-0.97,1.66-1.76,2.64-2.37c0.97-0.62,2.1-0.92,3.39-0.92
	c1.44,0,2.61,0.4,3.5,1.2s1.53,1.88,1.92,3.23c0.29-0.77,0.68-1.44,1.17-2c0.48-0.56,1.03-1.02,1.63-1.39s1.24-0.63,1.92-0.8
	c0.68-0.17,1.37-0.25,2.07-0.25c1.12,0,2.12,0.18,2.99,0.54c0.88,0.36,1.62,0.88,2.23,1.56c0.61,0.69,1.07,1.53,1.4,2.53
	c0.32,1,0.48,2.15,0.48,3.43V60h-3.74V46.46c0-1.67-0.36-2.93-1.09-3.79c-0.73-0.86-1.79-1.29-3.17-1.29c-0.62,0-1.2,0.11-1.75,0.33
	c-0.55,0.22-1.04,0.54-1.46,0.96s-0.75,0.95-1,1.58c-0.25,0.64-0.37,1.38-0.37,2.22V60h-3.74V46.46c0-1.71-0.34-2.98-1.03-3.82
	c-0.69-0.84-1.69-1.26-3-1.26c-0.92,0-1.78,0.25-2.57,0.75c-0.79,0.5-1.52,1.17-2.17,2.03V60H-488.28z"/>
<path d="M-456.6,60V38.73h2.23c0.53,0,0.87,0.26,1.01,0.78l0.29,2.31c0.92-1.02,1.96-1.85,3.1-2.48s2.46-0.95,3.96-0.95
	c1.16,0,2.19,0.19,3.08,0.58c0.89,0.38,1.63,0.93,2.23,1.64c0.6,0.71,1.05,1.56,1.36,2.55c0.31,0.99,0.46,2.09,0.46,3.3V60h-3.74
	V46.46c0-1.61-0.37-2.86-1.1-3.75c-0.74-0.89-1.86-1.33-3.37-1.33c-1.11,0-2.14,0.27-3.1,0.8s-1.84,1.25-2.66,2.16V60H-456.6z"/>
<path d="M-435.6,60V38.73h2.23c0.53,0,0.87,0.26,1.01,0.78l0.29,2.31c0.92-1.02,1.96-1.85,3.1-2.48c1.14-0.63,2.46-0.95,3.96-0.95
	c1.16,0,2.19,0.19,3.08,0.58s1.63,0.93,2.23,1.64s1.05,1.56,1.35,2.55c0.31,0.99,0.46,2.09,0.46,3.3V60h-3.74V46.45
	c0-1.61-0.37-2.86-1.1-3.75c-0.74-0.89-1.86-1.33-3.37-1.33c-1.11,0-2.14,0.27-3.1,0.8s-1.84,1.25-2.66,2.16V60H-435.6z
	 M-424.49,32.17c0.5,0,0.89-0.15,1.17-0.44c0.27-0.29,0.42-0.75,0.43-1.37h2.27c0,0.66-0.09,1.26-0.26,1.82
	c-0.18,0.55-0.43,1.03-0.76,1.42c-0.33,0.39-0.72,0.7-1.18,0.91c-0.46,0.22-0.96,0.33-1.52,0.33c-0.49,0-0.95-0.1-1.38-0.3
	c-0.43-0.2-0.83-0.42-1.21-0.66c-0.38-0.24-0.73-0.46-1.07-0.66s-0.67-0.3-0.99-0.3c-1.01,0-1.53,0.62-1.55,1.85h-2.33
	c0-0.67,0.09-1.28,0.27-1.84c0.18-0.55,0.44-1.03,0.78-1.43c0.34-0.4,0.73-0.71,1.2-0.92c0.46-0.22,0.96-0.33,1.51-0.33
	c0.49,0,0.95,0.1,1.38,0.3c0.43,0.2,0.83,0.42,1.21,0.66s0.73,0.46,1.06,0.66C-425.14,32.07-424.82,32.17-424.49,32.17z"/>
<path d="M-404.73,38.39c1.55,0,2.96,0.26,4.21,0.78c1.25,0.52,2.32,1.25,3.19,2.21s1.55,2.1,2.02,3.45c0.47,1.35,0.7,2.86,0.7,4.53
	c0,1.68-0.23,3.19-0.7,4.54c-0.47,1.34-1.14,2.49-2.02,3.44s-1.94,1.68-3.19,2.19c-1.25,0.51-2.66,0.77-4.21,0.77
	c-1.55,0-2.96-0.26-4.21-0.77c-1.25-0.51-2.32-1.24-3.2-2.19c-0.88-0.95-1.56-2.1-2.04-3.44c-0.48-1.34-0.71-2.86-0.71-4.54
	c0-1.67,0.24-3.17,0.71-4.53c0.48-1.35,1.15-2.5,2.04-3.45c0.88-0.95,1.95-1.69,3.2-2.21C-407.69,38.65-406.28,38.39-404.73,38.39z
	 M-404.73,57.38c2.1,0,3.67-0.7,4.71-2.11c1.04-1.41,1.55-3.37,1.55-5.89c0-2.53-0.52-4.51-1.55-5.92c-1.04-1.41-2.6-2.12-4.71-2.12
	c-1.06,0-1.99,0.18-2.77,0.55s-1.44,0.89-1.96,1.58s-0.92,1.53-1.18,2.53c-0.26,1-0.39,2.13-0.39,3.39s0.13,2.39,0.39,3.38
	c0.26,0.99,0.65,1.83,1.18,2.51s1.18,1.2,1.96,1.56S-405.79,57.38-404.73,57.38z"/>
<path d="M-392.13,67.25V38.77h2.22c0.53,0,0.87,0.26,1.01,0.78l0.32,2.52c0.91-1.11,1.95-2,3.12-2.67c1.17-0.67,2.52-1.01,4.04-1.01
	c1.22,0,2.32,0.24,3.32,0.7s1.84,1.16,2.54,2.08c0.7,0.92,1.24,2.05,1.62,3.41c0.38,1.36,0.57,2.92,0.57,4.68
	c0,1.57-0.21,3.03-0.63,4.38c-0.42,1.35-1.02,2.52-1.81,3.51c-0.79,0.99-1.75,1.76-2.89,2.33c-1.14,0.57-2.42,0.85-3.85,0.85
	c-1.31,0-2.44-0.22-3.37-0.65c-0.93-0.43-1.75-1.05-2.47-1.85v9.41H-392.13z M-382.66,41.42c-1.22,0-2.29,0.28-3.2,0.84
	c-0.92,0.56-1.76,1.35-2.53,2.37v10.29c0.69,0.92,1.44,1.58,2.26,1.95c0.82,0.38,1.73,0.57,2.74,0.57c1.97,0,3.49-0.71,4.56-2.12
	c1.06-1.41,1.6-3.43,1.6-6.05c0-1.39-0.12-2.58-0.37-3.57c-0.25-0.99-0.6-1.81-1.06-2.45c-0.46-0.64-1.03-1.1-1.7-1.4
	C-381.04,41.56-381.8,41.42-382.66,41.42z"/>
<path d="M-352.37,38.77v28.48h-3.74V56.89c-0.9,1.04-1.92,1.87-3.06,2.5s-2.45,0.95-3.92,0.95c-1.22,0-2.32-0.23-3.32-0.7
	s-1.84-1.16-2.54-2.07s-1.24-2.04-1.62-3.4c-0.38-1.36-0.57-2.92-0.57-4.68c0-1.57,0.21-3.03,0.63-4.38
	c0.42-1.35,1.03-2.52,1.82-3.52c0.79-0.99,1.75-1.77,2.89-2.34c1.13-0.57,2.42-0.85,3.86-0.85c1.37,0,2.54,0.25,3.5,0.74
	s1.82,1.18,2.57,2.08l0.25-1.66c0.14-0.52,0.47-0.78,1.01-0.78H-352.37z M-361.84,57.31c1.22,0,2.29-0.28,3.2-0.84
	c0.92-0.56,1.76-1.35,2.53-2.37V43.81c-0.67-0.9-1.42-1.54-2.25-1.92s-1.74-0.58-2.73-0.58c-1.99,0-3.51,0.71-4.58,2.12
	c-1.06,1.41-1.6,3.43-1.6,6.05c0,1.39,0.12,2.57,0.36,3.56c0.24,0.99,0.59,1.8,1.05,2.44c0.46,0.64,1.03,1.1,1.7,1.4
	C-363.48,57.17-362.71,57.31-361.84,57.31z"/>
<path d="M-350.04,60V38.73h2.14c0.41,0,0.69,0.08,0.84,0.23s0.26,0.42,0.32,0.8l0.25,3.32c0.73-1.48,1.63-2.64,2.7-3.48
	s2.33-1.25,3.77-1.25c0.59,0,1.12,0.07,1.6,0.2s0.92,0.32,1.32,0.56l-0.48,2.79c-0.1,0.35-0.31,0.52-0.65,0.52
	c-0.2,0-0.5-0.07-0.9-0.2s-0.97-0.2-1.7-0.2c-1.3,0-2.39,0.38-3.27,1.13s-1.61,1.86-2.19,3.3V60H-350.04z"/>
<path d="M-321.34,42.23c-0.17,0.31-0.43,0.46-0.78,0.46c-0.21,0-0.45-0.08-0.71-0.23c-0.27-0.15-0.59-0.33-0.98-0.51
	c-0.38-0.19-0.84-0.36-1.38-0.52s-1.16-0.24-1.89-0.24c-0.63,0-1.2,0.08-1.7,0.24c-0.5,0.16-0.93,0.38-1.29,0.66
	s-0.63,0.61-0.82,0.98s-0.28,0.77-0.28,1.21c0,0.55,0.16,1,0.47,1.36c0.31,0.36,0.73,0.68,1.25,0.95c0.52,0.27,1.11,0.5,1.77,0.7
	c0.66,0.2,1.33,0.42,2.03,0.65c0.69,0.23,1.37,0.49,2.03,0.77s1.25,0.63,1.76,1.05s0.93,0.93,1.25,1.54
	c0.31,0.61,0.47,1.34,0.47,2.19c0,0.98-0.18,1.89-0.53,2.72s-0.87,1.55-1.55,2.16c-0.69,0.61-1.53,1.09-2.52,1.44
	c-0.99,0.35-2.14,0.53-3.44,0.53c-1.48,0-2.83-0.24-4.03-0.72c-1.2-0.48-2.23-1.1-3.07-1.86l0.88-1.43c0.11-0.18,0.24-0.32,0.4-0.42
	s0.36-0.15,0.61-0.15s0.52,0.1,0.8,0.29c0.28,0.2,0.62,0.41,1.02,0.65s0.88,0.46,1.45,0.65c0.57,0.2,1.28,0.29,2.13,0.29
	c0.73,0,1.37-0.09,1.91-0.28c0.54-0.19,1-0.44,1.37-0.77c0.36-0.32,0.63-0.69,0.81-1.11c0.17-0.42,0.26-0.87,0.26-1.34
	c0-0.59-0.16-1.07-0.47-1.46s-0.73-0.71-1.25-0.99c-0.52-0.27-1.11-0.51-1.77-0.71c-0.67-0.2-1.34-0.42-2.04-0.64
	c-0.69-0.22-1.37-0.48-2.04-0.77c-0.67-0.29-1.26-0.65-1.78-1.08s-0.93-0.97-1.25-1.61c-0.32-0.64-0.47-1.41-0.47-2.32
	c0-0.81,0.17-1.59,0.5-2.34s0.83-1.41,1.47-1.97c0.64-0.57,1.44-1.02,2.37-1.35c0.94-0.34,2.01-0.5,3.21-0.5
	c1.4,0,2.66,0.22,3.77,0.66c1.11,0.44,2.08,1.05,2.89,1.82L-321.34,42.23z"/>
<path d="M-309.27,60.34c-1.68,0-2.97-0.47-3.87-1.41c-0.9-0.94-1.36-2.29-1.36-4.05V41.86h-2.56c-0.22,0-0.41-0.07-0.57-0.2
	c-0.15-0.13-0.23-0.34-0.23-0.62v-1.49l3.49-0.44l0.86-6.57c0.03-0.21,0.12-0.38,0.27-0.51s0.35-0.2,0.59-0.2h1.89v7.33h6.09v2.71
	h-6.09v12.77c0,0.9,0.22,1.56,0.65,2s0.99,0.65,1.68,0.65c0.39,0,0.73-0.05,1.02-0.16c0.29-0.1,0.54-0.22,0.75-0.35
	c0.21-0.13,0.39-0.24,0.54-0.35c0.15-0.11,0.28-0.16,0.39-0.16c0.2,0,0.37,0.12,0.53,0.36l1.09,1.79c-0.64,0.6-1.42,1.07-2.33,1.42
	C-307.37,60.16-308.3,60.34-309.27,60.34z"/>
<path d="M-298.24,38.73v13.57c0,1.61,0.37,2.86,1.11,3.74c0.74,0.88,1.86,1.32,3.36,1.32c1.09,0,2.12-0.26,3.09-0.78
	s1.86-1.24,2.67-2.16V38.73h3.74V60h-2.22c-0.53,0-0.87-0.26-1.01-0.78l-0.29-2.29c-0.92,1.02-1.96,1.84-3.11,2.47
	c-1.15,0.62-2.46,0.94-3.95,0.94c-1.16,0-2.19-0.19-3.08-0.58s-1.63-0.93-2.24-1.63c-0.6-0.7-1.05-1.55-1.35-2.54
	c-0.3-0.99-0.45-2.09-0.45-3.3V38.73H-298.24z"/>
<path d="M-282.12,38.73h3.07c0.29,0,0.54,0.08,0.73,0.23c0.2,0.15,0.34,0.34,0.42,0.55l5.4,13.69c0.2,0.5,0.35,1.01,0.46,1.51
	c0.11,0.5,0.22,1,0.32,1.49c0.11-0.49,0.23-0.99,0.36-1.49c0.13-0.5,0.29-1.01,0.48-1.51l5.46-13.69c0.08-0.22,0.22-0.41,0.41-0.56
	c0.19-0.15,0.42-0.22,0.7-0.22h2.92L-270.07,60h-3.38L-282.12,38.73z"/>
<path d="M-260.4,38.75h2.94c0.31,0,0.56,0.08,0.76,0.23c0.2,0.15,0.33,0.34,0.4,0.55l4.07,13.69c0.11,0.5,0.22,0.99,0.31,1.46
	c0.1,0.47,0.18,0.94,0.25,1.42c0.11-0.47,0.24-0.95,0.38-1.42c0.14-0.47,0.29-0.96,0.44-1.46l4.49-13.78
	c0.07-0.21,0.19-0.38,0.37-0.53c0.17-0.14,0.39-0.21,0.66-0.21h1.62c0.28,0,0.51,0.07,0.69,0.21c0.18,0.14,0.31,0.32,0.38,0.53
	l4.39,13.78c0.15,0.49,0.29,0.97,0.41,1.45s0.23,0.95,0.35,1.41c0.07-0.46,0.16-0.94,0.27-1.45c0.11-0.5,0.23-0.97,0.36-1.41
	l4.16-13.69c0.07-0.22,0.2-0.41,0.4-0.56c0.2-0.15,0.43-0.22,0.69-0.22h2.81l-6.89,21.27h-2.96c-0.36,0-0.62-0.24-0.76-0.71
	l-4.7-14.43c-0.11-0.32-0.2-0.65-0.27-0.98s-0.14-0.65-0.21-0.98c-0.07,0.32-0.14,0.65-0.21,0.99s-0.16,0.67-0.27,0.99l-4.77,14.41
	c-0.15,0.48-0.44,0.71-0.86,0.71h-2.81L-260.4,38.75z"/>
<path d="M-220.31,49.1l-7.16-10.37h3.59c0.31,0,0.53,0.05,0.67,0.15s0.27,0.24,0.38,0.42l5.21,7.98c0.13-0.39,0.31-0.78,0.55-1.18
	l4.58-6.72c0.14-0.2,0.28-0.35,0.42-0.47c0.14-0.12,0.31-0.18,0.52-0.18h3.45l-7.16,10.16l7.46,11.11h-3.59
	c-0.31,0-0.55-0.08-0.72-0.24c-0.18-0.16-0.32-0.34-0.43-0.54l-5.36-8.34c-0.1,0.41-0.24,0.77-0.44,1.09l-4.96,7.24
	c-0.14,0.2-0.29,0.38-0.45,0.54c-0.16,0.16-0.38,0.24-0.66,0.24h-3.34L-220.31,49.1z"/>
<path d="M-197.78,66.28c-0.13,0.28-0.28,0.5-0.47,0.67s-0.48,0.25-0.87,0.25h-2.77l3.89-8.44l-8.78-20.03h3.23
	c0.32,0,0.57,0.08,0.76,0.24s0.31,0.34,0.4,0.54l5.69,13.4c0.13,0.31,0.23,0.62,0.33,0.92c0.09,0.31,0.17,0.62,0.24,0.95
	c0.1-0.32,0.2-0.64,0.29-0.95c0.1-0.31,0.21-0.62,0.34-0.95l5.52-13.38c0.08-0.22,0.23-0.41,0.43-0.56c0.2-0.15,0.42-0.22,0.66-0.22
	h2.98L-197.78,66.28z"/>
<path d="M-167.47,40.32c0,0.27-0.05,0.52-0.15,0.77s-0.22,0.46-0.38,0.66l-11.51,15.33h11.61V60h-16.02v-1.55
	c0-0.18,0.05-0.4,0.14-0.64c0.09-0.25,0.22-0.48,0.39-0.71l11.57-15.43h-11.45v-2.94h15.79V40.32z"/>
<rect x="1.62" y="45.98" width="16.76" height="2.52"/>
</svg>
