<?xml version="1.0" encoding="utf-8"?>
<!-- Generator: Adobe Illustrator 16.0.0, SVG Export Plug-In . SVG Version: 6.00 Build 0)  -->
<!DOCTYPE svg PUBLIC "-//W3C//DTD SVG 1.1 Tiny//EN" "http://www.w3.org/Graphics/SVG/1.1/DTD/svg11-tiny.dtd">
<svg version="1.1" baseProfile="tiny" id="Capa_1" xmlns="http://www.w3.org/2000/svg" xmlns:xlink="http://www.w3.org/1999/xlink"
	 x="0px" y="0px" width="33.11px" height="100px" viewBox="0 0 33.11 100" xml:space="preserve">
<path d="M16.22,49.95c0.15,0.37,0.29,0.75,0.43,1.12c0.14-0.39,0.29-0.77,0.44-1.12s0.33-0.72,0.53-1.08l10.18-18.5
	c0.18-0.32,0.37-0.52,0.57-0.59c0.2-0.07,0.47-0.1,0.84-0.1h3v30.09h-3.57V37.65c0-0.29,0.01-0.61,0.02-0.95s0.04-0.68,0.06-1.03
	L18.41,54.49c-0.35,0.63-0.84,0.95-1.47,0.95h-0.59c-0.63,0-1.12-0.31-1.47-0.95L4.34,35.62c0.04,0.37,0.07,0.72,0.1,1.07
	c0.02,0.35,0.03,0.67,0.03,0.97v22.11H0.9V29.67h3c0.36,0,0.64,0.03,0.84,0.1c0.2,0.07,0.38,0.27,0.57,0.59L15.7,48.89
	C15.9,49.22,16.07,49.58,16.22,49.95z"/>
</svg>
