<?xml version="1.0" encoding="utf-8"?>
<!-- Generator: Adobe Illustrator 16.0.0, SVG Export Plug-In . SVG Version: 6.00 Build 0)  -->
<!DOCTYPE svg PUBLIC "-//W3C//DTD SVG 1.1 Tiny//EN" "http://www.w3.org/Graphics/SVG/1.1/DTD/svg11-tiny.dtd">
<svg version="1.1" baseProfile="tiny" id="Capa_1" xmlns="http://www.w3.org/2000/svg" xmlns:xlink="http://www.w3.org/1999/xlink"
	 x="0px" y="0px" width="28.2px" height="100px" viewBox="0 0 28.2 100" xml:space="preserve">
<path d="M0,29.67h3.25c0.37,0,0.66,0.09,0.88,0.27c0.22,0.18,0.39,0.41,0.5,0.69l8.51,21.23c0.2,0.48,0.37,0.99,0.54,1.55
	c0.16,0.56,0.32,1.14,0.47,1.74c0.12-0.6,0.26-1.18,0.41-1.74c0.15-0.56,0.32-1.08,0.52-1.55l8.46-21.23
	c0.1-0.24,0.27-0.46,0.5-0.66c0.24-0.2,0.53-0.3,0.88-0.3h3.28L15.94,59.77h-3.68L0,29.67z"/>
</svg>
