<?xml version="1.0" encoding="utf-8"?>
<!-- Generator: Adobe Illustrator 16.0.0, SVG Export Plug-In . SVG Version: 6.00 Build 0)  -->
<!DOCTYPE svg PUBLIC "-//W3C//DTD SVG 1.1 Tiny//EN" "http://www.w3.org/Graphics/SVG/1.1/DTD/svg11-tiny.dtd">
<svg version="1.1" baseProfile="tiny" id="Capa_1" xmlns="http://www.w3.org/2000/svg" xmlns:xlink="http://www.w3.org/1999/xlink"
	 x="0px" y="0px" width="26.63px" height="100px" viewBox="0 0 26.63 100" xml:space="preserve">
<path d="M4.23,29.81c0.17,0.09,0.37,0.28,0.6,0.56l17.43,22.68c-0.04-0.36-0.07-0.72-0.08-1.06s-0.02-0.67-0.02-1V29.67h3.57v30.09
	h-2.06c-0.32,0-0.59-0.06-0.81-0.17s-0.43-0.3-0.64-0.57L4.81,36.37c0.03,0.35,0.05,0.69,0.06,1.03c0.01,0.34,0.02,0.64,0.02,0.92
	v21.44H1.33V29.67h2.1C3.79,29.67,4.06,29.72,4.23,29.81z M16.59,24.84c0.49,0,0.87-0.14,1.12-0.43c0.26-0.29,0.39-0.69,0.41-1.21
	h2.06c0,0.6-0.08,1.15-0.23,1.66c-0.15,0.5-0.38,0.94-0.67,1.31c-0.29,0.37-0.66,0.66-1.09,0.86c-0.43,0.2-0.93,0.3-1.49,0.3
	c-0.49,0-0.96-0.09-1.41-0.27c-0.45-0.18-0.88-0.38-1.29-0.6c-0.41-0.22-0.8-0.42-1.16-0.6c-0.37-0.18-0.71-0.27-1.05-0.27
	c-0.48,0-0.84,0.15-1.1,0.45c-0.26,0.3-0.4,0.7-0.41,1.21h-2.1c0-0.6,0.08-1.16,0.24-1.67c0.16-0.51,0.39-0.95,0.69-1.31
	c0.3-0.36,0.67-0.65,1.11-0.86c0.44-0.21,0.94-0.31,1.48-0.31c0.49,0,0.96,0.09,1.41,0.27c0.45,0.18,0.88,0.38,1.28,0.6
	c0.41,0.22,0.79,0.42,1.16,0.6C15.91,24.75,16.26,24.84,16.59,24.84z"/>
</svg>
