<?xml version="1.0" encoding="utf-8"?>
<!-- Generator: Adobe Illustrator 16.0.0, SVG Export Plug-In . SVG Version: 6.00 Build 0)  -->
<!DOCTYPE svg PUBLIC "-//W3C//DTD SVG 1.1 Tiny//EN" "http://www.w3.org/Graphics/SVG/1.1/DTD/svg11-tiny.dtd">
<svg version="1.1" baseProfile="tiny" id="Capa_1" xmlns="http://www.w3.org/2000/svg" xmlns:xlink="http://www.w3.org/1999/xlink"
	 x="0px" y="0px" width="22.88px" height="100px" viewBox="0 0 22.88 100" xml:space="preserve">
<path d="M1.08,59.77V29.67h9.6c1.85,0,3.44,0.18,4.78,0.55s2.44,0.88,3.3,1.55c0.86,0.67,1.5,1.5,1.91,2.47s0.62,2.07,0.62,3.29
	c0,0.74-0.12,1.46-0.35,2.14c-0.23,0.69-0.58,1.32-1.05,1.91s-1.06,1.11-1.76,1.57c-0.71,0.46-1.54,0.84-2.49,1.13
	c2.2,0.43,3.86,1.22,4.98,2.37c1.12,1.15,1.68,2.66,1.68,4.54c0,1.27-0.23,2.44-0.7,3.49s-1.15,1.95-2.06,2.71s-2.01,1.34-3.32,1.75
	c-1.31,0.41-2.8,0.62-4.48,0.62H1.08z M5.15,43.15h5.38c1.15,0,2.14-0.12,2.98-0.38c0.84-0.25,1.54-0.6,2.09-1.05
	c0.55-0.45,0.96-0.99,1.23-1.63c0.27-0.64,0.4-1.33,0.4-2.09c0-1.76-0.53-3.06-1.6-3.88s-2.72-1.24-4.96-1.24H5.15V43.15z
	 M5.15,46.05v10.48h6.51c1.16,0,2.16-0.13,2.99-0.4s1.52-0.64,2.06-1.12c0.54-0.48,0.93-1.06,1.19-1.72
	c0.25-0.66,0.38-1.4,0.38-2.19c0-1.55-0.55-2.78-1.65-3.69c-1.1-0.9-2.76-1.35-4.99-1.35H5.15z"/>
</svg>
