<?xml version="1.0" encoding="utf-8"?>
<!-- Generator: Adobe Illustrator 16.0.0, SVG Export Plug-In . SVG Version: 6.00 Build 0)  -->
<!DOCTYPE svg PUBLIC "-//W3C//DTD SVG 1.1 Tiny//EN" "http://www.w3.org/Graphics/SVG/1.1/DTD/svg11-tiny.dtd">
<svg version="1.1" baseProfile="tiny" id="Capa_1" xmlns="http://www.w3.org/2000/svg" xmlns:xlink="http://www.w3.org/1999/xlink"
	 x="0px" y="0px" width="21.44px" height="100px" viewBox="0 0 21.44 100" xml:space="preserve">
<path d="M5.4,48.51v11.26H1.35V29.67h8.88c1.9,0,3.56,0.22,4.97,0.66s2.57,1.07,3.5,1.88s1.61,1.79,2.07,2.94
	c0.46,1.15,0.68,2.43,0.68,3.84c0,1.4-0.25,2.68-0.74,3.84s-1.21,2.16-2.15,3c-0.94,0.84-2.12,1.5-3.52,1.96
	c-1.4,0.47-3,0.7-4.81,0.7H5.4z M5.4,45.28h4.83c1.16,0,2.19-0.15,3.08-0.46c0.89-0.31,1.63-0.74,2.24-1.29
	c0.6-0.55,1.06-1.21,1.37-1.98c0.31-0.77,0.46-1.62,0.46-2.54c0-1.92-0.59-3.42-1.78-4.49c-1.18-1.08-2.97-1.62-5.37-1.62H5.4V45.28
	z"/>
</svg>
