<?xml version="1.0" encoding="utf-8"?>
<!-- Generator: Adobe Illustrator 16.0.0, SVG Export Plug-In . SVG Version: 6.00 Build 0)  -->
<!DOCTYPE svg PUBLIC "-//W3C//DTD SVG 1.1 Tiny//EN" "http://www.w3.org/Graphics/SVG/1.1/DTD/svg11-tiny.dtd">
<svg version="1.1" baseProfile="tiny" id="Capa_1" xmlns="http://www.w3.org/2000/svg" xmlns:xlink="http://www.w3.org/1999/xlink"
	 x="0px" y="0px" width="20.82px" height="100px" viewBox="0 0 20.82 100" xml:space="preserve">
<path d="M18.5,34.38c-0.13,0.21-0.26,0.37-0.4,0.47c-0.14,0.1-0.32,0.16-0.54,0.16c-0.24,0-0.52-0.12-0.83-0.36
	c-0.31-0.24-0.71-0.5-1.2-0.79s-1.06-0.55-1.74-0.79c-0.68-0.24-1.5-0.36-2.47-0.36c-0.91,0-1.71,0.12-2.41,0.37
	c-0.7,0.25-1.29,0.58-1.75,1S6.33,35,6.09,35.56c-0.24,0.57-0.36,1.18-0.36,1.84c0,0.84,0.21,1.54,0.62,2.09
	c0.41,0.55,0.96,1.03,1.64,1.42c0.68,0.39,1.45,0.73,2.31,1.02s1.74,0.58,2.65,0.89c0.9,0.31,1.79,0.65,2.64,1.04
	c0.86,0.39,1.63,0.87,2.31,1.46c0.68,0.59,1.22,1.31,1.64,2.16c0.41,0.85,0.62,1.9,0.62,3.15c0,1.32-0.22,2.55-0.67,3.71
	c-0.45,1.16-1.1,2.16-1.96,3.01c-0.86,0.85-1.92,1.53-3.17,2.02c-1.25,0.49-2.68,0.74-4.27,0.74c-1.95,0-3.72-0.35-5.32-1.06
	c-1.6-0.71-2.97-1.66-4.11-2.87l1.18-1.93c0.11-0.15,0.25-0.28,0.41-0.39c0.16-0.1,0.34-0.16,0.54-0.16c0.29,0,0.63,0.16,1.01,0.47
	c0.38,0.32,0.85,0.66,1.42,1.04c0.57,0.38,1.25,0.72,2.06,1.04s1.79,0.47,2.95,0.47c0.96,0,1.83-0.13,2.58-0.4
	c0.76-0.27,1.4-0.64,1.92-1.12s0.93-1.06,1.21-1.73c0.28-0.67,0.42-1.42,0.42-2.25c0-0.91-0.21-1.66-0.62-2.24
	c-0.41-0.58-0.96-1.07-1.63-1.46s-1.44-0.72-2.3-1s-1.74-0.55-2.64-0.84c-0.9-0.29-1.79-0.62-2.65-1s-1.63-0.87-2.3-1.47
	c-0.67-0.6-1.21-1.35-1.63-2.26c-0.41-0.9-0.62-2.02-0.62-3.35c0-1.06,0.21-2.09,0.62-3.09c0.41-0.99,1.01-1.88,1.79-2.65
	c0.79-0.77,1.75-1.38,2.91-1.85c1.15-0.46,2.48-0.69,3.98-0.69c1.68,0,3.21,0.27,4.6,0.8c1.38,0.53,2.6,1.3,3.63,2.31L18.5,34.38z"
	/>
</svg>
