<?xml version="1.0" encoding="utf-8"?>
<!-- Generator: Adobe Illustrator 16.0.0, SVG Export Plug-In . SVG Version: 6.00 Build 0)  -->
<!DOCTYPE svg PUBLIC "-//W3C//DTD SVG 1.1 Tiny//EN" "http://www.w3.org/Graphics/SVG/1.1/DTD/svg11-tiny.dtd">
<svg version="1.1" baseProfile="tiny" id="Capa_1" xmlns="http://www.w3.org/2000/svg" xmlns:xlink="http://www.w3.org/1999/xlink"
	 x="0px" y="0px" width="24.75px" height="100px" viewBox="0 0 24.75 100" xml:space="preserve">
<path d="M5.39,47.21v12.56H1.34V29.67h8.51c1.9,0,3.55,0.19,4.93,0.58c1.39,0.38,2.53,0.94,3.43,1.67c0.9,0.73,1.57,1.61,2.01,2.63
	c0.43,1.03,0.65,2.18,0.65,3.46c0,1.06-0.17,2.06-0.5,2.98c-0.34,0.92-0.82,1.75-1.46,2.49c-0.64,0.73-1.41,1.36-2.33,1.88
	c-0.92,0.52-1.96,0.91-3.12,1.18c0.5,0.29,0.95,0.72,1.34,1.28l8.78,11.95h-3.61c-0.74,0-1.29-0.29-1.64-0.86l-7.81-10.75
	c-0.24-0.34-0.5-0.58-0.78-0.72c-0.28-0.15-0.7-0.22-1.26-0.22H5.39z M5.39,44.25h4.26c1.19,0,2.24-0.14,3.14-0.43
	c0.9-0.29,1.66-0.69,2.27-1.22c0.61-0.52,1.07-1.15,1.38-1.88c0.31-0.73,0.46-1.53,0.46-2.42c0-1.79-0.59-3.14-1.77-4.05
	c-1.18-0.91-2.94-1.36-5.28-1.36H5.39V44.25z"/>
</svg>
