<?xml version="1.0" encoding="utf-8"?>
<!-- Generator: Adobe Illustrator 16.0.0, SVG Export Plug-In . SVG Version: 6.00 Build 0)  -->
<!DOCTYPE svg PUBLIC "-//W3C//DTD SVG 1.1 Tiny//EN" "http://www.w3.org/Graphics/SVG/1.1/DTD/svg11-tiny.dtd">
<svg version="1.1" baseProfile="tiny" id="Capa_1" xmlns="http://www.w3.org/2000/svg" xmlns:xlink="http://www.w3.org/1999/xlink"
	 x="0px" y="0px" width="14.43px" height="100px" viewBox="0 0 14.43 100" xml:space="preserve">
<path d="M14.07,49.37c0,1.68-0.21,3.18-0.62,4.51c-0.41,1.33-1.02,2.45-1.83,3.37c-0.81,0.92-1.8,1.62-2.97,2.11
	C7.48,59.86,6.13,60.1,4.6,60.1c-1.36,0-2.77-0.2-4.24-0.59c0.03-0.41,0.06-0.81,0.11-1.21c0.04-0.4,0.08-0.79,0.13-1.19
	c0.03-0.24,0.12-0.43,0.26-0.58s0.37-0.22,0.66-0.22c0.25,0,0.59,0.06,1.01,0.19S3.5,56.7,4.2,56.7c0.92,0,1.75-0.14,2.47-0.42
	C7.39,56,8,55.57,8.5,54.98c0.5-0.59,0.88-1.34,1.13-2.26c0.26-0.92,0.39-2.01,0.39-3.27V29.67h4.05V49.37z"/>
</svg>
