<?xml version="1.0" encoding="utf-8"?>
<!-- Generator: Adobe Illustrator 16.0.0, SVG Export Plug-In . SVG Version: 6.00 Build 0)  -->
<!DOCTYPE svg PUBLIC "-//W3C//DTD SVG 1.1 Tiny//EN" "http://www.w3.org/Graphics/SVG/1.1/DTD/svg11-tiny.dtd">
<svg version="1.1" baseProfile="tiny" id="Capa_1" xmlns="http://www.w3.org/2000/svg" xmlns:xlink="http://www.w3.org/1999/xlink"
	 x="0px" y="0px" width="31.37px" height="100px" viewBox="0 0 31.37 100" xml:space="preserve">
<path d="M29.96,44.73c0,1.42-0.14,2.76-0.43,4.03c-0.29,1.27-0.71,2.46-1.25,3.56c-0.55,1.1-1.21,2.1-2,2.99
	c-0.78,0.9-1.67,1.67-2.64,2.33l7.73,8.34h-3.36c-0.5,0-0.95-0.07-1.34-0.21s-0.75-0.38-1.07-0.73l-5.29-5.75
	c-0.8,0.25-1.63,0.45-2.49,0.59c-0.86,0.14-1.76,0.21-2.7,0.21c-2.21,0-4.23-0.38-6.05-1.12c-1.82-0.75-3.38-1.8-4.68-3.16
	s-2.31-2.98-3.02-4.86c-0.71-1.88-1.07-3.95-1.07-6.21c0-2.25,0.36-4.32,1.07-6.21c0.71-1.88,1.72-3.51,3.02-4.87
	s2.86-2.43,4.68-3.18c1.82-0.76,3.84-1.13,6.05-1.13c2.21,0,4.23,0.38,6.06,1.13c1.83,0.76,3.39,1.82,4.69,3.18
	c1.3,1.37,2.31,2.99,3.03,4.87C29.61,40.41,29.96,42.48,29.96,44.73z M25.79,44.73c0-1.85-0.25-3.51-0.76-4.98
	c-0.5-1.47-1.22-2.71-2.14-3.73c-0.93-1.02-2.04-1.8-3.36-2.34s-2.79-0.82-4.41-0.82c-1.61,0-3.07,0.27-4.39,0.82
	s-2.44,1.33-3.37,2.34c-0.93,1.02-1.65,2.26-2.15,3.73c-0.5,1.47-0.76,3.13-0.76,4.98c0,1.85,0.25,3.5,0.76,4.97s1.22,2.7,2.15,3.72
	c0.93,1.01,2.05,1.79,3.37,2.33s2.78,0.81,4.39,0.81c1.62,0,3.09-0.27,4.41-0.81s2.44-1.32,3.36-2.33c0.92-1.01,1.64-2.25,2.14-3.72
	S25.79,46.58,25.79,44.73z"/>
</svg>
