<?xml version="1.0" encoding="utf-8"?>
<!-- Generator: Adobe Illustrator 16.0.0, SVG Export Plug-In . SVG Version: 6.00 Build 0)  -->
<!DOCTYPE svg PUBLIC "-//W3C//DTD SVG 1.1 Tiny//EN" "http://www.w3.org/Graphics/SVG/1.1/DTD/svg11-tiny.dtd">
<svg version="1.1" baseProfile="tiny" id="Capa_1" xmlns="http://www.w3.org/2000/svg" xmlns:xlink="http://www.w3.org/1999/xlink"
	 x="0px" y="0px" width="28.2px" height="100px" viewBox="0 0 28.2 100" xml:space="preserve">
<path d="M28.2,59.77h-3.15c-0.37,0-0.66-0.09-0.88-0.27c-0.22-0.18-0.39-0.41-0.5-0.69l-2.81-7.27H7.35L4.54,58.8
	c-0.1,0.25-0.27,0.48-0.5,0.67s-0.53,0.29-0.88,0.29H0l12.03-30.09h4.14L28.2,59.77z M8.48,48.59h11.24l-4.73-12.24
	c-0.31-0.76-0.61-1.7-0.9-2.83c-0.15,0.57-0.3,1.1-0.45,1.59c-0.15,0.48-0.29,0.91-0.43,1.27L8.48,48.59z"/>
</svg>
