<?xml version="1.0" encoding="utf-8"?>
<!-- Generator: Adobe Illustrator 16.0.0, SVG Export Plug-In . SVG Version: 6.00 Build 0)  -->
<!DOCTYPE svg PUBLIC "-//W3C//DTD SVG 1.1 Tiny//EN" "http://www.w3.org/Graphics/SVG/1.1/DTD/svg11-tiny.dtd">
<svg version="1.1" baseProfile="tiny" id="Capa_1" xmlns="http://www.w3.org/2000/svg" xmlns:xlink="http://www.w3.org/1999/xlink"
	 x="0px" y="0px" width="27.27px" height="100px" viewBox="0 0 27.27 100" xml:space="preserve">
<path d="M15.18,56.8c0.81,0,1.56-0.04,2.24-0.12c0.68-0.08,1.32-0.19,1.92-0.35c0.6-0.15,1.17-0.34,1.7-0.56
	c0.53-0.22,1.06-0.47,1.6-0.75V48.4h-4.66c-0.27,0-0.48-0.08-0.64-0.23c-0.16-0.15-0.24-0.34-0.24-0.57V45.3h9.24v11.55
	c-0.76,0.55-1.54,1.02-2.36,1.43c-0.82,0.41-1.69,0.75-2.62,1.02c-0.93,0.27-1.93,0.48-2.99,0.61c-1.06,0.13-2.22,0.2-3.47,0.2
	c-2.18,0-4.19-0.37-6.01-1.12s-3.39-1.8-4.7-3.15s-2.34-2.97-3.08-4.86C0.37,49.08,0,47,0,44.73c0-2.3,0.36-4.39,1.08-6.28
	c0.72-1.89,1.75-3.51,3.09-4.86c1.34-1.35,2.95-2.4,4.85-3.14c1.9-0.74,4.02-1.11,6.37-1.11c1.19,0,2.3,0.09,3.32,0.26
	c1.02,0.17,1.97,0.43,2.85,0.76c0.88,0.33,1.68,0.73,2.43,1.2c0.74,0.47,1.44,1,2.08,1.58l-1.16,1.85
	c-0.24,0.38-0.55,0.57-0.92,0.57c-0.22,0-0.47-0.08-0.73-0.23c-0.35-0.2-0.74-0.43-1.18-0.71c-0.43-0.28-0.96-0.55-1.59-0.81
	c-0.62-0.26-1.36-0.48-2.21-0.66c-0.85-0.18-1.85-0.27-3.01-0.27c-1.69,0-3.23,0.28-4.6,0.83c-1.37,0.55-2.54,1.34-3.51,2.37
	c-0.97,1.03-1.71,2.28-2.23,3.74c-0.52,1.46-0.78,3.11-0.78,4.92c0,1.9,0.27,3.6,0.81,5.09c0.54,1.49,1.3,2.75,2.28,3.79
	c0.98,1.04,2.14,1.83,3.49,2.37C12.07,56.53,13.56,56.8,15.18,56.8z"/>
</svg>
