<?xml version="1.0" encoding="utf-8"?>
<!-- Generator: Adobe Illustrator 16.0.0, SVG Export Plug-In . SVG Version: 6.00 Build 0)  -->
<!DOCTYPE svg PUBLIC "-//W3C//DTD SVG 1.1 Tiny//EN" "http://www.w3.org/Graphics/SVG/1.1/DTD/svg11-tiny.dtd">
<svg version="1.1" baseProfile="tiny" id="Capa_1" xmlns="http://www.w3.org/2000/svg" xmlns:xlink="http://www.w3.org/1999/xlink"
	 x="0px" y="0px" width="42.19px" height="100px" viewBox="0 0 42.19 100" xml:space="preserve">
<path d="M0,29.67h3.38c0.36,0,0.66,0.09,0.9,0.27c0.24,0.18,0.4,0.41,0.48,0.69l6.22,20.92c0.11,0.38,0.21,0.78,0.3,1.22
	c0.09,0.43,0.18,0.89,0.26,1.37c0.1-0.48,0.2-0.93,0.29-1.38c0.1-0.44,0.21-0.84,0.34-1.21l7.08-20.92
	c0.08-0.24,0.25-0.46,0.49-0.66c0.24-0.2,0.54-0.3,0.89-0.3h1.18c0.36,0,0.66,0.09,0.89,0.27c0.23,0.18,0.4,0.41,0.49,0.69
	l7.04,20.92c0.25,0.73,0.47,1.56,0.67,2.5c0.08-0.46,0.16-0.9,0.23-1.32s0.16-0.81,0.27-1.18l6.24-20.92
	c0.07-0.25,0.23-0.48,0.47-0.67s0.54-0.29,0.89-0.29h3.17L32.8,59.77h-3.65l-7.62-22.95c-0.15-0.43-0.29-0.94-0.42-1.51
	c-0.07,0.28-0.14,0.55-0.2,0.81c-0.06,0.26-0.13,0.49-0.2,0.7l-7.66,22.95H9.39L0,29.67z"/>
</svg>
