<?xml version="1.0" encoding="utf-8"?>
<!-- Generator: Adobe Illustrator 16.0.0, SVG Export Plug-In . SVG Version: 6.00 Build 0)  -->
<!DOCTYPE svg PUBLIC "-//W3C//DTD SVG 1.1 Tiny//EN" "http://www.w3.org/Graphics/SVG/1.1/DTD/svg11-tiny.dtd">
<svg version="1.1" baseProfile="tiny" id="Capa_1" xmlns="http://www.w3.org/2000/svg" xmlns:xlink="http://www.w3.org/1999/xlink"
	 x="0px" y="0px" width="25.78px" height="100px" viewBox="0 0 25.78 100" xml:space="preserve">
<path d="M10.35,44.31L0.42,29.67h4.05c0.29,0,0.51,0.05,0.65,0.15c0.14,0.1,0.27,0.24,0.38,0.42l7.86,12.05
	c0.1-0.29,0.24-0.62,0.44-0.96l7.41-11c0.12-0.2,0.26-0.35,0.41-0.47c0.15-0.12,0.33-0.18,0.54-0.18h3.88l-9.97,14.45l10.31,15.64
	h-4.03c-0.31,0-0.55-0.08-0.72-0.24c-0.17-0.16-0.32-0.34-0.43-0.54l-8.06-12.62c-0.1,0.29-0.22,0.57-0.38,0.84L4.89,58.99
	c-0.12,0.2-0.27,0.38-0.43,0.54s-0.39,0.24-0.68,0.24H0L10.35,44.31z"/>
</svg>
