<?xml version="1.0" encoding="utf-8"?>
<!-- Generator: Adobe Illustrator 16.0.0, SVG Export Plug-In . SVG Version: 6.00 Build 0)  -->
<!DOCTYPE svg PUBLIC "-//W3C//DTD SVG 1.1 Tiny//EN" "http://www.w3.org/Graphics/SVG/1.1/DTD/svg11-tiny.dtd">
<svg version="1.1" baseProfile="tiny" id="Capa_1" xmlns="http://www.w3.org/2000/svg" xmlns:xlink="http://www.w3.org/1999/xlink"
	 x="0px" y="0px" width="28.2px" height="100px" viewBox="0 0 28.2 100" xml:space="preserve">
<path d="M14.11,56.53c1.25,0,2.36-0.21,3.34-0.63c0.98-0.42,1.81-1.01,2.49-1.76s1.2-1.66,1.55-2.71s0.54-2.21,0.54-3.46V29.67h4.05
	v18.29c0,1.74-0.28,3.35-0.83,4.83c-0.55,1.48-1.34,2.77-2.37,3.85c-1.03,1.09-2.29,1.94-3.77,2.55c-1.48,0.62-3.15,0.92-5,0.92
	c-1.85,0-3.51-0.31-5-0.92c-1.48-0.62-2.74-1.47-3.78-2.55c-1.04-1.08-1.83-2.37-2.38-3.85c-0.55-1.48-0.83-3.09-0.83-4.83V29.67
	h4.05v18.27c0,1.26,0.18,2.42,0.54,3.47c0.36,1.05,0.88,1.95,1.55,2.71s1.51,1.35,2.5,1.77C11.75,56.32,12.87,56.53,14.11,56.53z"/>
</svg>
