<?xml version="1.0" encoding="utf-8"?>
<!-- Generator: Adobe Illustrator 16.0.0, SVG Export Plug-In . SVG Version: 6.00 Build 0)  -->
<!DOCTYPE svg PUBLIC "-//W3C//DTD SVG 1.1 Tiny//EN" "http://www.w3.org/Graphics/SVG/1.1/DTD/svg11-tiny.dtd">
<svg version="1.1" baseProfile="tiny" id="Capa_1" xmlns="http://www.w3.org/2000/svg" xmlns:xlink="http://www.w3.org/1999/xlink"
	 x="0px" y="0px" width="27.14px" height="100px" viewBox="0 0 27.14 100" xml:space="preserve">
<path d="M27.14,44.73c0,2.25-0.36,4.31-1.07,6.15s-1.72,3.43-3.02,4.75c-1.3,1.32-2.86,2.33-4.68,3.05
	c-1.82,0.72-3.84,1.08-6.05,1.08H1.06V29.67h11.26c2.21,0,4.23,0.36,6.05,1.08c1.82,0.72,3.38,1.74,4.68,3.07
	c1.3,1.32,2.31,2.91,3.02,4.76C26.79,40.42,27.14,42.48,27.14,44.73z M22.96,44.73c0-1.85-0.25-3.5-0.76-4.96
	c-0.5-1.46-1.22-2.69-2.14-3.7c-0.92-1.01-2.04-1.78-3.36-2.31c-1.32-0.53-2.78-0.8-4.39-0.8H5.16v23.5h7.16
	c1.61,0,3.07-0.27,4.39-0.8c1.32-0.53,2.44-1.3,3.36-2.3c0.92-1,1.64-2.23,2.14-3.69C22.71,48.23,22.96,46.58,22.96,44.73z"/>
</svg>
