<?xml version="1.0" encoding="utf-8"?>
<!-- Generator: Adobe Illustrator 16.0.0, SVG Export Plug-In . SVG Version: 6.00 Build 0)  -->
<!DOCTYPE svg PUBLIC "-//W3C//DTD SVG 1.1 Tiny//EN" "http://www.w3.org/Graphics/SVG/1.1/DTD/svg11-tiny.dtd">
<svg version="1.1" baseProfile="tiny" id="Capa_1" xmlns="http://www.w3.org/2000/svg" xmlns:xlink="http://www.w3.org/1999/xlink"
	 x="0px" y="0px" width="28.2px" height="100px" viewBox="0 0 28.2 100" xml:space="preserve">
<path d="M4.81,29.81c0.17,0.09,0.37,0.28,0.6,0.56l17.43,22.68c-0.04-0.36-0.07-0.72-0.08-1.06s-0.02-0.67-0.02-1V29.67h3.57v30.09
	h-2.06c-0.32,0-0.59-0.06-0.81-0.17S23,59.3,22.8,59.03L5.39,36.37c0.03,0.35,0.05,0.69,0.06,1.03c0.01,0.34,0.02,0.64,0.02,0.92
	v21.44H1.9V29.67H4C4.36,29.67,4.63,29.72,4.81,29.81z"/>
</svg>
