<?xml version="1.0" encoding="utf-8"?>
<!-- Generator: Adobe Illustrator 16.0.0, SVG Export Plug-In . SVG Version: 6.00 Build 0)  -->
<!DOCTYPE svg PUBLIC "-//W3C//DTD SVG 1.1 Tiny//EN" "http://www.w3.org/Graphics/SVG/1.1/DTD/svg11-tiny.dtd">
<svg version="1.1" baseProfile="tiny" id="Capa_1" xmlns="http://www.w3.org/2000/svg" xmlns:xlink="http://www.w3.org/1999/xlink"
	 x="0px" y="0px" width="29.66px" height="100px" viewBox="0 0 29.66 100" xml:space="preserve">
<path d="M29.67,44.73c0,2.25-0.36,4.32-1.07,6.21c-0.71,1.88-1.72,3.5-3.02,4.86c-1.3,1.36-2.87,2.41-4.69,3.16
	c-1.83,0.75-3.85,1.12-6.06,1.12c-2.21,0-4.23-0.38-6.05-1.12c-1.82-0.75-3.38-1.8-4.68-3.16c-1.3-1.36-2.31-2.98-3.03-4.86
	C0.36,49.05,0,46.98,0,44.73c0-2.25,0.36-4.32,1.07-6.21c0.71-1.88,1.72-3.51,3.03-4.87c1.3-1.37,2.86-2.43,4.68-3.18
	s3.84-1.13,6.05-1.13c2.21,0,4.23,0.38,6.06,1.13c1.83,0.76,3.39,1.82,4.69,3.18c1.3,1.37,2.31,2.99,3.02,4.87
	C29.32,40.41,29.67,42.48,29.67,44.73z M25.49,44.73c0-1.85-0.25-3.51-0.76-4.98c-0.5-1.47-1.22-2.71-2.14-3.73s-2.04-1.8-3.36-2.34
	c-1.32-0.55-2.79-0.82-4.41-0.82c-1.61,0-3.07,0.27-4.39,0.82C9.12,34.23,8,35.01,7.07,36.03s-1.65,2.26-2.15,3.73
	c-0.5,1.47-0.76,3.13-0.76,4.98c0,1.85,0.25,3.5,0.76,4.97s1.22,2.7,2.15,3.72s2.05,1.79,3.37,2.33c1.31,0.54,2.78,0.81,4.39,0.81
	c1.62,0,3.09-0.27,4.41-0.81c1.31-0.54,2.44-1.32,3.36-2.33s1.64-2.25,2.14-3.72S25.49,46.58,25.49,44.73z"/>
</svg>
