<?xml version="1.0" encoding="utf-8"?>
<!-- Generator: Adobe Illustrator 16.0.0, SVG Export Plug-In . SVG Version: 6.00 Build 0)  -->
<!DOCTYPE svg PUBLIC "-//W3C//DTD SVG 1.1 Tiny//EN" "http://www.w3.org/Graphics/SVG/1.1/DTD/svg11-tiny.dtd">
<svg version="1.1" baseProfile="tiny" id="Capa_1" xmlns="http://www.w3.org/2000/svg" xmlns:xlink="http://www.w3.org/1999/xlink"
	 x="0px" y="0px" width="25.15px" height="100px" viewBox="0 0 25.15 100" xml:space="preserve">
<path d="M4.62,42.86h1.53c0.53,0,0.96-0.07,1.27-0.2c0.31-0.13,0.61-0.36,0.89-0.68l10.02-11.34c0.31-0.35,0.61-0.6,0.89-0.75
	c0.29-0.15,0.65-0.22,1.1-0.22h3.46L12.32,42.63c-0.29,0.32-0.57,0.6-0.83,0.82c-0.26,0.22-0.54,0.41-0.83,0.54
	c0.39,0.13,0.74,0.32,1.03,0.57s0.6,0.57,0.92,0.95l11.97,14.26h-3.53c-0.27,0-0.49-0.02-0.67-0.06c-0.18-0.04-0.34-0.1-0.47-0.17
	c-0.13-0.07-0.25-0.16-0.37-0.27s-0.22-0.23-0.34-0.36L8.82,46.96c-0.15-0.17-0.3-0.31-0.43-0.43c-0.13-0.12-0.29-0.22-0.46-0.3
	c-0.18-0.08-0.38-0.14-0.61-0.18c-0.23-0.03-0.51-0.05-0.85-0.05H4.62v13.78H0.56V29.67h4.05V42.86z"/>
</svg>
