<?xml version="1.0" encoding="utf-8"?>
<!-- Generator: Adobe Illustrator 16.0.0, SVG Export Plug-In . SVG Version: 6.00 Build 0)  -->
<!DOCTYPE svg PUBLIC "-//W3C//DTD SVG 1.1 Tiny//EN" "http://www.w3.org/Graphics/SVG/1.1/DTD/svg11-tiny.dtd">
<svg version="1.1" baseProfile="tiny" id="Capa_1" xmlns="http://www.w3.org/2000/svg" xmlns:xlink="http://www.w3.org/1999/xlink"
	 x="0px" y="0px" width="27.34px" height="100px" viewBox="0 0 27.34 100" xml:space="preserve">
<path d="M24.06,53.55c0.22,0,0.43,0.09,0.61,0.27l1.6,1.74c-1.23,1.43-2.73,2.54-4.48,3.34s-3.87,1.2-6.35,1.2
	c-2.17,0-4.14-0.37-5.9-1.12s-3.27-1.8-4.52-3.15s-2.21-2.97-2.9-4.86C1.43,49.08,1.08,47,1.08,44.73s0.37-4.35,1.1-6.24
	c0.73-1.89,1.77-3.51,3.1-4.87c1.33-1.36,2.92-2.41,4.78-3.16c1.85-0.75,3.9-1.12,6.14-1.12c2.21,0,4.12,0.34,5.72,1.03
	c1.6,0.69,3.03,1.62,4.27,2.79l-1.32,1.87c-0.1,0.14-0.21,0.26-0.34,0.35s-0.31,0.14-0.55,0.14c-0.18,0-0.37-0.07-0.58-0.2
	c-0.2-0.13-0.44-0.3-0.72-0.49c-0.28-0.2-0.61-0.41-0.99-0.63c-0.38-0.22-0.83-0.43-1.34-0.63c-0.52-0.2-1.12-0.36-1.81-0.49
	s-1.48-0.2-2.37-0.2c-1.61,0-3.08,0.28-4.42,0.83s-2.49,1.34-3.45,2.36c-0.97,1.02-1.72,2.27-2.26,3.74
	c-0.54,1.47-0.81,3.12-0.81,4.93c0,1.88,0.27,3.55,0.81,5.02c0.54,1.47,1.27,2.71,2.21,3.73c0.93,1.01,2.03,1.79,3.31,2.32
	c1.27,0.53,2.65,0.8,4.12,0.8c0.9,0,1.7-0.05,2.42-0.16c0.71-0.11,1.38-0.27,1.98-0.49c0.61-0.22,1.18-0.51,1.7-0.85
	c0.52-0.34,1.05-0.75,1.59-1.23C23.6,53.65,23.83,53.55,24.06,53.55z"/>
</svg>
