<?xml version="1.0" encoding="utf-8"?>
<!-- Generator: Adobe Illustrator 16.0.0, SVG Export Plug-In . SVG Version: 6.00 Build 0)  -->
<!DOCTYPE svg PUBLIC "-//W3C//DTD SVG 1.1 Tiny//EN" "http://www.w3.org/Graphics/SVG/1.1/DTD/svg11-tiny.dtd">
<svg version="1.1" baseProfile="tiny" id="Capa_1" xmlns="http://www.w3.org/2000/svg" xmlns:xlink="http://www.w3.org/1999/xlink"
	 x="0px" y="0px" width="16.67px" height="100px" viewBox="0 0 16.67 100" xml:space="preserve">
<path d="M14.76,42.23c-0.17,0.31-0.43,0.46-0.78,0.46c-0.21,0-0.45-0.08-0.71-0.23c-0.27-0.15-0.59-0.33-0.98-0.51
	c-0.38-0.19-0.84-0.36-1.38-0.52s-1.16-0.24-1.89-0.24c-0.63,0-1.2,0.08-1.7,0.24c-0.5,0.16-0.93,0.38-1.29,0.66
	s-0.63,0.61-0.82,0.98s-0.28,0.77-0.28,1.21c0,0.55,0.16,1,0.47,1.36c0.31,0.36,0.73,0.68,1.25,0.95c0.52,0.27,1.11,0.5,1.77,0.7
	c0.66,0.2,1.33,0.42,2.03,0.65c0.69,0.23,1.37,0.49,2.03,0.77s1.25,0.63,1.76,1.05s0.93,0.93,1.25,1.54
	c0.31,0.61,0.47,1.34,0.47,2.19c0,0.98-0.18,1.89-0.53,2.72s-0.87,1.55-1.55,2.16c-0.69,0.61-1.53,1.09-2.52,1.44
	c-0.99,0.35-2.14,0.53-3.44,0.53c-1.48,0-2.83-0.24-4.03-0.72c-1.2-0.48-2.23-1.1-3.07-1.86l0.88-1.43c0.11-0.18,0.24-0.32,0.4-0.42
	s0.36-0.15,0.61-0.15s0.52,0.1,0.8,0.29c0.28,0.2,0.62,0.41,1.02,0.65s0.88,0.46,1.45,0.65c0.57,0.2,1.28,0.29,2.13,0.29
	c0.73,0,1.37-0.09,1.91-0.28c0.54-0.19,1-0.44,1.37-0.77c0.36-0.32,0.63-0.69,0.81-1.11c0.17-0.42,0.26-0.87,0.26-1.34
	c0-0.59-0.16-1.07-0.47-1.46s-0.73-0.71-1.25-0.99c-0.52-0.27-1.11-0.51-1.77-0.71c-0.67-0.2-1.34-0.42-2.04-0.64
	c-0.69-0.22-1.37-0.48-2.04-0.77c-0.67-0.29-1.26-0.65-1.78-1.08s-0.93-0.97-1.25-1.61c-0.32-0.64-0.47-1.41-0.47-2.32
	c0-0.81,0.17-1.59,0.5-2.34s0.83-1.41,1.47-1.97c0.64-0.57,1.44-1.02,2.37-1.35c0.94-0.34,2.01-0.5,3.21-0.5
	c1.4,0,2.66,0.22,3.77,0.66c1.11,0.44,2.08,1.05,2.89,1.82L14.76,42.23z"/>
</svg>
