<?xml version="1.0" encoding="utf-8"?>
<!-- Generator: Adobe Illustrator 16.0.0, SVG Export Plug-In . SVG Version: 6.00 Build 0)  -->
<!DOCTYPE svg PUBLIC "-//W3C//DTD SVG 1.1 Tiny//EN" "http://www.w3.org/Graphics/SVG/1.1/DTD/svg11-tiny.dtd">
<svg version="1.1" baseProfile="tiny" id="Capa_1" xmlns="http://www.w3.org/2000/svg" xmlns:xlink="http://www.w3.org/1999/xlink"
	 x="0px" y="0px" width="20px" height="100px" viewBox="0 0 20 100" xml:space="preserve">
<path d="M7.48,49.1L0.32,38.73h3.59c0.31,0,0.53,0.05,0.67,0.15s0.27,0.24,0.38,0.42l5.21,7.98c0.13-0.39,0.31-0.78,0.55-1.18
	l4.58-6.72c0.14-0.2,0.28-0.35,0.42-0.47c0.14-0.12,0.31-0.18,0.52-0.18h3.45l-7.16,10.16L19.97,60h-3.59
	c-0.31,0-0.55-0.08-0.72-0.24c-0.18-0.16-0.32-0.34-0.43-0.54l-5.36-8.34c-0.1,0.41-0.24,0.77-0.44,1.09l-4.96,7.24
	c-0.14,0.2-0.29,0.38-0.45,0.54C3.87,59.92,3.64,60,3.36,60H0.03L7.48,49.1z"/>
</svg>
