<?xml version="1.0" encoding="utf-8"?>
<!-- Generator: Adobe Illustrator 16.0.0, SVG Export Plug-In . SVG Version: 6.00 Build 0)  -->
<!DOCTYPE svg PUBLIC "-//W3C//DTD SVG 1.1 Tiny//EN" "http://www.w3.org/Graphics/SVG/1.1/DTD/svg11-tiny.dtd">
<svg version="1.1" baseProfile="tiny" id="Capa_1" xmlns="http://www.w3.org/2000/svg" xmlns:xlink="http://www.w3.org/1999/xlink"
	 x="0px" y="0px" width="7.58px" height="100px" viewBox="0 0 7.58 100" xml:space="preserve">
<path d="M6.58,32.05c0,0.36-0.07,0.7-0.22,1.02c-0.15,0.32-0.34,0.6-0.59,0.84c-0.25,0.25-0.53,0.44-0.85,0.58
	C4.6,34.62,4.26,34.7,3.9,34.7s-0.7-0.07-1.02-0.21s-0.6-0.33-0.84-0.58c-0.25-0.24-0.44-0.52-0.58-0.84
	c-0.14-0.31-0.21-0.65-0.21-1.02c0-0.36,0.07-0.71,0.21-1.04c0.14-0.33,0.33-0.62,0.58-0.86c0.24-0.25,0.53-0.44,0.84-0.58
	s0.65-0.21,1.02-0.21s0.71,0.07,1.03,0.21c0.32,0.14,0.61,0.33,0.85,0.58c0.24,0.25,0.44,0.53,0.59,0.86
	C6.51,31.34,6.58,31.69,6.58,32.05z M5.75,38.73V60H2.01V38.73H5.75z"/>
</svg>
