<?xml version="1.0" encoding="utf-8"?>
<!-- Generator: Adobe Illustrator 16.0.0, SVG Export Plug-In . SVG Version: 6.00 Build 0)  -->
<!DOCTYPE svg PUBLIC "-//W3C//DTD SVG 1.1 Tiny//EN" "http://www.w3.org/Graphics/SVG/1.1/DTD/svg11-tiny.dtd">
<svg version="1.1" baseProfile="tiny" id="Capa_1" xmlns="http://www.w3.org/2000/svg" xmlns:xlink="http://www.w3.org/1999/xlink"
	 x="0px" y="0px" width="14.3px" height="100px" viewBox="0 0 14.3 100" xml:space="preserve">
<path d="M9.15,60.34c-1.68,0-2.97-0.47-3.87-1.41c-0.9-0.94-1.36-2.29-1.36-4.05V41.86H1.36c-0.22,0-0.41-0.07-0.57-0.2
	c-0.15-0.13-0.23-0.34-0.23-0.62v-1.49l3.49-0.44l0.86-6.57c0.03-0.21,0.12-0.38,0.27-0.51s0.35-0.2,0.59-0.2h1.89v7.33h6.09v2.71
	H7.66v12.77c0,0.9,0.22,1.56,0.65,2s0.99,0.65,1.68,0.65c0.39,0,0.73-0.05,1.02-0.16c0.29-0.1,0.54-0.22,0.75-0.35
	c0.21-0.13,0.39-0.24,0.54-0.35c0.15-0.11,0.28-0.16,0.39-0.16c0.2,0,0.37,0.12,0.53,0.36l1.09,1.79c-0.64,0.6-1.42,1.07-2.33,1.42
	C11.06,60.16,10.12,60.34,9.15,60.34z"/>
</svg>
