<?xml version="1.0" encoding="utf-8"?>
<!-- Generator: Adobe Illustrator 16.0.0, SVG Export Plug-In . SVG Version: 6.00 Build 0)  -->
<!DOCTYPE svg PUBLIC "-//W3C//DTD SVG 1.1 Tiny//EN" "http://www.w3.org/Graphics/SVG/1.1/DTD/svg11-tiny.dtd">
<svg version="1.1" baseProfile="tiny" id="Capa_1" xmlns="http://www.w3.org/2000/svg" xmlns:xlink="http://www.w3.org/1999/xlink"
	 x="0px" y="0px" width="20px" height="100px" viewBox="0 0 20 100" xml:space="preserve">
<path d="M18.38,60.03h-1.66c-0.36,0-0.66-0.06-0.88-0.17c-0.22-0.11-0.37-0.35-0.44-0.71l-0.42-1.97c-0.56,0.51-1.11,0.96-1.64,1.36
	s-1.09,0.73-1.68,1.01c-0.59,0.27-1.21,0.48-1.88,0.62c-0.67,0.14-1.4,0.21-2.22,0.21c-0.83,0-1.6-0.12-2.32-0.35
	c-0.72-0.23-1.35-0.58-1.88-1.04c-0.53-0.46-0.96-1.05-1.27-1.76c-0.31-0.71-0.47-1.55-0.47-2.52c0-0.84,0.23-1.65,0.69-2.43
	c0.46-0.78,1.21-1.47,2.24-2.08c1.03-0.6,2.38-1.1,4.04-1.49c1.67-0.39,3.7-0.58,6.11-0.58v-1.67c0-1.66-0.35-2.92-1.06-3.77
	c-0.71-0.85-1.75-1.28-3.14-1.28c-0.91,0-1.68,0.12-2.3,0.35c-0.62,0.23-1.16,0.49-1.62,0.78c-0.46,0.29-0.85,0.55-1.18,0.78
	c-0.33,0.23-0.65,0.35-0.98,0.35c-0.25,0-0.47-0.07-0.66-0.2s-0.34-0.3-0.45-0.49l-0.67-1.2c1.18-1.13,2.44-1.98,3.8-2.54
	c1.36-0.56,2.86-0.84,4.51-0.84c1.19,0,2.25,0.2,3.17,0.59c0.92,0.39,1.7,0.94,2.33,1.64c0.63,0.7,1.11,1.55,1.43,2.54
	c0.32,0.99,0.48,2.09,0.48,3.28V60.03z M8.68,57.74c0.66,0,1.26-0.07,1.81-0.2s1.06-0.32,1.54-0.57c0.48-0.24,0.95-0.54,1.39-0.89
	c0.44-0.35,0.87-0.75,1.29-1.2V50.5c-1.72,0-3.19,0.11-4.39,0.33s-2.18,0.5-2.94,0.86s-1.31,0.77-1.65,1.25
	c-0.34,0.48-0.51,1.01-0.51,1.61c0,0.56,0.09,1.05,0.27,1.46c0.18,0.41,0.43,0.74,0.73,1s0.67,0.45,1.09,0.57S8.19,57.74,8.68,57.74
	z"/>
</svg>
