<?xml version="1.0" encoding="utf-8"?>
<!-- Generator: Adobe Illustrator 16.0.0, SVG Export Plug-In . SVG Version: 6.00 Build 0)  -->
<!DOCTYPE svg PUBLIC "-//W3C//DTD SVG 1.1 Tiny//EN" "http://www.w3.org/Graphics/SVG/1.1/DTD/svg11-tiny.dtd">
<svg version="1.1" baseProfile="tiny" id="Capa_1" xmlns="http://www.w3.org/2000/svg" xmlns:xlink="http://www.w3.org/1999/xlink"
	 x="0px" y="0px" width="20px" height="100px" viewBox="0 0 20 100" xml:space="preserve">
<path d="M1.15,60V38.73h2.23c0.53,0,0.87,0.26,1.01,0.78l0.29,2.31c0.92-1.02,1.96-1.85,3.1-2.48c1.14-0.63,2.46-0.95,3.96-0.95
	c1.16,0,2.19,0.19,3.08,0.58s1.63,0.93,2.23,1.64s1.05,1.56,1.35,2.55c0.31,0.99,0.46,2.09,0.46,3.3V60h-3.74V46.45
	c0-1.61-0.37-2.86-1.1-3.75c-0.74-0.89-1.86-1.33-3.37-1.33c-1.11,0-2.14,0.27-3.1,0.8s-1.84,1.25-2.66,2.16V60H1.15z M12.26,32.17
	c0.5,0,0.89-0.15,1.17-0.44c0.27-0.29,0.42-0.75,0.43-1.37h2.27c0,0.66-0.09,1.26-0.26,1.82c-0.18,0.55-0.43,1.03-0.76,1.42
	c-0.33,0.39-0.72,0.7-1.18,0.91c-0.46,0.22-0.96,0.33-1.52,0.33c-0.49,0-0.95-0.1-1.38-0.3c-0.43-0.2-0.83-0.42-1.21-0.66
	c-0.38-0.24-0.73-0.46-1.07-0.66s-0.67-0.3-0.99-0.3c-1.01,0-1.53,0.62-1.55,1.85H3.88c0-0.67,0.09-1.28,0.27-1.84
	c0.18-0.55,0.44-1.03,0.78-1.43c0.34-0.4,0.73-0.71,1.2-0.92c0.46-0.22,0.96-0.33,1.51-0.33c0.49,0,0.95,0.1,1.38,0.3
	c0.43,0.2,0.83,0.42,1.21,0.66s0.73,0.46,1.06,0.66C11.61,32.07,11.93,32.17,12.26,32.17z"/>
</svg>
