<?xml version="1.0" encoding="utf-8"?>
<!-- Generator: Adobe Illustrator 16.0.0, SVG Export Plug-In . SVG Version: 6.00 Build 0)  -->
<!DOCTYPE svg PUBLIC "-//W3C//DTD SVG 1.1 Tiny//EN" "http://www.w3.org/Graphics/SVG/1.1/DTD/svg11-tiny.dtd">
<svg version="1.1" baseProfile="tiny" id="Capa_1" xmlns="http://www.w3.org/2000/svg" xmlns:xlink="http://www.w3.org/1999/xlink"
	 x="0px" y="0px" width="10.86px" height="100px" viewBox="0 0 10.86 100" xml:space="preserve">
<path d="M9.16,38.72v22.85c0,0.85-0.11,1.65-0.34,2.38c-0.22,0.74-0.58,1.38-1.06,1.92c-0.48,0.55-1.11,0.98-1.87,1.29
	c-0.76,0.31-1.68,0.47-2.74,0.47c-0.46,0-0.88-0.03-1.26-0.1s-0.76-0.17-1.13-0.32l0.17-2.02c0.03-0.18,0.09-0.3,0.19-0.35
	c0.1-0.05,0.25-0.07,0.46-0.07c0.11,0,0.23,0,0.36,0s0.28,0,0.46,0c1.09,0,1.87-0.26,2.33-0.77c0.46-0.51,0.69-1.33,0.69-2.47V38.72
	H9.16z M10,32.05c0,0.36-0.07,0.7-0.22,1.02c-0.15,0.32-0.34,0.6-0.59,0.84c-0.25,0.25-0.53,0.44-0.85,0.58
	c-0.32,0.14-0.66,0.21-1.03,0.21s-0.7-0.07-1.02-0.21s-0.6-0.33-0.84-0.58c-0.25-0.24-0.44-0.52-0.58-0.84
	c-0.14-0.31-0.21-0.65-0.21-1.02c0-0.36,0.07-0.71,0.21-1.04c0.14-0.33,0.33-0.62,0.58-0.86c0.24-0.25,0.53-0.44,0.84-0.58
	s0.65-0.21,1.02-0.21s0.71,0.07,1.03,0.21c0.32,0.14,0.61,0.33,0.85,0.58c0.24,0.25,0.44,0.53,0.59,0.86
	C9.93,31.34,10,31.69,10,32.05z"/>
</svg>
