<?xml version="1.0" encoding="utf-8"?>
<!-- Generator: Adobe Illustrator 16.0.0, SVG Export Plug-In . SVG Version: 6.00 Build 0)  -->
<!DOCTYPE svg PUBLIC "-//W3C//DTD SVG 1.1 Tiny//EN" "http://www.w3.org/Graphics/SVG/1.1/DTD/svg11-tiny.dtd">
<svg version="1.1" baseProfile="tiny" id="Capa_1" xmlns="http://www.w3.org/2000/svg" xmlns:xlink="http://www.w3.org/1999/xlink"
	 x="0px" y="0px" width="20px" height="100px" viewBox="0 0 20 100" xml:space="preserve">
<path d="M19.38,38.77v28.48h-3.74V56.89c-0.9,1.04-1.92,1.87-3.06,2.5s-2.45,0.95-3.92,0.95c-1.22,0-2.32-0.23-3.32-0.7
	s-1.84-1.16-2.54-2.07s-1.24-2.04-1.62-3.4c-0.38-1.36-0.57-2.92-0.57-4.68c0-1.57,0.21-3.03,0.63-4.38
	c0.42-1.35,1.03-2.52,1.82-3.52c0.79-0.99,1.75-1.77,2.89-2.34c1.13-0.57,2.42-0.85,3.86-0.85c1.37,0,2.54,0.25,3.5,0.74
	s1.82,1.18,2.57,2.08l0.25-1.66c0.14-0.52,0.47-0.78,1.01-0.78H19.38z M9.91,57.31c1.22,0,2.29-0.28,3.2-0.84
	c0.92-0.56,1.76-1.35,2.53-2.37V43.81c-0.67-0.9-1.42-1.54-2.25-1.92s-1.74-0.58-2.73-0.58c-1.99,0-3.51,0.71-4.58,2.12
	c-1.06,1.41-1.6,3.43-1.6,6.05c0,1.39,0.12,2.57,0.36,3.56c0.24,0.99,0.59,1.8,1.05,2.44c0.46,0.64,1.03,1.1,1.7,1.4
	C8.27,57.17,9.04,57.31,9.91,57.31z"/>
</svg>
