<?xml version="1.0" encoding="utf-8"?>
<!-- Generator: Adobe Illustrator 16.0.0, SVG Export Plug-In . SVG Version: 6.00 Build 0)  -->
<!DOCTYPE svg PUBLIC "-//W3C//DTD SVG 1.1 Tiny//EN" "http://www.w3.org/Graphics/SVG/1.1/DTD/svg11-tiny.dtd">
<svg version="1.1" baseProfile="tiny" id="Capa_1" xmlns="http://www.w3.org/2000/svg" xmlns:xlink="http://www.w3.org/1999/xlink"
	 x="0px" y="0px" width="20.62px" height="100px" viewBox="0 0 20.62 100" xml:space="preserve">
<path d="M17.26,60.08c-0.53,0-0.87-0.26-1.01-0.78l-0.34-2.58c-0.91,1.11-1.95,1.99-3.12,2.66s-2.51,1-4.02,1
	c-1.22,0-2.32-0.23-3.32-0.7s-1.84-1.16-2.54-2.07s-1.24-2.04-1.62-3.4c-0.38-1.36-0.57-2.92-0.57-4.68c0-1.57,0.21-3.03,0.63-4.38
	c0.42-1.35,1.03-2.52,1.82-3.52s1.75-1.77,2.89-2.34c1.13-0.57,2.42-0.85,3.86-0.85c1.3,0,2.42,0.22,3.34,0.66
	c0.92,0.44,1.75,1.06,2.48,1.86v-11.8h3.74v30.93H17.26z M10.02,57.34c1.22,0,2.29-0.28,3.2-0.84c0.92-0.56,1.76-1.35,2.53-2.37
	V43.84c-0.69-0.92-1.44-1.57-2.26-1.94c-0.82-0.37-1.73-0.56-2.72-0.56c-1.99,0-3.51,0.71-4.58,2.12c-1.06,1.41-1.6,3.43-1.6,6.05
	c0,1.39,0.12,2.57,0.36,3.56c0.24,0.99,0.59,1.8,1.05,2.44c0.46,0.64,1.03,1.1,1.7,1.4S9.15,57.34,10.02,57.34z"/>
</svg>
