<?xml version="1.0" encoding="utf-8"?>
<!-- Generator: Adobe Illustrator 16.0.0, SVG Export Plug-In . SVG Version: 6.00 Build 0)  -->
<!DOCTYPE svg PUBLIC "-//W3C//DTD SVG 1.1 Tiny//EN" "http://www.w3.org/Graphics/SVG/1.1/DTD/svg11-tiny.dtd">
<svg version="1.1" baseProfile="tiny" id="Capa_1" xmlns="http://www.w3.org/2000/svg" xmlns:xlink="http://www.w3.org/1999/xlink"
	 x="0px" y="0px" width="13.65px" height="100px" viewBox="0 0 13.65 100" xml:space="preserve">
<path d="M0.71,60V38.73h2.14c0.41,0,0.69,0.08,0.84,0.23s0.26,0.42,0.32,0.8l0.25,3.32c0.73-1.48,1.63-2.64,2.7-3.48
	s2.33-1.25,3.77-1.25c0.59,0,1.12,0.07,1.6,0.2s0.92,0.32,1.32,0.56l-0.48,2.79c-0.1,0.35-0.31,0.52-0.65,0.52
	c-0.2,0-0.5-0.07-0.9-0.2s-0.97-0.2-1.7-0.2c-1.3,0-2.39,0.38-3.27,1.13s-1.61,1.86-2.19,3.3V60H0.71z"/>
</svg>
