<?xml version="1.0" encoding="utf-8"?>
<!-- Generator: Adobe Illustrator 16.0.0, SVG Export Plug-In . SVG Version: 6.00 Build 0)  -->
<!DOCTYPE svg PUBLIC "-//W3C//DTD SVG 1.1 Tiny//EN" "http://www.w3.org/Graphics/SVG/1.1/DTD/svg11-tiny.dtd">
<svg version="1.1" baseProfile="tiny" id="Capa_1" xmlns="http://www.w3.org/2000/svg" xmlns:xlink="http://www.w3.org/1999/xlink"
	 x="0px" y="0px" width="20.89px" height="100px" viewBox="0 0 20.89 100" xml:space="preserve">
<path d="M5.13,29.07v18.21H6.1c0.28,0,0.51-0.04,0.69-0.12c0.18-0.08,0.39-0.23,0.61-0.47l6.72-7.2c0.21-0.22,0.42-0.41,0.63-0.55
	c0.21-0.14,0.49-0.21,0.84-0.21h3.4l-7.83,8.34c-0.2,0.24-0.39,0.45-0.58,0.63s-0.4,0.34-0.64,0.48c0.25,0.17,0.48,0.36,0.68,0.58
	s0.4,0.46,0.58,0.75L19.52,60h-3.36c-0.31,0-0.57-0.06-0.79-0.18c-0.22-0.12-0.42-0.3-0.62-0.56l-6.99-8.71
	c-0.21-0.29-0.42-0.49-0.63-0.58c-0.21-0.09-0.52-0.14-0.94-0.14H5.13V60H1.37V29.07H5.13z"/>
</svg>
