<?xml version="1.0" encoding="utf-8"?>
<!-- Generator: Adobe Illustrator 16.0.0, SVG Export Plug-In . SVG Version: 6.00 Build 0)  -->
<!DOCTYPE svg PUBLIC "-//W3C//DTD SVG 1.1 Tiny//EN" "http://www.w3.org/Graphics/SVG/1.1/DTD/svg11-tiny.dtd">
<svg version="1.1" baseProfile="tiny" id="Capa_1" xmlns="http://www.w3.org/2000/svg" xmlns:xlink="http://www.w3.org/1999/xlink"
	 x="0px" y="0px" width="15.3px" height="100px" viewBox="0 0 15.3 100" xml:space="preserve">
<path d="M4.61,60V41.92l-2.35-0.27c-0.29-0.07-0.54-0.18-0.72-0.33c-0.19-0.15-0.28-0.36-0.28-0.64v-1.53h3.36v-2.06
	c0-1.22,0.17-2.3,0.51-3.24c0.34-0.95,0.83-1.74,1.47-2.39c0.64-0.65,1.4-1.14,2.3-1.48s1.9-0.5,3.02-0.5
	c0.95,0,1.83,0.14,2.65,0.42l-0.08,1.87c-0.01,0.28-0.13,0.45-0.36,0.5c-0.22,0.06-0.54,0.08-0.94,0.08h-0.65
	c-0.64,0-1.23,0.08-1.75,0.25c-0.52,0.17-0.98,0.44-1.35,0.82c-0.38,0.38-0.67,0.88-0.87,1.49c-0.2,0.62-0.3,1.38-0.3,2.29v1.95
	h6.15v2.71H8.37V60H4.61z"/>
</svg>
