<?xml version="1.0" encoding="utf-8"?>
<!-- Generator: Adobe Illustrator 16.0.0, SVG Export Plug-In . SVG Version: 6.00 Build 0)  -->
<!DOCTYPE svg PUBLIC "-//W3C//DTD SVG 1.1 Tiny//EN" "http://www.w3.org/Graphics/SVG/1.1/DTD/svg11-tiny.dtd">
<svg version="1.1" baseProfile="tiny" id="Capa_1" xmlns="http://www.w3.org/2000/svg" xmlns:xlink="http://www.w3.org/1999/xlink"
	 x="0px" y="0px" width="20px" height="100px" viewBox="0 0 20 100" xml:space="preserve">
<path d="M9.31,40.05c0.92,0,1.79,0.1,2.59,0.3s1.54,0.5,2.2,0.89h5.78v1.39c0,0.46-0.29,0.76-0.88,0.88l-2.41,0.34
	c0.47,0.91,0.71,1.92,0.71,3.04c0,1.04-0.2,1.98-0.6,2.82c-0.4,0.85-0.95,1.57-1.66,2.17c-0.71,0.6-1.55,1.06-2.52,1.39
	c-0.97,0.32-2.04,0.48-3.2,0.48c-0.99,0-1.93-0.12-2.81-0.36c-0.45,0.29-0.79,0.6-1.02,0.93C5.24,54.68,5.13,55,5.13,55.32
	c0,0.52,0.2,0.92,0.61,1.18c0.4,0.27,0.94,0.46,1.62,0.58s1.44,0.17,2.29,0.17c0.86,0,1.73,0,2.62,0s1.76,0.08,2.62,0.23
	c0.85,0.16,1.62,0.41,2.29,0.77s1.21,0.84,1.62,1.47c0.4,0.62,0.61,1.43,0.61,2.42c0,0.92-0.23,1.81-0.68,2.68s-1.11,1.63-1.96,2.31
	c-0.86,0.67-1.9,1.21-3.13,1.62c-1.23,0.4-2.62,0.61-4.18,0.61s-2.92-0.15-4.08-0.46c-1.17-0.31-2.14-0.72-2.91-1.24
	c-0.77-0.52-1.35-1.12-1.73-1.8s-0.58-1.39-0.58-2.13c0-1.05,0.33-1.95,1-2.68c0.67-0.74,1.58-1.32,2.74-1.75
	c-0.6-0.28-1.08-0.65-1.44-1.12c-0.36-0.47-0.54-1.09-0.54-1.88c0-0.31,0.05-0.62,0.17-0.95c0.11-0.33,0.28-0.65,0.51-0.98
	c0.23-0.32,0.52-0.63,0.85-0.92c0.34-0.29,0.73-0.55,1.18-0.78c-1.05-0.59-1.87-1.37-2.47-2.34c-0.6-0.97-0.89-2.11-0.89-3.41
	c0-1.04,0.2-1.98,0.6-2.82s0.96-1.57,1.67-2.16c0.71-0.59,1.56-1.05,2.55-1.38C7.05,40.22,8.13,40.05,9.31,40.05z M15.94,62.76
	c0-0.54-0.15-0.98-0.44-1.31c-0.29-0.33-0.69-0.58-1.2-0.76s-1.08-0.31-1.74-0.4c-0.66-0.08-1.35-0.13-2.08-0.13
	c-0.73,0-1.47,0-2.22,0s-1.48-0.09-2.16-0.28c-0.8,0.38-1.45,0.84-1.94,1.39c-0.5,0.55-0.75,1.2-0.75,1.96
	c0,0.48,0.12,0.92,0.37,1.33c0.25,0.41,0.62,0.77,1.12,1.07c0.5,0.3,1.14,0.54,1.9,0.71c0.76,0.17,1.66,0.26,2.7,0.26
	c1.01,0,1.91-0.09,2.71-0.28c0.8-0.19,1.47-0.45,2.03-0.79c0.55-0.34,0.98-0.75,1.27-1.22C15.8,63.86,15.94,63.33,15.94,62.76z
	 M9.31,51.29c0.76,0,1.43-0.11,2.01-0.32c0.58-0.21,1.07-0.5,1.46-0.88c0.39-0.38,0.69-0.83,0.88-1.35c0.2-0.53,0.29-1.1,0.29-1.73
	c0-1.3-0.4-2.34-1.19-3.11c-0.79-0.77-1.94-1.16-3.46-1.16c-1.5,0-2.64,0.39-3.43,1.16c-0.79,0.77-1.19,1.81-1.19,3.11
	c0,0.63,0.1,1.21,0.3,1.73c0.2,0.52,0.5,0.98,0.89,1.35c0.39,0.38,0.88,0.67,1.45,0.88C7.91,51.18,8.56,51.29,9.31,51.29z"/>
</svg>
