<?xml version="1.0" encoding="utf-8"?>
<!-- Generator: Adobe Illustrator 16.0.0, SVG Export Plug-In . SVG Version: 6.00 Build 0)  -->
<!DOCTYPE svg PUBLIC "-//W3C//DTD SVG 1.1 Tiny//EN" "http://www.w3.org/Graphics/SVG/1.1/DTD/svg11-tiny.dtd">
<svg version="1.1" baseProfile="tiny" id="Capa_1" xmlns="http://www.w3.org/2000/svg" xmlns:xlink="http://www.w3.org/1999/xlink"
	 x="0px" y="0px" width="22px" height="100px" viewBox="0 0 22 100" xml:space="preserve">
<path d="M11.56,38.47c1.27,0,2.45,0.21,3.53,0.64c1.08,0.43,2.01,1.04,2.79,1.85c0.78,0.8,1.4,1.8,1.84,2.98
	c0.44,1.18,0.66,2.53,0.66,4.04c0,0.59-0.06,0.98-0.19,1.18s-0.36,0.29-0.71,0.29H5.32c0.03,1.34,0.21,2.51,0.55,3.51
	s0.8,1.82,1.39,2.49c0.59,0.67,1.29,1.16,2.1,1.49c0.81,0.33,1.72,0.49,2.73,0.49c0.94,0,1.75-0.11,2.42-0.33
	c0.68-0.22,1.26-0.45,1.75-0.7s0.9-0.49,1.23-0.7c0.33-0.22,0.61-0.33,0.85-0.33c0.31,0,0.54,0.12,0.71,0.36l1.05,1.36
	c-0.46,0.56-1.02,1.05-1.66,1.46s-1.33,0.75-2.07,1.02s-1.5,0.47-2.28,0.6c-0.79,0.13-1.56,0.2-2.33,0.2
	c-1.47,0-2.82-0.25-4.06-0.75c-1.24-0.5-2.31-1.23-3.21-2.18c-0.9-0.96-1.61-2.15-2.11-3.56s-0.76-3.04-0.76-4.87
	c0-1.48,0.23-2.87,0.68-4.16s1.11-2.41,1.96-3.35c0.85-0.95,1.9-1.69,3.13-2.23C8.63,38.74,10.02,38.47,11.56,38.47z M11.64,41.22
	c-1.81,0-3.23,0.52-4.26,1.56c-1.04,1.04-1.68,2.49-1.93,4.34h11.57c0-0.87-0.12-1.66-0.36-2.38c-0.24-0.72-0.59-1.34-1.05-1.87
	c-0.46-0.52-1.03-0.93-1.69-1.22C13.25,41.36,12.49,41.22,11.64,41.22z"/>
</svg>
