<?xml version="1.0" encoding="utf-8"?>
<!-- Generator: Adobe Illustrator 16.0.0, SVG Export Plug-In . SVG Version: 6.00 Build 0)  -->
<!DOCTYPE svg PUBLIC "-//W3C//DTD SVG 1.1 Tiny//EN" "http://www.w3.org/Graphics/SVG/1.1/DTD/svg11-tiny.dtd">
<svg version="1.1" baseProfile="tiny" id="Capa_1" xmlns="http://www.w3.org/2000/svg" xmlns:xlink="http://www.w3.org/1999/xlink"
	 x="0px" y="0px" width="22px" height="100px" viewBox="0 0 22 100" xml:space="preserve">
<path d="M2.16,60.08V29.14h3.76v12.73c0.88-1.02,1.89-1.84,3.03-2.47c1.14-0.62,2.45-0.93,3.92-0.93c1.23,0,2.34,0.23,3.34,0.69
	c0.99,0.46,1.84,1.15,2.54,2.07c0.7,0.92,1.24,2.05,1.62,3.4c0.38,1.35,0.57,2.91,0.57,4.67c0,1.57-0.21,3.03-0.63,4.38
	c-0.42,1.35-1.03,2.52-1.82,3.51c-0.79,0.99-1.76,1.76-2.9,2.33c-1.14,0.57-2.43,0.85-3.85,0.85c-1.37,0-2.54-0.27-3.5-0.8
	s-1.8-1.27-2.51-2.23l-0.19,1.93c-0.11,0.53-0.43,0.8-0.97,0.8H2.16z M11.65,41.45c-1.22,0-2.29,0.28-3.2,0.84
	c-0.92,0.56-1.76,1.35-2.53,2.37v10.29c0.67,0.92,1.42,1.58,2.24,1.95s1.73,0.57,2.74,0.57c1.99,0,3.51-0.71,4.58-2.12
	s1.6-3.43,1.6-6.05c0-1.39-0.12-2.58-0.37-3.57s-0.6-1.81-1.06-2.45c-0.46-0.64-1.03-1.1-1.7-1.4
	C13.27,41.59,12.5,41.45,11.65,41.45z"/>
</svg>
