<?xml version="1.0" encoding="utf-8"?>
<!-- Generator: Adobe Illustrator 16.0.0, SVG Export Plug-In . SVG Version: 6.00 Build 0)  -->
<!DOCTYPE svg PUBLIC "-//W3C//DTD SVG 1.1 Tiny//EN" "http://www.w3.org/Graphics/SVG/1.1/DTD/svg11-tiny.dtd">
<svg version="1.1" baseProfile="tiny" id="Capa_1" xmlns="http://www.w3.org/2000/svg" xmlns:xlink="http://www.w3.org/1999/xlink"
	 x="0px" y="0px" width="20px" height="100px" viewBox="0 0 20 100" xml:space="preserve">
<path d="M0.62,67.25V38.77h2.22c0.53,0,0.87,0.26,1.01,0.78l0.32,2.52c0.91-1.11,1.95-2,3.12-2.67c1.17-0.67,2.52-1.01,4.04-1.01
	c1.22,0,2.32,0.24,3.32,0.7s1.84,1.16,2.54,2.08c0.7,0.92,1.24,2.05,1.62,3.41c0.38,1.36,0.57,2.92,0.57,4.68
	c0,1.57-0.21,3.03-0.63,4.38c-0.42,1.35-1.02,2.52-1.81,3.51c-0.79,0.99-1.75,1.76-2.89,2.33c-1.14,0.57-2.42,0.85-3.85,0.85
	c-1.31,0-2.44-0.22-3.37-0.65c-0.93-0.43-1.75-1.05-2.47-1.85v9.41H0.62z M10.09,41.42c-1.22,0-2.29,0.28-3.2,0.84
	c-0.92,0.56-1.76,1.35-2.53,2.37v10.29c0.69,0.92,1.44,1.58,2.26,1.95c0.82,0.38,1.73,0.57,2.74,0.57c1.97,0,3.49-0.71,4.56-2.12
	c1.06-1.41,1.6-3.43,1.6-6.05c0-1.39-0.12-2.58-0.37-3.57c-0.25-0.99-0.6-1.81-1.06-2.45c-0.46-0.64-1.03-1.1-1.7-1.4
	C11.71,41.56,10.95,41.42,10.09,41.42z"/>
</svg>
