<?xml version="1.0" encoding="utf-8"?>
<!-- Generator: Adobe Illustrator 16.0.0, SVG Export Plug-In . SVG Version: 6.00 Build 0)  -->
<!DOCTYPE svg PUBLIC "-//W3C//DTD SVG 1.1 Tiny//EN" "http://www.w3.org/Graphics/SVG/1.1/DTD/svg11-tiny.dtd">
<svg version="1.1" baseProfile="tiny" id="Capa_1" xmlns="http://www.w3.org/2000/svg" xmlns:xlink="http://www.w3.org/1999/xlink"
	 x="0px" y="0px" width="20.88px" height="100px" viewBox="0 0 20.88 100" xml:space="preserve">
<path d="M9.01,66.28c-0.13,0.28-0.28,0.5-0.47,0.67S8.06,67.2,7.67,67.2H4.89l3.89-8.44L0,38.73h3.23c0.32,0,0.57,0.08,0.76,0.24
	s0.31,0.34,0.4,0.54l5.69,13.4c0.13,0.31,0.23,0.62,0.33,0.92c0.09,0.31,0.17,0.62,0.24,0.95c0.1-0.32,0.2-0.64,0.29-0.95
	c0.1-0.31,0.21-0.62,0.34-0.95L16.8,39.5c0.08-0.22,0.23-0.41,0.43-0.56c0.2-0.15,0.42-0.22,0.66-0.22h2.98L9.01,66.28z"/>
</svg>
