<?xml version="1.0" encoding="utf-8"?>
<!-- Generator: Adobe Illustrator 16.0.0, SVG Export Plug-In . SVG Version: 6.00 Build 0)  -->
<!DOCTYPE svg PUBLIC "-//W3C//DTD SVG 1.1 Tiny//EN" "http://www.w3.org/Graphics/SVG/1.1/DTD/svg11-tiny.dtd">
<svg version="1.1" baseProfile="tiny" id="Capa_1" xmlns="http://www.w3.org/2000/svg" xmlns:xlink="http://www.w3.org/1999/xlink"
	 x="0px" y="0px" width="18.83px" height="100px" viewBox="0 0 18.83 100" xml:space="preserve">
<path d="M16.95,42.58c-0.11,0.15-0.22,0.27-0.34,0.36s-0.27,0.13-0.48,0.13s-0.44-0.09-0.68-0.26c-0.25-0.17-0.56-0.37-0.93-0.58
	s-0.84-0.4-1.38-0.58c-0.54-0.17-1.2-0.26-1.98-0.26c-1.04,0-1.95,0.19-2.75,0.56c-0.8,0.37-1.47,0.91-2.01,1.61
	c-0.54,0.7-0.94,1.55-1.22,2.54c-0.27,0.99-0.41,2.11-0.41,3.34c0,1.29,0.15,2.43,0.44,3.43c0.29,1,0.71,1.84,1.24,2.52
	s1.18,1.2,1.94,1.55c0.76,0.36,1.62,0.54,2.57,0.54c0.91,0,1.66-0.11,2.25-0.33c0.59-0.22,1.08-0.46,1.47-0.72
	c0.39-0.27,0.71-0.51,0.97-0.72c0.25-0.22,0.5-0.33,0.76-0.33c0.32,0,0.56,0.12,0.71,0.36l1.05,1.36c-0.92,1.13-2.08,1.96-3.46,2.49
	c-1.39,0.52-2.85,0.79-4.39,0.79c-1.33,0-2.57-0.25-3.71-0.74c-1.14-0.49-2.13-1.2-2.97-2.13c-0.84-0.93-1.5-2.08-1.99-3.43
	c-0.48-1.36-0.72-2.91-0.72-4.64c0-1.58,0.22-3.04,0.66-4.39s1.08-2.5,1.93-3.48c0.85-0.97,1.89-1.73,3.14-2.28s2.67-0.82,4.28-0.82
	c1.48,0,2.8,0.24,3.95,0.72c1.15,0.48,2.16,1.17,3.04,2.05L16.95,42.58z"/>
</svg>
