<?xml version="1.0" encoding="utf-8"?>
<!-- Generator: Adobe Illustrator 16.0.0, SVG Export Plug-In . SVG Version: 6.00 Build 0)  -->
<!DOCTYPE svg PUBLIC "-//W3C//DTD SVG 1.1 Tiny//EN" "http://www.w3.org/Graphics/SVG/1.1/DTD/svg11-tiny.dtd">
<svg version="1.1" baseProfile="tiny" id="Capa_1" xmlns="http://www.w3.org/2000/svg" xmlns:xlink="http://www.w3.org/1999/xlink"
	 x="0px" y="0px" width="20px" height="100px" viewBox="0 0 20 100" xml:space="preserve">
<path d="M4.89,38.73v13.57c0,1.61,0.37,2.86,1.11,3.74c0.74,0.88,1.86,1.32,3.36,1.32c1.09,0,2.12-0.26,3.09-0.78
	s1.86-1.24,2.67-2.16V38.73h3.74V60h-2.22c-0.53,0-0.87-0.26-1.01-0.78l-0.29-2.29c-0.92,1.02-1.96,1.84-3.11,2.47
	c-1.15,0.62-2.46,0.94-3.95,0.94c-1.16,0-2.19-0.19-3.08-0.58s-1.63-0.93-2.24-1.63c-0.6-0.7-1.05-1.55-1.35-2.54
	c-0.3-0.99-0.45-2.09-0.45-3.3V38.73H4.89z"/>
</svg>
