<?xml version="1.0" encoding="utf-8"?>
<!-- Generator: Adobe Illustrator 16.0.0, SVG Export Plug-In . SVG Version: 6.00 Build 0)  -->
<!DOCTYPE svg PUBLIC "-//W3C//DTD SVG 1.1 Tiny//EN" "http://www.w3.org/Graphics/SVG/1.1/DTD/svg11-tiny.dtd">
<svg version="1.1" baseProfile="tiny" id="Capa_1" xmlns="http://www.w3.org/2000/svg" xmlns:xlink="http://www.w3.org/1999/xlink"
	 x="0px" y="0px" width="22px" height="100px" viewBox="0 0 22 100" xml:space="preserve">
<path d="M11.02,38.39c1.55,0,2.96,0.26,4.21,0.78c1.25,0.52,2.32,1.25,3.19,2.21s1.55,2.1,2.02,3.45c0.47,1.35,0.7,2.86,0.7,4.53
	c0,1.68-0.23,3.19-0.7,4.54c-0.47,1.34-1.14,2.49-2.02,3.44s-1.94,1.68-3.19,2.19c-1.25,0.51-2.66,0.77-4.21,0.77
	c-1.55,0-2.96-0.26-4.21-0.77c-1.25-0.51-2.32-1.24-3.2-2.19c-0.88-0.95-1.56-2.1-2.04-3.44c-0.48-1.34-0.71-2.86-0.71-4.54
	c0-1.67,0.24-3.17,0.71-4.53c0.48-1.35,1.15-2.5,2.04-3.45c0.88-0.95,1.95-1.69,3.2-2.21C8.06,38.65,9.47,38.39,11.02,38.39z
	 M11.02,57.38c2.1,0,3.67-0.7,4.71-2.11c1.04-1.41,1.55-3.37,1.55-5.89c0-2.53-0.52-4.51-1.55-5.92c-1.04-1.41-2.6-2.12-4.71-2.12
	c-1.06,0-1.99,0.18-2.77,0.55s-1.44,0.89-1.96,1.58s-0.92,1.53-1.18,2.53c-0.26,1-0.39,2.13-0.39,3.39s0.13,2.39,0.39,3.38
	c0.26,0.99,0.65,1.83,1.18,2.51s1.18,1.2,1.96,1.56S9.96,57.38,11.02,57.38z"/>
</svg>
