<?xml version="1.0" encoding="utf-8"?>
<!-- Generator: Adobe Illustrator 16.0.0, SVG Export Plug-In . SVG Version: 6.00 Build 0)  -->
<!DOCTYPE svg PUBLIC "-//W3C//DTD SVG 1.1 Tiny//EN" "http://www.w3.org/Graphics/SVG/1.1/DTD/svg11-tiny.dtd">
<svg version="1.1" baseProfile="tiny" id="Capa_1" xmlns="http://www.w3.org/2000/svg" xmlns:xlink="http://www.w3.org/1999/xlink"
	 x="0px" y="0px" width="32px" height="100px" viewBox="0 0 32 100" xml:space="preserve">
<path d="M2.47,60V38.73h2.23c0.53,0,0.87,0.26,1.01,0.78l0.27,2.18c0.78-0.97,1.66-1.76,2.64-2.37c0.97-0.62,2.1-0.92,3.39-0.92
	c1.44,0,2.61,0.4,3.5,1.2s1.53,1.88,1.92,3.23c0.29-0.77,0.68-1.44,1.17-2c0.48-0.56,1.03-1.02,1.63-1.39s1.24-0.63,1.92-0.8
	c0.68-0.17,1.37-0.25,2.07-0.25c1.12,0,2.12,0.18,2.99,0.54c0.88,0.36,1.62,0.88,2.23,1.56c0.61,0.69,1.07,1.53,1.4,2.53
	c0.32,1,0.48,2.15,0.48,3.43V60h-3.74V46.46c0-1.67-0.36-2.93-1.09-3.79c-0.73-0.86-1.79-1.29-3.17-1.29c-0.62,0-1.2,0.11-1.75,0.33
	c-0.55,0.22-1.04,0.54-1.46,0.96s-0.75,0.95-1,1.58c-0.25,0.64-0.37,1.38-0.37,2.22V60h-3.74V46.46c0-1.71-0.34-2.98-1.03-3.82
	c-0.69-0.84-1.69-1.26-3-1.26c-0.92,0-1.78,0.25-2.57,0.75c-0.79,0.5-1.52,1.17-2.17,2.03V60H2.47z"/>
</svg>
