<?xml version="1.0" encoding="utf-8"?>
<!-- Generator: Adobe Illustrator 16.0.0, SVG Export Plug-In . SVG Version: 6.00 Build 0)  -->
<!DOCTYPE svg PUBLIC "-//W3C//DTD SVG 1.1 Tiny//EN" "http://www.w3.org/Graphics/SVG/1.1/DTD/svg11-tiny.dtd">
<svg version="1.1" baseProfile="tiny" id="Capa_1" xmlns="http://www.w3.org/2000/svg" xmlns:xlink="http://www.w3.org/1999/xlink"
	 x="0px" y="0px" width="20.73px" height="100px" viewBox="0 0 20.73 100" xml:space="preserve">
<path d="M0,38.73h3.07c0.29,0,0.54,0.08,0.73,0.23c0.2,0.15,0.34,0.34,0.42,0.55l5.4,13.69c0.2,0.5,0.35,1.01,0.46,1.51
	c0.11,0.5,0.22,1,0.32,1.49c0.11-0.49,0.23-0.99,0.36-1.49c0.13-0.5,0.29-1.01,0.48-1.51L16.7,39.5c0.08-0.22,0.22-0.41,0.41-0.56
	c0.19-0.15,0.42-0.22,0.7-0.22h2.92L12.05,60H8.67L0,38.73z"/>
</svg>
